<svg xmlns="http://www.w3.org/2000/svg" viewBox="0 0 1000 1000" fill="currentColor"><path d="M125.361 169.773C173.429 213.549 231.798 274.494 257.549 314.837L309.910 276.210C282.442 236.725 223.215 177.498 174.288 135.438M560.554 402.391L560.554 459.043L679.867 459.043L679.867 672.777L529.652 672.777L529.652 729.429L891.884 729.429L891.884 672.777L741.670 672.777L741.670 459.043L861.841 459.043L861.841 402.391L741.670 402.391L741.670 212.691L873.858 212.691L873.858 156.039L547.678 156.039L547.678 212.691L679.867 212.691L679.867 402.391M485.876 113.979C473.858 140.588 458.408 165.481 441.240 190.373C423.215 162.906 400.897 135.438 372.571 108.828L329.652 139.730C362.270 171.489 386.305 204.966 403.472 238.442C369.996 277.927 331.369 312.262 291.884 338.871C304.760 349.172 326.219 371.489 333.944 382.648C365.704 358.614 398.322 329.429 427.506 296.811C436.948 327.712 442.957 358.614 446.391 391.232C410.339 451.318 350.253 516.554 297.893 550.888C311.627 561.189 327.077 581.790 335.661 595.524C373.429 566.339 415.489 521.704 450.682 474.494L450.682 483.936C450.682 575.781 444.674 665.052 427.506 688.227C422.356 695.094 415.489 697.670 405.189 698.528C391.455 700.245 367.421 700.245 339.094 698.528C348.536 715.695 353.687 737.155 354.545 756.897C381.155 757.755 408.622 757.755 430.940 753.464C448.966 750.888 462.700 743.163 472.142 730.288C502.185 691.661 509.052 590.373 509.052 486.511C509.052 401.532 503.901 320.845 470.425 245.309C497.893 209.258 521.927 169.773 540.811 129.429M287.592 425.567L113.343 425.567L113.343 485.652L225.790 485.652L225.790 750.888C186.305 765.481 142.528 798.099 99.609 836.725L145.103 890.803C190.597 841.017 235.232 797.240 266.991 797.240C286.734 797.240 315.060 821.275 351.112 841.017C411.197 871.918 485.876 881.361 586.305 881.361C669.567 881.361 813.773 877.069 881.584 872.777C882.442 855.609 891.884 826.425 899.609 810.116C814.631 818.700 684.159 823.850 587.163 823.850C493.601 823.850 418.923 817.841 364.845 788.657C329.652 770.631 308.193 752.605 287.592 745.738"/></svg>