<svg xmlns="http://www.w3.org/2000/svg" viewBox="0 0 1000 1000" fill="currentColor"><path d="M434.798 723.854C472.567 761.622 520.635 814.841 544.670 845.742L591.021 807.974C566.987 777.931 517.202 727.288 480.292 691.236M703.468 141.880L809.906 197.674L662.266 197.674L662.266 104.970L602.180 104.970L602.180 197.674L385.013 197.674L385.013 250.893L602.180 250.893L602.180 301.536L417.631 301.536L417.631 595.957L473.425 595.957L473.425 547.888L602.180 547.888L602.180 586.515L662.266 586.515L662.266 547.888L797.030 547.888L797.030 595.957L855.399 595.957L855.399 301.536L662.266 301.536L662.266 250.893L889.734 250.893L889.734 197.674L842.524 197.674L863.124 168.489C832.223 152.180 774.712 123.854 733.511 105.828M602.180 349.605L602.180 405.399L473.425 405.399L473.425 349.605M662.266 349.605L797.030 349.605L797.030 405.399L662.266 405.399M602.180 447.459L602.180 504.970L473.425 504.970L473.425 447.459M662.266 447.459L797.030 447.459L797.030 504.970L662.266 504.970M715.485 581.365L715.485 635.442L350.678 635.442L350.678 689.519L715.485 689.519L715.485 826.858C715.485 837.159 712.910 839.734 699.176 840.592C686.300 841.451 643.382 841.451 595.313 840.592C603.897 856.043 611.622 879.219 614.197 895.528C676.858 895.528 716.343 895.528 742.094 886.086C766.987 876.644 773.854 860.335 773.854 827.717L773.854 689.519L900.034 689.519L900.034 635.442L773.854 635.442L773.854 581.365M219.348 105.828L219.348 278.361L112.052 278.361L112.052 338.446L219.348 338.446L219.348 514.412L100.034 550.464L112.052 613.124L219.348 578.790L219.348 819.991C219.348 832.009 215.056 835.442 204.755 835.442C194.455 836.300 160.979 836.300 124.069 834.584C131.794 852.609 140.378 879.219 142.094 894.670C197.030 895.528 229.648 892.953 250.249 882.652C271.708 873.210 279.433 855.185 279.433 819.991L279.433 559.047L373.854 528.146L364.412 468.918L279.433 495.528L279.433 338.446L372.137 338.446L372.137 278.361L279.433 278.361L279.433 105.828"/></svg>