<svg xmlns="http://www.w3.org/2000/svg" viewBox="0 0 1000 1000" fill="currentColor"><path d="M281.978 102.885C246.403 164.490 175.254 237.375 108.443 281.627C118.855 294.642 136.208 320.672 144.017 335.423C216.902 283.362 295.861 201.800 344.451 127.180M298.464 291.171C251.610 381.410 174.386 470.781 99.766 528.048C111.046 542.798 129.267 577.505 135.341 591.388C163.974 567.093 192.607 537.592 221.241 506.356L221.241 898.547L284.581 898.547L284.581 427.397C311.479 390.954 336.642 351.909 356.599 313.731M399.115 229.566L399.115 457.766C399.115 576.638 390.438 738.026 306.273 852.560C320.156 860.369 345.319 881.193 355.731 894.208C437.293 784.013 458.117 623.492 460.720 499.414L470.265 499.414C502.369 592.256 547.488 672.082 606.490 737.158C549.223 786.616 482.412 823.059 412.130 845.618C425.145 858.633 440.764 882.928 448.573 898.547C521.458 871.649 590.872 832.603 650.742 780.542C708.876 831.735 778.291 870.781 858.117 896.811C867.662 880.325 885.883 855.163 899.766 842.148C821.675 820.456 753.128 784.013 695.861 737.158C763.540 665.141 815.601 571.432 845.102 454.295L804.321 438.677L791.306 442.148L662.022 442.148L662.022 290.304L804.321 290.304C793.909 331.085 781.761 371.866 770.482 400.499L828.616 413.514C846.837 370.130 868.529 298.980 885.015 238.243L838.161 226.963L827.748 229.566L662.022 229.566L662.022 101.150L599.549 101.150L599.549 229.566M599.549 290.304L599.549 442.148L461.588 442.148L461.588 290.304M767.011 499.414C740.980 575.770 700.200 640.846 650.742 694.642C598.681 639.978 558.768 574.035 531.002 499.414"/></svg>