<svg xmlns="http://www.w3.org/2000/svg" viewBox="0 0 1000 1000" fill="currentColor"><path d="M178.972 372.368L178.972 540.012C178.972 631.217 171.154 753.693 102.533 843.161C117.300 850.978 145.096 872.694 155.519 884.855C230.220 788.438 243.250 644.246 243.250 540.881L243.250 431.434L886.029 431.434L886.029 372.368M271.046 656.407L271.046 714.605L544.661 714.605L544.661 900.490L612.414 900.490L612.414 714.605L898.190 714.605L898.190 656.407L612.414 656.407L612.414 562.596L852.153 562.596L852.153 505.267L315.345 505.267L315.345 562.596L544.661 562.596L544.661 656.407M473.434 100.490L473.434 244.681L249.330 244.681L249.330 134.366L183.315 134.366L183.315 303.747L839.124 303.747L839.124 134.366L771.371 134.366L771.371 244.681L542.055 244.681L542.055 100.490"/></svg>