<svg xmlns="http://www.w3.org/2000/svg" viewBox="0 0 1000 1000" fill="currentColor"><path d="M420.825 715.312C458.760 752.404 507.653 804.669 531.257 835.017L580.994 800.454C555.704 770.106 505.967 721.213 468.033 686.650M694.798 145.449C721.773 159.780 753.807 179.169 778.254 195.185L648.433 195.185L648.433 113.415L587.738 113.415L587.738 195.185L355.915 195.185L355.915 246.608L587.738 246.608L587.738 298.031L389.634 298.031L389.634 581.276L448.644 581.276L448.644 531.540L587.738 531.540L587.738 572.846L648.433 572.846L648.433 531.540L790.899 531.540L790.899 580.433L852.437 580.433L852.437 298.031L648.433 298.031L648.433 246.608L888.686 246.608L888.686 195.185L815.346 195.185L835.577 174.111C811.131 157.251 764.766 131.118 730.203 114.258M717.558 558.515L717.558 620.897L333.997 620.897L333.997 673.162L717.558 673.162L717.558 816.471C717.558 828.273 714.187 830.802 700.699 831.645C687.211 832.488 643.375 832.488 592.796 830.802C601.226 847.662 609.655 869.580 612.184 885.596C676.252 885.596 719.244 885.596 745.377 877.166C770.667 867.894 778.254 852.720 778.254 818.157L778.254 673.162L900.488 673.162L900.488 620.897L778.254 620.897L778.254 558.515M587.738 342.709L587.738 394.975L448.644 394.975L448.644 342.709M648.433 342.709L790.899 342.709L790.899 394.975L648.433 394.975M587.738 437.124L587.738 490.233L448.644 490.233L448.644 437.124M648.433 437.124L790.899 437.124L790.899 490.233L648.433 490.233M309.550 114.258C262.342 242.393 183.944 368.842 100.488 450.612C112.290 464.943 129.993 497.820 135.894 512.994C165.398 482.646 194.060 447.240 221.879 408.463L221.879 884.753L282.574 884.753L282.574 313.204C315.451 255.038 345.799 193.499 369.403 131.961"/></svg>