<svg xmlns="http://www.w3.org/2000/svg" viewBox="0 0 1000 1000" fill="currentColor"><path d="M474.294 133.519C504.241 175.444 539.321 233.626 553.866 271.273L606.914 243.893C590.658 207.957 556.433 153.198 524.775 111.273M202.209 136.086C229.588 171.166 257.824 219.080 269.802 249.882L321.139 217.369C308.305 185.711 278.358 140.364 248.412 106.995M493.973 470.631L615.471 470.631L615.471 551.914L493.973 551.914M678.786 470.631L804.561 470.631L804.561 551.914L678.786 551.914M493.973 339.722L615.471 339.722L615.471 420.150L493.973 420.150M678.786 339.722L804.561 339.722L804.561 420.150L678.786 420.150M391.299 675.123L391.299 733.305L615.471 733.305L615.471 892.449L678.786 892.449L678.786 733.305L900.390 733.305L900.390 675.123L678.786 675.123L678.786 604.107L864.455 604.107L864.455 287.529L736.112 287.529C763.492 240.471 794.294 179.722 818.251 126.674L756.647 107.850C736.968 161.754 702.743 236.193 673.652 287.529L437.503 287.529L437.503 604.107L615.471 604.107L615.471 675.123M121.781 252.449L121.781 311.487L326.273 311.487C275.791 417.583 185.952 519.401 100.390 577.583C108.947 588.706 123.492 620.364 128.626 637.476C164.561 610.952 201.353 577.583 236.433 539.936L236.433 891.594L294.615 891.594L294.615 525.390C322.850 561.326 356.219 606.674 371.620 630.631L410.979 576.727C395.578 557.904 333.973 487.743 304.027 456.941C344.241 400.471 380.176 337.155 404.134 272.128L370.765 249.882L358.786 252.449"/></svg>