<svg xmlns="http://www.w3.org/2000/svg" viewBox="0 0 1000 1000" fill="currentColor"><path d="M289.913 195.476C257.879 299.372 186.883 380.758 100.303 428.377C110.693 443.095 126.277 475.996 131.472 491.580C199.870 450.022 258.745 390.281 302.035 318.420C367.835 408.463 470.866 425.779 633.636 425.779L877.792 425.779C881.255 407.597 890.779 379.892 900.303 366.905C854.416 367.771 668.268 367.771 633.636 367.771C598.139 367.771 565.238 366.905 534.935 365.173L534.935 289.848L740.996 289.848L740.996 242.229L534.935 242.229L534.935 172.100L786.883 172.100C773.896 204.134 759.177 237.035 745.325 259.545L801.602 274.264C824.978 237.900 850.087 179.026 870.866 127.944L824.113 114.957L812.857 117.554L158.312 117.554L158.312 172.100LNaN 172.100LNaN 356.515C405.931 344.394 358.312 319.286 326.277 270.801C335.801 251.753 343.593 230.974 350.519 210.195M264.805 551.320L471.732 551.320L471.732 637.900L264.805 637.900M535.801 551.320L740.996 551.320L740.996 637.900L535.801 637.900M128.009 785.087L132.338 848.290C295.974 842.229 543.593 831.840 778.225 821.450C807.662 844.827 833.636 867.338 853.550 884.654L896.840 843.095C850.087 803.268 761.775 735.736 691.645 688.983L805.931 688.983L805.931 501.104L535.801 501.104L535.801 443.961L471.732 443.961L471.732 501.104L203.333 501.104L203.333 688.983L471.732 688.983L471.732 778.160C337.532 781.623 216.320 784.221 128.009 785.087M645.758 722.749C667.403 737.468 690.779 753.918 714.156 771.234L535.801 776.429L535.801 688.983L684.719 688.983"/></svg>