<svg xmlns="http://www.w3.org/2000/svg" viewBox="0 0 1000 1000" fill="currentColor"><path d="M680.316 109.386C664.334 144.014 635.921 193.737 612.836 228.365L408.618 228.365C394.412 194.625 364.223 147.566 334.034 112.938L276.321 136.911C297.630 164.436 319.828 198.176 334.922 228.365L158.230 228.365L158.230 289.630L455.677 289.630C450.350 316.267 444.134 341.129 437.031 365.990L200.849 365.990L200.849 425.479L419.273 425.479C409.506 453.004 399.739 479.642 388.196 504.503L118.274 504.503L118.274 566.656L357.120 566.656C296.743 673.204 214.168 755.779 99.628 813.493C113.835 826.811 138.696 856.112 148.463 870.319C243.468 816.156 318.940 746.900 378.430 660.774L378.430 700.729L557.786 700.729L557.786 827.699L261.226 827.699L261.226 889.852L896.964 889.852L896.964 827.699L627.042 827.699L627.042 700.729L832.148 700.729L832.148 638.576L392.636 638.576C407.730 615.491 421.049 591.517 433.479 566.656L899.628 566.656L899.628 504.503L461.892 504.503C471.659 479.642 481.426 453.004 490.305 425.479L822.381 425.479L822.381 365.990L508.063 365.990C515.166 341.129 520.494 316.267 526.709 289.630L865.888 289.630L865.888 228.365L686.532 228.365C708.729 199.064 731.815 164.436 753.124 131.584"/></svg>