<svg xmlns="http://www.w3.org/2000/svg" viewBox="0 0 1000 1000" fill="currentColor"><path d="M461.919 154.135L461.919 218.135L629.703 218.135L629.703 443L433.378 443L433.378 507L629.703 507L629.703 895.324L698.892 895.324L698.892 507L900.405 507L900.405 443L698.892 443L698.892 218.135L872.730 218.135L872.730 154.135M349.486 340.081C339.108 455.108 316.622 551.108 284.622 628.081C253.486 601.270 220.622 575.324 190.351 551.973C205.919 492.297 222.351 417.054 237.054 340.081M119.432 573.595C163.541 606.459 211.108 646.243 256.081 686.892C215.432 758.676 163.541 809.703 100.405 840.838C114.243 852.946 131.541 878.027 140.189 893.595C205.919 856.405 260.405 804.514 303.649 732.730C342.568 770.784 376.297 807.973 398.784 839.108L445.486 787.216C419.541 753.486 379.757 712.838 334.784 671.324C378.027 574.459 403.973 447.324 414.351 282.135L376.297 276.081L365.054 277.811L247.432 277.811C257.811 219 266.459 160.189 272.514 107.432L209.378 104.838C204.189 157.595 196.405 217.270 186.027 277.811L109.919 277.811L109.919 340.081L174.784 340.081C157.486 428.297 137.595 513.054 119.432 573.595"/></svg>