<svg xmlns="http://www.w3.org/2000/svg" viewBox="0 0 1000 1000" fill="currentColor"><path d="M328.571 359.983L517.615 359.983L517.615 468.253L328.571 468.253M328.571 301.551L325.994 301.551C351.772 273.194 375.832 243.119 397.315 213.903L639.635 213.903C619.871 243.979 594.952 275.772 570.032 301.551M786.574 359.983L786.574 468.253L582.922 468.253L582.922 359.983M389.581 99.618C346.617 186.406 264.125 291.240 148.120 369.435C163.588 378.887 185.070 401.229 196.241 416.696C220.301 399.510 242.642 381.465 263.265 362.561L263.265 516.374C263.265 622.926 252.095 757.835 156.713 853.216C170.462 861.809 195.381 886.728 205.693 899.618C263.265 842.904 295.059 769.005 311.386 694.247L517.615 694.247L517.615 873.839L582.922 873.839L582.922 694.247L786.574 694.247L786.574 808.533C786.574 822.281 781.418 826.578 766.810 826.578C752.202 827.437 699.785 828.296 646.509 825.719C655.102 843.764 666.273 872.120 669.710 890.165C740.172 890.165 787.433 889.306 815.789 878.135C843.287 867.824 851.880 848.060 851.880 809.392L851.880 301.551L645.650 301.551C678.303 265.461 710.956 224.215 732.438 186.406L688.614 155.472L678.303 158.909L434.264 158.909L460.902 113.366M328.571 524.967L517.615 524.967L517.615 636.675L321.697 636.675C326.853 598.006 328.571 559.338 328.571 524.967M786.574 524.967L786.574 636.675L582.922 636.675L582.922 524.967"/></svg>