<svg xmlns="http://www.w3.org/2000/svg" viewBox="0 0 1000 1000" fill="currentColor"><path d="M163.254 277.156L163.254 776.939L231.800 776.939L231.800 343.100L460 343.100L460 900.150L530.282 900.150L530.282 343.100L769.761 343.100L769.761 691.039C769.761 706.657 764.555 710.128 747.202 710.996C730.716 711.863 670.846 711.863 607.505 710.128C617.050 728.349 629.197 755.247 632.668 773.469C712.495 773.469 764.555 773.469 796.659 763.056C827.028 752.644 836.573 731.820 836.573 691.907L836.573 277.156L530.282 277.156L530.282 100.150L460 100.150L460 277.156"/></svg>