<svg xmlns="http://www.w3.org/2000/svg" viewBox="0 0 1000 1000" fill="currentColor"><path d="M392.643 488.630L546.724 488.630L546.724 559.141L392.643 559.141M392.643 373.723L546.724 373.723L546.724 442.493L392.643 442.493M139.324 151.742C183.720 180.469 238.563 224.865 265.548 255.333L309.074 210.066C282.088 181.339 225.505 139.555 181.109 111.699M109.727 387.651C155.864 415.507 212.447 456.421 240.304 483.407L281.218 436.399C252.491 408.543 194.166 370.240 148.900 345.866M128.878 857.727L187.202 890.806C222.893 806.367 263.807 694.071 293.405 598.314L242.045 564.365C209.836 667.085 162.828 786.345 128.878 857.727M439.651 99.511L439.651 196.138L321.261 196.138L321.261 253.592L439.651 253.592L439.651 325.844L338.671 325.844L338.671 607.020L439.651 607.020L439.651 680.143L304.721 680.143L304.721 739.337L439.651 739.337L439.651 898.641L500.587 898.641L500.587 739.337L625.070 739.337L625.070 680.143L500.587 680.143L500.587 607.020L602.436 607.020L602.436 325.844L500.587 325.844L500.587 253.592L622.458 253.592L622.458 196.138L500.587 196.138L500.587 99.511M832.251 190.045L832.251 333.679L719.085 333.679L719.085 190.045M660.761 130.850L660.761 479.054C660.761 601.797 653.797 757.618 573.709 864.691C587.638 871.655 612.012 889.936 622.458 899.511C682.523 818.554 706.027 705.387 714.732 600.055L832.251 600.055L832.251 816.813C832.251 829.871 827.899 833.353 816.582 834.223C806.136 834.223 768.704 834.223 729.531 832.482C737.366 849.892 745.200 879.490 747.812 896.029C803.524 896.900 839.215 894.288 861.849 883.842C884.482 873.396 890.576 853.374 890.576 817.683L890.576 130.850M832.251 392.874L832.251 540.861L718.214 540.861L719.085 479.054L719.085 392.874"/></svg>