<svg xmlns="http://www.w3.org/2000/svg" viewBox="0 0 1000 1000" fill="currentColor"><path d="M227.292 291.996L227.292 330.340L405.070 330.340L405.070 291.996M211.606 368.684L211.606 407.028L404.198 407.028L404.198 368.684M568.033 368.684L568.033 407.028L763.240 407.028L763.240 368.684M568.033 291.996L568.033 330.340L748.425 330.340L748.425 291.996M209.863 492.431L376.312 492.431L376.312 569.991L209.863 569.991M120.102 210.950L120.102 358.227L180.233 358.227L180.233 256.266L453.871 256.266L453.871 421.843L518.359 421.843L518.359 256.266L795.484 256.266L795.484 358.227L856.486 358.227L856.486 210.950L518.359 210.950L518.359 165.634L806.813 165.634L806.813 116.832L171.519 116.832L171.519 165.634L453.871 165.634L453.871 210.950M149.732 644.065L149.732 820.100L100.059 824.458L106.159 877.617C200.277 868.031 332.739 854.087 460.843 840.144L459.972 789.599L324.024 803.542L324.024 719.882L438.185 719.882L438.185 678.052C447.771 688.510 459.100 705.939 463.458 716.397C481.758 712.039 500.059 705.939 518.359 699.839L518.359 883.717L575.004 883.717L575.004 861.930L751.039 861.930L751.039 881.974L809.427 881.974L809.427 697.224C827.728 702.453 846.028 706.810 864.329 710.296C872.172 696.353 887.858 674.566 900.059 663.237C832.085 651.908 766.725 631.865 710.952 603.978C759.754 568.248 801.584 524.675 828.599 474.131L792.869 454.087L783.283 457.573L624.678 457.573C633.392 445.373 641.235 434.044 649.078 421.843L595.048 413.129C566.290 461.930 512.259 515.961 437.314 556.919C449.514 563.891 466.072 578.706 474.786 590.906C501.802 574.349 526.203 556.919 547.989 538.619C568.033 562.148 592.434 584.806 618.577 603.978C561.061 635.351 495.702 658.880 433.828 672.824L324.024 672.824L324.024 615.307L432.956 615.307L432.956 447.115L155.832 447.115L155.832 615.307L268.251 615.307L268.251 808.771L200.277 815.743L200.277 644.065M575.004 817.486L575.004 732.954L751.039 732.954L751.039 817.486M788.512 690.253L546.246 690.253C587.205 675.438 627.292 656.266 663.893 634.479C702.237 657.137 744.068 676.309 788.512 690.253M581.976 507.246L587.205 501.146L749.296 501.146C726.638 529.033 697.009 555.176 663.893 577.834C630.778 556.919 602.891 533.390 581.976 507.246"/></svg>