<svg xmlns="http://www.w3.org/2000/svg" viewBox="0 0 1000 1000" fill="currentColor"><path d="M99.616 663.742L113.424 730.193C202.313 709.481 323.133 682.728 438.775 655.112L432.734 592.976L303.284 621.455L303.284 258.996L421.515 258.996L421.515 195.134L108.246 195.134L108.246 258.996L238.559 258.996L238.559 635.263M427.556 134.724L427.556 199.449L554.416 199.449C534.567 298.694 507.814 416.061 485.376 491.142L809.001 491.142C793.467 683.591 777.933 769.028 752.043 791.466C741.687 800.096 728.742 801.822 708.893 801.822C683.003 801.822 615.689 800.959 545.786 794.918C560.457 813.041 570.813 841.520 572.539 860.506C635.538 864.821 697.674 865.684 729.605 863.958C765.851 861.369 787.426 855.328 808.138 832.890C843.521 797.507 859.918 702.577 877.178 459.211C878.041 449.718 878.904 428.143 878.904 428.143L569.950 428.143C587.210 359.967 605.333 275.393 620.867 199.449L899.616 199.449L899.616 134.724"/></svg>