<svg xmlns="http://www.w3.org/2000/svg" viewBox="0 0 1000 1000" fill="currentColor"><path d="M539.157 471.690C587.696 536.114 647.708 624.367 674.184 678.202L730.666 642.900C701.543 590.831 640.648 505.226 590.344 442.566M263.807 101.909C256.747 144.271 241.744 202.518 227.624 245.762L128.780 245.762L128.780 892.657L189.675 892.657L189.675 822.937L435.901 822.937L435.901 245.762L288.518 245.762C303.521 207.813 320.289 158.391 335.292 114.265M189.675 304.891L375.006 304.891L375.006 491.105L189.675 491.105M189.675 762.925L189.675 549.352L375.006 549.352L375.006 762.925M579.753 100.144C551.512 221.933 503.856 343.723 442.961 422.268C458.847 431.093 486.205 449.626 498.561 460.217C528.567 417.855 556.808 364.021 581.518 304.009L807.446 304.009C796.856 657.903 782.735 793.813 754.494 823.819C743.904 836.175 734.196 838.822 716.546 838.822C696.247 838.822 643.296 837.940 585.049 833.527C597.404 850.295 605.347 878.536 607.112 897.069C656.534 899.717 708.603 901.482 738.609 898.834C770.380 895.304 789.796 888.244 810.094 861.768C845.395 818.524 857.751 681.732 870.989 276.650C871.871 267.825 871.871 243.114 871.871 243.114L605.347 243.114C619.467 201.635 632.705 157.509 643.296 114.265"/></svg>