<svg xmlns="http://www.w3.org/2000/svg" viewBox="0 0 1000 1000" fill="currentColor"><path d="M99.532 821.152L99.532 884.687L899.532 884.687L899.532 821.152M159.488 737.931C180.069 728.982 214.969 725.403 472.687 708.400C471.792 694.083 473.582 666.342 477.161 648.445L243.604 660.078C334.879 564.329 427.049 439.944 504.007 311.980L444.051 280.660C418.101 329.877 386.781 379.989 355.461 425.626L218.548 431.890C276.714 350.459 335.774 244.866 381.412 141.957L317.877 116.902C276.714 230.548 204.230 353.143 181.859 383.568C160.383 415.783 144.275 437.260 127.273 441.734C135.327 459.631 145.170 490.056 148.749 503.479C163.067 498.110 186.333 493.635 313.403 485.582C271.345 542.852 233.761 587.595 215.864 606.387C182.754 644.866 158.593 669.922 137.116 675.291C145.170 692.293 155.908 724.508 159.488 737.931M525.483 732.562C547.855 724.508 584.544 720.034 866.423 704.821C866.423 690.503 868.213 662.763 871.792 644.866L613.179 656.499C706.244 562.539 801.098 442.629 881.635 318.244L821.680 286.029C795.729 331.667 764.409 378.199 733.984 421.152L587.228 426.521C647.183 346.879 706.244 243.076 753.671 141.063L690.136 116.007C646.289 228.758 573.805 348.669 551.434 379.094C529.063 411.309 512.060 431.890 495.058 436.365C503.112 453.367 512.955 484.687 516.535 498.110C531.747 492.740 555.908 489.161 690.136 480.213C643.604 539.273 603.336 585.805 584.544 604.597C550.539 641.286 524.588 665.447 504.007 670.817C511.166 687.819 521.904 719.139 525.483 732.562"/></svg>