<svg xmlns="http://www.w3.org/2000/svg" viewBox="0 0 1000 1000" fill="currentColor"><path d="M199.276 125.808C222.678 165.678 252.147 219.416 266.015 253.219L318.886 227.217C305.885 194.281 275.549 144.010 251.281 104.140M545.972 308.690L793.859 308.690L793.859 404.031L545.972 404.031M487.900 255.819L487.900 456.902L854.531 456.902L854.531 255.819M438.496 141.410L438.496 197.748L900.468 197.748L900.468 141.410M634.379 566.978L634.379 657.119L502.635 657.119L502.635 566.978M693.317 566.978L831.996 566.978L831.996 657.119L693.317 657.119M634.379 708.257L634.379 800.998L502.635 800.998L502.635 708.257M693.317 708.257L831.996 708.257L831.996 800.998L693.317 800.998M131.671 261.886L131.671 320.824L350.956 320.824C296.351 436.101 195.809 545.310 100.468 607.715C110.869 618.983 127.337 649.319 134.271 666.653C173.274 638.918 212.277 604.248 250.414 564.378L250.414 894.606L313.686 894.606L313.686 520.174C345.755 553.111 387.359 597.314 405.560 620.716L441.963 570.445L441.963 896.339L502.635 896.339L502.635 855.602L831.996 855.602L831.996 893.739L894.401 893.739L894.401 513.241L441.963 513.241L441.963 566.112C423.762 547.910 361.356 491.572 331.021 466.437C371.757 410.099 407.294 347.693 431.562 282.688L396.026 259.286L383.892 261.886"/></svg>