<svg xmlns="http://www.w3.org/2000/svg" viewBox="0 0 1000 1000" fill="currentColor"><path d="M421.304 434.449L183.774 434.449L183.774 169.366L421.304 169.366M492.563 434.449L492.563 169.366L731.043 169.366L731.043 434.449M110.615 100.007L110.615 737.537C110.615 868.653 159.071 900.007 314.891 900.007C351.945 900.007 650.283 900.007 692.088 900.007C840.306 900.007 872.610 849.651 889.713 697.632C867.860 692.881 836.506 679.580 817.504 668.178C803.252 799.295 787.100 829.698 690.188 829.698C627.480 829.698 361.447 829.698 309.190 829.698C202.777 829.698 183.774 812.596 183.774 739.437L183.774 503.808L731.043 503.808L731.043 553.214L804.202 553.214L804.202 100.007"/></svg>