<svg xmlns="http://www.w3.org/2000/svg" viewBox="0 0 1000 1000" fill="currentColor"><path d="M467.777 495.605L756.080 495.605L756.080 655.773L467.777 655.773M467.777 282.328L756.080 282.328L756.080 439.967L467.777 439.967M149.125 160.094C195.490 203.929 251.970 265.468 278.946 305.089L330.369 264.625C302.550 226.690 244.384 167.681 198.019 125.531M402.023 225.004L402.023 713.940L824.362 713.940L824.362 225.004L616.143 225.004C628.788 192.970 641.433 155.036 652.392 118.787L580.738 110.357C574.837 144.077 563.035 187.913 551.233 225.004M289.062 398.661L115.406 398.661L115.406 461.042L225.838 461.042L225.838 723.213C188.746 738.387 144.910 777.164 100.232 828.587L147.439 890.125C188.746 831.116 228.367 777.164 255.342 777.164C273.888 777.164 302.550 807.512 337.956 831.116C398.651 869.894 469.463 879.166 579.895 879.166C665.037 879.166 820.991 874.109 880 869.894C880.843 850.505 892.645 816.785 900.232 799.082C815.933 808.355 686.112 815.942 582.424 815.942C483.793 815.942 409.610 810.041 353.130 773.792C323.625 755.247 305.079 738.387 289.062 728.271"/></svg>