<svg xmlns="http://www.w3.org/2000/svg" viewBox="0 0 1000 1000" fill="currentColor"><path d="M625.086 115.889C639.757 139.190 655.291 168.532 666.510 194.422L455.076 194.422L455.076 389.460C442.131 348.899 417.104 293.667 392.077 252.243L347.201 270.366C373.091 316.968 400.707 379.967 411.926 421.391L455.076 402.405L455.076 469.718L455.076 501.649C406.748 543.073 361.009 581.908 329.078 606.935L361.872 654.400C391.214 629.373 421.419 602.620 451.624 575.004C442.994 675.112 417.967 782.987 344.612 864.972C357.557 871.876 380.858 888.273 390.351 899.492C496.499 781.261 512.033 601.757 512.033 469.718L512.033 250.517L886.575 250.517L886.575 194.422L731.235 194.422C719.153 166.806 700.167 131.423 681.181 102.944M601.785 272.092C587.114 353.214 561.224 431.746 520.663 485.252C533.608 491.293 558.635 505.101 568.991 512.868C588.840 484.389 606.100 448.143 620.771 408.446L680.318 408.446L680.318 490.430C680.318 510.279 680.318 532.717 677.729 556.881L528.430 556.881L528.430 612.113L669.099 612.113C651.839 693.235 606.963 782.987 492.184 855.479C505.992 864.972 524.978 883.095 534.471 895.177C629.401 830.452 680.318 754.508 707.071 681.153C742.454 770.042 795.097 847.712 858.959 890.862C868.452 876.191 886.575 855.479 899.520 845.986C827.028 801.110 766.618 710.495 733.824 612.113L886.575 612.113L886.575 556.881L734.687 556.881C736.413 533.580 737.276 511.142 737.276 490.430L737.276 408.446L856.370 408.446L856.370 354.077L638.031 354.077C644.935 330.776 650.976 306.612 655.291 282.448M284.202 338.543C278.161 449.869 263.490 543.073 240.189 619.017C219.477 599.168 197.039 579.319 175.464 561.196C189.272 497.334 203.943 418.802 216.888 338.543M112.465 581.908C147.848 610.387 184.957 644.044 219.477 678.564C189.272 751.919 149.574 803.699 99.520 836.493C113.328 847.712 128.862 869.287 136.629 883.958C188.409 845.986 229.833 794.206 261.764 723.440C286.791 752.782 308.366 780.398 323.037 804.562L361.009 754.508C343.749 727.755 316.996 694.961 285.065 662.167C316.133 566.374 334.256 442.102 340.297 282.448L305.777 278.133L296.284 279.859L225.518 279.859C234.148 218.586 241.052 158.176 245.367 103.807L189.272 101.218C185.820 155.587 178.916 217.723 169.423 279.859L111.602 279.859L111.602 338.543L160.793 338.543C146.122 430.020 128.862 518.046 112.465 581.908"/></svg>