<svg xmlns="http://www.w3.org/2000/svg" viewBox="0 0 1000 1000" fill="currentColor"><path d="M144.758 143.923C198.385 177.330 266.956 227.440 301.242 259.088L344.319 209.857C310.033 179.967 238.824 132.495 186.077 100.846M99.923 388.319C150.033 416.451 215.967 457.769 249.374 485.022L288.934 434.033C254.648 406.780 187.835 368.099 138.604 342.604M129.813 841.066L186.956 882.385C230.912 802.385 282.780 695.132 321.462 605.462L269.593 565.022C227.396 661.725 169.374 775.132 129.813 841.066M467.396 637.989L748.714 637.989L748.714 702.165L467.396 702.165M467.396 588.758L467.396 526.341L748.714 526.341L748.714 588.758M406.736 473.593L406.736 897.330L467.396 897.330L467.396 750.516L748.714 750.516L748.714 830.516C748.714 841.945 745.198 845.462 732.890 845.462C720.582 846.341 679.264 846.341 635.308 844.582C642.341 860.407 651.132 883.264 653.769 898.209C716.187 898.209 755.747 898.209 780.363 888.538C804.099 879.747 812.011 863.923 812.011 830.516L812.011 473.593M412.890 121.066L412.890 358.429L320.582 358.429L320.582 507.879L381.242 507.879L381.242 412.055L835.747 412.055L835.747 507.879L899.923 507.879L899.923 358.429L806.736 358.429L806.736 121.066M472.670 358.429L472.670 278.429L592.231 278.429L592.231 358.429M744.319 358.429L647.615 358.429L647.615 233.593L472.670 233.593L472.670 173.813L744.319 173.813"/></svg>