<svg xmlns="http://www.w3.org/2000/svg" viewBox="0 0 1000 1000" fill="currentColor"><path d="M497.826 717.087L767.391 717.087L767.391 806.652L497.826 806.652M497.826 664.913L497.826 578.826L767.391 578.826L767.391 664.913M437.826 524.043L437.826 899.696L497.826 899.696L497.826 862.304L767.391 862.304L767.391 897.957LNaN 897.957LNaN 524.043M576.087 115.348C588.261 141.435 600.435 174.478 608.261 202.304L403.913 202.304L403.913 259.696L857.826 259.696L857.826 202.304L676.087 202.304C668.261 171.870 652.609 131.870 637.826 99.696M736.957 265.783C726.522 304.043 707.391 358.826 NaN 398.826L528.261 398.826L565.652 387.522C557.826 355.348 538.696 304.043 521.304 264.913L465.652 280.565C480.435 317.087 496.957 365.783 503.913 398.826L379.565 398.826L379.565 457.957L883.913 457.957L883.913 398.826L750.870 398.826C768.261 363.174 787.391 318.826 804.783 278.826M290.870 477.087L290.870 677.957L175.217 677.957L175.217 477.087M290.870 417.087L175.217 417.087L175.217 224.913L290.870 224.913M116.957 164.043L116.957 806.652L175.217 806.652L175.217 737.957L349.130 737.957L349.130 164.043"/></svg>