<svg xmlns="http://www.w3.org/2000/svg" viewBox="0 0 1000 1000" fill="currentColor"><path d="M100.307 714.913L120.974 778.637C189.865 751.942 275.118 718.357 357.788 684.773L345.732 626.215L262.201 657.216L262.201 373.040L344.871 373.040L344.871 312.760L262.201 312.760L262.201 112.975L201.921 112.975L201.921 312.760L110.640 312.760L110.640 373.040L201.921 373.040L201.921 679.606C164.031 693.384 128.724 705.440 100.307 714.913M810.748 390.263C791.803 469.488 765.969 542.685 732.384 606.409C718.606 521.156 708.272 414.375 703.967 294.676L885.667 294.676L885.667 234.396L822.804 234.396L865.861 204.256C844.333 176.700 799.553 135.365 761.663 107.808L718.606 136.226C754.774 164.644 796.970 205.978 817.637 234.396L702.244 234.396C701.383 191.339 701.383 147.421 701.383 101.780L639.381 101.780L641.964 234.396L380.178 234.396L380.178 503.072C380.178 615.020 371.566 757.109 285.452 857.001C299.230 864.751 323.342 885.419 332.815 897.475C426.679 789.832 440.457 625.354 440.457 503.072L440.457 465.182L548.961 465.182C547.239 621.048 543.794 676.161 535.183 689.940C530.016 696.829 523.127 698.551 512.793 698.551C501.598 698.551 474.903 698.551 445.624 695.968C454.236 709.746 459.403 733.858 461.125 750.220C491.265 751.942 521.405 751.942 538.628 750.220C559.295 747.636 571.351 741.608 583.407 726.969C598.907 704.579 602.352 634.827 604.935 435.903C605.797 428.153 605.797 410.930 605.797 410.930L440.457 410.930L440.457 294.676L643.687 294.676C650.576 444.515 662.632 580.575 685.883 683.912C639.381 749.358 582.546 804.471 513.654 846.667C527.433 857.001 550.684 880.252 560.156 891.447C615.269 854.418 663.493 808.777 704.828 756.248C731.523 838.056 767.691 886.280 815.915 886.280C871.889 886.280 890.834 845.806 900.307 715.774C885.667 709.746 NaN 696.829 852.083 683.051C848.638 782.082 840.888 824.278 823.665 824.278C795.248 824.278 769.413 776.915 749.607 694.245C802.137 611.576 841.749 514.267 870.167 401.457"/></svg>