<svg xmlns="http://www.w3.org/2000/svg" viewBox="0 0 1000 1000" fill="currentColor"><path d="M146.760 133.961C168.547 165.333 191.205 208.035 198.176 235.922L246.978 215.878C238.264 188.863 214.734 147.033 192.076 116.532M362.882 341.368C376.826 375.355 391.641 419.800 397.741 449.429L431.728 436.357C427.370 409.342 411.684 365.769 395.998 331.782M450.028 112.174C436.956 143.547 411.684 189.734 393.383 218.492L436.956 235.050C456.129 207.163 478.786 167.948 497.959 130.475M237.392 332.654C229.549 378.841 216.477 426.771 196.434 464.244C206.891 467.730 224.320 476.444 232.163 481.673C250.464 445.943 266.150 391.041 276.608 341.368M612.120 569.691L612.120 639.407L375.083 639.407L375.083 569.691L310.595 569.691L310.595 639.407L100.573 639.407L100.573 696.924L305.366 696.924C292.294 751.826 250.464 808.471 121.488 848.558C135.431 860.758 154.603 885.159 162.447 899.974C316.695 849.429 361.139 772.741 371.597 696.924L612.120 696.924L612.120 899.974L676.608 899.974L676.608 696.924L885.758 696.924L885.758 639.407L676.608 639.407L676.608 569.691M290.551 99.974L290.551 243.765L134.560 243.765L134.560 554.004L185.105 554.004L185.105 291.695L295.780 291.695L295.780 540.061L342.839 540.061L342.839 291.695L454.386 291.695L454.386 486.902C454.386 494.745 452.643 497.359 443.928 498.231C436.085 499.102 412.556 498.231 382.926 498.231C389.898 512.174 396.869 532.218 398.612 546.161C437.828 546.161 465.715 546.161 484.015 537.447C502.316 528.732 505.802 513.917 505.802 487.773L505.802 334.397C517.131 347.468 534.560 369.255 540.660 379.712C557.218 359.669 573.776 336.139 588.590 309.996C609.505 353.569 634.778 392.784 665.279 427.643C625.192 460.758 577.261 486.031 521.488 505.203C531.946 517.403 548.503 542.675 552.861 554.876C611.248 532.218 662.664 503.460 705.366 467.730C749.810 506.074 801.227 536.575 861.357 555.747C869.200 540.932 886.630 520.017 898.830 507.817C840.442 491.259 789.026 464.244 745.453 428.514C789.026 379.712 822.142 320.453 843.057 247.251L889.244 247.251L889.244 193.220L646.978 193.220C658.307 167.076 667.893 140.932 676.608 114.789L621.706 99.974C596.434 185.377 554.603 269.908 505.802 328.296L505.802 243.765L347.196 243.765L347.196 99.974M622.577 247.251L782.054 247.251C765.497 303.895 739.353 350.954 704.495 390.170C668.765 350.083 640.007 303.895 620.834 252.479"/></svg>