<svg xmlns="http://www.w3.org/2000/svg" viewBox="0 0 1000 1000" fill="currentColor"><path d="M379.104 370.981L379.104 421.089L900.054 421.089L900.054 370.981L670.248 370.981L670.248 311.369L850.810 311.369L850.810 264.717L670.248 264.717L670.248 212.017L868.089 212.017L868.089 161.909L670.248 161.909L670.248 102.298L604.590 102.298L604.590 161.909L411.933 161.909L411.933 212.017L604.590 212.017L604.590 264.717L430.076 264.717L430.076 311.369L604.590 311.369L604.590 370.981M334.179 106.618C316.037 141.175 290.983 176.596 262.473 211.153C237.419 176.596 205.454 142.039 164.849 109.210L119.924 144.631C163.985 180.916 196.814 218.929 221.868 257.806C184.719 296.683 144.978 332.104 103.510 361.477C118.197 371.844 138.931 390.851 148.434 402.946C183.855 376.164 218.413 345.927 251.242 313.097C268.521 351.110 278.888 389.987 285.799 430.592C243.467 509.210 167.441 593.011 100.054 635.343C116.469 648.302 134.611 669.901 144.114 684.587C195.086 646.575 250.378 586.099 293.575 523.896L294.438 569.685C294.438 685.451 285.799 787.395 262.473 817.633C255.562 827.136 246.058 832.320 233.099 834.048C212.365 835.775 176.080 836.639 132.019 833.184C144.114 851.326 151.026 875.516 151.026 896.251C189.903 897.978 227.052 897.114 258.153 891.067C280.616 887.611 297.030 878.972 309.989 861.693C346.274 812.449 355.778 698.410 355.778 570.549C355.778 464.285 347.138 361.477 296.166 265.581C332.451 223.248 365.281 179.188 391.199 135.127M515.605 627.568L775.648 627.568L775.648 690.635L515.605 690.635M515.605 580.052L515.605 520.441L775.648 520.441L775.648 580.052M452.538 471.197L452.538 891.067L515.605 891.067L515.605 738.151L775.648 738.151L775.648 817.633C775.648 827.136 772.192 830.592 760.961 831.456C750.594 831.456 714.309 832.320 676.296 830.592C684.071 846.143 691.847 868.605 695.302 885.019C749.730 885.019 786.015 884.156 809.341 875.516C832.667 866.013 839.579 850.462 839.579 817.633L839.579 471.197"/></svg>