<svg xmlns="http://www.w3.org/2000/svg" viewBox="0 0 1000 1000" fill="currentColor"><path d="M569.567 279.216C653.550 304.325 762.641 347.615 817.186 377.918L846.623 331.165C788.615 299.996 679.524 261.035 597.273 238.524M718.485 517.312L718.485 583.113L422.381 583.113C434.502 562.333 444.892 540.688 454.416 517.312M780.823 369.260L219.784 369.260L219.784 418.610L416.320 418.610C411.991 437.658 406.797 454.974 401.602 472.290L121.948 472.290L121.948 517.312L383.420 517.312C373.030 540.688 360.043 563.199 346.190 583.113L209.394 583.113L209.394 632.463L302.900 632.463C252.684 681.814 186.017 717.312 103.766 742.420C117.619 754.541 138.398 782.247 146.190 796.100C197.273 777.918 243.160 755.407 282.987 729.433L282.987 899.996L345.325 899.996L345.325 869.693L749.654 869.693L749.654 897.398L815.455 897.398L815.455 682.680L342.727 682.680C359.177 667.095 374.762 650.645 388.615 632.463L780.823 632.463L780.823 517.312L895.974 517.312L895.974 472.290L780.823 472.290M718.485 472.290L470.866 472.290C476.061 454.974 481.255 437.658 484.719 418.610L718.485 418.610M345.325 822.074L345.325 730.299L749.654 730.299L749.654 822.074M409.394 233.329C338.398 274.022 240.563 308.654 161.775 328.567L194.675 377.052L219.784 369.260C299.437 344.152 386.017 305.190 456.147 263.632M436.234 115.580C445.758 132.896 456.147 152.810 463.939 171.857L136.667 171.857L136.667 307.788L201.602 307.788L201.602 224.671L801.602 224.671L801.602 304.325LNaN 304.325LNaN 171.857L539.264 171.857C529.740 149.346 515.022 121.641 502.035 99.996"/></svg>