<svg xmlns="http://www.w3.org/2000/svg" viewBox="0 0 1000 1000" fill="currentColor"><path d="M213.334 135.181C245.060 169.479 278.501 218.354 293.935 250.079L346.239 217.496C329.947 186.628 294.792 140.326 262.209 106.885M122.445 255.224L122.445 314.388L349.669 314.388C293.935 421.569 194.471 524.463 100.151 581.055C109.583 593.059 123.302 625.642 128.447 643.648C168.747 617.068 209.047 583.627 248.490 544.184L248.490 895.738L311.084 895.738L311.084 525.320C343.667 561.333 382.252 607.636 401.116 632.502L441.416 579.340C422.552 560.476 355.671 492.737 322.230 461.012C365.960 404.420 403.688 341.826 430.269 277.518L395.114 252.652L383.967 255.224M633.484 105.170L633.484 376.982L445.703 376.982L445.703 438.718L633.484 438.718L633.484 799.704L405.403 799.704L405.403 863.155L900.151 863.155L900.151 799.704L698.651 799.704L698.651 438.718L881.287 438.718L881.287 376.982L698.651 376.982L698.651 105.170"/></svg>