<svg xmlns="http://www.w3.org/2000/svg" viewBox="0 0 1000 1000" fill="currentColor"><path d="M265.260 176.121L783.583 176.121L783.583 274.135L265.260 274.135M265.260 332.413L546.938 332.413L546.938 431.309L264.377 431.309L265.260 373.914M332.369 595.547L332.369 881.640L395.945 881.640L395.945 850.735L768.572 850.735L768.572 879.874L834.797 879.874L834.797 595.547L613.163 595.547L613.163 491.353L900.139 491.353L900.139 431.309L613.163 431.309L613.163 332.413L849.808 332.413L849.808 116.960L199.035 116.960L199.035 373.914C199.035 515.194 190.205 710.338 100.139 848.086C116.916 855.150 146.055 871.927 158.417 882.523C229.057 773.914 254.664 622.921 261.728 491.353L546.938 491.353L546.938 595.547M395.945 791.574L395.945 654.709L768.572 654.709L768.572 791.574"/></svg>