<svg xmlns="http://www.w3.org/2000/svg" viewBox="0 0 1000 1000" fill="currentColor"><path d="M585.140 100.346L585.140 240.543L401.131 240.543L401.131 303.632L585.140 303.632L585.140 451.715L373.092 451.715L373.092 514.804L559.729 514.804C503.651 634.848 408.141 749.634 304.746 805.713C320.518 818.857 341.548 843.391 352.062 860.039C441.438 803.084 525.556 704.070 585.140 591.912L585.140 900.346L651.734 900.346L651.734 584.903C702.555 692.679 772.654 792.570 844.505 852.153C855.896 835.505 877.802 810.970 893.574 799.579C809.456 740.872 727.090 628.714 678.021 514.804L872.544 514.804L872.544 451.715L651.734 451.715L651.734 303.632L848.010 303.632L848.010 240.543L651.734 240.543L651.734 100.346M282.840 475.373L282.840 674.278L168.054 674.278L168.054 475.373M282.840 414.913L168.054 414.913L168.054 221.266L282.840 221.266M105.841 159.930L105.841 807.465L168.054 807.465L168.054 734.738L345.053 734.738L345.053 159.930"/></svg>