<svg xmlns="http://www.w3.org/2000/svg" viewBox="0 0 1000 1000" fill="currentColor"><path d="M442.481 245.893C452.749 263.005 463.016 283.540 471.572 302.364L283.337 302.364L283.337 350.278L717.134 350.278L717.134 302.364L539.166 302.364C529.754 280.118 515.209 251.027 500.663 229.636M333.818 820.866C351.786 812.310 380.877 808.032 625.583 786.642C637.561 805.465 647.829 823.433 654.674 838.834L640.984 837.979C649.540 853.380 659.807 874.770 664.086 891.027C724.834 891.027 764.193 891.027 787.294 881.615C812.107 873.059 818.096 856.802 818.096 825.144L818.096 618.086L491.251 618.086L519.487 567.604L769.326 567.604L769.326 364.824L709.433 364.824L709.433 520.545L290.182 520.545L290.182 364.824L232 364.824L232 567.604L448.471 567.604L421.947 618.086L179.807 618.086L179.807 897.016L242.267 897.016L242.267 670.278L391.144 670.278C376.599 693.380 364.620 711.348 357.775 719.904C341.519 743.005 326.973 757.551 313.283 760.118C320.984 777.230 331.251 807.176 333.818 820.866M754.781 670.278L754.781 825.144C754.781 834.556 751.358 837.979 739.380 838.834C729.112 839.690 700.021 839.690 662.374 838.834L706.866 819.155C687.187 777.230 640.984 715.626 599.059 670.278M550.289 688.246C564.834 704.503 579.380 722.471 593.070 741.294L396.278 755.840C417.668 730.171 438.203 701.080 458.738 670.278L593.070 670.278M344.086 400.759C381.733 409.316 421.947 422.150 462.160 435.840C414.246 453.807 362.053 469.209 313.283 481.187C324.406 488.888 341.519 506.856 349.219 515.412C402.267 500.011 460.449 479.476 515.209 454.663C565.690 474.342 611.037 495.733 643.551 514.556L678.631 478.620C649.540 463.219 611.037 445.251 568.257 428.995C599.059 411.882 627.294 393.914 650.396 374.235L607.615 357.123C583.658 376.802 553.711 394.770 520.342 411.027C472.428 393.914 422.802 378.513 378.310 368.246M495.529 102.150C421.091 184.289 265.369 249.316 100.235 290.385C113.070 301.508 129.326 325.465 137.027 339.155C273.925 302.364 399.701 250.171 489.540 180.866C581.091 247.604 735.957 303.219 858.310 332.310C867.722 315.198 883.979 292.096 900.235 277.551C774.460 255.305 617.882 206.535 532.321 143.219L549.433 126.107"/></svg>