<svg xmlns="http://www.w3.org/2000/svg" viewBox="0 0 1000 1000" fill="currentColor"><path d="M146.492 154.612C204.064 182.969 275.386 226.793 310.617 258.586L351.003 207.029C314.054 176.095 241.014 134.849 184.301 109.070M100.090 395.214C154.226 420.992 221.250 463.098 254.763 492.314L292.571 440.756C259.059 412.400 189.456 372.872 137.040 349.671M129.306 837.749L183.441 881.573C234.140 801.658 294.290 694.247 339.832 603.162L292.571 561.057C242.733 658.157 174.849 771.583 129.306 837.749M592.464 103.914C545.203 224.215 448.103 342.797 326.084 417.555C340.692 428.726 363.893 451.927 373.345 465.676C405.998 444.193 436.932 420.133 466.148 393.495L466.148 443.334L761.744 443.334L761.744 384.043L476.460 384.043C532.314 331.626 579.575 270.617 616.524 205.310C680.112 304.129 769.478 400.369 851.970 454.505C862.281 437.319 884.623 413.259 900.090 401.229C808.146 349.671 705.031 246.556 646.599 146.019L656.911 121.959M420.606 540.434L420.606 895.321L485.912 895.321L485.912 848.919L737.684 848.919L737.684 892.743L804.709 892.743L804.709 540.434M485.912 790.488L485.912 598.866L737.684 598.866L737.684 790.488"/></svg>