<svg xmlns="http://www.w3.org/2000/svg" viewBox="0 0 1000 1000" fill="currentColor"><path d="M116.265 267.580L116.265 327.098L395.477 327.098C384.098 360.359 371.845 391.869 356.965 422.503L198.540 422.503L198.540 479.396L327.206 479.396C273.814 568.674 201.166 643.947 99.635 697.339C112.764 709.593 132.020 734.101 141.648 749.856C203.792 715.720 256.309 673.707 300.072 625.567L300.072 883.772L366.593 883.772L366.593 840.884L756.965 840.884L756.965 882.022L826.112 882.022L826.112 570.425L345.586 570.425C366.593 541.540 384.974 510.906 401.604 479.396L804.230 479.396L804.230 327.098L899.635 327.098L899.635 267.580L804.230 267.580L804.230 117.033L209.044 117.033L209.044 174.801L434.864 174.801C428.737 206.311 421.735 236.945 413.858 267.580M366.593 782.241L366.593 629.068L756.965 629.068L756.965 782.241M737.709 327.098L737.709 422.503L428.737 422.503C442.742 391.869 454.120 359.484 464.624 327.098M737.709 267.580L482.129 267.580C490.882 236.945 497.884 206.311 504.886 174.801L737.709 174.801"/></svg>