<svg xmlns="http://www.w3.org/2000/svg" viewBox="0 0 1000 1000" fill="currentColor"><path d="M458.680 103.642L458.680 234.535L180.532 234.535L180.532 299.982L458.680 299.982L458.680 371.456C458.680 406.763 456.958 442.070 452.652 477.377L121.974 477.377L121.974 543.685L438.013 543.685C404.428 659.078 316.592 766.720 99.584 839.056C113.363 851.973 132.308 880.391 140.058 896.752C352.760 824.417 450.930 717.635 493.987 599.659C564.601 750.358 679.132 847.667 856.527 892.447CNaN 874.363 884.084 846.806 899.584 833.028C716.161 794.277 598.185 694.384 537.905 543.685L872.028 543.685L872.028 477.377L522.405 477.377C525.849 442.070 527.572 406.763 527.572 371.456L527.572 299.982L822.943 299.982L822.943 234.535L527.572 234.535L527.572 103.642"/></svg>