<svg xmlns="http://www.w3.org/2000/svg" viewBox="0 0 1000 1000" fill="currentColor"><path d="M387.457 248.699L644.632 248.699L644.632 306.541L387.457 306.541M387.457 351.034L644.632 351.034L644.632 409.766L387.457 409.766M387.457 147.253L644.632 147.253L644.632 204.205L387.457 204.205M323.386 100.089L323.386 456.040L710.483 456.040L710.483 100.089M172.997 500.534L172.997 555.706L391.017 555.706L391.017 626.007L116.044 626.007L116.044 683.849L213.931 683.849C206.812 762.158 185.455 818.220 119.604 851.146C133.842 861.824 151.640 884.961 157.869 900.089C241.517 856.485 267.324 784.405 275.333 683.849L391.017 683.849L391.017 891.190L455.978 891.190L455.978 500.534L237.958 500.534L237.958 148.142L172.997 148.142M884.009 627.786L641.962 627.786L641.962 555.706L863.542 555.706L863.542 148.142L797.691 148.142L797.691 500.534L577.001 500.534L577.001 891.190L641.962 891.190L641.962 686.518L819.048 686.518L819.048 892.970L884.009 892.970"/></svg>