<svg xmlns="http://www.w3.org/2000/svg" viewBox="0 0 1000 1000" fill="currentColor"><path d="M760.696 129.522C741.565 167.783 713.739 211.261 686.783 242.565C701.565 248.652 725.043 260.826 736.348 269.522C762.435 236.478 793.739 186.913 814.609 145.174M395.478 149.522C422.435 185.174 456.348 234.739 472.870 263.435L519.826 232.130C503.304 203.435 468.522 156.478 440.696 122.565M325.913 422.565L325.913 476.478L458.957 476.478C418.087 535.609 367.652 584.304 304.174 622.565C318.087 634.739 341.565 660.826 349.391 673.870C381.565 652.130 411.130 627.783 438.087 600.826L438.087 805.174C438.087 876.478 463.304 894.739 552.870 894.739C572 894.739 712.870 894.739 733.739 894.739C809.391 894.739 828.522 867.783 837.217 764.304C819.826 760.826 794.609 752.130 780.696 741.696C777.217 824.304 770.261 837.348 729.391 837.348C698.957 837.348 579.826 837.348 556.348 837.348C506.783 837.348 498.087 832.130 498.087 805.174L498.087 611.261L698.087 611.261L698.087 697.348C698.087 704.304 695.478 706.913 686.783 706.913C678.087 707.783 647.652 707.783 611.130 706.913C618.957 722.565 627.652 742.565 629.391 758.217C678.957 758.217 710.261 758.217 731.130 749.522C751.130 739.957 756.348 724.304 756.348 697.348L756.348 570.391C786.783 606.913 821.565 639.087 857.217 659.957C866.783 646.043 885.043 624.304 899.826 613C845.043 585.174 NaN 533.870 756.348 476.478L897.217 476.478L897.217 422.565L561.565 422.565C574.609 394.739 586.783 364.304 597.217 333L845.913 333L845.913 279.087L613.739 279.087C628.522 226.913 640.696 170.391 650.261 109.522L586.783 101.696C577.217 165.174 565.043 224.304 548.522 279.087L380.696 279.087L380.696 333L531.130 333C518.957 364.304 505.913 394.739 491.130 422.565M498.087 557.348L477.217 557.348C498.087 532.130 516.348 505.174 532.870 476.478L695.478 476.478C709.391 504.304 726.783 532.130 745.913 557.348M296.348 106.043CNaN 237.348 178.957 367.783 99.826 453C112 467.783 131.130 501.696 137.217 517.348C162.435 488.652 187.652 455.609 211.130 420.826L211.130 899.087L273.739 899.087L273.739 315.609C305.913 254.739 334.609 189.522 358.087 124.304"/></svg>