<svg xmlns="http://www.w3.org/2000/svg" viewBox="0 0 1000 1000" fill="currentColor"><path d="M267.570 590.609L724.589 590.609L724.589 657.639L267.570 657.639M267.570 479.184L724.589 479.184L724.589 544.472L267.570 544.472M442.543 117.051C454.730 133.591 467.788 154.483 476.493 172.764L158.756 172.764L158.756 227.606L834.273 227.606L834.273 172.764L549.616 172.764C540.911 151.872 521.760 121.404 502.608 99.641M291.074 248.498C306.743 272.002 322.412 301.600 330.247 325.103L110.008 325.103L110.008 381.687L883.022 381.687L883.022 325.103L668.005 325.103C681.934 304.211 695.862 278.966 709.790 253.721L644.502 237.182C634.055 262.427 614.904 298.118 598.365 325.103L372.032 325.103L398.147 318.139C390.312 293.765 371.161 258.945 352.010 234.570M204.893 430.435L204.893 705.517L355.492 705.517C338.082 792.568 284.980 826.518 99.561 844.799C111.749 857.856 127.418 883.972 132.641 899.641C339.823 873.526 405.111 823.906 425.133 705.517L563.544 705.517L563.544 805.626C563.544 869.173 584.436 885.713 667.135 885.713C683.675 885.713 788.136 885.713 806.417 885.713C872.576 885.713 891.727 861.338 899.561 760.359C881.281 756.877 854.295 747.301 841.237 737.726C837.755 819.554 832.532 830 799.453 830C775.949 830 690.639 830 673.229 830C635.797 830 629.703 826.518 629.703 805.626L629.703 705.517L789.877 705.517L789.877 430.435"/></svg>