<svg xmlns="http://www.w3.org/2000/svg" viewBox="0 0 1000 1000" fill="currentColor"><path d="M148.861 169.743C196.775 200.545 254.102 246.749 282.337 277.551L326.829 233.059C297.738 202.257 237.845 158.620 191.642 129.529M106.936 401.615C158.273 428.139 222.444 469.209 253.246 497.444L293.460 447.818C260.091 419.583 195.064 381.936 144.583 357.123M124.904 834.556L182.230 873.059C225.011 795.198 275.492 693.380 313.995 606.107L261.802 567.604C220.733 661.722 164.262 770.385 124.904 834.556M750.358 406.749L750.358 502.578L434.636 502.578L434.636 406.749M750.358 351.989L434.636 351.989L434.636 257.872L750.358 257.872M373.888 900.439C391.856 886.749 419.235 876.481 604.048 813.166C600.626 799.476 596.348 773.807 594.636 755.840L434.636 806.321L434.636 559.048L560.412 559.048C611.749 716.481 706.722 833.701 850.465 888.460C859.877 870.492 877.845 845.679 892.390 832.845C821.374 809.743 762.337 770.385 715.278 718.193C759.770 692.524 812.818 657.444 852.176 624.075L809.396 582.150C776.882 611.241 725.545 648.888 681.909 675.412C657.096 640.332 637.417 600.973 622.016 559.048L812.818 559.048L812.818 201.401L644.262 201.401C633.995 171.455 615.171 130.385 596.348 100.439L538.166 115.840C551.856 141.508 566.401 174.021 575.813 201.401L370.465 201.401L370.465 778.941C370.465 818.299 352.497 839.690 339.663 850.813C350.786 861.080 368.754 885.893 373.888 900.439"/></svg>