<svg xmlns="http://www.w3.org/2000/svg" viewBox="0 0 1000 1000" fill="currentColor"><path d="M658.711 444.493C723.999 474.961 808.439 519.357 851.094 549.825L885.044 504.558C840.647 475.831 756.208 432.306 690.919 405.320M513.335 407.061C468.939 446.234 403.651 488.889 346.197 517.616C359.255 528.933 381.017 552.436 389.723 562.882C445.435 528.933 517.688 474.961 568.177 430.565M112.900 134.591L112.900 898.029L171.224 898.029L171.224 193.786L280.909 193.786C262.628 252.110 238.254 328.715 213.879 391.392C274.815 461.033 290.484 520.227 290.484 568.106C290.484 595.091 285.261 619.466 272.203 629.041C265.239 634.264 255.664 636.005 245.218 636.876C232.160 637.746 214.750 636.876 195.598 636.005C206.045 652.545 211.268 677.790 211.268 693.459C231.289 694.330 252.182 694.330 269.592 692.589C287.873 689.977 302.671 685.625 314.859 676.049C339.233 658.639 347.938 621.207 347.938 574.199C347.938 520.227 334.010 456.680 272.203 384.428C300.930 314.787 332.269 228.606 357.514 157.224L314.859 131.979L305.283 134.591M364.478 340.032L364.478 393.133L872.856 393.133L872.856 340.032L645.653 340.032L645.653 245.146L830.201 245.146L830.201 191.174L645.653 191.174L645.653 99.770L582.106 99.770L582.106 191.174L405.392 191.174L405.392 245.146L582.106 245.146L582.106 340.032M538.580 601.185L725.740 601.185C698.754 652.545 660.452 694.330 613.444 729.150C575.141 697.812 543.803 661.250 521.170 619.466M757.078 550.695L744.021 551.566L577.753 551.566C593.422 530.674 606.480 508.911 617.797 487.148L555.990 476.702C522.911 544.602 454.140 622.948 350.550 677.790C363.607 686.495 382.758 706.517 390.593 720.445C423.672 701.294 453.270 680.402 480.256 657.768C502.889 696.071 531.616 730.891 564.695 761.359C495.925 801.403 414.097 827.518 327.916 844.928C339.233 857.115 354.032 884.101 360.125 899.770C451.529 878.878 538.580 846.669 612.573 800.532C677.862 846.669 757.949 879.749 848.482 898.029C857.187 881.490 874.597 857.115 887.655 844.058C802.345 830.129 725.740 803.144 663.063 763.971C724.869 714.351 775.359 650.804 807.568 569.847L768.395 548.084"/></svg>