<svg xmlns="http://www.w3.org/2000/svg" viewBox="0 0 1000 1000" fill="currentColor"><path d="M588.965 198.163L588.965 886.269L652.401 886.269L652.401 821.070L823.326 821.070L823.326 879.220L889.405 879.220L889.405 198.163M652.401 757.634L652.401 262.480L823.326 262.480L823.326 757.634M256.806 100.366L255.925 256.313L131.696 256.313L131.696 320.630L254.163 320.630C247.996 542.656 220.683 738.251 109.670 854.551C126.410 865.123 150.198 885.388 160.771 900.366C279.714 770.850 310.551 559.396 318.480 320.630L452.401 320.630C445.352 659.837 437.423 780.542 418.921 806.093C410.991 817.546 402.181 821.070 388.965 820.189C373.106 820.189 335.220 820.189 293.811 816.665C305.264 835.167 311.432 863.361 313.194 882.744C352.841 885.388 393.370 886.269 418.040 882.744C443.590 879.220 460.330 871.291 476.189 848.383C503.502 810.498 509.670 681.863 516.718 289.793C516.718 280.101 516.718 256.313 516.718 256.313L320.242 256.313L322.004 100.366"/></svg>