<svg xmlns="http://www.w3.org/2000/svg" viewBox="0 0 1000 1000" fill="currentColor"><path d="M678.682 302.345C637.375 352.924 559.820 400.132 491.537 427.107C505.025 437.223 521.042 454.083 530.315 465.885C603.655 433.851 682.054 382.429 731.790 323.419M743.592 416.992C691.327 478.530 592.697 535.011 499.967 565.358C514.298 576.317 529.472 594.863 538.745 608.351C636.532 572.102 736.005 510.564 795.858 438.909M805.131 527.424C743.592 619.310 617.143 686.749 473.835 720.469C486.479 732.271 500.810 753.346 509.240 768.519C662.665 727.213 791.643 654.715 862.454 549.341M646.648 111.828C603.655 192.756 515.984 268.625 428.313 301.502C440.958 314.989 454.446 339.436 461.190 354.610C529.472 322.576 598.597 266.939 648.334 203.714C704.815 267.782 784.056 329.320 857.396 360.511C866.669 346.180 884.372 325.105 897.860 314.146C818.619 284.642 730.104 223.103 678.682 161.565L692.170 138.804M167.828 497.076C168.671 607.508 159.398 749.131 100.389 851.133C114.720 857.877 134.952 874.737 145.067 887.381C175.415 835.959 193.118 776.106 204.920 715.411C264.772 840.174 365.089 870.522 549.704 870.522L874.256 870.522C877.628 851.976 889.430 822.471 900.389 808.140C848.123 809.826 589.325 809.826 548.018 809.826C460.347 809.826 393.750 803.082 342.328 779.478L342.328 615.938L459.504 615.938L459.504 560.300L342.328 560.300L342.328 443.124L467.934 443.124L467.934 386.644L334.741 386.644L334.741 274.526L449.388 274.526L449.388 218.045L334.741 218.045L334.741 116.886L276.574 116.886L276.574 218.045L141.695 218.045L141.695 274.526L276.574 274.526L276.574 386.644L118.935 386.644L118.935 443.124L285.847 443.124L285.847 741.544C256.342 712.882 234.425 672.418 217.565 616.781C220.094 577.160 221.780 538.383 221.780 501.291"/></svg>