<svg xmlns="http://www.w3.org/2000/svg" viewBox="0 0 1000 1000" fill="currentColor"><path d="M430.896 314.408L757.143 314.408L757.143 395.102L430.896 395.102M430.896 183.388L757.143 183.388L757.143 263.215L430.896 263.215M369.291 129.592L369.291 449.766L822.219 449.766L822.219 129.592M141.091 150.416C193.152 180.785 263.434 223.302 299.009 250.200L338.922 198.139C301.612 173.844 230.462 133.063 180.137 106.165M100.310 389.028C151.503 418.529 220.050 461.046 253.889 485.341L292.067 434.148C257.360 409.852 187.946 369.939 137.620 343.909M121.134 835.883L176.666 880.134C227.859 799.440 288.597 690.980 333.716 599.007L286.861 556.490C236.536 654.538 167.989 769.072 121.134 835.883M366.688 894.017C383.174 883.605 410.072 874.928 598.358 828.074C594.020 814.191 590.549 789.896 588.813 773.410L438.705 807.249L438.705 649.332L588.813 649.332L588.813 591.197L438.705 591.197L438.705 486.208L375.364 486.208L375.364 782.087C375.364 812.456 357.143 822.868 342.393 828.074C351.937 845.427 362.349 875.796 366.688 894.017M623.521 489.679L623.521 789.896C623.521 858.443 640.874 877.531 710.289 877.531C725.039 877.531 802.262 877.531 817.013 877.531C876.883 877.531 893.369 848.030 900.310 741.306C882.957 736.100 856.926 726.555 843.911 715.275C841.308 804.646 836.970 818.529 810.939 818.529C795.321 818.529 731.113 818.529 718.098 818.529C690.332 818.529 685.993 814.191 685.993 789.028L685.993 688.377C755.408 660.612 831.764 625.905 887.295 589.462L841.308 540.004C803.998 569.505 744.128 603.345 685.993 630.243L685.993 489.679"/></svg>