<svg xmlns="http://www.w3.org/2000/svg" viewBox="0 0 1000 1000" fill="currentColor"><path d="M813.595 114.340L813.595 817.265C813.595 832 807.528 837.200 792.793 837.200C778.059 838.067 728.654 838.934 674.917 836.334C684.451 854.535 693.985 881.404 696.585 898.739C771.125 898.739 814.462 897.005 840.464 887.471C867.333 877.070 877.733 858.869 877.733 817.265L877.733 114.340M658.449 203.614L658.449 687.255L719.987 687.255L719.987 203.614M474.700 331.025C459.965 360.494 442.631 388.230 422.696 415.965L245.881 422.899C289.218 378.696 331.688 324.958 368.958 271.220L596.043 271.220L596.043 211.415L416.628 211.415C407.961 180.212 383.692 133.408 359.424 99.606L299.619 116.074C318.687 144.676 336.888 181.946 346.423 211.415L122.804 211.415L122.804 271.220L293.551 271.220C256.282 328.425 212.078 379.562 197.343 395.164C178.275 414.232 162.674 428.100 147.073 430.700C154.873 448.035 164.407 478.371 167.874 491.372C183.476 484.438 210.345 480.971 376.758 471.437C309.153 547.710 224.212 610.115 133.205 653.452C145.339 665.586 165.274 692.455 173.941 705.456C319.554 627.450 453.898 504.373 533.638 350.093M531.905 495.705C446.098 649.118 294.418 773.062 127.138 845.001C139.272 858.002 160.074 886.605 168.741 899.606C258.882 855.402 346.423 796.464 423.562 726.258C472.966 771.328 529.304 826.800 557.907 862.336L605.577 818.999C575.242 783.463 514.570 728.858 465.166 685.521C513.703 635.250 556.173 579.779 590.843 519.107"/></svg>