<svg xmlns="http://www.w3.org/2000/svg" viewBox="0 0 1000 1000" fill="currentColor"><path d="M275.215 270.018L552.345 270.018L552.345 355.220L275.215 355.220M216.022 221.587L216.022 403.650L615.126 403.650L615.126 221.587M100.327 461.049L100.327 520.242L723.646 520.242L723.646 810.825C723.646 823.381 720.058 826.969 705.709 826.969C690.462 827.865 641.135 827.865 590.013 826.072C598.982 844.009 609.744 870.915 613.332 889.749C682.390 889.749 727.233 888.852 755.933 878.987C785.529 868.224 793.601 851.184 793.601 812.619L793.601 520.242L900.327 520.242L900.327 461.049L782.839 461.049L782.839 166.879L881.493 166.879L881.493 109.480L120.955 109.480L120.955 166.879L713.780 166.879L713.780 461.049M210.641 590.197L210.641 825.175L277.009 825.175L277.009 786.610L604.363 786.610L604.363 590.197M277.009 642.215L537.099 642.215L537.099 734.592L277.009 734.592"/></svg>