<svg xmlns="http://www.w3.org/2000/svg" viewBox="0 0 1000 1000" fill="currentColor"><path d="M691.297 101.784C670.541 138.108 634.216 188.270 603.081 222.865L364.378 222.865L398.108 206.432C379.081 176.162 337.568 132.054 302.108 100.919L245.027 128.595C275.297 156.270 309.027 193.459 328.054 222.865L128.270 222.865L128.270 278.216L371.297 278.216L371.297 355.189L187.946 355.189L187.946 407.081L371.297 407.081L371.297 481.459L114.432 481.459L114.432 536.811L371.297 536.811L371.297 619.838L181.027 619.838L181.027 671.730L335.838 671.730C276.162 740.054 183.622 802.324 99.730 834.324C113.568 846.432 132.595 868.919 142.108 884.486C221.676 849.027 308.162 786.757 371.297 716.703L371.297 899.189L433.568 899.189L433.568 671.730L553.784 671.730L553.784 899.189L616.919 899.189L616.919 708.919C683.514 779.838 775.189 844.703 856.486 880.162C866 863.730 885.027 840.378 899.730 828.270C814.108 797.135 718.108 736.595 652.378 671.730L797.676 671.730L797.676 536.811L884.162 536.811L884.162 481.459L797.676 481.459L797.676 355.189L616.919 355.189L616.919 278.216L869.459 278.216L869.459 222.865L680.919 222.865C706.865 193.459 734.541 158.865 759.622 125.135M433.568 278.216L553.784 278.216L553.784 355.189L433.568 355.189M433.568 536.811L553.784 536.811L553.784 619.838L433.568 619.838M433.568 481.459L433.568 407.081L553.784 407.081L553.784 481.459M616.919 536.811L734.541 536.811L734.541 619.838L616.919 619.838M616.919 481.459L616.919 407.081L734.541 407.081L734.541 481.459"/></svg>