<svg xmlns="http://www.w3.org/2000/svg" viewBox="0 0 1000 1000" fill="currentColor"><path d="M505.646 675.624C468.696 743.508 405.108 810.533 341.521 853.497C356.988 862.950 382.767 883.573 394.797 894.743C457.525 847.482 525.409 771.865 568.374 695.388M697.267 705.699C751.403 763.272 813.272 843.186 841.628 893.884L896.623 858.653C867.407 808.814 805.538 733.197 749.684 676.483M219.502 105.055L219.502 277.772L112.090 277.772L112.090 337.923L219.502 337.923L219.502 525.248L100.060 560.479L116.387 624.067L219.502 590.554L219.502 816.548C219.502 829.437 215.205 832.874 204.894 832.874C194.582 832.874 161.070 832.874 124.120 832.015C132.713 850.060 140.447 877.557 143.025 893.884C197.160 894.743 231.532 892.165 252.155 881.854C274.496 871.542 282.230 853.497 282.230 816.548L282.230 569.072L374.174 538.997L364.722 479.706L282.230 506.344L282.230 337.923L376.752 337.923L376.752 277.772L282.230 277.772L282.230 105.055M714.453 113.648L714.453 288.084L558.062 288.084L558.062 113.648L495.334 113.648L495.334 288.084L399.953 288.084L399.953 349.953L495.334 349.953L495.334 562.198L375.033 562.198L375.033 624.926L900.060 624.926L900.060 562.198L777.182 562.198L777.182 349.953L884.593 349.953L884.593 288.084L777.182 288.084L777.182 113.648M558.062 349.953L714.453 349.953L714.453 562.198L558.062 562.198"/></svg>