<svg xmlns="http://www.w3.org/2000/svg" viewBox="0 0 1000 1000" fill="currentColor"><path d="M690.361 117.681L690.361 216L534.059 216L534.059 117.681L472.714 117.681L472.714 216L360.109 216L360.109 270.622L472.714 270.622L472.714 385.748L325.655 385.748L325.655 442.891L900.445 442.891L900.445 385.748L752.546 385.748L752.546 270.622L871.034 270.622L871.034 216L752.546 216L752.546 117.681M534.059 270.622L690.361 270.622L690.361 385.748L534.059 385.748M475.235 703.395L763.471 703.395L763.471 794.992L475.235 794.992M475.235 652.975L475.235 564.739L763.471 564.739L763.471 652.975M414.731 510.958L414.731 885.748L475.235 885.748L475.235 847.933L763.471 847.933L763.471 882.387L826.496 882.387L826.496 510.958M308.849 113.479C261.790 241.210 183.639 367.261 100.445 448.773C112.210 463.059 129.857 495.832 135.739 510.958C165.151 480.706 193.723 445.412 221.454 406.756L221.454 881.546L281.958 881.546L281.958 311.798C314.731 253.815 344.983 192.471 368.513 131.126"/></svg>