<svg xmlns="http://www.w3.org/2000/svg" viewBox="0 0 1000 1000" fill="currentColor"><path d="M395.601 317.930C413.492 329.005 432.235 342.637 450.127 356.268C422.864 378.420 393.045 398.015 364.078 414.202C371.745 419.314 381.969 427.834 391.341 436.354C382.821 450.837 372.597 465.321 361.522 478.952L115.302 478.952L115.302 530.922L312.960 530.922C254.174 586.300 179.200 629.751 99.967 660.422C112.747 670.645 132.342 693.649 140.010 705.576C232.022 664.682 320.627 605.896 387.933 530.922L618.817 530.922C675.047 604.192 767.912 668.941 854.813 702.168C863.332 686.833 880.372 665.534 894.003 653.606C818.178 630.603 738.945 584.596 686.122 530.922L879.520 530.922L879.520 478.952L429.679 478.952C438.199 467.024 445.867 455.097 452.683 442.317L428.827 435.502C449.275 421.018 469.722 404.831 490.169 387.791C513.173 406.535 532.768 426.130 546.399 441.465L583.886 406.535C570.255 390.347 549.807 372.456 526.804 353.712C548.103 332.413 567.699 309.410 583.034 287.259L532.768 270.219C519.988 288.111 504.653 306.002 486.761 323.042C468.018 310.262 449.275 297.482 431.383 286.407M598.370 555.629C539.584 570.965 427.976 583.744 334.259 588.004C339.371 598.228 346.186 613.563 347.890 623.787C386.229 622.083 427.124 619.527 468.018 615.267L468.018 657.014L273.769 657.014L273.769 697.056L468.018 697.056L468.018 737.951L179.200 737.951L179.200 779.698L468.018 779.698L468.018 830.816C468.018 841.891 464.610 845.299 450.979 846.151C437.347 847.003 390.489 847.855 339.371 845.299C347.038 859.783 355.558 877.674 358.114 892.158C423.716 892.158 467.166 893.010 492.725 885.342C519.136 878.526 527.656 864.895 527.656 832.520L527.656 779.698L815.622 779.698L815.622 737.951L527.656 737.951L527.656 697.056L721.053 697.056L721.053 657.014L527.656 657.014L527.656 608.452C568.551 602.488 607.741 596.524 639.264 588.004M398.157 155.203C417.752 166.279 439.051 179.911 458.646 194.394C435.643 212.285 410.936 229.325 385.377 242.956L385.377 192.690L292.512 192.690L292.512 109.197L238.838 109.197L238.838 192.690L122.118 192.690L122.118 243.808L227.763 243.808C197.092 296.630 147.677 352.009 104.227 380.976C113.599 395.459 124.674 418.462 129.786 432.946C168.125 404.831 207.315 357.972 238.838 308.558L238.838 453.393L292.512 453.393L292.512 300.038C316.367 324.745 345.334 354.564 356.410 370.752L389.637 326.449C375.153 312.818 313.812 264.256 292.512 248.920L292.512 243.808L384.525 243.808L381.117 245.512C393.045 253.180 411.788 271.071 420.308 281.295C445.867 265.108 473.130 245.512 498.689 224.213C519.988 241.252 538.732 257.440 551.511 271.923L588.998 237.845C575.366 224.213 555.771 207.174 533.620 190.986C553.215 171.391 570.255 150.092 584.738 129.644L536.176 115.161C525.100 131.348 510.617 147.536 494.429 163.723C473.982 149.240 452.683 136.460 433.087 126.236M698.902 108.345L698.902 192.690L589.850 192.690L589.850 243.808L679.307 243.808C651.192 294.075 607.741 342.637 565.995 368.196C578.774 376.716 595.814 395.459 604.333 408.239C637.560 383.531 671.639 342.637 698.902 298.334L698.902 452.541L753.428 452.541L753.428 292.371C784.099 340.933 824.142 386.939 861.628 414.202C871 400.571 888.039 381.827 899.967 372.456C854.813 345.193 805.398 295.778 773.023 243.808L875.260 243.808L875.260 192.690L753.428 192.690L753.428 108.345"/></svg>