<svg xmlns="http://www.w3.org/2000/svg" viewBox="0 0 1000 1000" fill="currentColor"><path d="M123.652 845.026L180.305 884.511C221.506 807.258 268.717 707.687 304.768 621.850L254.983 583.223C214.639 675.927 161.421 782.365 123.652 845.026M396.614 231.292C415.498 263.910 436.099 306.828 446.399 333.438L499.618 311.120C489.318 286.227 466.142 245.026 447.258 213.266M142.536 160.047C192.322 188.373 259.275 230.433 293.609 256.185L331.378 202.966C296.185 178.931 228.373 139.446 179.446 113.695M99.618 392.665C150.262 419.275 217.215 458.760 252.408 481.936L289.318 428.717C254.124 405.541 185.455 368.631 135.670 344.597M745.112 197.815C731.378 238.159 705.627 295.670 684.167 334.296L626.657 334.296L626.657 190.948C704.768 181.506 777.730 169.489 836.099 154.897L794.039 105.970C688.459 133.438 497.901 154.039 338.245 163.481C345.112 177.215 352.837 199.532 354.554 214.124C421.506 210.691 494.468 204.682 565.712 197.815L565.712 334.296L317.644 334.296L317.644 390.090L502.193 390.090C448.116 452.751 367.429 511.979 295.326 543.738C309.060 556.614 327.944 578.073 338.245 592.665C352.837 585.798 367.429 577.215 382.021 567.773L382.021 893.953L441.249 893.953L441.249 866.485L759.704 866.485L759.704 892.236L821.506 892.236L821.506 561.764L855.841 578.931C866.142 563.481 885.026 540.305 899.618 528.288C825.798 500.820 744.253 447.601 687.601 390.090L880.734 390.090L880.734 334.296L744.253 334.296C764.854 299.103 787.172 255.326 806.056 216.700M568.288 733.438L568.288 814.124L441.249 814.124L441.249 733.438M626.657 733.438L759.704 733.438L759.704 814.124L626.657 814.124M568.288 685.369L441.249 685.369L441.249 608.116L568.288 608.116M626.657 685.369L626.657 608.116L759.704 608.116L759.704 685.369M565.712 396.099L565.712 537.730L626.657 537.730L626.657 396.957C674.725 457.043 744.253 516.270 812.064 555.755L400.906 555.755C461.850 513.695 522.794 456.185 565.712 396.099"/></svg>