<svg xmlns="http://www.w3.org/2000/svg" viewBox="0 0 1000 1000" fill="currentColor"><path d="M282.458 312.967L496.529 312.967L496.529 412.621L282.458 412.621M565.734 312.967L783.496 312.967L783.496 412.621L565.734 412.621M282.458 158.872L496.529 158.872L496.529 257.603L282.458 257.603M565.734 158.872L783.496 158.872L783.496 257.603L565.734 257.603M139.436 562.101L139.436 625.769L443.012 625.769C399.644 724.501 311.062 798.318 112.677 839.841C126.518 854.604 144.050 882.286 149.586 899.818C375.653 849.068 472.539 753.105 518.675 625.769L810.255 625.769C797.337 753.105 781.651 809.391 761.351 826.923C752.123 835.227 741.051 836.150 720.751 836.150C699.528 836.150 638.629 835.227 578.652 829.691C589.724 847.223 598.952 873.982 599.874 893.359C659.851 896.127 716.137 897.050 745.664 896.127C777.960 893.359 799.182 888.745 819.482 870.291C849.009 840.764 866.541 768.791 884.073 592.551C884.995 583.324 886.841 562.101 886.841 562.101L538.052 562.101C544.511 533.497 550.047 503.970 553.738 472.597L855.468 472.597L855.468 99.818L214.176 99.818L214.176 472.597L481.766 472.597C478.075 503.970 472.539 533.497 465.157 562.101"/></svg>