<svg xmlns="http://www.w3.org/2000/svg" viewBox="0 0 1000 1000" fill="currentColor"><path d="M138.694 540.348L138.694 820.603L390.074 784.085L390.074 830.794L441.879 830.794L441.879 540.348L390.074 540.348L390.074 736.527L317.887 745.019L317.887 480.900L459.713 480.900L459.713 424L317.887 424L317.887 267.737L442.728 267.737L442.728 210.837L221.072 210.837C230.414 181.113 238.057 150.539 244.851 119.966L189.650 108.926C171.815 199.796 141.242 291.516 99.628 353.512C114.066 359.456 138.694 373.045 149.735 381.537C169.268 350.115 187.102 311.049 202.389 267.737L260.138 267.737L260.138 424L111.518 424L111.518 480.900L260.138 480.900L260.138 750.964L190.499 758.607L190.499 540.348M766.295 504.679L677.972 504.679C679.671 471.558 680.520 439.287 680.520 406.166L680.520 314.446L766.295 314.446M619.374 110.624L619.374 254.998L496.231 254.998L496.231 314.446L619.374 314.446L619.374 406.166C619.374 439.287 618.524 472.408 615.977 504.679L476.699 504.679L476.699 564.127L610.032 564.127C593.896 668.586 553.132 767.100 452.919 846.930C469.055 857.121 491.136 878.352 501.327 891.941C599.841 812.110 644.851 714.446 665.234 609.987C702.601 732.280 765.446 832.493 852.919 890.242C863.110 873.257 884.342 849.478 899.628 836.739C809.607 785.783 746.762 683.873 711.943 564.127L879.246 564.127L879.246 504.679L826.592 504.679L826.592 254.998L680.520 254.998L680.520 110.624"/></svg>