<svg xmlns="http://www.w3.org/2000/svg" viewBox="0 0 1000 1000" fill="currentColor"><path d="M313.185 99.964C273.228 251.104 203.738 390.084 112.533 478.683C124.694 493.450 142.935 527.326 149.015 542.961C178.548 512.559 207.213 477.814 232.403 438.726L232.403 899.964L294.944 899.964L294.944 329.280C327.083 262.396 354.010 189.432 374.857 114.731M420.894 339.704L420.894 894.752L483.434 894.752L483.434 840.898L783.977 840.898L783.977 890.409L849.124 890.409L849.124 339.704L618.071 339.704C631.100 298.878 644.129 249.367 656.290 203.330L886.474 203.330L886.474 142.527L380.068 142.527L380.068 203.330L583.326 203.330C576.377 246.761 565.085 298.010 553.793 339.704M483.434 619.400L783.977 619.400L783.977 780.094L483.434 780.094M483.434 559.465L483.434 400.507L783.977 400.507L783.977 559.465"/></svg>