<svg xmlns="http://www.w3.org/2000/svg" viewBox="0 0 1000 1000" fill="currentColor"><path d="M144 153.613C197.333 176.839 262.710 214.688 294.538 243.935L331.527 191.462C297.978 163.075 230.882 127.806 179.269 107.161M100.129 385.871C154.323 406.516 219.699 442.645 252.387 470.172L287.656 416.839C254.108 390.172 187.871 356.624 134.538 337.699M121.634 840.065L181.849 873.613C214.538 794.473 254.108 687.806 282.495 598.344L230.022 563.935C198.194 660.280 154.323 772.968 121.634 840.065M423.570 264.581L758.194 264.581L758.194 313.613L423.570 313.613M423.570 174.258L758.194 174.258L758.194 222.430L423.570 222.430M363.355 130.387L363.355 358.344L820.129 358.344L820.129 130.387M420.129 673.183C443.355 692.968 470.022 720.495 482.065 742L525.935 710.172C513.032 691.247 486.366 663.720 461.419 645.656M664.430 359.204L664.430 412.538L516.473 412.538L516.473 359.204L456.258 359.204L456.258 412.538L331.527 412.538L331.527 462.430L456.258 462.430L456.258 524.366L298.839 524.366L298.839 575.118L443.355 575.118C395.183 620.710 325.505 662.860 264.430 684.366C277.333 694.688 291.957 713.613 301.419 727.376C373.677 697.269 457.118 637.054 507.871 575.118L674.753 575.118C721.204 635.333 796.043 694.688 862.280 724.796C871.742 711.892 888.086 692.108 900.129 681.785C843.355 660.280 779.699 618.989 734.968 575.118L885.505 575.118L885.505 524.366L724.645 524.366L724.645 462.430L852.817 462.430L852.817 412.538L724.645 412.538L724.645 359.204M516.473 524.366L516.473 462.430L664.430 462.430L664.430 524.366M706.581 646.516C687.656 671.462 653.247 707.591 627.441 732.538L616.258 729.097L616.258 600.925L557.763 600.925L557.763 723.075C466.581 759.204 373.677 795.333 311.742 816.839L338.409 867.591C401.204 842.645 480.344 808.237 557.763 774.688L557.763 833.183C557.763 842.645 554.323 845.226 544.860 846.086C534.538 846.086 500.989 846.086 461.419 845.226C469.161 858.989 479.484 879.634 482.925 893.398C534.538 893.398 568.086 893.398 588.731 884.796C610.237 876.194 616.258 863.290 616.258 834.043L616.258 778.989C692.817 808.237 766.796 842.645 814.968 871.032L849.376 828.022C806.366 804.796 742.710 776.409 676.473 750.602C702.280 729.957 731.527 702.430 757.333 675.763"/></svg>