<svg xmlns="http://www.w3.org/2000/svg" viewBox="0 0 1000 1000" fill="currentColor"><path d="M695.332 150.475C743.054 186.918 796.850 241.581 822.013 278.024L869.735 240.714C843.705 205.139 789.041 153.078 741.319 118.371M340.451 397.764C354.334 418.588 369.085 444.618 379.497 466.310L257.154 466.310C271.037 442.015 283.184 417.720 293.597 392.557L238.933 377.807C207.696 453.295 156.503 528.783 100.104 578.241C113.987 586.918 136.547 606.007 146.091 615.551C159.106 602.536 172.989 587.785 186.004 572.167L186.004 880.193L243.271 880.193L243.271 834.206L528.738 834.206L501.839 853.295C518.325 865.443 537.414 884.531 547.826 898.414C595.549 865.443 638.065 824.662 676.243 778.675C708.347 848.089 750.863 888.870 805.527 888.870C867.132 888.870 888.824 849.824 900.104 718.805C883.618 713.599 861.926 699.716 848.043 685.833C843.705 787.351 834.161 825.529 811.601 825.529C776.026 825.529 744.790 787.351 720.495 719.672C776.026 636.375 818.542 540.063 849.779 438.544L790.777 421.191C768.217 498.414 736.980 573.902 697.067 640.714C678.846 566.961 665.831 474.119 658.022 368.262L891.427 368.262L891.427 311.863L654.551 311.863C651.080 245.920 649.345 174.770 650.213 101.017L586.004 101.017C586.004 173.902 587.740 244.184 592.078 311.863L375.158 311.863L375.158 235.508L533.076 235.508L533.076 180.844L375.158 180.844L375.158 101.017L312.685 101.017L312.685 180.844L150.430 180.844L150.430 235.508L312.685 235.508L312.685 311.863L113.119 311.863L113.119 368.262L595.549 368.262C605.093 502.753 622.447 620.757 650.213 710.996C620.711 750.909 586.872 787.351 549.562 817.720L549.562 781.278L421.145 781.278L421.145 721.408L534.811 721.408L534.811 677.156L421.145 677.156L421.145 617.286L534.811 617.286L534.811 573.902L421.145 573.902L421.145 517.503L551.297 517.503L551.297 466.310L440.234 466.310C430.690 441.148 409.866 404.705 388.174 378.675M367.349 617.286L367.349 677.156L243.271 677.156L243.271 617.286M367.349 573.902L243.271 573.902L243.271 517.503L367.349 517.503M367.349 721.408L367.349 781.278L243.271 781.278L243.271 721.408"/></svg>