<svg xmlns="http://www.w3.org/2000/svg" viewBox="0 0 1000 1000" fill="currentColor"><path d="M387.949 175.282C425.556 241.094 459.744 328.274 469.145 385.538L529.829 365.026C517.863 306.906 482.821 220.581 444.359 155.624M785.385 150.496C764.872 218.017 726.410 313.744 694.786 371.009L748.632 390.667C781.111 335.111 821.282 245.368 852.051 171.009M205.897 106.051L205.897 891.521L266.581 891.521L266.581 106.051M139.231 271.009C134.103 338.530 120.427 433.402 99.915 491.521L148.632 506.906C168.291 443.658 181.966 345.368 185.385 277.846M275.983 251.350C293.077 305.197 309.316 376.137 314.444 418.017L364.017 400.068C358.034 360.752 340.085 291.521 322.137 238.530M581.966 106.051L581.966 431.692L358.889 431.692L358.889 493.231L501.624 493.231C493.932 667.590 470 782.120 317.009 845.368C331.538 857.333 349.487 879.556 358.034 894.940C524.701 821.436 555.470 690.667 565.726 493.231L658.889 493.231L658.889 795.795C658.889 860.752 674.274 881.265 737.521 881.265C750.342 881.265 807.607 881.265 820.427 881.265C879.402 881.265 893.932 846.222 899.915 720.581C882.821 715.453 857.179 705.197 842.650 694.940C840.940 805.197 837.521 824.855 814.444 824.855C802.479 824.855 756.325 824.855 746.068 824.855C725.556 824.855 721.282 819.726 721.282 795.795L721.282 493.231L887.094 493.231L887.094 431.692L646.923 431.692L646.923 106.051"/></svg>