<svg xmlns="http://www.w3.org/2000/svg" viewBox="0 0 1000 1000" fill="currentColor"><path d="M285.498 407.061L719.884 407.061L719.884 461.033L285.498 461.033M285.498 312.175L719.884 312.175L719.884 364.406L285.498 364.406M420.428 628.171L420.428 836.223C420.428 844.928 417.816 847.540 407.370 847.540C397.794 848.410 365.585 848.410 329.024 847.540C336.859 862.338 345.564 884.101 348.175 899.770C398.665 899.770 430.874 899.770 452.637 891.065C474.399 882.360 479.622 866.691 479.622 837.094L479.622 628.171M318.578 685.625C293.333 736.985 249.807 799.662 197.577 835.353L245.455 870.173C299.427 828.388 339.470 763.971 369.067 709.999M503.997 716.963C530.983 763.100 557.098 824.036 564.933 863.209L617.163 844.928C607.588 806.626 580.602 745.690 551.875 701.294M599.753 696.071C651.984 749.172 710.308 823.165 733.812 871.044L786.913 843.187C759.927 796.180 700.732 723.927 648.502 672.567M113.137 554.177L113.137 607.279L297.686 607.279C249.807 651.675 184.519 692.589 100.079 723.057C114.008 732.632 133.159 753.524 140.993 769.194C247.196 727.409 324.671 670.826 380.384 607.279L611.940 607.279C672.876 677.790 770.373 740.467 860.036 771.805C869.612 757.007 887.022 735.244 900.079 723.927C823.474 701.294 740.776 657.768 684.193 607.279L892.245 607.279L892.245 554.177L420.428 554.177C430.874 538.508 439.579 521.968 448.284 505.429L783.431 505.429L783.431 267.779L224.563 267.779L224.563 505.429L376.032 505.429C368.197 521.968 357.751 537.638 345.564 554.177M608.458 99.770L608.458 155.483L390.830 155.483L390.830 99.770L328.153 99.770L328.153 155.483L117.490 155.483L117.490 210.325L328.153 210.325L328.153 258.203L390.830 258.203L390.830 210.325L608.458 210.325L608.458 258.203L672.005 258.203L672.005 210.325L886.151 210.325L886.151 155.483L672.005 155.483L672.005 99.770"/></svg>