<svg xmlns="http://www.w3.org/2000/svg" viewBox="0 0 1000 1000" fill="currentColor">
  <path d="M180 320 C 260 230, 400 190, 500 210 C 590 230, 660 280, 700 360" fill="none" stroke="currentColor" stroke-width="32" stroke-linecap="round"/>
  <path d="M180 320 L110 370 L140 510 L210 490" fill="none" stroke="currentColor" stroke-width="32" stroke-linejoin="round"/>
  <path d="M200 510 C 340 540, 540 540, 660 510" fill="none" stroke="currentColor" stroke-width="32" stroke-linecap="round"/>
  <path d="M700 360 C 760 390, 780 490, 740 580 C 720 630, 700 670, 690 710" fill="none" stroke="currentColor" stroke-width="32" stroke-linecap="round"/>
  <line x1="250" y1="510" x2="230" y2="800" stroke="currentColor" stroke-width="28" stroke-linecap="round"/>
  <line x1="350" y1="530" x2="340" y2="810" stroke="currentColor" stroke-width="28" stroke-linecap="round"/>
  <line x1="570" y1="520" x2="560" y2="800" stroke="currentColor" stroke-width="28" stroke-linecap="round"/>
  <line x1="640" y1="510" x2="660" y2="790" stroke="currentColor" stroke-width="28" stroke-linecap="round"/>
  <circle cx="160" cy="430" r="18" fill="currentColor"/>
</svg>
