<svg xmlns="http://www.w3.org/2000/svg" viewBox="0 0 1000 1000" fill="currentColor"><path d="M100.836 640.682L100.836 707.423L707.065 707.423L707.065 640.682M257.492 240.237C251.003 331.079 239.880 452.510 227.829 526.666L250.076 526.666L823.862 527.593C806.249 719.473 785.856 801.972 758.975 826.073C748.778 835.343 736.728 836.270 717.262 836.270C694.088 836.270 635.690 836.270 573.584 830.708C586.561 849.247 594.904 877.056 596.758 897.449C656.083 900.229 712.627 901.156 743.216 899.303C776.587 897.449 797.907 890.960 818.300 869.640C854.451 834.416 874.844 738.012 897.091 494.223C898.945 484.027 899.872 461.780 899.872 461.780L737.655 461.780C751.559 345.910 767.317 204.086 774.733 105.829L723.750 100.267L711.700 103.975L171.285 103.975L171.285 171.643L699.650 171.643C692.234 254.142 680.184 368.157 667.206 461.780L305.694 461.780C313.109 395.039 321.452 312.540 327.014 244.872"/></svg>