<svg xmlns="http://www.w3.org/2000/svg" viewBox="0 0 1000 1000" fill="currentColor"><path d="M272.862 566.655C250.448 618.379 212.517 682.172 166.828 720.103L217.690 752C265.103 710.621 299.586 644.241 324.586 589.069M749.586 560.621C723.724 608.034 677.172 674.414 640.966 714.931L694.414 736.483C729.759 696.828 775.448 637.345 811.655 583.897M277.172 102.862L277.172 209.759L121.138 209.759L121.138 266.655L251.310 266.655C214.241 342.517 156.483 418.379 99.586 457.172C112.517 467.517 131.483 487.345 140.966 501.138C190.103 461.483 240.103 394.241 277.172 321.828L277.172 530.448L336.655 530.448L336.655 320.103C375.448 356.310 424.586 403.724 443.552 426.138L480.621 378.724C459.931 360.621 376.310 293.379 338.379 266.655L470.276 266.655L470.276 209.759L336.655 209.759L336.655 102.862M647 102.862L647 209.759L500.448 209.759L500.448 266.655L612.517 266.655C574.586 339.069 514.241 408.034 453.034 442.517C465.966 452.862 484.069 473.552 493.552 488.207C550.448 448.552 607.345 380.448 647 304.586L647 530.448L708.207 530.448L708.207 313.207C757.345 367.517 827.172 448.552 854.759 486.483L895.276 433.034C871.138 407.172 779.759 314.069 729.759 266.655L887.517 266.655L887.517 209.759L708.207 209.759L708.207 102.862M469.414 525.276C450.448 704.586 399.586 801.138 104.759 842.517C115.966 856.310 130.621 881.310 135.793 896.828C346.138 864.931 443.552 802 492.690 702C555.621 820.103 670.276 874.414 863.379 892.517C870.276 872.690 886.655 846.828 899.586 833.034C684.069 820.103 566.828 761.483 520.276 624.414C528.034 594.241 533.207 560.621 537.517 525.276"/></svg>