<svg xmlns="http://www.w3.org/2000/svg" viewBox="0 0 1000 1000" fill="currentColor"><path d="M512.737 495.738L512.737 571.519L349.982 571.519L349.982 495.738M512.737 450.098L349.982 450.098L349.982 379.484L512.737 379.484M631.575 295.093L631.575 898.752L689.271 898.752L689.271 348.483L811.553 348.483C790.886 401.874 763.329 468.182 735.773 525.017C804.664 587.881 823.609 640.410 823.609 684.328C823.609 710.163 819.304 731.691 804.664 740.302C796.914 744.608 786.580 747.192 775.385 748.053C760.746 748.914 740.079 748.914 718.550 746.330C728.023 761.831 734.051 785.943 734.912 801.443C756.440 802.305 780.552 802.305 798.636 800.582C815.859 797.999 831.360 792.832 844.277 784.221C870.111 766.998 880.445 733.413 880.445 688.634C879.583 638.688 862.361 582.714 793.469 517.267C825.332 455.265 859.777 379.484 887.334 314.899L845.999 292.509L837.388 295.093M388.733 266.675C397.344 285.620 405.956 308.871 413.706 330.399L290.563 330.399L290.563 758.386C290.563 797.138 269.034 817.805 253.534 828.139C263.868 838.473 279.368 860.862 285.396 874.640C300.897 862.584 328.453 853.112 515.321 792.832C526.516 816.944 536.849 838.473 543.738 856.557L595.407 831.583C575.601 783.360 531.682 704.996 492.931 647.299L443.846 667.105C459.347 691.217 475.708 718.774 490.348 746.330L349.982 788.526L349.982 619.743L571.295 619.743L571.295 330.399L476.569 330.399C467.958 306.287 455.902 277.009 443.846 253.758M489.487 115.975C498.098 134.920 507.571 158.171 515.321 178.839L171.726 178.839L171.726 444.931C171.726 568.935 166.559 741.164 104.557 863.446C119.196 869.474 145.030 889.280 156.225 900.475C222.533 770.442 232.005 576.686 232.005 444.070L232.005 235.674L895.945 235.674L895.945 178.839L584.212 178.839C574.740 154.727 561.822 124.587 549.766 100.475"/></svg>