<svg xmlns="http://www.w3.org/2000/svg" viewBox="0 0 1000 1000" fill="currentColor"><path d="M227.581 104.419L227.581 278.183L110.591 278.183L110.591 338.398L227.581 338.398L227.581 535.387L100.269 564.634L118.333 627.430L227.581 599.043L227.581 814.097C227.581 826.140 223.280 829.581 211.237 830.441C200.054 830.441 162.204 831.301 122.634 829.581C130.376 845.925 138.978 872.591 141.559 888.935C200.914 888.935 237.043 888.075 259.409 877.753C281.774 867.430 290.376 850.226 290.376 814.097L290.376 582.699L394.462 555.172L387.581 495.817L290.376 519.903L290.376 338.398L390.161 338.398L390.161 278.183L290.376 278.183L290.376 104.419M741.129 119.043L680.914 130.226C709.301 269.581 747.151 364.204 817.688 445.925L451.237 445.925C522.634 368.505 569.946 262.699 594.892 137.968L531.237 127.645C506.290 259.258 452.957 365.925 365.215 432.161C377.258 445.065 397.903 475.172 404.785 489.796C418.548 478.613 431.452 466.570 444.355 452.806L444.355 507L541.559 507C523.495 670.441 471.022 782.269 352.312 846.785C366.935 857.968 389.301 883.774 397.903 895.817C523.495 816.677 583.710 693.667 606.935 507L755.753 507C745.430 717.753 732.527 799.473 714.462 819.258C706.720 828.720 698.978 830.441 684.355 830.441C668.871 830.441 632.742 829.581 592.312 826.140C602.634 842.484 608.656 867.430 610.376 885.495C649.946 888.075 690.376 888.935 712.742 886.355C737.688 884.634 754.032 877.753 769.516 857.968C796.183 827 808.226 735.817 820.269 476.032L821.129 450.226C831.452 461.409 841.774 472.591 852.957 483.774C862.419 463.989 882.204 442.484 900.269 429.581C814.247 352.161 770.376 264.419 741.129 119.043"/></svg>