<svg xmlns="http://www.w3.org/2000/svg" viewBox="0 0 1000 1000" fill="currentColor"><path d="M163.607 105.836L163.607 174.196L313.261 174.196L313.261 200.986C313.261 371.887 301.252 637.938 99.866 839.323C117.418 851.333 143.284 878.122 155.293 893.827C367.764 678.584 384.393 386.667 384.393 201.910L384.393 174.196L664.300 174.196C636.587 286.898 599.635 415.305 570.998 499.370L823.192 499.370C813.030 689.670 800.097 770.963 776.079 792.210C765.917 801.448 753.908 802.372 732.661 802.372C706.794 802.372 637.510 801.448 567.303 795.905C582.083 816.229 593.169 845.790 594.092 867.961C659.681 871.656 725.270 872.580 759.450 869.808C795.478 867.961 819.497 861.494 841.667 837.476C873.076 804.219 886.933 709.993 898.942 466.113C899.866 455.952 899.866 431.933 899.866 431.933L672.614 431.933C699.404 334.935 731.737 208.376 756.679 105.836"/></svg>