<svg xmlns="http://www.w3.org/2000/svg" viewBox="0 0 1000 1000" fill="currentColor"><path d="M334.878 404.507L664.086 404.507L664.086 489.632L334.878 489.632M195.030 611.239L195.030 861.402L260.177 861.402L260.177 670.305L474.726 670.305L474.726 900.490L541.610 900.490L541.610 670.305L743.999 670.305L743.999 792.781C743.999 803.204 740.524 805.810 726.626 807.547C712.729 807.547 666.692 807.547 614.574 805.810C623.261 823.182 633.684 847.504 637.159 864.876C704.911 864.876 748.342 864.876 776.138 855.321C803.065 845.767 810.014 827.526 810.014 793.649L810.014 611.239L541.610 611.239L541.610 539.143L730.101 539.143L730.101 354.996L272.338 354.996L272.338 539.143L474.726 539.143L474.726 611.239M208.928 133.497C234.987 163.030 263.651 206.461 277.549 235.995L137.701 235.995L137.701 422.748L200.242 422.748L200.242 293.324L798.722 293.324L798.722 422.748L863 422.748L863 235.995L535.530 235.995L535.530 100.490L469.515 100.490L469.515 235.995L287.973 235.995L340.959 210.805C326.192 183.009 295.790 140.446 267.995 109.176M725.758 108.307C708.385 139.578 676.246 185.615 651.925 214.279L705.780 235.995C730.970 209.936 763.977 169.979 793.510 131.760"/></svg>