<svg xmlns="http://www.w3.org/2000/svg" viewBox="0 0 1000 1000" fill="currentColor"><path d="M143.190 159.273C196.870 183.515 262.671 225.074 295.571 256.242L332.801 202.563C299.900 173.126 233.234 134.165 179.554 111.654M99.900 393.905C154.446 416.416 220.247 455.377 253.147 483.948L291.242 429.403C257.476 401.697 189.944 365.333 135.398 344.554M124.143 850.182L181.286 890.009C227.173 809.489 281.719 699.532 322.411 606.892L272.195 567.931C227.173 667.498 166.567 782.649 124.143 850.182M463.537 429.403L631.502 429.403L631.502 563.602L463.537 563.602M472.195 103.861C438.429 219.879 378.688 331.567 305.961 402.563C322.411 411.221 350.117 431.134 362.238 441.524C375.225 427.671 387.346 412.952 399.468 396.502L399.468 786.978C399.468 875.290 431.502 896.069 537.996 896.069C561.372 896.069 746.654 896.069 772.628 896.069CNaN 896.069 888.645 862.303 899.900 746.286C880.853 741.957 854.013 731.567 839.294 720.312C833.234 817.281 823.710 836.329 770.030 836.329C730.203 836.329 570.030 836.329 539.727 836.329C474.792 836.329 463.537 827.671 463.537 786.978L463.537 621.610L692.974 621.610L692.974 372.260L416.784 372.260C436.697 343.688 454.879 312.519 472.195 278.753L794.273 278.753C788.212 522.909 781.286 606.892 765.701 628.537C758.775 638.061 752.714 640.658 739.727 640.658C726.740 640.658 696.437 639.792 661.805 637.195C672.195 653.645 678.255 681.351 679.121 700.398C715.485 702.130 751.848 702.996 772.628 700.398C795.139 696.935 809.857 690.009 823.710 670.961C846.221 640.658 852.281 539.359 860.074 248.450C860.074 239.792 860.074 218.147 860.074 218.147L500.766 218.147C513.753 186.113 525.874 154.078 536.264 120.312"/></svg>