<svg xmlns="http://www.w3.org/2000/svg" viewBox="0 0 1000 1000" fill="currentColor"><path d="M222.237 103.419L222.237 893.957L285.032 893.957L285.032 103.419M144.817 269.441C138.796 339.118 123.312 433.742 100.086 490.516L152.559 508.581C175.785 446.645 191.269 346.860 195.570 276.323M290.194 261.699C315.140 313.312 342.667 382.129 353.849 422.559L402.022 398.473C390.839 359.763 361.591 292.667 335.785 241.914M428.688 596.323L428.688 895.677L488.903 895.677L488.903 856.968L776.215 856.968L776.215 892.237L839.011 892.237L839.011 596.323M488.903 800.194L488.903 653.097L776.215 653.097L776.215 800.194M421.806 288.366L421.806 344.280L534.495 344.280C525.892 389.011 517.290 432.022 508.688 467.290L376.215 467.290L376.215 524.065L900.086 524.065L900.086 467.290L808.043 467.290C814.065 411.376 819.226 346 821.806 288.366L775.355 284.925L765.032 288.366L608.473 288.366L625.677 195.462L875.140 195.462L875.140 139.548L396.860 139.548L396.860 195.462L559.441 195.462L543.957 288.366M573.204 467.290L598.151 344.280L755.570 344.280C752.989 382.129 749.548 427.720 746.108 467.290"/></svg>