<svg xmlns="http://www.w3.org/2000/svg" viewBox="0 0 1000 1000" fill="currentColor"><path d="M622.097 592.200L622.097 704.550L495.055 704.550L495.055 592.200M622.097 540.346L495.055 540.346L495.055 440.094L622.097 440.094M317.022 592.200L437.151 592.200L437.151 704.550L317.022 704.550M317.022 540.346L317.022 440.094L437.151 440.094L437.151 540.346M338.628 100.450C290.231 239.592 208.993 370.091 113.063 453.058C128.619 463.429 156.275 486.763 168.374 497.998C198.622 468.614 228.870 434.909 256.526 396.883L256.526 814.308L317.022 814.308L317.022 759.861L683.458 759.861L683.458 384.783L265.168 384.783C285.910 355.399 305.787 324.287 323.936 291.446L819.143 291.446C808.772 650.103 794.080 790.974 763.832 821.222C753.461 832.457 741.362 835.914 723.213 835.050C699.878 835.050 640.246 835.050 574.564 829.864C587.528 848.013 595.306 877.397 597.034 897.275C654.074 899.867 714.570 902.460 748.275 898.139C781.981 895.546 802.722 887.768 823.464 860.112C861.490 816.036 873.590 672.573 886.553 262.926C887.417 253.420 887.417 227.492 887.417 227.492L357.641 227.492C374.926 192.059 390.482 154.897 404.310 116.870"/></svg>