<svg xmlns="http://www.w3.org/2000/svg" viewBox="0 0 1000 1000" fill="currentColor"><path d="M462.541 543.685C459.097 572.963 453.930 599.659 447.902 623.771L119.807 623.771L119.807 681.467L426.374 681.467C384.178 764.998 297.202 815.805 100.001 842.501C112.057 855.418 125.835 881.252 131.863 896.752C357.482 862.307 453.069 794.277 497.848 681.467L502.154 681.467C562.434 811.499 676.104 873.502 860.389 896.752C868.139 877.807 885.362 851.112 900.001 836.473C733.801 821.833 624.436 776.193 568.462 681.467L880.195 681.467L880.195 623.771L515.932 623.771C521.960 598.798 527.127 572.102 530.572 543.685L487.515 543.685C625.297 479.099 662.326 367.151 676.104 213.868L803.553 213.868C798.386 391.263 791.497 456.709 777.719 472.210C770.830 480.821 763.080 482.544 751.024 482.544C737.245 482.544 702.800 481.682 666.632 479.099C676.104 494.600 682.132 519.573 683.855 537.657C720.884 539.379 758.774 540.240 778.580 537.657C801.831 535.073 817.332 529.045 831.110 511.822C851.777 485.988 858.666 406.763 866.417 183.728C866.417 175.116 866.417 155.310 866.417 155.310L496.987 155.310L496.987 213.868L615.825 213.868C603.769 349.067 571.045 448.098 439.291 503.211C450.485 512.684 465.986 530.767 472.875 543.685M120.668 421.403L120.668 472.210L272.229 472.210L272.229 557.463L332.509 557.463L332.509 472.210L475.459 472.210L475.459 421.403L332.509 421.403L332.509 349.928L457.375 349.928L457.375 299.121L332.509 299.121L332.509 228.507L472.014 228.507L472.014 176.839L332.509 176.839L332.509 103.642L272.229 103.642L272.229 176.839L125.835 176.839L125.835 228.507L272.229 228.507L272.229 299.121L147.364 299.121L147.364 349.928L272.229 349.928L272.229 421.403"/></svg>