<svg xmlns="http://www.w3.org/2000/svg" viewBox="0 0 1000 1000" fill="currentColor"><path d="M131.672 155.030C177.709 182.826 240.250 221.914 271.520 247.104L310.608 194.118C277.600 170.666 214.191 134.183 168.154 108.125M99.533 388.689C148.176 414.748 214.191 452.967 247.199 475.552L283.681 421.697C249.805 399.113 183.789 364.368 136.015 340.915M116.037 841.241L174.235 879.460C218.534 798.679 271.520 688.364 310.608 595.421L259.359 558.071C215.928 657.962 156.862 772.620 116.037 841.241M354.039 318.331L354.039 891.621L413.974 891.621L413.974 849.927L804.853 849.927L804.853 889.015L867.394 889.015L867.394 318.331L703.225 318.331L703.225 201.067L899.533 201.067L899.533 141.132L322.769 141.132L322.769 201.067L502.573 201.067L502.573 318.331M560.771 201.067L644.159 201.067L644.159 318.331L560.771 318.331M413.974 692.707L804.853 692.707L804.853 792.598L413.974 792.598M413.974 636.246L413.974 561.545C424.397 570.231 438.295 584.129 444.376 591.947C539.055 542.435 562.508 468.603 562.508 406.931L562.508 376.529L642.421 376.529L642.421 483.369C642.421 538.961 656.319 552.859 711.911 552.859C722.334 552.859 784.875 552.859 796.167 552.859L804.853 552.859L804.853 636.246M413.974 551.122L413.974 376.529L510.391 376.529L510.391 406.062C510.391 452.967 492.150 507.691 413.974 551.122M694.539 376.529L804.853 376.529L804.853 497.267C803.116 499.004 799.642 499.873 788.350 499.873C775.320 499.873 726.678 499.873 717.991 499.873C697.144 499.873 694.539 497.267 694.539 482.501"/></svg>