<svg xmlns="http://www.w3.org/2000/svg" viewBox="0 0 1000 1000" fill="currentColor"><path d="M147.503 128.143L147.503 192.729L299.064 192.729L299.064 264.203C299.064 418.348 285.285 635.355 100.140 806.722C114.779 818.778 138.891 844.612 148.364 861.835C297.341 721.469 345.565 553.547 360.205 406.292C405.845 525.990 467.847 626.744 551.378 705.108C479.042 757.637 396.372 793.805 308.536 815.334C321.453 829.112 337.815 855.807 345.565 872.169C439.429 845.474 526.405 805 603.046 748.165C672.799 801.555 756.329 841.168 856.222 867.863C865.694 848.918 885.501 821.362 900.140 807.583C805.414 785.194 725.328 749.887 657.298 703.385C747.718 618.994 816.609 504.462 852.777 352.040L809.720 333.956L797.664 337.400L632.325 337.400C648.687 272.815 665.910 194.451 680.549 128.143M604.769 662.051C485.070 558.714 411.012 413.181 366.233 234.925L366.233 192.729L600.463 192.729C584.101 265.065 564.295 344.290 546.211 398.541L770.969 398.541C736.523 507.906 677.966 595.743 604.769 662.051"/></svg>