<svg xmlns="http://www.w3.org/2000/svg" viewBox="0 0 1000 1000" fill="currentColor"><path d="M459.076 292.941L743.865 292.941L743.865 345.584L459.076 345.584M650.661 512.142C717.975 536.306 803.412 576.004 845.699 604.483L882.808 567.374C837.069 538.032 752.495 500.060 686.044 477.622M291.654 900.492C308.914 890.999 338.256 883.232 554.868 834.904C553.142 822.822 552.279 799.521 553.142 784.850L353.790 825.411L353.790 705.454C396.940 689.057 436.638 670.934 473.746 651.948C557.457 759.823 704.167 837.493 861.233 872.013C869.863 856.479 886.260 834.041 900.068 821.096C818.083 805.562 738.687 779.672 670.510 743.426C724.016 716.673 783.563 682.153 830.165 649.359L783.563 615.702C743.865 645.907 679.140 686.468 623.045 715.810C581.621 689.057 547.101 657.989 521.211 623.469C535.882 613.976 550.553 603.620 563.498 592.401L505.677 564.785C423.693 632.099 264.038 686.468 100.931 721.851C113.013 733.070 129.410 756.371 137.177 770.179C190.683 757.234 243.326 742.563 293.380 726.166L293.380 791.754C293.380 826.274 277.846 840.945 264.901 846.986C275.257 859.931 288.202 885.821 291.654 900.492M457.350 108.259C463.391 125.519 469.431 145.368 472.883 162.628L122.506 162.628L122.506 215.271L880.219 215.271L880.219 162.628L538.471 162.628C534.156 142.779 526.389 119.478 517.759 100.492M397.803 251.517L397.803 387.008L572.128 387.008L572.128 431.883L325.311 431.883L325.311 476.759L491.006 476.759C435.775 510.416 359.831 539.758 291.654 559.607C303.736 569.100 323.585 588.949 332.215 599.305C411.611 570.826 508.266 525.087 570.402 476.759L572.128 476.759L572.128 601.894L634.264 601.894L634.264 476.759L874.178 476.759L874.178 431.883L634.264 431.883L634.264 387.008L806.864 387.008L806.864 251.517M299.421 227.353C254.545 299.845 178.601 368.885 104.383 413.761C116.465 424.980 135.451 450.869 143.218 462.088C170.834 443.102 199.313 420.665 226.929 395.638L226.929 611.387L287.339 611.387L287.339 334.365C312.366 305.886 334.804 275.681 353.790 245.476"/></svg>