<svg xmlns="http://www.w3.org/2000/svg" viewBox="0 0 1000 1000" fill="currentColor"><path d="M502.629 428.366C556.528 472.702 624.337 535.294 659.110 572.676L700.838 528.340C666.065 493.566 598.256 435.320 542.619 391.853M432.213 726.549L459.162 787.402C548.704 738.719 668.673 673.519 779.079 610.057L763.431 557.897C644.331 621.359 514.800 688.298 432.213 726.549M576.523 99.756C535.664 213.639 467.856 324.045 391.354 394.461C404.394 407.502 425.258 434.451 434.821 447.491C473.941 407.502 513.061 356.211 547.835 299.704L827.762 299.704C817.330 657.871 805.159 796.096 776.471 826.523C766.908 837.824 756.476 840.432 738.220 840.432C716.486 840.432 659.979 840.432 598.256 834.347C609.558 852.603 617.382 878.683 619.120 896.939C672.150 899.547 728.657 901.286 760.823 897.808C792.988 895.200 812.114 888.246 832.108 862.166C866.013 819.568 877.314 680.474 888.615 273.623C888.615 264.061 888.615 238.850 888.615 238.850L582.608 238.850C602.603 199.730 620.859 158.871 636.507 118.012M112.296 723.071L135.768 789.141C218.355 747.413 326.153 691.775 426.997 638.746L411.349 583.977L290.511 642.223L290.511 370.989L395.701 370.989L395.701 309.266L290.511 309.266L290.511 110.188L227.918 110.188L227.918 309.266L118.382 309.266L118.382 370.989L227.918 370.989L227.918 670.911C184.451 691.775 144.462 709.162 112.296 723.071"/></svg>