<svg xmlns="http://www.w3.org/2000/svg" viewBox="0 0 1000 1000" fill="currentColor"><path d="M645.063 101.460C645.063 169.434 645.063 235.664 643.320 299.281L517.830 299.281L517.830 360.283L640.706 360.283C631.120 572.048 595.390 748.083 459.442 852.658C475.129 862.244 497.786 885.773 507.373 899.717C653.778 782.941 692.122 589.477 703.451 360.283L824.584 360.283C816.741 680.980 807.155 796.013 786.240 822.157C778.397 833.486 770.553 836.100 755.739 835.229C738.309 835.229 697.351 835.229 652.906 831.743C662.492 848.301 669.464 875.316 671.207 892.745C713.908 895.359 756.610 896.231 782.754 893.617C808.898 891.002 826.327 884.031 842.885 860.501C869.900 823.900 878.614 701.024 887.329 331.525C887.329 322.810 887.329 299.281 887.329 299.281L705.194 299.281C706.937 235.664 707.808 169.434 707.808 101.460M146.588 416.057L146.588 616.492L301.708 616.492L301.708 687.081L111.730 687.081L111.730 743.725L301.708 743.725L301.708 899.717L363.582 899.717L363.582 743.725L543.974 743.725L543.974 687.081L363.582 687.081L363.582 616.492L520.444 616.492L520.444 416.057L363.582 416.057L363.582 360.283L457.699 360.283L457.699 235.664L541.359 235.664L541.359 183.377L457.699 183.377L457.699 99.717L400.183 99.717L400.183 183.377L265.978 183.377L265.978 99.717L210.205 99.717L210.205 183.377L119.573 183.377L119.573 235.664L210.205 235.664L210.205 360.283L301.708 360.283L301.708 416.057M400.183 235.664L400.183 307.996L265.978 307.996L265.978 235.664M201.490 468.344L303.451 468.344L303.451 564.205L201.490 564.205M360.967 468.344L463.800 468.344L463.800 564.205L360.967 564.205"/></svg>