<svg xmlns="http://www.w3.org/2000/svg" viewBox="0 0 1000 1000" fill="currentColor"><path d="M435.898 536.454C471.320 564.099 510.197 604.704 530.067 634.078L219.916 634.078L219.916 689.369L657.929 689.369C613.868 738.613 556.849 800.816 505.877 851.788L563.760 880.298C632.011 808.592 712.356 721.335 768.512 654.812L721.860 629.758L710.629 634.078L535.251 634.078L581.039 602.976C561.168 574.467 520.564 535.590 482.551 507.944M120.564 356.756L120.564 409.456L466.136 409.456L467 356.756L330.499 356.756L330.499 286.778L446.266 286.778L446.266 237.533L330.499 237.533L330.499 170.147L461.816 170.147L461.816 119.175L124.883 119.175L124.883 170.147L269.160 170.147L269.160 237.533L147.346 237.533L147.346 286.778L269.160 286.778L269.160 356.756M491.190 386.130L466.136 409.456C383.199 481.162 244.106 545.093 99.829 587.425C113.652 599.521 133.523 624.575 142.162 640.125C276.935 596.065 401.341 534.726 492.918 460.428C574.127 521.767 720.996 596.929 856.633 633.214C866.136 615.935 886.006 590.881 899.829 577.058C761.600 546.821 611.276 480.298 533.523 423.279L545.618 411.184L543.890 410.320L880.823 410.320L880.823 357.620L732.227 357.620L732.227 285.050L857.497 285.050L857.497 235.806L732.227 235.806L732.227 170.147L871.320 170.147L871.320 119.175L518.836 119.175L518.836 170.147L669.160 170.147L669.160 235.806L543.890 235.806L543.890 285.050L669.160 285.050L669.160 357.620L530.067 357.620L530.067 404.272"/></svg>