<svg xmlns="http://www.w3.org/2000/svg" viewBox="0 0 1000 1000" fill="currentColor"><path d="M136.387 513.073L136.387 656.486L198.590 656.486L198.590 564.909L799.886 564.909L799.886 656.486L863.816 656.486L863.816 513.073M307.445 337.695L697.078 337.695L697.078 411.994L307.445 411.994M242.650 291.043L242.650 458.646L764.464 458.646L764.464 291.043M331.635 623.657C324.724 762.749 296.214 816.313 119.972 845.687C132.931 858.646 149.346 883.700 154.529 900.114C327.315 866.421 378.287 805.946 393.838 678.948L600.317 678.948L600.317 804.218C600.317 867.285 618.460 886.292 691.894 886.292C705.717 886.292 780.879 886.292 796.430 886.292C854.313 886.292 872.456 860.374 878.503 759.294C861.225 754.974 833.579 745.471 820.620 735.104C817.164 817.177 812.844 829.272 788.654 829.272C773.104 829.272 712.629 829.272 701.397 829.272C673.752 829.272 668.568 825.816 668.568 804.218L668.568 623.657M444.810 113.937C458.633 136.400 472.456 164.045 482.823 186.508L120.836 186.508L120.836 241.799L879.367 241.799L879.367 186.508L555.393 186.508C546.754 161.454 526.883 126.032 508.741 100.114"/></svg>