<svg xmlns="http://www.w3.org/2000/svg" viewBox="0 0 1000 1000" fill="currentColor"><path d="M555.342 715.453L555.342 814.598C555.342 866.735 576.709 877.846 657.051 877.846C674.145 877.846 800.641 877.846 817.735 877.846C877.564 877.846 894.658 860.752 899.786 788.103C885.256 786.393 864.744 779.556 852.778 772.718C849.359 829.128 844.231 836.821 811.752 836.821C785.256 836.821 680.128 836.821 660.470 836.821C619.444 836.821 611.752 833.402 611.752 814.598L611.752 715.453M391.239 238.530L391.239 285.538L266.453 285.538L266.453 329.128L369.872 329.128C336.538 365.026 288.675 398.359 244.231 414.598C255.342 424 269.872 441.094 277.564 453.060C316.026 434.256 358.761 400.923 391.239 365.026L391.239 455.624L440.812 455.624L440.812 359.043C472.436 378.701 511.752 404.342 527.137 417.162L557.906 382.120C542.521 372.718 486.966 345.368 454.487 329.128L560.470 329.128L560.470 285.538L440.812 285.538L440.812 238.530M697.222 238.530L697.222 285.538L583.547 285.538L583.547 329.128L674.145 329.128C641.667 362.462 594.658 394.085 551.923 409.470C563.034 418.017 576.709 435.111 584.402 447.077C623.718 429.128 664.744 397.504 697.222 363.316L697.222 455.624L747.650 455.624L747.650 363.316C780.983 399.214 824.573 434.256 862.179 453.915C870.726 441.949 885.256 424.855 897.222 416.308C855.342 398.359 805.769 364.171 771.581 329.128L878.419 329.128L878.419 285.538L747.650 285.538L747.650 238.530M360.470 612.034L516.880 612.034C512.607 629.983 508.333 647.077 502.350 662.462L360.470 662.462M578.419 612.034L764.744 612.034L764.744 662.462L565.598 662.462C570.726 646.222 575 629.983 578.419 612.034M360.470 525.709L529.701 525.709L523.718 575.282L360.470 575.282M591.239 525.709L764.744 525.709L764.744 575.282L584.402 575.282M511.752 435.111C504.915 448.786 492.094 467.590 480.983 484.684L304.060 484.684L304.060 704.342L481.838 704.342C440.812 772.718 364.744 818.017 219.444 845.368C231.410 858.188 246.795 881.265 252.778 896.650C422.863 859.897 506.624 798.359 549.359 704.342L823.718 704.342L823.718 484.684L542.521 484.684C552.778 473.573 563.889 461.607 573.291 447.932M648.504 823.145C659.615 817.162 677.564 812.889 787.821 796.650L800.641 822.291L830.556 808.615C821.154 788.103 799.786 753.915 782.692 728.274L753.632 739.385L771.581 768.444L698.077 776.991C713.462 761.607 727.991 741.094 740.812 718.017L704.060 705.197C692.094 735.966 664.744 767.590 657.906 775.282C651.068 781.265 645.085 784.684 635.684 785.538C640.812 794.940 645.940 814.598 648.504 823.145M478.419 116.308C487.821 133.402 497.222 155.624 504.060 175.282L173.291 175.282L173.291 442.803C173.291 566.735 167.308 735.966 99.786 857.333C113.462 864.171 139.103 883.829 149.359 895.795C222.009 766.735 233.120 574.427 233.120 442.803L233.120 225.709L888.675 225.709L888.675 175.282L574.145 175.282C566.453 152.205 553.632 124.855 541.667 103.487"/></svg>