<svg xmlns="http://www.w3.org/2000/svg" viewBox="0 0 1000 1000" fill="currentColor"><path d="M581 582.973L581 890L640.676 890L640.676 582.973M428.784 579.514L428.784 656.486C428.784 722.216 418.405 800.054 318.081 858C332.784 866.649 355.270 885.676 365.649 899.514C473.757 832.919 487.595 740.378 487.595 658.216L487.595 579.514M736.676 581.243L736.676 801.784C736.676 849.351 740.135 863.189 751.378 873.568C762.622 883.946 779.919 888.270 794.622 888.270C804.135 888.270 823.162 888.270 832.676 888.270C844.784 888.270 860.351 885.676 869 880.486C879.378 875.297 886.297 865.784 890.622 851.946C894.081 838.973 897.541 800.919 898.405 768.919C883.703 764.595 865.541 755.081 855.162 745.568C854.297 779.297 853.432 804.378 851.703 816.486C849.973 826.865 847.378 832.919 844.784 835.514C841.324 837.243 835.270 838.108 828.351 838.108C823.162 838.108 814.514 838.108 810.189 838.108C805 838.108 800.676 837.243 798.081 834.649C795.486 831.189 795.486 822.541 795.486 807.838L795.486 581.243M208.243 99.514L208.243 894.324L269.649 894.324L269.649 99.514M138.189 261.243C134.730 333.027 122.622 432.486 101 492.162L147.703 508.595C169.324 442 181.432 339.081 183.162 266.432M697.757 99.514L697.757 166.108L536.892 166.108L536.892 99.514L476.351 99.514L476.351 166.108L349.216 166.108L349.216 222.324L476.351 222.324L476.351 274.216L536.892 274.216L536.892 222.324L697.757 222.324L697.757 274.216L758.297 274.216L758.297 222.324L898.405 222.324L898.405 166.108L758.297 166.108L758.297 99.514M561.973 271.622C576.676 288.919 591.378 311.405 603.486 332.162L359.595 332.162L359.595 343.405C350.081 308.811 337.108 268.162 324.135 235.297L276.568 250.865C295.595 302.757 313.757 370.216 319.811 411.730L369.973 390.973L369.108 385.784L420.135 385.784L420.135 542.324L863.811 542.324L863.811 487.838L482.405 487.838L482.405 385.784L894.081 385.784L894.081 332.162L668.351 332.162C654.514 307.946 634.622 277.676 613.865 254.324"/></svg>