<svg xmlns="http://www.w3.org/2000/svg" viewBox="0 0 1000 1000" fill="currentColor"><path d="M521.654 103.642L521.654 471.349C521.654 625.493 502.709 758.970 352.871 850.251C364.927 861.446 384.733 882.974 393.344 896.752C557.822 795.138 580.212 646.160 580.212 471.349L580.212 103.642M396.789 281.898C395.928 392.985 390.761 503.211 356.315 566.935L403.678 600.520C444.152 526.462 447.596 405.041 449.319 287.926M613.797 478.238L613.797 536.795L708.522 536.795L708.522 804.610L541.461 804.610L541.461 864.890L899.695 864.890L899.695 804.610L769.663 804.610L769.663 536.795L869.555 536.795L869.555 478.238L769.663 478.238L769.663 222.479L883.334 222.479L883.334 163.060L599.157 163.060L599.157 222.479L708.522 222.479L708.522 478.238M99.695 763.276L111.751 824.417C184.948 806.333 279.674 782.221 370.955 758.970L364.066 700.412L265.896 724.524L265.896 503.211L349.426 503.211L349.426 444.653L265.896 444.653L265.896 225.924L362.343 225.924L362.343 167.366L109.168 167.366L109.168 225.924L206.477 225.924L206.477 444.653L121.224 444.653L121.224 503.211L206.477 503.211L206.477 739.164"/></svg>