<svg xmlns="http://www.w3.org/2000/svg" viewBox="0 0 1000 1000" fill="currentColor"><path d="M164.032 121.892L164.032 463.156C164.032 592.631 156.315 746.972 99.723 856.726C114.300 865.300 135.736 884.164 146.026 896.168C196.615 807.851 214.622 695.525 220.624 582.342L338.952 582.342L338.952 892.738L398.116 892.738L398.116 524.035L222.339 524.035L223.196 462.299L223.196 399.705L450.420 399.705L450.420 342.256L374.965 342.256L374.965 103.028L315.801 103.028L315.801 342.256L223.196 342.256L223.196 121.892M804.547 414.282C785.683 512.031 753.100 595.204 711.085 663.800C669.070 591.774 639.059 506.886 619.338 414.282M488.148 163.049L488.148 458.869C488.148 586.629 480.431 747.830 414.407 861.870C429.841 869.587 454.707 886.736 465.854 897.883C539.595 775.268 549.884 602.921 549.884 458.869L549.884 414.282L567.891 414.282C590.184 529.180 624.482 631.217 674.214 715.247C627.912 772.696 573.893 815.568 514.729 843.006C528.448 855.011 544.740 879.877 553.314 895.311C611.621 865.300 664.782 823.285 710.227 769.266C750.527 822.428 798.544 864.443 855.994 895.311C865.426 879.019 885.147 855.868 899.723 843.864C839.702 815.568 789.113 773.553 747.955 719.534C808.834 629.502 852.564 512.031 873.143 362.835L834.557 352.546L824.268 355.118L549.884 355.118L549.884 214.496C667.355 205.064 795.115 188.773 886.862 166.479L846.562 111.602C759.959 133.896 614.193 152.760 488.148 163.049"/></svg>