<svg xmlns="http://www.w3.org/2000/svg" viewBox="0 0 1000 1000" fill="currentColor"><path d="M790.174 112.217C644.087 147.870 375.391 169.609 157.130 178.304C163.217 192.217 171.043 220.043 172.783 236.565C393.652 230.478 666.696 208.739 834.522 167.870M400.609 258.304C427.565 299.174 462.348 353.957 479.739 387L538 353.087C520.609 322.652 484.957 269.609 456.261 230.478M253.652 704.391C212.783 704.391 158 751.348 99.739 824.391L150.174 887.870C189.304 825.261 224.087 767 251.043 767C269.304 767 298.870 800.043 335.391 825.261C395.391 867 465.826 877.435 578.870 877.435C662.348 877.435 817.130 872.217 879.739 867.870C880.609 848.739 891.913 814.826 899.739 797.435C815.391 807 687.565 813.957 581.478 813.957C480.609 813.957 407.565 807 352.783 768.739C527.565 688.739 710.174 554.826 816.261 427.870L768.435 393.957L754.522 397.435L162.348 397.435L162.348 461.783L696.261 461.783C601.478 558.304 447.565 666.130 301.478 728.739C283.217 713.957 270.174 704.391 253.652 704.391"/></svg>