<svg xmlns="http://www.w3.org/2000/svg" viewBox="0 0 1000 1000" fill="currentColor"><path d="M112.835 276.681C137.862 326.735 165.478 392.323 176.697 432.883L227.614 408.720C214.669 369.885 186.190 305.160 159.437 256.832M99.890 593.401L121.465 650.359L227.614 589.086C217.258 682.290 191.368 779.809 124.054 854.890C136.136 862.657 160.300 885.095 168.930 897.177C275.942 779.809 293.202 596.853 293.202 464.814L293.202 246.476L899.890 246.476L899.890 189.518L607.333 189.518C596.977 161.902 582.306 127.382 566.772 99.766L502.910 114.437C514.129 136.875 526.211 164.491 534.841 189.518L232.792 189.518L232.792 464.814L231.929 525.224C181.012 552.840 134.410 577.004 99.890 593.401M640.127 342.269L640.127 874.739L695.359 874.739L695.359 822.959L820.494 822.959L820.494 864.383L877.452 864.383L877.452 342.269M695.359 766.864L695.359 399.227L820.494 399.227L820.494 766.864M379.502 266.325C366.557 353.488 344.119 438.924 307.010 496.745C320.818 502.786 344.119 516.594 354.475 525.224C373.461 494.156 388.995 456.184 402.803 413.035L446.816 413.035L446.816 545.073L446.816 549.388L318.229 549.388L318.229 606.346L444.227 606.346C434.734 692.646 401.940 785.850 289.750 854.890C300.969 863.520 321.681 887.684 328.585 899.766C412.296 847.986 457.172 778.946 480.472 709.043C519.307 752.193 560.731 799.658 583.169 830.726L622.004 786.713C594.388 751.330 540.019 693.509 496.006 646.907L502.047 606.346L615.963 606.346L615.963 549.388L504.636 549.388L504.636 546.799L504.636 413.035L604.744 413.035L604.744 358.666L417.474 358.666C424.378 331.913 429.556 304.297 433.871 276.681"/></svg>