<svg xmlns="http://www.w3.org/2000/svg" viewBox="0 0 1000 1000" fill="currentColor"><path d="M332.320 578.577L332.320 630.049C332.320 695.480 317.489 780.104 163.944 837.683C177.903 849.896 199.713 873.451 208.437 890.027C378.557 821.979 399.495 715.545 399.495 631.794L399.495 578.577M262.527 310.747L463.181 310.747L463.181 405.840L262.527 405.840M528.612 310.747L731.011 310.747L731.011 405.840L528.612 405.840M262.527 165.927L463.181 165.927L463.181 259.275L262.527 259.275M528.612 165.927L731.011 165.927L731.011 259.275L528.612 259.275M609.746 578.577L609.746 883.048L676.921 883.048L676.921 580.322C731.883 617.835 793.824 648.370 855.766 667.563C865.362 650.987 885.427 625.687 900.258 611.728C796.442 584.684 691.752 528.850 624.577 460.802L798.186 460.802L798.186 110.093L197.968 110.093L197.968 460.802L372.450 460.802C305.275 529.722 200.586 588.173 100.258 616.963C115.089 630.921 134.282 654.477 143.879 671.925C259.037 630.921 380.302 552.405 452.712 460.802L548.677 460.802C581.829 504.422 625.449 544.553 674.304 578.577"/></svg>