<svg xmlns="http://www.w3.org/2000/svg" viewBox="0 0 1000 1000" fill="currentColor"><path d="M504.012 100.453C423.412 215.352 258.781 324.248 100.153 366.263C113.872 383.412 129.307 409.992 137.881 428.856C200.475 408.278 264.783 377.409 324.805 341.397L324.805 395.416L667.785 395.416L667.785 337.967C726.949 374.837 790.400 404.848 852.136 424.569C863.283 405.705 883.862 377.409 900.153 362.833C763.819 328.535 618.053 245.362 540.025 157.045L555.459 137.324M331.665 337.109C395.116 297.667 454.280 250.507 502.297 200.775C546.884 250.507 603.476 297.667 666.070 337.109M180.753 466.584L180.753 833.572L239.917 833.572L239.917 760.689L442.275 760.689L442.275 466.584M239.917 524.033L381.397 524.033L381.397 703.240L239.917 703.240M533.165 466.584L533.165 900.453L595.759 900.453L595.759 524.891L760.389 524.891L760.389 708.385C760.389 718.674 756.959 722.104 744.955 722.961C732.951 722.961 691.793 722.961 643.776 722.104C651.493 740.110 660.068 764.119 662.640 782.125C727.806 782.125 768.106 782.125 792.115 771.836C816.981 760.689 822.983 742.683 822.983 708.385L822.983 466.584"/></svg>