<svg xmlns="http://www.w3.org/2000/svg" viewBox="0 0 1000 1000" fill="currentColor"><path d="M654.784 223L654.784 691.757L713.595 691.757L713.595 223M810.459 109.703L810.459 818.027C810.459 832.730 805.270 837.054 790.568 837.919C776.730 837.919 730.892 837.919 679.865 836.189C689.378 854.351 697.162 882.027 699.757 898.459C770.676 899.324 812.189 897.595 836.405 887.216C861.486 875.973 871.865 857.811 871.865 817.162L871.865 109.703M179.973 639.865L179.973 900.189L235.324 900.189L235.324 854.351L488.730 854.351L488.730 894.135L545.811 894.135L545.811 639.865L394.459 639.865L394.459 572.405L589.054 572.405L589.054 523.973L394.459 523.973L394.459 465.162L525.054 465.162L525.054 416.730L394.459 416.730L394.459 361.378L545.811 361.378L545.811 315.541L596.838 315.541L596.838 186.676L406.568 186.676C398.784 161.595 382.351 126.135 367.649 100.189L307.108 115.757C319.216 137.378 330.459 163.324 337.378 186.676L128.081 186.676L128.081 320.730L175.649 320.730L175.649 361.378L336.514 361.378L336.514 416.730L196.405 416.730L196.405 465.162L336.514 465.162L336.514 523.973L129.811 523.973L129.811 572.405L336.514 572.405L336.514 639.865M336.514 263.649L336.514 312.946L186.027 312.946L186.027 235.973L537.162 235.973L537.162 312.946L394.459 312.946L394.459 263.649M235.324 803.324L235.324 696.081L488.730 696.081L488.730 803.324"/></svg>