<svg xmlns="http://www.w3.org/2000/svg" viewBox="0 0 1000 1000" fill="currentColor"><path d="M264.268 580.381C249.550 679.082 218.381 790.771 99.766 849.645C114.485 860.035 133.532 883.411 142.190 898.996C214.918 860.900 259.074 805.489 287.645 744.017C349.983 859.169 450.416 886.009 618.381 886.009L876.390 886.009C878.987 867.827 889.377 839.255 899.766 824.537C853.879 825.403 653.879 825.403 620.978 825.403C587.212 825.403 556.909 823.671 528.338 821.074L528.338 702.459L773.359 702.459L773.359 644.450L528.338 644.450L528.338 540.554L786.346 540.554C774.225 568.260 761.238 595.100 749.117 614.147L807.126 628C828.771 593.368 854.745 538.823 874.658 490.338L827.039 478.216L815.784 480.814L132.667 480.814L132.667 540.554L462.537 540.554L462.537 808.087C392.407 788.173 343.922 745.749 315.351 663.498C322.277 635.792 326.606 608.087 330.935 580.381M278.987 101.593L278.987 181.247L129.203 181.247L129.203 236.658L257.342 236.658C217.515 295.532 158.641 352.675 103.229 382.113C116.216 392.502 136.130 413.281 145.654 428C191.541 395.965 240.892 343.152 278.987 286.874L278.987 451.377L343.056 451.377L343.056 286.009C375.091 315.446 414.918 356.139 430.502 375.186LNaN 326.701C448.684 310.251 370.762 253.974 343.056 236.658LNaN 236.658LNaN 181.247L343.056 181.247L343.056 101.593M650.416 101.593L650.416 181.247L504.095 181.247L504.095 236.658L625.307 236.658C585.481 294.667 524.009 351.810 467.732 381.247C480.719 391.636 499.766 413.281 510.156 428C559.506 395.100 611.455 340.554 650.416 281.680L650.416 448.779L713.619 448.779L713.619 287.740C760.372 331.030 825.307 396.831 850.416 426.268L885.913 377.784C862.537 354.407 759.506 269.558 717.082 236.658L868.597 236.658L868.597 181.247L713.619 181.247L713.619 101.593"/></svg>