<svg xmlns="http://www.w3.org/2000/svg" viewBox="0 0 1000 1000" fill="currentColor"><path d="M123.202 167.273C160.798 213.612 210.634 277.437 235.115 315.033L293.694 280.060C268.339 243.339 216.754 183.011 179.158 138.421M286.699 441.809L109.213 441.809L109.213 503.011L223.749 503.011L223.749 746.071C187.027 759.186 144.186 793.284 100.470 839.623L144.186 899.077C184.404 845.743 223.749 796.781 253.475 796.781C272.710 796.781 301.563 823.885 339.158 844.869C400.361 879.842 475.552 889.459 580.470 889.459C666.153 889.459 819.158 884.213 882.109 879.842C882.984 861.481 892.601 830.880 900.470 813.393C814.787 823.011 683.639 829.131 582.219 829.131C486.044 829.131 410.852 823.011 353.148 791.536C323.421 774.923 304.186 759.186 286.699 749.568M569.978 414.705L569.978 475.033L404.732 475.033L404.732 523.120L569.978 523.120L569.978 579.077L385.497 579.077L385.497 626.290L569.978 626.290L569.978 683.995L346.153 683.995L346.153 732.082L569.978 732.082L569.978 811.645L636.426 811.645L636.426 732.082L867.246 732.082L867.246 683.995L636.426 683.995L636.426 626.290L819.158 626.290L819.158 579.077L636.426 579.077L636.426 523.120L799.049 523.120L799.049 475.033L636.426 475.033L636.426 414.705M707.246 221.481C681.016 253.831 646.918 282.683 607.574 308.038C564.732 283.557 528.011 255.579 500.033 224.104L502.656 221.481M528.885 101.699C482.546 174.268 402.109 238.967 319.923 280.934C333.038 292.301 354.896 315.033 363.639 327.273C396.863 308.038 430.087 285.306 461.563 258.202C487.792 287.929 519.268 314.158 555.115 337.765C481.672 375.361 396.863 402.464 315.552 417.328C326.918 430.443 340.907 452.301 347.027 467.164C437.082 447.055 528.885 415.579 609.322 370.115C684.514 410.333 771.071 439.186 862 455.798C869.869 439.186 885.607 415.579 898.721 402.464C814.787 390.224 733.475 367.492 663.530 336.016C719.486 295.798 767.574 247.710 799.923 190.005L760.579 168.148L748.339 170.770L548.995 170.770C562.109 154.158 574.350 136.672 585.716 119.186"/></svg>