<svg xmlns="http://www.w3.org/2000/svg" viewBox="0 0 1000 1000" fill="currentColor"><path d="M232.213 103.939L232.213 279.021L110.870 279.021L110.870 339.692L232.213 339.692L232.213 527.775C182.809 541.642 137.739 553.777 100.469 562.444L120.404 629.183L232.213 596.247L232.213 817.265C232.213 829.400 227.013 833.733 214.879 833.733C204.478 833.733 166.341 834.600 125.605 832.867C134.272 851.068 142.939 877.937 145.540 896.139C206.211 896.139 242.614 894.405 266.016 883.138C289.418 872.737 298.086 855.402 298.086 817.265L298.086 576.312L418.562 540.776L410.762 477.504L298.086 509.573L298.086 339.692L407.295 339.692L407.295 279.021L298.086 279.021L298.086 103.939M394.294 779.996L394.294 845.001L900.469 845.001L900.469 779.996L684.651 779.996L684.651 250.418L871.867 250.418L871.867 185.413L437.631 185.413L437.631 250.418L615.312 250.418L615.312 779.996"/></svg>