<svg xmlns="http://www.w3.org/2000/svg" viewBox="0 0 1000 1000" fill="currentColor"><path d="M701.402 340.737L792.805 340.737L792.805 412.119L701.402 412.119M562.120 340.737L651.782 340.737L651.782 412.119L562.120 412.119M424.579 340.737L510.760 340.737L510.760 412.119L424.579 412.119M636.113 661.085C663.099 697.646 689.214 748.136 697.919 782.086L743.186 761.194C732.740 728.114 706.625 679.366 677.898 642.804M825.014 99.605C712.718 121.368 515.983 135.296 357.550 140.519C363.643 153.577 370.607 175.339 371.478 190.138C530.781 187.527 729.258 172.728 852 150.965M399.334 210.160C417.615 236.275 435.896 271.966 441.989 294.600L490.738 275.448C484.644 251.945 466.363 217.995 447.212 193.620M774.524 182.304C760.596 214.513 737.963 260.650 717.071 294.600L608.257 294.600L653.523 278.060C647.430 251.945 628.279 214.513 608.257 185.786L559.508 201.455C578.659 230.182 596.070 268.484 602.163 294.600L373.219 294.600L373.219 458.256L846.777 458.256L846.777 294.600L776.266 294.600C795.417 266.743 814.568 231.923 832.849 201.455M542.968 607.984L542.968 648.027L413.262 648.027L413.262 607.984M542.968 569.681L413.262 569.681L413.262 529.638L542.968 529.638M477.680 719.409C489.867 737.690 502.925 757.712 515.983 778.604L413.262 814.295L413.262 686.330L596.070 686.330L596.070 490.465L360.161 490.465L360.161 789.050C360.161 827.353 341.880 847.374 329.693 856.950C339.269 866.526 354.067 887.418 359.291 899.605C373.219 888.288 395.852 877.842 539.486 821.259C551.674 843.892 561.249 865.655 568.213 883.065L615.221 860.432C597.811 816.906 557.767 750.748 522.076 700.258M770.172 477.407L770.172 560.976L619.573 560.976L619.573 611.466L770.172 611.466L770.172 832.576C770.172 841.281 766.690 843.892 757.114 843.892C748.409 844.763 716.200 844.763 681.380 843.892C689.214 858.691 697.919 880.454 700.531 895.252C747.539 895.252 778.007 893.511 798.899 884.806C819.791 876.972 824.144 862.173 824.144 832.576L824.144 611.466L884.209 611.466L884.209 560.976L824.144 560.976L824.144 477.407M116.418 174.469L116.418 744.654L170.390 744.654L170.390 661.085L312.283 661.085L312.283 174.469M170.390 235.405L258.311 235.405L258.311 600.149L170.390 600.149"/></svg>