<svg xmlns="http://www.w3.org/2000/svg" viewBox="0 0 1000 1000" fill="currentColor"><path d="M112.516 163.623C155.900 223.492 206.226 305.054 226.182 356.247L287.787 325.879C265.228 274.685 214.035 196.594 168.915 138.460M102.104 826.529L167.180 856.030C206.226 771.866 253.948 658.200 289.523 557.549L232.256 528.048C194.078 633.905 139.414 753.644 102.104 826.529M527.267 372.733C558.503 405.705 596.681 450.824 615.770 479.458L668.698 446.486C649.610 418.720 611.432 377.072 578.460 344.967M583.666 100.282C526.399 217.419 415.336 338.894 284.317 417.852C299.935 429.132 322.495 453.427 332.039 467.310C438.764 398.764 530.738 306.790 597.549 205.271C665.228 305.922 764.143 406.573 849.176 463.839C860.456 446.486 883.015 422.191 898.633 409.176C803.189 355.380 692.993 251.258 630.521 151.475L647.007 121.106M379.761 506.356L379.761 567.093L731.171 567.093C688.655 626.963 627.050 698.113 577.592 743.232C544.620 720.672 512.516 698.113 483.883 679.892L439.631 718.069C520.325 771.866 626.182 851.692 676.508 900.282L723.362 856.030C699.935 834.338 666.963 808.308 629.653 780.542C695.597 715.466 780.629 616.551 829.219 532.386L783.232 502.017L771.952 506.356"/></svg>