<svg xmlns="http://www.w3.org/2000/svg" viewBox="0 0 1000 1000" fill="currentColor"><path d="M217.862 102.862L217.862 895.103L280.793 895.103L280.793 102.862M143.724 266.655C137.690 337.345 122.172 432.172 99.759 489.069L153.207 508.034C175.621 445.103 192 345.103 195.448 274.414M285.103 253.724C308.379 296.828 330.793 355.448 340.276 390.793L391.138 364.931C381.655 330.448 356.655 275.276 333.379 232.172M605.793 101.138C560.966 224.414 466.138 345.103 346.310 421.828C360.103 433.034 382.517 455.448 391.138 468.379C423.034 446.828 453.207 422.690 480.793 395.966L480.793 447.690L771.310 447.690L771.310 388.207L488.552 388.207C543.724 334.759 590.276 272.690 627.345 205.448C687.690 304.586 773.897 401.138 853.207 456.310C863.552 439.931 885.103 416.655 899.759 405.448C811.828 352.862 712.690 248.552 654.931 148.552L667.862 118.379M432.517 542.517L432.517 898.552L494.586 898.552L494.586 852L754.069 852L754.069 895.966L818.724 895.966L818.724 542.517M494.586 793.379L494.586 601.138L754.069 601.138L754.069 793.379"/></svg>