<svg xmlns="http://www.w3.org/2000/svg" viewBox="0 0 1000 1000" fill="currentColor"><path d="M488.195 185.402L488.195 249.570L826.205 249.570C815.360 639.095 801.803 786.410 771.979 818.945C762.037 830.694 751.192 834.310 734.020 834.310C711.426 834.310 656.296 834.310 595.744 828.887C608.396 847.866 616.530 875.883 617.434 895.766C671.660 899.381 727.694 901.189 760.230 897.573C792.766 893.958 812.648 885.824 833.435 857.808C870.490 812.619 882.239 662.593 894.892 222.457C894.892 212.515 894.892 185.402 894.892 185.402M135.724 856.904C157.415 844.251 192.662 837.021 461.082 788.217C475.542 827.079 486.387 863.230 492.714 891.247L554.170 865.038C536.998 793.640 488.195 680.668 443.006 593.907L386.069 615.597C404.144 650.844 422.220 689.706 438.487 729.472L228.813 763.815C322.805 648.133 416.797 502.626 494.521 353.504L426.738 322.775C410.471 358.022 392.395 394.173 373.416 428.516L202.603 440.266C263.156 351.696 323.709 236.917 369.801 126.657L301.114 99.544C258.637 222.457 185.432 354.407 161.934 387.847C140.243 423.094 123.071 446.592 104.996 451.111C113.130 470.090 124.879 503.529 128.494 517.990C144.762 511.663 171.875 506.241 338.169 491.780C277.616 594.810 217.967 679.765 192.662 709.589C157.415 754.778 133.013 784.602 111.322 790.929C120.360 809.004 132.109 842.443 135.724 856.904"/></svg>