<svg xmlns="http://www.w3.org/2000/svg" viewBox="0 0 1000 1000" fill="currentColor"><path d="M454.097 283.344C473.882 310.871 497.968 349.581 508.290 373.667L549.581 351.301C538.398 328.935 514.312 292.806 493.667 265.280M691.516 263.559C680.333 289.366 658.828 328.935 642.484 353.882L676.032 370.226C694.097 347.860 716.462 314.312 737.108 283.344M630.441 455.387C658.828 487.215 694.097 531.086 712.161 557.753L745.710 530.226C728.505 504.419 691.516 463.129 663.989 431.301M140.118 158.613C186.570 187 248.505 227.430 278.613 253.237L318.183 201.624C285.495 178.398 222.699 139.688 178.828 113.882M99.688 391.731C147 417.538 211.516 455.387 244.204 479.473L281.194 427C247.645 404.634 183.129 369.366 136.677 346.140M118.613 848.505L176.247 884.634C215.817 804.634 260.548 698.828 294.957 609.366L243.344 573.237C206.355 669.581 154.742 782.269 118.613 848.505M571.086 255.817L571.086 382.269L437.753 382.269L437.753 427.860L538.398 427.860C510.011 464.849 467.860 500.978 430.011 520.763C441.194 531.086 454.097 550.011 459.258 561.194C498.828 535.387 540.978 494.957 571.086 454.527L571.086 561.194L619.258 561.194L619.258 427.860L759.473 427.860L759.473 382.269L619.258 382.269L619.258 255.817M565.925 103.559C559.043 128.505 547.860 161.194 536.677 188.720L351.731 188.720L351.731 614.527L409.366 614.527L409.366 242.054L787.860 242.054L787.860 610.226L847.215 610.226L847.215 188.720L601.194 188.720L636.462 116.462M565.925 599.903C563.344 617.968 560.763 634.312 556.462 649.796L305.280 649.796L305.280 704.849L537.538 704.849C503.989 774.527 436.032 818.398 289.796 843.344C300.978 856.247 316.462 881.194 322.484 896.677C478.183 865.710 554.742 811.516 594.312 728.935C645.065 818.398 731.946 872.591 860.978 895.817C868.720 878.613 885.065 852.806 899.688 839.903C776.677 824.419 690.656 779.688 645.065 704.849L883.344 704.849L883.344 649.796L620.118 649.796C623.559 634.312 626.140 617.108 628.720 599.903"/></svg>