<svg xmlns="http://www.w3.org/2000/svg" viewBox="0 0 1000 1000" fill="currentColor"><path d="M885.429 133.011L405.429 133.011L405.429 867.927L899.893 867.927L899.893 805.554L470.514 805.554L470.514 194.480L885.429 194.480M291.531 379.791L291.531 508.153L163.169 508.153L163.169 379.791M291.531 321.034L163.169 321.034L163.169 194.480L291.531 194.480M291.531 566.910L291.531 699.791L163.169 699.791L163.169 566.910M99.893 133.915L99.893 839L163.169 839L163.169 759.452L352.096 759.452L352.096 133.915M506.672 658.209L506.672 717.870L866.446 717.870L866.446 658.209L712.774 658.209L712.774 517.192L834.808 517.192L834.808 459.339L712.774 459.339L712.774 332.785L849.271 332.785L849.271 274.028L514.808 274.028L514.808 332.785L650.401 332.785L650.401 459.339L530.175 459.339L530.175 517.192L650.401 517.192L650.401 658.209"/></svg>