<svg xmlns="http://www.w3.org/2000/svg" viewBox="0 0 1000 1000" fill="currentColor"><path d="M495.178 294.817L779.604 294.817L779.604 365.279L495.178 365.279M495.178 178.813L779.604 178.813L779.604 247.556L495.178 247.556M432.450 129.834L432.450 414.259L844.050 414.259L844.050 129.834M434.169 701.262C472.837 739.071 519.238 792.347 540.721 826.719L589.700 791.488C567.359 757.975 520.098 707.277 479.711 671.187M296.682 104.914C258.873 165.924 181.537 238.104 113.653 281.928C123.965 294.817 140.291 320.596 148.025 335.204C224.502 283.647 306.994 203.733 357.692 128.974M359.410 601.584L359.410 657.438L706.564 657.438L706.564 821.563C706.564 832.734 703.127 835.311 689.378 836.171C676.489 837.889 634.383 837.889 585.404 836.171C593.997 853.357 603.449 876.557 606.886 894.603C670.474 894.603 711.720 893.743 737.498 884.291C764.136 874.839 771.011 857.653 771.011 822.422L771.011 657.438L899.904 657.438L899.904 601.584L771.011 601.584L771.011 527.685L885.296 527.685L885.296 472.691L379.174 472.691L379.174 527.685L706.564 527.685L706.564 601.584M312.149 294.817C260.592 383.324 178.100 471.831 99.904 528.545C110.216 544.012 128.261 577.524 133.417 591.273C166.929 564.635 201.301 531.982 234.813 496.751L234.813 892.884L297.541 892.884L297.541 422.852C324.179 388.480 348.240 353.249 368.863 317.159"/></svg>