<svg xmlns="http://www.w3.org/2000/svg" viewBox="0 0 1000 1000" fill="currentColor"><path d="M468.633 128.408C499.835 176.079 531.905 240.218 544.906 280.088L604.711 252.352C589.976 214.216 555.307 151.810 524.104 105.873M218.145 99.806L218.145 274.021L111.536 274.021L111.536 334.692L218.145 334.692L218.145 524.508C173.941 538.376 133.205 550.510 100.269 559.178L116.737 623.316L218.145 589.514L218.145 813.132C218.145 826.133 213.811 829.600 203.411 829.600C193.010 829.600 160.074 829.600 123.671 828.733C132.338 846.935 140.139 875.537 142.739 892.872C196.477 892.872 230.280 890.272 251.948 879.871C273.616 869.470 281.417 850.402 281.417 813.132L281.417 568.712L367.224 539.243L358.557 480.304L281.417 504.573L281.417 334.692L368.091 334.692L368.091 274.021L281.417 274.021L281.417 99.806M710.453 344.226L710.453 518.441L584.776 518.441L584.776 509.774L584.776 344.226M777.192 100.673C759.857 155.277 726.921 232.417 699.185 282.688L416.628 282.688L416.628 344.226L521.504 344.226L521.504 509.774L521.504 518.441L388.026 518.441L388.026 580.846L518.904 580.846C511.970 675.321 481.634 783.663 367.224 853.869C381.959 864.270 401.894 885.938 411.428 899.806C537.105 814.866 573.508 690.922 582.176 580.846L710.453 580.846L710.453 892.872L773.725 892.872L773.725 580.846L900.269 580.846L900.269 518.441L773.725 518.441L773.725 344.226L880.334 344.226L880.334 282.688L764.191 282.688C790.193 235.884 819.662 176.079 845.664 124.075"/></svg>