<svg xmlns="http://www.w3.org/2000/svg" viewBox="0 0 1000 1000" fill="currentColor"><path d="M452.566 100.339C443.898 125.475 427.430 159.277 411.829 187.013L219.413 187.013L219.413 623.849L464.700 623.849L464.700 694.922L111.937 694.922L111.937 754.727L464.700 754.727L464.700 900.339L532.306 900.339L532.306 754.727L887.668 754.727L887.668 694.922L532.306 694.922L532.306 623.849L786.260 623.849L786.260 433.167L285.285 433.167L285.285 368.161L758.524 368.161L758.524 187.013L482.035 187.013C497.636 164.478 514.104 136.742 529.705 109.007M285.285 238.151L693.519 238.151L693.519 317.024L285.285 317.024M285.285 485.171L720.388 485.171L720.388 571.845L285.285 571.845"/></svg>