<svg xmlns="http://www.w3.org/2000/svg" viewBox="0 0 1000 1000" fill="currentColor"><path d="M610.906 511.601L610.906 863.155L668.355 863.155L668.355 511.601M742.095 507.314L742.095 794.559C742.095 848.579 745.525 861.441 756.672 872.587C767.819 883.734 784.110 887.164 799.544 887.164C808.119 887.164 824.411 887.164 833.842 887.164C847.562 887.164 862.138 884.592 870.713 878.589C880.145 873.445 887.862 863.155 892.149 846.864C896.436 833.145 898.151 790.272 899.866 753.402C885.289 749.115 868.140 740.540 856.994 731.108C856.994 769.693 856.136 798.847 854.421 812.566C852.706 824.570 850.134 831.430 846.704 834.002C844.132 837.432 838.130 838.289 832.128 838.289C826.125 838.289 818.408 838.289 813.264 838.289C808.119 838.289 803.832 836.574 801.259 834.002C798.687 830.572 797.830 819.426 797.830 801.419L797.830 507.314M477.144 508.171L477.144 612.780C477.144 693.380 465.997 785.985 360.531 855.438C374.250 864.870 395.686 884.592 405.118 896.596C520.874 818.568 535.450 711.387 535.450 614.495L535.450 508.171M116.158 153.188L116.158 212.352L223.339 212.352C199.330 343.541 160.745 465.299 99.866 546.757C110.155 563.906 124.732 599.919 129.019 616.210C145.311 594.774 160.745 571.623 174.464 545.899L174.464 857.153L229.341 857.153L229.341 788.557L384.539 788.557L384.539 417.282L231.056 417.282C253.349 352.973 271.356 283.520 285.075 212.352L402.546 212.352L402.546 153.188M229.341 475.588L329.662 475.588L329.662 731.108L229.341 731.108M453.135 479.018C475.429 471.301 511.442 467.871 812.406 449.865C823.553 467.014 833.842 482.448 840.702 496.167L891.292 465.299C864.711 418.997 806.404 343.541 758.387 288.665L711.227 314.388C732.663 339.254 754.957 368.407 776.393 397.561L550.027 408.707C580.895 366.692 619.480 309.243 648.633 265.513L877.572 265.513L877.572 208.922L709.512 208.922C698.365 177.196 677.787 135.181 660.638 103.456L600.616 120.605C614.335 147.185 628.912 179.768 639.202 208.922L429.126 208.922L429.126 265.513L576.608 265.513C547.454 310.958 501.152 376.982 484.861 394.131C470.284 408.707 447.990 414.710 431.699 418.139C438.558 431.859 449.705 463.584 453.135 479.018"/></svg>