<svg xmlns="http://www.w3.org/2000/svg" viewBox="0 0 1000 1000" fill="currentColor"><path d="M432.190 144.037L432.190 198.879L885.727 198.879L885.727 144.037M534.040 312.046L780.395 312.046L780.395 413.025L534.040 413.025M476.587 260.686L476.587 464.385L838.719 464.385L838.719 260.686M114.454 264.168L114.454 720.316L164.943 720.316L164.943 322.492L228.491 322.492L228.491 899.641L285.074 899.641L285.074 322.492L352.974 322.492L352.974 646.322C352.974 653.286 351.233 655.027 345.139 655.898C338.175 655.898 322.506 655.898 300.743 655.027C309.448 670.696 317.283 695.941 319.024 711.610C348.621 711.610 368.643 710.740 384.312 700.294C399.111 689.848 402.593 671.567 402.593 648.063L402.593 264.168L285.074 264.168L285.074 99.641L228.491 99.641L228.491 264.168M496.608 727.280L621.091 727.280L621.091 816.942L496.608 816.942M813.474 727.280L813.474 816.942L677.675 816.942L677.675 727.280M496.608 674.178L496.608 584.516L621.091 584.516L621.091 674.178M813.474 674.178L677.675 674.178L677.675 584.516L813.474 584.516M437.413 531.415L437.413 899.641L496.608 899.641L496.608 870.044L813.474 870.044L813.474 897.029L874.410 897.029L874.410 531.415"/></svg>