<svg xmlns="http://www.w3.org/2000/svg" viewBox="0 0 1000 1000" fill="currentColor"><path d="M664.187 189.868L664.187 682.532L723.661 682.532L723.661 189.868M818.644 100.211L818.644 813.022C818.644 829 812.430 833.438 797.339 834.326C781.361 835.214 730.763 835.214 674.839 833.438C684.603 852.080 693.480 882.261 697.031 900.015C773.372 900.902 818.644 899.127 845.274 887.587C872.792 876.935 883.445 856.518 883.445 813.022L883.445 100.211M117.373 124.179L117.373 181.878L605.600 181.878L605.600 124.179M232.772 299.940L491.976 299.940L491.976 399.361L232.772 399.361M171.522 245.792L171.522 452.622L555.002 452.622L555.002 245.792M334.856 795.268L201.703 795.268L201.703 705.612L334.856 705.612M395.218 795.268L395.218 705.612L530.146 705.612L530.146 795.268M140.453 517.423L140.453 897.352L201.703 897.352L201.703 849.417L530.146 849.417L530.146 887.587L593.172 887.587L593.172 517.423M334.856 655.014L201.703 655.014L201.703 570.684L334.856 570.684M395.218 655.014L395.218 570.684L530.146 570.684L530.146 655.014"/></svg>