<svg xmlns="http://www.w3.org/2000/svg" viewBox="0 0 1000 1000" fill="currentColor"><path d="M622.257 143.166L622.257 407.802L682.322 407.802L682.322 143.166M795.489 102.252L795.489 440.011C795.489 451.328 792.007 454.810 778.949 455.680C765.891 455.680 722.366 456.551 673.617 454.810C682.322 471.349 691.898 495.724 695.380 512.263C757.186 512.263 798.100 511.393 823.345 501.817C849.460 492.242 857.295 475.702 857.295 440.881L857.295 102.252M298.427 897.900C317.578 887.454 348.046 879.619 588.307 832.612C586.566 819.554 587.436 795.180 589.177 778.640L365.456 817.813L365.456 689.848C415.075 662.862 459.471 632.394 496.033 597.573C566.544 745.560 690.157 847.410 861.647 891.806C870.353 874.396 886.892 850.022 899.950 836.964C816.381 818.683 744.128 786.474 684.063 742.078C737.164 716.834 798.971 682.013 846.849 648.063L796.359 611.502C758.057 641.099 695.380 679.402 642.279 706.387C608.329 675.049 580.472 638.487 557.839 598.444L892.115 598.444L892.115 541.861L534.335 541.861L561.321 533.156C549.134 508.781 521.277 472.220 496.903 446.975L437.708 465.256C457.730 488.760 480.363 518.357 493.421 541.861L111.267 541.861L111.267 598.444L414.205 598.444C332.376 656.768 211.375 704.646 99.950 726.409C113.008 739.467 129.547 762.100 138.252 776.028C192.224 762.971 248.807 743.819 302.779 720.316L302.779 782.122C302.779 819.554 282.757 837.835 268.829 845.669C278.405 857.856 294.074 883.972 298.427 897.900M222.692 334.679C255.771 354.701 294.074 382.557 322.801 406.061C264.477 440.881 194.836 465.256 124.324 479.184C135.641 491.371 148.699 514.004 154.792 528.803C320.189 490.501 469.047 406.931 530.853 244.146L493.421 227.606L481.234 230.218L316.707 230.218C332.376 212.807 346.305 193.656 358.492 174.505L561.321 174.505L561.321 124.886L136.511 124.886L136.511 174.505L293.203 174.505C248.807 236.311 180.037 285.930 106.914 319.880C119.972 328.585 141.734 348.607 150.440 359.053C191.354 337.291 232.268 310.305 268.829 278.096L450.766 278.096C429.874 315.528 401.147 347.737 366.326 374.723C337.600 352.089 297.556 325.103 263.606 305.082"/></svg>