<svg xmlns="http://www.w3.org/2000/svg" viewBox="0 0 1000 1000" fill="currentColor"><path d="M218.800 129.368C248.397 165.059 281.477 212.937 297.146 245.146L350.247 210.325C333.707 180.728 299.757 134.591 269.289 100.641M515.644 475.831L637.516 475.831L637.516 599.444L515.644 599.444M515.644 417.507L515.644 296.506L637.516 296.506L637.516 417.507M825.546 475.831L825.546 599.444L701.063 599.444L701.063 475.831M825.546 417.507L701.063 417.507L701.063 296.506L825.546 296.506M637.516 99.770L637.516 237.311L455.579 237.311L455.579 699.553L515.644 699.553L515.644 658.639L637.516 658.639L637.516 899.770L701.063 899.770L701.063 658.639L825.546 658.639L825.546 693.459L888.223 693.459L888.223 237.311L701.063 237.311L701.063 99.770M128.267 249.498L128.267 309.564L349.376 309.564C295.405 418.378 201.390 522.839 110.856 580.293C120.432 592.480 134.360 625.559 139.583 643.840C175.274 617.725 212.706 585.516 248.397 548.084L248.397 899.770L308.462 899.770L308.462 522.839C341.542 560.271 379.844 608.149 398.125 633.394L437.298 579.422C420.758 560.271 356.341 494.112 321.520 461.033C364.175 403.579 401.607 339.161 426.852 272.132L393.773 246.887L382.456 249.498"/></svg>