<svg xmlns="http://www.w3.org/2000/svg" viewBox="0 0 1000 1000" fill="currentColor"><path d="M541.525 643.631C576.493 679.452 617.431 729.772 636.194 762.181L681.397 731.478C661.780 699.921 619.989 651.307 584.168 617.192M753.891 681.158C789.712 731.478 828.945 800.561 844.296 844.058L890.352 820.177C875 776.680 834.915 710.156 798.241 660.689M448.561 664.953L448.561 809.090C448.561 867.938 468.177 883.290 542.377 883.290C558.582 883.290 663.486 883.290 679.691 883.290C740.245 883.290 755.597 860.262 762.420 764.740C747.068 761.328 724.041 752.800 712.100 743.418C708.689 821.883 704.424 832.117 674.574 832.117C651.546 832.117 564.552 832.117 547.495 832.117C509.968 832.117 504.851 828.706 504.851 808.237L504.851 664.953M370.096 667.512C356.450 719.537 332.569 790.326 303.571 832.117L353.038 857.704C382.036 812.501 404.211 740.859 418.710 687.128M456.237 318.684L456.237 363.887L645.576 363.887L645.576 318.684M505.704 457.704L601.226 457.704L601.226 544.697L505.704 544.697M208.049 110.582L208.049 894.377L266.045 894.377L266.045 110.582M138.966 275.188C133.849 341.712 119.350 436.382 99.733 494.377L147.495 510.582C167.111 446.616 180.757 348.535 184.168 281.158M272.868 262.394C291.631 316.126 310.394 386.062 316.365 427.853L362.420 409.090C355.597 369.857 335.981 300.774 316.365 248.748M655.810 105.465C657.516 143.844 659.222 180.518 661.780 214.633L376.066 214.633L376.066 369.004C376.066 444.910 370.949 546.403 323.188 622.309C335.128 627.426 357.303 645.337 366.684 656.424C420.416 573.695 429.797 455.145 429.797 369.857L429.797 266.659L666.045 266.659C676.279 366.446 692.484 447.469 712.953 508.876C691.631 537.874 667.751 564.313 642.164 586.488L642.164 412.501L463.060 412.501L463.060 590.753L637.047 590.753L630.224 596.723C641.311 606.104 660.928 626.574 668.603 635.955C692.484 614.633 714.659 590.753 735.128 565.166C761.567 618.045 793.124 646.190 828.945 646.190C872.441 645.337 892.058 624.868 899.733 522.522C886.940 518.258 870.736 507.171 859.648 496.083C855.384 570.284 847.708 591.606 832.356 591.606C812.740 591.606 790.565 566.019 770.096 514.846C807.623 455.145 838.326 386.062 859.648 311.009L809.328 299.921C794.829 353.652 775.213 404.825 749.627 450.028C737.687 402.267 726.599 340.859 719.776 266.659L882.676 266.659L882.676 214.633L812.740 214.633L847.708 187.341C831.503 165.166 796.535 131.904 769.243 108.876L731.716 135.316C759.009 159.196 790.565 191.606 807.623 214.633L716.365 214.633C713.806 180.518 712.953 143.844 712.100 105.465"/></svg>