<svg xmlns="http://www.w3.org/2000/svg" viewBox="0 0 1000 1000" fill="currentColor"><path d="M191.920 191.690L336.519 191.690L336.519 342.278L191.920 342.278M676.198 263.561C695.877 302.920 723.257 343.134 754.059 378.214L532.455 378.214C566.679 343.989 596.626 306.342 621.439 263.561M625.717 110.406C615.449 144.631 602.615 177.144 586.358 207.091L432.348 207.091L432.348 263.561L552.134 263.561C509.353 322.599 455.449 370.513 392.989 405.594C404.112 419.283 421.225 449.230 426.358 462.920C462.294 440.674 495.663 415.005 525.610 385.059L525.610 431.262L754.914 431.262L754.914 379.070C786.572 415.861 822.508 447.519 856.733 469.765C866.144 454.364 886.679 432.118 900.369 420.139C839.620 389.337 777.160 327.733 737.802 263.561L879.834 263.561L879.834 207.091L651.385 207.091C663.364 181.422 674.487 154.043 683.043 124.952M100.369 782.064L115.770 842.813C203.043 818 321.118 785.487 432.348 753.829L424.647 697.358L311.706 728.160L311.706 574.150L400.690 574.150L400.690 517.679L311.706 517.679L311.706 397.893L392.989 397.893L392.989 136.075L138.016 136.075L138.016 397.893L255.235 397.893L255.235 742.706L193.631 758.963L193.631 479.176L142.294 479.176L142.294 771.797M422.936 502.278L422.936 557.893L526.465 557.893C512.775 605.807 496.519 659.711 481.973 698.214L762.615 698.214C753.203 779.497 743.791 817.144 728.390 829.123C718.979 835.112 708.711 835.968 689.888 835.968C667.642 835.968 606.037 835.112 546.144 829.979C558.123 845.380 567.535 868.481 569.246 885.594C626.572 889.016 681.332 889.872 707.856 888.160C740.369 887.305 759.193 882.171 776.305 866.770C800.262 844.524 813.096 791.476 824.219 669.979C825.930 661.422 826.786 643.455 826.786 643.455L560.690 643.455L585.503 557.893L874.701 557.893L874.701 502.278"/></svg>