<svg xmlns="http://www.w3.org/2000/svg" viewBox="0 0 1000 1000" fill="currentColor"><path d="M244.103 103.862L244.103 270.241L119.103 270.241L119.103 330.586L238.069 330.586C210.483 448.690 156.172 585.759 100.138 658.172C112.207 673.690 127.724 702.138 134.621 721.103C175.138 663.345 213.931 570.241 244.103 473.690L244.103 896.103L304.448 896.103L304.448 446.966C328.586 490.069 354.448 541.793 365.655 569.379L406.172 522.828C391.517 497.828 326.862 397.828 304.448 366.793L304.448 330.586L393.241 330.586L393.241 270.241L304.448 270.241L304.448 103.862M411.345 292.655L411.345 355.586L608.759 355.586L608.759 532.310L433.759 532.310L433.759 896.966L497.552 896.966L497.552 859.897L787.207 859.897L787.207 893.517L853.586 893.517L853.586 532.310L676 532.310L676 355.586L900.138 355.586L900.138 292.655L676 292.655L676 103.862L608.759 103.862L608.759 292.655M497.552 797.828L497.552 593.517L787.207 593.517L787.207 797.828"/></svg>