<svg xmlns="http://www.w3.org/2000/svg" viewBox="0 0 1000 1000" fill="currentColor"><path d="M275.636 484.288L720.081 484.288L720.081 560.976L275.636 560.976M275.636 359.669L720.081 359.669L720.081 434.614L275.636 434.614M212.891 307.381L212.891 613.264L463 613.264L463 697.795L111.802 697.795L111.802 757.054L463 757.054L463 899.974L528.359 899.974L528.359 757.054L888.272 757.054L888.272 697.795L528.359 697.795L528.359 613.264L786.312 613.264L786.312 307.381M117.031 164.462L117.031 223.721L316.595 223.721L316.595 290.824L380.211 290.824L380.211 223.721L615.505 223.721L615.505 290.824L679.122 290.824L679.122 223.721L883.044 223.721L883.044 164.462L679.122 164.462L679.122 99.974L615.505 99.974L615.505 164.462L380.211 164.462L380.211 99.974L316.595 99.974L316.595 164.462"/></svg>