<svg xmlns="http://www.w3.org/2000/svg" viewBox="0 0 1000 1000" fill="currentColor"><path d="M236.391 99.565L236.391 274.348L115.522 274.348L115.522 336.087L236.391 336.087L236.391 525.652L103.348 562.174L121.609 625.652L236.391 590L236.391 823.913C236.391 836.957 231.174 840.435 219.870 840.435C208.565 841.304 172.913 841.304 132.913 840.435C141.609 857.826 150.304 883.913 152.913 899.565C210.304 899.565 245.957 897.826 268.565 888.261C291.174 877.826 299 860.435 299 823.913L299 570.870L405.957 536.957L397.261 478.696L299 507.391L299 336.087L396.391 336.087L396.391 274.348L299 274.348L299 99.565M489.435 593.478L626.826 593.478L626.826 772.609L489.435 772.609M489.435 531.739L489.435 362.174L626.826 362.174L626.826 531.739M832.913 593.478L832.913 772.609L688.565 772.609L688.565 593.478M832.913 531.739L688.565 531.739L688.565 362.174L832.913 362.174M626.826 100.435L626.826 299.565L426.826 299.565L426.826 896.957L489.435 896.957L489.435 836.087L832.913 836.087L832.913 891.739L897.261 891.739L897.261 299.565L688.565 299.565L688.565 100.435"/></svg>