<svg xmlns="http://www.w3.org/2000/svg" viewBox="0 0 1000 1000" fill="currentColor"><path d="M160.767 128.262C180.920 169.445 203.702 225.524 213.341 258.820L266.791 233.410C256.276 201.865 231.742 148.415 211.588 108.108M609.398 487.517C635.685 552.358 663.724 639.105 675.115 694.308L723.308 679.412C711.041 625.085 681.249 540.091 655.838 474.373M382.453 100.222C369.310 151.044 342.147 225.524 321.117 273.716L117.831 273.716L117.831 334.176L195.816 334.176L195.816 491.022L195.816 511.175L101.183 511.175L101.183 570.759L193.187 570.759C187.054 668.021 166.024 777.550 100.307 862.544C113.450 869.554 137.108 889.708 146.747 900.222C219.474 808.218 244.009 680.288 251.019 570.759L343.899 570.759L343.899 893.212L402.607 893.212L402.607 570.759L490.230 570.759L490.230 511.175L402.607 511.175L402.607 334.176L472.705 334.176L472.705 273.716L377.196 273.716C398.226 229.905 421.884 172.950 442.913 124.757M343.899 334.176L343.899 511.175L253.647 511.175L253.647 491.022L253.647 334.176M491.982 898.470C508.631 887.079 535.794 877.440 729.441 829.248C726.813 815.228 724.184 791.570 724.184 774.045L568.215 809.970C577.853 711.832 589.244 539.215 598.883 391.131L748.719 391.131L748.719 782.807C748.719 843.267 752.223 857.287 762.738 869.554C774.129 880.069 790.778 884.450 805.674 884.450C812.683 884.450 830.208 884.450 838.970 884.450C852.990 884.450 866.134 880.945 874.896 873.059C884.535 865.173 889.792 852.906 894.173 835.381C896.802 818.733 899.430 767.911 900.307 728.481C886.287 724.100 871.391 716.214 860 707.451C860 752.139 858.248 786.312 857.371 801.208C855.619 816.104 852.990 823.114 851.238 827.495C847.733 830.124 842.475 831 837.218 831C831.961 831 824.074 831 820.570 831C817.065 831 812.683 830.124 810.055 827.495C807.426 823.990 806.550 810.847 806.550 788.065L806.550 332.424L602.388 332.424L610.274 205.370L886.287 205.370L886.287 145.786L467.448 145.786L467.448 205.370L548.938 205.370C540.175 360.463 516.517 741.624 509.507 787.188C504.250 822.238 486.725 831 464.819 837.134C473.582 852.030 486.725 881.821 491.982 898.470"/></svg>