<svg xmlns="http://www.w3.org/2000/svg" viewBox="0 0 1000 1000" fill="currentColor"><path d="M628.876 113.944L628.876 201.135L367.303 201.135L367.303 113.944L300.787 113.944L300.787 201.135L100.337 201.135L100.337 264.955L300.787 264.955L300.787 367.427L367.303 367.427L367.303 264.955L628.876 264.955L628.876 367.427L696.292 367.427L696.292 264.955L900.337 264.955L900.337 201.135L696.292 201.135L696.292 113.944M414.045 357.539C461.685 396.191 513.820 451.022 540.787 490.573L126.404 490.573L126.404 554.393L223.483 554.393L223.483 886.079L825.730 886.079L825.730 820.461L293.596 820.461L293.596 554.393L867.978 554.393L867.978 490.573L553.371 490.573L596.517 456.416C570.449 417.764 512.921 362.034 460.787 322.483"/></svg>