<svg xmlns="http://www.w3.org/2000/svg" viewBox="0 0 1000 1000" fill="currentColor"><path d="M146.519 160.819C198.636 186.009 264.651 225.097 296.790 253.761L335.010 204.250C302.002 176.454 235.987 138.235 183.870 116.519M100.482 413.587C149.993 437.909 212.534 476.997 242.936 504.793L280.287 454.413C248.148 427.485 186.476 391.003 136.096 368.419M126.541 853.110L183.001 888.723C220.352 807.073 264.651 697.626 296.790 605.553L246.410 569.939C210.797 669.831 161.286 784.489 126.541 853.110M547.822 426.617C584.304 454.413 625.129 495.238 644.239 524.771L461.828 524.771L476.595 402.295L777.138 402.295L771.058 524.771L647.713 524.771L683.327 498.712C664.217 470.916 620.786 430.091 585.173 402.295M311.557 524.771L311.557 584.706L392.339 584.706C381.915 656.801 370.623 724.554 360.200 775.802L746.736 775.802C741.524 804.467 734.575 821.839 726.758 829.657C718.940 840.080 710.254 842.686 694.619 842.686C678.115 842.686 637.290 841.818 592.122 837.474C602.545 853.110 608.625 877.431 610.363 893.935C652.056 896.541 695.488 897.409 719.809 894.803C745.868 892.198 764.109 886.117 781.481 863.533C792.773 848.767 802.328 822.708 810.145 775.802L876.161 775.802L876.161 719.342L817.963 719.342C821.438 682.860 824.912 638.560 828.387 584.706L900.482 584.706L900.482 524.771L831.861 524.771L838.810 377.105C838.810 367.550 839.679 345.835 839.679 345.835L421.872 345.835C416.660 399.689 408.843 462.230 400.156 524.771M453.142 584.706L767.583 584.706C764.109 640.298 760.634 684.597 756.291 719.342L434.033 719.342M526.106 610.764C563.457 642.903 608.625 688.940 629.472 719.342L668.560 691.546C647.713 661.144 602.545 616.845 563.457 587.312M447.931 103.490C416.660 205.118 362.806 306.747 301.134 371.894C316.769 380.580 345.433 397.952 357.594 408.376C390.602 369.288 422.740 318.908 451.405 262.447L878.767 262.447L878.767 202.512L480.069 202.512C491.362 175.585 501.785 147.789 511.340 119.993"/></svg>