<svg xmlns="http://www.w3.org/2000/svg" viewBox="0 0 1000 1000" fill="currentColor"><path d="M454.564 250.230C440.605 345.323 417.050 446.522 384.771 513.698C399.602 519.805 427.519 532.891 439.733 540.743C471.140 470.950 498.184 362.771 514.760 261.571M725.883 255.465C766.887 330.492 807.890 429.947 823.593 495.377L882.917 473.567C867.214 408.136 825.338 311.299 781.718 236.272M771.249 526.784C707.563 697.776 568.850 796.359 349.002 841.724C362.961 856.555 377.792 881.855 384.771 900.176C615.960 845.214 762.525 735.290 833.190 545.105M589.787 100.176L589.787 640.197L652.601 640.197L652.601 100.176M117.814 183.055L117.814 754.483L178.882 754.483L178.882 670.732L346.385 670.732L346.385 183.055M178.882 244.123L286.189 244.123L286.189 609.663L178.882 609.663"/></svg>