<svg xmlns="http://www.w3.org/2000/svg" viewBox="0 0 1000 1000" fill="currentColor"><path d="M99.936 716.170L128.872 779.149C191 753.617 268.447 721.277 345.043 688.085L345.043 880.426L409.723 880.426L409.723 120.426L345.043 120.426L345.043 321.277L125.468 321.277L125.468 385.106L345.043 385.106L345.043 624.255C253.128 659.149 162.064 694.894 99.936 716.170M829.298 251.489C777.383 300 697.383 357.021 618.234 404.681L618.234 121.277L551.851 121.277L551.851 751.915C551.851 842.979 575.681 868.511 655.681 868.511C672.702 868.511 774.830 868.511 792.702 868.511C876.106 868.511 893.128 813.191 899.936 658.298C882.064 654.043 855.681 641.277 839.511 627.660C833.553 768.936 827.596 806.383 787.596 806.383C765.468 806.383 680.362 806.383 662.489 806.383C625.043 806.383 618.234 797.872 618.234 752.766L618.234 471.064C708.447 420.851 805.468 362.979 876.957 307.660"/></svg>