<svg xmlns="http://www.w3.org/2000/svg" viewBox="0 0 1000 1000" fill="currentColor"><path d="M109.698 280.602L109.698 341.939L460.191 341.939L460.191 900.099L528.537 900.099L528.537 341.939L885.163 341.939L885.163 280.602L528.537 280.602L528.537 188.598C632.808 179.836 730.946 167.568 808.931 152.673L763.367 100.099C624.046 127.262 370.815 144.786 162.272 151.796C168.405 166.692 175.415 191.227 177.168 206.999C267.419 205.246 364.681 200.865 460.191 193.855L460.191 280.602M101.812 665.268L130.727 725.728C181.549 708.204 242.009 685.422 302.469 662.640L302.469 737.996L365.558 737.996L365.558 380.493L302.469 380.493L302.469 458.478L121.089 458.478L121.089 517.185L302.469 517.185L302.469 605.685C227.113 629.343 153.509 652.125 101.812 665.268M620.541 381.369L620.541 647.744C620.541 715.214 638.066 733.614 707.288 733.614C722.184 733.614 801.045 733.614 815.065 733.614C872.896 733.614 890.421 707.327 897.430 608.313C879.906 603.932 853.619 594.294 840.475 583.779C837.847 662.640 832.589 674.907 808.931 674.907C793.159 674.907 728.318 674.907 716.050 674.907C688.887 674.907 683.630 671.402 683.630 646.867L683.630 550.482C749.347 525.071 821.198 492.651 874.648 460.230L827.332 412.037C792.283 438.324 737.080 468.116 683.630 492.651L683.630 381.369"/></svg>