<svg xmlns="http://www.w3.org/2000/svg" viewBox="0 0 1000 1000" fill="currentColor"><path d="M754.621 495.966C723.586 563.207 679.621 620.966 624.448 669.241C599.448 614.931 578.759 549.414 565.828 477L887.379 477L887.379 415.793L809.793 415.793L845.138 381.310C820.138 357.172 769.276 319.241 728.759 293.379L688.241 328.724C726.172 353.724 771.862 389.931 797.724 415.793L556.345 415.793C551.172 379.586 548.586 341.655 547.724 302.862L482.207 302.862C483.931 341.655 486.517 378.724 490.828 415.793L195.138 415.793L195.138 537.345C195.138 632.172 183.069 762.345 100.310 858.034C114.966 864.931 142.552 884.759 152.897 896.828C241.690 794.241 258.931 644.241 258.931 539.069L258.931 477L500.310 477C515.828 564.931 540.828 644.241 573.586 710.621C493.414 766.655 396.862 808.034 289.103 836.483C301.172 850.276 321.862 878.724 329.621 892.517C430.483 860.621 523.586 819.241 602.897 763.207C655.483 845.103 721.862 895.103 798.586 895.103C863.241 895.103 888.241 863.207 900.310 745.103C883.069 739.069 859.793 727 845.138 713.207C839.966 802 830.483 832.172 802.034 832.172C748.586 833.034 696.862 792.517 654.621 724.414C721.862 668.379 777.034 599.414 816.690 516.655M615.828 102.862L615.828 180.448L381.345 180.448L381.345 102.862L318.414 102.862L318.414 180.448L124.448 180.448L124.448 239.931L318.414 239.931L318.414 321.828L381.345 321.828L381.345 239.931L615.828 239.931L615.828 320.103L679.621 320.103L679.621 239.931L882.207 239.931L882.207 180.448L679.621 180.448L679.621 102.862"/></svg>