<svg xmlns="http://www.w3.org/2000/svg" viewBox="0 0 1000 1000" fill="currentColor"><path d="M757.568 131.081L697.892 134.541C714.324 445.027 746.324 722.649 850.973 870.541C862.216 853.243 884.703 829.892 900.270 817.784C803.405 691.514 771.405 416.486 757.568 131.081M541.351 141.459C528.378 435.514 502.432 684.595 402.973 825.568C419.405 837.676 441.892 861.027 453.135 878.324C561.243 714 589.784 470.108 604.486 144.054M199.730 176.919L356.270 176.919L356.270 329.135L199.730 329.135M100.270 778L116.703 839.405C204.919 812.595 323.405 777.135 435.838 743.405L426.324 686.324L316.486 718.324L316.486 566.973L426.324 566.973L426.324 509.892L316.486 509.892L316.486 385.351L414.216 385.351L414.216 120.703L144.378 120.703L144.378 385.351L255.946 385.351L255.946 735.622L198 752.054L198 472.703L144.378 472.703L144.378 766.757"/></svg>