<svg xmlns="http://www.w3.org/2000/svg" viewBox="0 0 1000 1000" fill="currentColor"><path d="M516.264 142.593L516.264 197.099L534.725 197.099C561.978 268.308 600.659 330.725 650.769 381.714C609.451 410.725 564.615 433.582 516.264 449.407L516.264 409.846L453.846 415.121L453.846 165.451L507.473 165.451L507.473 112.703L105.714 112.703L105.714 165.451L179.560 165.451L179.560 439.736L99.560 445.890L104.835 498.637L393.187 469.626L393.187 501.275L453.846 501.275L453.846 463.473L490.769 459.956C502.198 473.143 515.385 494.242 521.538 509.187C583.956 488.967 642.857 460.835 694.725 422.154C742.198 460.835 796.703 490.725 859.121 510.066C867.033 494.242 883.736 471.385 896.923 459.956C838.022 444.132 785.275 417.758 738.681 384.352C799.341 326.330 846.813 250.725 873.187 154.022L835.385 140.835L823.077 142.593M393.187 421.275L239.341 434.462L239.341 365.890L393.187 365.890M393.187 165.451L393.187 219.956L239.341 219.956L239.341 165.451M393.187 265.670L393.187 321.934L239.341 321.934L239.341 265.670M796.703 197.099C772.967 256 737.802 306.110 693.846 346.549C649.890 303.473 615.604 253.363 590.989 197.099M232.308 736.879C307.912 750.066 382.637 765.011 452.967 780.835C365.934 809.846 253.407 823.912 111.868 830.066C121.538 845.011 130.330 866.989 135.604 886.330C312.308 874.901 447.692 851.165 547.033 803.692C658.681 830.945 755.385 859.956 826.593 888.088L881.978 838.857C812.527 813.363 720.220 786.110 617.363 760.615C662.198 727.209 696.484 684.132 720.220 631.385L899.560 631.385L899.560 577.758L432.747 577.758C445.934 557.538 457.363 537.319 467.912 517.978L401.978 501.275C389.670 525.011 373.846 551.385 356.264 577.758L100.440 577.758L100.440 631.385L318.462 631.385C289.451 670.945 259.560 707.868 232.308 736.879M649.890 631.385C623.516 677.978 587.473 714.022 540 742.154C475.824 728.088 408.132 714.022 341.319 701.714C358.901 680.615 377.363 656.879 395.824 631.385"/></svg>