<svg xmlns="http://www.w3.org/2000/svg" viewBox="0 0 1000 1000" fill="currentColor"><path d="M558.410 200.926C568.891 239.354 578.498 290.009 581.991 319.703L637.886 306.603C633.520 278.655 622.166 229.747 610.812 192.192M802.952 100.489C700.769 123.197 514.742 138.044 362.777 143.284C369.764 157.258 376.751 179.092 378.498 193.939C532.210 190.445 722.603 175.598 841.380 149.397M402.079 219.266C417.799 254.201 435.266 301.362 443.127 330.183L497.275 311.843C489.415 284.769 470.201 239.354 453.607 205.293M768.891 182.585C750.550 226.253 717.362 287.389 687.668 330.183L375.878 330.183L375.878 384.332L485.048 384.332L478.061 453.328L349.677 453.328L349.677 509.223L469.328 509.223C447.493 636.734 399.459 773.852 274.568 850.707C290.288 861.188 310.376 882.148 319.109 896.996C406.445 840.227 458.847 757.258 492.035 668.175C519.983 711.843 554.917 749.397 595.092 782.585C543.563 814.026 483.301 834.987 416.926 849.834C429.153 861.188 447.493 885.642 453.607 899.616C524.349 882.148 588.978 855.948 644 818.393C703.389 855.948 773.258 883.895 850.114 900.489C858.847 883.022 877.188 857.694 891.162 844.594C817.799 831.493 751.424 808.786 695.528 778.218C747.930 729.310 789.852 665.555 815.179 582.585L778.498 565.991L767.144 568.611L520.856 568.611L533.083 509.223L875.441 509.223L875.441 453.328L540.943 453.328L547.930 384.332L856.227 384.332L856.227 330.183L751.424 330.183C777.624 291.755 806.445 245.467 830.900 202.672M528.716 619.266L739.197 619.266C717.362 670.795 685.048 712.716 644.873 746.777C595.965 711.843 556.664 669.048 528.716 619.266M276.314 469.921L276.314 669.921L168.017 669.921L168.017 469.921M276.314 411.406L168.017 411.406L168.017 219.266L276.314 219.266M109.502 160.751L109.502 797.432L168.017 797.432L168.017 728.437L335.703 728.437L335.703 160.751"/></svg>