<svg xmlns="http://www.w3.org/2000/svg" viewBox="0 0 1000 1000" fill="currentColor"><path d="M744.072 160.616C778.671 210.405 814.958 278.759 830.992 321.797L880.781 296.481C864.747 255.131 825.928 189.308 791.329 139.519M281.624 113.359C241.118 244.160 173.608 374.118 100.190 458.506C111.160 474.540 127.194 507.451 133.101 522.641C160.949 489.730 187.954 451.755 213.270 409.561L213.270 885.511L274.030 885.511L274.030 295.637C299.346 242.473 322.131 185.932 339.852 129.392M808.207 467.789C787.954 520.954 760.949 571.586 729.726 618C720.443 562.304 713.692 498.169 709.473 427.283L880.781 427.283L880.781 370.743L706.097 370.743C701.878 293.105 700.190 207.873 701.034 118.422L639.430 118.422C640.274 206.186 641.962 291.418 646.181 370.743L510.316 370.743L510.316 220.532C552.511 207.873 593.017 194.371 626.772 179.181L578.671 130.236C515.380 161.460 405.675 194.371 309.473 215.468C317.068 228.970 326.350 250.911 328.882 264.414C367.700 256.819 409.895 247.536 450.401 236.565L450.401 370.743L310.316 370.743L310.316 427.283L450.401 427.283L450.401 572.430C394.705 586.776 344.072 598.591 303.565 607.873L321.287 669.477L450.401 634.034L450.401 808.717C450.401 820.532 446.181 823.907 434.367 824.751C421.709 825.595 382.046 825.595 338.165 823.907C346.603 840.785 355.886 867.789 358.418 883.823C415.802 883.823 455.464 882.135 478.249 872.852C502.722 862.726 510.316 845.004 510.316 808.717L510.316 618L630.992 583.401L624.241 526.861L510.316 557.241L510.316 427.283L648.713 427.283C655.464 524.329 664.747 611.249 679.937 682.135C636.899 732.768 587.110 776.650 533.101 810.405C546.603 821.376 567.700 843.316 576.139 855.975C619.177 825.595 659.684 790.152 696.814 748.802C723.819 834.878 761.793 886.354 814.958 886.354C871.498 886.354 890.907 847.536 900.190 718.422C885 712.515 864.747 699.013 852.089 685.511C848.713 785.089 840.274 825.595 822.553 825.595C790.485 825.595 764.325 776.650 744.072 693.105C792.173 630.658 834.367 559.772 865.591 482.979"/></svg>