<svg xmlns="http://www.w3.org/2000/svg" viewBox="0 0 1000 1000" fill="currentColor"><path d="M789.333 99.861C636.952 124.970 359.896 142.286 133.922 146.615C139.117 158.736 146.043 181.247 146.909 195.100C374.615 191.636 653.403 175.186 826.563 146.615M517.472 658.303C550.372 696.398 585.870 750.078 598.857 784.710L650.805 762.199C636.952 726.701 600.589 674.753 566.823 637.524M616.173 330.165L762.494 330.165L762.494 406.355L616.173 406.355M412.710 330.165L556.433 330.165L556.433 406.355L412.710 406.355M214.442 330.165L352.970 330.165L352.970 406.355L214.442 406.355M152.970 284.277L152.970 452.242L826.563 452.242L826.563 284.277L700.156 284.277C722.667 257.437 747.775 224.537 769.420 193.368L710.545 171.723C694.095 204.623 662.926 252.242 637.818 284.277L465.524 284.277L519.203 271.290C514.874 247.048 497.558 211.550 478.511 184.710L423.965 196.831C441.281 223.671 457.732 260.035 462.061 284.277L277.645 284.277L315.740 272.156C307.948 249.645 285.437 216.745 264.658 194.234L212.710 210.684C231.758 233.195 250.805 262.632 259.463 284.277M333.922 742.286C349.506 757.870 365.957 774.320 381.541 792.502L226.563 821.939L226.563 718.909L382.407 718.909M146.909 897.264C164.225 887.740 191.931 880.814 415.307 834.061C432.623 857.437 447.342 880.814 456.866 899.861L508.814 873.887C485.437 828.866 431.758 763.065 382.407 718.909L458.597 718.909L458.597 490.338L193.662 491.203L163.359 491.203L163.359 778.649C163.359 815.013 134.788 835.792 117.472 844.450C127.861 856.571 142.580 882.545 146.909 897.264M397.991 624.537L397.991 673.022L226.563 673.022L226.563 624.537M397.991 581.247L226.563 581.247L226.563 535.359L397.991 535.359M717.472 470.424L717.472 549.212L485.437 549.212L485.437 603.758L717.472 603.758L717.472 818.476C717.472 828.866 713.143 833.195 700.156 834.061C686.303 834.061 640.416 834.061 588.468 833.195C597.126 847.913 606.649 871.290 610.113 887.740C678.511 887.740 720.069 887.740 745.177 878.216C771.152 868.693 778.944 853.108 778.944 818.476L778.944 603.758L882.840 603.758L882.840 549.212L778.944 549.212L778.944 470.424"/></svg>