<svg xmlns="http://www.w3.org/2000/svg" viewBox="0 0 1000 1000" fill="currentColor"><path d="M553.247 227.155C656.558 262.475 785.477 323.402 853.468 367.552L900.267 324.285C829.627 282.784 701.592 223.623 598.280 188.302M118.810 112.364L118.810 168.876L461.415 168.876C363.402 235.985 228.302 289.848 100.267 323.402C114.395 334.881 134.704 359.605 143.534 371.967C249.494 339.296 365.168 291.614 462.298 232.453L462.298 364.903L528.523 364.903L528.523 187.419L552.364 168.876L881.724 168.876L881.724 112.364M761.636 577.706L761.636 664.241L527.640 664.241L527.640 577.706M761.636 524.726L527.640 524.726L527.640 441.724L761.636 441.724M463.181 577.706L463.181 664.241L242.430 664.241C243.313 643.049 244.196 622.740 244.196 603.313L244.196 577.706M463.181 524.726L244.196 524.726L244.196 441.724L463.181 441.724M178.854 386.978L178.854 602.430C178.854 681.018 173.556 776.382 116.161 847.022C130.289 854.969 157.662 876.161 168.258 888.523C207.993 840.841 227.419 779.031 236.249 718.104L463.181 718.104L463.181 862.916L527.640 862.916L527.640 718.104L761.636 718.104L761.636 811.702C761.636 824.064 757.221 828.479 743.093 828.479C729.848 829.362 681.283 829.362 630.951 827.596C639.781 844.373 649.494 869.097 652.143 885.874C720.135 885.874 765.168 885.874 791.658 876.161C818.148 866.448 826.978 848.788 826.978 811.702L826.978 386.978"/></svg>