<svg xmlns="http://www.w3.org/2000/svg" viewBox="0 0 1000 1000" fill="currentColor"><path d="M143.958 149.613C200.541 182.692 275.405 230.570 311.096 262.779L352.010 211.419C313.707 180.951 238.843 134.814 183.131 104.346M99.561 391.615C153.533 418.601 224.915 459.515 259.736 486.501L296.297 432.529C259.736 405.543 187.483 367.240 135.252 343.737M129.159 839.928L183.131 884.324C235.361 803.367 295.427 694.553 341.564 602.279L294.556 559.624C244.066 657.991 175.296 772.899 129.159 839.928M346.787 441.234L346.787 505.652L583.566 505.652L583.566 894.770L652.336 894.770L652.336 505.652L899.561 505.652L899.561 441.234L652.336 441.234L652.336 204.455L861.259 204.455L861.259 140.037L382.478 140.037L382.478 204.455L583.566 204.455L583.566 441.234"/></svg>