<svg xmlns="http://www.w3.org/2000/svg" viewBox="0 0 1000 1000" fill="currentColor"><path d="M566.545 104.861C539.166 181.866 488.684 253.738 428.791 300.797C439.914 306.786 457.027 317.909 469.861 327.321L469.861 357.267L130.182 357.267L130.182 413.738L469.861 413.738L469.861 480.476L191.786 480.476L191.786 702.080L258.524 702.080L258.524 536.091L469.861 536.091L469.861 610.529C393.711 704.647 250.824 780.797 108.791 814.166C123.337 827 140.449 851.813 149.861 868.070C267.080 834.701 386.011 770.529 469.861 687.535L469.861 895.449L538.310 895.449L538.310 689.246C612.749 758.551 725.690 828.711 859.166 863.791C868.578 847.535 887.401 821.866 900.235 808.176C742.802 773.096 606.759 693.524 538.310 617.374L538.310 536.091L752.214 536.091L752.214 639.620C752.214 648.176 749.647 650.743 740.235 650.743C729.968 651.599 697.455 651.599 662.374 650.743C670.075 664.433 680.342 684.968 683.765 701.225C732.535 701.225 766.759 701.225 789.005 692.668C812.107 683.257 818.096 669.567 818.096 639.620L818.096 480.476L538.310 480.476L538.310 413.738L866.866 413.738L866.866 357.267L538.310 357.267L538.310 302.508L519.487 302.508C536.599 282.829 553.711 261.439 569.112 238.337L633.283 238.337C655.529 271.706 676.064 310.209 684.620 337.588L741.947 317.053C734.246 295.663 717.989 265.717 700.021 238.337L877.989 238.337L877.989 183.578L601.626 183.578C611.893 163.043 621.305 141.652 629.861 120.262M235.422 104.861C206.332 180.155 155.850 253.738 100.235 302.508C115.636 311.064 142.160 329.032 154.139 338.444C181.519 311.064 208.898 276.840 234.567 238.337L275.636 238.337C294.460 272.561 312.428 312.775 320.984 339.299L377.455 317.909C370.610 296.519 356.064 266.572 340.663 238.337L486.973 238.337L486.973 183.578L266.225 183.578C277.348 163.043 287.615 142.508 296.171 121.118"/></svg>