<svg xmlns="http://www.w3.org/2000/svg" viewBox="0 0 1000 1000" fill="currentColor"><path d="M488.584 250.779C475.597 346.017 453.087 445.584 421.052 512.251C436.636 518.312 463.476 531.299 476.463 539.091C507.632 469.827 533.606 363.333 549.190 262.035M743.996 256.840C784.688 331.299 825.381 430 840.965 494.935L899.840 473.290C883.390 408.355 842.697 312.251 799.407 237.792M799.407 526.104C735.338 697.532 598.541 794.502 380.359 839.524C394.212 854.242 408.931 879.351 415.857 896.667C645.294 842.987 790.749 733.896 860.013 545.152M615.857 102.727L615.857 638.658L678.195 638.658L678.195 102.727M234.905 102.727L234.905 277.619L112.827 277.619L112.827 338.225L234.905 338.225L234.905 525.238C184.688 539.091 137.935 551.212 99.840 560.736L118.887 623.939L234.905 590.173L234.905 820.476C234.905 833.463 229.710 837.792 217.589 837.792C207.199 837.792 169.104 837.792 128.411 836.926C137.069 854.242 145.727 881.082 148.325 895.801C208.065 896.667 243.563 894.935 266.074 884.545C289.450 875.022 297.242 857.706 297.242 820.476L297.242 571.991L414.126 536.494L406.333 477.619L297.242 508.788L297.242 338.225L405.468 338.225L405.468 277.619L297.242 277.619L297.242 102.727"/></svg>