<svg xmlns="http://www.w3.org/2000/svg" viewBox="0 0 1000 1000" fill="currentColor"><path d="M412.998 232.371L412.998 455.786C412.998 576.946 400.108 735.056 290.119 845.904C303.868 853.638 328.787 875.120 339.099 888.010C443.932 781.458 469.711 625.067 474.008 499.610L483.460 499.610C514.394 591.554 559.077 670.609 617.509 735.915C560.796 784.035 495.490 820.126 427.606 842.467C441.354 855.357 457.681 879.417 465.415 894.884C535.876 868.246 602.901 830.437 660.474 779.739C716.328 829.578 782.493 868.246 858.970 893.165C868.422 876.839 886.467 851.919 900.216 839.030C825.458 817.548 760.151 782.317 705.157 736.774C772.182 664.594 824.598 571.791 853.814 454.927L813.427 440.319L802.257 442.897L672.504 442.897L672.504 292.521L814.287 292.521C803.975 332.908 791.945 373.294 781.634 401.651L838.347 414.540C856.392 371.576 877.015 301.114 894.201 240.963L847.799 229.793L836.628 232.371L672.504 232.371L672.504 105.195L609.776 105.195L609.776 232.371M609.776 292.521L609.776 442.897L474.867 442.897L474.867 292.521M777.337 499.610C751.559 576.087 711.172 640.534 660.474 694.669C609.776 639.675 570.248 574.368 542.751 499.610M100.216 686.936L125.995 750.523C199.034 717.870 294.416 674.905 383.782 633.660L369.174 576.946L278.948 615.614L278.948 373.294L373.470 373.294L373.470 312.285L278.948 312.285L278.948 115.507L217.939 115.507L217.939 312.285L111.387 312.285L111.387 373.294L217.939 373.294L217.939 640.534C173.256 658.579 132.869 674.905 100.216 686.936"/></svg>