<svg xmlns="http://www.w3.org/2000/svg" viewBox="0 0 1000 1000" fill="currentColor"><path d="M469.696 491.017L778.182 491.017L778.182 570.072L469.696 570.072M469.696 362.983L778.182 362.983L778.182 441.178L469.696 441.178M215.346 105.195L215.346 894.884L276.356 894.884L276.356 105.195M139.728 271.039C134.573 338.063 120.824 433.445 100.201 491.876L150.899 509.062C170.663 444.615 184.411 344.938 187.849 277.054M289.245 255.571C309.868 315.722 330.491 395.636 338.224 442.038L385.485 423.133C377.752 378.450 355.410 301.973 333.928 242.682M407.827 311.425L407.827 621.629L594.293 621.629L594.293 695.528L354.551 695.528L354.551 753.101L594.293 753.101L594.293 895.743L657.881 895.743L657.881 753.101L900.201 753.101L900.201 695.528L657.881 695.528L657.881 621.629L841.769 621.629L841.769 311.425L657.021 311.425L657.021 234.089L891.608 234.089L891.608 178.235L657.021 178.235L657.021 105.195L593.434 105.195L593.434 311.425"/></svg>