<svg xmlns="http://www.w3.org/2000/svg" viewBox="0 0 1000 1000" fill="currentColor"><path d="M186.809 409.898C236.213 433.300 299.485 470.570 334.155 494.839L364.491 443.701C329.821 421.166 267.416 386.496 217.145 364.828M127.004 552.910C178.142 573.712 244.014 608.381 279.550 632.650L309.886 580.646C274.350 558.977 207.611 526.041 156.473 506.106M147.806 853.668L195.477 900.472C253.548 838.067 322.887 754.860 378.359 682.054L337.622 636.117C276.950 714.990 199.810 802.531 147.806 853.668M480.634 663.853L791.793 663.853L791.793 799.064L480.634 799.064M480.634 607.515L480.634 477.504L791.793 477.504L791.793 607.515M417.362 417.699L417.362 899.606L480.634 899.606L480.634 858.869L791.793 858.869L791.793 896.139L856.798 896.139L856.798 417.699L637.514 417.699L669.583 355.294L602.844 336.225C595.043 359.627 581.176 391.697 568.174 417.699M234.480 100.472C207.611 187.146 160.807 272.953 106.203 329.291C121.804 337.092 148.673 355.294 160.807 365.694C189.410 332.758 217.145 291.155 241.414 244.351L283.884 244.351C305.553 284.221 327.221 331.892 335.888 363.094L393.093 340.559C384.426 315.424 367.091 278.154 348.889 244.351L497.102 244.351L497.102 188.880L269.150 188.880C279.550 164.611 289.085 140.342 297.752 116.074M575.108 100.472C548.239 187.146 500.569 269.486 442.497 322.358C457.232 330.158 484.101 349.226 496.235 360.494C527.438 329.291 556.040 289.421 582.042 244.351L637.514 244.351C666.116 282.488 695.585 330.158 707.719 361.361L765.791 337.092C755.390 311.090 733.722 276.420 710.320 244.351L893.202 244.351L893.202 188.880L609.778 188.880C621.046 165.478 630.580 141.209 638.380 116.074"/></svg>