<svg xmlns="http://www.w3.org/2000/svg" viewBox="0 0 1000 1000" fill="currentColor"><path d="M339.200 371.998C383.451 402.367 434.644 444.015 472.822 478.722C371.304 532.518 259.373 571.564 151.781 594.124C163.928 608.874 179.547 636.640 185.620 653.993C233.343 642.714 281.933 628.831 329.655 611.477L329.655 899.547L394.731 899.547L394.731 854.427L781.716 854.427L781.716 899.547L847.659 899.547L847.659 535.989L502.323 535.989C646.358 458.766 772.171 351.174 843.321 212.345L799.937 185.447L788.657 188.918L481.499 188.918C502.323 164.623 521.412 139.460 537.898 114.297L463.278 99.547C412.085 182.844 313.169 279.156 170.870 345.967C186.488 357.247 207.312 380.675 216.857 396.293C299.286 353.777 367.833 302.584 424.232 248.787L747.009 248.787C695.816 325.143 620.328 390.219 533.560 444.883C492.779 409.308 435.512 365.924 389.525 334.688M781.716 794.557L394.731 794.557L394.731 595.859L781.716 595.859"/></svg>