<svg xmlns="http://www.w3.org/2000/svg" viewBox="0 0 1000 1000" fill="currentColor"><path d="M706.405 729.595C758.297 771.973 819.703 831.649 849.108 868.838L900.135 837.703C869 799.649 805.865 742.568 755.703 701.919M391.595 509.054L391.595 560.081L841.324 560.081L841.324 509.054M440.892 701.919C405.432 752.081 350.081 803.108 298.189 838.568C312.892 847.216 337.108 864.514 347.486 874.892C398.514 836.838 459.054 776.297 497.973 720.081M144.243 155.324C193.541 182.135 254.946 225.378 286.081 253.054L319.811 200.297C287.811 172.622 225.541 133.703 177.973 108.622M100.135 389.703C149.432 415.649 213.432 457.162 244.568 484.838L277.432 430.351C244.568 403.541 180.568 365.486 133 342.135M123.486 833.378L173.649 878.351C216.892 797.054 267.054 691.541 305.108 600.730L261 557.486C219.486 655.216 163.270 767.649 123.486 833.378M368.243 249.595L368.243 457.162L861.216 457.162L861.216 249.595L709.865 249.595L709.865 183L888.027 183L888.027 129.378L336.243 129.378L336.243 183L511.811 183L511.811 249.595M566.297 183L655.378 183L655.378 249.595L566.297 249.595M336.243 616.297L336.243 670.784L581 670.784L581 823C581 831.649 577.541 835.108 567.162 835.973C556.784 835.973 519.595 835.973 478.946 834.243C486.730 851.541 495.378 874.027 497.973 891.324C554.189 891.324 590.514 891.324 614.730 882.676C638.081 873.162 644.135 856.730 644.135 824.730L644.135 670.784L898.405 670.784L898.405 616.297M425.324 299.757L511.811 299.757L511.811 407L425.324 407M566.297 299.757L655.378 299.757L655.378 407L566.297 407M709.865 299.757L800.676 299.757L800.676 407L709.865 407"/></svg>