<svg xmlns="http://www.w3.org/2000/svg" viewBox="0 0 1000 1000" fill="currentColor"><path d="M213.144 496.172L436.763 496.172L436.763 568.978L213.144 568.978M213.144 376.562L436.763 376.562L436.763 447.635L213.144 447.635M119.536 689.455L119.536 747.527L290.284 747.527L290.284 896.606L353.556 896.606L353.556 747.527L523.437 747.527L523.437 689.455L353.556 689.455L353.556 619.249L497.434 619.249L497.434 325.425L353.556 325.425L353.556 256.086L521.703 256.086L521.703 197.147L353.556 197.147L353.556 100.073L290.284 100.073L290.284 197.147L129.070 197.147L129.070 256.086L290.284 256.086L290.284 325.425L154.206 325.425L154.206 619.249L290.284 619.249L290.284 689.455M816.394 408.632L816.394 555.977L628.312 555.977C630.912 523.908 631.779 492.705 631.779 463.236L631.779 408.632M816.394 349.693L631.779 349.693L631.779 201.481L816.394 201.481M569.374 142.543L569.374 463.236C569.374 590.647 558.973 750.993 447.164 862.803C461.898 869.737 487.900 887.938 498.301 900.073C575.441 822.933 608.377 718.057 622.245 615.782L816.394 615.782L816.394 816.866C816.394 829.867 811.194 834.200 799.060 834.200C786.059 835.067 744.455 835.067 699.385 834.200C708.919 851.535 717.586 881.004 721.053 897.472C784.325 898.339 822.462 897.472 847.597 886.205C870.999 874.937 879.666 855.002 879.666 817.732L879.666 142.543"/></svg>