<svg xmlns="http://www.w3.org/2000/svg" viewBox="0 0 1000 1000" fill="currentColor"><path d="M407.690 292.310C458.171 333.380 516.353 392.417 543.733 430.920L589.936 390.706C561.701 352.203 500.952 295.733 451.326 256.374M155.283 148.567L155.283 211.882L217.743 211.882C270.791 377.016 346.941 514.770 453.893 620.866C351.219 702.150 229.722 759.476 99.668 797.123C112.503 809.957 132.182 838.193 139.027 854.449C270.791 814.235 394.856 752.631 501.807 665.358C597.636 744.930 714 803.112 857.743 838.193C867.155 821.080 885.979 793.701 899.668 780.011C761.059 749.209 646.406 694.449 553.144 620.011C670.364 507.925 761.914 359.904 813.251 166.535L769.615 146L761.914 148.567M281.059 211.882L732.824 211.882C684.909 364.182 605.337 484.824 504.374 578.086C402.556 481.401 329.829 357.337 281.059 211.882"/></svg>