<svg xmlns="http://www.w3.org/2000/svg" viewBox="0 0 1000 1000" fill="currentColor"><path d="M622.838 106.568L569.216 130.784C635.811 222.459 754.297 315.865 852.892 364.297C863.270 347 884.027 322.784 899.595 309.811C800.135 270.027 683.378 186.135 622.838 106.568M346.946 114.351C298.514 204.297 203.378 276.081 99.595 319.324C114.297 331.432 137.649 355.649 148.027 368.622C185.216 350.459 222.405 327.973 257.865 302.892L257.865 359.108L407.486 359.108C380.676 445.595 321.865 507.865 161.865 540.730C174.838 553.703 191.270 579.649 197.324 595.216C375.486 551.973 442.081 472.405 471.486 359.108L673.865 359.108C667.811 455.973 660.892 495.757 648.784 507.865C642.730 514.784 634.081 515.649 619.378 515.649C605.541 515.649 563.162 515.649 520.784 511.324C530.297 527.757 538.081 551.108 538.946 568.405C583.054 570.135 625.432 571 647.054 569.270C672.135 567.541 688.568 562.351 702.405 546.784C723.162 525.162 731.811 468.946 737.865 327.108C738.730 319.324 739.595 301.162 739.595 301.162L259.595 301.162C321 255.324 375.486 199.108 410.081 133.378M193 627.216L193 859L742.189 859L742.189 892.730L807.919 892.730L807.919 628.081L742.189 628.081L742.189 797.595L530.297 797.595L530.297 585.703L464.568 585.703L464.568 797.595L258.730 797.595L258.730 627.216"/></svg>