<svg xmlns="http://www.w3.org/2000/svg" viewBox="0 0 1000 1000" fill="currentColor"><path d="M116.855 171.564C139.414 232.302 159.371 311.260 163.709 362.453L213.167 350.306C207.093 299.113 187.137 220.154 162.842 160.284M373.688 156.813C361.540 214.948 336.377 299.980 315.553 351.174L357.202 364.189C378.894 315.599 406.659 234.905 428.351 170.696M436.161 260.067L436.161 321.672L876.074 321.672L876.074 260.067M485.618 389.351C515.119 510.826 542.017 671.347 549.826 763.321L611.432 744.232C601.020 655.729 572.386 497.811 542.017 375.469M585.401 115.165C601.887 158.549 619.241 214.948 626.182 251.390L688.655 233.169C680.846 196.727 661.757 142.063 645.271 99.547M110.781 393.690L110.781 454.427L225.315 454.427C197.549 546.401 146.356 655.729 100.369 714.731C110.781 731.217 126.399 759.850 133.341 778.072C169.783 727.746 207.093 646.184 235.727 563.755L235.727 899.547L296.464 899.547L296.464 559.416C326.833 603.668 361.540 657.464 376.291 686.098L418.807 634.037C402.321 609.742 327.701 519.503 296.464 485.664L296.464 454.427L415.336 454.427L415.336 393.690L296.464 393.690L296.464 103.885L235.727 103.885L235.727 393.690M400.586 801.499L400.586 865.707L900.369 865.707L900.369 801.499L736.377 801.499C768.482 685.230 803.189 513.430 825.748 380.675L759.805 369.395C743.319 498.679 709.479 684.362 678.243 801.499"/></svg>