<svg xmlns="http://www.w3.org/2000/svg" viewBox="0 0 1000 1000" fill="currentColor"><path d="M235.200 307.955L235.200 348.428L422.068 348.428L422.068 307.955M217.977 390.624L217.977 431.098L422.068 431.098L422.068 390.624M571.906 390.624L571.906 431.098L782.886 431.098L782.886 390.624M571.906 307.955L571.906 348.428L763.080 348.428L763.080 307.955M269.646 455.210L269.646 537.018L118.085 537.018L118.085 590.409L252.423 590.409C216.255 667.912 156.836 744.553 100.001 784.166C112.057 793.638 130.141 812.583 139.614 826.362C185.254 789.333 232.617 729.053 269.646 664.467L269.646 878.030L329.926 878.030L329.926 674.801C363.510 704.941 403.984 743.692 422.068 763.498L457.375 718.719C438.429 701.496 360.927 640.355 329.926 618.827L329.926 590.409L465.125 590.409L465.125 537.018L329.926 537.018L329.926 455.210M641.659 455.210L641.659 537.018L488.376 537.018L488.376 590.409L607.213 590.409C567.601 667.051 503.876 741.970 442.735 780.721C455.652 791.055 473.736 810.861 483.209 824.639C540.905 783.305 599.463 710.969 641.659 634.327L641.659 878.030L702.800 878.030L702.800 640.355C742.412 716.997 798.386 785.888 858.666 824.639C868.139 810 887.084 788.471 900.001 777.277C833.693 741.970 769.969 667.912 732.079 590.409L880.195 590.409L880.195 537.018L702.800 537.018L702.800 455.210M134.447 219.257L134.447 371.679L193.004 371.679L193.004 264.037L465.125 264.037L465.125 455.210L528.849 455.210L528.849 264.037L805.276 264.037L805.276 371.679L865.555 371.679L865.555 219.257L528.849 219.257L528.849 170.172L813.887 170.172L813.887 121.087L184.393 121.087L184.393 170.172L465.125 170.172L465.125 219.257"/></svg>