<svg xmlns="http://www.w3.org/2000/svg" viewBox="0 0 1000 1000" fill="currentColor"><path d="M190.222 166.229C234.283 234.479 277.479 325.192 292.166 382.212L355.233 358.022C338.819 299.274 293.030 211.153 248.970 144.631M757.825 135.127C733.635 203.378 686.119 299.274 648.970 358.022L704.261 379.620C742.274 323.464 788.927 234.479 825.212 159.317M467.544 102.298L467.544 432.320L118.516 432.320L118.516 493.659L349.186 493.659C335.363 657.806 302.533 780.484 100.374 841.823C115.060 854.782 134.067 880.700 140.978 897.114C358.689 825.408 401.886 683.724 417.436 493.659L578.127 493.659L578.127 800.354C578.127 874.652 598.862 895.387 676.616 895.387C692.166 895.387 784.607 895.387 801.886 895.387C875.320 895.387 892.598 858.238 900.374 716.553C882.231 711.369 854.585 700.138 839.898 688.907C836.443 813.313 831.259 834.048 796.702 834.048C775.968 834.048 699.942 834.048 683.527 834.048C649.834 834.048 642.922 828.864 642.922 800.354L642.922 493.659L890.006 493.659L890.006 432.320L533.203 432.320L533.203 102.298"/></svg>