<svg xmlns="http://www.w3.org/2000/svg" viewBox="0 0 1000 1000" fill="currentColor"><path d="M540.055 574.757C582.618 594.735 629.523 619.925 674.692 645.115L674.692 897.884L737.232 897.884L737.232 681.597C782.401 709.393 823.226 735.452 851.890 758.036L885.767 702.444C850.153 675.517 795.430 642.509 737.232 610.370L737.232 435.777L899.664 435.777L899.664 374.105L521.814 374.105L521.814 231.651C640.815 214.279 769.371 186.483 860.577 153.476L803.248 103.096C724.203 134.366 581.749 164.768 458.405 183.877L458.405 429.697C458.405 558.253 449.719 735.452 360.251 859.664C375.017 866.613 402.813 885.723 413.237 897.884C506.179 767.591 521.814 572.151 521.814 435.777L674.692 435.777L674.692 577.363C639.078 559.122 603.465 542.618 571.326 527.851M226.483 102.227L226.483 276.820L111.825 276.820L111.825 340.229L226.483 340.229L226.483 526.983C178.709 541.749 134.409 553.910 99.664 563.465L117.037 630.349L226.483 595.604L226.483 818.839C226.483 831 222.140 834.474 211.717 834.474C201.293 835.343 167.417 835.343 130.066 834.474C138.752 852.716 147.439 880.511 149.176 896.147C204.768 897.015 238.644 894.409 259.491 883.986C281.206 873.562 289.893 855.321 289.893 818.839L289.893 574.757L394.996 540.881L386.309 477.471L289.893 507.004L289.893 340.229L396.733 340.229L396.733 276.820L289.893 276.820L289.893 102.227"/></svg>