<svg xmlns="http://www.w3.org/2000/svg" viewBox="0 0 1000 1000" fill="currentColor"><path d="M360.909 353.556L512.353 353.556L512.353 422.005L360.909 422.005M360.909 241.471L512.353 241.471L512.353 308.209L360.909 308.209M124.759 152.487C167.540 183.289 218.021 229.492 243.690 261.150L283.048 219.225C257.380 188.422 204.332 145.642 161.551 115.695M99.947 389.492C141.016 416.016 193.209 455.374 218.021 481.043L256.524 437.406C230 411.738 176.952 374.091 135.882 350.134M109.358 847.246L161.551 880.615C196.631 803.610 238.556 700.080 268.503 612.807L223.155 580.294C189.786 673.556 142.727 782.219 109.358 847.246M662.086 105.428C646.684 238.904 617.594 368.102 567.968 455.374L567.968 193.556L449.893 193.556L479.840 114.840L413.102 105.428C408.824 131.096 398.556 165.321 390 193.556L307.861 193.556L307.861 469.920L561.979 469.920C574.813 480.187 595.348 502.433 603.904 511.845C617.594 489.599 630.428 463.930 642.406 436.551C655.241 517.834 675.775 605.107 710 685.535C674.920 754.840 628.717 811.310 565.401 854.947C578.235 864.358 600.481 884.893 608.182 894.305C662.086 852.380 704.866 803.610 738.235 745.428C769.037 801.898 808.396 853.235 858.877 892.594C867.433 877.193 887.968 852.380 899.947 841.257C844.332 801.898 801.551 747.139 769.037 684.679C811.818 587.995 836.631 469.920 852.032 329.599L891.390 329.599L891.390 270.561L692.888 270.561C704.011 220.936 713.422 167.888 720.267 114.840M383.155 487.888L403.690 534.947L272.781 534.947L272.781 588.850L357.487 588.850L357.487 619.652C357.487 682.112 345.508 782.219 239.412 856.658C253.957 866.925 273.636 883.182 283.904 894.305C365.187 835.267 395.989 761.684 406.257 695.802L505.508 695.802C501.230 779.652 496.096 813.021 487.540 822.433C482.406 828.422 476.417 830.134 465.294 830.134C455.027 830.134 426.791 829.278 395.989 826.711C404.545 840.401 409.679 862.647 411.390 879.759C443.048 881.471 475.561 880.615 492.674 879.759C511.497 878.048 525.187 872.914 537.166 859.225C552.567 840.401 557.701 791.631 563.690 666.711C564.545 659.011 564.545 642.754 564.545 642.754L412.246 642.754L412.246 621.364L412.246 588.850L593.636 588.850L593.636 534.947L465.294 534.947C457.594 515.267 447.326 492.166 437.059 474.198M796.417 329.599C785.294 439.118 768.182 534.947 739.091 616.230C704.866 527.246 686.043 429.706 674.920 340.722L678.342 329.599"/></svg>