<svg xmlns="http://www.w3.org/2000/svg" viewBox="0 0 1000 1000" fill="currentColor"><path d="M439.284 182.950L439.284 418.118L337.873 461.829L364.100 520.403L439.284 488.056L439.284 767.810C439.284 862.227 468.134 885.831 566.922 885.831C588.778 885.831 752.259 885.831 776.737 885.831C866.783 885.831 886.890 847.365 897.381 726.721C879.022 724.098 853.670 713.608 837.933 702.243C831.814 802.779 823.072 826.383 774.115 826.383C740.020 826.383 597.520 826.383 569.545 826.383C512.720 826.383 502.229 816.767 502.229 769.558L502.229 460.955L615.005 411.998L615.005 709.237L676.201 709.237L676.201 385.771L795.970 334.192C795.970 475.817 794.222 574.605 789.851 594.712C785.480 614.820 776.737 619.191 763.624 619.191C754.007 619.191 725.158 619.191 705.050 617.442C712.918 632.304 718.164 656.783 719.912 674.267C744.391 674.267 779.360 673.393 802.090 668.148C828.317 662.028 844.927 645.418 850.173 610.448C856.292 576.353 858.041 445.219 858.041 280.863L861.538 268.624L815.203 251.140L803.838 260.756L798.593 265.127L676.201 317.581L676.201 99.898L615.005 99.898L615.005 343.808L502.229 391.891L502.229 182.950M118.442 335.066C118.442 418.118 114.945 524.774 109.699 591.215L289.791 591.215C281.923 750.325 271.432 813.270 256.570 829.006C248.702 837.748 239.960 838.623 225.972 838.623C209.362 838.623 167.398 838.623 123.687 834.252C135.052 851.736 142.920 877.963 143.794 898.070C186.632 899.819 229.469 900.693 251.325 898.945C276.677 896.322 292.413 891.077 307.275 872.718C331.754 845.617 342.245 767.810 352.735 561.492C353.610 552.749 353.610 533.516 353.610 533.516L170.895 533.516L175.267 395.388L352.735 395.388L352.735 142.735L102.705 142.735L102.705 202.183L290.665 202.183L290.665 335.066"/></svg>