<svg xmlns="http://www.w3.org/2000/svg" viewBox="0 0 1000 1000" fill="currentColor"><path d="M209.184 247.127C243.967 313.125 278.749 399.635 291.235 453.147L354.557 430.851C342.071 379.123 305.505 293.504 269.831 229.290M727.356 224.831C705.059 289.936 664.033 380.906 630.143 437.094L688.114 455.823C722.896 402.311 764.814 316.692 797.813 244.452M100.377 498.632L100.377 565.522L463.365 565.522L463.365 879.457L532.930 879.457L532.930 565.522L900.377 565.522L900.377 498.632L532.930 498.632L532.930 186.480L850.433 186.480L850.433 119.591L147.645 119.591L147.645 186.480L463.365 186.480L463.365 498.632"/></svg>