<svg width="110" height="110" version="1.1" xmlns="http://www.w3.org/2000/svg" desc="Created with imagetracer.js version 1.2.6" ><path fill="rgb(115,115,115)" stroke="rgb(115,115,115)" stroke-width="1" opacity="1" d="M 52.5 14 L 58 14.5 L 52.5 15 L 52.5 14 Z " /><path fill="rgb(115,115,115)" stroke="rgb(115,115,115)" stroke-width="1" opacity="1" d="M 60.5 15 L 63 15.5 L 60.5 16 L 60.5 15 Z " /><path fill="rgb(115,115,115)" stroke="rgb(115,115,115)" stroke-width="1" opacity="1" d="M 64.5 16 L 67 16.5 L 64.5 17 L 64.5 16 Z " /><path fill="rgb(115,115,115)" stroke="rgb(115,115,115)" stroke-width="1" opacity="1" d="M 68.5 17 L 71 17.5 L 68.5 18 L 68.5 17 Z " /><path fill="rgb(115,115,115)" stroke="rgb(115,115,115)" stroke-width="1" opacity="1" d="M 72.5 18 L 76 19.5 L 74.5 20 L 72.5 18 Z " /><path fill="rgb(115,115,115)" stroke="rgb(115,115,115)" stroke-width="1" opacity="1" d="M 29.5 19 L 31 19.5 Q 24.9 20.4 22 24.5 L 19.5 28 L 16.5 29 L 16.5 28 L 21 25.5 L 24.5 21 L 29.5 19 Z " /><path fill="rgb(115,115,115)" stroke="rgb(115,115,115)" stroke-width="1" opacity="1" d="M 55.5 24 L 57 24.5 L 53.5 26 L 53.5 25 L 55.5 24 Z " /><path fill="rgb(115,115,115)" stroke="rgb(115,115,115)" stroke-width="1" opacity="1" d="M 59.5 24 L 62 24.5 L 59.5 25 L 59.5 24 Z " /><path fill="rgb(115,115,115)" stroke="rgb(115,115,115)" stroke-width="1" opacity="1" d="M 86.5 24 L 91 27.5 L 88.5 26 L 86.5 24 Z " /><path fill="rgb(115,115,115)" stroke="rgb(115,115,115)" stroke-width="1" opacity="1" d="M 63.5 25 L 71 25.5 L 63.5 26 L 63.5 25 Z " /><path fill="rgb(115,115,115)" stroke="rgb(115,115,115)" stroke-width="1" opacity="1" d="M 72.5 26 L 75 26.5 L 72.5 27 L 72.5 26 Z " /><path fill="rgb(115,115,115)" stroke="rgb(115,115,115)" stroke-width="1" opacity="1" d="M 76.5 27 L 86 38.5 L 83 36.5 L 76.5 27 Z " /><path fill="rgb(115,115,115)" stroke="rgb(115,115,115)" stroke-width="1" opacity="1" d="M 92.5 28 L 99 35.5 L 96 33.5 L 92.5 28 Z " /><path fill="rgb(115,115,115)" stroke="rgb(115,115,115)" stroke-width="1" opacity="1" d="M 41.5 29 L 43 29.5 Q 37 30.5 34.5 35 L 38.5 30 L 41.5 29 Z " /><path fill="rgb(115,115,115)" stroke="rgb(115,115,115)" stroke-width="1" opacity="1" d="M 12.5 30 L 13 31.5 L 11 32.5 L 12.5 30 Z " /><path fill="rgb(115,115,115)" stroke="rgb(115,115,115)" stroke-width="1" opacity="1" d="M 32.5 35 L 31.5 37 L 32.5 35 Z " /><path fill="rgb(115,115,115)" stroke="rgb(115,115,115)" stroke-width="1" opacity="1" d="M 9.5 36 L 9 37.5 L 8.5 39 L 8 37.5 L 9.5 36 Z " /><path fill="rgb(115,115,115)" stroke="rgb(115,115,115)" stroke-width="1" opacity="1" d="M 99.5 37 L 101 39.5 L 100 39.5 L 99.5 37 Z " /><path fill="rgb(115,115,115)" stroke="rgb(115,115,115)" stroke-width="1" opacity="1" d="M 7.5 40 L 8 46.5 L 7 46.5 L 7.5 40 Z " /><path fill="rgb(115,115,115)" stroke="rgb(115,115,115)" stroke-width="1" opacity="1" d="M 86.5 40 L 88.5 43 L 86.5 40 Z " /><path fill="rgb(115,115,115)" stroke="rgb(115,115,115)" stroke-width="1" opacity="1" d="M 89.5 44 L 90.5 46 L 89.5 44 Z " /><path fill="rgb(115,115,115)" stroke="rgb(115,115,115)" stroke-width="1" opacity="1" d="M 22.5 46 L 23 48.5 L 20.5 53 L 20 51.5 L 22.5 46 Z " /><path fill="rgb(115,115,115)" stroke="rgb(115,115,115)" stroke-width="1" opacity="1" d="M 103.5 46 L 104 51.5 L 103 51.5 L 103.5 46 Z " /><path fill="rgb(115,115,115)" stroke="rgb(115,115,115)" stroke-width="1" opacity="1" d="M 90.5 48 L 91 51.5 L 90 51.5 L 90.5 48 Z " /><path fill="rgb(115,115,115)" stroke="rgb(115,115,115)" stroke-width="1" opacity="1" d="M 6.5 50 L 7 58.5 L 6 58.5 L 6.5 50 Z " /><path fill="rgb(115,115,115)" stroke="rgb(115,115,115)" stroke-width="1" opacity="1" d="M 55.5 52 L 58 52.5 L 55.5 53 L 55.5 52 Z " /><path fill="rgb(115,115,115)" stroke="rgb(115,115,115)" stroke-width="1" opacity="1" d="M 19.5 54 L 20 56.5 L 19 56.5 L 19.5 54 Z " /><path fill="rgb(115,115,115)" stroke="rgb(115,115,115)" stroke-width="1" opacity="1" d="M 89.5 54 L 90 57.5 L 89 57.5 L 89.5 54 Z " /><path fill="rgb(115,115,115)" stroke="rgb(115,115,115)" stroke-width="1" opacity="1" d="M 65.5 55 L 66.5 57 L 65.5 55 Z " /><path fill="rgb(115,115,115)" stroke="rgb(115,115,115)" stroke-width="1" opacity="1" d="M 104.5 55 L 105 62.5 L 104 62.5 L 104.5 55 Z " /><path fill="rgb(115,115,115)" stroke="rgb(115,115,115)" stroke-width="1" opacity="1" d="M 50.5 57 L 56 63.5 L 50 58.5 L 50.5 57 Z " /><path fill="rgb(115,115,115)" stroke="rgb(115,115,115)" stroke-width="1" opacity="1" d="M 67.5 58 L 68 61.5 L 66 62.5 L 67.5 58 Z " /><path fill="rgb(115,115,115)" stroke="rgb(115,115,115)" stroke-width="1" opacity="1" d="M 20.5 59 L 21 62.5 L 20 62.5 L 20.5 59 Z " /><path fill="rgb(115,115,115)" stroke="rgb(115,115,115)" stroke-width="1" opacity="1" d="M 88.5 60 L 89 63.5 L 88 63.5 L 88.5 60 Z " /><path fill="rgb(115,115,115)" stroke="rgb(115,115,115)" stroke-width="1" opacity="1" d="M 64.5 63 L 63.5 65 L 62 64.5 L 64.5 63 Z " /><path fill="rgb(115,115,115)" stroke="rgb(115,115,115)" stroke-width="1" opacity="1" d="M 104.5 64 L 105 66.5 L 104 66.5 L 104.5 64 Z " /><path fill="rgb(115,115,115)" stroke="rgb(115,115,115)" stroke-width="1" opacity="1" d="M 21.5 65 L 22 69.5 L 21 69.5 L 21.5 65 Z " /><path fill="rgb(115,115,115)" stroke="rgb(115,115,115)" stroke-width="1" opacity="1" d="M 87.5 66 L 88 69.5 L 86 70.5 L 87.5 66 Z " /><path fill="rgb(115,115,115)" stroke="rgb(115,115,115)" stroke-width="1" opacity="1" d="M 6.5 70 L 8 75.5 L 7 75.5 L 6.5 70 Z " /><path fill="rgb(115,115,115)" stroke="rgb(115,115,115)" stroke-width="1" opacity="1" d="M 22.5 72 Q 22.3 76.3 25 77.5 L 22 75.5 L 22.5 72 Z " /><path fill="rgb(115,115,115)" stroke="rgb(115,115,115)" stroke-width="1" opacity="1" d="M 85.5 72 L 80 78.5 L 76.5 83 L 74 82.5 L 79 79.5 L 85.5 72 Z " /><path fill="rgb(115,115,115)" stroke="rgb(115,115,115)" stroke-width="1" opacity="1" d="M 95 75 L 98 75.5 L 96 76.5 L 97 78.5 L 96 78.5 L 95 75 Z " /><path fill="rgb(115,115,115)" stroke="rgb(115,115,115)" stroke-width="1" opacity="1" d="M 10.5 78 L 14 79.5 L 12.5 80 L 10.5 78 Z " /><path fill="rgb(115,115,115)" stroke="rgb(115,115,115)" stroke-width="1" opacity="1" d="M 26.5 78 L 28.5 81 L 26.5 78 Z " /><path fill="rgb(115,115,115)" stroke="rgb(115,115,115)" stroke-width="1" opacity="1" d="M 15.5 80 L 17.5 83 L 15.5 80 Z " /><path fill="rgb(115,115,115)" stroke="rgb(115,115,115)" stroke-width="1" opacity="1" d="M 30.5 81 L 39 86.5 L 36.5 87 L 30.5 81 Z " /><path fill="rgb(115,115,115)" stroke="rgb(115,115,115)" stroke-width="1" opacity="1" d="M 68.5 83 L 72 83.5 L 68.5 84 L 68.5 83 Z " /><path fill="rgb(115,115,115)" stroke="rgb(115,115,115)" stroke-width="1" opacity="1" d="M 94.5 83 L 88.5 90 L 94.5 83 Z " /><path fill="rgb(115,115,115)" stroke="rgb(115,115,115)" stroke-width="1" opacity="1" d="M 18.5 84 L 20.5 87 L 18.5 84 Z " /><path fill="rgb(115,115,115)" stroke="rgb(115,115,115)" stroke-width="1" opacity="1" d="M 62.5 84 L 66 84.5 L 62.5 85 L 62.5 84 Z " /><path fill="rgb(115,115,115)" stroke="rgb(115,115,115)" stroke-width="1" opacity="1" d="M 57.5 85 L 61 85.5 L 57.5 86 L 57.5 85 Z " /><path fill="rgb(115,115,115)" stroke="rgb(115,115,115)" stroke-width="1" opacity="1" d="M 51.5 86 L 55 86.5 L 51.5 87 L 51.5 86 Z " /><path fill="rgb(115,115,115)" stroke="rgb(115,115,115)" stroke-width="1" opacity="1" d="M 41.5 87 L 50 87.5 L 41.5 88 L 41.5 87 Z " /><path fill="rgb(115,115,115)" stroke="rgb(115,115,115)" stroke-width="1" opacity="1" d="M 25.5 88 L 31 88.5 L 25.5 89 L 25.5 88 Z " /><path fill="rgb(115,115,115)" stroke="rgb(115,115,115)" stroke-width="1" opacity="1" d="M 33.5 89 L 39 92.5 L 36.5 91 Q 32.8 90.8 33.5 89 Z " /><path fill="rgb(115,115,115)" stroke="rgb(115,115,115)" stroke-width="1" opacity="1" d="M 86.5 90 L 83.5 94 L 82 93.5 L 86.5 90 Z " /><path fill="rgb(115,115,115)" stroke="rgb(115,115,115)" stroke-width="1" opacity="1" d="M 42.5 94 L 47 96.5 L 45.5 97 L 42.5 94 Z " /><path fill="rgb(115,115,115)" stroke="rgb(115,115,115)" stroke-width="1" opacity="1" d="M 70.5 94 L 78 94.5 L 70.5 95 L 70.5 94 Z " /><path fill="rgb(115,115,115)" stroke="rgb(115,115,115)" stroke-width="1" opacity="1" d="M 59.5 95 L 67 95.5 L 59.5 96 L 59.5 95 Z " /><path fill="rgb(115,115,115)" stroke="rgb(115,115,115)" stroke-width="1" opacity="1" d="M 48.5 96 L 56 96.5 L 48.5 97 L 48.5 96 Z " /><path fill="rgb(0,0,0)" stroke="rgb(0,0,0)" stroke-width="1" opacity="0" d="M 0 0 L 110 0 L 110 110 L 0 110 L 0 0 Z M 45 14 L 25 21 L 21 26 L 12 30 L 7 41 L 7 50 L 6 51 L 6 74 L 8 78 L 15 80 L 18 85 Q 22 90 33 89 L 46 97 L 56 97 L 57 96 L 84 94 L 97 82 L 96 77 L 102 75 L 105 67 L 104 47 L 97 33 Q 80 14 45 14 Z " /><path fill="rgb(0,0,0)" stroke="rgb(0,0,0)" stroke-width="1" opacity="0" d="M 57.5 24 L 63.5 26 L 75.5 27 L 80 31.5 L 91 47.5 L 87 69.5 L 76.5 82 L 50.5 87 L 39.5 87 L 23 75.5 L 20 53.5 L 23 46.5 L 20 41.5 L 31.5 37 L 38.5 31 L 57.5 24 Z M 56 52 L 53 54 Q 48 53 50 59 Q 53 64 61 66 L 68 62 L 67 57 Q 63 52 56 52 Z " /><path fill="rgb(0,0,0)" stroke="rgb(0,0,0)" stroke-width="1" opacity="1" d="M 46.5 14 L 59.5 15 L 71.5 18 L 85.5 24 L 96 32.5 L 103 45.5 L 104 62.5 L 105 63.5 L 102 74 L 95 75 L 97 79.5 L 96 83 L 81.5 94 L 70.5 94 L 69.5 95 L 59.5 95 L 58.5 96 L 48.5 96 L 47.5 97 L 34.5 89 L 24.5 88 L 18 83.5 L 15.5 80 L 8 76.5 L 6 69.5 L 6 59.5 L 7 58.5 L 8 39.5 L 13 30 Q 19.1 29.7 22 25.5 L 24.5 22 L 46.5 14 Z M 56 24 L 39 30 L 31 37 L 19 41 L 22 46 L 22 49 L 19 55 L 22 76 L 37 87 L 42 88 L 50 88 L 56 86 L 77 83 L 88 70 L 90 53 L 91 52 L 91 46 L 81 32 L 75 26 L 56 24 Z " /><path fill="rgb(0,0,0)" stroke="rgb(0,0,0)" stroke-width="1" opacity="1" d="M 54.5 53 Q 63.5 52.5 67 57.5 Q 68 62 65.5 63 L 59.5 65 Q 53.4 63.6 51 58.5 L 50 55 L 54.5 53 Z " /></svg>