<svg width="110" height="110" version="1.1" xmlns="http://www.w3.org/2000/svg" desc="Created with imagetracer.js version 1.2.6" ><path fill="rgb(127,127,127)" stroke="rgb(127,127,127)" stroke-width="1" opacity="1" d="M 26.5 23 L 85.5 23 Q 88.7 26.3 95.5 26 L 100 29 L 101 32.5 L 99 31.5 L 96.5 28 L 80.5 24 L 35.5 24 L 34.5 25 L 20.5 26 L 20.5 25 Q 25.5 26 26.5 23 Z " /><path fill="rgb(127,127,127)" stroke="rgb(127,127,127)" stroke-width="1" opacity="1" d="M 16.5 26 L 19 26.5 L 15 28.5 L 13.5 32 L 13 30.5 L 16.5 26 Z " /><path fill="rgb(127,127,127)" stroke="rgb(127,127,127)" stroke-width="1" opacity="1" d="M 44.5 31 L 74 31.5 L 44.5 32 L 44.5 31 Z " /><path fill="rgb(127,127,127)" stroke="rgb(127,127,127)" stroke-width="1" opacity="1" d="M 34.5 32 L 43 32.5 L 24.5 35 L 22 37.5 L 23 42.5 L 26.5 48 L 58 48.5 L 26.5 50 Q 21.5 45.5 21 36.5 L 23.5 34 L 34.5 32 Z " /><path fill="rgb(127,127,127)" stroke="rgb(127,127,127)" stroke-width="1" opacity="1" d="M 75.5 32 L 84.5 33 L 86 34.5 L 86 38.5 L 83.5 44 L 83 41.5 Q 85.6 40.1 85 35.5 L 83.5 34 L 75.5 33 L 75.5 32 Z " /><path fill="rgb(127,127,127)" stroke="rgb(127,127,127)" stroke-width="1" opacity="1" d="M 11 33 L 13 33.5 Q 10.5 35 12 40.5 L 12.5 42 L 11 40.5 L 11 33 Z " /><path fill="rgb(127,127,127)" stroke="rgb(127,127,127)" stroke-width="1" opacity="1" d="M 100.5 34 L 99 36.5 L 94.5 43 L 95 41.5 L 100.5 34 Z " /><path fill="rgb(127,127,127)" stroke="rgb(127,127,127)" stroke-width="1" opacity="1" d="M 13.5 43 L 20 57.5 L 20 73.5 L 17.5 80 L 17 78.5 L 19 73.5 L 19 58.5 L 13 44.5 L 13.5 43 Z " /><path fill="rgb(127,127,127)" stroke="rgb(127,127,127)" stroke-width="1" opacity="1" d="M 93.5 44 L 94 45.5 Q 91.2 47.3 93 53.5 L 91 56.5 L 91 76.5 Q 94 78.5 93 84.5 L 89 87.5 Q 93 85.5 91 77.5 L 90 76.5 L 90 55.5 L 93.5 44 Z " /><path fill="rgb(127,127,127)" stroke="rgb(127,127,127)" stroke-width="1" opacity="1" d="M 82.5 45 L 83 48 L 74 47.5 L 82 47 L 82.5 45 Z " /><path fill="rgb(127,127,127)" stroke="rgb(127,127,127)" stroke-width="1" opacity="1" d="M 40.5 57 L 74.5 57 L 81 59.5 L 78 76 L 56.5 76 L 42.5 79 L 35.5 79 L 30.5 81 L 31.5 79 L 42.5 78 L 55.5 75 L 77 75 L 80 59 L 74.5 58 L 40.5 58 L 28 63.5 L 27.5 73 L 27 63.5 L 31.5 60 L 34.5 60 L 40.5 57 Z " /><path fill="rgb(127,127,127)" stroke="rgb(127,127,127)" stroke-width="1" opacity="1" d="M 27.5 74 L 28 75.5 L 26.5 80 L 26 76.5 L 27.5 74 Z " /><path fill="rgb(127,127,127)" stroke="rgb(127,127,127)" stroke-width="1" opacity="1" d="M 16.5 82 L 17 84.5 L 16 87.5 L 17 91.5 L 16 91.5 L 15 85.5 L 16.5 82 Z " /><path fill="rgb(127,127,127)" stroke="rgb(127,127,127)" stroke-width="1" opacity="1" d="M 46.5 85 L 65.5 85 L 78 87.5 L 74.5 88 L 64.5 86 L 47.5 86 L 41.5 88 L 42.5 86 L 46.5 85 Z " /><path fill="rgb(127,127,127)" stroke="rgb(127,127,127)" stroke-width="1" opacity="1" d="M 34.5 88 L 36.5 88 L 38 88.5 L 22.5 95 L 22.5 94 L 34.5 88 Z " /><path fill="rgb(127,127,127)" stroke="rgb(127,127,127)" stroke-width="1" opacity="1" d="M 79.5 88 L 85.5 89 L 87.5 88 L 86.5 90 Q 80 91 79.5 88 Z " /><path fill="rgb(127,127,127)" stroke="rgb(127,127,127)" stroke-width="1" opacity="1" d="M 17.5 93 L 18.5 95 L 17.5 93 Z " /><path fill="rgb(0,0,0)" stroke="rgb(0,0,0)" stroke-width="1" opacity="0" d="M 0 0 L 110 0 L 110 110 L 0 110 L 0 0 Z M 27 23 L 25 25 L 17 26 L 13 31 Q 14 34 11 33 L 11 41 L 13 43 L 19 59 L 19 74 L 15 86 Q 15 92 19 95 L 24 95 L 39 88 L 48 86 L 74 87 L 82 90 L 87 90 L 93 85 Q 94 79 91 77 L 91 57 Q 94 54 93 47 L 101 35 L 100 29 L 96 26 Q 89 26 86 23 L 27 23 Z " /><path fill="rgb(0,0,0)" stroke="rgb(0,0,0)" stroke-width="1" opacity="0" d="M 43.5 32 L 74.5 32 L 83.5 34 L 85 35.5 L 82 47 L 74.5 47 L 73.5 48 L 26.5 48 L 23 42.5 L 22 37.5 L 24.5 35 L 34.5 33 L 42.5 33 L 43.5 32 Z " /><path fill="rgb(0,0,0)" stroke="rgb(0,0,0)" stroke-width="1" opacity="0" d="M 40.5 58 L 74.5 58 L 80 59 L 77 75 L 55.5 75 L 42.5 78 L 35.5 78 L 27 81 L 28 75.5 L 28 63.5 L 29.5 62 L 40.5 58 Z " /><path fill="rgb(0,0,0)" stroke="rgb(0,0,0)" stroke-width="1" opacity="1" d="M 35.5 24 L 80.5 24 L 94.5 27 L 99 30.5 L 101 33.5 L 92 46.5 L 90 55.5 L 90 76.5 L 91 77.5 L 91 85.5 Q 88.7 89.7 81.5 89 L 77.5 87 L 66.5 86 L 65.5 85 L 46.5 85 L 35.5 89 Q 34 86.5 32.5 90 L 19.5 95 L 17 92.5 L 16 85.5 L 20 73.5 L 20 57.5 Q 17.7 47.3 12 40.5 L 12 34.5 L 16.5 27 L 25.5 25 L 34.5 25 L 35.5 24 Z M 45 31 L 44 32 L 35 32 L 24 34 L 21 37 Q 22 45 27 50 L 58 49 L 59 48 L 83 48 Q 82 42 86 39 L 86 35 L 85 33 L 74 31 L 45 31 Z M 41 57 L 35 60 L 32 60 L 27 64 L 27 73 L 28 74 L 26 77 Q 25 80 28 81 L 57 76 L 78 76 L 81 60 L 75 57 L 41 57 Z " /></svg>