<svg width="110" height="110" version="1.1" xmlns="http://www.w3.org/2000/svg" desc="Created with imagetracer.js version 1.2.6" ><path fill="rgb(0,0,0)" stroke="rgb(0,0,0)" stroke-width="1" opacity="0" d="M 0 0 L 110 0 L 110 110 L 0 110 L 0 0 Z M 47 13 L 42 15 L 25 15 L 19 18 L 12 30 L 8 42 L 8 60 L 7 61 L 7 75 L 6 76 L 6 78 L 15 87 L 15 88 L 24 91 L 42 95 L 61 96 L 62 97 L 84 97 L 104 88 L 104 78 L 105 77 L 105 60 L 106 59 L 105 35 L 101 26 L 93 18 L 88 18 L 80 15 L 47 13 Z " /><path fill="rgb(0,0,0)" stroke="rgb(0,0,0)" stroke-width="1" opacity="0" d="M 49.5 23 L 77.5 24 L 86.5 26 L 92 29.5 L 97 41.5 L 97 61.5 L 96 62.5 L 94 79.5 L 91.5 82 L 76.5 87 L 55.5 87 L 54.5 86 L 34.5 84 L 21.5 80 L 18 77.5 Q 12.9 70.6 15 56.5 Q 19 47.5 19 34.5 L 22.5 30 L 27.5 26 L 38.5 24 L 48.5 24 L 49.5 23 Z M 38 51 L 36 55 L 37 57 L 42 60 L 56 61 L 57 62 L 59 61 L 71 61 L 72 62 Q 77 63 79 60 Q 81 61 80 55 L 76 51 L 38 51 Z " /><path fill="rgb(22,22,22)" stroke="rgb(22,22,22)" stroke-width="1" opacity="1" d="M 46.5 13 L 79.5 15 L 87.5 18 L 92.5 18 L 101 25.5 L 105 34.5 L 106 58.5 L 105 59.5 L 105 76.5 L 104 77.5 L 104 88 L 83.5 97 L 61.5 97 L 60.5 96 L 41.5 95 L 23.5 91 L 15 88 L 15 86.5 L 6 77.5 L 6 75.5 L 7 74.5 L 7 60.5 L 8 59.5 L 8 41.5 L 12 29.5 L 19 18 L 24.5 15 L 41.5 15 L 46.5 13 Z M 50 23 L 49 24 L 39 24 L 28 26 L 23 30 L 19 35 Q 19 48 15 57 Q 13 71 18 78 L 22 80 L 35 84 L 55 86 L 56 87 L 77 87 L 92 82 L 94 80 L 96 63 L 97 62 L 97 42 L 92 30 L 87 26 L 78 24 L 50 23 Z " /><path fill="rgb(22,22,22)" stroke="rgb(22,22,22)" stroke-width="1" opacity="1" d="M 38 51 L 75.5 51 L 80 54.5 Q 81.3 60.6 78.5 60 Q 77.3 63.3 71.5 62 L 70.5 61 L 58.5 61 L 56.5 62 L 55.5 61 L 41.5 60 L 37 56.5 L 36 54.5 L 38 51 Z " /></svg>