<svg width="110" height="110" version="1.1" xmlns="http://www.w3.org/2000/svg" desc="Created with imagetracer.js version 1.2.6" ><path fill="rgb(53,53,53)" stroke="rgb(53,53,53)" stroke-width="1" opacity="1" d="M 62.5 11 L 65 11.5 L 62.5 12 L 62.5 11 Z " /><path fill="rgb(53,53,53)" stroke="rgb(53,53,53)" stroke-width="1" opacity="1" d="M 82.5 11 L 83.5 13 L 82.5 11 Z " /><path fill="rgb(53,53,53)" stroke="rgb(53,53,53)" stroke-width="1" opacity="1" d="M 57.5 12 L 60 12.5 L 57.5 13 L 57.5 12 Z " /><path fill="rgb(53,53,53)" stroke="rgb(53,53,53)" stroke-width="1" opacity="1" d="M 52.5 13 L 55 13.5 L 52.5 14 L 52.5 13 Z " /><path fill="rgb(53,53,53)" stroke="rgb(53,53,53)" stroke-width="1" opacity="1" d="M 85.5 13 L 87.5 16 L 85.5 13 Z " /><path fill="rgb(53,53,53)" stroke="rgb(53,53,53)" stroke-width="1" opacity="1" d="M 47.5 14 L 51 14.5 L 47.5 15 L 47.5 14 Z " /><path fill="rgb(53,53,53)" stroke="rgb(53,53,53)" stroke-width="1" opacity="1" d="M 42.5 15 L 46 15.5 L 42.5 16 L 42.5 15 Z " /><path fill="rgb(53,53,53)" stroke="rgb(53,53,53)" stroke-width="1" opacity="1" d="M 27.5 16 L 30 16.5 L 27.5 17 L 27.5 16 Z " /><path fill="rgb(53,53,53)" stroke="rgb(53,53,53)" stroke-width="1" opacity="1" d="M 36.5 16 L 40 16.5 L 36.5 17 L 36.5 16 Z " /><path fill="rgb(53,53,53)" stroke="rgb(53,53,53)" stroke-width="1" opacity="1" d="M 58.5 16 L 64 16.5 L 58.5 17 L 58.5 16 Z " /><path fill="rgb(53,53,53)" stroke="rgb(53,53,53)" stroke-width="1" opacity="1" d="M 70.5 16 Q 74.5 15.5 75 18.5 L 74.5 20 L 72.5 17 Q 69.5 17.5 70.5 16 Z " /><path fill="rgb(53,53,53)" stroke="rgb(53,53,53)" stroke-width="1" opacity="1" d="M 31.5 17 L 34 17.5 L 31.5 18 L 31.5 17 Z " /><path fill="rgb(53,53,53)" stroke="rgb(53,53,53)" stroke-width="1" opacity="1" d="M 52.5 17 L 56 17.5 L 52.5 18 L 52.5 17 Z " /><path fill="rgb(53,53,53)" stroke="rgb(53,53,53)" stroke-width="1" opacity="1" d="M 47.5 18 L 50 18.5 L 47.5 19 L 47.5 18 Z " /><path fill="rgb(53,53,53)" stroke="rgb(53,53,53)" stroke-width="1" opacity="1" d="M 24.5 19 L 26 21.5 L 25 21.5 L 24.5 19 Z " /><path fill="rgb(53,53,53)" stroke="rgb(53,53,53)" stroke-width="1" opacity="1" d="M 33.5 21 L 37 21.5 L 33.5 22 L 33.5 21 Z " /><path fill="rgb(53,53,53)" stroke="rgb(53,53,53)" stroke-width="1" opacity="1" d="M 85.5 21 L 86 23.5 L 85 23.5 L 85.5 21 Z " /><path fill="rgb(53,53,53)" stroke="rgb(53,53,53)" stroke-width="1" opacity="1" d="M 75.5 23 L 76 49 L 74 48.5 L 75 47.5 L 75.5 23 Z " /><path fill="rgb(53,53,53)" stroke="rgb(53,53,53)" stroke-width="1" opacity="1" d="M 26.5 24 L 27 26.5 L 26 26.5 L 26.5 24 Z " /><path fill="rgb(53,53,53)" stroke="rgb(53,53,53)" stroke-width="1" opacity="1" d="M 84.5 29 L 85 51.5 L 84 51.5 L 84.5 29 Z " /><path fill="rgb(53,53,53)" stroke="rgb(53,53,53)" stroke-width="1" opacity="1" d="M 32.5 30 L 33 51 L 40 51.5 L 32 52 L 32.5 30 Z " /><path fill="rgb(53,53,53)" stroke="rgb(53,53,53)" stroke-width="1" opacity="1" d="M 26.5 44 L 27 55.5 L 26 55.5 L 26.5 44 Z " /><path fill="rgb(53,53,53)" stroke="rgb(53,53,53)" stroke-width="1" opacity="1" d="M 49.5 49 L 52 49.5 L 49.5 50 L 49.5 49 Z " /><path fill="rgb(53,53,53)" stroke="rgb(53,53,53)" stroke-width="1" opacity="1" d="M 43.5 50 L 46 50.5 L 43.5 51 L 43.5 50 Z " /><path fill="rgb(53,53,53)" stroke="rgb(53,53,53)" stroke-width="1" opacity="1" d="M 71.5 51 Q 75.3 50.3 76 52.5 L 75.5 57 L 75 52 Q 70.6 53 71.5 51 Z " /><path fill="rgb(53,53,53)" stroke="rgb(53,53,53)" stroke-width="1" opacity="1" d="M 65.5 52 L 69 52.5 L 65.5 53 L 65.5 52 Z " /><path fill="rgb(53,53,53)" stroke="rgb(53,53,53)" stroke-width="1" opacity="1" d="M 59.5 53 L 63 53.5 L 59.5 54 L 59.5 53 Z " /><path fill="rgb(53,53,53)" stroke="rgb(53,53,53)" stroke-width="1" opacity="1" d="M 53.5 54 L 57 54.5 L 53.5 55 L 53.5 54 Z " /><path fill="rgb(53,53,53)" stroke="rgb(53,53,53)" stroke-width="1" opacity="1" d="M 32 55 L 35 55.5 L 32.5 57 L 32 55 Z " /><path fill="rgb(53,53,53)" stroke="rgb(53,53,53)" stroke-width="1" opacity="1" d="M 47.5 55 L 52 55.5 L 47.5 56 L 47.5 55 Z " /><path fill="rgb(53,53,53)" stroke="rgb(53,53,53)" stroke-width="1" opacity="1" d="M 36.5 56 L 44 56.5 L 36.5 57 L 36.5 56 Z " /><path fill="rgb(53,53,53)" stroke="rgb(53,53,53)" stroke-width="1" opacity="1" d="M 84.5 63 L 85 78.5 L 84 78.5 L 84.5 63 Z " /><path fill="rgb(53,53,53)" stroke="rgb(53,53,53)" stroke-width="1" opacity="1" d="M 31.5 64 L 32 84.5 L 31 84.5 L 31.5 64 Z " /><path fill="rgb(53,53,53)" stroke="rgb(53,53,53)" stroke-width="1" opacity="1" d="M 25.5 65 L 26 71.5 L 25 71.5 L 25.5 65 Z " /><path fill="rgb(53,53,53)" stroke="rgb(53,53,53)" stroke-width="1" opacity="1" d="M 74.5 72 L 75 76.5 L 74 76.5 L 74.5 72 Z " /><path fill="rgb(53,53,53)" stroke="rgb(53,53,53)" stroke-width="1" opacity="1" d="M 24.5 76 L 25 78.5 L 24 78.5 L 24.5 76 Z " /><path fill="rgb(53,53,53)" stroke="rgb(53,53,53)" stroke-width="1" opacity="1" d="M 57.5 82 L 60 82.5 L 57.5 83 L 57.5 82 Z " /><path fill="rgb(53,53,53)" stroke="rgb(53,53,53)" stroke-width="1" opacity="1" d="M 23.5 83 L 24 90.5 L 23 90.5 L 23.5 83 Z " /><path fill="rgb(53,53,53)" stroke="rgb(53,53,53)" stroke-width="1" opacity="1" d="M 50.5 83 L 53 83.5 L 50.5 84 L 50.5 83 Z " /><path fill="rgb(53,53,53)" stroke="rgb(53,53,53)" stroke-width="1" opacity="1" d="M 84.5 83 L 85 87.5 L 84 87.5 L 84.5 83 Z " /><path fill="rgb(53,53,53)" stroke="rgb(53,53,53)" stroke-width="1" opacity="1" d="M 39.5 84 L 45 84.5 L 39.5 85 L 39.5 84 Z " /><path fill="rgb(53,53,53)" stroke="rgb(53,53,53)" stroke-width="1" opacity="1" d="M 63.5 87 Q 68 86 69 88.5 L 72 95.5 L 71 95.5 L 68 88 L 63.5 88 L 63.5 87 Z " /><path fill="rgb(53,53,53)" stroke="rgb(53,53,53)" stroke-width="1" opacity="1" d="M 54.5 88 L 61 88.5 L 54.5 89 L 54.5 88 Z " /><path fill="rgb(53,53,53)" stroke="rgb(53,53,53)" stroke-width="1" opacity="1" d="M 45.5 89 L 52 89.5 L 45.5 90 L 45.5 89 Z " /><path fill="rgb(53,53,53)" stroke="rgb(53,53,53)" stroke-width="1" opacity="1" d="M 30 90 L 32 90.5 L 30.5 95 L 30 90 Z " /><path fill="rgb(53,53,53)" stroke="rgb(53,53,53)" stroke-width="1" opacity="1" d="M 33.5 90 L 42 90.5 L 33.5 91 L 33.5 90 Z " /><path fill="rgb(53,53,53)" stroke="rgb(53,53,53)" stroke-width="1" opacity="1" d="M 83.5 90 L 84 92.5 L 77.5 101 L 81 96.5 L 83.5 90 Z " /><path fill="rgb(53,53,53)" stroke="rgb(53,53,53)" stroke-width="1" opacity="1" d="M 25.5 94 L 26.5 96 L 25.5 94 Z " /><path fill="rgb(0,0,0)" stroke="rgb(0,0,0)" stroke-width="1" opacity="0" d="M 0 0 L 110 0 L 110 110 L 0 110 L 0 0 Z M 73 7 L 65 10 L 35 16 L 23 15 Q 22 21 25 24 L 25 59 L 24 60 L 24 73 L 23 74 L 23 94 L 25 98 L 30 100 Q 33 98 32 92 L 34 92 L 67 89 L 72 101 Q 73 103 79 102 Q 85 98 86 90 L 86 28 L 89 20 L 89 15 Q 85 9 78 7 L 73 7 Z " /><path fill="rgb(0,0,0)" stroke="rgb(0,0,0)" stroke-width="1" opacity="0" d="M 65.5 17 Q 71.3 16.2 73 19.5 L 74 22.5 L 74 46 Q 69.5 44 60.5 45 Q 49.1 49.9 34 50 L 34 23.5 Q 34 22.5 38.5 23 L 51.5 19 L 64.5 18 L 65.5 17 Z " /><path fill="rgb(0,0,0)" stroke="rgb(0,0,0)" stroke-width="1" opacity="0" d="M 70.5 53 L 74 53.5 L 74 66.5 L 73 67.5 Q 73.8 76.8 72 82 Q 67.9 80.1 59.5 81 L 52.5 83 L 33 83 L 33 59.5 L 34.5 57 L 35.5 58 L 44.5 58 L 70.5 53 Z " /><path fill="rgb(0,0,0)" stroke="rgb(0,0,0)" stroke-width="1" opacity="1" d="M 74.5 8 Q 83 10.5 88 16.5 L 85 21.5 Q 86.8 27.8 84 29.5 L 84 78.5 L 85 82.5 L 83 92.5 L 76.5 101 Q 73.2 102.1 74 99.5 L 67.5 87 L 45.5 89 L 44.5 90 L 30 90 Q 31.1 95.5 28.5 98 Q 21.5 93.5 24 79.5 L 26 71.5 L 26 56.5 L 27 55.5 L 27 24.5 L 24 16 L 33.5 18 L 64.5 12 L 74.5 8 Z M 59 16 L 39 21 L 33 21 L 33 30 L 32 31 L 32 52 L 52 50 L 64 46 L 76 49 L 76 24 L 75 19 L 73 16 L 59 16 Z M 72 51 L 47 56 Q 37 57 32 55 L 32 64 L 31 65 L 31 85 L 45 85 L 61 82 Q 69 81 73 84 L 75 77 L 75 58 L 76 53 Q 75 50 72 51 Z " /><path fill="rgb(217,211,211)" stroke="rgb(217,211,211)" stroke-width="1" opacity="1" d="M 72.5 7 L 77.5 7 Q 84.8 9.2 89 14.5 L 89 19.5 L 86 27.5 L 86 89.5 Q 84.5 98 78.5 102 L 76 101.5 L 82 96.5 L 85 87.5 L 85 63.5 L 84 62.5 L 84 52.5 L 85 51.5 L 85 24.5 L 88 15.5 Q 83 9.6 73.5 8 L 66.5 11 L 41.5 16 L 30.5 17 L 23 15.5 L 30.5 15 L 34.5 16 L 64.5 10 L 72.5 7 Z " /><path fill="rgb(217,211,211)" stroke="rgb(217,211,211)" stroke-width="1" opacity="1" d="M 64.5 16 Q 71.4 15.1 74 18.5 L 75 20.5 L 75 48 L 68.5 46 L 61.5 46 Q 49.8 51.5 33 51 L 33 22.5 L 36.5 22 L 45.5 19 L 63.5 17 L 64.5 16 Z M 66 17 L 65 18 L 52 19 L 39 23 Q 34 22 34 24 L 34 50 Q 49 50 61 45 Q 69 44 74 46 L 74 23 L 73 20 Q 71 16 66 17 Z " /><path fill="rgb(217,211,211)" stroke="rgb(217,211,211)" stroke-width="1" opacity="1" d="M 23.5 18 Q 29.2 26.8 27 43.5 L 26 44.5 L 26 64.5 L 25 65.5 L 25 75.5 L 23.5 83 L 23 73.5 L 24 72.5 L 24 59.5 L 25 58.5 L 25 23.5 Q 22 21.7 23.5 18 Z " /><path fill="rgb(217,211,211)" stroke="rgb(217,211,211)" stroke-width="1" opacity="1" d="M 69.5 52 Q 74.9 51.4 75 52.5 L 75 71.5 L 73 83 L 59 81.5 L 68.5 81 L 72 82 Q 73.8 76.8 73 67.5 L 74 66.5 L 74 53 L 63.5 54 L 52.5 57 L 35.5 58 L 34 57.5 L 33 59.5 L 33 83 L 50 83.5 L 32 85 L 32 57.5 L 33.5 56 L 43.5 57 L 69.5 52 Z " /><path fill="rgb(217,211,211)" stroke="rgb(217,211,211)" stroke-width="1" opacity="1" d="M 53.5 82 L 57 82.5 L 53.5 83 L 53.5 82 Z " /><path fill="rgb(217,211,211)" stroke="rgb(217,211,211)" stroke-width="1" opacity="1" d="M 61.5 88 Q 68.5 86.5 68 89.5 L 75 101.5 L 73.5 102 L 66.5 89 Q 60.5 90.3 61.5 88 Z " /><path fill="rgb(217,211,211)" stroke="rgb(217,211,211)" stroke-width="1" opacity="1" d="M 52.5 89 L 60 89.5 L 33.5 92 L 32 91.5 Q 32.7 97.7 29.5 100 L 25 97.5 L 23 91.5 L 24 91.5 L 27 98 Q 31.1 99.7 30 95.5 L 32.5 90 L 33.5 91 L 41.5 91 L 52.5 89 Z " /></svg>