<svg width="110" height="110" version="1.1" xmlns="http://www.w3.org/2000/svg" desc="Created with imagetracer.js version 1.2.6" ><path fill="rgb(0,0,0)" stroke="rgb(0,0,0)" stroke-width="1" opacity="1" d="M 48.5 10 Q 54.8 8.2 56.5 11 L 58.5 10 L 60.5 10 L 70.5 12 L 76 15 Q 75 18 78 17 L 78 19.5 L 77.5 21 Q 81.9 19.5 81 22.5 Q 78.8 23.7 81.5 25 L 82.5 23 L 84 35.5 L 83.5 37 Q 86.9 36.1 85 41.5 L 85 43.5 L 86 46.5 L 85 49.5 L 86 66.5 Q 83.5 68 85 73.5 L 83 75.5 L 84 79.5 L 82.5 85 L 80 84 L 81 87.5 L 75.5 94 L 71.5 97 L 69.5 96 L 69.5 98 L 64.5 99 L 62 98 L 61.5 100 L 53.5 100 L 50.5 101 L 48 100 L 47.5 98 L 45.5 99 L 41 98 Q 42.8 93.1 36.5 95 L 32 90.5 L 33.5 88 L 31.5 89 L 29 85.5 Q 29.6 79.4 27 76.5 L 27 61.5 L 26 56.5 L 27 49.5 L 27 35.5 L 29 25.5 L 32.5 20 L 34 20.5 L 33 18.5 L 36 17 L 36 15 Q 39.8 16.5 39 13.5 L 48.5 10 Z M 57 14 L 52 15 L 49 16 L 47 15 Q 43 14 44 17 L 37 22 L 34 22 L 34 29 L 33 29 L 33 31 L 31 39 L 32 42 Q 31 45 37 43 L 37 44 L 32 43 L 30 51 L 31 59 L 31 61 L 31 73 Q 34 74 33 79 L 33 80 Q 35 79 34 83 L 34 85 L 37 85 L 37 86 Q 34 85 35 88 L 37 87 Q 40 89 39 91 L 42 91 Q 41 95 44 94 L 44 92 Q 48 96 59 94 L 63 94 L 76 87 L 78 84 Q 77 79 79 78 L 78 74 L 80 70 L 81 60 L 81 58 L 82 54 L 81 54 L 82 52 L 80 49 L 79 33 L 77 29 L 79 29 L 79 28 L 80 26 Q 76 27 77 24 L 74 21 L 75 20 L 74 19 L 71 15 L 68 16 L 57 14 Z " /><path fill="rgb(0,0,0)" stroke="rgb(0,0,0)" stroke-width="1" opacity="1" d="M 41 42 Q 47.2 40.7 50 43.5 L 49.5 45 Q 53.3 43.8 52 47.5 L 57 60.5 Q 54.8 61.8 57.5 63 L 61.5 62 L 64.5 64 L 77 64 Q 78.3 67 74.5 66 L 73.5 67 L 57 67 L 56.5 64 L 55 64.5 Q 55.7 61.9 53 63 L 53 61 L 55 60.5 L 51 60 L 50 56 L 52 55.5 L 50 54.5 L 50.5 53 Q 47.9 53.8 49 50.5 L 48 47 L 38 43.5 L 39.5 43 L 41 43.5 L 41 42 Z " /><path fill="rgb(0,0,0)" stroke="rgb(0,0,0)" stroke-width="1" opacity="0" d="M 0 0 L 110 0 L 110 110 L 0 110 L 0 0 Z M 55 8 L 54 9 L 45 9 L 40 12 Q 37 11 38 14 L 35 15 L 28 26 Q 29 32 26 35 L 25 62 L 25 64 L 26 67 L 25 69 L 27 83 L 32 93 L 39 98 L 50 102 Q 55 104 57 101 L 60 102 L 73 98 L 77 95 L 84 85 L 86 78 L 87 59 L 88 58 L 87 56 L 87 43 L 86 42 L 87 40 L 84 24 L 79 17 L 72 11 L 66 9 L 55 8 Z " /><path fill="rgb(0,0,0)" stroke="rgb(0,0,0)" stroke-width="1" opacity="0" d="M 52.5 16 Q 70 13.5 75 23.5 L 79 42.5 L 79 54.5 L 80 56.5 L 79 63 L 73.5 62 L 69.5 63 Q 67.8 60.2 61.5 62 L 58 59.5 L 54 46.5 L 49.5 41 L 45.5 40 L 33 42 L 34 30.5 L 37 23 L 46.5 17 Q 51.3 18.2 52.5 16 Z " /><path fill="rgb(0,0,0)" stroke="rgb(0,0,0)" stroke-width="1" opacity="0" d="M 32 45 L 43.5 47 L 47 49.5 L 51 62.5 L 56.5 68 L 75.5 68 L 78 67 L 76 84 L 73 85.5 L 71.5 88 L 61.5 92 L 48.5 93 Q 41.6 91.5 38 86.5 L 38 84 Q 35 85.3 36 81.5 L 34 78.5 L 32 62.5 L 33 58.5 L 32 57.5 L 32 45 Z " /><path fill="rgb(118,118,118)" stroke="rgb(118,118,118)" stroke-width="1" opacity="1" d="M 54.5 8 L 59 8.5 L 54.5 9 L 54.5 8 Z " /><path fill="rgb(118,118,118)" stroke="rgb(118,118,118)" stroke-width="1" opacity="1" d="M 44.5 9 L 52 9.5 L 44.5 10 L 44.5 9 Z " /><path fill="rgb(118,118,118)" stroke="rgb(118,118,118)" stroke-width="1" opacity="1" d="M 62.5 9 L 66 9.5 L 62.5 10 L 62.5 9 Z " /><path fill="rgb(118,118,118)" stroke="rgb(118,118,118)" stroke-width="1" opacity="1" d="M 42.5 10 L 41.5 12 L 40 11.5 L 42.5 10 Z " /><path fill="rgb(118,118,118)" stroke="rgb(118,118,118)" stroke-width="1" opacity="1" d="M 70.5 11 L 75.5 13 L 79 16.5 L 75.5 14 Q 69.8 13.5 70.5 11 Z " /><path fill="rgb(118,118,118)" stroke="rgb(118,118,118)" stroke-width="1" opacity="1" d="M 38.5 12 L 39 13.5 L 33 17.5 L 31.5 20 L 32 18.5 L 34.5 15 L 38 14 L 38.5 12 Z " /><path fill="rgb(118,118,118)" stroke="rgb(118,118,118)" stroke-width="1" opacity="1" d="M 58.5 15 L 61 15.5 L 58.5 16 L 58.5 15 Z " /><path fill="rgb(118,118,118)" stroke="rgb(118,118,118)" stroke-width="1" opacity="1" d="M 47.5 16 L 52 16.5 L 47.5 17 L 47.5 16 Z " /><path fill="rgb(118,118,118)" stroke="rgb(118,118,118)" stroke-width="1" opacity="1" d="M 65.5 16 Q 73.5 17 76 23.5 L 75.5 25 L 69.5 18 L 65.5 17 L 65.5 16 Z " /><path fill="rgb(118,118,118)" stroke="rgb(118,118,118)" stroke-width="1" opacity="1" d="M 44.5 17 L 46 17.5 L 43.5 19 L 44.5 17 Z " /><path fill="rgb(118,118,118)" stroke="rgb(118,118,118)" stroke-width="1" opacity="1" d="M 79.5 18 L 82.5 22 L 79.5 18 Z " /><path fill="rgb(118,118,118)" stroke="rgb(118,118,118)" stroke-width="1" opacity="1" d="M 41.5 19 L 38.5 23 L 37 22.5 L 41.5 19 Z " /><path fill="rgb(118,118,118)" stroke="rgb(118,118,118)" stroke-width="1" opacity="1" d="M 83.5 23 L 86 31.5 L 86 37.5 L 85 37.5 L 85 31.5 L 83.5 23 Z " /><path fill="rgb(118,118,118)" stroke="rgb(118,118,118)" stroke-width="1" opacity="1" d="M 28.5 25 L 29 29.5 L 27.5 32 L 27 30.5 L 28.5 25 Z " /><path fill="rgb(118,118,118)" stroke="rgb(118,118,118)" stroke-width="1" opacity="1" d="M 76.5 26 L 77 29.5 L 76 29.5 L 76.5 26 Z " /><path fill="rgb(118,118,118)" stroke="rgb(118,118,118)" stroke-width="1" opacity="1" d="M 33.5 31 L 34 35.5 L 33 35.5 L 33.5 31 Z " /><path fill="rgb(118,118,118)" stroke="rgb(118,118,118)" stroke-width="1" opacity="1" d="M 77.5 31 L 79 41.5 L 78 41.5 L 77.5 31 Z " /><path fill="rgb(118,118,118)" stroke="rgb(118,118,118)" stroke-width="1" opacity="1" d="M 32.5 39 L 34 42.5 L 32 41.5 L 32.5 39 Z " /><path fill="rgb(118,118,118)" stroke="rgb(118,118,118)" stroke-width="1" opacity="1" d="M 37.5 41 L 42 41.5 L 37.5 42 L 37.5 41 Z " /><path fill="rgb(118,118,118)" stroke="rgb(118,118,118)" stroke-width="1" opacity="1" d="M 47.5 41 Q 52.5 40.5 53 44.5 L 49.5 42 Q 46.5 42.5 47.5 41 Z " /><path fill="rgb(118,118,118)" stroke="rgb(118,118,118)" stroke-width="1" opacity="1" d="M 86.5 42 L 87 55.5 L 88 57.5 L 86.5 61 L 86 58.5 L 87 56.5 L 86 55.5 L 86.5 42 Z " /><path fill="rgb(118,118,118)" stroke="rgb(118,118,118)" stroke-width="1" opacity="1" d="M 25.5 43 L 26 61.5 L 25 61.5 L 25.5 43 Z " /><path fill="rgb(118,118,118)" stroke="rgb(118,118,118)" stroke-width="1" opacity="1" d="M 40.5 46 L 43 46.5 L 40.5 47 L 40.5 46 Z " /><path fill="rgb(118,118,118)" stroke="rgb(118,118,118)" stroke-width="1" opacity="1" d="M 79.5 47 L 80 54.5 L 79 54.5 L 79.5 47 Z " /><path fill="rgb(118,118,118)" stroke="rgb(118,118,118)" stroke-width="1" opacity="1" d="M 46.5 48 L 48 51.5 L 47 51.5 L 46.5 48 Z " /><path fill="rgb(118,118,118)" stroke="rgb(118,118,118)" stroke-width="1" opacity="1" d="M 31.5 50 L 32 53.5 L 31 53.5 L 31.5 50 Z " /><path fill="rgb(118,118,118)" stroke="rgb(118,118,118)" stroke-width="1" opacity="1" d="M 54.5 50 L 56 52.5 L 55 52.5 L 54.5 50 Z " /><path fill="rgb(118,118,118)" stroke="rgb(118,118,118)" stroke-width="1" opacity="1" d="M 48.5 53 L 50 57.5 L 49 57.5 L 48.5 53 Z " /><path fill="rgb(118,118,118)" stroke="rgb(118,118,118)" stroke-width="1" opacity="1" d="M 56.5 54 L 57 56.5 L 56 56.5 L 56.5 54 Z " /><path fill="rgb(118,118,118)" stroke="rgb(118,118,118)" stroke-width="1" opacity="1" d="M 79.5 57 L 80 61.5 L 79 61.5 L 79.5 57 Z " /><path fill="rgb(118,118,118)" stroke="rgb(118,118,118)" stroke-width="1" opacity="1" d="M 32.5 58 L 33 61.5 L 32 61.5 L 32.5 58 Z " /><path fill="rgb(118,118,118)" stroke="rgb(118,118,118)" stroke-width="1" opacity="1" d="M 58.5 60 L 61 61.5 L 59.5 62 L 58.5 60 Z " /><path fill="rgb(118,118,118)" stroke="rgb(118,118,118)" stroke-width="1" opacity="1" d="M 51.5 62 Q 53.1 66.9 59 67.5 L 56.5 68 L 51.5 62 Z " /><path fill="rgb(118,118,118)" stroke="rgb(118,118,118)" stroke-width="1" opacity="1" d="M 63.5 62 L 69 62.5 L 63.5 63 L 63.5 62 Z " /><path fill="rgb(118,118,118)" stroke="rgb(118,118,118)" stroke-width="1" opacity="1" d="M 86.5 62 L 87 68.5 L 86 68.5 L 86.5 62 Z " /><path fill="rgb(118,118,118)" stroke="rgb(118,118,118)" stroke-width="1" opacity="1" d="M 25.5 63 L 26 65.5 L 25 65.5 L 25.5 63 Z " /><path fill="rgb(118,118,118)" stroke="rgb(118,118,118)" stroke-width="1" opacity="1" d="M 76.5 63 L 79 63.5 L 76.5 64 L 76.5 63 Z " /><path fill="rgb(118,118,118)" stroke="rgb(118,118,118)" stroke-width="1" opacity="1" d="M 32.5 64 L 33 71.5 L 32 71.5 L 32.5 64 Z " /><path fill="rgb(118,118,118)" stroke="rgb(118,118,118)" stroke-width="1" opacity="1" d="M 76.5 66 Q 81.1 64.7 79 70.5 L 78 70.5 Q 79.5 66.1 76.5 67 Q 75 69.5 69.5 68 L 69.5 67 Q 75 68.5 76.5 66 Z " /><path fill="rgb(118,118,118)" stroke="rgb(118,118,118)" stroke-width="1" opacity="1" d="M 65.5 67 L 68 67.5 L 65.5 68 L 65.5 67 Z " /><path fill="rgb(118,118,118)" stroke="rgb(118,118,118)" stroke-width="1" opacity="1" d="M 25.5 68 L 26 71.5 L 25 71.5 L 25.5 68 Z " /><path fill="rgb(118,118,118)" stroke="rgb(118,118,118)" stroke-width="1" opacity="1" d="M 77.5 72 L 78 79.5 L 77 79.5 L 77.5 72 Z " /><path fill="rgb(118,118,118)" stroke="rgb(118,118,118)" stroke-width="1" opacity="1" d="M 33.5 73 L 34 76.5 L 33 76.5 L 33.5 73 Z " /><path fill="rgb(118,118,118)" stroke="rgb(118,118,118)" stroke-width="1" opacity="1" d="M 85.5 73 L 86 77.5 L 85 77.5 L 85.5 73 Z " /><path fill="rgb(118,118,118)" stroke="rgb(118,118,118)" stroke-width="1" opacity="1" d="M 26.5 74 L 27 77.5 L 26 77.5 L 26.5 74 Z " /><path fill="rgb(118,118,118)" stroke="rgb(118,118,118)" stroke-width="1" opacity="1" d="M 34.5 79 L 36 82.5 L 35 82.5 L 34.5 79 Z " /><path fill="rgb(118,118,118)" stroke="rgb(118,118,118)" stroke-width="1" opacity="1" d="M 84.5 79 L 85 80.5 L 82.5 86 L 83 84.5 L 84.5 79 Z " /><path fill="rgb(118,118,118)" stroke="rgb(118,118,118)" stroke-width="1" opacity="1" d="M 27.5 81 L 29 85.5 L 28 85.5 L 27.5 81 Z " /><path fill="rgb(118,118,118)" stroke="rgb(118,118,118)" stroke-width="1" opacity="1" d="M 76.5 81 L 77 83.5 L 74 85 L 71.5 89 L 69.5 90 L 70.5 88 L 73 86.5 L 74.5 84 Q 77.4 84.7 76.5 81 Z " /><path fill="rgb(118,118,118)" stroke="rgb(118,118,118)" stroke-width="1" opacity="1" d="M 36.5 84 Q 38.8 83.3 38 85.5 L 36.5 84 Z " /><path fill="rgb(118,118,118)" stroke="rgb(118,118,118)" stroke-width="1" opacity="1" d="M 29.5 87 L 35.5 95 L 42 98.5 L 40.5 99 L 32 92.5 L 29 88.5 L 29.5 87 Z " /><path fill="rgb(118,118,118)" stroke="rgb(118,118,118)" stroke-width="1" opacity="1" d="M 38.5 87 L 45 91.5 L 43.5 92 L 38.5 87 Z " /><path fill="rgb(118,118,118)" stroke="rgb(118,118,118)" stroke-width="1" opacity="1" d="M 81.5 87 L 82 88.5 L 78 91.5 L 81.5 87 Z " /><path fill="rgb(118,118,118)" stroke="rgb(118,118,118)" stroke-width="1" opacity="1" d="M 66.5 90 L 68 90.5 Q 63.1 94.1 53.5 93 L 53.5 92 Q 62.1 93.1 66.5 90 Z " /><path fill="rgb(118,118,118)" stroke="rgb(118,118,118)" stroke-width="1" opacity="1" d="M 77.5 93 L 76.5 95 L 72.5 98 L 75.5 94 L 77.5 93 Z " /><path fill="rgb(118,118,118)" stroke="rgb(118,118,118)" stroke-width="1" opacity="1" d="M 49.5 101 L 56 101.5 L 49.5 102 L 49.5 101 Z " /><path fill="rgb(3,3,3)" stroke="rgb(3,3,3)" stroke-width="1" opacity="1" d="M 52.5 9 L 62 9.5 L 59.5 11 L 57.5 10 L 55.5 10 Q 51.5 10.8 52.5 9 Z " /><path fill="rgb(3,3,3)" stroke="rgb(3,3,3)" stroke-width="1" opacity="1" d="M 43.5 10 L 48 10.5 L 43 11.5 L 43.5 13 Q 40.5 11.5 43.5 10 Z " /><path fill="rgb(3,3,3)" stroke="rgb(3,3,3)" stroke-width="1" opacity="1" d="M 63.5 10 L 67 10.5 L 63.5 11 L 63.5 10 Z " /><path fill="rgb(3,3,3)" stroke="rgb(3,3,3)" stroke-width="1" opacity="1" d="M 71.5 12 L 73 13.5 Q 69.5 15 72 16.5 L 73.5 19 L 76 20.5 Q 73.5 22 77 23.5 Q 75.8 27.3 79.5 26 L 79 27.5 L 78.5 29 L 76 23.5 L 69.5 16 L 68 16.5 Q 67.2 13.9 70.5 15 L 71.5 12 Z " /><path fill="rgb(3,3,3)" stroke="rgb(3,3,3)" stroke-width="1" opacity="1" d="M 56.5 14 L 57.5 16 L 51 15.5 L 56.5 14 Z " /><path fill="rgb(3,3,3)" stroke="rgb(3,3,3)" stroke-width="1" opacity="1" d="M 74.5 14 L 79 17.5 L 83 22.5 L 81.5 25 Q 78.8 23.7 81 22.5 Q 81.9 19.5 77.5 21 L 78 19.5 L 78 17 L 76 17 Q 77.1 14.3 74.5 15 L 74.5 14 Z " /><path fill="rgb(3,3,3)" stroke="rgb(3,3,3)" stroke-width="1" opacity="1" d="M 44 15 Q 48.1 13.7 47 17 L 44.5 17 L 37 22 L 34.5 28 L 34 22 Q 37.8 22.8 39 19.5 L 38.5 18 L 40.5 19 L 44 16.5 L 44 15 Z " /><path fill="rgb(3,3,3)" stroke="rgb(3,3,3)" stroke-width="1" opacity="1" d="M 61.5 15 L 65 15.5 L 61.5 16 L 61.5 15 Z " /><path fill="rgb(3,3,3)" stroke="rgb(3,3,3)" stroke-width="1" opacity="1" d="M 34.5 16 L 36 16.5 L 33.5 18 L 34.5 16 Z " /><path fill="rgb(3,3,3)" stroke="rgb(3,3,3)" stroke-width="1" opacity="1" d="M 32.5 19 Q 34.8 18.3 34 20.5 L 32 20.5 L 29.5 25 L 30 23.5 L 32.5 19 Z " /><path fill="rgb(3,3,3)" stroke="rgb(3,3,3)" stroke-width="1" opacity="1" d="M 83.5 26 L 84 29.5 L 83 29.5 L 83.5 26 Z " /><path fill="rgb(3,3,3)" stroke="rgb(3,3,3)" stroke-width="1" opacity="1" d="M 30.5 29 L 30 30.5 L 29.5 32 L 29 30.5 L 30.5 29 Z " /><path fill="rgb(3,3,3)" stroke="rgb(3,3,3)" stroke-width="1" opacity="1" d="M 32.5 29 Q 34.8 28.3 34 30.5 L 32.5 29 Z " /><path fill="rgb(3,3,3)" stroke="rgb(3,3,3)" stroke-width="1" opacity="1" d="M 79.5 31 L 79 32.5 L 78.5 36 L 78 32.5 L 79.5 31 Z " /><path fill="rgb(3,3,3)" stroke="rgb(3,3,3)" stroke-width="1" opacity="1" d="M 84.5 31 L 85 37 L 83 36.5 L 84.5 31 Z " /><path fill="rgb(3,3,3)" stroke="rgb(3,3,3)" stroke-width="1" opacity="1" d="M 27.5 32 L 28 34.5 L 27 34.5 L 27.5 32 Z " /><path fill="rgb(3,3,3)" stroke="rgb(3,3,3)" stroke-width="1" opacity="1" d="M 32.5 34 L 33 38.5 L 31.5 41 L 31 38.5 L 32.5 34 Z " /><path fill="rgb(3,3,3)" stroke="rgb(3,3,3)" stroke-width="1" opacity="1" d="M 26.5 36 L 27 49.5 L 26 49.5 L 26.5 36 Z " /><path fill="rgb(3,3,3)" stroke="rgb(3,3,3)" stroke-width="1" opacity="1" d="M 85.5 38 L 86 44.5 L 85 44.5 L 84.5 43 L 83 43.5 L 83.5 41 L 85 41.5 L 85.5 38 Z " /><path fill="rgb(3,3,3)" stroke="rgb(3,3,3)" stroke-width="1" opacity="1" d="M 79.5 40 L 80 46.5 L 79 46.5 L 79.5 40 Z " /><path fill="rgb(3,3,3)" stroke="rgb(3,3,3)" stroke-width="1" opacity="1" d="M 42.5 41 L 47 41.5 L 42.5 42 L 42.5 41 Z " /><path fill="rgb(3,3,3)" stroke="rgb(3,3,3)" stroke-width="1" opacity="1" d="M 32.5 42 L 32 43.5 L 31.5 46 L 31 43.5 L 32.5 42 Z " /><path fill="rgb(3,3,3)" stroke="rgb(3,3,3)" stroke-width="1" opacity="1" d="M 34.5 42 Q 41.5 40.5 41 43.5 L 40.5 45 L 42 45.5 L 39.5 46 L 34 44.5 L 37 43.5 Q 33.7 43.6 34.5 42 Z " /><path fill="rgb(3,3,3)" stroke="rgb(3,3,3)" stroke-width="1" opacity="1" d="M 48.5 42 L 53 45.5 L 56 54.5 L 55 54.5 L 52 45 L 49 44.5 L 49.5 43 L 48.5 42 Z " /><path fill="rgb(3,3,3)" stroke="rgb(3,3,3)" stroke-width="1" opacity="1" d="M 43.5 46 L 48 47 L 47.5 49 L 43.5 47 L 43.5 46 Z " /><path fill="rgb(3,3,3)" stroke="rgb(3,3,3)" stroke-width="1" opacity="1" d="M 31.5 47 L 32 49.5 L 30.5 53 L 30 50.5 L 31.5 47 Z " /><path fill="rgb(3,3,3)" stroke="rgb(3,3,3)" stroke-width="1" opacity="1" d="M 80.5 49 L 82 51.5 L 82 53.5 L 81 57.5 L 81 59.5 L 82 62.5 L 80 62.5 L 79.5 70 L 79 66 Q 76.3 67.1 77 64.5 L 79 64.5 L 81 53.5 L 80.5 49 Z " /><path fill="rgb(3,3,3)" stroke="rgb(3,3,3)" stroke-width="1" opacity="1" d="M 85.5 49 L 87 57.5 L 86 57.5 Q 83.7 54.6 85.5 49 Z " /><path fill="rgb(3,3,3)" stroke="rgb(3,3,3)" stroke-width="1" opacity="1" d="M 48.5 50 L 49 53 L 51 53.5 L 50.5 55 L 52 55.5 L 50.5 56 Q 46.9 54.1 48.5 50 Z " /><path fill="rgb(3,3,3)" stroke="rgb(3,3,3)" stroke-width="1" opacity="1" d="M 31.5 56 L 32 58.5 L 31 58.5 L 31.5 56 Z " /><path fill="rgb(3,3,3)" stroke="rgb(3,3,3)" stroke-width="1" opacity="1" d="M 56.5 57 L 59 61.5 Q 57.5 64.5 56 61.5 L 57 59.5 L 56.5 57 Z " /><path fill="rgb(3,3,3)" stroke="rgb(3,3,3)" stroke-width="1" opacity="1" d="M 31.5 60 L 33 73.5 L 31 72.5 L 31.5 60 Z " /><path fill="rgb(3,3,3)" stroke="rgb(3,3,3)" stroke-width="1" opacity="1" d="M 51 60 L 55 60.5 L 53 61 L 53 63 Q 55.7 61.9 55 64.5 L 57 64.5 L 56.5 67 L 51 60 Z " /><path fill="rgb(3,3,3)" stroke="rgb(3,3,3)" stroke-width="1" opacity="1" d="M 26.5 61 L 27 73.5 L 26 73.5 L 26.5 61 Z " /><path fill="rgb(3,3,3)" stroke="rgb(3,3,3)" stroke-width="1" opacity="1" d="M 64.5 63 L 76 63.5 L 64.5 64 L 64.5 63 Z " /><path fill="rgb(3,3,3)" stroke="rgb(3,3,3)" stroke-width="1" opacity="1" d="M 62.5 67 L 65 67.5 L 62.5 68 L 62.5 67 Z " /><path fill="rgb(3,3,3)" stroke="rgb(3,3,3)" stroke-width="1" opacity="1" d="M 85.5 67 L 86 69.5 L 85 69.5 L 85.5 67 Z " /><path fill="rgb(3,3,3)" stroke="rgb(3,3,3)" stroke-width="1" opacity="1" d="M 78.5 74 L 79 77.5 L 78 77.5 L 78.5 74 Z " /><path fill="rgb(3,3,3)" stroke="rgb(3,3,3)" stroke-width="1" opacity="1" d="M 84.5 74 L 85 78.5 L 84 78.5 L 83 75.5 L 84.5 74 Z " /><path fill="rgb(3,3,3)" stroke="rgb(3,3,3)" stroke-width="1" opacity="1" d="M 27.5 77 L 29 82.5 L 28 82.5 L 27.5 77 Z " /><path fill="rgb(3,3,3)" stroke="rgb(3,3,3)" stroke-width="1" opacity="1" d="M 33.5 77 L 34 80 L 32 79.5 L 33.5 77 Z " /><path fill="rgb(3,3,3)" stroke="rgb(3,3,3)" stroke-width="1" opacity="1" d="M 77.5 80 L 78 83.5 L 76 87 L 72.5 89 L 74 86.5 Q 73.3 84.3 75.5 85 L 77.5 80 Z " /><path fill="rgb(3,3,3)" stroke="rgb(3,3,3)" stroke-width="1" opacity="1" d="M 34.5 81 L 36 85 L 34 84.5 L 34 82.5 L 34.5 81 Z " /><path fill="rgb(3,3,3)" stroke="rgb(3,3,3)" stroke-width="1" opacity="1" d="M 80 84 Q 83 82.8 82 86.5 L 80 85.5 L 80 84 Z " /><path fill="rgb(3,3,3)" stroke="rgb(3,3,3)" stroke-width="1" opacity="1" d="M 29.5 86 L 31.5 89 L 33.5 88 L 33.5 91 L 30 88.5 L 29.5 86 Z " /><path fill="rgb(3,3,3)" stroke="rgb(3,3,3)" stroke-width="1" opacity="1" d="M 35 86 Q 38.7 84.5 38 87.5 L 40.5 91 L 38 90.5 Q 40.7 88.8 36.5 87 L 35 87.5 L 35 86 Z " /><path fill="rgb(3,3,3)" stroke="rgb(3,3,3)" stroke-width="1" opacity="1" d="M 77.5 88 L 79.5 89 L 81 88.5 L 76.5 94 L 77 92.5 L 79 89.5 L 77.5 88 Z " /><path fill="rgb(3,3,3)" stroke="rgb(3,3,3)" stroke-width="1" opacity="1" d="M 68.5 90 L 68.5 93 L 66 91.5 L 68.5 90 Z " /><path fill="rgb(3,3,3)" stroke="rgb(3,3,3)" stroke-width="1" opacity="1" d="M 42.5 91 L 43.5 93 L 45.5 92 L 45.5 93 L 42 94 L 42.5 91 Z " /><path fill="rgb(3,3,3)" stroke="rgb(3,3,3)" stroke-width="1" opacity="1" d="M 33.5 92 L 36 92.5 L 35.5 95 L 33.5 92 Z " /><path fill="rgb(3,3,3)" stroke="rgb(3,3,3)" stroke-width="1" opacity="1" d="M 62 92 L 65 92.5 L 62.5 94 L 62 92 Z " /><path fill="rgb(3,3,3)" stroke="rgb(3,3,3)" stroke-width="1" opacity="1" d="M 50.5 93 L 59 93.5 L 50.5 94 L 50.5 93 Z " /><path fill="rgb(3,3,3)" stroke="rgb(3,3,3)" stroke-width="1" opacity="1" d="M 74.5 94 L 71.5 98 L 69 96.5 L 71.5 95 Q 73 97.5 74.5 94 Z " /><path fill="rgb(3,3,3)" stroke="rgb(3,3,3)" stroke-width="1" opacity="1" d="M 37.5 95 Q 42.3 93.3 41 97.5 L 39.5 97 L 37.5 95 Z " /><path fill="rgb(3,3,3)" stroke="rgb(3,3,3)" stroke-width="1" opacity="1" d="M 42.5 98 L 46.5 99 L 48 98.5 Q 47.3 100.8 49.5 100 L 49.5 101 L 42.5 99 L 42.5 98 Z " /><path fill="rgb(3,3,3)" stroke="rgb(3,3,3)" stroke-width="1" opacity="1" d="M 62 98 L 65.5 99 L 67.5 98 L 67.5 99 Q 62.8 102.3 53.5 101 L 53.5 100 L 61.5 100 L 62 98 Z " /></svg>