<svg xmlns="http://www.w3.org/2000/svg" viewBox="0 0 1000 1000" fill="currentColor"><path d="M612.149 701.464C673.491 751.731 753.576 822.444 792.767 864.191L847.293 828.408C805.546 785.809 723.757 718.504 664.119 670.793M321.627 669.089C270.509 720.208 196.388 778.142 132.490 816.480C146.121 826.704 170.829 848.855 181.904 859.931C244.098 817.332 322.479 750.027 379.561 693.797M553.363 118.717L499.689 130.644C532.064 255.884 582.330 359.824 654.748 439.909L354.854 439.909C420.456 371.752 474.130 286.555 505.653 184.318L465.610 165.575L454.535 168.131L322.479 168.131C331.851 151.944 340.371 134.904 348.038 118.717L285.845 108.493C256.026 176.651 198.944 259.292 115.450 321.486C129.082 329.153 147.825 348.749 157.197 361.528C210.871 319.782 254.322 271.219 289.252 220.953L428.124 220.953C414.492 255.032 397.453 287.407 377.005 317.226C352.298 301.038 320.775 283.999 294.364 270.367L261.137 305.298C288.400 319.782 321.627 340.229 347.186 358.120C330.147 379.420 311.404 399.015 291.808 417.758C267.953 398.163 235.578 376.012 209.167 359.824L170.829 392.199C197.240 409.239 227.911 432.242 251.766 451.837C204.055 488.472 152.085 517.439 100.115 537.034C113.747 548.962 129.934 571.965 137.602 588.152C209.167 557.481 278.177 513.179 338.667 455.245L338.667 498.695L662.415 498.695L662.415 448.429C716.089 505.511 780.839 549.814 858.368 579.633C867.740 562.593 885.632 537.886 900.115 525.958C816.622 497.843 749.316 452.689 693.938 393.051C746.760 335.969 806.398 257.588 845.589 189.430L803.842 160.463L791.063 164.723L566.995 164.723M753.576 219.249C727.165 262.700 692.234 311.262 658.155 349.601C630.040 310.410 606.185 266.960 586.590 219.249M192.128 577.077L192.128 635.863L468.166 635.863L468.166 820.740C468.166 830.112 465.610 833.520 452.831 834.372C440.903 834.372 399.157 834.372 354.854 832.668C363.374 850.559 374.449 874.414 377.857 892.306C434.087 892.306 474.982 892.306 499.689 882.934C526.952 873.562 534.620 856.523 534.620 821.592L534.620 635.863L814.918 635.863L814.918 577.077"/></svg>