<svg xmlns="http://www.w3.org/2000/svg" viewBox="0 0 1000 1000" fill="currentColor"><path d="M411.980 327.250C458.282 354.688 514.016 394.988 541.454 423.284L589.472 384.699C560.318 357.260 502.869 318.675 457.424 292.952M221.626 605.921L221.626 895.738L286.792 895.738L286.792 854.581L706.085 854.581L706.085 894.024L772.966 894.024L772.966 605.921L618.625 605.921C664.927 555.331 713.802 500.454 751.529 455.867L704.370 431.001L694.080 435.288L229.343 435.288L229.343 492.737L640.061 492.737C608.335 527.893 570.608 569.908 536.310 605.921M286.792 797.989L286.792 662.512L706.085 662.512L706.085 797.989M498.582 104.313C417.124 227.786 261.069 328.107 99.868 380.412C115.302 396.703 134.166 420.712 143.598 437.861C279.932 387.271 409.407 304.956 501.154 203.777C590.329 303.241 725.806 390.701 855.281 431.001C865.570 413.852 885.292 388.129 899.868 374.409C763.534 338.397 616.910 252.652 536.310 161.762L556.889 133.466"/></svg>