<svg xmlns="http://www.w3.org/2000/svg" viewBox="0 0 1000 1000" fill="currentColor"><path d="M436.290 288.065C460.376 335.376 481.882 398.172 488.763 438.602L545.538 420.538C537.796 380.108 515.430 319.032 490.484 271.720M414.785 581.398L414.785 897.957L475.860 897.957L475.860 860.968L760.591 860.968L760.591 895.376L824.247 895.376L824.247 581.398M475.860 802.473L475.860 639.032L760.591 639.032L760.591 802.473M570.484 110C580.806 138.387 590.269 173.656 596.290 202.903L375.215 202.903L375.215 261.398L873.280 261.398L873.280 202.903L661.667 202.903C654.785 172.796 643.602 132.366 630.699 100.538M742.527 268.280C726.183 321.613 696.075 397.312 671.989 447.204L340.806 447.204L340.806 505.699L899.946 505.699L899.946 447.204L733.065 447.204C757.151 399.892 782.957 338.817 804.462 284.624M302.957 109.140C256.505 239.032 180.806 368.065 99.946 452.366C111.129 466.989 130.054 500.538 136.075 515.161C162.742 486.774 187.688 454.086 212.634 418.817L212.634 898.817L274.570 898.817L274.570 319.032C308.978 257.957 339.086 192.581 363.172 127.204"/></svg>