<svg xmlns="http://www.w3.org/2000/svg" viewBox="0 0 1000 1000" fill="currentColor"><path d="M304.297 145.778C266.865 221.513 203.318 295.506 137.159 343.384C151.958 352.089 178.943 371.240 191.131 381.687C256.419 328.585 325.189 247.628 368.715 163.188M650.761 171.893C721.272 227.606 802.230 306.823 837.921 359.924L892.763 322.492C853.590 269.391 771.762 192.786 702.121 140.555M458.378 467.867C454.896 502.688 451.413 535.767 445.320 566.235L172.850 566.235L172.850 624.559L429.651 624.559C393.089 732.503 311.261 805.626 106.691 843.928C118.878 857.856 134.547 883.972 139.770 899.641C369.585 852.633 458.378 760.359 496.680 624.559L762.186 624.559C750.869 751.654 736.941 805.626 717.790 822.165C709.085 830 699.509 831.741 680.358 831.741C660.336 831.741 604.624 830.871 548.911 824.777C561.098 843.058 569.803 869.173 571.544 889.195C625.516 892.677 678.617 892.677 705.603 890.936C736.071 889.195 756.092 883.972 774.373 865.691C802.230 837.835 817.028 767.323 832.697 595.832C833.568 586.257 835.309 566.235 835.309 566.235L510.608 566.235C515.831 535.767 519.313 502.688 522.795 467.867M467.953 99.641L467.953 368.629L526.277 368.629C412.240 417.378 264.254 443.493 115.396 456.551C126.713 472.220 144.123 500.947 150.217 517.486C386.125 487.018 629.868 427.824 745.646 285.060L681.229 260.686C646.408 304.211 594.177 339.032 531.501 366.017L531.501 99.641"/></svg>