<svg xmlns="http://www.w3.org/2000/svg" viewBox="0 0 1000 1000" fill="currentColor"><path d="M607.470 198.617L607.470 681.240L671.295 681.240L671.295 198.617M821.678 111.186L821.678 811.514C821.678 828.126 815.557 833.372 798.945 834.246C781.459 834.246 727.251 835.120 665.175 833.372C674.792 851.732 685.284 881.459 689.656 899.820C770.093 899.820 819.055 898.071 847.907 887.579C875.011 876.213 887.251 856.978 887.251 811.514L887.251 111.186M489.437 99.820C407.251 135.667 255.120 166.268 125.721 184.628C134.464 198.617 143.208 220.475 146.705 236.213C200.913 229.219 258.617 220.475 315.448 209.109L315.448 357.743L132.716 357.743L132.716 418.945L301.459 418.945C259.492 528.235 182.552 649.765 112.607 715.339C123.973 731.951 141.459 759.055 148.454 777.415C207.907 717.962 269.109 618.290 315.448 518.617L315.448 897.197L380.148 897.197L380.148 550.967C424.738 592.934 481.568 648.891 507.798 677.743L545.393 622.661C520.038 599.929 421.240 514.246 380.148 482.770L380.148 418.945L548.891 418.945L548.891 357.743L380.148 357.743L380.148 195.995C439.601 182.880 494.683 167.142 538.399 149.656"/></svg>