<svg xmlns="http://www.w3.org/2000/svg" viewBox="0 0 1000 1000" fill="currentColor"><path d="M349.093 460.737L349.093 590.770L405.067 590.770L405.067 509.822L842.526 509.822L842.526 589.909L900.223 589.909L900.223 460.737M434.346 244.591L434.346 294.537L774.496 294.537L774.496 358.262L408.511 358.262L408.511 406.485L835.637 406.485L835.637 132.643L408.511 132.643L408.511 181.728L774.496 181.728L774.496 244.591M745.217 620.048C716.800 669.133 675.465 709.607 625.519 741.469C575.573 707.885 535.099 666.550 506.681 620.048M424.012 568.380L424.012 620.048L461.041 620.048L446.402 625.215C477.403 682.051 520.460 731.136 572.128 771.609C502.376 806.055 422.290 829.306 338.759 841.362C349.093 854.279 362.010 879.252 367.177 894.752C459.319 877.530 548.016 849.973 623.797 807.777C690.104 848.251 767.607 877.530 853.721 894.752C862.333 878.391 878.694 854.279 891.611 841.362C812.386 828.445 740.051 805.194 678.048 773.332C743.495 725.108 795.164 663.105 827.026 583.019L789.997 565.797L778.802 568.380M313.786 105.086C265.562 235.980 185.476 365.151 100.223 448.681C112.279 463.321 130.363 496.905 136.391 512.406C166.531 481.405 195.809 445.237 224.227 405.624L224.227 892.169L285.368 892.169L285.368 310.038C319.814 250.619 349.954 186.895 374.927 123.170"/></svg>