<svg xmlns="http://www.w3.org/2000/svg" viewBox="0 0 1000 1000" fill="currentColor"><path d="M595.541 316.312C637.100 329.299 689.048 348.346 727.143 365.662L482.987 365.662C496.840 338.823 508.095 308.519 516.753 275.619L452.684 266.095C444.026 303.325 430.173 336.225 412.857 365.662L126.277 365.662L126.277 421.939L371.299 421.939C308.961 489.472 217.186 530.165 100.303 555.273C113.290 568.260 131.472 594.234 138.398 608.087C273.463 571.723 379.957 516.312 448.355 421.939L559.177 421.939C621.515 510.251 731.472 572.589 860.476 598.563C869.134 582.113 885.584 557.870 900.303 545.749C787.749 528.433 688.182 484.277 628.442 421.939L881.255 421.939L881.255 365.662L766.104 365.662L786.883 334.494C760.043 320.641 716.753 304.190 675.195 291.203L682.121 291.203L682.121 221.939L888.182 221.939L888.182 163.931L682.121 163.931L682.121 100.727L617.186 100.727L617.186 163.931L385.152 163.931L385.152 100.727L321.082 100.727L321.082 163.931L121.948 163.931L121.948 221.939L321.082 221.939L321.082 292.935L385.152 292.935L385.152 221.939L617.186 221.939L617.186 286.874M328.874 543.152L328.874 634.061L328.874 640.987L118.485 640.987L118.485 698.130L321.948 698.130C307.229 753.541 264.805 808.952 147.056 848.779C160.043 860.900 179.957 884.277 187.749 898.996C329.740 847.913 374.762 773.455 387.749 698.130L611.991 698.130L611.991 897.264L676.061 897.264L676.061 698.130L889.048 698.130L889.048 640.987L676.061 640.987L676.061 542.286L611.991 542.286L611.991 640.987L392.078 640.987L392.078 635.792L392.078 543.152"/></svg>