<svg xmlns="http://www.w3.org/2000/svg" viewBox="0 0 1000 1000" fill="currentColor"><path d="M376.930 349.738C396.144 377.686 417.105 414.367 428.459 437.074L489.594 414.367C478.240 392.533 454.659 356.725 437.192 331.397M257.279 175.066L783.917 175.066L783.917 264.148L257.279 264.148M191.777 118.297L191.777 407.380C191.777 541.004 183.917 719.170 100.074 845.808C116.668 852.795 145.489 871.135 156.843 881.616C245.052 750.611 257.279 549.738 257.279 407.380L257.279 321.790L852.913 321.790L852.913 118.297M718.415 328.777C705.314 361.092 682.607 406.507 660.773 442.314L293.087 442.314L293.087 498.210L430.205 498.210L430.205 583.799L429.332 618.734L270.380 618.734L270.380 675.502L419.725 675.502C402.258 733.144 361.210 789.039 260.773 832.707C275.620 844.061 296.581 866.769 304.441 881.616C426.712 827.467 471.253 753.231 486.974 675.502L667.760 675.502L667.760 880.742L732.389 880.742L732.389 675.502L900.074 675.502L900.074 618.734L732.389 618.734L732.389 498.210L875.620 498.210L875.620 442.314L725.402 442.314C745.489 413.493 768.197 380.306 787.410 348.865M667.760 618.734L493.087 618.734L493.961 585.546L493.961 498.210L667.760 498.210"/></svg>