<svg xmlns="http://www.w3.org/2000/svg" viewBox="0 0 1000 1000" fill="currentColor"><path d="M770.138 271.966C630.483 304.724 365.828 323.690 149.448 328.862C155.483 343.517 162.379 369.379 164.103 384.897C384.793 380.586 653.759 361.621 821.862 322.828M188.241 429.724C221 468.517 252.897 522.828 264.966 559.034L322.724 534.034C309.793 497.828 276.172 445.241 242.552 406.448M426.172 406.448C450.310 445.241 471.862 496.103 477.034 528.862L538.241 508.172C531.345 474.552 508.069 425.414 483.069 388.345M766.690 374.552C744.276 425.414 702.034 498.690 669.276 541.793L719.276 565.069C753.759 522.828 796.862 456.448 832.207 398.690M613.241 103.862L613.241 164.207L389.966 164.207L389.966 103.862L324.448 103.862L324.448 164.207L123.586 164.207L123.586 221.966L324.448 221.966L324.448 290.931L389.966 290.931L389.966 221.966L613.241 221.966L613.241 281.448L678.759 281.448L678.759 221.966L883.069 221.966L883.069 164.207L678.759 164.207L678.759 103.862M466.690 534.034L466.690 600.414L121 600.414L121 659.034L408.069 659.034C330.483 730.586 208.931 793.517 100.310 824.552C114.966 837.483 134.793 863.345 145.138 880.586C258.069 841.793 383.931 766.793 466.690 680.586L466.690 896.966L533.931 896.966L533.931 678.862C613.241 765.931 739.103 838.345 856.345 875.414C865.828 857.310 885.655 832.310 900.310 818.517C786.517 790.069 664.966 730.586 589.103 659.034L886.517 659.034L886.517 600.414L533.931 600.414L533.931 534.034"/></svg>