<svg xmlns="http://www.w3.org/2000/svg" viewBox="0 0 1000 1000" fill="currentColor"><path d="M446.095 99.647C373.854 224.507 236.507 376.124 105.404 469.769C120.565 482.255 143.754 504.552 156.240 517.930C290.019 417.149 426.474 263.749 514.768 125.511M617.332 575.009C658.358 624.953 702.059 684.708 740.409 742.679L281.100 779.245C423.798 657.060 573.631 495.633 710.086 310.126L641.412 276.235C505.849 470.661 322.126 657.952 262.371 707.896C207.968 756.949 169.618 788.164 141.970 794.407C151.780 814.028 166.050 847.919 170.509 863.080C204.400 850.594 257.020 849.702 780.543 805.109C801.056 839.892 819.785 871.999 832.271 899.647L895.593 863.972C852.784 777.462 760.922 644.574 677.087 544.686"/></svg>