<svg xmlns="http://www.w3.org/2000/svg" viewBox="0 0 1000 1000" fill="currentColor"><path d="M454.503 641.071C425.130 703.274 381.069 768.069 335.281 812.994C349.968 821.633 375.022 838.911 385.389 848.415C429.449 800.898 478.693 726.600 512.387 657.486M705.043 659.214C750.832 714.505 804.395 791.395 828.585 840.639L880.421 810.402C855.367 762.022 802.667 688.587 753.423 634.160M112.387 140.855L112.387 898.523L170.270 898.523L170.270 199.603L281.717 199.603C260.983 257.486 234.201 334.376 208.283 395.715C274.806 463.965 291.220 522.713 291.220 570.229C291.220 597.875 286.037 621.201 271.350 630.704C264.438 636.752 254.935 638.479 242.840 639.343C229.017 640.207 210.011 640.207 189.276 637.616C198.780 654.894 203.963 679.084 204.827 695.499C225.562 696.363 248.888 696.363 267.030 694.635C285.173 692.043 301.587 686.860 313.683 677.356C338.737 660.078 349.104 623.793 349.104 576.276C348.240 522.713 332.689 460.510 266.166 388.803C297.268 320.553 330.961 235.024 357.743 163.317L316.274 138.263L306.771 140.855M365.518 533.944L365.518 593.555L592.732 593.555L592.732 825.952C592.732 837.184 589.276 841.503 575.454 841.503C563.359 842.367 521.026 842.367 472.646 840.639C483.013 857.918 491.652 882.972 495.108 900.251C557.311 900.251 597.052 899.387 622.106 889.019C647.160 879.516 654.935 861.374 654.935 825.952L654.935 593.555L869.190 593.555L869.190 533.944L654.935 533.944L654.935 428.544L787.981 428.544L787.981 371.525L446.728 371.525L446.728 428.544L592.732 428.544L592.732 533.944M616.058 100.251C559.039 203.922 451.048 304.138 342.192 360.294C357.743 372.389 375.886 392.259 385.389 406.946C470.918 357.702 554.719 284.268 618.650 201.330C692.084 292.907 766.382 350.790 843.272 399.171C852.775 381.028 871.782 360.294 887.333 347.335C806.987 304.138 726.641 246.255 651.479 154.678L671.350 121.849"/></svg>