<svg xmlns="http://www.w3.org/2000/svg" viewBox="0 0 1000 1000" fill="currentColor"><path d="M707.308 541.249L702.085 617.854L517.536 617.854L539.299 604.797C532.335 586.516 514.925 562.141 496.644 541.249M248.548 491.630C245.066 529.933 240.714 574.329 236.361 617.854L99.691 617.854L99.691 668.344L230.268 668.344C224.174 717.092 217.210 762.359 211.116 798.050L679.452 798.050C674.229 821.554 668.135 835.482 661.171 842.446C653.336 851.151 643.761 852.892 628.091 852.892C611.552 852.892 568.897 852.892 523.630 847.669C532.335 861.597 538.429 883.360 539.299 896.418C585.436 899.900 631.573 900.770 655.948 898.159C682.063 897.288 701.214 891.195 716.884 872.914C728.200 859.856 737.776 837.223 745.610 798.050L837.885 798.050L837.885 747.560L753.445 747.560L762.150 668.344L899.691 668.344L899.691 617.854L766.503 617.854L773.467 519.486C773.467 510.781 774.337 491.630 774.337 491.630M440.931 551.695C459.212 570.847 478.363 596.962 489.680 617.854L299.909 617.854L307.743 541.249L459.212 541.249M697.732 668.344C695.121 699.682 691.639 725.798 689.027 747.560L509.702 747.560L534.947 732.762C527.983 714.481 510.572 689.236 491.421 668.344M435.708 679.661C454.860 699.682 474.011 725.798 484.457 747.560L284.239 747.560L293.815 668.344L454.860 668.344M464.435 100.770L464.435 172.152L160.627 172.152L160.627 221.771L464.435 221.771L464.435 280.096L211.116 280.096L211.116 329.715L464.435 329.715L464.435 395.003L124.065 395.003L124.065 444.622L876.187 444.622L876.187 395.003L531.465 395.003L531.465 329.715L795.230 329.715L795.230 280.096L531.465 280.096L531.465 221.771L850.072 221.771L850.072 172.152L531.465 172.152L531.465 100.770"/></svg>