<svg xmlns="http://www.w3.org/2000/svg" viewBox="0 0 1000 1000" fill="currentColor"><path d="M553.280 545.054L778.656 545.054L778.656 587.204L553.280 587.204M553.280 471.075L778.656 471.075L778.656 511.505L553.280 511.505M385.538 310.215C356.290 352.366 308.978 393.656 260.806 421.183C272.849 431.505 292.634 453.011 301.237 462.473C349.409 429.785 403.602 377.312 437.151 326.559M250.484 173.441L777.796 173.441L777.796 247.419L250.484 247.419M185.968 121.828L185.968 376.452C185.968 514.946 179.086 707.634 99.946 843.548C116.290 850.430 145.538 865.914 157.581 876.237C239.301 733.441 250.484 520.968 250.484 375.591L250.484 299.032L841.452 299.032L841.452 121.828M765.753 700.753C740.806 728.280 708.118 750.645 669.409 769.570C629.839 751.505 595.430 730 570.484 704.194L573.925 700.753M401.022 432.366C363.172 495.161 302.097 552.796 241.022 592.366C250.484 605.269 267.688 633.656 272.849 644.839C290.054 632.796 306.398 619.892 323.602 604.409L323.602 877.957L381.237 877.957L381.237 546.774C404.462 520.968 425.968 493.441 444.032 465.054C451.774 477.097 460.376 490.860 464.677 498.602C475.860 488.280 487.903 477.097 499.086 465.054L499.086 622.473L582.527 622.473C541.237 672.366 477.581 717.957 413.065 749.785C425.108 758.387 445.753 776.452 455.215 785.914C481.882 770.430 509.409 752.366 536.075 732.581C558.441 754.946 585.108 774.731 615.215 792.796C561.022 812.581 499.946 825.484 438.871 833.226C448.333 845.269 461.237 865.914 465.538 878.817C537.796 867.634 609.194 849.570 671.989 821.183C730.484 846.989 797.581 864.194 866.398 874.516C874.140 859.892 888.763 839.247 899.946 828.065C838.871 821.183 780.376 810 727.903 792.796C778.656 761.828 820.806 723.118 847.473 673.226L813.065 657.742L801.882 659.462L615.215 659.462C625.538 647.419 635 635.376 643.602 623.333L641.022 622.473L834.570 622.473L834.570 436.667L523.172 436.667C532.634 424.624 542.097 411.720 551.559 397.957L866.398 397.957L866.398 353.226L578.226 353.226L595.430 318.817L543.817 302.473C520.591 356.667 480.161 408.280 437.151 445.269"/></svg>