<svg xmlns="http://www.w3.org/2000/svg" viewBox="0 0 1000 1000" fill="currentColor"><path d="M691.319 138.609C710.387 176.745 727.722 227.883 732.922 260.819L784.060 240.884C777.992 207.948 759.791 158.544 738.989 121.274M105.403 805.998L121.004 864.936C191.210 836.334 282.218 800.797 368.892 765.261L355.024 712.390L292.619 736.659L292.619 435.900L356.757 435.900L356.757 383.896L292.619 383.896L292.619 119.541L239.748 119.541L239.748 757.460L192.944 774.795L192.944 294.622L145.273 294.622L145.273 792.130M383.626 866.670C395.761 852.802 416.562 838.067 533.572 770.462C528.372 759.194 521.438 736.659 517.971 721.924L435.631 764.394L435.631 435.034L503.236 435.034L503.236 383.029L435.631 383.029L435.631 120.407L381.026 120.407L381.026 745.326C381.026 787.796 361.958 815.532 348.957 826.800C360.224 835.467 377.559 855.402 383.626 866.670M716.454 493.105L716.454 614.449L617.646 614.449L617.646 493.105M612.445 100.472C587.310 235.684 546.573 370.895 490.235 461.036C501.503 474.037 517.971 501.772 524.038 514.774C537.039 493.105 550.040 469.703 562.174 443.701L562.174 900.472L617.646 900.472L617.646 857.135L895.002 857.135L895.002 802.531L771.059 802.531L771.059 666.453L867.267 666.453L867.267 614.449L771.059 614.449L771.059 493.105L867.267 493.105L867.267 441.101L771.059 441.101L771.059 318.024L890.668 318.024L890.668 261.686L629.780 261.686C643.648 213.148 655.782 162.878 666.183 112.607M716.454 441.101L617.646 441.101L617.646 318.024L716.454 318.024M716.454 666.453L716.454 802.531L617.646 802.531L617.646 666.453"/></svg>