<svg xmlns="http://www.w3.org/2000/svg" viewBox="0 0 1000 1000" fill="currentColor"><path d="M477.210 270.210L477.210 325.901L781.298 325.901L781.298 270.210M150.138 148.221C204.061 173.856 273.011 214.519 308.370 242.807L347.265 188.884C311.906 161.481 240.304 123.470 188.149 99.602M106.823 385.127C162.514 409.878 234.116 449.657 269.475 477.061L307.486 421.370C270.359 394.851 197.873 357.724 142.182 335.624M132.459 836.840L190.801 881.923C239.420 800.597 295.994 692.751 339.309 600.818L288.039 556.619C241.188 655.624 177.541 769.657 132.459 836.840M363.177 122.586L363.177 898.718L425.939 898.718L425.939 182.696L829.033 182.696L829.033 813.856C829.033 828.884 824.613 833.304 810.470 834.188C796.326 834.188 750.359 835.072 699.972 833.304C708.812 850.983 718.536 881.923 721.188 899.602C791.022 899.602 833.453 898.718 859.088 886.343C884.724 875.735 893.564 854.519 893.564 814.740L893.564 122.586M504.613 414.298L504.613 748.442L558.536 748.442L558.536 692.751L751.243 692.751L751.243 414.298M558.536 470.873L695.552 470.873L695.552 636.177L558.536 636.177"/></svg>