<svg xmlns="http://www.w3.org/2000/svg" viewBox="0 0 1000 1000" fill="currentColor"><path d="M138.898 278.797L138.898 345.987L863.646 345.987L863.646 278.797M263.422 409.592C296.569 528.741 335.091 687.308 348.529 789.436L419.301 771.518C404.072 668.495 366.446 515.303 329.716 394.363M435.427 122.022C452.448 167.711 471.261 228.629 479.324 268.047L548.305 247.442C539.346 208.920 518.741 149.794 500.824 104.105M671.037 394.363C641.474 525.158 585.931 711.496 536.658 827.957L100.376 827.957L100.376 895.147L900.376 895.147L900.376 827.957L609.223 827.957C656.703 713.288 710.455 543.075 747.185 407.801"/></svg>