<svg xmlns="http://www.w3.org/2000/svg" viewBox="0 0 1000 1000" fill="currentColor"><path d="M562.677 100.742L562.677 899.869L629.926 899.869L629.926 690.262L893.681 690.262L893.681 625.633L629.926 625.633L629.926 488.515L860.493 488.515L860.493 426.507L629.926 426.507L629.926 293.755L878.834 293.755L878.834 230L629.926 230L629.926 100.742M105.908 624.760L105.908 689.389L365.297 689.389L365.297 898.996L432.546 898.996L432.546 99.869L365.297 99.869L365.297 229.127L125.996 229.127L125.996 293.755L365.297 293.755L365.297 425.633L139.969 425.633L139.969 488.515L365.297 488.515L365.297 624.760"/></svg>