<svg xmlns="http://www.w3.org/2000/svg" viewBox="0 0 1000 1000" fill="currentColor"><path d="M205.624 107.761C185.966 210.325 150.923 310.325 100.496 375.282C114.171 382.974 139.812 400.068 150.923 409.470C176.564 374.427 198.786 329.983 218.444 279.556L256.051 279.556L256.051 403.487L255.197 447.932L114.171 447.932L114.171 506.051L250.923 506.051C240.667 612.889 205.624 732.547 103.915 824C115.880 830.838 138.957 853.915 147.504 865.880C217.590 802.632 259.470 722.291 283.402 641.949C316.735 689.812 359.470 755.624 378.274 789.812L419.299 735.966C402.205 712.034 333.829 618.872 299.641 576.991C303.915 553.060 307.333 529.128 309.897 506.051L400.496 506.051L400.496 471.009C412.462 481.265 427.846 500.068 436.393 512.889C499.641 483.829 568.872 433.402 619.299 376.991L619.299 493.231L679.983 493.231L679.983 368.444C726.991 426.564 796.222 479.556 859.470 509.470C868.017 494.085 886.821 472.718 900.496 461.607C833.829 437.675 763.744 388.957 717.590 336.821L894.513 336.821L894.513 282.120L679.983 282.120L679.983 204.342C753.487 194.085 822.718 180.410 877.419 165.026L828.701 120.581C739.812 147.077 575.709 168.444 437.248 179.556C444.085 192.376 451.778 213.744 453.487 227.419C506.479 224 562.889 218.872 619.299 212.034L619.299 282.120L417.590 282.120L417.590 336.821L590.239 336.821C542.376 389.812 468.017 439.385 400.496 465.026L400.496 447.932L314.171 447.932L315.026 403.487L315.026 279.556L385.966 279.556L385.966 221.436L238.103 221.436C248.359 188.103 257.761 153.915 264.598 118.872M743.231 623.145C728.701 670.154 703.915 707.761 670.581 737.675C629.556 721.436 587.675 706.906 548.359 694.085C562.034 672.718 576.564 648.786 591.094 623.145M462.889 720.581C510.752 735.966 563.744 755.624 615.026 776.137C558.615 807.761 485.966 827.419 402.205 838.530C412.462 852.205 427.846 878.701 432.120 893.231C531.265 874.427 614.171 847.077 679.128 802.632C747.504 832.547 809.043 864.171 850.923 889.812L896.222 841.949C853.487 816.308 793.658 788.103 729.556 761.607C765.453 724.855 792.803 679.556 810.752 623.145L894.513 623.145L894.513 568.444L621.009 568.444C632.120 546.222 642.376 524 650.923 503.487L591.949 492.376C582.547 516.308 570.581 541.949 556.906 568.444L413.316 568.444L413.316 623.145L526.991 623.145C505.624 659.897 483.402 694.085 462.889 720.581"/></svg>