<svg xmlns="http://www.w3.org/2000/svg" viewBox="0 0 1000 1000" fill="currentColor"><path d="M186.052 280.163L186.052 486.895C186.052 598.947 179.103 753.561 110.482 864.745C126.117 869.957 153.913 887.329 166.074 898.621C238.169 781.357 250.330 608.502 250.330 486.895L250.330 336.623L466.617 336.623L466.617 408.719L289.418 426.091L295.498 474.734L466.617 458.230L466.617 482.552C466.617 546.830 490.938 562.465 585.618 562.465C605.596 562.465 756.736 562.465 777.583 562.465C847.941 562.465 867.920 543.355 875.737 465.179C858.365 461.705 834.043 453.887 820.145 444.332C815.802 501.661 809.722 510.347 771.503 510.347C739.364 510.347 613.414 510.347 588.224 510.347C536.975 510.347 527.420 506.004 527.420 483.420L527.420 452.150L753.262 430.434L747.181 381.792L527.420 402.638L527.420 336.623L805.379 336.623C796.693 362.682 788.007 388.740 778.452 408.719L835.781 429.566C854.890 394.821 874.869 340.966 889.635 292.324L840.992 277.557L828.832 280.163L530.895 280.163L530.895 221.965L825.357 221.965L825.357 168.111L530.895 168.111L530.895 100.358L466.617 100.358L466.617 280.163M389.309 606.764L389.309 693.626C389.309 751.824 364.988 808.284 227.746 848.241C239.038 858.664 259.016 886.460 265.097 900.358C417.105 851.716 451.850 772.671 451.850 695.364L451.850 663.225L609.939 663.225L609.939 800.467C609.939 865.613 629.917 882.986 698.539 882.986C713.305 882.986 792.350 882.986 807.116 882.986C867.051 882.986 884.423 856.059 890.504 749.218C874 744.875 847.941 734.452 834.912 724.028C831.438 813.496 827.094 824.788 801.036 824.788C783.663 824.788 718.517 824.788 706.356 824.788C677.692 824.788 672.480 822.182 672.480 800.467L672.480 606.764"/></svg>