<svg xmlns="http://www.w3.org/2000/svg" viewBox="0 0 1000 1000" fill="currentColor"><path d="M531.187 192.834L789.583 192.834L789.583 350.267L531.187 350.267M471.294 137.219L471.294 405.882L852.043 405.882L852.043 137.219M459.316 641.176L459.316 696.791L627.016 696.791L627.016 808.877L401.989 808.877L401.989 865.348L899.957 865.348L899.957 808.877L690.332 808.877L690.332 696.791L862.310 696.791L862.310 641.176L690.332 641.176L690.332 537.647L881.134 537.647L881.134 481.176L439.636 481.176L439.636 537.647L627.016 537.647L627.016 641.176M384.877 113.262C321.561 142.353 208.620 167.166 112.791 183.422C120.492 197.112 129.048 218.503 131.615 232.193C171.829 227.059 214.610 219.358 257.390 210.802L257.390 342.567L117.925 342.567L117.925 402.460L248.834 402.460C214.610 500.856 155.572 612.086 99.957 672.834C111.080 688.235 126.481 713.904 133.326 731.872C176.963 678.824 222.310 594.118 257.390 507.701L257.390 886.738L320.706 886.738L320.706 517.968C349.797 553.904 384.021 600.107 398.567 624.064L437.070 573.583C419.957 553.904 345.519 476.898 320.706 455.508L320.706 402.460L427.658 402.460L427.658 342.567L320.706 342.567L320.706 196.257C360.920 186.845 398.567 175.722 429.369 162.888"/></svg>