<svg xmlns="http://www.w3.org/2000/svg" viewBox="0 0 1000 1000" fill="currentColor"><path d="M392.043 186.553C415.872 236.766 440.553 304 450.766 344L500.979 326.128C489.915 286.979 464.383 221.447 440.553 172.085M628.638 546.553L798 546.553L798 677.617L628.638 677.617M572.468 492.936L572.468 731.234L855.872 731.234L855.872 492.936M118.851 179.745C137.574 237.617 152.043 312.511 153.745 361.872L199.702 350.809C198 301.447 183.532 227.404 162.255 170.383M339.277 161.872C330.766 219.745 310.340 303.149 294.170 353.362L334.170 365.277C352.043 318.468 375.021 238.468 392.043 175.489M687.362 113.362L687.362 221.447L626.085 221.447C636.298 195.064 644.809 166.979 651.617 139.745L599.702 128.681C582.681 201.021 553.745 272.511 515.447 321.872C528.213 327.830 550.340 341.447 559.702 349.106C575.021 328.681 589.489 304 602.255 276.766L687.362 276.766L687.362 373.787L522.255 373.787L522.255 428.255L893.319 428.255L893.319 373.787L745.234 373.787L745.234 276.766L869.489 276.766L869.489 221.447L745.234 221.447L745.234 113.362M112.894 401.872L112.894 461.447L214.170 461.447C188.638 551.660 141.830 657.191 100.128 715.064C109.489 729.532 124.809 755.915 130.766 773.787C164.809 724.426 198 647.830 225.234 569.532L225.234 891.234L279.702 891.234L279.702 571.234C306.085 608.681 335.872 655.489 349.489 679.319L385.234 628.255C369.915 608.681 305.234 529.532 279.702 502.298L279.702 461.447L361.404 461.447L361.404 515.064L443.106 515.064L443.106 737.191C413.319 752.511 380.128 785.702 347.787 824.851L386.936 878.468C420.979 825.702 453.319 780.596 477.149 780.596C490.766 780.596 509.489 805.277 536.723 826.553C577.574 857.191 626.085 869.106 697.574 869.106C742.681 869.106 837.149 866.553 885.660 863.149C886.511 846.128 895.021 816.340 900.128 801.021C843.957 806.979 756.298 811.234 697.574 811.234C631.191 811.234 584.383 803.574 546.936 775.489C527.362 759.319 513.745 744 500.128 734.638L500.128 457.191L380.128 457.191L380.128 401.872L279.702 401.872L279.702 109.106L225.234 109.106L225.234 401.872"/></svg>