<svg xmlns="http://www.w3.org/2000/svg" viewBox="0 0 1000 1000" fill="currentColor"><path d="M730.065 152.871C764.473 188.140 804.043 238.032 821.247 270.720L871.140 239.753C852.215 207.065 811.785 159.753 777.376 125.344M368.774 731.796C379.097 783.409 385.118 850.505 385.978 890.935L449.634 881.473C448.774 842.763 439.312 776.527 428.129 725.774M545.978 730.075C568.344 780.828 589.849 848.785 597.591 889.215L661.247 875.452C652.645 835.022 628.559 768.785 605.333 718.892M724.043 725.774C767.054 779.108 816.086 853.086 836.731 899.538L896.946 871.151C874.581 825.559 823.828 753.301 780.817 701.688M219.957 707.710C190.710 766.204 145.978 833.301 107.269 873.731L167.484 897.817C207.054 853.086 250.065 783.409 279.312 724.054M643.183 116.742L643.183 272.441L643.183 288.785L502.968 288.785L502.968 350.720L638.882 350.720C625.118 452.226 576.086 562.333 414.366 646.634C429.849 657.817 450.495 677.602 460.817 691.366C587.269 624.269 649.204 539.108 678.452 452.226C716.301 556.312 773.075 637.172 854.796 686.204C863.398 669.860 883.183 645.774 897.806 633.731C800.602 582.118 738.667 478.892 705.978 350.720L883.183 350.720L883.183 288.785L704.258 288.785L704.258 273.301L704.258 116.742M293.935 99.538C261.247 204.484 189.849 329.215 101.247 405.774C115.011 415.237 135.656 434.161 145.978 446.204C207.914 391.151 260.387 315.452 302.538 236.312L444.473 236.312C434.151 275.022 422.108 312.011 407.484 345.559C376.516 325.774 338.667 305.129 305.978 290.505L275.871 328.355C311.140 345.559 353.290 369.645 384.258 391.151C369.634 418.677 352.430 443.624 334.366 466.849C305.118 443.624 265.548 417.817 232 398.892L195.871 433.301C230.280 454.806 270.710 482.333 299.097 507.280C248.344 559.753 188.129 599.323 121.032 627.710C135.656 638.032 157.161 662.978 165.763 677.602C331.785 601.043 465.118 449.645 516.731 196.742L478.022 181.258L465.978 182.978L328.344 182.978C338.667 160.613 348.129 138.247 355.871 115.882"/></svg>