<svg xmlns="http://www.w3.org/2000/svg" viewBox="0 0 1000 1000" fill="currentColor"><path d="M485.984 326.176L782.027 326.176L782.027 407.460L485.984 407.460M485.984 196.123L782.027 196.123L782.027 276.551L485.984 276.551M427.802 143.930L427.802 460.508L842.775 460.508L842.775 143.930M655.396 487.032L655.396 799.332C655.396 863.503 670.797 882.326 734.112 882.326C746.947 882.326 811.973 882.326 824.807 882.326C877.856 882.326 894.112 854.091 900.102 752.273C882.989 748.850 859.032 739.439 846.198 729.171C843.631 813.021 840.209 827.567 818.818 827.567C805.984 827.567 752.936 827.567 742.668 827.567C719.567 827.567 716.144 823.289 716.144 799.332L716.144 675.267C774.326 652.166 838.497 623.075 888.979 594.840L846.198 548.636C814.540 571.738 764.059 599.118 716.144 622.219L716.144 487.032M421.813 895.160C437.214 885.749 463.738 878.048 634.861 836.123C632.294 823.289 628.872 798.476 628.016 782.219L493.684 811.310L493.684 652.166L625.449 652.166L625.449 596.551L493.684 596.551L493.684 492.166L432.080 492.166L432.080 789.920C432.080 819.866 414.112 827.567 399.567 832.701C408.979 848.102 419.246 878.904 421.813 895.160M239.567 104.572L239.567 283.396L113.791 283.396L113.791 344.144L234.433 344.144C207.909 457.086 154.005 586.283 100.102 652.166C110.369 668.422 125.770 695.802 131.759 713.770C171.118 659.866 210.476 571.738 239.567 480.187L239.567 890.882L298.604 890.882L298.604 443.396C326.840 482.754 360.209 532.380 374.754 558.048L408.979 502.433C392.722 482.754 325.128 401.471 298.604 374.091L298.604 344.144L397 344.144L397 283.396L298.604 283.396L298.604 104.572"/></svg>