<svg xmlns="http://www.w3.org/2000/svg" viewBox="0 0 1000 1000" fill="currentColor"><path d="M620.528 750.348C698.181 788.271 795.698 846.059 843.553 884.885L895.923 844.253C844.456 804.524 745.133 749.445 669.287 714.230M312.628 714.230C260.257 760.280 177.187 806.330 103.147 836.126C118.497 846.962 143.779 869.535 155.517 882.176C226.849 847.865 315.336 792.786 374.027 739.512M248.519 279.919L475.156 279.919L475.156 355.765L248.519 355.765M541.070 279.919L775.833 279.919L775.833 355.765L541.070 355.765M248.519 154.411L475.156 154.411L475.156 228.451L248.519 228.451M541.070 154.411L775.833 154.411L775.833 228.451L541.070 228.451M213.305 561.634C230.460 554.411 255.743 550.799 425.494 539.964C355.065 572.470 295.472 595.946 266.578 605.878C215.111 623.937 177.187 635.675 148.293 637.481C154.614 655.540 163.643 685.336 165.449 698.880C191.634 688.948 225.946 686.239 476.962 673.598L476.962 825.291C476.962 836.126 474.253 838.835 462.515 838.835C448.971 839.738 407.436 839.738 360.483 838.835C370.415 855.991 381.251 881.273 384.862 900.235C445.359 900.235 486.894 900.235 513.982 890.302C541.070 880.370 548.293 863.214 548.293 827.097L548.293 669.986L781.251 658.248C800.212 678.113 816.465 697.074 829.106 713.327L878.767 673.598C843.553 627.549 770.415 558.023 706.307 511.070L657.549 544.479C681.025 562.537 705.404 584.208 729.783 606.781L357.774 623.937C471.544 581.499 586.217 528.226 700.889 462.312L648.519 421.679C614.208 443.350 577.187 464.117 541.070 483.079L339.716 493.011C383.959 469.535 429.106 441.544 472.447 409.941L842.650 409.941L842.650 100.235L183.508 100.235L183.508 409.941L374.930 409.941C325.269 444.253 275.607 472.244 255.743 480.370C232.266 492.108 211.499 499.332 195.246 501.138C201.567 518.293 210.596 548.090 213.305 561.634"/></svg>