<svg xmlns="http://www.w3.org/2000/svg" viewBox="0 0 1000 1000" fill="currentColor"><path d="M138.227 279.426C134.752 347.178 121.723 437.515 100.876 491.369L148.650 510.479C170.366 448.807 182.527 354.996 185.132 285.506M364.937 253.367C351.039 308.959 324.112 388.872 303.265 437.515L340.616 454.887C364.937 407.982 392.733 334.149 416.186 274.214M232.038 105.701L232.038 401.033C232.038 560.859 219.009 725.897 100.008 854.453C113.906 864.008 133.884 884.855 143.439 898.752C211.191 828.394 247.673 747.612 267.651 661.619C301.528 705.919 344.959 766.722 364.068 799.730L409.237 751.955C390.127 726.765 307.608 621.662 280.681 592.129C289.367 529.588 291.104 465.311 291.104 401.033L291.104 105.701M827.912 140.446C808.802 178.666 786.218 216.016 761.897 250.761L761.897 203.856L631.604 203.856L631.604 101.358L568.194 101.358L568.194 203.856L433.558 203.856L433.558 260.316L568.194 260.316L568.194 359.339L399.682 359.339L399.682 419.274L612.494 419.274C531.712 491.369 438.770 551.304 338.010 595.604C350.170 607.764 371.017 634.692 378.835 646.852C430.952 621.662 480.464 592.129 528.238 559.990C515.208 610.370 500.442 662.488 486.544 700.707L782.744 700.707C772.320 785.832 760.160 824.051 744.524 837.080C735.838 843.161 725.415 844.029 706.305 844.029C684.590 844.029 622.917 843.161 562.983 837.949C574.275 854.453 582.961 878.774 583.830 896.147C642.896 899.621 698.488 899.621 727.152 897.884C757.554 897.015 776.663 893.541 794.036 876.168C819.226 853.584 833.124 797.992 847.022 672.911C848.759 664.225 849.628 645.984 849.628 645.984L565.588 645.984L592.516 546.092L878.292 546.092L878.292 492.238L617.706 492.238C645.502 469.654 671.560 445.332 696.750 419.274L900.008 419.274L900.008 359.339L751.473 359.339C802.722 299.404 847.022 233.389 884.372 161.293M631.604 260.316L754.948 260.316C730.626 295.061 702.831 328.068 674.166 359.339L631.604 359.339"/></svg>