<svg xmlns="http://www.w3.org/2000/svg" viewBox="0 0 1000 1000" fill="currentColor"><path d="M362.878 375.651C423.887 439.238 502.942 526.886 540.751 578.444L592.308 534.620C552.781 483.922 471.148 399.711 410.998 339.561M271.793 127.316L271.793 371.354C271.793 514.856 255.466 697.885 99.934 825.919C114.542 835.372 140.321 859.432 149.773 872.321C314.757 737.412 337.958 526.027 337.958 372.214L337.958 191.763L632.695 191.763L632.695 740.850C632.695 825.060 653.318 848.261 717.765 848.261C731.513 848.261 797.679 848.261 811.427 848.261C878.452 848.261 893.919 797.563 899.934 651.483C881.030 647.187 855.251 635.157 838.925 621.408C835.488 752.880 832.050 785.533 805.412 785.533C792.523 785.533 738.388 785.533 727.217 785.533C703.157 785.533 698.001 779.518 698.001 741.709L698.001 127.316"/></svg>