<svg xmlns="http://www.w3.org/2000/svg" viewBox="0 0 1000 1000" fill="currentColor"><path d="M121.392 385.742L121.392 442.635L889.007 442.635L889.007 385.742L536.271 385.742L536.271 306.092L819.860 306.092L819.860 251.825L536.271 251.825L536.271 174.801L848.744 174.801L848.744 117.908L156.403 117.908L156.403 174.801L470.626 174.801L470.626 251.825L190.538 251.825L190.538 306.092L470.626 306.092L470.626 385.742M628.175 464.516L628.175 575.676L380.473 575.676L380.473 572.175L380.473 464.516L315.702 464.516L315.702 571.300L315.702 575.676L113.514 575.676L113.514 635.195L310.451 635.195C296.446 706.092 249.182 777.864 99.510 829.505C113.514 841.759 132.770 865.392 141.523 881.147C313.952 818.127 363.842 727.098 376.972 635.195L628.175 635.195L628.175 882.022L695.571 882.022L695.571 635.195L899.510 635.195L899.510 575.676L695.571 575.676L695.571 464.516"/></svg>