<svg xmlns="http://www.w3.org/2000/svg" viewBox="0 0 1000 1000" fill="currentColor"><path d="M574.912 697.421C658.246 758.825 765.263 846.544 817.895 899.175L880.175 858.825C823.158 805.316 713.509 721.982 632.807 663.211M348.596 664.965C299.474 730.754 200.351 807.070 114.386 853.561C129.298 864.965 152.982 886.018 166.140 900.053C254.737 849.175 353.860 767.596 417.018 691.281M138.070 278.123L138.070 341.281L305.614 341.281L305.614 550.053L102.105 550.053L102.105 614.088L898.596 614.088L898.596 550.053L691.579 550.053L691.579 341.281L867.018 341.281L867.018 278.123L691.579 278.123L691.579 100.053L624.035 100.053L624.035 278.123L373.158 278.123L373.158 100.053L305.614 100.053L305.614 278.123M373.158 550.053L373.158 341.281L624.035 341.281L624.035 550.053"/></svg>