<svg xmlns="http://www.w3.org/2000/svg" viewBox="0 0 1000 1000" fill="currentColor"><path d="M522.368 291.526C546.053 346.789 570.614 422.228 580.263 466.965L626.754 450.298C617.105 407.316 590.789 333.632 566.228 278.368M718.860 288.895C742.544 344.158 767.105 417.842 775.877 461.702L823.246 447.667C813.596 404.684 787.281 331.877 762.719 278.368M427.632 184.509C417.105 218.719 396.053 270.474 378.509 304.684L349.561 304.684L349.561 170.474C403.947 163.456 454.825 155.561 495.175 145.912L459.211 100.298C380.263 119.596 239.035 135.386 123.246 142.404C130.263 154.684 136.404 174.860 139.035 188.018C187.281 186.263 240.789 181.877 293.421 176.614L293.421 304.684L117.982 304.684L117.982 356.439L270.614 356.439C229.386 415.211 161.842 476.614 106.579 509.947C116.228 524.860 129.386 550.298 134.649 566.965L148.684 557.316L148.684 900.298L200.439 900.298L200.439 850.298L433.772 850.298L433.772 889.772L487.281 889.772L487.281 550.298L157.456 550.298C204.825 513.456 254.825 459.070 293.421 405.561L293.421 534.509L349.561 534.509L349.561 403.807C394.298 439.772 454.825 492.404 478.509 517.842L511.842 466.088C489.912 447.667 401.316 384.509 358.333 356.439L498.684 356.439L498.684 304.684L430.263 304.684C446.053 274.860 463.596 236.263 478.509 201.175M162.719 208.193C175.877 238.895 190.789 280.123 197.807 304.684L244.298 289.772C237.281 266.088 221.491 226.614 207.456 196.789M296.930 721.351L296.930 797.667L200.439 797.667L200.439 721.351M345.175 721.351L433.772 721.351L433.772 797.667L345.175 797.667M296.930 673.982L200.439 673.982L200.439 602.053L296.930 602.053M345.175 673.982L345.175 602.053L433.772 602.053L433.772 673.982M507.456 656.439L538.158 702.053C570.614 667.842 606.579 627.491 642.544 587.140L642.544 825.737C642.544 837.140 639.035 839.772 629.386 839.772C618.860 840.649 587.281 840.649 553.947 839.772C562.719 855.561 569.737 881.877 571.491 896.789C618.860 896.789 650.439 895.912 670.614 886.263C689.912 875.737 696.930 858.193 696.930 825.737L696.930 135.386L524.123 135.386L524.123 191.526L642.544 191.526L642.544 511.702C591.667 568.719 540.789 622.228 507.456 656.439M708.333 646.789L739.912 692.404C769.737 660.825 803.070 623.982 835.526 587.140L835.526 823.982C835.526 836.263 832.018 839.772 821.491 839.772C811.842 839.772 778.509 840.649 743.421 838.895C752.193 854.684 760.965 882.754 763.596 898.544C810.965 898.544 844.298 896.789 864.474 887.140C885.526 876.614 892.544 858.193 892.544 824.860L892.544 136.263L717.982 136.263L717.982 192.404L835.526 192.404L835.526 512.579C788.158 564.333 740.789 615.211 708.333 646.789"/></svg>