<svg xmlns="http://www.w3.org/2000/svg" viewBox="0 0 1000 1000" fill="currentColor"><path d="M350.379 339.793C339.172 451 316.759 546.690 284.862 625.138C259.862 606.172 233.138 587.207 208.138 570.828C223.655 504.448 240.897 423.414 255.552 339.793M138.310 593.241C177.966 618.241 220.207 649.276 259 681.172C221.069 752.724 173.655 806.172 116.759 840.655C132.276 852.724 149.517 876.862 159 892.379C218.483 851.862 268.483 796.690 308.138 724.276C334 749.276 357.276 772.552 372.793 794.103L415.034 745.828C396.069 721.690 368.483 694.966 335.724 666.517C377.966 568.241 404.690 443.241 415.897 285.483L377.103 277.724L365.897 279.448L265.897 279.448C275.379 218.241 284 157.897 289.172 103.586L227.103 100.138C222.793 155.310 215.034 216.517 204.690 279.448L123.655 279.448L123.655 339.793L194.345 339.793C177.966 435.483 157.276 526.862 138.310 593.241M590.034 126.862C625.379 164.793 663.310 215.655 680.552 251L477.966 251L477.966 507.034C477.966 617.379 468.483 756.172 378.828 855.310C393.483 863.931 419.345 887.207 429.690 900.138C520.207 801.862 539.172 652.724 541.759 532.897L821.069 532.897L821.069 589.793L883.138 589.793L883.138 251L682.276 251L737.448 221.690C720.207 188.069 681.414 138.931 644.345 101.862M821.069 474.276L541.759 474.276L541.759 309.621L821.069 309.621"/></svg>