<svg xmlns="http://www.w3.org/2000/svg" viewBox="0 0 1000 1000" fill="currentColor"><path d="M260.957 723.913L687.913 723.913L687.913 814.348L260.957 814.348M260.957 671.739L260.957 584.783L687.913 584.783L687.913 671.739M422.696 441.304C415.739 466.522 400.957 502.174 388.783 530L195.739 530L195.739 899.565L260.957 899.565L260.957 869.130L687.913 869.130L687.913 899.565L755.739 899.565L755.739 530L454.870 530L493.130 457.826M163.565 480.435C182.696 470 NaN 462.174 463.565 408.261C461.826 394.348 460.087 368.261 460.957 350.870L247.043 393.478L247.043 256.957L453.130 256.957L453.130 200.435L247.043 200.435L247.043 99.565L179.217 99.565L179.217 370.870C179.217 404.783 154.870 417.826 139.217 423.913C148.783 436.957 160.087 464.783 163.565 480.435M502.696 99.565L502.696 376.087C502.696 447.391 524.435 467.391 610.522 467.391C628.783 467.391 747.043 467.391 766.174 467.391CNaN 467.391 853.130 441.304 860.957 344.783C843.565 341.304 817.478 331.739 803.565 321.304C799.217 396.087 NaN 408.261 760.957 408.261C734.870 408.261 635.739 408.261 616.609 408.261C574 408.261 567.043 403.913 567.043 376.087L567.043 294.348C654.870 271.739 753.130 242.174 822.696 207.391L776.609 157.826C727.043 185.652 645.304 216.087 567.043 239.565L567.043 99.565"/></svg>