<svg xmlns="http://www.w3.org/2000/svg" viewBox="0 0 1000 1000" fill="currentColor"><path d="M456.957 104.419C454.376 127.645 451.796 150.871 446.634 174.097L161.043 174.097L161.043 230.011L433.731 230.011C428.570 250.656 421.688 272.161 413.946 292.806L190.290 292.806L190.290 346.140L391.581 346.140C380.398 369.366 368.355 391.731 354.591 413.237L115.452 413.237L115.452 470.011L314.161 470.011C260.828 537.108 190.290 596.462 99.968 641.194C115.452 652.376 136.957 675.602 144.699 691.946C193.731 666.140 236.742 636.892 275.452 603.344L275.452 894.957L341.688 894.957L341.688 860.548L659.108 860.548L659.108 891.516L727.925 891.516L727.925 603.344C767.495 637.753 811.366 667 854.376 687.645C864.699 671.301 884.484 646.355 899.968 634.312C818.247 601.624 735.667 539.688 683.194 470.011L884.484 470.011L884.484 413.237L429.430 413.237C442.333 390.871 452.656 368.505 462.978 346.140L810.505 346.140L810.505 292.806L483.624 292.806C490.505 272.161 496.527 250.656 502.548 230.011L836.312 230.011L836.312 174.097L515.452 174.097C518.892 152.591 522.333 131.946 524.914 110.441M395.022 470.011L611.796 470.011C626.419 493.237 642.763 515.602 661.688 537.108L342.548 537.108C361.473 515.602 378.677 493.237 395.022 470.011M341.688 721.194L659.108 721.194L659.108 805.495L341.688 805.495M341.688 670.441L341.688 591.301L659.108 591.301L659.108 670.441"/></svg>