<svg xmlns="http://www.w3.org/2000/svg" viewBox="0 0 1000 1000" fill="currentColor"><path d="M107.547 159.577L107.547 758.489L159.778 758.489L159.778 675.790L306.024 675.790L306.024 462.515L319.082 480.795C339.974 459.903 359.125 436.399 377.406 411.155L377.406 898.641L438.342 898.641L438.342 310.175C471.421 246.628 497.536 178.728 517.558 115.181L452.270 99.511C427.025 197.879 375.665 317.139 306.024 401.579L306.024 159.577M464.457 608.761L464.457 664.473L636.818 664.473C621.149 730.632 576.753 802.885 453.140 855.115C467.069 866.432 485.349 885.583 493.184 898.641C604.609 846.410 657.711 781.122 682.955 715.834C716.035 801.144 771.748 865.561 854.446 899.511C863.151 883.842 879.691 862.950 892.749 851.633C804.827 822.906 747.373 753.266 717.776 664.473L879.691 664.473L879.691 608.761L702.977 608.761L703.848 586.998L703.848 494.724L860.540 494.724L860.540 440.752L593.293 440.752C602.868 415.507 610.703 390.262 617.667 366.758L559.343 355.442C544.544 421.601 510.594 505.170 462.716 556.530C475.774 564.365 496.666 578.293 507.983 588.739C531.486 562.624 552.379 530.415 569.789 494.724L644.653 494.724L644.653 586.127L643.782 608.761M480.997 294.506L480.997 351.089L880.561 351.089L880.561 294.506L791.769 294.506C797.863 244.887 803.956 189.174 806.568 139.555L762.172 134.332L751.726 137.814L547.156 137.814L547.156 193.527L742.150 193.527C739.539 224.865 736.057 261.427 731.704 294.506M159.778 219.642L253.793 219.642L253.793 616.595L159.778 616.595"/></svg>