<svg xmlns="http://www.w3.org/2000/svg" viewBox="0 0 1000 1000" fill="currentColor"><path d="M203.535 275.968C237.934 338.592 274.097 420.621 286.445 471.778L348.187 447.964C334.075 397.688 297.030 316.541 260.867 256.563M747.746 240.687C725.696 304.193 685.122 393.278 651.605 447.964L706.291 470.014C740.690 417.975 783.910 334.182 818.309 264.502M105.630 504.413L105.630 572.330L471.671 572.330L471.671 809.595C471.671 828.118 464.615 833.410 444.329 834.292C424.042 835.174 355.244 836.056 281.153 832.528C292.620 851.933 304.968 881.922 309.378 900.444C402.873 900.444 461.087 899.562 493.722 888.978C528.121 878.394 542.234 858.107 542.234 809.595L542.234 572.330L894.163 572.330L894.163 504.413L542.234 504.413L542.234 204.524C644.549 193.939 740.690 179.827 814.781 160.422L780.381 100.444C635.729 138.372 375.530 160.422 162.961 168.361C169.136 184.237 177.074 209.816 177.956 227.456C270.569 224.810 372.884 220.400 471.671 211.580L471.671 504.413"/></svg>