<svg xmlns="http://www.w3.org/2000/svg" viewBox="0 0 1000 1000" fill="currentColor"><path d="M243.874 103.081C216.258 160.039 161.026 232.531 110.109 279.133C120.465 291.215 136.862 314.516 144.629 327.461C202.450 274.818 264.586 194.559 303.421 124.656M703.852 162.628L703.852 222.175L882.493 222.175L882.493 162.628M475.157 609.661C473.431 626.058 471.706 641.592 469.117 656.263L318.955 656.263L318.955 709.769L454.446 709.769C432.871 771.042 390.584 817.644 306.010 846.123C317.229 856.479 332.763 877.191 338.804 890.136C424.241 859.068 472.569 811.603 500.184 748.604C548.512 787.439 599.429 833.178 625.319 866.835L665.017 826.274C637.401 793.480 584.758 746.878 534.704 709.769L679.688 709.769L679.688 656.263L526.937 656.263L532.978 609.661M437.186 227.353L540.745 227.353C530.389 254.106 518.307 283.448 505.362 305.886L394.036 305.886C410.433 279.996 424.241 254.106 437.186 227.353M261.997 275.681C223.162 366.296 161.026 458.636 99.753 520.772C111.835 534.580 131.684 563.922 138.588 576.867C159.300 554.429 180.012 528.539 200.724 500.060L200.724 897.040L260.271 897.040L260.271 409.446C272.353 389.597 283.572 368.885 294.791 348.173C308.599 355.077 327.585 370.611 336.215 382.693L349.160 368.022L349.160 595.853L658.113 595.853L658.113 305.886L564.046 305.886C583.032 272.229 601.155 233.394 614.963 198.011L576.128 172.984L567.498 175.573L458.761 175.573C467.391 154.861 474.294 135.012 480.335 115.163L421.652 106.533C400.940 177.299 361.242 267.051 299.969 336.091L319.818 295.530M398.351 472.444L480.335 472.444L480.335 548.388L398.351 548.388M529.526 472.444L606.333 472.444L606.333 548.388L529.526 548.388M398.351 353.351L480.335 353.351L480.335 427.569L398.351 427.569M529.526 353.351L606.333 353.351L606.333 427.569L529.526 427.569M684.003 374.926L684.003 435.335L769.440 435.335L769.440 821.959C769.440 830.589 767.714 833.178 757.358 834.041C747.865 834.904 717.660 834.904 684.003 834.041C691.770 851.301 699.537 876.328 701.263 893.588C748.728 893.588 781.522 891.862 801.371 882.369C822.946 872.013 828.124 854.753 828.124 821.959L828.124 435.335L899.753 435.335L899.753 374.926"/></svg>