<svg xmlns="http://www.w3.org/2000/svg" viewBox="0 0 1000 1000" fill="currentColor"><path d="M337.996 457.568L337.996 589.445L395.638 589.445L395.638 507.349L839.306 507.349L839.306 588.572L899.568 588.572L899.568 457.568M140.616 150.144C193.891 176.345 259.393 217.393 291.707 246.214L331.882 192.939C298.694 164.991 231.445 127.437 179.044 103.856M99.568 378.965C153.716 405.166 220.092 447.087 253.279 475.908L292.581 422.633C258.520 394.686 190.397 355.384 137.122 331.803M127.515 845.341L184.284 883.769C223.585 801.672 269 693.376 302.188 600.799L251.533 564.118C214.852 662.808 163.323 778.092 127.515 845.341M424.459 238.354L424.459 289.009L770.310 289.009L770.310 353.638L400.004 353.638L400.004 402.546L833.192 402.546L833.192 124.817L400.004 124.817L400.004 174.598L770.310 174.598L770.310 238.354M740.616 619.140C710.921 668.048 669.873 708.223 619.218 740.537C569.437 707.349 529.262 666.301 500.441 619.140M414.852 566.738L414.852 619.140L455.026 619.140L440.179 624.380C471.620 681.148 513.541 730.930 565.943 771.105C494.328 806.913 411.358 829.620 324.895 841.847C335.376 855.821 348.476 880.275 353.716 895.996C448.913 879.402 539.742 851.454 617.472 807.786C684.721 848.834 764.197 878.528 852.406 895.996C862.013 879.402 877.734 855.821 891.707 842.721C810.485 829.620 736.249 806.039 672.493 772.852C738.869 724.817 791.271 662.808 823.585 581.585L786.031 564.118L773.803 566.738"/></svg>