<svg xmlns="http://www.w3.org/2000/svg" viewBox="0 0 1000 1000" fill="currentColor"><path d="M149.391 154.348C198.087 184.783 264.174 227.391 297.217 253.478L333.739 197.826C299.826 174.348 233.739 134.348 185.913 106.522M105.043 389.130C154.609 416.087 221.565 456.957 255.478 481.304L290.261 425.652C255.478 403.043 188.522 364.783 139.826 340.435M127.652 850L186.783 888.261C228.522 806.522 278.957 697.826 315.478 604.783L263.304 567.391C222.435 666.522 166.783 782.174 127.652 850M491.130 99.565L491.130 218.696L348.522 218.696L348.522 276.087L491.130 276.087L491.130 391.739L353.739 391.739C347.652 464.783 335.478 558.696 324.174 618.696L480.696 618.696C465.043 712.609 425.913 794.348 331.130 859.565C345.913 869.130 367.652 887.391 378.087 899.565C483.304 824.783 525.043 729.130 539.826 618.696L643.304 618.696L643.304 896.957L703.304 896.957L703.304 618.696L834.609 618.696C830.261 705.652 825.043 739.565 817.217 749.130CNaN 756.087 806.783 756.957 797.217 756.957C788.522 756.957 768.522 756.957 744.174 754.348CNaN 768.261 757.217 790.870 758.087 806.522C785.043 808.261 NaN 808.261 825.913 806.522C845.043 804.783 857.217 799.565 867.652 786.522C883.304 766.522 889.391 716.087 894.609 584.783C895.478 577.826 895.478 561.304 895.478 561.304L703.304 561.304L703.304 448.261L845.043 448.261L845.043 218.696L703.304 218.696L703.304 99.565L643.304 99.565L643.304 218.696L548.522 218.696L548.522 99.565M403.304 448.261L491.130 448.261L491.130 467.391C491.130 499.565 490.261 530.870 487.652 561.304L388.522 561.304M643.304 448.261L643.304 561.304L545.913 561.304C547.652 530.870 548.522 499.565 548.522 467.391L548.522 448.261M643.304 276.087L643.304 391.739L548.522 391.739L548.522 276.087M703.304 276.087L788.522 276.087L788.522 391.739L703.304 391.739"/></svg>