<svg xmlns="http://www.w3.org/2000/svg" viewBox="0 0 1000 1000" fill="currentColor"><path d="M276.207 466.877L728.907 466.877L728.907 538.583L276.207 538.583M276.207 350.246L728.907 350.246L728.907 420.225L276.207 420.225M214.868 301.002L214.868 587.827L469.728 587.827C465.408 612.881 460.225 636.207 452.449 656.942L117.244 656.942L117.244 713.961L423.940 713.961C377.287 780.484 286.575 820.225 99.965 840.959C111.197 853.918 125.019 881.564 130.203 897.978C349.641 868.605 448.994 810.721 496.510 713.961L501.693 713.961C570.808 821.089 691.758 876.380 861.089 897.114C869.728 878.972 885.279 853.054 899.965 839.231C750.505 826.272 636.467 787.395 571.672 713.961L883.551 713.961L883.551 656.942L518.108 656.942C524.156 635.343 529.339 612.881 532.795 587.827L791.974 587.827L791.974 301.002M122.428 160.181L122.428 218.929L314.220 218.929L314.220 286.315L377.287 286.315L377.287 218.929L620.916 218.929L620.916 287.179L683.983 287.179L683.983 218.929L880.095 218.929L880.095 160.181L683.983 160.181L683.983 103.162L620.916 103.162L620.916 160.181L377.287 160.181L377.287 102.298L314.220 102.298L314.220 160.181"/></svg>