<svg xmlns="http://www.w3.org/2000/svg" viewBox="0 0 1000 1000" fill="currentColor"><path d="M526.276 345.379L771.966 345.379L771.966 424.690L526.276 424.690M468.517 297.966L468.517 472.103L832.310 472.103L832.310 297.966M582.310 672.966L718.517 672.966L718.517 755.724L582.310 755.724M533.172 626.414L533.172 802.276L769.379 802.276L769.379 626.414M365.931 116.069C308.172 141.931 208.172 164.345 121.966 179C129.724 193.655 138.345 216.069 140.069 229.862C173.690 225.552 209.034 219.517 244.379 212.621L244.379 352.276L121.966 352.276L121.966 413.483L234.897 413.483C203.862 510.897 149.552 622.103 100.414 683.310C110.759 698.828 128 726.414 134.897 744.517C173.690 692.793 213.345 611.759 244.379 527.276L244.379 899.690L305.586 899.690L305.586 502.276C329.724 535.897 358.172 578.138 368.517 600.552L408.172 547.966C392.655 529 328 456.586 305.586 435.034L305.586 413.483L419.379 413.483L419.379 352.276L305.586 352.276L305.586 199.690C342.655 190.207 378 179.862 407.310 168.655M585.759 116.931C598.690 140.207 610.759 168.655 620.241 194.517L406.448 194.517L406.448 249.690L900.414 249.690L900.414 194.517L688.345 194.517C678.862 166.069 661.621 129 646.103 100.552M415.069 521.241L415.069 897.966L473.690 897.966L473.690 576.414L828 576.414L828 836.759C828 845.379 824.552 847.966 815.931 847.966C808.172 847.966 779.724 847.966 748.690 847.103C756.448 861.759 764.207 883.310 765.931 897.966C813.345 898.828 843.517 897.966 862.483 888.483C882.310 880.724 886.621 865.207 886.621 836.759L886.621 521.241"/></svg>