<svg xmlns="http://www.w3.org/2000/svg" viewBox="0 0 1000 1000" fill="currentColor"><path d="M809.605 381.955L809.605 538.535L549.538 538.535C551.337 513.339 551.337 488.142 551.337 464.745L551.337 381.955M809.605 320.763L551.337 320.763L551.337 170.481L809.605 170.481M486.546 109.289L486.546 464.745C486.546 594.328 475.747 753.609 362.361 864.295C378.559 871.494 406.456 888.592 417.254 900.290C500.044 819.300 532.440 707.714 545.038 599.728L809.605 599.728L809.605 804.002C809.605 818.400 805.106 822 791.607 822.900C778.109 822.900 734.915 822.900 688.120 822C698.019 839.098 707.018 869.694 709.718 887.692C775.409 887.692 815.004 885.892 841.101 875.093C865.398 864.295 874.397 843.597 874.397 804.902L874.397 109.289M126.591 102.990L126.591 892.191L191.382 892.191L191.382 164.182L336.264 164.182C316.467 224.475 290.370 303.665 264.273 368.457C329.065 439.548 345.263 500.740 345.263 550.234C345.263 577.231 340.764 601.528 326.366 611.426C319.166 616.826 309.268 619.525 298.469 619.525C284.071 620.425 266.073 620.425 245.376 618.625C256.174 636.623 262.474 664.520 263.373 680.718C284.071 682.517 306.568 682.517 324.566 679.818C343.463 678.018 359.661 672.619 373.160 662.720C399.256 644.722 409.155 606.027 409.155 556.533C409.155 500.740 393.857 435.948 328.165 360.358C358.762 290.166 392.057 201.978 419.054 128.187L372.260 100.290L361.461 102.990"/></svg>