<svg xmlns="http://www.w3.org/2000/svg" viewBox="0 0 1000 1000" fill="currentColor"><path d="M348.959 697.364C391.521 739.058 442.770 795.518 466.223 832L521.814 795.518C496.624 759.036 444.507 703.444 401.076 664.356M452.325 99.752L440.164 177.060L168.286 177.060L168.286 233.520L429.740 233.520L413.237 304.747L202.162 304.747L202.162 359.470L397.602 359.470C389.784 385.529 381.098 410.719 371.543 435.040L117.037 435.040L117.037 492.369L346.353 492.369C291.630 606.159 215.191 694.758 105.745 759.036C121.380 770.328 149.176 796.387 158.731 808.547C242.118 753.824 307.265 686.940 358.514 605.290L358.514 638.298L669.480 638.298L669.480 821.577C669.480 833.737 666.005 837.212 651.239 837.212C636.472 838.080 588.698 838.949 533.106 836.343C543.530 854.584 553.953 881.511 557.428 899.752C625.180 899.752 671.217 899.752 699.013 889.329C727.678 878.906 735.495 860.664 735.495 822.445L735.495 638.298L872.737 638.298L872.737 580.100L735.495 580.100L735.495 503.661L669.480 503.661L669.480 580.100L374.149 580.100C389.784 552.304 404.550 522.771 418.448 492.369L894.453 492.369L894.453 435.040L441.033 435.040C449.719 410.719 457.536 385.529 465.354 359.470L812.802 359.470L812.802 304.747L480.121 304.747L496.624 233.520L846.679 233.520L846.679 177.060L507.916 177.060L519.208 107.570"/></svg>