<svg xmlns="http://www.w3.org/2000/svg" viewBox="0 0 1000 1000" fill="currentColor"><path d="M177.802 450.648L177.802 516.582L348.352 516.582C338.681 620.319 328.132 720.538 316.703 798.780L100.440 798.780L100.440 862.956L900.440 862.956L900.440 798.780L740.440 798.780C755.385 624.714 769.451 346.033 776.484 136.802L158.462 136.802L158.462 202.736L372.967 202.736C368.571 278.341 362.418 364.495 354.505 450.648M440.659 202.736L705.275 202.736C703.516 280.978 700 366.253 695.604 450.648L421.319 450.648C428.352 365.374 435.385 279.220 440.659 202.736M386.154 798.780C395.824 721.418 405.495 621.198 415.165 516.582L691.209 516.582C685.055 620.319 678.022 719.659 670.989 798.780"/></svg>