<svg xmlns="http://www.w3.org/2000/svg" viewBox="0 0 1000 1000" fill="currentColor"><path d="M418.362 590.913C456.498 646.385 505.036 720.924 527.571 765.128L583.042 731.325C558.774 688.855 509.369 616.915 471.233 563.178M712.186 362.094L712.186 456.569L368.091 456.569L368.091 516.374L712.186 516.374L712.186 817.132C712.186 831.867 706.986 835.334 689.651 836.200C674.050 837.067 615.978 837.067 554.440 835.334C563.974 853.535 573.508 880.404 576.975 898.606C654.982 898.606 706.119 897.739 735.588 888.205C765.057 877.804 775.458 858.736 775.458 817.999L775.458 516.374L893.335 516.374L893.335 456.569L775.458 456.569L775.458 362.094M301.352 354.294C257.148 448.768 185.209 543.243 111.536 604.781C125.404 617.782 147.939 644.651 156.607 657.652C185.209 632.517 213.811 602.181 240.680 568.378L240.680 900.339L303.952 900.339L303.952 479.971C325.621 445.301 345.556 410.632 362.891 375.095M233.746 100.339C206.878 187.013 160.940 273.687 107.203 330.025C122.804 337.826 149.673 356.027 161.807 366.428C190.410 332.625 218.145 289.288 243.281 241.618L288.351 241.618C307.419 281.488 329.088 329.158 341.222 358.627L399.294 338.692C388.893 314.424 369.824 276.287 352.490 241.618L487.701 241.618L487.701 186.146L269.283 186.146C279.684 162.744 289.218 138.476 297.018 115.074M575.242 100.339C549.239 187.013 501.569 269.353 444.364 323.091C459.965 331.758 486.834 349.960 498.969 360.361C529.304 328.291 558.774 287.555 583.909 241.618L643.714 241.618C667.983 277.154 694.852 319.624 706.986 346.493L764.191 323.091C752.923 301.423 732.988 271.087 712.186 241.618L885.534 241.618L885.534 186.146L610.778 186.146C620.312 162.744 628.979 139.342 636.780 115.074"/></svg>