<svg xmlns="http://www.w3.org/2000/svg" viewBox="0 0 1000 1000" fill="currentColor"><path d="M281.563 106.531C248.840 204.701 193.727 302.871 130.863 364.873C146.364 372.623 176.504 389.846 189.421 400.180C217.839 368.318 245.395 327.844 271.229 283.065L483.931 283.065L483.931 419.125L120.530 419.125L120.530 479.405L879.195 479.405L879.195 419.125L551.100 419.125L551.100 283.065L815.470 283.065L815.470 223.646L551.100 223.646L551.100 99.642L483.931 99.642L483.931 223.646L303.091 223.646C319.453 190.922 334.093 157.338 346.149 122.892M227.311 565.519L227.311 899.642L291.897 899.642L291.897 850.557L712.133 850.557L712.133 897.919L779.302 897.919L779.302 565.519M291.897 790.277L291.897 624.938L712.133 624.938L712.133 790.277"/></svg>