<svg xmlns="http://www.w3.org/2000/svg" viewBox="0 0 1000 1000" fill="currentColor"><path d="M403.429 124.610L403.429 190.599L652.017 190.599L652.017 781.785C652.017 798.960 645.689 804.384 627.610 804.384C608.627 806.192 543.542 806.192 476.650 803.480C487.497 823.367 500.153 855.910 504.672 875.797C589.644 875.797 646.593 874.893 679.136 863.141C710.774 851.390 722.525 827.887 722.525 782.689L722.525 190.599L899.701 190.599L899.701 124.610M99.701 131.842L99.701 728.452L165.689 728.452L165.689 657.944L362.751 657.944L362.751 131.842M165.689 196.927L297.667 196.927L297.667 591.955L165.689 591.955"/></svg>