<svg xmlns="http://www.w3.org/2000/svg" viewBox="0 0 1000 1000" fill="currentColor"><path d="M611.316 106.051C587.385 247.932 543.795 384.684 477.983 474.427L447.214 452.205L434.393 455.624L346.359 455.624C365.162 435.111 383.111 414.598 400.205 392.376L520.718 392.376L520.718 335.966L440.376 335.966C479.692 276.991 513.026 212.889 541.231 142.803L481.402 125.709C452.342 202.632 413.880 272.718 367.726 335.966L314.735 335.966L314.735 251.350L421.573 251.350L421.573 195.795L314.735 195.795L314.735 106.051L254.906 106.051L254.906 195.795L142.085 195.795L142.085 251.350L254.906 251.350L254.906 335.966L106.188 335.966L106.188 392.376L323.282 392.376C303.624 414.598 283.111 435.966 260.889 455.624L177.128 455.624L177.128 507.761L197.641 507.761C166.872 529.983 134.393 550.496 100.205 568.444C113.880 580.410 136.957 604.342 145.504 617.162C198.496 586.393 248.068 549.641 293.368 507.761L384.821 507.761C355.761 535.966 319.009 565.026 287.385 585.538L287.385 647.932L105.333 665.026L113.026 724L287.385 705.197L287.385 823.145C287.385 833.402 284.821 835.966 272.855 835.966C260.889 836.821 224.991 837.675 182.256 835.966C190.803 852.205 199.350 875.282 201.915 891.521C257.470 891.521 294.222 891.521 318.154 882.120C341.231 872.718 348.068 856.479 348.068 824.855L348.068 698.359L526.701 678.701L526.701 623.145L348.068 641.949L348.068 600.068C393.368 569.299 441.231 528.274 477.983 487.248C492.513 497.504 514.735 517.162 524.137 526.564C545.504 497.504 565.162 463.316 582.256 426.564C601.060 514.598 626.701 594.940 659.179 665.880C611.316 738.530 544.650 795.795 455.761 837.675C467.726 851.350 487.385 879.556 494.222 894.940C577.983 851.350 642.940 796.650 693.368 729.128C735.248 798.359 788.239 853.915 854.051 893.231C864.308 875.282 884.821 851.350 900.205 838.530C830.120 801.778 775.419 742.803 732.684 667.590C784.821 576.137 817.299 462.462 838.667 324.855L893.368 324.855L893.368 265.026L641.231 265.026C654.906 217.162 666.872 167.590 676.274 116.308M623.282 324.855L772 324.855C756.615 430.838 733.538 521.436 697.641 597.504C663.453 517.162 639.521 424 623.282 324.855"/></svg>