<svg xmlns="http://www.w3.org/2000/svg" viewBox="0 0 1000 1000" fill="currentColor"><path d="M252.952 180.100L769.835 180.100L769.835 289.190L252.952 289.190M188.017 120.359L188.017 372.307C188.017 510.835 180.225 702.177 99.706 837.242C115.290 844.169 144.727 859.753 156.848 871.009C241.697 729.017 252.952 518.628 252.952 372.307L252.952 348.931L834.771 348.931L834.771 120.359M278.061 471.009L278.061 528.152L427.844 528.152C395.810 651.961 328.277 732.481 238.234 775.771C252.087 784.429 274.597 808.671 283.255 821.658C388.883 764.515 467.671 658.887 498.840 480.532L462.476 469.277L451.221 471.009M808.797 425.121C772.433 469.277 713.558 525.554 662.476 567.978C637.368 529.017 616.589 485.727 601.004 440.706L601.004 360.186L535.203 360.186L535.203 803.476C535.203 814.732 531.740 818.195 519.619 818.195C508.364 819.061 467.671 819.061 423.515 818.195C433.039 835.511 442.563 861.485 446.026 878.801C504.900 878.801 543.861 877.935 568.104 867.545C593.212 857.156 601.004 840.706 601.004 803.476L601.004 570.576C659.879 684.861 745.593 775.771 855.550 823.390C865.074 806.074 884.987 780.965 899.706 767.978C817.455 738.541 747.325 683.130 692.779 612.134C748.190 570.576 812.260 513.433 864.208 462.351"/></svg>