<svg xmlns="http://www.w3.org/2000/svg" viewBox="0 0 1000 1000" fill="currentColor"><path d="M244.580 402.161L244.580 466.090L577.544 466.090C215.280 693.393 199.297 748.443 199.297 799.053C199.297 862.094 251.684 900.274 363.559 900.274L760.452 900.274C858.121 900.274 890.085 873.637 899.852 729.797C880.319 725.357 854.569 716.478 835.923 705.824C831.484 815.923 816.390 833.681 765.779 833.681L356.456 833.681C304.070 833.681 269.442 822.139 269.442 792.838C269.442 759.098 299.630 710.263 740.030 444.780C746.245 442.117 751.573 437.677 755.124 433.238L706.290 399.497L692.083 402.161M322.716 100.274C273.881 217.477 190.418 329.353 100.740 400.385C117.610 411.040 146.023 435.013 158.454 447.444C209.064 403.937 258.787 345.335 303.182 280.518L891.861 280.518L891.861 215.701L344.026 215.701C361.784 184.625 377.766 152.660 391.972 120.696"/></svg>