<svg xmlns="http://www.w3.org/2000/svg" viewBox="0 0 1000 1000" fill="currentColor"><path d="M540.425 411.080C500.679 456.746 440.636 499.030 385.668 523.554L426.260 565.837C487.994 535.393 548.882 482.116 591.165 430.531M360.298 113.406C303.638 140.467 203.850 164.992 119.283 180.214C126.894 195.436 135.351 216.577 137.888 230.108C169.178 225.879 203.004 219.960 236.831 212.349L236.831 349.347L115.055 349.347L115.055 408.543L222.455 408.543C195.393 504.104 145.499 614.040 99.833 675.774C109.981 691.841 126.049 718.903 132.814 737.507C170.023 684.230 208.078 597.973 236.831 510.869L236.831 885.499L296.027 885.499L296.027 504.104C318.015 540.467 342.539 583.596 352.687 607.275L391.588 554.844C378.057 534.548 319.706 458.438 296.027 431.376L296.027 408.543L410.192 408.543L410.192 349.347L296.027 349.347L296.027 198.818C334.082 188.670 370.446 177.677 400.890 164.992M494.759 294.378L613.998 294.378L613.998 359.495L494.759 359.495M669.812 294.378L787.359 294.378L787.359 359.495L669.812 359.495M494.759 186.133L613.998 186.133L613.998 251.249L494.759 251.249M669.812 186.133L787.359 186.133L787.359 251.249L669.812 251.249M681.651 441.524C737.465 477.888 809.347 530.319 844.865 563.300L881.228 524.400C845.710 492.264 774.674 443.216 719.706 407.698L847.402 407.698L847.402 138.776L436.408 138.776L436.408 407.698L715.478 407.698M543.808 620.805L739.156 620.805C712.941 661.397 678.268 696.070 637.677 725.668C597.085 696.070 564.104 662.243 539.579 624.188M581.017 496.493C547.190 554.844 479.537 619.960 385.668 666.471C398.353 674.928 416.112 691.841 424.569 705.372C451.630 690.150 477 674.082 498.987 657.169C523.512 694.378 553.956 727.359 589.474 756.112C524.357 793.321 447.402 820.383 367.909 837.296C379.748 848.290 397.507 872.814 404.273 886.345C487.148 865.203 567.486 834.759 637.677 791.630C702.793 833.913 778.903 864.357 862.624 882.962C870.235 866.894 887.148 843.216 899.833 831.376C822.032 817 748.459 791.630 686.725 756.958C744.230 712.983 791.588 657.169 822.877 589.516L784.822 568.374L773.829 570.911L592.011 570.911C609.770 549.770 625.837 528.628 639.368 507.486"/></svg>