<svg xmlns="http://www.w3.org/2000/svg" viewBox="0 0 1000 1000" fill="currentColor"><path d="M786.855 105.101C639.369 136.385 381.045 154.263 169.201 161.413C175.458 176.609 183.503 203.425 185.291 220.408C273.782 217.726 371.212 213.257 466.855 207L466.855 300.855L145.961 300.855L145.961 363.425L254.117 363.425L254.117 476.944L100.374 476.944L100.374 540.408L254.117 540.408L254.117 662.866L139.704 662.866L139.704 726.330L466.855 726.330L466.855 831.804L183.503 831.804L183.503 895.268L815.458 895.268L815.458 831.804L536.575 831.804L536.575 726.330L863.726 726.330L863.726 662.866L751.994 662.866L751.994 540.408L900.374 540.408L900.374 476.944L751.994 476.944L751.994 363.425L855.682 363.425L855.682 300.855L536.575 300.855L536.575 201.637C642.944 191.804 742.162 180.184 819.927 164.095M466.855 540.408L466.855 662.866L322.944 662.866L322.944 540.408M536.575 540.408L681.380 540.408L681.380 662.866L536.575 662.866M466.855 476.944L322.944 476.944L322.944 363.425L466.855 363.425M536.575 476.944L536.575 363.425L681.380 363.425L681.380 476.944"/></svg>