<svg xmlns="http://www.w3.org/2000/svg" viewBox="0 0 1000 1000" fill="currentColor"><path d="M157.298 166.773C204.814 194.419 261.834 236.752 288.616 266.989L322.309 215.153C294.663 185.780 236.780 146.039 190.127 120.121M115.829 399.171C165.937 425.089 226.413 465.693 255.786 495.931L286.888 441.503C257.514 412.130 196.175 374.117 146.931 350.790M137.428 838.911L186.672 887.292C231.596 804.354 281.704 698.091 317.989 610.834L273.929 564.181C233.324 660.942 176.305 772.389 137.428 838.911M442.395 247.119C457.082 277.356 471.769 317.097 476.089 342.151L356.002 342.151L356.002 900.251L415.613 900.251L415.613 397.443L576.305 397.443L576.305 474.333L451.898 474.333L451.898 522.713L576.305 522.713L576.305 599.603L481.272 599.603L481.272 814.721L529.652 814.721L529.652 778.436L725.765 778.436L725.765 599.603L630.732 599.603L630.732 522.713L749.955 522.713L749.955 474.333L630.732 474.333L630.732 397.443L793.151 397.443L793.151 828.544C793.151 838.911 789.695 842.367 778.464 843.231C768.097 843.231 731.812 843.231 694.663 842.367C703.302 857.918 711.942 882.972 714.533 898.523C769.825 898.523 802.654 897.659 825.117 888.156C846.715 878.652 854.490 861.374 854.490 829.408L854.490 342.151L719.717 342.151C734.404 312.778 749.955 276.492 764.641 242.799L724.037 232.432L884.728 232.432L884.728 178.004L644.555 178.004C638.508 152.950 626.413 123.577 612.590 100.251L553.842 116.665C563.346 134.808 571.985 157.270 578.032 178.004L338.724 178.004L338.724 232.432L701.575 232.432C692.071 265.261 674.793 311.050 659.242 342.151L486.456 342.151L536.564 328.328C532.244 302.410 515.829 261.806 499.415 232.432M529.652 645.391L676.521 645.391L676.521 732.648L529.652 732.648"/></svg>