<svg xmlns="http://www.w3.org/2000/svg" viewBox="0 0 1000 1000" fill="currentColor"><path d="M243.576 321.096C262.339 359.475 284.514 410.648 293.896 443.910L336.539 425.147C326.305 393.591 304.130 343.271 284.514 304.891M241.870 583.783C264.045 624.721 291.337 680.158 302.424 715.126L345.921 695.510C333.128 661.394 305.836 607.663 281.955 565.872M581.316 118.964C602.638 159.902 629.077 215.339 640.164 251.160L702.424 229.838C689.631 194.870 663.192 141.139 640.164 100.200M447.414 251.160L447.414 309.156L882.382 309.156L882.382 251.160M522.467 392.738L522.467 578.665C522.467 667.365 512.232 781.650 428.650 862.674C444.002 869.497 468.736 887.407 478.117 897.642C566.817 810.648 582.168 679.305 582.168 579.518L582.168 449.881L728.864 449.881L728.864 784.209C728.864 843.058 732.275 857.557 745.068 869.497C757.009 880.584 774.066 884.849 790.271 884.849C799.652 884.849 819.269 884.849 828.650 884.849C844.002 884.849 859.354 882.290 869.588 874.614C879.823 866.938 886.646 855.851 890.910 838.793C894.322 821.736 897.733 773.122 898.586 733.889C883.235 729.625 866.177 720.243 855.090 710.861C854.237 753.505 853.384 786.768 851.678 802.119C849.972 815.765 847.414 823.441 844.002 826.853C840.591 829.412 833.768 830.264 826.945 830.264C820.974 830.264 810.740 830.264 806.475 830.264C800.505 830.264 796.241 829.412 792.829 826.853C790.271 823.441 788.565 810.648 788.565 788.473L788.565 392.738M368.096 263.953L368.096 481.437L223.107 481.437L223.107 263.953M107.115 481.437L107.115 534.316L166.817 534.316C166.817 640.925 161.699 774.827 101.998 868.644C115.644 874.614 141.230 889.966 151.465 900.200C213.725 802.119 223.107 649.454 223.107 534.316L368.096 534.316L368.096 818.324C368.096 828.559 363.832 831.970 353.597 831.970C343.362 832.823 310.953 832.823 274.279 831.970C282.808 846.469 291.337 872.055 293.043 887.407C345.921 887.407 376.625 886.554 397.947 876.320C417.563 866.938 424.386 849.028 424.386 818.324L424.386 211.075L299.013 211.075C310.100 182.930 322.893 148.814 333.981 116.405L269.162 103.612C263.192 134.316 252.957 177.812 242.723 211.075L166.817 211.075L166.817 481.437"/></svg>