<svg xmlns="http://www.w3.org/2000/svg" viewBox="0 0 1000 1000" fill="currentColor"><path d="M114.154 166.271C170.262 207.900 237.231 269.439 268 310.163L315.964 259.484C284.290 218.760 216.416 160.842 160.308 121.928M99.674 745.457L156.688 788.896C208.271 705.638 269.810 594.326 315.964 499.303L266.190 457.674C215.511 559.032 146.733 676.679 99.674 745.457M363.023 101.113L363.023 421.475C363.023 559.937 353.068 735.502 243.566 858.579C258.950 866.724 284.290 887.538 295.149 899.303C410.081 768.986 426.371 568.986 426.371 421.475L426.371 163.557L834.516 163.557L834.516 815.140C834.516 829.620 828.181 834.145 814.606 835.050C800.127 835.955 752.163 835.955 702.389 834.145C710.534 852.244 718.679 881.204 721.394 898.398C795.602 898.398 838.136 897.493 864.380 886.633C889.719 875.774 899.674 855.864 899.674 815.140L899.674 101.113M599.222 190.706L599.222 263.104L480.670 263.104L480.670 313.783L599.222 313.783L599.222 403.376L465.285 403.376L465.285 455.864L793.792 455.864L793.792 403.376L653.520 403.376L653.520 313.783L776.597 313.783L776.597 263.104L653.520 263.104L653.520 190.706M488.814 524.643L488.814 797.946L542.208 797.946L542.208 738.217L772.072 738.217L772.072 524.643M542.208 575.321L717.774 575.321L717.774 688.443L542.208 688.443"/></svg>