<svg xmlns="http://www.w3.org/2000/svg" viewBox="0 0 1000 1000" fill="currentColor"><path d="M241.454 184.042L385.828 184.042L385.828 303.788L241.454 303.788M603.238 184.042L756.104 184.042L756.104 303.788L603.238 303.788M596.444 392.960C632.113 406.548 674.575 427.779 703.450 447.312L458.864 447.312C478.397 420.136 495.382 392.110 508.970 364.085L446.125 352.195L446.125 128.841L183.705 128.841L183.705 358.989L441.030 358.989C427.442 388.713 407.909 418.437 384.130 447.312L119.161 447.312L119.161 504.212L328.079 504.212C270.329 555.168 194.745 601.028 100.478 635.847C113.217 647.737 129.352 669.817 136.146 684.255L183.705 663.873L183.705 871.941L243.153 871.941L243.153 847.312L384.979 847.312L384.979 866.845L446.125 866.845L446.125 609.520L283.917 609.520C334.023 577.248 376.486 541.580 411.306 504.212L569.268 504.212C604.936 543.278 651.645 579.796 702.601 609.520L546.338 609.520L546.338 871.941L604.936 871.941L604.936 847.312L756.104 847.312L756.104 866.845L818.100 866.845L818.100 664.722L859.713 678.310C868.206 663.023 886.040 639.244 900.478 627.355C807.909 605.274 712.792 559.414 648.248 504.212L880.945 504.212L880.945 447.312L732.325 447.312L755.255 422.684C727.229 400.603 672.877 374.276 629.565 358.989M544.639 128.841L544.639 358.989L818.100 358.989L818.100 128.841M243.153 791.261L243.153 665.571L384.979 665.571L384.979 791.261M604.936 791.261L604.936 665.571L756.104 665.571L756.104 791.261"/></svg>