<svg xmlns="http://www.w3.org/2000/svg" viewBox="0 0 1000 1000" fill="currentColor"><path d="M435.279 158.638C463.227 221.520 488.555 306.236 495.541 361.258L551.437 342.917C543.576 288.769 518.249 205.799 488.555 142.917M794.231 136.803C776.764 199.686 742.703 289.642 715.629 345.537L765.410 363.004C794.231 308.856 830.039 225.013 857.114 155.144M117.376 169.118L117.376 812.786L168.904 812.786L168.904 730.690L396.852 730.690L396.852 169.118M168.904 226.760L232.659 226.760L232.659 418.026L168.904 418.026M168.904 673.048L168.904 473.921L232.659 473.921L232.659 673.048M344.450 473.921L344.450 673.048L278.948 673.048L278.948 473.921M344.450 418.026L278.948 418.026L278.948 226.760L344.450 226.760M608.205 100.122L608.205 380.472L432.659 380.472L432.659 440.734L608.205 440.734L608.205 575.231L409.079 575.231L409.079 635.493L608.205 635.493L608.205 900.122L670.214 900.122L670.214 635.493L883.314 635.493L883.314 575.231L670.214 575.231L670.214 440.734L857.987 440.734L857.987 380.472L670.214 380.472L670.214 100.122"/></svg>