<svg xmlns="http://www.w3.org/2000/svg" viewBox="0 0 1000 1000" fill="currentColor"><path d="M513.691 105.055C497.364 248.556 463.852 383.465 401.124 468.535C415.731 477.128 444.947 496.032 455.259 506.344C490.490 453.927 517.987 386.902 538.610 310.425L815.302 310.425C801.553 372.294 783.508 437.600 768.041 481.424L822.176 499.469C845.377 439.319 871.156 343.078 890.919 261.446L845.377 247.697L835.066 251.134L553.218 251.134C562.670 206.451 571.263 160.049 577.278 111.929M606.494 382.606L606.494 422.133C606.494 540.715 591.886 717.729 393.390 851.779C408.857 861.231 430.339 881.854 440.651 895.603C560.952 813.111 618.524 714.292 645.162 619.770C688.127 745.227 756.011 843.186 856.548 894.743CNaN 878.417 884.904 854.357 899.512 841.467C776.634 786.473 701.875 653.282 666.644 496.892C668.363 471.113 669.222 446.193 669.222 423.852L669.222 382.606M111.542 149.738L111.542 209.029L224.110 209.029C200.049 340.501 161.381 462.520 99.512 544.153C110.683 560.479 125.291 596.569 128.728 612.037C145.055 591.414 159.663 568.213 173.411 543.293L173.411 855.216L230.125 855.216L230.125 786.473L391.671 786.473L391.671 414.400L230.125 414.400C252.466 349.953 269.652 280.350 283.401 209.029L409.716 209.029L409.716 149.738M230.125 472.831L334.958 472.831L334.958 728.900L230.125 728.900"/></svg>