<svg xmlns="http://www.w3.org/2000/svg" viewBox="0 0 1000 1000" fill="currentColor"><path d="M692.796 154.409C741.414 200.376 796.221 266.674 820.088 309.989L872.243 272.862C847.492 229.547 790.917 166.785 742.298 122.586M572.575 100.486L572.575 351.536L572.575 355.072L375.448 355.072L375.448 420.486L571.691 420.486C564.619 562.807 524.840 729.878 292.354 849.215C308.265 861.591 330.365 885.459 340.972 899.602C513.348 805.901 587.602 683.912 618.541 564.575C660.088 721.039 729.923 837.724 852.796 900.486C862.519 882.807 882.851 857.171 897.878 843.912C749.370 778.497 678.652 622.033 646.829 420.486L881.083 420.486L881.083 355.072L640.641 355.072L640.641 351.536L640.641 100.486M102.298 176.508L102.298 752.862L165.061 752.862L165.061 666.232L370.144 666.232L370.144 176.508M165.061 238.387L305.613 238.387L305.613 603.470L165.061 603.470"/></svg>