<svg xmlns="http://www.w3.org/2000/svg" viewBox="0 0 1000 1000" fill="currentColor"><path d="M473.157 365.474L604.333 365.474L604.333 475.937L473.157 475.937M663.880 365.474L795.919 365.474L795.919 475.937L663.880 475.937M473.157 202.367L604.333 202.367L604.333 311.105L473.157 311.105M663.880 202.367L795.919 202.367L795.919 311.105L663.880 311.105M354.064 803.014L354.064 863.424L900.342 863.424L900.342 803.014L669.058 803.014L669.058 683.920L867.548 683.920L867.548 625.236L669.058 625.236L669.058 532.895L858.055 532.895L858.055 145.409L414.474 145.409L414.474 532.895L600.018 532.895L600.018 625.236L402.392 625.236L402.392 683.920L600.018 683.920L600.018 803.014M327.311 111.752C309.188 145.409 285.887 180.792 258.271 214.449C234.107 179.066 203.039 144.546 163.341 110.889L117.602 145.409C160.752 183.381 193.546 222.216 216.847 262.777C181.464 300.749 143.492 336.132 103.794 364.611C118.465 374.967 138.314 393.090 148.670 406.035C181.464 380.145 214.258 350.803 245.326 319.735C260.860 358.570 270.353 399.131 275.531 440.554C234.970 515.635 164.204 596.757 100.342 637.318C115.876 649.400 133.999 671.838 144.355 686.509C190.957 650.263 241.011 595.031 282.435 536.347L282.435 563.963C282.435 677.879 273.805 782.302 252.230 811.644C245.326 821.137 236.696 824.589 223.751 826.315C204.765 828.904 171.108 828.904 129.684 826.315C140.903 844.438 147.807 867.739 148.670 888.451C184.916 890.177 220.299 889.314 249.641 884.136C271.216 880.684 287.613 871.191 298.832 855.657C334.215 808.192 343.708 691.687 343.708 565.689C343.708 462.992 335.941 363.748 290.202 270.544C326.448 229.120 358.379 184.244 384.269 140.231"/></svg>