<svg xmlns="http://www.w3.org/2000/svg" viewBox="0 0 1000 1000" fill="currentColor"><path d="M454.540 104.195C441.651 142.864 421.887 181.532 395.249 220.200L125.432 220.200L125.432 280.350L347.129 280.350C286.979 346.516 205.346 406.666 99.653 451.349C114.261 461.661 132.306 484.861 140.899 500.329C192.456 477.128 237.999 450.490 279.245 422.133L279.245 474.550L465.711 474.550L465.711 585.398L527.580 585.398L527.580 474.550L710.609 474.550L710.609 416.977L527.580 416.977L527.580 326.752L465.711 326.752L465.711 416.977L286.119 416.977C342.832 375.731 390.093 329.330 428.762 280.350L578.278 280.350C643.584 374.013 750.136 455.646 854.970 496.032C865.281 479.706 884.186 454.786 899.653 442.756C805.131 412.681 710.609 350.812 648.740 280.350L868.719 280.350L868.719 220.200L470.867 220.200C492.349 185.828 509.535 150.597 523.284 115.366M299.868 524.389L299.868 609.459L299.868 623.207L111.683 623.207L111.683 683.358L292.134 683.358C278.386 742.649 239.718 801.940 133.165 848.342C147.773 859.512 168.396 881.854 177.849 895.603C302.446 838.030 343.692 760.694 356.581 683.358L628.976 683.358L628.976 894.743L693.423 894.743L693.423 683.358L882.467 683.358L882.467 623.207L693.423 623.207L693.423 523.530L628.976 523.530L628.976 623.207L361.737 623.207L361.737 611.177L361.737 524.389"/></svg>