<svg xmlns="http://www.w3.org/2000/svg" viewBox="0 0 1000 1000" fill="currentColor"><path d="M198.768 293.324C227.432 332.412 255.228 387.135 265.651 423.617L322.112 400.164C311.688 363.682 283.024 310.696 251.754 272.477M739.919 269.002C723.415 310.696 691.276 369.762 667.823 406.244L718.203 424.485C743.393 389.740 773.795 337.623 798.985 288.980M665.217 99.621C651.319 130.891 625.261 175.191 603.545 206.461L351.645 206.461L387.258 190.826C375.966 163.899 350.776 126.548 324.718 99.621L268.257 122.205C289.973 146.527 311.688 180.403 323.849 206.461L158.811 206.461L158.811 262.053L380.309 262.053L380.309 432.303L110.168 432.303L110.168 487.026L890.190 487.026L890.190 432.303L614.837 432.303L614.837 262.053L847.628 262.053L847.628 206.461L673.903 206.461C692.144 181.271 712.123 150.001 729.495 120.468M441.982 262.053L552.296 262.053L552.296 432.303L441.982 432.303M292.579 729.371L708.648 729.371L708.648 817.102L292.579 817.102M292.579 678.123L292.579 592.998L708.648 592.998L708.648 678.123M229.169 540.881L229.169 899.621L292.579 899.621L292.579 869.219L708.648 869.219L708.648 896.147L775.532 896.147L775.532 540.881"/></svg>