<svg xmlns="http://www.w3.org/2000/svg" viewBox="0 0 1000 1000" fill="currentColor"><path d="M234.691 99.978C206.181 191.555 159.529 281.404 103.374 340.151C119.788 348.790 146.570 366.933 158.665 376.436C188.903 341.015 218.276 294.363 244.194 242.527L276.160 242.527C299.486 284.860 322.812 334.968 333.179 367.797L391.927 343.607C383.287 316.825 363.417 277.948 343.546 242.527L495.598 242.527L495.598 185.508L270.112 185.508C280.479 162.181 289.119 138.855 296.894 114.665M575.080 99.978C547.434 190.691 498.190 277.084 436.851 332.376C452.402 341.015 480.048 359.158 492.143 369.525C524.972 335.832 556.937 291.771 583.719 242.527L636.419 242.527C664.929 283.132 696.894 332.376 709.853 365.205L769.464 339.287C757.369 313.369 734.043 276.220 709.853 242.527L891.279 242.527L891.279 185.508L611.365 185.508C621.732 162.181 630.371 138.855 638.147 114.665M115.469 600.194L115.469 662.397L470.544 662.397L470.544 899.978L537.931 899.978L537.931 662.397L897.326 662.397L897.326 600.194L537.931 600.194L537.931 458.510L824.756 458.510L824.756 397.171L194.086 397.171L194.086 458.510L470.544 458.510L470.544 600.194"/></svg>