<svg xmlns="http://www.w3.org/2000/svg" viewBox="0 0 1000 1000" fill="currentColor"><path d="M453.082 106.818C432.591 146.946 395.025 203.296 365.142 241.716L245.612 241.716L288.301 216.956C272.079 187.074 234.512 143.530 202.068 113.648L155.110 138.408C184.993 169.144 219.144 210.980 235.366 241.716L125.227 241.716L125.227 293.797L233.658 293.797L233.658 353.562L135.473 353.562L135.473 403.082L233.658 403.082L233.658 466.263L114.128 466.263L114.128 516.636L233.658 516.636L233.658 588.354L135.473 588.354L135.473 637.874L214.875 637.874C184.993 693.370 140.596 752.282 100.467 784.726C110.713 800.094 122.666 826.561 127.789 843.637C163.648 808.632 200.361 751.428 230.243 693.370L230.243 893.157L283.178 893.157L283.178 637.874L352.335 637.874L352.335 892.303L406.124 892.303L406.124 680.564C436.006 724.107 475.281 782.164 489.795 811.193L528.216 769.358C513.701 748.013 458.205 677.148 424.907 637.874L514.555 637.874L514.555 516.636L565.782 516.636L565.782 466.263L514.555 466.263L514.555 353.562L402.709 353.562L402.709 293.797L553.829 293.797L553.829 241.716L427.469 241.716C455.644 208.418 485.526 168.290 511.994 130.724M283.178 293.797L352.335 293.797L352.335 353.562L283.178 353.562M465.889 516.636L465.889 588.354L402.709 588.354L402.709 516.636M465.889 466.263L402.709 466.263L402.709 403.082L465.889 403.082M283.178 516.636L352.335 516.636L352.335 588.354L283.178 588.354M283.178 466.263L283.178 403.082L352.335 403.082L352.335 466.263M643.477 104.256C624.694 228.055 588.835 345.025 531.631 420.158C546.145 427.842 572.613 444.064 583.712 453.456C612.741 412.474 637.501 360.393 657.138 301.481L821.065 301.481C809.966 353.562 796.305 408.205 781.791 444.918L830.457 460.286C852.655 408.205 874 323.680 890.222 251.962L849.240 239.155L839.848 241.716L675.067 241.716C687.020 200.734 695.558 158.045 703.242 113.648M681.898 351.855L681.898 410.766C681.898 532.858 668.237 712.154 507.725 849.614C519.678 859.859 540.169 880.350 549.560 894.864C640.916 815.462 688.728 723.253 714.342 633.605C742.517 738.621 786.060 818.023 859.486 891.449C868.023 874.374 885.099 854.736 900.467 843.637C804.843 753.136 763.007 652.388 739.101 484.192C739.955 458.578 740.809 433.819 740.809 411.620L740.809 351.855"/></svg>