<svg xmlns="http://www.w3.org/2000/svg" viewBox="0 0 1000 1000" fill="currentColor"><path d="M349.597 109.254C331.917 141.961 307.166 176.436 278.878 210.912C254.127 176.436 222.304 143.729 182.525 111.022L133.906 149.033C177.221 184.392 209.928 221.519 234.680 259.530C193.133 302.845 147.166 341.740 104.735 368.260C118.878 383.287 136.558 409.807 145.398 427.486C184.293 398.315 226.724 360.304 266.503 318.757C280.646 352.348 290.370 387.707 296.558 423.066C252.359 505.276 171.917 591.022 100.315 633.453C114.459 648.481 131.254 674.116 140.094 690.912C196.669 650.249 258.547 585.718 305.398 518.536L306.282 565.387C306.282 679.420 298.326 778.425 276.227 808.481C268.271 818.204 259.431 822.624 246.171 823.508C224.072 826.160 188.713 827.044 142.746 823.508C155.122 842.072 163.077 868.591 163.961 889.807C204.624 892.459 242.635 891.575 273.575 886.271C296.558 881.851 313.354 872.127 325.729 855.331C362.856 805.829 372.580 693.564 372.580 567.155C372.580 461.961 364.624 361.188 313.354 265.718C347.829 224.171 378.768 180.856 401.751 141.077M433.575 469.917L433.575 532.680L618.326 532.680L618.326 804.945L381.420 804.945L381.420 867.707L900.315 867.707L900.315 804.945L686.392 804.945L686.392 532.680L877.331 532.680L877.331 469.917L686.392 469.917L686.392 224.171L887.939 224.171L887.939 161.409L419.431 161.409L419.431 224.171L618.326 224.171L618.326 469.917"/></svg>