<svg xmlns="http://www.w3.org/2000/svg" viewBox="0 0 1000 1000" fill="currentColor"><path d="M588.347 295.530L588.347 518.183L644.442 518.183L644.442 295.530M754.043 273.092L754.043 539.758C754.043 549.251 752.317 551.840 741.961 551.840C731.605 552.703 700.537 552.703 664.291 551.840C671.195 564.785 678.962 583.771 682.414 597.579C729.879 597.579 763.536 597.579 784.248 590.675C805.823 582.908 811.864 569.963 811.864 540.621L811.864 273.092M666.017 100.492C653.072 126.382 629.771 163.491 609.922 190.244L351.886 190.244L389.858 179.888C379.502 156.587 357.064 123.793 337.215 99.629L277.668 114.300C296.654 136.738 316.503 168.669 326.859 190.244L129.232 190.244L129.232 241.161L883.493 241.161L883.493 190.244L677.236 190.244C694.496 167.806 713.482 141.916 729.879 115.163M146.492 631.236L146.492 684.742L426.967 684.742C395.899 772.768 323.407 821.096 117.150 845.260C128.369 858.205 143.040 884.095 148.218 899.629C376.913 867.698 459.761 802.973 493.417 684.742L762.673 684.742C752.317 777.083 740.235 817.644 724.701 831.452C716.934 837.493 708.304 838.356 689.318 838.356C672.058 838.356 618.552 838.356 565.909 833.178C577.128 849.575 584.032 872.876 585.758 889.273C638.401 892.725 688.455 893.588 714.345 891.862C741.961 890.136 759.221 885.821 776.481 870.287C800.645 846.986 814.453 790.891 829.124 657.989C829.987 649.359 831.713 631.236 831.713 631.236M434.734 329.187L434.734 379.241L246.600 379.241L246.600 329.187M191.368 286.037L191.368 593.264L246.600 593.264L246.600 510.416L434.734 510.416L434.734 541.484C434.734 549.251 432.145 551.840 424.378 551.840C416.611 552.703 391.584 552.703 363.105 551.840C369.146 563.922 376.050 580.319 379.502 593.264C419.200 593.264 447.679 593.264 466.665 585.497C484.787 578.593 489.965 567.374 489.965 541.484L489.965 286.037M434.734 418.939L434.734 470.718L246.600 470.718L246.600 418.939"/></svg>