<svg xmlns="http://www.w3.org/2000/svg" viewBox="0 0 1000 1000" fill="currentColor"><path d="M468.909 120.818L468.909 894.455L534.364 894.455L534.364 824.455L805.273 824.455L805.273 886.273L873.455 886.273L873.455 120.818M534.364 759.909L534.364 494.455L805.273 494.455L805.273 759.909M534.364 430.818L534.364 184.455L805.273 184.455L805.273 430.818M127.091 102.636L127.091 899.909L190.727 899.909L190.727 164.455L331.636 164.455C306.182 226.273 270.727 306.273 236.182 369.909C321.636 441.727 345.273 503.545 346.182 553.545C346.182 582.636 339.818 605.364 322.545 616.273C311.636 622.636 298.909 625.364 285.273 625.364C266.182 627.182 241.636 627.182 215.273 623.545C226.182 641.727 231.636 669 232.545 686.273C258.909 688.091 288 688.091 310.727 685.364C332.545 682.636 351.636 677.182 367.091 667.182C397.091 648.091 409.818 610.818 409.818 559.909C408.909 502.636 388.909 437.182 302.545 361.727C341.636 291.727 384.364 203.545 418.909 129L373.455 99.909L362.545 102.636"/></svg>