<svg xmlns="http://www.w3.org/2000/svg" viewBox="0 0 1000 1000" fill="currentColor"><path d="M349.593 251.758C340.982 305.149 320.314 383.512 303.953 430.875L342.704 448.959C360.788 404.180 381.455 331.844 401.262 273.286M143.780 278.453C139.475 346.483 125.696 434.320 104.168 486.849L149.808 505.794C173.059 446.376 185.976 353.372 188.560 284.481M492.543 103.642L492.543 197.506L405.567 197.506L405.567 253.480L492.543 253.480L492.543 513.545L621.714 513.545L621.714 590.186L408.151 590.186L408.151 646.160L583.823 646.160C536.461 719.357 458.958 789.110 382.316 823.555C396.956 835.611 416.762 858.862 426.235 875.224C498.571 835.611 570.906 764.998 621.714 687.495L621.714 895.891L684.577 895.891L684.577 697.829C731.940 766.720 795.664 832.167 853.361 870.057C864.555 853.695 885.223 831.306 899.862 819.250C833.554 783.943 759.496 715.052 712.995 646.160L879.195 646.160L879.195 590.186L684.577 590.186L684.577 513.545L808.581 513.545L808.581 253.480L880.917 253.480L880.917 197.506L808.581 197.506L808.581 103.642L746.579 103.642L746.579 197.506L551.100 197.506L551.100 103.642M746.579 253.480L746.579 330.122L551.100 330.122L551.100 253.480M746.579 380.929L746.579 459.293L551.100 459.293L551.100 380.929M224.728 109.670L224.728 401.596C224.728 558.324 212.672 720.219 99.862 845.084C114.502 855.418 135.169 876.085 144.642 889.002C205.783 821.833 240.228 745.192 260.034 664.244C290.174 705.579 327.203 758.970 343.565 787.388L386.622 743.469C370.260 721.080 302.230 631.521 272.952 597.936C282.424 533.351 284.146 467.043 284.146 401.596L284.146 109.670"/></svg>