<svg xmlns="http://www.w3.org/2000/svg" viewBox="0 0 1000 1000" fill="currentColor"><path d="M453.585 114.181C462.233 132.342 470.017 154.828 475.206 174.720L130.998 174.720L130.998 327.797L191.537 327.797L191.537 231.799L805.576 231.799L805.576 327.797L868.709 327.797L868.709 174.720L545.258 174.720C539.204 151.369 528.826 121.964 516.718 100.343M116.296 509.414L116.296 567.358L695.741 567.358L695.741 826.811C695.741 838.054 692.281 841.513 677.579 842.378C663.741 843.243 616.175 843.243 562.555 841.513C571.203 858.810 580.717 883.026 583.311 900.323C651.634 900.323 696.606 901.187 724.280 891.674C751.955 882.161 759.739 864.864 759.739 827.676L759.739 567.358L883.412 567.358L883.412 509.414L751.091 509.414L778.766 469.631C715.632 435.902 600.608 394.390 504.610 369.309L511.529 354.607L774.441 354.607L774.441 300.987L527.961 300.987C531.421 285.419 534.015 269.852 536.610 252.555L475.206 252.555C473.476 269.852 470.017 286.284 466.557 300.987L225.266 300.987L225.266 354.607L444.936 354.607C409.478 414.281 338.561 448.010 193.267 467.036C202.780 476.550 214.888 495.576 220.077 509.414M475.206 411.686C566.014 437.632 668.931 476.550 732.064 509.414L258.995 509.414C367.965 489.522 434.558 458.388 475.206 411.686M282.346 672.004L511.529 672.004L511.529 760.218L282.346 760.218M220.942 620.978L220.942 856.216L282.346 856.216L282.346 811.244L572.068 811.244L572.068 620.978"/></svg>