<svg xmlns="http://www.w3.org/2000/svg" viewBox="0 0 1000 1000" fill="currentColor"><path d="M351.062 253.057L641.722 253.057L641.722 322.305L351.062 322.305M290.925 204.765L290.925 370.597L706.415 370.597L706.415 204.765M472.246 507.271L472.246 560.118C472.246 612.966 453.112 687.681 209.831 734.150C223.499 747.818 239.900 771.508 247.189 786.087C502.314 726.861 533.294 634.834 533.294 562.852L533.294 507.271M518.715 681.303C591.608 713.194 688.191 760.574 737.394 789.731L765.640 739.617C714.615 711.371 617.121 666.724 546.050 636.656M268.146 425.267L268.146 661.257L330.105 661.257L330.105 479.025L664.501 479.025L664.501 656.702L728.282 656.702L728.282 425.267M117.804 99.982L117.804 899.982L184.319 899.982L184.319 865.358L813.021 865.358L813.021 899.982L881.358 899.982L881.358 99.982M184.319 808.866L184.319 157.385L813.021 157.385L813.021 808.866"/></svg>