<svg xmlns="http://www.w3.org/2000/svg" viewBox="0 0 1000 1000" fill="currentColor"><path d="M230.493 293.075L230.493 334.377L421.738 334.377L421.738 293.075M584.253 293.075L584.253 334.377L782.681 334.377L782.681 293.075M230.493 378.373L230.493 418.777L421.738 418.777L421.738 378.373M584.253 378.373L584.253 419.675L782.681 419.675L782.681 378.373M514.219 569.618L514.219 619.001L302.322 619.001L302.322 569.618M301.424 436.734C257.429 522.929 182.008 606.431 104.791 660.303C119.157 671.975 142.502 696.218 151.480 707.890C180.212 686.341 208.944 659.405 236.778 629.776L236.778 900.034L302.322 900.034L302.322 869.506L895.813 869.506L895.813 818.328L579.763 818.328L579.763 764.456L817.698 764.456L817.698 717.767L579.763 717.767L579.763 665.690L813.209 665.690L813.209 619.001L579.763 619.001L579.763 569.618L866.183 569.618L866.183 520.236L586.048 520.236L588.742 519.338C583.355 496.891 567.193 464.568 550.134 439.428L489.976 459.181C501.649 477.138 512.423 500.483 518.708 520.236L324.769 520.236C338.237 499.585 351.705 478.036 363.377 456.487M514.219 665.690L514.219 717.767L302.322 717.767L302.322 665.690M514.219 764.456L514.219 818.328L302.322 818.328L302.322 764.456M127.238 202.391L127.238 375.679L188.293 375.679L188.293 248.182L470.223 248.182L470.223 432.245L536.666 432.245L536.666 248.182L823.085 248.182L823.085 376.577L886.834 376.577L886.834 202.391L536.666 202.391L536.666 150.314L838.349 150.314L838.349 100.034L173.927 100.034L173.927 150.314L470.223 150.314L470.223 202.391"/></svg>