<svg xmlns="http://www.w3.org/2000/svg" viewBox="0 0 1000 1000" fill="currentColor"><path d="M642.462 105.356C643.330 173.035 644.197 237.243 643.330 297.113L533.134 297.113L533.134 357.850L641.594 357.850C632.918 578.241 597.343 743.967 480.206 856.766C495.824 866.310 526.193 889.738 536.605 900.150C657.213 769.130 693.655 597.330 703.200 357.850L819.469 357.850C810.792 676.289 800.380 790.822 779.555 816.852C771.746 828.132 763.937 830.735 750.054 830.735C734.436 830.735 697.126 829.868 656.345 826.397C666.757 844.618 673.698 871.516 675.434 890.605C714.479 893.208 753.525 893.208 777.820 890.605C802.983 887.134 819.469 880.193 835.954 857.633C863.720 820.323 872.397 697.980 882.809 330.085C882.809 320.540 882.809 297.113 882.809 297.113L704.935 297.113C706.670 237.243 706.670 173.035 706.670 105.356M150.488 819.456C170.445 807.308 202.549 800.367 455.043 751.777C461.117 769.130 465.456 786.484 468.926 800.367L527.061 775.204C513.178 718.805 474.132 629.434 436.822 560.887L383.894 581.711C402.115 616.419 420.336 658.067 435.087 697.113L225.108 734.423C265.889 668.479 305.803 586.918 337.039 507.959L527.928 507.959L527.928 445.486L357.863 445.486L357.863 303.187L498.427 303.187L498.427 241.581L357.863 241.581L357.863 100.150L294.523 100.150L294.523 241.581L146.150 241.581L146.150 303.187L294.523 303.187L294.523 445.486L117.516 445.486L117.516 507.959L265.889 507.959C235.521 596.462 190.401 683.230 173.915 707.525C157.430 735.291 143.547 755.247 128.796 757.850C136.605 775.204 147.017 806.440 150.488 819.456"/></svg>