<svg xmlns="http://www.w3.org/2000/svg" viewBox="0 0 1000 1000" fill="currentColor"><path d="M410.362 140.809L410.362 317.624L872.334 317.624L872.334 140.809L809.928 140.809L809.928 260.419L672.984 260.419L672.984 100.939L610.579 100.939L610.579 260.419L469.300 260.419L469.300 140.809M206.678 100.939L206.678 276.021L114.804 276.021L114.804 336.692L206.678 336.692L206.678 529.108L100.069 562.044L116.537 625.316L206.678 594.114L206.678 822.066C206.678 832.467 204.078 835.067 194.544 835.067C185.876 835.067 159.874 835.934 130.405 835.067C139.073 852.402 146.873 879.271 149.473 894.872C194.544 894.872 224.013 893.139 243.948 882.738C263.016 873.204 269.950 855.002 269.950 822.066L269.950 572.445L361.824 540.376C350.557 555.111 338.423 568.978 326.288 581.113C339.289 592.380 359.224 616.649 368.758 627.917C387.827 607.115 406.895 582.846 424.230 556.844L424.230 898.339L484.035 898.339L484.035 859.336L900.069 859.336L900.069 802.998L707.653 802.998L707.653 724.991L871.467 724.991L871.467 674.720L707.653 674.720L707.653 600.181L871.467 600.181L871.467 549.910L707.653 549.910L707.653 480.571L887.068 480.571L887.068 425.966L722.388 425.966C715.454 399.098 694.652 357.494 676.451 327.158L618.379 343.626C633.114 367.895 646.982 399.964 655.649 425.966L494.436 425.966C505.703 399.964 516.104 373.962 524.771 347.093L466.700 333.225C443.298 408.632 407.762 481.438 363.558 538.642L353.157 480.571L269.950 508.307L269.950 336.692L353.157 336.692L353.157 276.021L269.950 276.021L269.950 100.939M484.035 802.998L484.035 724.991L646.982 724.991L646.982 802.998M484.035 600.181L646.982 600.181L646.982 674.720L484.035 674.720M484.035 549.910L484.035 480.571L646.982 480.571L646.982 549.910"/></svg>