<svg xmlns="http://www.w3.org/2000/svg" viewBox="0 0 1000 1000" fill="currentColor"><path d="M470.463 610.818L470.463 663.632L118.082 663.632L118.082 721.641L470.463 721.641L470.463 822.939C470.463 835.061 NaN 838.524 451.416 839.390C434.100 840.255 378.688 840.255 315.485 838.524C325.009 855.840 335.398 878.351 339.727 895.667C414.186 895.667 464.403 896.532 495.571 887.874C525.874 878.351 534.532 861.035 534.532 824.671L534.532 721.641L884.316 721.641L884.316 663.632L534.532 663.632L534.532 639.390C604.662 613.416 677.390 576.186 729.338 537.225L687.779 502.593L673.926 506.056L262.671 506.056L262.671 559.736L594.273 559.736C556.177 579.649 511.156 598.697 470.463 610.818M739.727 105.190C614.186 135.494 372.628 153.675 174.359 159.736C180.420 173.589 188.212 197.831 189.078 213.416C277.390 210.818 372.628 205.623 465.268 198.697L465.268 282.680L118.082 282.680L118.082 338.957L396.004 338.957C318.948 409.952 202.931 474.022 99.900 506.056C113.753 518.177 131.935 541.554 141.459 556.273C254.013 514.714 383.883 435.926 465.268 347.615L465.268 482.680L529.338 482.680L529.338 341.554C610.723 430.732 741.459 512.117 858.342 552.810C867.866 537.225 886.048 513.848 899.900 501.727C796.004 470.558 679.121 409.087 602.931 338.957L883.450 338.957L883.450 282.680L529.338 282.680L529.338 192.636C628.039 183.113 720.680 169.260 793.407 151.944"/></svg>