<svg xmlns="http://www.w3.org/2000/svg" viewBox="0 0 1000 1000" fill="currentColor"><path d="M649.132 104.879L588.936 129.306C650.877 258.423 755.566 400.626 847.169 479.143C860.255 461.695 883.810 437.267 900.386 424.181C809.655 356.133 703.221 222.654 649.132 104.879M344.661 106.624C294.061 240.103 205.075 361.368 100.386 436.395C116.089 448.609 144.879 473.908 156.220 486.995C179.775 467.802 202.458 446.864 225.141 423.309L225.141 483.505L393.516 483.505C373.450 631.815 325.468 770.528 118.707 838.576C133.538 852.534 150.986 877.834 158.838 894.410C381.302 814.148 438.881 656.242 462.436 483.505L699.732 483.505C690.135 701.607 677.049 787.104 655.239 809.786C646.515 818.510 636.046 820.255 617.725 820.255C597.660 820.255 543.570 820.255 486.864 815.021C499.077 833.341 506.929 861.258 508.674 880.451C563.636 883.941 616.853 884.814 646.515 882.196C676.177 879.579 696.242 873.472 714.563 851.662C745.097 817.638 756.438 718.183 769.525 450.353C770.397 441.629 770.397 418.947 770.397 418.947L229.503 418.947C303.658 339.557 369.088 237.485 414.454 125.817"/></svg>