<svg xmlns="http://www.w3.org/2000/svg" viewBox="0 0 1000 1000" fill="currentColor"><path d="M273.459 251.602L721.635 251.602L721.635 306.409L273.459 306.409M273.459 154.365L721.635 154.365L721.635 208.287L273.459 208.287M209.812 108.398L209.812 352.376L787.050 352.376L787.050 108.398M631.470 440.773L783.514 440.773L783.514 514.144L631.470 514.144M417.547 440.773L566.939 440.773L566.939 514.144L417.547 514.144M209.812 440.773L353.901 440.773L353.901 514.144L209.812 514.144M147.050 393.923L147.050 560.994L848.928 560.994L848.928 393.923M690.696 661.768C642.961 703.315 579.315 735.138 505.061 760.773C430.807 735.138 368.044 702.431 321.193 661.768M132.906 606.961L132.906 661.768L253.127 661.768L244.287 666.188C289.370 713.923 348.597 753.702 417.547 786.409C317.657 811.160 207.160 825.304 100.199 832.376C109.923 847.403 121.414 873.923 125.834 891.602C254.895 880.110 388.376 859.779 505.061 820.884C612.022 858.011 734.895 880.110 863.956 890.718C871.912 873.923 886.939 848.287 900.199 833.260C792.354 826.188 687.160 811.160 594.343 787.293C680.972 748.398 753.459 698.011 802.077 630.829L761.414 604.309L749.039 606.961"/></svg>