<svg xmlns="http://www.w3.org/2000/svg" viewBox="0 0 1000 1000" fill="currentColor"><path d="M469.871 99.974L469.871 220.235L162.246 220.235L162.246 282.980L469.871 282.980L469.871 425.028L536.974 425.028L536.974 282.980L849.828 282.980L849.828 220.235L536.974 220.235L536.974 99.974M286.865 380.584L286.865 512.174L115.187 512.174L115.187 576.662L285.122 576.662C278.150 671.651 245.035 770.998 107.344 845.943C122.159 858.144 143.946 881.673 153.532 897.359C309.523 811.085 345.253 691.695 352.224 576.662L654.621 576.662L654.621 899.974L721.723 899.974L721.723 576.662L893.401 576.662L893.401 512.174L721.723 512.174L721.723 380.584L654.621 380.584L654.621 512.174L353.096 512.174L353.096 380.584"/></svg>