<svg xmlns="http://www.w3.org/2000/svg" viewBox="0 0 1000 1000" fill="currentColor"><path d="M321.746 342.977C312.365 458.115 293.601 554.490 263.751 631.249C239.870 610.780 215.136 590.311 190.403 572.401C206.608 505.876 223.665 425.706 238.164 342.977M124.731 594.576C162.258 621.868 202.343 655.130 239.017 689.245C203.196 759.181 157.141 808.648 99.998 840.205C113.644 852.145 129.849 876.026 138.377 890.525C198.079 853.851 246.693 802.678 284.220 733.595C309.806 760.887 331.981 786.473 346.480 808.648L391.682 763.446C372.919 737.006 344.774 706.303 312.365 674.746C351.597 578.371 374.625 452.145 383.154 287.539L346.480 281.569L336.245 283.275L248.399 283.275C258.633 223.574 266.309 164.725 272.279 111.846L213.431 108.435C209.166 162.166 201.490 221.868 191.256 283.275L115.350 283.275L115.350 342.977L181.021 342.977C163.964 437.646 143.495 528.904 124.731 594.576M477.823 107.582L477.823 200.546L401.917 200.546L401.917 255.983L477.823 255.983L477.823 513.552L610.019 513.552L610.019 589.458L402.770 589.458L402.770 644.896L572.493 644.896C524.731 718.243 447.119 785.620 371.213 820.588C384.859 832.529 404.475 855.557 414.710 870.908C486.352 831.676 559.699 762.593 610.019 684.981L610.019 892.230L672.279 892.230L672.279 685.834C721.746 757.475 791.682 827.412 853.942 867.497C865.030 850.439 884.646 828.264 899.998 816.324C831.768 782.209 755.009 713.979 706.394 644.896L876.970 644.896L876.970 589.458L672.279 589.458L672.279 513.552L801.064 513.552L801.064 255.983L877.823 255.983L877.823 200.546L801.064 200.546L801.064 107.582L739.657 107.582L739.657 200.546L536.672 200.546L536.672 107.582M739.657 255.983L739.657 331.889L536.672 331.889L536.672 255.983M739.657 382.209L739.657 459.821L536.672 459.821L536.672 382.209"/></svg>