<svg xmlns="http://www.w3.org/2000/svg" viewBox="0 0 1000 1000" fill="currentColor"><path d="M437.591 279.183C464.258 323.914 494.366 383.269 508.989 419.398L552.860 397.892C538.237 364.344 506.409 305.849 479.742 261.978M668.989 274.882C693.935 318.753 723.183 378.108 737.806 413.376L783.398 392.731C769.634 359.183 738.667 302.409 712.860 259.398M244.903 105.419L244.903 228.430L108.989 228.430L108.989 286.065L244.903 286.065L244.903 416.817L115.011 416.817L115.011 473.591L141.677 473.591C164.903 581.978 197.591 662.839 239.742 722.194C200.172 773.806 152.860 814.237 100.387 842.624C112.430 853.806 131.355 879.613 138.237 894.237C189.849 863.269 238.022 821.978 279.312 769.505C367.914 858.968 488.344 881.333 638.022 881.333L876.301 881.333C879.742 864.129 890.925 836.602 900.387 821.978C856.516 822.839 675.871 822.839 639.742 822.839C506.409 822.839 394.581 803.054 312.860 721.333C362.753 643.054 400.602 545.849 422.108 428.860L385.118 414.237L373.935 416.817L305.978 416.817L305.978 286.065L423.828 286.065L423.828 228.430L305.978 228.430L305.978 105.419M195.871 473.591L352.430 473.591C335.226 550.151 307.699 616.387 273.290 673.161C240.602 623.269 213.935 558.753 195.871 473.591M417.806 586.280L445.333 636.172C483.183 605.204 527.914 569.935 571.785 532.946L571.785 698.108C571.785 711.011 568.344 714.452 555.441 715.312C544.258 715.312 502.968 716.172 460.817 714.452C467.699 729.935 474.581 754.022 476.301 769.505C537.376 769.505 576.086 769.505 600.172 760.043C622.538 750.581 629.419 733.376 629.419 698.968L629.419 143.269L433.290 143.269L433.290 200.043L571.785 200.043L571.785 470.151C514.151 515.742 457.376 559.613 417.806 586.280M655.226 561.333L682.753 612.946C719.742 584.559 761.892 551.011 803.183 516.602L803.183 699.828C803.183 711.871 798.882 716.172 785.978 717.032C773.935 717.032 730.925 717.032 687.054 715.312C693.935 731.656 700.817 755.742 703.398 772.086C767.054 772.086 806.624 771.226 830.710 762.624C854.796 752.301 861.677 735.097 861.677 699.828L861.677 142.409L657.806 142.409L657.806 200.043L803.183 200.043L803.183 453.806C747.269 495.957 693.075 536.387 655.226 561.333"/></svg>