<svg xmlns="http://www.w3.org/2000/svg" viewBox="0 0 1000 1000" fill="currentColor"><path d="M317.071 532.640L669.341 532.640L669.341 639.081L317.071 639.081M253.713 479.419L253.713 691.457L736.923 691.457L736.923 479.419M821.400 226.832C791.833 258.089 743.681 298.638 702.287 329.894C682.013 309.620 662.583 288.501 644.843 265.692C686.237 236.969 735.233 198.110 774.938 161.785L725.941 127.149C698.908 157.561 654.980 197.265 616.120 226.832C592.467 193.886 573.037 158.405 556.986 122.080L502.076 140.665C536.712 219.229 584.864 293.569 643.153 356.082L362.688 356.082C410.841 302.862 452.234 240.348 478.422 171.077L437.029 149.958L425.202 152.492L163.322 152.492L163.322 205.713L395.635 205.713C373.671 247.951 344.103 287.656 310.313 323.981C283.280 295.259 237.662 262.313 198.803 240.348L164.167 274.984C202.182 298.638 245.265 333.273 272.298 361.151C219.077 409.303 158.253 449.007 99.964 473.506C112.636 485.333 130.376 507.297 138.824 521.658C211.474 487.022 286.659 435.491 350.017 369.599L350.017 410.148L654.135 410.148L654.135 367.909C713.269 429.578 782.541 480.264 856.036 514.055C866.173 497.159 884.758 472.661 899.964 460.834C842.520 438.025 788.454 404.234 739.457 363.685C781.696 334.118 829.848 296.103 868.707 260.623M627.947 696.526C614.431 733.696 589.088 786.072 567.124 822.397L370.291 822.397L422.667 803.812C414.220 775.090 393.100 730.317 371.136 698.215L313.692 716.800C333.966 748.902 354.241 793.675 361.844 822.397L128.686 822.397L128.686 877.307L872.931 877.307L872.931 822.397L632.171 822.397C650.756 790.296 671.031 750.591 689.616 713.421"/></svg>