<svg xmlns="http://www.w3.org/2000/svg" viewBox="0 0 1000 1000" fill="currentColor"><path d="M360.453 530.838C307.462 575.282 210.026 615.453 127.120 637.675C139.940 647.932 152.761 664.171 161.308 675.282C248.487 649.641 346.778 606.051 407.462 552.205M423.701 606.906C363.017 663.316 246.778 710.325 141.650 735.111C153.615 746.222 166.436 764.171 174.983 776.137C283.530 747.077 400.624 694.940 469.855 629.983M492.077 679.556C416.863 759.897 264.726 818.017 110.880 845.368C122.846 858.188 134.812 877.846 140.795 890.667C302.333 858.188 455.325 797.504 541.650 706.051M351.906 232.547C380.966 250.496 416.863 278.701 433.957 298.359L464.726 265.880C445.068 246.222 408.316 219.726 381.821 204.342M134.812 233.402C161.308 251.350 194.641 278.701 210.026 298.359L242.504 268.444C224.556 249.641 191.222 222.291 165.581 206.906M721.991 153.060C760.453 196.650 800.624 256.479 816.009 296.650L862.162 270.154C845.068 230.838 804.043 171.863 765.581 129.983M116.009 368.444L139.940 411.179C176.692 389.812 221.991 361.607 267.291 333.402L267.291 420.581L319.427 420.581L319.427 136.821L124.556 136.821L124.556 186.393L267.291 186.393L267.291 286.393C210.026 318.872 153.615 348.786 116.009 368.444M343.359 360.752L366.436 404.342C403.188 383.829 448.487 357.333 492.077 331.692L492.077 425.709L545.068 425.709L545.068 136.821L347.632 136.821L347.632 186.393L492.077 186.393L492.077 284.684C436.521 314.598 380.966 343.658 343.359 360.752M340.795 407.761C285.239 464.171 185.239 512.889 99.769 541.949C106.607 553.915 117.718 583.829 121.137 595.795C189.513 567.590 265.581 527.419 326.265 480.410C399.769 513.744 490.368 562.462 537.376 596.650L567.291 547.932C520.282 517.162 437.376 475.282 368.145 445.368L386.094 427.419M646.778 110.325C649.342 194.085 651.906 273.573 657.034 348.786L563.017 360.752L570.709 415.453L660.453 403.487C668.145 507.761 679.256 600.923 695.496 676.137C644.214 739.385 584.385 793.231 522.846 828.274C539.085 839.385 558.744 858.188 569.855 872.718C620.282 841.094 668.145 796.650 712.590 745.368C739.085 830.838 774.128 882.120 823.701 883.829C853.615 884.684 882.675 849.641 899.769 728.274C889.513 723.145 867.291 707.761 857.034 694.085C850.197 769.299 839.940 812.889 823.701 812.889C797.205 811.179 774.983 765.880 756.179 689.812C810.026 617.162 854.470 533.402 883.530 452.205L836.521 424.855C814.299 488.957 780.966 553.915 740.795 613.744C730.538 552.205 721.991 477.846 716.009 395.795L893.786 372.718L886.094 318.872L712.590 341.094C708.316 268.444 704.897 190.667 704.043 110.325"/></svg>