<svg xmlns="http://www.w3.org/2000/svg" viewBox="0 0 1000 1000" fill="currentColor"><path d="M267.047 368.395L732.599 368.395L732.599 448.662L267.047 448.662M267.047 237.291L732.599 237.291L732.599 316.667L267.047 316.667M108.295 840.190L108.295 899.944L891.350 899.944L891.350 840.190L536.389 840.190L536.389 759.922L799.488 759.922L799.488 702.843L536.389 702.843L536.389 627.035L839.622 627.035L839.622 568.172L163.591 568.172L163.591 627.035L466.824 627.035L466.824 702.843L205.508 702.843L205.508 759.922L466.824 759.922L466.824 840.190M465.932 99.944C458.797 124.025 446.311 155.240 433.825 182.887L201.049 182.887L201.049 503.958L802.164 503.958L802.164 182.887L507.849 182.887C520.336 160.591 533.713 134.727 545.308 108.863"/></svg>