<svg xmlns="http://www.w3.org/2000/svg" viewBox="0 0 1000 1000" fill="currentColor"><path d="M460.824 570.717L460.824 697.812L221.433 697.812L221.433 570.717M188.354 200.750L188.354 437.529L460.824 437.529L460.824 509.781L154.404 509.781L154.404 793.568L221.433 793.568L221.433 756.136L460.824 756.136L460.824 899.770L530.465 899.770L530.465 756.136L776.819 756.136L776.819 791.827L846.460 791.827L846.460 509.781L530.465 509.781L530.465 437.529L807.287 437.529L807.287 200.750L530.465 200.750L530.465 99.770L460.824 99.770L460.824 200.750M530.465 570.717L776.819 570.717L776.819 697.812L530.465 697.812M254.513 259.074L460.824 259.074L460.824 379.205L254.513 379.205M530.465 259.074L737.646 259.074L737.646 379.205L530.465 379.205"/></svg>