<svg xmlns="http://www.w3.org/2000/svg" viewBox="0 0 1000 1000" fill="currentColor"><path d="M474.881 99.770L474.881 259.074L290.333 259.074C306.873 219.901 320.801 178.116 332.988 136.332L265.959 123.274C233.750 241.664 178.037 358.312 109.267 432.306C126.677 439.270 157.145 456.680 171.073 467.126C203.282 427.083 233.750 378.334 261.606 322.621L474.881 322.621L474.881 530.674L109.267 530.674L109.267 595.091L474.881 595.091L474.881 899.770L543.652 899.770L543.652 595.091L890.986 595.091L890.986 530.674L543.652 530.674L543.652 322.621L842.237 322.621L842.237 259.074L543.652 259.074L543.652 99.770"/></svg>