<svg xmlns="http://www.w3.org/2000/svg" viewBox="0 0 1000 1000" fill="currentColor"><path d="M228.902 100.282L228.902 269.479L123.913 269.479L123.913 331.085L228.902 331.085L228.902 533.254C185.518 548.872 145.605 562.755 113.501 572.299L129.119 636.508L228.902 598.330L228.902 823.926C228.902 836.074 223.696 839.544 213.284 839.544C202.872 839.544 169.900 839.544 131.722 838.677C140.399 856.898 148.208 883.796 150.811 899.414C205.475 899.414 239.315 897.679 260.139 887.267C280.963 876.855 288.772 859.501 288.772 823.926L288.772 575.770L381.614 540.195L369.466 482.061L288.772 511.562L288.772 331.085L379.011 331.085L379.011 269.479L288.772 269.479L288.772 100.282M621.961 234.772L621.961 355.380L486.603 355.380L486.603 405.705L609.813 405.705C575.974 491.605 518.707 582.711 464.043 628.698C477.059 638.243 494.412 655.597 504.824 667.744C544.738 627.831 588.121 561.020 621.961 489.870L621.961 765.792L676.625 765.792L676.625 487.267C713.935 539.328 765.128 615.683 783.349 649.523L821.527 605.271C799.835 575.770 706.993 457.766 676.625 423.059L676.625 405.705L805.041 405.705L805.041 355.380L676.625 355.380L676.625 234.772M402.438 145.401L402.438 900.282L460.573 900.282L460.573 856.030L827.601 856.030L827.601 900.282L886.603 900.282L886.603 145.401M460.573 798.764L460.573 200.933L827.601 200.933L827.601 798.764"/></svg>