<svg xmlns="http://www.w3.org/2000/svg" viewBox="0 0 1000 1000" fill="currentColor"><path d="M480.628 296.904L779.471 296.904L779.471 370.072L480.628 370.072M480.628 177.895L779.471 177.895L779.471 249.300L480.628 249.300M152.694 146.160C204.705 176.132 270.821 221.091 304.320 251.945L345.752 199.934C312.253 170.843 243.493 128.529 192.364 100.320M107.736 385.939C160.628 414.149 226.744 457.344 258.479 486.435L299.030 434.424C265.532 406.215 198.534 365.664 147.405 340.099M130.656 840.815L189.719 881.366C233.796 799.383 285.807 689.190 324.595 597.510L272.584 556.077C229.388 656.573 172.088 772.055 130.656 840.815M417.157 126.766L417.157 421.201L468.287 421.201C444.485 481.146 399.526 551.669 330.766 604.562C343.989 614.259 361.620 634.534 370.435 647.758C382.777 638.061 395.118 627.482 405.697 616.022L405.697 800.264L777.708 800.264L777.708 750.898L464.760 750.898L464.760 615.140L406.579 615.140C431.262 591.339 452.419 565.774 470.050 539.328L827.074 539.328C819.140 746.490 808.562 822.303 793.576 840.815C787.405 850.512 781.234 852.275 769.774 851.394C757.433 851.394 730.986 851.394 701.895 848.749C709.829 861.972 716 884.893 716 898.997C748.617 900.760 780.353 900.760 798.865 898.997C820.022 897.234 835.890 891.063 849.994 873.433C871.152 845.223 881.730 763.240 892.309 514.645C893.190 505.829 893.190 486.435 893.190 486.435L502.667 486.435C513.245 467.923 521.179 449.410 529.113 430.898L473.576 421.201L845.587 421.201L845.587 126.766M628.727 552.551C608.452 617.785 560.848 667.152 499.140 699.769C508.837 707.702 525.587 726.215 531.758 735.912C570.545 713.873 604.926 684.782 631.372 648.639C671.923 674.204 715.118 705.939 739.802 727.978L768.893 690.953C743.328 668.915 695.725 637.179 655.174 612.496C663.989 595.747 671.923 578.116 678.094 559.603"/></svg>