<svg xmlns="http://www.w3.org/2000/svg" viewBox="0 0 1000 1000" fill="currentColor"><path d="M113.378 294.649C142.784 346.541 170.459 414.865 179.973 458.108L231.865 431.297C222.351 388.054 192.946 322.324 161.811 272.162M364.189 482.324L364.189 899.189L423.865 899.189L423.865 538.541L576.946 538.541C570.892 607.730 544.946 687.297 435.108 740.054C448.081 750.432 466.243 771.189 474.892 784.162C550.135 743.514 591.649 692.486 614.135 639.730C662.568 685.568 714.459 740.054 741.270 776.378L784.514 740.919C751.649 698.541 685.054 632.811 630.568 586.108C634.027 569.676 636.622 554.108 637.486 538.541L805.270 538.541L805.270 824.811C805.270 836.054 801.811 838.649 789.703 839.514C777.595 840.378 736.946 840.378 690.243 838.649C698.892 855.081 709.270 880.162 711.865 896.595C772.405 896.595 812.189 896.595 836.405 886.216C861.486 875.838 867.541 857.676 867.541 825.676L867.541 482.324L639.216 482.324L639.216 393.243L891.757 393.243L891.757 336.162L344.297 336.162L344.297 393.243L578.676 393.243L578.676 482.324M522.459 114.757C532.838 141.568 543.216 173.568 551.865 201.243L246.568 201.243L246.568 458.973C246.568 484.054 245.703 511.730 243.973 539.405C189.486 567.081 138.459 593.892 100.405 610.324L122.892 670L237.919 604.270C224.946 693.351 194.676 784.162 124.622 855.946C137.595 864.595 161.811 887.081 171.324 899.189C290.676 779.838 307.973 594.757 307.973 459.838L307.973 260.919L900.405 260.919L900.405 201.243L627.973 201.243C618.459 171.838 603.757 132.054 590.784 101.784"/></svg>