<svg xmlns="http://www.w3.org/2000/svg" viewBox="0 0 1000 1000" fill="currentColor"><path d="M288.326 399.759L714.422 399.759L714.422 451.952L288.326 451.952M288.326 308.209L714.422 308.209L714.422 359.545L288.326 359.545M322.551 773.663L682.765 773.663L682.765 825L322.551 825M322.551 735.160L322.551 685.535L682.765 685.535L682.765 735.160M227.578 266.283L227.578 493.877L371.321 493.877C363.620 508.422 354.209 522.968 343.086 537.513L115.492 537.513L115.492 589.706L296.027 589.706C248.112 634.198 183.086 674.412 100.091 704.358C112.070 714.626 130.037 736.016 136.882 751.417C183.086 732.594 223.299 712.059 259.235 688.957L259.235 894.305L322.551 894.305L322.551 868.636L682.765 868.636L682.765 894.305L748.647 894.305L748.647 689.813C784.583 710.348 823.086 727.460 861.588 739.439C869.289 724.037 887.257 702.647 900.091 690.668C825.652 671.845 746.936 634.198 693.032 589.706L882.979 589.706L882.979 537.513L415.813 537.513C425.225 522.968 433.781 508.422 441.481 493.877L777.738 493.877L777.738 266.283M324.262 641.043C343.086 624.786 360.198 607.674 376.455 589.706L622.016 589.706C638.273 607.674 656.241 624.786 676.775 641.043M607.471 106.283L607.471 161.898L385.866 161.898L385.866 106.283L323.406 106.283L323.406 161.898L118.914 161.898L118.914 214.947L323.406 214.947L323.406 256.872L385.866 256.872L385.866 214.947L607.471 214.947L607.471 256.872L670.786 256.872L670.786 214.947L881.267 214.947L881.267 161.898L670.786 161.898L670.786 106.283"/></svg>