<svg xmlns="http://www.w3.org/2000/svg" viewBox="0 0 1000 1000" fill="currentColor"><path d="M458.123 543.096L730.357 543.096L730.357 609.902L458.123 609.902M458.123 432.866L730.357 432.866L730.357 498.837L458.123 498.837M423.050 683.388C396.328 733.493 350.399 783.597 303.635 817.835C317.831 826.186 341.213 843.722 351.234 853.743C397.163 816.165 448.937 756.040 479.835 699.255M701.965 710.111C747.058 753.534 797.998 815.330 821.380 855.413L873.990 826.186C849.772 785.267 796.328 725.977 751.234 683.388M290.273 118.879C247.685 244.975 176.704 370.236 99.877 452.073C110.733 466.269 129.104 498.837 135.785 513.868C160.002 486.311 184.219 454.578 207.601 419.505L207.601 882.136L265.221 882.136L265.221 323.472C296.954 263.347 326.182 199.881 348.729 136.415M823.050 273.367C805.514 294.244 777.956 322.637 752.069 345.184C731.192 318.461 712.820 289.234 697.789 259.171L873.154 259.171L873.154 204.891L585.054 204.891C594.240 179.839 603.426 153.952 610.942 127.230L552.486 115.539C544.136 147.271 534.115 176.499 521.589 204.891L325.347 204.891L325.347 259.171L495.701 259.171C481.505 286.729 464.804 311.781 446.432 335.163C424.720 315.121 397.163 293.409 373.781 277.543L334.532 313.451C359.585 330.987 387.977 356.040 408.854 377.752C373.781 413.660 333.697 444.557 287.768 468.775C301.129 479.630 321.171 503.848 329.522 516.374C354.574 500.507 378.791 483.806 401.338 464.599L401.338 655.831L565.848 655.831L565.848 817C565.848 826.186 563.342 829.526 550.816 830.361C539.125 831.196 500.712 831.196 455.618 829.526C463.134 846.228 472.319 867.939 474.825 884.641C533.280 884.641 571.693 884.641 596.745 875.455C621.797 867.104 627.643 851.238 627.643 818.670L627.643 655.831L788.812 655.831L788.812 469.610C811.359 489.651 833.906 506.353 858.123 520.549C867.309 505.518 885.681 483.806 899.877 472.950C858.958 452.073 818.875 420.340 783.802 381.927C811.359 361.050 842.257 334.328 871.484 308.441M560.837 259.171L638.499 259.171C658.541 304.265 684.428 348.524 714.491 387.772L478.165 387.772C509.898 349.359 537.455 306.770 560.837 259.171"/></svg>