<svg xmlns="http://www.w3.org/2000/svg" viewBox="0 0 1000 1000" fill="currentColor"><path d="M521.333 187.720L720.043 187.720L720.043 278.043L521.333 278.043M464.559 138.688L464.559 327.075L779.398 327.075L779.398 138.688M429.290 413.097L542.839 413.097L542.839 511.161L429.290 511.161M695.957 413.097L812.946 413.097L812.946 511.161L695.957 511.161M204.774 103.419L204.774 277.183L107.570 277.183L107.570 337.398L204.774 337.398L204.774 525.785C165.204 539.548 129.075 551.591 99.828 561.054L116.172 622.989L204.774 589.441L204.774 819.118C204.774 829.441 202.194 832.022 192.731 832.022C184.989 832.022 159.183 832.882 129.935 832.022C138.538 848.366 146.280 875.032 148.860 889.656C192.731 889.656 221.118 887.935 240.043 878.473C258.968 868.151 265.849 851.806 265.849 819.118L265.849 566.215L351.011 533.527L340.688 475.892L265.849 503.419L265.849 337.398L345.849 337.398L345.849 277.183L265.849 277.183L265.849 103.419M589.290 559.333L589.290 624.710L362.194 624.710L362.194 678.903L548.860 678.903C489.505 742.559 395.742 797.613 306.280 825.140C319.183 837.183 338.108 860.409 346.710 875.892C434.452 844.065 526.495 784.710 589.290 714.172L589.290 895.677L650.366 895.677L650.366 709.871C704.559 775.247 784.559 836.323 857.677 868.151C868 852.667 886.065 830.301 899.828 818.258C824.129 791.591 741.548 737.398 689.075 678.903L886.065 678.903L886.065 624.710L650.366 624.710L650.366 559.333L867.140 559.333L867.140 365.785L644.344 365.785L644.344 559.333L595.312 559.333L595.312 365.785L378.538 365.785L378.538 559.333"/></svg>