<svg xmlns="http://www.w3.org/2000/svg" viewBox="0 0 1000 1000" fill="currentColor"><path d="M552.640 110.740L552.640 763.394C552.640 851.802 574.309 876.937 655.782 876.937C672.250 876.937 777.126 876.937 795.327 876.937C875.067 876.937 892.402 828.400 900.203 686.255C882.001 681.921 855.999 669.787 840.398 656.785C835.197 785.930 829.130 818.866 790.993 818.866C768.458 818.866 680.918 818.866 661.849 818.866C623.713 818.866 616.779 810.198 616.779 764.261L616.779 110.740M228.480 130.675C261.416 167.078 296.086 216.482 313.420 252.018L132.272 252.018L132.272 311.823L371.492 311.823C310.820 425.366 203.345 531.108 100.203 590.913C108.870 603.048 123.605 635.984 128.805 653.319C175.609 623.849 224.146 584.846 270.083 538.909L270.083 899.472L332.489 899.472L332.489 525.041C371.492 569.245 419.163 625.583 440.831 655.919L482.434 601.314C460.766 578.779 381.026 494.705 342.889 458.302C387.093 401.964 426.096 339.559 452.965 274.554L418.296 249.418L406.161 252.018L320.354 252.018L368.892 220.816C351.557 187.013 314.287 137.609 278.751 101.206"/></svg>