<svg xmlns="http://www.w3.org/2000/svg" viewBox="0 0 1000 1000" fill="currentColor"><path d="M473.575 211.549C527.652 241.592 593.747 289.661 625.506 322.279L662.416 272.494C629.798 240.734 562.845 196.099 508.768 167.773M432.373 427.858C488.167 456.185 558.554 499.961 593.747 530.863L628.940 479.361C592.888 448.459 522.502 408.116 465.850 382.365M710.485 105.970L710.485 602.966L398.897 652.751L410.056 712.837L710.485 663.910L710.485 894.811L774.004 894.811L774.004 653.609L900.185 633.009L889.026 573.781L774.004 592.665L774.004 105.970M229.798 105.970L229.798 280.219L111.343 280.219L111.343 341.163L229.798 341.163L229.798 526.571C181.730 540.305 137.094 552.322 100.185 560.906L119.069 622.708L229.798 590.948L229.798 814.124C229.798 826.142 224.648 829.575 212.631 830.433C202.330 830.433 165.421 831.292 124.219 829.575C133.661 845.884 141.386 873.352 143.961 889.661C203.189 889.661 238.382 887.944 261.558 877.644C284.734 867.343 293.318 850.176 293.318 814.124L293.318 572.064L407.481 537.730L399.755 478.502L293.318 508.545L293.318 341.163L400.614 341.163L400.614 280.219L293.318 280.219L293.318 105.970"/></svg>