<svg xmlns="http://www.w3.org/2000/svg" viewBox="0 0 1000 1000" fill="currentColor"><path d="M409.862 263.057L409.862 324.448L875.911 324.448L875.911 263.057M469.523 391.891C496.328 512.078 520.538 672.039 528.320 762.828L591.440 744.670C582.793 656.475 555.124 499.972 526.590 378.921M570.688 116.066C587.116 159.298 604.409 216.366 611.327 253.546L675.311 234.523C667.529 197.343 648.507 142.870 632.078 99.637M369.223 802.602L369.223 863.992L899.257 863.992L899.257 802.602L723.732 802.602C755.724 686.738 791.175 517.266 813.656 383.244L745.348 372.004C729.784 501.702 695.198 686.738 663.206 802.602M218.773 105.690L218.773 280.350L111.556 280.350L111.556 340.876L218.773 340.876L218.773 532.829C174.676 544.935 134.902 555.310 101.180 563.092L120.203 626.212L218.773 596.814L218.773 825.947C218.773 837.188 215.315 840.647 204.074 840.647C194.563 841.511 162.571 841.511 127.120 840.647C134.902 857.940 143.548 883.879 146.142 899.443C199.751 900.308 231.743 898.578 252.495 888.203C274.111 877.827 282.758 861.398 282.758 825.947L282.758 577.791L381.328 548.393L373.546 488.732L282.758 514.672L282.758 340.876L373.546 340.876L373.546 280.350L282.758 280.350L282.758 105.690"/></svg>