<svg xmlns="http://www.w3.org/2000/svg" viewBox="0 0 1000 1000" fill="currentColor"><path d="M473.720 373.925L603.613 373.925L603.613 484.032L473.720 484.032M663.828 373.925L795.441 373.925L795.441 484.032L663.828 484.032M473.720 211.344L603.613 211.344L603.613 320.591L473.720 320.591M663.828 211.344L795.441 211.344L795.441 320.591L663.828 320.591M337.806 816.075L337.806 876.290L900.387 876.290L900.387 816.075L668.129 816.075L668.129 697.366L871.140 697.366L871.140 638.871L668.129 638.871L668.129 540.806L857.376 540.806L857.376 154.570L414.366 154.570L414.366 540.806L599.312 540.806L599.312 638.871L404.043 638.871L404.043 697.366L599.312 697.366L599.312 816.075M100.387 694.785L126.194 759.301C201.032 726.613 297.376 682.742 388.559 640.591L373.935 582.957L278.452 623.387L278.452 380.806L376.516 380.806L376.516 319.731L278.452 319.731L278.452 122.742L217.376 122.742L217.376 319.731L112.430 319.731L112.430 380.806L217.376 380.806L217.376 648.333C172.645 667.258 132.215 682.742 100.387 694.785"/></svg>