<svg xmlns="http://www.w3.org/2000/svg" viewBox="0 0 1000 1000" fill="currentColor"><path d="M548.347 467.048C578.749 532.194 616.100 618.188 632.604 669.436L692.539 644.246C674.298 595.604 635.210 510.479 603.939 447.938M750.736 110.045L750.736 305.484L514.471 305.484L514.471 368.025L750.736 368.025L750.736 815.365C750.736 830.131 744.656 835.343 729.021 835.343C714.254 836.212 665.611 836.212 610.888 834.474C621.312 852.716 632.604 881.380 636.078 898.752C708.174 898.752 751.605 896.147 777.663 885.723C803.722 875.300 815.014 856.190 815.014 815.365L815.014 368.025L900.139 368.025L900.139 305.484L815.014 305.484L815.014 110.045M278.206 101.358L278.206 214.279L134.884 214.279L134.884 273.345L278.206 273.345L278.206 393.215L107.957 393.215L107.957 453.150L501.442 453.150L501.442 393.215L341.616 393.215L341.616 273.345L483.201 273.345L483.201 214.279L341.616 214.279L341.616 101.358M100.139 799.730L109.694 864.008C217.403 846.635 372.017 820.577 517.946 796.255L514.471 735.452L341.616 763.248L341.616 634.692L491.018 634.692L491.018 575.625L341.616 575.625L341.616 473.128L278.206 473.128L278.206 575.625L127.935 575.625L127.935 634.692L278.206 634.692L278.206 772.802"/></svg>