<svg xmlns="http://www.w3.org/2000/svg" viewBox="0 0 1000 1000" fill="currentColor"><path d="M140.996 277.216C137.532 345.615 124.545 434.792 102.900 488.472L153.117 508.385C175.628 447.779 188.615 353.407 190.346 283.277M378.225 251.242C364.372 305.788 336.667 383.710 315.022 432.195L354.848 450.377C379.091 404.489 407.662 331.762 431.905 272.887M496.840 246.913C483.853 341.286 461.342 441.719 430.173 508.385C444.892 513.580 472.597 526.567 484.719 535.225C515.887 465.095 541.861 359.468 557.446 258.169M740.996 253.840C781.688 328.299 822.381 427 837.965 491.935L896.840 470.290C880.390 405.355 839.697 309.251 796.407 234.792M796.407 523.104C733.203 693.667 597.273 791.502 381.688 836.524C395.541 851.242 410.260 876.351 417.186 893.667C644.892 839.121 788.615 730.030 857.013 542.152M618.052 99.727L618.052 635.658L680.390 635.658L680.390 99.727M238.831 104.056L238.831 400.160C238.831 559.468 225.844 724.835 105.498 852.974C120.216 862.498 141.861 885.009 151.385 899.727C221.515 826.134 259.610 741.286 278.658 652.108C314.156 691.935 359.177 747.346 379.091 775.918L422.381 727.433C402.468 704.056 319.351 613.147 290.779 585.442C298.571 524.835 300.303 462.498 300.303 400.160L300.303 104.056"/></svg>