<svg xmlns="http://www.w3.org/2000/svg" viewBox="0 0 1000 1000" fill="currentColor"><path d="M285.541 894.884C305.305 881.995 337.099 870.824 576.841 794.347C573.404 780.598 568.248 755.679 566.530 737.634L356.863 800.362L356.863 611.318C408.420 576.087 454.822 537.419 491.771 496.173C558.796 676.624 679.097 807.236 856.970 866.527C866.422 849.342 885.327 824.422 899.934 810.673C814.865 785.754 741.825 743.649 682.534 687.795C736.669 654.282 799.397 609.599 849.236 567.494L795.960 529.685C758.151 566.635 698.001 613.037 646.444 649.127C608.635 604.444 577.700 552.886 555.359 496.173L871.578 496.173L871.578 440.319L529.580 440.319L529.580 363.842L806.272 363.842L806.272 310.566L529.580 310.566L529.580 237.526L844.081 237.526L844.081 181.672L529.580 181.672L529.580 105.195L464.274 105.195L464.274 181.672L159.226 181.672L159.226 237.526L464.274 237.526L464.274 310.566L203.049 310.566L203.049 363.842L464.274 363.842L464.274 440.319L124.854 440.319L124.854 496.173L410.139 496.173C328.506 569.213 206.487 635.378 99.934 669.750C113.683 682.639 132.588 706.699 142.899 722.166C191.019 704.981 241.718 680.921 290.697 652.564L290.697 779.739C290.697 814.111 271.793 828.719 257.185 836.452C267.496 850.201 281.245 879.417 285.541 894.884"/></svg>