<svg xmlns="http://www.w3.org/2000/svg" viewBox="0 0 1000 1000" fill="currentColor"><path d="M604.579 100.806L604.579 264.620L443.365 264.620L443.365 327.025L604.579 327.025L604.579 346.960C604.579 393.764 602.845 443.168 595.044 492.572L410.429 492.572L410.429 554.977L582.910 554.977C555.174 662.453 491.902 767.328 353.224 848.802C367.092 860.069 389.627 884.338 399.161 899.939C535.239 818.466 603.712 714.457 637.515 606.115C682.585 734.392 753.658 838.401 854.199 895.606C864.600 879.138 884.535 854.002 900.137 841.001C796.128 788.997 721.588 682.388 681.718 554.977L880.202 554.977L880.202 492.572L661.783 492.572C667.850 443.168 669.584 394.631 669.584 346.960L669.584 327.025L852.466 327.025L852.466 264.620L669.584 264.620L669.584 100.806M218.880 99.939L218.880 275.021L109.671 275.021L109.671 335.692L218.880 335.692L218.880 528.108C174.676 540.243 133.073 550.644 100.137 558.444L114.004 622.583L218.880 591.380L218.880 815.866C218.880 827.133 214.546 830.600 203.278 831.467C192.878 831.467 157.341 832.334 120.072 830.600C127.872 847.068 136.540 873.937 139.140 890.405C195.478 890.405 230.147 889.538 251.816 879.138C274.351 868.737 282.152 851.402 282.152 814.999L282.152 573.179L386.160 541.976L378.360 483.038L282.152 509.907L282.152 335.692L383.560 335.692L383.560 275.021L282.152 275.021L282.152 99.939"/></svg>