<svg xmlns="http://www.w3.org/2000/svg" viewBox="0 0 1000 1000" fill="currentColor"><path d="M155.922 377.593C204.670 397.615 266.477 429.824 297.815 454.198L327.412 405.449C296.074 381.946 233.397 351.478 183.778 334.067M112.396 544.731C163.756 562.141 228.174 592.609 261.254 615.243L290.851 563.012C257.771 541.249 191.613 513.393 141.993 498.594M137.641 850.281L186.390 892.065C236.009 825.906 295.203 736.244 342.211 661.380L301.297 621.336C249.937 703.164 183.778 795.439 137.641 850.281M383.125 415.896L383.125 677.049L443.190 677.049L443.190 615.243L581.602 615.243L581.602 672.696L640.797 672.696L640.797 615.243L790.524 615.243L790.524 675.308L852.331 675.308L852.331 415.896L640.797 415.896L640.797 379.334L888.022 379.334L888.022 335.808L834.921 335.808L852.331 314.916C834.050 300.118 794.877 280.096 766.150 267.038L735.682 299.247C757.445 308.823 782.690 322.751 801.841 335.808L640.797 335.808L640.797 295.765L581.602 295.765L581.602 335.808L344.823 335.808L344.823 379.334L581.602 379.334L581.602 415.896M705.214 650.934L705.214 709.258L325.671 709.258L325.671 755.395L440.579 755.395L407.499 777.158C445.802 804.144 486.716 844.187 504.126 873.785L551.134 842.446C534.594 814.590 498.903 780.640 464.083 755.395L705.214 755.395L705.214 838.094C705.214 847.669 702.603 850.281 690.416 851.151C679.099 852.022 639.055 852.892 594.659 851.151C602.494 865.079 611.199 885.101 614.681 899.900C674.746 899.900 712.178 899.900 736.553 892.065C761.798 883.360 767.021 870.303 767.021 839.835L767.021 755.395L894.986 755.395L894.986 709.258L767.021 709.258L767.021 650.934M581.602 535.156L581.602 580.422L443.190 580.422L443.190 535.156M581.602 500.335L443.190 500.335L443.190 457.680L581.602 457.680M640.797 535.156L790.524 535.156L790.524 580.422L640.797 580.422M640.797 500.335L640.797 457.680L790.524 457.680L790.524 500.335M237.750 99.900C209.023 171.282 159.404 241.793 105.432 288.801C121.101 296.635 147.217 314.046 159.404 323.621C187.260 296.635 215.987 260.945 241.232 221.771L280.405 221.771C302.168 253.980 324.801 293.153 334.376 320.139L389.219 300.988C379.643 279.225 362.233 248.757 343.082 221.771L490.198 221.771L490.198 172.152L270.829 172.152C280.405 153.872 289.980 134.720 297.815 115.569M567.674 99.900C541.558 173.023 492.810 241.793 435.356 287.060C451.025 294.894 478.011 310.564 491.069 320.139C520.666 294.024 549.393 260.074 574.638 221.771L619.904 221.771C643.408 250.498 666.912 287.060 678.229 311.434L730.459 290.542C720.884 270.520 703.473 245.275 684.322 221.771L894.115 221.771L894.115 172.152L603.365 172.152C612.940 153.001 621.645 133.850 629.480 113.828"/></svg>