<svg xmlns="http://www.w3.org/2000/svg" viewBox="0 0 1000 1000" fill="currentColor"><path d="M435.831 527.165C460.939 569.589 482.584 625.866 490.377 662.229L544.922 644.048C537.996 608.550 513.753 553.139 488.645 511.580M460.074 319.372L744.056 319.372L744.056 444.913L460.074 444.913M399.468 267.424L399.468 497.727L807.260 497.727L807.260 267.424M340.593 137.554L340.593 195.563L873.926 195.563L873.926 137.554M134.532 148.810C181.286 200.758 232.368 271.753 254.013 317.641L310.290 284.740C286.913 239.719 234.100 170.455 187.346 121.104M336.264 678.680L336.264 736.688L880.853 736.688L880.853 678.680L705.095 678.680C730.203 631.926 756.177 573.918 778.688 521.970L716.351 507.251C699.035 557.468 669.597 628.463 641.892 678.680M278.255 418.939L118.948 418.939L118.948 479.545L215.052 479.545L215.052 715.909C180.420 731.494 140.593 770.455 99.900 820.671L143.190 878.680C182.152 818.939 219.381 764.394 244.489 764.394C263.537 764.394 292.108 795.563 327.606 818.074C389.944 858.766 463.537 868.290 575.225 868.290C657.476 868.290 820.247 862.229 880.853 858.766C881.719 840.584 892.108 809.416 899.900 792.100C815.052 801.623 683.450 808.550 576.091 808.550C476.524 808.550 401.199 803.355 344.056 766.126C313.753 747.078 294.706 729.762 278.255 719.372"/></svg>