<svg xmlns="http://www.w3.org/2000/svg" viewBox="0 0 1000 1000" fill="currentColor"><path d="M143.987 155.460C195.215 185.343 264.371 228.886 298.523 256.207L338.651 205.834C302.792 181.074 233.635 140.092 183.261 112.771M100.444 385.983C154.233 412.450 226.805 450.871 263.518 475.631L301.084 422.696C262.664 399.644 190.092 363.784 137.157 340.732M126.058 832.514L180.700 875.204C231.927 794.094 293.400 683.101 339.505 589.185L292.546 547.349C242.173 648.096 173.016 764.211 126.058 832.514M364.265 153.752L364.265 326.218L424.884 326.218L424.884 215.225L806.527 215.225L806.527 326.218L869.708 326.218L869.708 153.752M461.597 362.931L461.597 543.080C461.597 640.412 444.521 756.527 312.184 837.637C324.990 847.029 346.335 873.496 353.165 887.157C498.309 797.509 523.923 656.634 523.923 544.788L523.923 422.696L692.120 422.696L692.120 779.580C692.120 850.444 708.342 870.081 763.838 870.081C774.083 870.081 815.065 870.081 826.164 870.081C881.661 870.081 895.321 829.953 900.444 689.932C883.368 685.663 856.901 674.564 843.240 662.610C840.679 787.264 838.117 809.462 821.042 809.462C811.650 809.462 780.060 809.462 774.083 809.462C757.861 809.462 755.300 806.047 755.300 779.580L755.300 362.931"/></svg>