<svg width="110" height="110" version="1.1" xmlns="http://www.w3.org/2000/svg" desc="Created with imagetracer.js version 1.2.6" ><path fill="rgb(4,4,4)" stroke="rgb(4,4,4)" stroke-width="1" opacity="1" d="M 45 5 L 50.5 7 L 61 17.5 L 62.5 20 L 66 22.5 L 72 30.5 L 72 36.5 L 70 42.5 Q 62.4 48.4 58 57.5 L 56 62.5 L 55 75.5 L 56 78.5 L 55 79.5 L 55 94.5 L 51.5 103 Q 48.5 103.5 50 96.5 L 51 95.5 L 51 78.5 L 53 72.5 L 54 60.5 L 58 51.5 L 67 40.5 L 68 33.5 L 60.5 22 L 56.5 21 L 45.5 34 L 37 40 Q 38.4 32.7 44.5 29 L 50 26 L 54 19.5 L 54 15.5 L 46 8.5 L 45 5 Z " /><path fill="rgb(0,0,0)" stroke="rgb(0,0,0)" stroke-width="1" opacity="0" d="M 0 0 L 110 0 L 110 110 L 0 110 L 0 0 Z M 44 4 L 44 8 L 53 15 L 54 18 L 51 23 Q 49 28 43 29 Q 36 33 36 41 Q 41 42 42 39 Q 41 36 44 37 L 52 28 L 57 23 L 60 23 L 66 31 L 66 41 L 56 53 L 54 58 L 50 79 L 50 96 L 49 97 L 49 103 L 53 103 Q 55 102 54 98 L 56 96 L 56 86 L 56 84 Q 59 75 57 63 Q 62 50 71 43 L 73 36 Q 74 30 71 28 L 60 15 Q 55 6 44 4 Z " /><path fill="rgb(125,125,125)" stroke="rgb(125,125,125)" stroke-width="1" opacity="1" d="M 44 4 L 47 4.5 L 45 5 Q 45.7 10.4 50.5 13 L 54 15.5 L 53.5 17 L 53 15 L 44 7.5 L 44 4 Z " /><path fill="rgb(125,125,125)" stroke="rgb(125,125,125)" stroke-width="1" opacity="1" d="M 48.5 5 L 60 14.5 L 72 29.5 L 69 27.5 L 63.5 20 L 61 18.5 L 50.5 7 L 48.5 5 Z " /><path fill="rgb(125,125,125)" stroke="rgb(125,125,125)" stroke-width="1" opacity="1" d="M 53.5 18 L 54 19.5 L 50 26 L 39 34.5 L 37 40 L 48 31.5 L 56.5 21 L 62 23.5 L 67 30.5 L 68 38.5 L 58 51.5 L 54.5 60 L 54 57.5 L 56 52.5 L 66 40.5 L 66 30.5 L 59.5 23 L 56.5 23 L 52 27.5 L 43.5 37 Q 41.3 36.3 42 38.5 Q 40.7 42 36 41 Q 36.3 32.7 42.5 29 Q 48.6 27.6 51 22.5 L 53.5 18 Z " /><path fill="rgb(125,125,125)" stroke="rgb(125,125,125)" stroke-width="1" opacity="1" d="M 72.5 31 L 73 35.5 L 72 35.5 L 72.5 31 Z " /><path fill="rgb(125,125,125)" stroke="rgb(125,125,125)" stroke-width="1" opacity="1" d="M 71.5 37 L 72 40.5 Q 62.6 49.6 57 62.5 Q 58.7 75.2 56 83.5 L 56 85.5 L 56 95.5 L 54.5 97 L 54 95.5 L 55 94.5 L 55 79.5 L 56 76.5 L 55 72.5 L 56 71.5 L 56 62.5 L 58 57.5 Q 62.4 48.4 70 42.5 L 71.5 37 Z " /><path fill="rgb(125,125,125)" stroke="rgb(125,125,125)" stroke-width="1" opacity="1" d="M 53.5 62 L 54 66.5 L 51 78.5 L 51 95.5 L 49.5 103 L 49 96.5 L 50 95.5 L 50 78.5 L 53.5 62 Z " /><path fill="rgb(125,125,125)" stroke="rgb(125,125,125)" stroke-width="1" opacity="1" d="M 53.5 99 L 54 101.5 L 52 102.5 L 53.5 99 Z " /></svg>