<svg width="110" height="110" version="1.1" xmlns="http://www.w3.org/2000/svg" desc="Created with imagetracer.js version 1.2.6" ><path fill="rgb(38,38,38)" stroke="rgb(38,38,38)" stroke-width="1" opacity="1" d="M 44.5 28 L 47.5 28 L 51 30 L 52 33.5 L 51 37 L 49 37.5 Q 51.7 41.6 57 41 Q 55.9 43.7 58.5 43 Q 59.6 45.8 63 45 L 64.5 48 L 72.5 54 L 75 54 L 76.5 57 L 79.5 59 L 81 58.5 L 81 60 Q 84.8 58.5 84 61.5 L 86 61.5 Q 85.1 64.5 89.5 63 L 93.5 66 L 107 68 Q 107.8 72.7 103.5 74 L 101 75.5 Q 101.8 77.8 99.5 77 L 97.5 77 L 92.5 78 L 90.5 80 L 83.5 76 L 82 76.5 L 82 74 Q 77.9 75.7 79 71.5 L 68.5 60 L 65 59 L 63.5 56 Q 59.8 57.3 61 53.5 L 55 51 Q 56.3 48 52.5 49 L 46.5 46 L 45 49.5 L 31.5 63 Q 28.9 62.3 30 65 L 27.5 65 L 19.5 71 L 15 72 Q 16.1 75.3 12 74 L 12 72 L 8 72 L 8 70.5 Q 5.5 69 7 63.5 L 9 61.5 Q 8 57 10.5 56 L 16 57 L 16.5 59 Q 17.7 56.7 22.5 58 L 24 58.5 Q 23.2 55.9 26.5 57 L 29 56 L 29.5 54 L 30.5 55 L 38 47.5 L 37.5 46 Q 39.8 46.8 39 44.5 L 40 39 Q 43.3 40.1 42 36 Q 38.3 37.2 40 32 Q 42.7 33.1 42 30.5 L 44.5 28 Z " /><path fill="rgb(0,0,0)" stroke="rgb(0,0,0)" stroke-width="1" opacity="0" d="M 0 0 L 110 0 L 110 110 L 0 110 L 0 0 Z M 45 28 L 42 31 Q 43 33 40 32 Q 38 37 42 36 Q 43 40 40 39 L 39 45 Q 40 47 38 46 L 38 48 L 31 55 L 30 54 L 29 56 L 27 57 Q 23 56 24 59 L 23 58 Q 18 57 17 59 L 16 57 L 11 56 Q 8 57 9 62 L 7 64 Q 6 69 8 71 L 8 72 L 12 72 L 12 74 Q 16 75 15 72 L 20 71 L 28 65 L 30 65 Q 29 62 32 63 L 45 50 L 47 46 L 53 49 Q 56 48 55 51 L 61 54 Q 60 57 64 56 L 65 59 L 69 60 L 79 72 Q 78 76 82 74 L 82 77 L 84 76 L 91 80 L 93 78 L 98 77 L 100 77 Q 102 78 101 76 L 104 74 Q 108 73 107 68 L 94 66 L 90 63 Q 85 64 86 62 L 84 62 Q 85 58 81 60 L 81 59 L 80 59 L 77 57 L 75 54 L 73 54 L 65 48 L 63 45 Q 60 46 59 43 Q 56 44 57 41 Q 52 42 49 38 L 51 37 L 52 34 L 51 30 L 48 28 L 45 28 Z " /></svg>