<svg xmlns="http://www.w3.org/2000/svg" viewBox="0 0 1000 1000" fill="currentColor"><path d="M448.994 293.078L448.994 804.836L343.708 804.836L343.708 866.972L900.342 866.972L900.342 804.836L705.304 804.836L705.304 465.677L887.397 465.677L887.397 402.679L705.304 402.679L705.304 110.122L639.716 110.122L639.716 804.836L511.992 804.836L511.992 293.078M226.340 104.081L226.340 278.407L110.698 278.407L110.698 338.817L226.340 338.817L226.340 527.813C178.875 540.758 135.725 551.977 100.342 560.607L119.328 623.606L226.340 592.538L226.340 819.507C226.340 832.452 222.025 836.767 209.943 836.767C198.724 836.767 161.615 836.767 121.054 835.904C128.821 853.164 137.451 879.917 140.040 895.451C199.587 895.451 235.833 893.725 258.271 883.369C281.572 873.876 289.339 856.616 289.339 819.507L289.339 573.552L406.707 537.306L398.940 478.622L289.339 509.690L289.339 338.817L399.803 338.817L399.803 278.407L289.339 278.407L289.339 104.081"/></svg>