<svg xmlns="http://www.w3.org/2000/svg" viewBox="0 0 1000 1000" fill="currentColor"><path d="M474.367 336.359L758.658 336.359L758.658 426.499L474.367 426.499M414.562 288.688L414.562 475.037L821.930 475.037L821.930 288.688M147.607 162.144C197.011 185.546 257.683 224.549 286.285 253.152L324.421 200.281C294.086 172.545 233.414 137.009 184.010 115.340M99.936 400.497C151.940 423.899 215.212 460.302 246.415 488.038L282.818 435.167C250.749 408.298 186.610 372.762 135.472 351.960M129.405 846.868L186.610 887.605C229.947 806.998 280.218 697.789 317.488 606.781L266.350 567.778C225.613 665.719 169.275 779.262 129.405 846.868M553.241 117.074C565.375 137.009 577.509 162.144 585.310 184.679L348.690 184.679L348.690 239.284L890.402 239.284L890.402 184.679L651.182 184.679C642.515 156.944 627.780 124.008 609.579 99.739M585.310 626.716L585.310 676.120L328.755 676.120L328.755 729.858L585.310 729.858L585.310 829.533C585.310 840.801 581.843 844.268 567.975 845.134C554.974 846.001 508.170 846.001 455.299 844.268C463.966 860.736 472.634 882.404 476.101 899.739C543.706 899.739 587.910 899.739 614.779 891.072C641.648 881.537 648.582 865.936 648.582 831.267L648.582 729.858L899.069 729.858L899.069 676.120L648.582 676.120L648.582 650.985C713.587 625.849 782.926 591.180 833.197 554.777L793.327 520.974L780.326 524.441L387.693 524.441L387.693 576.445L701.453 576.445C665.050 595.514 622.580 613.715 585.310 626.716"/></svg>