<svg xmlns="http://www.w3.org/2000/svg" viewBox="0 0 1000 1000" fill="currentColor"><path d="M122.360 107.472L122.360 276.948L190.697 276.948L190.697 171.253L810.287 171.253L810.287 267.836L880.446 267.836L880.446 107.472M552.428 260.547C651.745 307.016 780.219 377.175 844 423.645L886.825 371.708C819.399 325.239 689.103 257.813 593.431 214.989M398.442 212.255C327.371 272.392 229.877 331.617 117.804 368.975L160.629 425.467C270.879 380.820 372.018 316.128 446.733 252.346M100.492 612.255L100.492 677.859L462.223 677.859L462.223 891.982L534.205 891.982L534.205 677.859L900.492 677.859L900.492 612.255L534.205 612.255L534.205 487.426L792.064 487.426L792.064 423.645L210.743 423.645L210.743 487.426L462.223 487.426L462.223 612.255"/></svg>