<svg xmlns="http://www.w3.org/2000/svg" viewBox="0 0 1000 1000" fill="currentColor"><path d="M477.283 467.827L775.355 467.827L775.355 529.497L477.283 529.497M477.283 360.760L775.355 360.760L775.355 420.717L477.283 420.717M699.981 105.514L699.981 176.606L568.075 176.606L568.075 105.514L507.261 105.514L507.261 176.606L381.351 176.606L381.351 231.424L507.261 231.424L507.261 295.664L568.075 295.664L568.075 231.424L699.981 231.424L699.981 295.664L762.507 295.664L762.507 231.424L882.422 231.424L882.422 176.606L762.507 176.606L762.507 105.514M417.325 311.938L417.325 577.463L592.058 577.463C588.632 603.158 585.206 626.285 579.210 648.555L364.221 648.555L364.221 703.373L560.366 703.373C527.818 769.325 466.148 814.722 340.238 842.131C352.229 854.979 368.503 878.961 374.499 893.522C523.535 857.548 592.914 795.878 627.176 705.086C670.002 799.304 749.660 863.544 861.009 893.522C869.574 877.248 886.704 853.266 900.409 840.418C803.621 819.861 729.959 772.752 688.846 703.373L880.709 703.373L880.709 648.555L643.450 648.555C647.732 626.285 652.015 602.302 654.585 577.463L837.882 577.463L837.882 311.938M222.893 105.514L222.893 270.824L115.827 270.824L115.827 330.782L222.893 330.782L222.893 331.638C199.767 448.126 150.088 584.315 100.409 656.263C111.544 671.681 126.961 699.946 134.670 718.790C167.218 668.255 198.054 590.310 222.893 506.370L222.893 892.666L284.563 892.666L284.563 451.552C307.690 496.949 334.242 551.767 345.377 580.032L386.490 533.779C371.929 507.227 306.833 400.161 284.563 366.756L284.563 330.782L372.786 330.782L372.786 270.824L284.563 270.824L284.563 105.514"/></svg>