<svg xmlns="http://www.w3.org/2000/svg" viewBox="0 0 1000 1000" fill="currentColor"><path d="M440.636 194.110L440.636 429.555L347.832 468.223L371.893 525.796L440.636 496.580L440.636 768.116C440.636 861.779 468.992 884.980 567.811 884.980C590.153 884.980 755.996 884.980 780.056 884.980C869.422 884.980 890.904 847.171 900.357 728.589C883.171 726.011 857.392 715.699 842.784 704.528C836.769 803.347 828.176 826.548 777.478 826.548C743.106 826.548 598.745 826.548 570.389 826.548C512.816 826.548 502.505 817.096 502.505 769.835L502.505 469.942L617.650 420.962L617.650 713.121L678.660 713.121L678.660 395.184L798.960 343.626C798.960 481.972 797.242 577.353 792.945 597.976C788.649 617.740 780.915 621.177 767.166 621.177C758.574 621.177 730.217 621.177 709.594 619.459C717.328 634.067 722.483 658.986 725.061 676.172C749.121 676.172 783.493 676.172 805.835 669.298C831.613 663.282 847.940 647.815 853.096 612.584C859.111 579.072 860.829 450.178 860.829 288.632L864.266 276.602L818.724 259.416L806.694 268.868L793.805 280.898L678.660 329.018L678.660 114.195L617.650 114.195L617.650 354.797L502.505 402.917L502.505 194.110M100.357 703.669L126.135 768.116C201.753 734.604 299.712 690.780 391.656 647.815L377.048 590.243L279.089 631.489L279.089 382.294L380.485 382.294L380.485 321.285L279.089 321.285L279.089 124.507L218.079 124.507L218.079 321.285L108.090 321.285L108.090 382.294L218.079 382.294L218.079 657.267C173.396 675.313 133.010 691.639 100.357 703.669"/></svg>