<svg xmlns="http://www.w3.org/2000/svg" viewBox="0 0 1000 1000" fill="currentColor"><path d="M131.208 193.256L131.208 349.438L197.152 349.438L197.152 254.861L803.659 254.861L803.659 349.438L871.338 349.438L871.338 193.256L553.768 193.256C539.017 164.623 515.590 128.180 493.030 99.547L431.425 116.033C447.911 138.592 466.132 167.226 479.148 193.256M118.193 619.286L118.193 680.892L477.412 680.892L477.412 899.547L544.223 899.547L544.223 680.892L881.751 680.892L881.751 619.286L544.223 619.286L544.223 476.987L803.659 476.987L803.659 416.249L544.223 416.249L544.223 298.245L477.412 298.245L477.412 416.249L326.436 416.249C342.054 385.013 355.937 352.909 368.085 320.805L304.744 305.187C272.640 397.161 217.108 487.399 154.636 544.666C170.254 553.343 198.020 572.432 210.167 582.844C238.800 554.210 266.566 517.768 291.729 476.987L477.412 476.987L477.412 619.286"/></svg>