<svg xmlns="http://www.w3.org/2000/svg" viewBox="0 0 1000 1000" fill="currentColor"><path d="M145.970 162.622C197.472 189.232 261.850 231.292 292.751 261.335L330.519 208.974C298.760 180.648 233.524 141.163 182.880 116.270M99.618 398.674C152.837 423.567 218.931 461.335 251.549 488.803L287.601 435.584C254.124 408.974 186.313 372.064 134.811 350.605M128.803 840.734L183.738 882.794C232.665 801.249 289.318 692.236 332.236 601.249L283.309 560.047C236.957 658.760 171.721 772.923 128.803 840.734M357.987 454.468L357.987 517.129L533.953 517.129C478.159 632.150 385.455 743.738 293.609 801.249C309.060 813.266 328.803 836.442 339.961 851.034C427.515 789.232 514.210 681.077 573.438 562.622L573.438 894.811L638.674 894.811L638.674 563.481C693.609 676.785 772.579 784.082 852.408 846.742C862.708 829.575 884.167 806.399 899.618 795.240C813.781 737.730 727.944 628.717 677.300 517.129L865.283 517.129L865.283 454.468L638.674 454.468L638.674 309.403L879.876 309.403L879.876 246.742L638.674 246.742L638.674 105.970L573.438 105.970L573.438 246.742L335.670 246.742L335.670 309.403L573.438 309.403L573.438 454.468"/></svg>