<svg xmlns="http://www.w3.org/2000/svg" viewBox="0 0 1000 1000" fill="currentColor"><path d="M268.667 303.498L268.667 350.815L543.804 350.815L543.804 303.498M290.573 673.268L290.573 819.599C290.573 883.564 317.736 899.336 419.379 899.336C440.409 899.336 598.130 899.336 620.036 899.336C706.783 899.336 728.689 873.926 737.451 763.520C719.050 760.015 691.011 752.129 675.239 742.491C670.858 832.743 664.724 845.886 616.531 845.886C581.482 845.886 449.171 845.886 422.008 845.886C366.805 845.886 356.290 841.505 356.290 817.847L356.290 673.268M424.636 660.125C466.696 701.308 516.641 759.139 539.423 795.065L594.625 766.149C570.091 730.223 517.517 674.145 476.334 634.714M728.689 696.050C764.614 748.624 805.797 819.599 822.446 863.411L884.658 841.505C866.257 796.817 824.198 726.719 787.396 676.773M192.435 696.050C171.405 744.243 136.356 810.837 101.307 852.896L161.767 878.307C194.187 834.495 225.732 766.149 248.514 717.080M334.384 451.582L475.458 451.582L475.458 544.462L334.384 544.462M279.182 404.265L279.182 591.779L528.032 591.779L528.032 404.265M172.281 191.341L172.281 322.775C172.281 411.275 164.395 534.824 99.554 626.828C112.698 632.962 138.108 654.867 147.747 667.135C219.598 568.120 233.618 423.542 233.618 322.775L233.618 245.667L574.472 245.667C587.616 348.186 611.274 438.438 642.818 507.660C607.769 543.586 567.462 575.130 524.527 600.541C537.670 610.180 561.329 632.962 570.967 644.353C606.893 620.694 641.066 593.531 673.486 562.863C711.164 619.818 757.605 653.115 811.055 653.115C868.010 653.115 889.916 621.571 899.554 509.413C883.782 505.032 861 494.517 847.857 481.373C843.475 561.111 834.713 593.531 813.683 593.531C779.510 593.531 746.214 565.492 717.298 515.547C768.996 455.087 811.931 383.235 841.723 301.746L782.139 287.726C759.357 349.939 727.813 406.894 688.382 456.839C665.600 399.884 647.199 328.033 636.685 245.667L891.668 245.667L891.668 191.341L791.778 191.341L820.693 165.054C797.035 144.024 749.719 115.985 711.164 100.212L672.610 130.881C705.031 146.653 744.461 170.311 769.872 191.341L630.551 191.341C627.922 162.425 627.046 132.633 626.170 101.965L563.081 101.965C563.957 132.633 565.710 162.425 568.338 191.341"/></svg>