<svg xmlns="http://www.w3.org/2000/svg" viewBox="0 0 1000 1000" fill="currentColor"><path d="M118.162 841.434L164.464 891.166C217.626 827.715 279.362 743.685 328.237 671.659L288.794 626.214C234.775 703.385 165.322 789.987 118.162 841.434M158.462 329.537C206.479 354.403 271.645 394.703 303.371 420.427L341.956 371.552C309.373 345.829 243.349 308.958 195.332 285.807M100.155 495.882C151.602 519.033 215.054 557.618 246.779 584.199L285.364 535.325C253.639 507.886 187.615 471.874 137.883 451.295M510.874 267.801C474.003 332.109 406.265 413.567 317.090 472.731C331.667 481.305 351.388 499.312 362.535 512.174C397.690 486.450 429.416 458.154 457.712 429.001C488.580 459.012 525.450 489.023 565.750 515.603C488.580 557.618 401.120 589.344 320.520 607.350C332.524 620.212 347.101 644.221 353.103 660.512L410.552 643.363L410.552 894.596L471.431 894.596L471.431 857.726L743.242 857.726L743.242 894.596L806.693 894.596L806.693 638.219L426.844 638.219C492.867 615.925 558.891 586.772 620.627 549.901C696.940 595.346 780.970 631.359 859.855 653.653C869.287 638.219 886.436 614.210 900.155 600.491C825.557 581.627 746.672 551.616 674.646 514.746C738.098 470.159 792.117 416.139 828.987 354.403L788.687 329.537L777.540 332.109L539.169 332.109C552.031 314.960 564.035 297.811 574.325 280.662M471.431 806.279L471.431 689.666L743.242 689.666L743.242 806.279M737.240 382.699C706.372 419.569 666.072 453.867 619.770 483.878C570.895 454.725 527.165 421.284 495.439 387.844L499.727 382.699M117.304 165.764L117.304 223.213L311.945 223.213L311.945 296.096L374.539 296.096L374.539 223.213L607.765 223.213L607.765 296.096L670.359 296.096L670.359 223.213L871.860 223.213L871.860 165.764L670.359 165.764L670.359 105.743L607.765 105.743L607.765 165.764L374.539 165.764L374.539 105.743L311.945 105.743L311.945 165.764"/></svg>