<svg xmlns="http://www.w3.org/2000/svg" viewBox="0 0 1000 1000" fill="currentColor"><path d="M493.250 302.807L787.608 302.807L787.608 375.305L493.250 375.305M493.250 184.890L787.608 184.890L787.608 255.640L493.250 255.640M427.741 618.128L427.741 801.555L779.747 801.555L779.747 753.515L482.769 753.515L482.769 618.128M222.477 100.164L222.477 275.730L113.294 275.730L113.294 336.872L222.477 336.872L222.477 528.161L106.306 563.100L123.775 627.736L222.477 593.671L222.477 821.645C222.477 833 218.983 836.494 208.501 836.494C198.020 837.367 167.448 837.367 131.636 836.494C139.498 853.090 147.359 881.041 149.979 896.763C202.387 897.636 234.705 895.016 254.795 884.534C275.758 874.926 283.619 856.584 283.619 821.645L283.619 572.708L382.321 538.643L372.712 479.247L283.619 508.071L283.619 336.872L375.333 336.872L375.333 275.730L283.619 275.730L283.619 100.164M432.981 134.229L432.981 425.966L475.781 425.966C454.818 485.361 413.765 555.238 350.876 609.393C363.978 618.128 382.321 639.091 390.182 651.319C427.741 619.001 457.438 581.442 481.895 543.010L829.534 543.010C821.673 748.274 811.191 823.392 796.343 841.735C790.228 851.343 783.241 853.090 771.886 852.216C760.530 852.216 733.453 852.216 704.629 849.596C712.490 862.698 718.604 885.408 718.604 898.510C750.922 900.257 782.367 901.130 800.710 898.510C821.673 896.763 837.395 891.522 850.497 874.053C872.334 845.228 881.942 764.870 893.297 518.553C893.297 509.818 893.297 490.602 893.297 490.602L511.593 490.602C520.328 472.259 528.189 453.043 535.177 434.700L481.022 425.966L849.624 425.966L849.624 134.229M639.119 557.859C619.903 624.242 574.483 675.776 514.214 708.968C524.695 718.576 541.291 736.919 547.405 745.654C584.091 723.817 616.409 694.993 640.866 659.181C678.425 686.258 719.478 717.703 741.314 739.539L771.012 703.727C747.429 681.891 702.882 647.826 663.576 622.495C673.184 604.152 681.045 584.936 687.160 563.973"/></svg>