<svg xmlns="http://www.w3.org/2000/svg" viewBox="0 0 1000 1000" fill="currentColor"><path d="M170.118 152.796C227.073 177.331 294.543 218.514 328.716 249.182L367.271 195.732C333.097 165.940 263.875 127.386 206.920 104.604M122.802 393.760C178.004 418.295 244.598 457.725 277.895 487.517L314.697 434.067C280.524 405.151 213.054 367.473 158.727 345.567M152.594 845.020L209.549 885.326C255.989 804.713 311.192 694.308 351.498 602.303L301.553 562.873C255.989 661.887 195.529 776.674 152.594 845.020M587.205 100.222C580.195 144.910 565.299 205.370 551.279 252.687L405.825 252.687L405.825 900.222L469.790 900.222L469.790 855.535L811.520 855.535L811.520 894.089L878.114 894.089L878.114 252.687L617.873 252.687C632.769 210.628 648.541 158.930 662.561 110.737M469.790 578.645L811.520 578.645L811.520 791.570L469.790 791.570M469.790 517.309L469.790 315.775L811.520 315.775L811.520 517.309"/></svg>