<svg xmlns="http://www.w3.org/2000/svg" viewBox="0 0 1000 1000" fill="currentColor"><path d="M539.074 124.619L539.074 395.643L539.074 413.943L448.442 413.943L448.442 124.619L199.205 124.619L199.205 393.900L199.205 413.943L101.601 413.943L101.601 476.688L197.462 476.688C192.233 594.336 173.061 727.669 99.858 828.758C113.802 837.473 138.203 861.002 147.789 874.946C227.963 765.142 253.235 608.279 260.207 476.688L384.826 476.688L384.826 786.928C384.826 800 380.468 803.486 368.268 804.357C356.068 805.229 315.980 805.229 271.536 803.486C280.251 820.044 290.708 847.059 293.322 862.745C354.325 862.745 392.669 861.874 416.198 851.416C439.728 840.959 448.442 822.658 448.442 787.800L448.442 476.688L537.331 476.688C532.974 592.593 515.545 725.926 451.057 827.015C464.129 834.858 490.272 859.259 499.858 871.460C573.061 762.527 595.719 606.536 600.948 476.688L742.124 476.688L742.124 789.542C742.124 802.614 737.767 806.972 723.824 807.843C712.495 808.715 669.793 808.715 624.477 807.843C634.063 824.401 642.778 852.288 646.264 868.845C709.880 868.845 749.096 867.974 773.497 857.516C797.898 847.059 806.612 827.015 806.612 790.414L806.612 476.688L899.858 476.688L899.858 413.943L806.612 413.943L806.612 124.619M261.950 186.492L384.826 186.492L384.826 413.943L261.950 413.943L261.950 393.900M602.691 413.943L602.691 395.643L602.691 186.492L742.124 186.492L742.124 413.943"/></svg>