<svg xmlns="http://www.w3.org/2000/svg" viewBox="0 0 1000 1000" fill="currentColor"><path d="M100.215 629.140L109.084 692.998L401.767 654.860L401.767 773.707C401.767 872.155 432.809 897.876 541.013 897.876C564.960 897.876 742.344 897.876 767.177 897.876C865.625 897.876 887.798 857.965 900.215 734.683C879.816 730.248 851.435 718.718 834.583 706.302C827.488 809.184 818.619 832.244 764.517 832.244C727.266 832.244 572.942 832.244 543.674 832.244C480.703 832.244 470.060 822.488 470.060 774.594L470.060 645.104L878.042 591.889L868.286 529.805L470.060 581.246L470.060 442.887L818.619 394.106L808.863 332.022L470.060 379.029L470.060 240.670C586.246 216.723 694.450 188.341 779.594 155.525L721.945 102.310C584.472 159.960 331.701 207.854 110.858 237.122C118.840 252.200 128.596 278.807 131.257 295.659C219.062 284.129 311.302 269.938 401.767 253.973L401.767 387.898L127.710 426.035L136.579 489.894L401.767 452.643L401.767 590.115"/></svg>