<svg xmlns="http://www.w3.org/2000/svg" viewBox="0 0 1000 1000" fill="currentColor"><path d="M258.610 370.260L420.515 370.260L420.515 446.450L258.610 446.450M722.680 575.455L722.680 627.403L284.584 627.403L284.584 575.455M218.784 527.835L218.784 899.264L284.584 899.264L284.584 772.857L722.680 772.857L722.680 830.866C722.680 842.987 718.351 846.450 704.498 847.316C690.645 847.316 640.429 848.182 589.346 846.450C597.139 861.169 606.662 882.814 610.126 898.398C679.390 898.398 725.277 899.264 752.117 890.606C780.688 881.948 789.346 865.498 789.346 830.866L789.346 527.835M284.584 672.424L722.680 672.424L722.680 725.238L284.584 725.238M645.623 112.251C653.416 126.104 660.342 142.554 665.537 158.139L514.022 158.139L514.022 204.892L875.061 204.892L875.061 158.139L731.338 158.139C725.277 139.091 714.887 117.446 703.632 100.996M768.567 215.281C762.506 235.195 747.788 263.766 737.398 285.411L651.684 285.411C645.623 264.632 630.905 236.061 617.052 213.550L569.433 223.939C580.688 242.121 591.944 265.498 598.870 285.411L494.108 285.411L494.108 332.165L665.537 332.165L665.537 384.978L513.156 384.978L513.156 430.866L665.537 430.866L665.537 505.325L727.009 505.325L727.009 430.866L875.926 430.866L875.926 384.978L727.009 384.978L727.009 332.165L900.169 332.165L900.169 285.411L791.078 285.411L823.113 227.403M163.372 139.091L163.372 229.134C163.372 294.069 154.714 382.381 100.169 449.913C112.290 456.840 135.667 476.753 144.325 488.874C175.494 450.779 193.675 404.026 204.931 357.273L204.931 488.874L477.658 488.874L477.658 326.970L210.991 326.970L216.186 283.680L470.732 283.680L470.732 139.091M218.784 181.515L414.455 181.515L414.455 240.390L218.784 240.390L218.784 230"/></svg>