<svg xmlns="http://www.w3.org/2000/svg" viewBox="0 0 1000 1000" fill="currentColor"><path d="M113.631 164.889L113.631 218.335L206.102 218.335C188.286 362.556 156.897 499.141 100.057 589.067C110.238 603.489 125.508 634.878 129.750 648.452C145.020 624.698 158.594 599.247 171.319 571.251L171.319 859.692L221.372 859.692L221.372 790.127L355.413 790.127L355.413 419.396L223.069 419.396C239.188 355.769 251.913 287.900 261.245 218.335L367.290 218.335L367.290 164.889M221.372 471.994L304.511 471.994L304.511 738.378L221.372 738.378M744.808 116.532C730.386 162.344 701.542 225.970 677.788 270.085L533.567 270.085L581.075 248.028C568.350 212.397 539.506 159.799 510.662 120.774L460.609 141.135C486.059 180.159 514.055 233.606 526.780 270.085L381.712 270.085L381.712 327.773L889.877 327.773L889.877 270.085L737.173 270.085C760.927 230.212 786.378 180.159 806.738 136.893M377.470 861.389C391.892 853.754 415.646 847.815 567.502 824.062C571.743 845.270 575.137 865.631 577.682 883.446L624.341 874.115C616.706 818.971 594.649 735.832 572.592 673.054L528.477 681.538C538.657 710.382 547.989 743.468 556.473 775.705L442.793 791.824C508.965 697.656 575.137 577.190 626.887 458.420L574.288 434.666C561.563 468.600 546.293 503.383 531.022 536.469L443.642 543.256C476.727 490.657 508.117 423.637 531.871 360.859L478.424 337.105C458.064 413.457 417.343 494.899 404.617 515.260C392.740 536.469 381.712 550.891 369.835 554.284C376.621 568.706 385.953 596.702 388.498 608.579C400.375 602.641 418.191 598.399 505.572 589.067C469.092 661.177 433.461 719.714 418.191 741.771C394.437 778.250 375.773 803.701 358.806 807.094C365.593 822.365 374.925 849.512 377.470 861.389M638.764 859.692C652.337 852.057 676.940 845.270 838.976 820.668C844.914 843.574 850.004 864.783 852.549 882.598L900.057 870.721C890.725 815.578 864.426 731.591 835.582 667.964L790.619 678.993C802.496 707.837 815.222 740.923 825.402 773.160L700.694 790.127C763.472 695.111 825.402 572.100 872.062 452.481L816.918 429.576C805.041 464.358 791.468 500.838 776.197 534.772L687.120 542.407C717.661 489.809 747.353 422.789 767.714 358.314L712.571 334.560C695.603 410.064 659.124 491.506 648.095 511.866C637.067 533.924 626.887 548.346 615.010 551.739C622.645 566.161 631.977 595.005 634.522 606.882C646.399 600.944 664.214 596.702 753.292 587.370C720.206 658.632 688.817 716.320 674.394 737.529C652.337 774.008 635.370 800.308 618.403 804.549C625.190 819.820 635.370 847.815 637.915 859.692L638.764 857.996"/></svg>