<svg xmlns="http://www.w3.org/2000/svg" viewBox="0 0 1000 1000" fill="currentColor"><path d="M477.511 624.149L477.511 670.957L617.936 670.957L617.936 732.234L429.851 732.234L429.851 782.447L617.936 782.447L617.936 891.383L677.511 891.383L677.511 782.447L876.660 782.447L876.660 732.234L677.511 732.234L677.511 670.957L822.191 670.957L822.191 624.149L677.511 624.149L677.511 566.277L838.362 566.277L838.362 517.766L677.511 517.766L677.511 452.234L617.936 452.234L617.936 517.766L461.340 517.766L461.340 566.277L617.936 566.277L617.936 624.149M737.936 234.362C714.957 273.511 684.319 308.404 648.574 339.043C614.532 310.957 585.596 278.617 565.170 244.574L571.979 234.362M334.532 641.170C343.043 670.957 351.553 704.149 359.213 738.191L291.128 750.106L291.128 579.894L404.319 579.894L404.319 477.766C412.830 488.830 420.489 502.447 425.596 511.809C503.894 489.681 581.340 455.638 648.574 407.979C709.851 453.085 782.191 487.128 862.191 506.702C870.702 492.234 887.723 468.404 900.489 456.489C823.894 440.319 752.404 411.383 693.681 372.234C746.447 325.426 790.702 269.255 818.787 200.319L780.489 181.596L770.277 184.149L606.021 184.149C617.085 164.574 628.149 145 636.660 124.574L580.489 109.255C543.894 194.362 479.213 269.255 404.319 318.617L404.319 268.404L291.979 268.404L291.979 120.319L237.511 120.319L237.511 268.404L130.277 268.404L130.277 619.043L178.787 619.043L178.787 579.894L237.511 579.894L237.511 759.468C185.596 768.830 138.787 776.489 100.489 781.596L113.255 841.170L370.277 791.809L380.489 852.234L430.702 838.617C423.043 781.596 402.617 695.638 382.191 628.404M605.170 372.234C544.745 413.085 474.957 443.723 404.319 462.447L404.319 320.319C418.787 328.830 441.766 346.702 451.128 356.915C478.362 336.489 504.745 312.660 529.426 285.426C550.702 316.915 576.234 345.851 605.170 372.234M178.787 322.021L241.766 322.021L241.766 525.426L178.787 525.426M286.872 322.021L356.660 322.021L356.660 525.426L286.872 525.426"/></svg>