<svg xmlns="http://www.w3.org/2000/svg" viewBox="0 0 1000 1000" fill="currentColor"><path d="M562.510 271.255C598.484 309.799 644.737 362.047 668.719 392.882L711.546 362.047C687.563 332.069 640.454 281.533 603.623 244.702M546.236 537.636C583.923 577.036 632.745 630.141 656.728 661.833L698.698 627.572C673.859 596.737 624.180 545.345 586.493 508.514M780.069 213.867L774.929 423.717L498.270 423.717L511.974 213.867M454.587 158.193C451.161 237.850 444.308 331.212 437.456 423.717L368.077 423.717L368.077 479.392L433.173 479.392C423.752 580.463 414.330 676.394 404.908 746.630L756.086 746.630C750.946 784.317 744.094 805.730 736.385 816.009C727.820 828.857 720.111 832.283 706.407 832.283C688.420 832.283 651.589 832.283 609.619 828C619.897 845.131 626.749 870.827 627.606 887.957C666.150 890.527 707.263 891.383 732.959 887.957C759.512 884.531 776.642 876.822 793.773 850.270C804.908 833.996 813.473 803.161 820.325 746.630L886.278 746.630L886.278 690.099L825.465 690.099C829.747 636.994 833.173 568.471 835.743 479.392L899.983 479.392L899.983 423.717L837.456 423.717L842.595 194.167C842.595 184.745 842.595 158.193 842.595 158.193M773.216 479.392C769.790 570.184 766.364 638.707 762.081 690.099L475.143 690.099C481.139 629.285 487.991 555.623 493.987 479.392M218.184 109.370L218.184 281.533L111.974 281.533L111.974 341.490L218.184 341.490L218.184 529.071L99.983 563.332L116.257 626.715L218.184 593.310L218.184 816.009C218.184 828 213.901 831.426 203.623 831.426C193.345 832.283 159.940 832.283 123.109 831.426C130.818 848.557 138.527 875.109 141.096 890.527C195.058 891.383 228.463 888.814 249.019 878.535C270.433 869.113 278.141 851.126 278.141 816.009L278.141 573.610L373.216 541.919L363.794 482.818L278.141 510.227L278.141 341.490L371.503 341.490L371.503 281.533L278.141 281.533L278.141 109.370"/></svg>