<svg xmlns="http://www.w3.org/2000/svg" viewBox="0 0 1000 1000" fill="currentColor"><path d="M575.537 730.437C661.127 777.598 772.917 850.961 827.066 895.502L878.594 845.721C820.952 800.306 706.541 732.183 623.572 687.642M362.437 686.769C305.668 742.664 199.118 810.786 110.908 851.834C125.755 864.934 146.716 886.769 156.323 899.869C245.406 857.074 352.830 788.079 423.572 726.070M621.825 598.559L324.009 598.559L324.009 394.192L621.825 394.192M765.057 99.869C641.039 125.197 431.432 143.537 256.760 151.397L256.760 598.559L105.668 598.559L105.668 660.568L894.314 660.568L894.314 598.559L688.201 598.559L688.201 394.192L844.533 394.192L844.533 332.183L324.009 332.183L324.009 208.166C488.201 200.306 674.227 183.712 799.991 159.258"/></svg>