<svg xmlns="http://www.w3.org/2000/svg" viewBox="0 0 1000 1000" fill="currentColor"><path d="M370.143 524.200L632.543 524.200L632.543 655.857L370.143 655.857M308.886 470.257L308.886 709.800L697.457 709.800L697.457 470.257L531.057 470.257L531.057 365.114L755.971 365.114L755.971 307.514L531.057 307.514L531.057 202.371L465.229 202.371L465.229 307.514L249.457 307.514L249.457 365.114L465.229 365.114L465.229 470.257M122.371 99.971L122.371 899.971L190.943 899.971L190.943 857L805.343 857L805.343 899.971L876.657 899.971L876.657 99.971M190.943 793L190.943 163.971L805.343 163.971L805.343 793"/></svg>