<svg xmlns="http://www.w3.org/2000/svg" viewBox="0 0 1000 1000" fill="currentColor"><path d="M338.899 116.376C287.202 247.811 198.702 373.988 99.688 451.973C117.212 462.487 147.004 486.146 160.148 499.289C257.410 412.542 350.290 279.355 408.998 135.653M637.694 109.366L573.729 135.653C640.323 267.964 752.481 415.171 844.485 499.289C857.629 481.765 882.163 456.354 899.688 443.210C808.560 370.483 696.402 230.286 637.694 109.366M196.073 839.267C229.370 827 276.687 823.495 739.337 792.827C762.996 828.752 783.149 862.926 798.045 890.965L862.886 855.916C819.074 776.179 728.823 652.630 651.714 558.873L590.378 586.912C625.427 630.724 663.105 681.545 698.154 731.491L288.078 755.149C375.701 653.506 461.572 522.071 534.299 388.884L462.448 358.216C392.349 503.670 285.449 657.011 250.400 696.441C217.979 737.624 194.321 763.911 170.663 770.045C180.301 789.322 192.568 824.371 196.073 839.267"/></svg>