<svg xmlns="http://www.w3.org/2000/svg" viewBox="0 0 1000 1000" fill="currentColor"><path d="M361.737 186.099L361.737 248.302L771.240 248.302L771.240 807.266C771.240 824.544 766.056 829.728 747.914 829.728C728.907 831.456 664.976 831.456 595.862 828.864C606.229 848.734 616.596 877.244 619.188 896.251C703.853 896.251 761.737 894.523 792.838 885.019C824.803 873.788 836.035 853.918 836.035 808.130L836.035 248.302L899.965 248.302L899.965 186.099M448.130 428L597.590 428L597.590 612.017L448.130 612.017M386.790 370.117L386.790 729.512L448.130 729.512L448.130 669.037L658.065 669.037L658.065 370.117M298.670 103.162C253.745 231.888 179.447 361.477 99.965 444.415C112.060 459.102 131.067 493.659 137.114 508.346C164.760 478.108 191.542 442.687 217.460 404.674L217.460 896.251L281.391 896.251L281.391 297.546C311.629 240.527 337.546 180.916 359.145 121.305"/></svg>