<svg xmlns="http://www.w3.org/2000/svg" viewBox="0 0 1000 1000" fill="currentColor"><path d="M324.623 613.007C308.065 653.094 274.078 709.739 249.678 744.597L293.251 769.869C318.523 735.882 349.895 684.466 374.296 640.022M395.211 638.279C425.712 676.623 458.828 728.039 473.643 762.026L519.830 732.397C505.015 701.024 470.157 650.479 439.656 613.007M661.007 104.946C661.007 172.048 661.007 237.407 659.264 299.281L561.660 299.281L561.660 360.283L657.521 360.283C650.549 554.619 625.277 717.582 535.516 825.643L535.516 782.941L222.662 782.941L222.662 599.935L579.089 599.935L579.089 544.161L497.172 544.161L497.172 244.379L569.503 244.379L569.503 191.220L497.172 191.220L497.172 99.717L437.913 99.717L437.913 191.220L267.978 191.220L267.978 99.717L209.590 99.717L209.590 191.220L126.802 191.220L126.802 244.379L209.590 244.379L209.590 544.161L112.858 544.161L112.858 599.935L167.760 599.935L167.760 840.458L522.444 840.458L508.501 854.401C524.187 864.858 546.845 884.902 556.431 899.717C676.693 780.327 708.065 589.477 717.651 360.283L826.584 360.283C817.869 679.237 808.283 794.270 788.240 819.542C780.397 830.871 771.682 833.486 758.610 832.614C742.052 832.614 704.580 832.614 663.621 829.129C674.950 845.686 681.050 871.830 681.922 890.131C721.137 892.745 760.353 892.745 784.754 890.131C809.155 887.516 826.584 879.673 842.270 857.887C869.285 821.285 878 700.153 886.715 330.654C887.586 322.810 887.586 299.281 887.586 299.281L719.394 299.281L721.137 104.946M267.978 244.379L437.913 244.379L437.913 307.124L267.978 307.124M267.978 355.054L437.913 355.054L437.913 421.285L267.978 421.285M267.978 469.216L437.913 469.216L437.913 544.161L267.978 544.161"/></svg>