<svg xmlns="http://www.w3.org/2000/svg" viewBox="0 0 1000 1000" fill="currentColor"><path d="M200.332 194.347L341.811 194.347L341.811 345.258L200.332 345.258M100.011 785.987L115.445 846.866C199.475 823.715 310.943 791.989 418.124 761.121L409.550 705.387L316.088 730.253L316.088 577.627L406.120 577.627L406.120 521.035L316.088 521.035L316.088 400.992L401.833 400.992L401.833 138.613L143.741 138.613L143.741 400.992L257.781 400.992L257.781 745.687L197.760 761.979L197.760 482.450L144.598 482.450L144.598 774.840M623.912 106.030L623.912 256.084L536.452 256.084C544.169 220.928 551.029 184.058 556.174 146.330L496.152 136.898C482.433 238.077 458.424 339.256 417.267 405.280C432.701 412.997 458.424 428.431 470.429 437.863C490.150 403.565 506.442 361.550 520.161 315.248L623.912 315.248L623.912 380.414C623.912 413.854 623.055 450.725 619.625 487.595L424.984 487.595L424.984 548.474L611.908 548.474C590.472 656.512 535.595 765.408 390.686 845.151C406.120 857.155 426.699 879.449 435.273 893.168C561.318 819.428 623.912 723.393 655.638 624.787C696.795 743.115 760.247 835.719 855.423 887.166C864.855 870.017 884.577 846.866 900.011 834.004C794.544 785.130 725.949 677.949 689.936 548.474L882.004 548.474L882.004 487.595L682.219 487.595C685.648 450.725 686.506 415.569 686.506 381.271L686.506 315.248L865.713 315.248L865.713 256.084L686.506 256.084L686.506 106.030"/></svg>