<svg xmlns="http://www.w3.org/2000/svg" viewBox="0 0 1000 1000" fill="currentColor"><path d="M348.086 561.615L348.086 614.663L898.246 614.663L898.246 561.615M562.845 637.765C585.091 671.989 611.615 719.048 624.449 747.283L674.930 725.893C661.241 699.369 633.005 654.021 610.759 620.652M474.717 680.545L474.717 810.599C474.717 867.925 492.684 883.326 564.556 883.326C580.813 883.326 675.786 883.326 691.187 883.326C749.369 883.326 765.626 861.080 772.471 771.241C756.214 767.818 733.112 759.262 721.134 750.706C717.711 822.578 713.433 831.989 685.198 831.989C664.663 831.989 585.091 831.989 570.545 831.989C537.176 831.989 532.043 828.567 532.043 809.743L532.043 680.545M390.011 675.412C375.465 727.604 347.230 794.342 313.861 835.412L364.342 863.647C398.567 818.299 422.524 748.995 440.492 695.091M763.059 686.535C797.283 738.727 833.219 809.743 847.765 854.235L899.957 831.134C883.701 787.497 846.053 718.193 811.829 666.856M716 340.866L807.551 340.866L807.551 457.230L716 457.230M579.102 340.866L668.941 340.866L668.941 457.230L579.102 457.230M445.626 340.866L532.043 340.866L532.043 457.230L445.626 457.230M283.914 107.283C243.701 168.032 167.551 246.749 105.091 295.519C115.358 308.353 131.615 333.166 138.460 346.856C206.909 290.385 288.193 204.824 342.096 132.096M593.647 104.717L586.802 177.444L355.786 177.444L355.786 230.492L579.957 230.492L569.690 292.096L393.433 292.096L393.433 506L862.310 506L862.310 292.096L630.439 292.096L641.561 230.492L893.968 230.492L893.968 177.444L650.973 177.444L661.241 108.139M299.316 292.952C250.545 390.492 173.540 491.455 99.957 557.337C111.936 571.882 131.615 601.829 139.316 615.519C167.551 587.283 197.497 553.914 225.733 517.123L225.733 894.449L286.481 894.449L286.481 433.273C313.005 393.914 336.963 353.701 357.497 313.487"/></svg>