<svg xmlns="http://www.w3.org/2000/svg" viewBox="0 0 1000 1000" fill="currentColor"><path d="M443.421 157.351L443.421 220.509L584.649 220.509C580.263 474.018 565.351 714.368 347.807 834.544C364.474 845.947 385.526 869.632 396.053 886.298C625 752.088 645.175 494.193 650.439 220.509L832.018 220.509C820.614 617 808.333 764.368 779.386 796.825C769.737 809.982 760.965 812.614 745.175 812.614C725.877 812.614 679.386 811.737 627.632 807.351C639.035 826.649 646.930 855.596 647.807 874.895C695.175 877.526 743.421 878.404 772.368 875.772C802.193 872.263 821.491 863.491 840.789 836.298C875.877 791.561 886.404 642.439 898.684 194.193C898.684 184.544 899.561 157.351 899.561 157.351M206.579 758.228C225 741.561 253.070 725.772 461.842 631.912C457.456 618.754 452.193 592.439 449.561 574.018L277.632 646.825L277.632 381.035L454.825 342.439L444.298 283.667L277.632 318.754L277.632 114.368L214.474 114.368L214.474 331.912L99.561 356.474L110.088 417L214.474 394.193L214.474 635.421C214.474 670.509 191.667 689.807 175.877 698.579C186.404 712.614 202.193 741.561 206.579 758.228"/></svg>