<svg xmlns="http://www.w3.org/2000/svg" viewBox="0 0 1000 1000" fill="currentColor"><path d="M255.226 105.280C221.677 232.591 166.624 357.323 100.387 440.763C111.570 456.247 127.914 491.516 133.075 507C155.441 478.613 176.946 445.065 196.731 409.796L196.731 894.097L254.366 894.097L254.366 291.086C277.591 236.032 297.376 178.398 313.720 121.624M532.215 175.817L532.215 223.989L640.602 223.989L640.602 291.086L493.505 291.086L493.505 340.978L640.602 340.978L640.602 411.516L532.215 411.516L532.215 459.688L640.602 459.688L640.602 525.065L518.452 525.065L518.452 576.677L640.602 576.677L640.602 643.774L496.086 643.774L496.086 696.247L640.602 696.247L640.602 800.333L695.656 800.333L695.656 696.247L879.742 696.247L879.742 643.774L695.656 643.774L695.656 576.677L851.355 576.677L851.355 525.065L695.656 525.065L695.656 459.688L837.591 459.688L837.591 340.978L899.527 340.978L899.527 291.086L837.591 291.086L837.591 175.817L695.656 175.817L695.656 107.860L640.602 107.860L640.602 175.817M695.656 340.978L785.978 340.978L785.978 411.516L695.656 411.516M695.656 291.086L695.656 223.989L785.978 223.989L785.978 291.086M319.742 492.376C319.742 485.495 330.925 477.753 342.108 471.731L438.452 471.731C429.849 550.871 415.226 617.108 394.581 673.882C373.935 639.473 355.871 598.183 342.108 548.290L295.656 565.495C315.441 633.452 340.387 687.645 369.634 730.656C342.108 783.989 306.839 825.280 264.688 854.527C276.731 862.269 298.237 882.914 307.699 894.957C346.409 866.570 380.817 827.860 408.344 777.108C494.366 864.849 608.774 884.634 738.667 884.634L878.882 884.634C881.462 868.290 890.925 841.624 900.387 827C865.978 827.860 767.914 827.860 741.247 827.860C623.398 827.860 513.290 810.656 433.290 725.495C465.978 648.075 488.344 549.151 499.527 426.140L464.258 417.538L453.935 419.258L390.280 419.258C430.710 353.022 472 268.720 507.269 183.559L468.559 157.753L449.634 166.355L315.441 166.355L315.441 223.129L427.269 223.129C397.161 299.688 358.452 369.366 344.688 390.871C328.344 417.538 307.699 440.763 293.075 444.204C301.677 456.247 314.581 480.333 319.742 492.376"/></svg>