<svg xmlns="http://www.w3.org/2000/svg" viewBox="0 0 1000 1000" fill="currentColor"><path d="M100.438 768.551L113.300 830.287C207.620 801.991 337.094 762.549 459.710 724.821L451.135 669.087L345.669 699.955L345.669 426.429L445.990 426.429L445.990 368.122L345.669 368.122L345.669 114.317L287.362 114.317L287.362 717.104L212.764 737.683L212.764 278.090L156.173 278.090L156.173 753.974M630.342 105.743L630.342 236.932L432.271 236.932L432.271 295.239L630.342 295.239L630.342 428.144L451.135 428.144L451.135 485.593L496.580 485.593L484.576 489.023C515.444 581.627 560.031 662.227 617.480 728.251C552.314 780.555 475.144 816.568 393.686 838.862C405.690 851.723 421.124 878.304 427.126 893.738C512.871 868.015 592.614 828.572 661.210 771.981C716.087 823.428 782.110 863.728 857.566 891.166C866.998 874.875 885.004 850.009 900.438 837.147C826.698 813.996 761.532 777.125 706.655 729.966C778.681 657.083 833.557 561.906 863.568 440.148L824.125 425.571L812.979 428.144L691.221 428.144L691.221 295.239L887.577 295.239L887.577 236.932L691.221 236.932L691.221 105.743M544.597 485.593L787.255 485.593C759.817 566.193 716.944 633.074 662.925 687.093C611.478 630.502 571.178 561.906 544.597 485.593"/></svg>