<svg xmlns="http://www.w3.org/2000/svg" viewBox="0 0 1000 1000" fill="currentColor"><path d="M425.591 128.834C443.636 169.220 465.977 224.215 475.430 256.868L535.580 235.386C526.128 202.733 502.927 150.316 483.163 110.788M99.919 744.086L113.668 805.955C185.849 785.332 278.652 759.553 368.018 733.774L359.425 675.343L264.903 701.121L264.903 489.736L342.240 489.736L342.240 431.304L264.903 431.304L264.903 226.793L357.707 226.793L357.707 167.502L111.090 167.502L111.090 226.793L207.331 226.793L207.331 431.304L120.542 431.304L120.542 489.736L207.331 489.736L207.331 716.589M618.931 463.957L618.931 522.389L717.750 522.389L717.750 801.658L575.967 801.658L575.967 861.809L899.919 861.809L899.919 801.658L777.900 801.658L777.900 522.389L870.704 522.389L870.704 463.957L777.900 463.957L777.900 220.778L891.327 220.778L891.327 161.487L607.760 161.487L607.760 220.778L717.750 220.778L717.750 463.957M357.707 388.339C392.938 452.786 430.747 528.404 464.259 599.725C428.169 699.403 377.470 782.754 307.868 844.623C319.898 854.934 342.240 877.276 349.973 889.306C411.842 830.015 459.962 756.975 496.912 671.046C514.957 712.292 530.424 750.960 541.595 781.895L595.730 749.242C580.263 707.136 555.344 652.142 526.128 592.851C553.625 512.937 573.389 422.711 588.856 324.752L630.102 324.752L630.102 267.179L341.380 267.179L341.380 324.752L530.424 324.752C520.113 394.354 507.223 459.661 490.038 519.811C462.540 465.676 434.184 410.681 407.546 362.561"/></svg>