<svg xmlns="http://www.w3.org/2000/svg" viewBox="0 0 1000 1000" fill="currentColor"><path d="M143.395 160.339C194.039 186.948 259.275 228.150 291.893 257.335L327.086 204.974C293.609 176.648 227.515 138.021 176.871 113.129M99.618 393.815C149.403 416.991 213.781 454.760 245.541 482.227L279.017 429.009C246.399 402.399 181.163 366.348 132.236 345.747M120.219 831.584L170.004 875.361C213.781 796.391 264.425 690.811 303.052 600.682L259.275 557.764C217.215 654.760 159.704 766.348 120.219 831.584M519.361 883.086C533.953 869.352 557.987 857.335 723.652 785.232C719.361 773.215 713.352 749.180 711.635 732.871L582.021 785.232L582.021 375.790L643.824 364.631C673.867 590.382 730.519 782.657 853.266 878.794C863.567 861.627 884.167 836.734 899.618 823.858C832.665 777.506 785.455 696.820 751.120 598.107C794.039 568.064 844.682 526.863 889.318 489.094L843.824 443.601C816.356 474.502 773.438 513.987 735.670 545.747C718.502 485.661 706.485 421.283 697.043 353.472C745.970 342.313 792.322 329.438 830.090 313.987L778.588 264.202C720.219 290.811 614.639 314.845 524.511 330.296L524.511 774.073C524.511 807.549 506.485 821.283 493.609 828.150C503.052 841.884 515.069 868.494 519.361 883.086M382.021 190.382L382.021 405.833C382.021 540.597 373.438 729.438 281.592 864.202C296.185 870.210 322.794 885.661 333.094 895.961C427.515 756.047 441.249 548.322 441.249 405.833L441.249 238.451C582.021 220.425 738.245 192.099 845.541 156.047L793.180 103.687C697.901 138.880 527.086 170.639 382.021 190.382"/></svg>