<svg xmlns="http://www.w3.org/2000/svg" viewBox="0 0 1000 1000" fill="currentColor"><path d="M500.378 250.541C487.405 344.811 464.919 445.135 433.784 511.730C448.486 516.919 476.162 529.892 488.270 538.541C519.405 468.486 545.351 362.973 560.919 261.784M744.270 257.459C784.919 331.838 825.568 430.432 841.135 495.297L899.946 473.676C883.514 408.811 842.865 312.811 799.622 238.432M799.622 526.432C736.486 696.811 600.703 794.541 385.351 839.514C399.189 854.216 413.892 879.297 420.811 896.595C648.270 842.108 791.838 733.135 860.162 545.459M621.459 103.514L621.459 638.865L683.730 638.865L683.730 103.514M395.730 115.622C330.865 144.162 216.703 170.108 119.838 185.676C126.757 199.514 135.405 221.135 138 235.838C175.189 230.649 215.838 224.595 255.622 216.811L255.622 347.405L111.189 347.405L111.189 407.946L247.838 407.946C213.243 507.405 154.432 619.838 99.946 681.243C110.324 696.811 125.892 722.757 132.811 740.919C176.054 688.162 221.027 602.541 255.622 516.054L255.622 897.459L319.622 897.459L319.622 497.027C348.162 539.405 381.027 593.027 394.865 620.703L433.784 569.676C417.351 546.324 342.973 450.324 319.622 425.243L319.622 407.946L441.568 407.946L441.568 347.405L319.622 347.405L319.622 202.973C362 192.595 402.649 180.486 435.514 167.514"/></svg>