<svg xmlns="http://www.w3.org/2000/svg" viewBox="0 0 1000 1000" fill="currentColor"><path d="M249.015 748.260C320.088 762.995 390.294 778.596 456.166 795.064C367.758 822.800 254.216 835.801 112.070 841.868C120.738 856.602 130.272 878.271 134.606 897.339C312.287 886.938 449.232 865.270 550.640 818.466C653.782 846.202 743.056 873.937 809.795 899.939L860.066 854.869C795.061 831.467 710.120 806.332 616.512 781.196C664.183 749.127 699.719 707.523 726.588 656.386L885.202 656.386L885.202 602.648L450.965 602.648C465.700 582.713 480.434 561.911 492.569 541.976L791.594 541.976L791.594 434.501L890.402 434.501L890.402 382.496L791.594 382.496L791.594 275.887L527.238 275.887L527.238 216.949L865.267 216.949L865.267 164.945L527.238 164.945L527.238 99.939L463.100 99.939L463.100 164.945L131.139 164.945L131.139 216.949L463.100 216.949L463.100 275.887L202.211 275.887L202.211 324.425L463.100 324.425L463.100 382.496L110.337 382.496L110.337 434.501L463.100 434.501L463.100 493.439L197.011 493.439L197.011 541.976L417.163 541.976C404.161 561.911 390.294 582.713 374.692 602.648L115.537 602.648L115.537 656.386L333.089 656.386C304.486 690.189 275.884 722.258 249.015 748.260M527.238 434.501L727.455 434.501L727.455 493.439L527.238 493.439M527.238 382.496L527.238 324.425L727.455 324.425L727.455 382.496M653.782 656.386C626.047 700.589 587.910 735.259 537.639 761.261C477.834 746.527 416.296 732.659 353.891 719.658C372.092 700.589 390.294 678.921 409.362 656.386"/></svg>