<svg xmlns="http://www.w3.org/2000/svg" viewBox="0 0 1000 1000" fill="currentColor"><path d="M306.419 99.677C269.430 244.194 204.054 380.968 119.753 466.989C136.097 476.452 167.065 497.097 180.828 508.280C226.419 456.667 267.710 388.710 302.978 312.151L777.817 312.151C754.591 377.527 722.763 448.065 692.656 494.516L749.430 519.462C793.301 454.946 837.172 354.301 869 263.118L818.247 245.054L806.204 248.495L330.505 248.495C347.710 205.484 362.333 159.892 375.237 113.441M462.118 357.742L462.118 409.355C462.118 534.086 438.032 724.194 106.849 848.065C120.613 860.968 141.258 884.194 149 899.677C372.656 814.516 466.419 696.667 504.269 585.699C569.645 744.839 677.172 852.366 850.935 899.677C860.398 881.613 878.462 854.946 893.946 841.183C693.516 793.871 579.108 663.118 526.634 475.591C528.355 452.366 529.215 430.860 529.215 411.075L529.215 357.742"/></svg>