<svg xmlns="http://www.w3.org/2000/svg" viewBox="0 0 1000 1000" fill="currentColor"><path d="M454.117 146.328L454.117 206.197L891.427 206.197L891.427 146.328M506.178 623.551C531.341 679.950 556.503 755.438 565.180 804.028L623.315 788.410C614.638 739.820 587.740 665.200 559.974 608.800M542.620 358.041L794.247 358.041L794.247 515.091L542.620 515.091M481.883 299.039L481.883 574.093L857.588 574.093L857.588 299.039M768.217 602.727C750.863 668.670 717.892 758.041 689.258 818.779L417.675 818.779L417.675 879.516L900.104 879.516L900.104 818.779L751.731 818.779C779.497 761.512 808.998 683.421 834.161 617.477M182.534 109.017C168.651 213.139 143.488 317.260 101.839 384.939C116.590 392.748 142.620 410.102 153.033 419.646C174.725 382.336 192.946 335.482 207.696 284.289L255.419 284.289L255.419 418.779L254.551 453.486L105.310 453.486L105.310 512.488L251.948 512.488C241.536 625.286 207.696 751.967 100.104 847.412C112.252 856.089 136.547 878.649 145.223 891.664C220.711 823.985 264.095 737.217 288.390 650.449C322.230 699.039 367.349 766.718 387.306 802.293L430.690 748.497C412.469 722.466 335.245 617.477 304.009 579.299C307.479 556.740 310.082 534.180 311.818 512.488L435.028 512.488L435.028 453.486L315.289 453.486L316.156 419.646L316.156 284.289L423.748 284.289L423.748 225.286L223.315 225.286C231.124 190.579 237.197 155.004 242.403 119.430"/></svg>