<svg xmlns="http://www.w3.org/2000/svg" viewBox="0 0 1000 1000" fill="currentColor"><path d="M511.210 103.058C423.374 236.535 264.062 351.928 100.446 416.513C118.530 431.153 136.614 456.126 146.947 473.349C191.727 453.543 236.506 430.292 279.563 403.596L279.563 446.653L714.439 446.653L714.439 388.957C759.219 417.375 805.720 442.348 854.805 465.598C864.278 444.931 884.084 421.680 900.446 407.041C763.524 349.344 641.242 277.870 540.489 171.088L568.045 132.337M304.536 387.235C377.733 339.011 445.763 281.314 501.737 217.590C567.184 286.481 636.075 340.733 710.995 387.235M234.784 549.990L234.784 896.169L300.230 896.169L300.230 847.945L701.522 847.945L701.522 892.724L769.552 892.724L769.552 549.990M300.230 787.665L300.230 608.548L701.522 608.548L701.522 787.665"/></svg>