<svg xmlns="http://www.w3.org/2000/svg" viewBox="0 0 1000 1000" fill="currentColor"><path d="M218.081 582.904L218.081 899.770L282.498 899.770L282.498 858.856L724.718 858.856L724.718 898.029L791.748 898.029L791.748 582.904L530.594 582.904L530.594 464.515L880.540 464.515L880.540 403.579L530.594 403.579L530.594 308.693L463.565 308.693L463.565 403.579L118.842 403.579L118.842 464.515L463.565 464.515L463.565 582.904M282.498 797.921L282.498 642.970L724.718 642.970L724.718 797.921M619.386 99.770L619.386 179.857L375.643 179.857L375.643 99.770L311.225 99.770L311.225 179.857L120.583 179.857L120.583 240.793L311.225 240.793L311.225 336.550L375.643 336.550L375.643 240.793L619.386 240.793L619.386 336.550L683.804 336.550L683.804 240.793L877.928 240.793L877.928 179.857L683.804 179.857L683.804 99.770"/></svg>