<svg xmlns="http://www.w3.org/2000/svg" viewBox="0 0 1000 1000" fill="currentColor"><path d="M469.419 522.484C465.978 553.452 461.677 581.839 454.796 608.505L130.495 608.505L130.495 666.140L435.871 666.140C395.441 754.742 309.419 810.656 108.129 839.903C119.312 852.806 133.935 879.473 139.097 895.817C361.032 860.548 455.656 790.011 500.387 679.903C566.624 804.634 681.892 870.011 862.538 895.817C870.280 877.753 886.624 851.946 900.387 838.183C732.645 820.118 619.097 767.645 559.742 666.140L874.581 666.140L874.581 608.505L521.892 608.505C527.914 581.839 532.215 553.452 535.656 522.484M236.301 104.419L236.301 213.667L123.613 213.667L123.613 269.581L224.258 269.581C194.151 339.258 145.978 411.516 100.387 451.946C109.849 465.710 123.613 488.075 128.774 504.419C168.344 469.151 206.194 411.516 236.301 350.441L236.301 551.731L293.075 551.731L293.075 351.301C317.161 381.409 342.968 415.817 355.011 433.022L391.140 390.871C375.656 374.527 320.602 316.892 293.075 291.946L293.075 269.581L386.839 269.581L386.839 213.667L293.075 213.667L293.075 104.419M386.839 371.086C410.065 384.849 435.011 401.194 459.097 418.398C428.989 449.366 395.441 476.032 360.172 496.677C373.935 504.419 395.441 524.204 404.903 533.667C437.591 511.301 471.140 482.914 501.247 451.086C523.613 468.290 542.538 486.355 556.301 500.978L585.548 470.871C596.731 481.194 610.495 496.677 617.376 507.860C651.785 473.452 682.753 419.258 707.699 359.043L707.699 551.731L764.473 551.731L764.473 355.602C797.161 400.333 837.591 458.828 854.796 488.075L892.645 444.204C873.720 418.398 796.301 325.495 764.473 291.946L764.473 269.581L882.323 269.581L882.323 213.667L764.473 213.667L764.473 104.419L707.699 104.419L707.699 213.667L605.333 213.667L605.333 269.581L693.935 269.581C670.710 341.839 632 413.237 588.989 455.387C575.226 440.763 557.161 426.140 536.516 410.656C558.022 383.129 576.946 353.882 592.430 323.774L539.097 309.151C527.054 333.237 511.570 357.323 493.505 379.688C470.280 363.344 446.194 348.720 423.828 335.817M393.720 170.656C416.086 183.559 440.172 198.183 463.398 214.527C436.731 239.473 407.484 261.839 377.376 280.763C390.280 288.505 410.925 308.290 419.527 318.613C448.774 298.828 478.882 273.882 506.409 245.495C528.774 262.699 548.559 279.903 562.323 294.527L601.032 254.957C587.269 240.333 566.624 223.129 543.398 205.925C562.323 182.699 580.387 158.613 595.011 133.667L543.398 118.183C531.355 137.968 516.731 157.753 500.387 176.677C477.161 162.054 453.935 147.430 431.570 136.247"/></svg>