<svg xmlns="http://www.w3.org/2000/svg" viewBox="0 0 1000 1000" fill="currentColor"><path d="M104.246 266.051C156.889 282.448 221.614 311.790 254.408 335.091L286.339 287.626C252.682 264.325 186.231 237.572 135.314 222.901M168.108 143.505C219.025 161.628 282.024 190.970 313.955 214.271L344.160 168.532C312.229 145.231 247.504 117.615 197.450 102.944M127.547 524.087L173.286 569.826C229.381 512.005 294.106 440.376 347.612 375.652L309.640 331.639C250.093 401.542 176.738 478.348 127.547 524.087M861.096 131.423L389.899 131.423L389.899 530.128L464.980 530.128L464.980 600.031L117.191 600.031L117.191 656.989L402.844 656.989C327.763 731.207 208.669 796.795 99.931 830.452C113.739 843.397 133.588 867.561 143.081 883.958C257.860 843.397 384.721 764.864 464.980 674.249L464.980 896.903L530.567 896.903L530.567 678.564C611.689 765.727 737.687 840.808 855.918 877.917C865.411 861.520 885.260 836.493 899.931 822.685C786.015 792.480 665.195 731.207 589.251 656.989L883.534 656.989L883.534 600.031L530.567 600.031L530.567 530.128L878.356 530.128L878.356 477.485L452.898 477.485L452.898 412.761L823.124 412.761L823.124 243.613L452.898 243.613L452.898 183.203L861.096 183.203M452.898 290.215L759.262 290.215L759.262 365.296L452.898 365.296"/></svg>