<svg xmlns="http://www.w3.org/2000/svg" viewBox="0 0 1000 1000" fill="currentColor"><path d="M117.018 162.794C159.906 207.433 217.674 268.702 246.558 304.589L299.074 265.201C269.315 230.190 209.796 171.547 166.908 129.534M462.751 273.079L743.713 273.079L743.713 353.604L462.751 353.604M402.357 227.565L402.357 399.993L806.733 399.993L806.733 227.565M331.460 120.781L331.460 174.173L876.755 174.173L876.755 120.781M362.094 453.385L362.094 744.851L846.996 744.851L846.996 453.385M285.945 411.372L104.764 411.372L104.764 472.641L223.801 472.641L223.801 725.595C187.039 737.849 144.151 771.985 99.512 819.249L142.400 878.768C182.663 826.252 222.926 777.236 252.685 777.236C271.941 777.236 299.950 804.370 338.462 825.376C399.731 860.387 475.004 869.140 580.037 869.140C664.939 869.140 817.236 863.888 880.256 860.387C882.007 841.131 891.635 810.497 899.512 792.991C813.735 802.619 683.319 808.746 581.788 808.746C486.383 808.746 410.234 802.619 353.341 770.234C322.707 754.479 303.451 738.724 285.945 729.096M423.363 621.438L570.409 621.438L570.409 699.337L423.363 699.337M630.803 621.438L783.976 621.438L783.976 699.337L630.803 699.337M423.363 498.899L570.409 498.899L570.409 575.923L423.363 575.923M630.803 498.899L783.976 498.899L783.976 575.923L630.803 575.923"/></svg>