<svg xmlns="http://www.w3.org/2000/svg" viewBox="0 0 1000 1000" fill="currentColor"><path d="M466.160 280.684C490.973 314.909 516.642 362.824 527.765 392.770L579.102 368.813C567.979 339.722 540.599 294.374 514.930 260.150M212.898 106.139L212.898 278.118L111.080 278.118L111.080 338.011L212.898 338.011L212.898 527.102C170.118 539.936 130.759 551.914 99.957 559.615L116.214 622.930L212.898 591.273L212.898 816.299C212.898 827.422 208.620 830.845 198.353 830.845C188.941 830.845 158.139 830.845 124.770 829.989C132.471 847.102 141.027 874.481 142.738 889.882C192.364 890.738 224.021 888.171 243.701 877.904C264.235 867.636 272.791 850.524 272.791 815.444L272.791 571.594L357.497 544.214L348.941 484.321L272.791 508.278L272.791 338.011L358.353 338.011L358.353 278.118L272.791 278.118L272.791 106.139M561.989 121.540C575.679 143.786 590.225 170.310 601.348 195.123L403.701 195.123L403.701 251.594L868.299 251.594L868.299 195.123L668.941 195.123C656.107 168.599 638.139 136.941 621.027 112.128M733.968 261.005C718.567 301.219 686.909 357.690 661.241 395.337L373.754 395.337L373.754 450.952L890.545 450.952L890.545 395.337L724.556 395.337C747.658 361.968 772.471 318.332 794.717 278.973M730.545 600.684C713.433 654.588 687.765 697.369 650.118 731.594C602.203 711.914 553.433 694.802 507.230 680.257C523.487 656.299 541.455 628.920 558.567 600.684M418.246 707.636C473.861 724.749 535.465 746.139 594.503 770.952C534.610 804.321 454.182 824.856 349.797 835.979C360.920 848.813 371.187 872.770 377.176 890.738C500.385 872.770 592.791 844.535 659.529 799.187C729.690 830.845 792.150 864.214 834.075 894.160L876 845.390C834.075 816.299 775.037 786.353 710.011 757.262C750.225 716.193 777.604 664.856 794.717 600.684L899.957 600.684L899.957 545.070L590.225 545.070C604.770 518.545 617.604 492.021 628.727 466.353L568.834 455.230C556.856 483.465 541.455 514.267 524.342 545.070L362.631 545.070L362.631 600.684L491.829 600.684C467.016 640.043 441.348 677.690 418.246 707.636"/></svg>