<svg xmlns="http://www.w3.org/2000/svg" viewBox="0 0 1000 1000" fill="currentColor"><path d="M219.868 186.209L219.868 376.978C219.868 515 209.319 710.165 114.374 849.945C127.560 857.857 155.692 885.110 165.363 899.176C262.945 757.637 283.165 545.769 284.923 398.956L864.264 398.956L864.264 186.209L591.736 186.209C582.066 159.835 567.121 126.429 553.934 100.055L486.242 114.121C495.912 136.099 505.582 162.473 513.495 186.209M822.945 530.824L822.945 651.264L704.264 651.264L704.264 530.824M300.747 475.440L300.747 900.055L362.286 900.055L362.286 709.286L474.813 709.286L474.813 878.956L532.835 878.956L532.835 709.286L647.121 709.286L647.121 878.077L704.264 878.077L704.264 709.286L822.945 709.286L822.945 831.484C822.945 841.154 820.308 843.791 810.637 843.791C801.846 843.791 771.956 843.791 739.429 842.912C748.220 859.615 757.011 884.231 759.648 900.055C807.121 900.055 838.769 899.176 859.868 889.505C880.088 879.835 886.242 863.132 886.242 832.363L886.242 475.440M362.286 651.264L362.286 530.824L474.813 530.824L474.813 651.264M532.835 530.824L647.121 530.824L647.121 651.264L532.835 651.264M284.923 243.352L797.451 243.352L797.451 341.813L284.923 341.813"/></svg>