<svg xmlns="http://www.w3.org/2000/svg" viewBox="0 0 1000 1000" fill="currentColor"><path d="M668.692 99.884C651.319 137.235 619.180 189.352 593.122 224.965L362.937 224.965L395.076 210.199C381.178 178.928 349.908 133.760 318.637 99.884L261.308 124.205C288.236 153.738 314.294 193.695 329.061 224.965L150.125 224.965L150.125 283.163L464.566 283.163L464.566 354.390L192.687 354.390L192.687 410.850L464.566 410.850L464.566 484.683L113.643 484.683L113.643 542.881L457.617 542.881C454.142 566.333 450.668 588.917 445.456 609.764L136.227 609.764L136.227 668.831L426.346 668.831C386.390 757.430 300.396 813.022 100.613 841.686C112.774 856.453 128.409 883.380 133.621 899.884C358.594 862.533 452.405 790.438 495.836 674.911C564.457 800.861 682.590 872.088 858.051 899.884C866.737 881.643 884.110 853.847 898.876 839.949C738.181 820.839 623.523 765.248 561.851 668.831L878.898 668.831L878.898 609.764L514.946 609.764C519.289 588.917 522.763 566.333 525.369 542.881L890.190 542.881L890.190 484.683L530.581 484.683L530.581 410.850L810.277 410.850L810.277 354.390L530.581 354.390L530.581 283.163L849.365 283.163L849.365 224.965L665.217 224.965C688.670 193.695 714.729 156.344 736.444 120.731"/></svg>