<svg xmlns="http://www.w3.org/2000/svg" viewBox="0 0 1000 1000" fill="currentColor"><path d="M423.639 315.412C441.665 354.897 462.266 408.116 471.708 439.876L508.618 418.416C499.176 389.232 478.575 338.588 459.691 299.103M426.215 584.082C444.240 624.425 464.841 678.502 473.425 711.979L511.193 690.519C502.609 660.476 481.150 608.116 462.266 567.773M312.910 473.352L312.910 519.704L312.052 515.412L251.966 538.588L251.966 341.163L322.352 341.163L322.352 280.219L251.966 280.219L251.966 106.828L197.030 106.828L197.030 280.219L112.910 280.219L112.910 341.163L197.030 341.163L197.030 560.047L100.034 595.240L117.202 654.468L197.030 622.708L197.030 822.708C197.030 833.009 193.597 836.442 183.296 836.442C174.712 837.300 148.103 837.300 116.343 835.584C124.069 851.893 130.936 876.785 133.511 890.519C179.863 891.378 208.189 888.803 227.073 879.361C245.099 869.918 251.966 854.468 251.966 822.708L251.966 599.532L323.210 570.348L314.627 528.288L353.253 528.288C352.395 636.442 342.953 768.631 289.734 864.768C303.468 870.777 327.502 887.944 336.086 898.245C394.455 796.099 408.189 645.884 409.906 528.288L524.927 528.288L524.927 817.558C524.927 827 521.494 829.575 512.052 830.433C502.609 830.433 470.850 831.292 437.373 830.433C445.099 845.026 451.966 870.777 453.682 886.227C503.468 886.227 535.227 885.369 554.970 875.069C566.129 869.918 573.854 862.193 578.146 851.034C580.721 842.451 582.438 831.292 582.438 817.558L582.438 210.691L477.717 210.691L509.476 115.412L448.532 101.678C444.240 132.579 434.798 175.498 425.356 210.691L353.253 210.691L353.253 473.352M409.906 263.052L524.927 263.052L524.927 473.352L409.906 473.352M614.197 469.918L614.197 524.854L657.116 524.854L621.923 533.438C640.807 609.833 668.275 679.361 704.326 738.588C667.416 787.515 623.639 826.142 578.146 851.034C590.163 862.193 605.614 881.936 613.339 896.528C658.833 869.918 700.893 833.009 736.944 786.657C771.279 832.150 812.481 868.202 859.691 894.811C868.275 878.502 887.159 857.043 900.034 845.884C850.249 821.850 807.330 784.082 771.279 737.730C815.056 669.060 847.674 583.223 865.700 480.219L831.365 468.202L821.064 469.918M646.815 147.172L646.815 266.485C646.815 315.412 639.948 368.631 585.013 409.833C595.313 417.558 616.773 438.159 623.639 449.318C688.017 401.249 700.034 328.288 700.034 267.343L700.034 198.674L773.854 198.674L773.854 351.464C773.854 407.258 782.438 426.142 833.082 426.142C840.807 426.142 857.974 426.142 865.700 426.142C877.717 426.142 889.734 425.283 898.318 422.708C896.601 409.833 894.884 388.373 894.026 375.498C885.442 377.215 872.567 378.931 865.700 378.931C857.974 378.931 841.665 378.931 835.657 378.931C827.073 378.931 826.215 373.781 826.215 352.322L826.215 147.172M802.180 524.854C787.588 585.798 765.270 640.734 737.803 687.944C709.476 639.876 687.159 584.082 671.708 524.854"/></svg>