<svg xmlns="http://www.w3.org/2000/svg" viewBox="0 0 1000 1000" fill="currentColor"><path d="M215.638 102.150L215.638 899.547L277.243 899.547L277.243 102.150M135.811 269.612C134.944 341.629 123.664 437.074 100.236 492.605L148.826 511.694C173.989 450.089 186.137 350.306 185.269 275.685M284.184 259.200C306.744 313.863 330.171 385.881 338.848 428.397L385.703 407.573C377.026 366.792 352.731 296.510 328.436 242.714M400.453 189.785L400.453 547.269L559.239 547.269C523.664 669.612 454.249 781.542 312.818 849.221C328.436 860.501 347.525 883.061 356.202 897.811C494.163 828.397 567.915 719.069 607.829 597.594L607.829 806.705C607.829 869.178 626.050 884.796 698.067 884.796C712.818 884.796 807.395 884.796 822.145 884.796C876.809 884.796 894.163 863.972 900.236 787.616C884.618 783.278 861.191 775.469 849.043 765.924C846.440 824.059 841.234 832.735 816.072 832.735C796.983 832.735 718.892 832.735 703.273 832.735C671.169 832.735 665.963 828.397 665.963 807.573L665.963 575.035L614.770 575.035L622.579 547.269L854.249 547.269L854.249 189.785L639.065 189.785L678.111 109.959L605.226 100.414C598.284 126.445 585.269 161.152 573.121 189.785M462.926 392.822L587.872 392.822C584.401 425.794 580.063 459.633 573.121 492.605L462.926 492.605M649.477 392.822L790.909 392.822L790.909 492.605L634.727 492.605C640.800 459.633 646.007 425.794 649.477 392.822M462.926 243.581L597.416 243.581L592.210 341.629L462.926 341.629M659.022 243.581L790.909 243.581L790.909 341.629L653.816 341.629M691.126 769.395C702.406 763.321 722.362 758.115 829.954 739.026L839.499 770.262L849.043 765.924L878.544 753.777C869.868 719.069 845.573 663.538 822.145 621.022L785.703 634.037C796.115 654.861 806.527 678.289 816.072 700.848L740.584 711.260C761.408 673.950 783.100 625.360 796.983 578.505L749.260 562.887C737.980 619.286 709.347 680.024 700.670 695.642C692.861 711.260 685.052 721.672 675.508 723.408C681.581 735.555 689.390 758.983 691.126 769.395"/></svg>