<svg xmlns="http://www.w3.org/2000/svg" viewBox="0 0 1000 1000" fill="currentColor"><path d="M337.830 158.766C409.319 207.277 502.085 278.766 552.298 322.170L594.851 271.106C545.489 231.106 451.872 161.319 379.532 113.660M199.106 368.128C182.936 461.745 148.894 577.489 100.383 650.681L161.660 675.362C209.319 601.319 240.809 478.766 259.532 384.298M702.936 423.447C759.106 508.553 816.979 623.447 839.106 699.191L900.383 669.404C876.553 594.511 818.681 482.170 759.957 397.915M747.191 161.319C669.745 318.766 552.298 474.511 402.511 601.319L402.511 317.915L336.128 317.915L336.128 654.085C263.787 707.702 185.489 754.511 101.234 792.809C114.851 805.574 133.574 828.553 142.936 843.872C211.021 811.532 275.702 773.234 336.128 731.532L336.128 774.085C336.128 863.447 362.511 886.426 455.277 886.426C475.702 886.426 606.766 886.426 628.043 886.426C720.809 886.426 741.234 841.319 751.447 688.128C732.723 683.872 704.638 671.106 688.468 659.191C682.511 795.362 674 823.447 624.638 823.447C594.851 823.447 483.362 823.447 460.383 823.447C411.872 823.447 402.511 814.936 402.511 774.936L402.511 682.170C577.830 545.149 714.851 371.532 811.021 187.702"/></svg>