<svg xmlns="http://www.w3.org/2000/svg" viewBox="0 0 1000 1000" fill="currentColor"><path d="M450.870 298.696C468.261 330.870 489.130 373.478 499.565 402.174L129.130 402.174L129.130 463.043L362.174 463.043C346.522 616.957 308.261 770.870 110 845.652C125.652 858.696 143.913 883.913 152.609 899.565C298.696 839.565 366.522 740.435 401.304 626.522L719.565 626.522C706.522 753.478 692.609 809.130 672.609 825.652C663.913 834.348 652.609 835.217 634.348 835.217C613.478 835.217 556.087 834.348 499.565 829.130C510.870 846.522 519.565 871.739 521.304 890.870C576.957 893.478 630.870 894.348 657.826 892.609C689.130 890.870 708.261 885.652 727.391 868.261C756.087 839.565 772.609 768.261 789.130 596.087C790.870 586.522 791.739 567.391 791.739 567.391L416.087 567.391C423.043 533.478 428.261 498.696 431.739 463.043L883.913 463.043L883.913 402.174L517.826 402.174L566.522 386.522C555.217 358.696 532.609 315.217 512.609 282.174M623.043 99.565L623.043 177.826L382.174 177.826L382.174 99.565L317.826 99.565L317.826 177.826L120.435 177.826L120.435 236.957L317.826 236.957L317.826 320.435L382.174 320.435L382.174 236.957L623.043 236.957L623.043 320.435L688.261 320.435L688.261 236.957LNaN 236.957LNaN 177.826L688.261 177.826L688.261 99.565"/></svg>