<svg xmlns="http://www.w3.org/2000/svg" viewBox="0 0 1000 1000" fill="currentColor"><path d="M111.149 283.132C137.067 337.559 159.529 408.402 165.577 453.326L217.413 430C211.365 386.803 188.039 317.689 160.393 264.125M585.447 517.257L432.531 517.257L432.531 504.298L432.531 396.307L585.447 396.307M372.920 340.151L372.920 503.434C372.920 611.425 361.689 757.430 270.112 862.829C283.935 869.741 308.125 887.883 318.492 899.114C397.974 807.538 423.892 679.676 430.803 570.821L461.041 570.821C491.279 645.983 532.747 709.050 586.311 760.886C527.564 800.626 459.313 829.136 387.607 845.551C399.702 859.374 413.525 883.564 420.436 899.114C497.326 877.516 570.760 845.551 633.827 799.762C696.030 845.551 772.056 879.244 861.905 899.114C869.680 882.700 886.959 858.510 899.918 845.551C814.389 829.136 740.955 800.626 681.343 760.886C744.410 703.002 793.654 626.976 822.164 529.352L783.287 514.665L772.056 517.257L644.194 517.257L644.194 396.307L799.702 396.307C790.199 427.408 778.104 458.510 767.737 480.972L822.164 492.203C840.307 455.918 861.041 398.898 878.320 347.927L834.259 337.559L823.892 340.151L644.194 340.151L644.194 264.989L585.447 264.989L585.447 340.151M745.274 570.821C719.356 632.160 680.479 683.132 632.963 724.600C585.447 682.268 548.298 631.296 521.516 570.821M512.877 122.441C527.564 140.583 541.387 163.909 551.754 184.644L232.963 184.644L232.963 462.829L231.235 533.672C181.127 560.454 134.475 584.644 99.918 601.058L122.380 658.078C156.073 639.935 191.495 619.201 226.052 597.603C215.685 689.179 188.903 783.348 124.108 857.646C137.067 865.421 160.393 887.019 169.032 899.978C277.024 780.756 293.438 596.739 293.438 463.693L293.438 241.663L893.006 241.663L893.006 184.644L621.732 184.644C610.501 157.862 588.903 125.032 568.168 99.978"/></svg>