<svg xmlns="http://www.w3.org/2000/svg" viewBox="0 0 1000 1000" fill="currentColor"><path d="M464.427 338.971L337.524 338.971L370.107 325.252C359.818 293.526 330.665 246.367 302.369 212.069C356.388 209.496 410.407 206.066 464.427 201.779M246.635 231.790C271.501 264.373 296.367 307.245 308.371 338.971L122.304 338.971L122.304 393.848L397.546 393.848C319.518 464.159 202.047 528.467 100.011 561.050C113.730 573.055 131.736 596.206 141.168 611.640C170.322 600.493 201.190 586.774 232.058 571.340L232.058 889.453L293.794 889.453L293.794 859.443L713.944 859.443L713.944 886.024L778.253 886.024L778.253 573.912C804.834 585.916 830.557 596.206 856.281 604.780C866.570 588.489 885.434 563.623 900.011 550.761C794.544 520.750 674.502 461.586 595.616 393.848L876.860 393.848L876.860 338.971L680.504 338.971C706.227 305.531 735.380 258.371 761.104 215.498L691.651 195.777C675.359 236.077 644.491 293.526 620.482 329.539L647.063 338.971L527.878 338.971L527.878 196.635C629.057 186.345 724.234 173.483 798.832 158.049L755.959 110.032C621.340 139.185 374.394 158.907 169.464 167.481C175.466 181.200 182.326 203.494 184.041 217.213L297.224 212.926M464.427 405.852L464.427 542.186L527.878 542.186L527.878 402.422C584.469 461.586 663.355 516.463 744.812 557.621L257.781 557.621C334.952 515.606 409.550 462.444 464.427 405.852M293.794 729.110L466.141 729.110L466.141 808.853L293.794 808.853M293.794 683.666L293.794 609.068L466.141 609.068L466.141 683.666M713.944 729.110L713.944 808.853L527.878 808.853L527.878 729.110M713.944 683.666L527.878 683.666L527.878 609.068L713.944 609.068"/></svg>