<svg xmlns="http://www.w3.org/2000/svg" viewBox="0 0 1000 1000" fill="currentColor"><path d="M608.309 100.073C597.908 146.876 580.573 210.148 561.505 258.686L420.226 258.686L420.226 896.606L484.365 896.606L484.365 855.869L799.858 855.869L799.858 891.405L867.464 891.405L867.464 258.686L629.111 258.686C647.312 215.349 667.247 161.611 683.715 113.940M484.365 584.580L799.858 584.580L799.858 791.730L484.365 791.730M484.365 521.308L484.365 320.224L799.858 320.224L799.858 521.308M343.087 103.540C298.883 252.619 224.343 392.164 131.602 482.304C144.603 495.306 165.405 525.641 172.339 539.509C200.075 510.907 226.077 478.837 251.212 443.301L251.212 900.073L316.218 900.073L316.218 334.959C351.754 268.220 382.090 194.547 405.492 118.274"/></svg>