<svg xmlns="http://www.w3.org/2000/svg" viewBox="0 0 1000 1000" fill="currentColor"><path d="M279.645 104.743L279.645 162.192L121.875 162.192L121.875 209.352L251.349 209.352C211.907 248.794 152.743 288.237 103.868 307.958C116.730 319.105 132.164 336.254 140.738 349.973C186.183 325.965 239.345 286.522 279.645 247.937L279.645 349.116L337.952 349.116L337.952 247.937C373.107 272.803 415.980 305.386 433.129 320.820L468.284 281.377C451.135 269.373 391.114 231.645 352.528 209.352L482.861 209.352L482.861 162.192L337.952 162.192L337.952 104.743M376.537 420.284L376.537 481.163L233.343 481.163L233.343 420.284M433.986 420.284L576.323 420.284L576.323 481.163L433.986 481.163M280.503 887.594C297.652 879.019 325.090 874.732 548.027 848.151C546.312 837.004 544.597 817.283 544.597 802.706L351.671 823.285L351.671 742.685L537.737 742.685L537.737 697.240L351.671 697.240L351.671 636.361L574.608 636.361L574.608 810.423C574.608 868.730 594.329 883.307 671.499 883.307C686.934 883.307 796.687 883.307 813.836 883.307C873.857 883.307 891.006 861.013 897.009 777.840C880.717 774.411 858.423 766.693 846.419 758.119C842.989 825 837.845 836.147 806.976 836.147C784.683 836.147 693.793 836.147 676.644 836.147C638.916 836.147 632.914 831.860 632.914 810.423L632.914 752.974C710.942 740.970 800.117 721.249 862.711 697.240L824.983 656.940C779.538 676.661 703.225 695.525 632.914 709.244L632.914 636.361L842.132 636.361L842.132 481.163L633.772 481.163L633.772 420.284L873 420.284L873 370.552L556.601 370.552C549.742 355.118 539.452 337.111 530.020 322.535C571.178 301.956 614.908 271.945 649.206 241.935L649.206 346.543L708.370 346.543L708.370 242.792C754.672 283.092 815.551 322.535 863.568 345.686C872.143 332.824 888.434 313.960 900.438 304.528C848.134 283.950 783.825 247.079 738.380 209.352L885.862 209.352L885.862 162.192L708.370 162.192L708.370 104.743L649.206 104.743L649.206 162.192L503.439 162.192L503.439 209.352L615.765 209.352C575.465 244.507 518.874 277.090 469.999 293.382C480.288 301.099 492.293 313.103 500.867 323.392L467.427 331.967C475.144 343.114 482.003 356.833 488.005 370.552L174.179 370.552L174.179 535.182C174.179 630.359 166.462 760.691 100.438 855.868C113.300 863.585 139.024 883.307 148.456 895.311C199.045 822.428 220.481 724.678 229.056 636.361L295.937 636.361L295.937 789.845C295.937 821.570 274.501 830.145 259.924 835.289C267.641 848.151 277.073 873.017 280.503 887.594M376.537 526.608L376.537 590.916L231.628 590.916L233.343 535.182L233.343 526.608M433.986 526.608L576.323 526.608L576.323 590.916L433.986 590.916M633.772 526.608L783.825 526.608L783.825 590.916L633.772 590.916"/></svg>