<svg xmlns="http://www.w3.org/2000/svg" viewBox="0 0 1000 1000" fill="currentColor"><path d="M732.242 157.193C765.647 199.163 802.478 256.550 817.039 293.381L866.717 265.116C851.300 229.141 813.612 172.610 778.495 132.353M132.670 234.281C157.510 255.694 188.345 284.816 204.619 303.660L235.454 269.398C219.180 251.411 187.488 224.002 163.505 204.302M364.790 230.854C389.630 252.268 420.465 281.390 436.739 301.090L467.574 265.972C452.156 247.985 420.465 219.719 394.769 200.876M236.310 628.285L360.507 628.285L360.507 686.529L236.310 686.529M236.310 585.458L236.310 530.640L360.507 530.640L360.507 585.458M341.664 427C351.086 444.131 360.507 464.687 367.360 483.531L255.154 483.531C265.433 463.831 275.711 443.274 284.276 423.574L230.315 406.443C200.336 479.248 150.657 554.623 100.122 606.015C111.257 617.150 130.101 641.989 137.809 653.124C151.514 638.563 164.362 622.289 178.066 605.158L178.066 878.392L236.310 878.392L236.310 843.274L533.527 843.274C548.088 854.409 564.362 869.827 574.640 882.675C621.749 850.126 668.002 804.730 709.116 753.338C735.668 837.278 770.786 886.957 820.465 888.670C851.300 889.527 882.991 853.552 900.122 719.077C888.131 714.794 864.148 698.520 853.869 685.672C847.874 767.899 836.739 813.296 821.321 813.296C794.769 812.439 772.499 767.043 754.512 691.668C805.047 617.150 846.161 533.210 873.570 451.839L825.604 425.287C805.047 487.814 775.069 552.054 739.094 611.154C728.816 550.340 721.107 479.248 715.111 400.448L894.126 373.895L886.418 319.077L711.685 343.916C707.403 271.111 703.976 193.167 703.120 111.797L644.019 111.797C646.589 196.593 649.158 277.107 653.441 352.482L570.358 364.473L578.066 420.148L657.724 408.156C664.576 513.510 675.711 606.015 691.128 681.390C650.015 737.064 602.906 785.030 554.084 821.004L554.084 792.739L417.039 792.739L417.039 729.355L536.953 729.355L536.953 686.529L417.039 686.529L417.039 628.285L538.666 628.285L538.666 585.458L417.039 585.458L417.039 530.640L557.510 530.640L557.510 483.531L428.173 483.531C419.608 460.405 405.904 432.996 393.912 410.726M236.310 729.355L360.507 729.355L360.507 792.739L236.310 792.739M113.827 350.769L130.101 400.448L269.715 338.777L269.715 409.869L324.533 409.869L324.533 138.349L121.535 138.349L121.535 187.171L269.715 187.171L269.715 289.955C209.758 313.081 154.940 336.208 113.827 350.769M345.946 347.343L362.221 397.021L503.548 334.495L503.548 413.296L558.366 413.296L558.366 138.349L346.803 138.349L346.803 187.171L503.548 187.171L503.548 285.672C443.591 309.655 387.060 332.782 345.946 347.343"/></svg>