<svg xmlns="http://www.w3.org/2000/svg" viewBox="0 0 1000 1000" fill="currentColor"><path d="M200.332 179.347L365.820 179.347L365.820 330.258L200.332 330.258M100.011 775.274L115.445 836.153C203.762 812.145 324.662 779.562 438.703 748.693L431.844 692.102L323.805 720.398L323.805 562.627L429.271 562.627L429.271 506.035L323.805 506.035L323.805 385.992L424.126 385.992L424.126 123.613L143.741 123.613L143.741 385.992L265.498 385.992L265.498 734.974L197.760 752.123L197.760 467.450L144.598 467.450L144.598 764.985M779.968 338.833L779.968 445.156L527.020 445.156L527.020 338.833M779.968 284.814L527.020 284.814L527.020 181.920L779.968 181.920M462.712 875.596C479.861 864.449 506.442 855.017 683.076 807C681.361 793.281 679.646 766.700 680.504 748.693L527.020 785.564L527.020 501.748L609.335 501.748C651.350 671.523 728.521 804.428 857.996 869.594C867.428 851.587 886.292 826.721 900.011 813.860C833.130 785.564 780.825 737.547 739.668 675.810C786.827 647.514 844.277 610.644 887.149 574.631L846.849 529.186C813.408 560.912 759.389 600.355 713.087 630.365C692.508 590.923 676.217 548.050 664.212 501.748L839.989 501.748L839.989 125.328L466.141 125.328L466.141 762.413C466.141 797.568 447.278 814.717 433.558 822.434C443.848 835.296 458.424 861.019 462.712 875.596"/></svg>