<svg xmlns="http://www.w3.org/2000/svg" viewBox="0 0 1000 1000" fill="currentColor"><path d="M727.739 228.261C700.783 267.391 664.261 302.174 622.522 331.739C583.391 303.913 551.217 271.739 526.870 236.087L533.826 228.261M551.217 99.565C515.565 164.783 450.348 243.913 359.913 302.174C373.826 311.739 392.957 332.609 402.522 346.522C434.696 323.913 463.391 300.435 488.609 275.217C512.957 307.391 540.783 336.957 572.957 363.913C505.130 403.043 426.870 431.739 348.609 449.130C359.913 462.174 375.565 485.652 381.652 501.304C466.870 479.565 550.348 446.522 623.391 401.304C688.609 443.913 764.261 475.217 NaN 493.478C854.696 476.957 872.087 452.609 NaN 440.435C809.478 425.652 736.435 399.565 674.696 365.652C734.696 318.696 784.261 262.174 816.435 192.609L775.565 172.609L765.130 175.217L575.565 175.217C590.348 154.348 604.261 132.609 616.435 111.739M403.391 532.609L403.391 590L605.130 590L605.130 708.261L458.174 708.261L482.522 623.043L423.391 615.217C412.087 663.913 393.826 724.783 378.174 765.652L605.130 765.652L605.130 899.565L668.609 899.565L668.609 765.652LNaN 765.652LNaN 708.261L668.609 708.261L668.609 590L839.043 590L839.043 532.609L668.609 532.609L668.609 465.652L605.130 465.652L605.130 532.609M113.826 135.217L113.826 897.826L172.087 897.826L172.087 194.348L288.609 194.348C266.870 252.609 239.043 329.130 210.348 390.870C280.783 460.435 299.043 519.565 299.913 567.391C299.913 595.217 294.696 619.565 279.043 628.261C272.087 634.348 261.652 636.087 249.478 636.957C234.696 637.826 215.565 637.826 193.826 635.217C204.261 652.609 210.348 676.957 211.217 693.478C232.087 694.348 254.696 694.348 273.826 691.739C292.957 690 308.609 684.783 321.652 676.087C346.870 657.826 358.174 620.435 358.174 573.478C358.174 518.696 341.652 456.087 271.217 383.913C304.261 314.348 339.043 230 366.870 158.696L324.261 132.609L314.696 135.217"/></svg>