<svg xmlns="http://www.w3.org/2000/svg" viewBox="0 0 1000 1000" fill="currentColor"><path d="M449.333 273.741L760.021 273.741L760.021 329.614L449.333 329.614M449.333 175.540L760.021 175.540L760.021 230.566L449.333 230.566M147.111 150.143C187.746 195.011 237.693 256.810 259.704 296.598L315.577 261.889C291.873 222.947 241.079 162.841 199.598 120.513M604.254 490.460C589.016 548.873 549.228 592.894 493.354 622.524C505.206 630.143 524.677 646.228 533.143 654.693C564.466 635.222 593.249 610.672 615.259 580.196C648.275 603.899 682.138 632.683 701.608 652.153L737.164 619.984C715.153 598.820 672.825 566.651 638.116 542.101C644.889 528.556 650.815 513.317 655.048 497.233M390.074 131.519L390.074 374.481L475.577 374.481C433.249 448.132 368.910 519.243 302.032 566.651C314.730 577.656 335.894 603.053 344.360 614.905C362.138 601.360 379.069 585.275 396.847 568.344L396.847 720.725L740.550 720.725L740.550 670.778L452.720 670.778L452.720 524.323L438.328 524.323C451.026 510.778 462.878 496.386 473.884 481.148L794.730 481.148C791.344 649.614 786.265 709.720 776.952 724.958C771.026 732.577 765.101 734.270 754.942 734.270C743.937 734.270 718.540 734.270 690.603 730.884C698.222 743.582 704.148 763.899 704.995 775.751C733.778 777.444 763.407 778.291 780.339 776.598C800.656 774.905 816.741 768.979 827.746 754.587C844.677 730.884 850.603 664.852 854.836 457.444C854.836 449.825 855.683 432.894 855.683 432.894L508.593 432.894C520.444 413.423 532.296 393.952 542.455 374.481L822.667 374.481L822.667 131.519M285.947 388.873L117.481 388.873L117.481 448.979L222.455 448.979L222.455 715.646C186.899 730.037 143.725 768.979 99.704 820.619L144.571 879.032C183.513 819.772 221.608 766.439 248.698 766.439C266.476 766.439 296.106 796.915 330.815 820.619C392.614 859.561 464.571 868.873 575.471 868.873C660.974 868.873 820.127 862.947 881.079 859.561C881.926 840.090 892.085 808.767 899.704 792.683C814.201 801.148 683.831 808.767 577.164 808.767C477.270 808.767 402.772 802.841 346.053 766.439C319.810 749.508 301.185 733.423 285.947 723.265"/></svg>