<svg xmlns="http://www.w3.org/2000/svg" viewBox="0 0 1000 1000" fill="currentColor"><path d="M244.795 216.761L244.795 449.239L144.795 449.239L144.795 487.701L855.051 487.701L855.051 449.239L755.906 449.239L755.906 216.761L518.299 216.761L524.282 191.120L837.957 191.120L837.957 151.803L533.684 151.803L540.521 117.615L473.855 113.342L468.726 151.803L161.889 151.803L161.889 191.120L461.889 191.120L456.761 216.761M100.350 844.966L105.479 885.991C208.043 882.573 354.197 876.590 494.368 869.752L495.222 834.709L460.179 835.564L460.179 603.940L323.427 603.940L332.829 570.607L486.675 570.607L486.675 533L343.085 533L349.923 501.376L291.803 497.103L284.966 533L118.299 533L118.299 570.607L276.419 570.607L267.872 603.940L160.179 603.940L160.179 844.111M542.231 604.795L542.231 840.692L511.462 840.692L511.462 880.009L900.350 880.009L900.350 840.692L846.504 840.692L846.504 604.795L711.462 604.795L720.863 571.462L883.256 571.462L883.256 534.709L730.265 534.709L737.103 503.085L678.983 497.957L673 534.709L508.043 534.709L508.043 571.462L665.308 571.462L656.761 604.795M602.915 840.692L602.915 810.778L783.256 810.778L783.256 840.692M305.479 449.239L305.479 421.034L692.658 421.034L692.658 449.239M305.479 305.650L692.658 305.650L692.658 332.145L305.479 332.145M305.479 274.026L305.479 249.239L692.658 249.239L692.658 274.026M305.479 362.060L692.658 362.060L692.658 390.265L305.479 390.265M221.718 692.829L396.932 692.829L396.932 720.179L221.718 720.179M221.718 661.205L221.718 635.564L396.932 635.564L396.932 661.205M221.718 750.094L396.932 750.094L396.932 779.154L221.718 779.154M221.718 809.068L396.932 809.068L396.932 838.128L221.718 842.402M602.915 693.684L783.256 693.684L783.256 721.034L602.915 721.034M602.915 662.915L602.915 637.274L783.256 637.274L783.256 662.915M602.915 751.803L783.256 751.803L783.256 780.009L602.915 780.009"/></svg>