<svg xmlns="http://www.w3.org/2000/svg" viewBox="0 0 1000 1000" fill="currentColor"><path d="M418.174 152.696L418.174 464C418.174 594.435 406.870 751.826 312.957 859.652C328.609 867.478 353.826 886.609 NaN 897.913C466.870 781.391 480.783 611.826 480.783 464L480.783 391.826L899.913 391.826L899.913 330.957L480.783 330.957L480.783 205.739C612.957 197.043 761.652 181.391 864.261 157.043L821.652 101.391C725.130 124.870 559.043 143.130 418.174 152.696M514.696 502.261L514.696 882.261L574.696 882.261L574.696 824.870L792.087 824.870L792.087 878.783L854.696 878.783L854.696 502.261M574.696 765.739L574.696 563.130L792.087 563.130L792.087 765.739M99.913 708.348L122.522 774.435C197.304 744.870 292.957 705.739 384.261 668.348L371.217 608.348L277.304 644L277.304 366.609L371.217 366.609L371.217 304.870L277.304 304.870L277.304 102.261L213.826 102.261L213.826 304.870L112.087 304.870L112.087 366.609L213.826 366.609L213.826 668.348C171.217 684 132.087 697.913 99.913 708.348"/></svg>