<svg xmlns="http://www.w3.org/2000/svg" viewBox="0 0 1000 1000" fill="currentColor"><path d="M301.035 99.593L301.035 214.745L122.680 214.745L122.680 275.351L301.035 275.351L301.035 393.100L139.130 393.100L139.130 451.108L301.035 451.108C300.169 492.667 297.571 533.359 291.511 573.186L106.229 573.186L106.229 634.658L278.524 634.658C255.147 716.043 210.126 791.368 121.814 853.706C138.264 864.095 162.506 885.740 173.762 899.593C275.061 825.134 323.545 733.359 346.056 634.658L533.069 634.658L533.069 573.186L357.312 573.186C362.506 533.359 364.238 492.667 365.104 451.108L506.229 451.108L506.229 393.100L365.104 393.100L365.104 275.351L525.277 275.351L525.277 214.745L365.104 214.745L365.104 99.593M565.970 148.944L565.970 896.130L630.039 896.130L630.039 209.550L805.797 209.550C774.628 278.814 731.338 372.320 689.779 445.048C790.212 521.238 820.515 586.173 820.515 640.719C820.515 671.887 813.589 697.861 792.810 708.251C780.688 715.177 765.970 718.641 749.519 719.506C729.606 720.372 701.900 719.506 672.463 716.909C683.719 735.091 690.645 762.797 691.511 780.113C719.216 781.844 751.251 780.978 775.494 779.247C798.870 776.649 820.515 769.723 836.100 760.199CNaN 739.420 882.853 699.593 881.987 646.779C881.987 584.442 856.879 515.177 758.177 436.390C802.333 357.602 853.416 258.900 893.242 175.784L846.489 146.346L836.965 148.944"/></svg>