<svg xmlns="http://www.w3.org/2000/svg" viewBox="0 0 1000 1000" fill="currentColor"><path d="M178.226 238.424L178.226 574.269L457.236 574.269L457.236 771.470C326.342 777.498 204.060 782.665 111.057 785.249L119.668 855.001C292.758 846.390 541.628 830.889 777.580 815.389C798.248 846.390 814.609 875.668 825.804 899.780L889.529 870.502C857.666 802.471 781.886 700.857 716.439 627.660L656.159 652.633C683.716 683.634 712.133 720.663 737.968 756.831L526.988 768.026L526.988 574.269L809.442 574.269L809.442 238.424L526.988 238.424L526.988 99.780L457.236 99.780L457.236 238.424M243.673 303.010L457.236 303.010L457.236 510.545L243.673 510.545M526.988 303.010L739.690 303.010L739.690 510.545L526.988 510.545"/></svg>