<svg xmlns="http://www.w3.org/2000/svg" viewBox="0 0 1000 1000" fill="currentColor"><path d="M361.620 742.150C368.465 789.209 375.310 850.813 377.877 887.604L442.048 879.048C438.626 844.824 430.070 784.075 421.513 737.872M537.877 740.439C554.989 786.642 575.524 849.102 584.080 885.893L648.251 873.059C637.984 837.123 615.738 776.374 597.770 731.027M714.134 737.872C751.781 787.497 798.840 855.947 821.086 896.160L885.257 873.059C861.299 832.845 812.529 766.963 775.738 718.193M216.166 719.904C190.497 772.096 150.283 833.701 115.203 870.492L174.241 899.583C211.888 855.947 251.246 789.209 277.770 736.160M612.316 99.583C588.358 203.112 542.155 299.797 479.695 363.112C484.829 367.390 491.674 374.235 498.519 381.936L346.219 381.936L346.219 320.332L480.551 320.332L480.551 269.850L346.219 269.850L346.219 213.380L495.952 213.380L495.952 165.465L346.219 165.465L346.219 107.283L285.471 107.283L285.471 165.465L141.727 165.465L141.727 213.380L285.471 213.380L285.471 269.850L154.561 269.850L154.561 320.332L285.471 320.332L285.471 381.936L114.348 381.936L114.348 432.417L245.257 432.417C233.278 527.390 205.043 607.818 112.636 653.166C126.326 662.578 143.439 683.968 151.139 698.513C225.578 660.011 264.936 601.829 287.182 531.668L415.524 531.668C410.390 591.561 403.545 617.230 394.134 626.642C389 631.775 382.155 632.631 370.176 632.631C358.198 632.631 325.684 632.631 292.316 629.209C300.016 642.898 306.005 664.289 306.861 678.834C341.941 681.401 377.021 680.545 394.989 679.690C414.668 678.834 428.358 674.556 440.337 661.722C457.449 644.610 466.861 602.684 474.561 506.856C475.417 499.155 476.273 483.754 476.273 483.754L298.305 483.754C301.727 467.497 304.294 450.385 306.861 432.417L508.786 432.417L508.786 393.059L524.187 411.882C540.444 394.770 555.845 375.091 569.535 354.556C586.647 413.594 612.316 474.342 649.107 530.813C604.615 577.872 548.144 615.519 479.695 643.754C492.529 655.733 513.920 680.545 520.765 693.380C585.791 662.578 640.551 624.930 685.898 578.727C727.824 627.497 780.872 670.278 848.465 699.369C857.021 682.257 874.989 655.733 887.824 643.754C819.374 618.086 766.326 579.583 724.401 534.235C774.027 468.353 809.963 387.070 832.209 286.963L882.690 286.963L882.690 230.492L634.561 230.492C649.963 192.845 663.652 153.487 673.920 113.273M608.893 286.963L769.749 286.963C751.781 364.824 724.401 430.706 685.898 485.465C645.684 426.428 620.872 358.834 604.615 294.663"/></svg>