<svg xmlns="http://www.w3.org/2000/svg" viewBox="0 0 1000 1000" fill="currentColor"><path d="M483.544 202.009L483.544 264.549L648.582 264.549L648.582 812.649L487.018 812.649C476.595 764.875 454.011 698.860 430.558 647.611L380.178 662.378C390.602 685.831 400.156 711.889 408.843 738.817L321.112 756.189L321.112 594.625L450.536 594.625L450.536 278.447L321.112 278.447L321.112 123.833L262.046 123.833L262.046 278.447L129.147 278.447L129.147 636.319L183.870 636.319L183.870 594.625L261.177 594.625L261.177 767.481L99.613 797.014L110.037 859.555L425.346 794.408C430.558 812.649 434.033 830.890 436.638 845.657L466.172 835.233L466.172 875.190L899.613 875.190L899.613 812.649L717.203 812.649L717.203 264.549L883.110 264.549L883.110 202.009M183.870 333.170L266.389 333.170L266.389 539.902L183.870 539.902M316.769 333.170L396.682 333.170L396.682 539.902L316.769 539.902"/></svg>