<svg xmlns="http://www.w3.org/2000/svg" viewBox="0 0 1000 1000" fill="currentColor"><path d="M331.771 109.978C280.799 228.337 195.270 339.784 100.238 409.762C115.788 420.994 142.570 445.184 153.801 457.279C206.501 414.082 258.337 357.063 304.125 292.268L757.689 292.268C750.778 533.305 741.274 620.562 724.860 641.296C717.084 651.663 709.309 653.391 695.486 652.527C680.799 653.391 646.242 652.527 608.229 649.935C617.732 666.350 624.644 692.268 626.371 711.274C666.112 713.866 704.125 713.866 726.587 711.274C749.914 708.683 767.192 701.771 781.879 681.901C806.069 650.799 814.708 549.719 824.212 261.166C825.076 252.527 825.076 230.929 825.076 230.929L343.866 230.929C363.737 198.099 381.015 163.542 396.566 128.985M302.397 440L529.611 440L529.611 580.821L302.397 580.821M238.467 382.117L238.467 770.022C238.467 867.646 279.071 890.972 415.572 890.972C445.810 890.972 710.173 890.972 743.866 890.972C861.361 890.972 886.415 858.143 900.238 744.104C881.231 740.648 853.585 730.281 837.171 719.914C828.531 810.626 816.436 829.633 742.138 829.633C685.119 829.633 456.177 829.633 411.253 829.633C318.812 829.633 302.397 817.538 302.397 770.022L302.397 638.704L592.678 638.704L592.678 382.117"/></svg>