<svg xmlns="http://www.w3.org/2000/svg" viewBox="0 0 1000 1000" fill="currentColor"><path d="M161.698 135.504L161.698 445.515C161.698 572.963 157.392 746.053 99.695 867.474C115.196 873.502 140.169 887.280 152.225 897.614C190.115 815.805 206.477 706.440 213.366 603.964L329.620 603.964L329.620 818.389C329.620 830.445 326.175 833.889 314.981 833.889C303.786 834.750 270.201 834.750 231.450 833.889C240.061 851.112 248.673 878.668 250.395 895.030C306.369 895.030 339.093 893.308 360.621 882.974C382.150 872.640 389.039 852.834 389.039 819.250L389.039 135.504M218.533 194.061L329.620 194.061L329.620 337.011L218.533 337.011M218.533 396.429L329.620 396.429L329.620 543.685L216.811 543.685C218.533 509.239 218.533 475.654 218.533 445.515M668.910 544.546L668.910 659.939L413.151 659.939L413.151 717.635L668.910 717.635L668.910 895.030L731.773 895.030L731.773 717.635L899.695 717.635L899.695 659.939L731.773 659.939L731.773 544.546M623.269 102.780C616.380 128.615 603.463 163.921 590.546 193.200L445.874 193.200L445.874 520.434L583.657 520.434C557.822 556.602 515.626 589.325 446.735 614.298C459.652 626.354 476.875 646.160 484.625 659.939C576.767 622.910 626.714 572.963 653.409 520.434L861.805 520.434L861.805 193.200L656.854 193.200C668.910 169.949 682.688 142.393 694.744 115.698M506.154 380.929L622.408 380.929C622.408 407.624 619.825 437.764 610.352 467.043L506.154 467.043M681.827 380.929L800.664 380.929L800.664 467.043L672.354 467.043C680.104 438.625 681.827 409.347 681.827 382.651M506.154 245.730L622.408 245.730L622.408 330.983L506.154 330.983M681.827 245.730L800.664 245.730L800.664 330.983L681.827 330.983"/></svg>