<svg xmlns="http://www.w3.org/2000/svg" viewBox="0 0 1000 1000" fill="currentColor"><path d="M234.957 307.419L234.957 347.590L420.427 347.590L420.427 307.419M216.154 392.889L216.154 434.769L421.282 434.769L421.282 392.889M569.145 392.889L569.145 434.769L780.256 434.769L780.256 392.889M569.145 307.419L569.145 347.590L758.889 347.590L758.889 307.419M134.957 217.675L134.957 367.248L193.077 367.248L193.077 262.120L463.162 262.120L463.162 394.598L526.410 394.598L526.410 262.120L800.769 262.120L800.769 367.248L860.598 367.248L860.598 217.675L526.410 217.675L526.410 168.957L809.316 168.957L809.316 120.239L184.530 120.239L184.530 168.957L463.162 168.957L463.162 217.675M437.521 549.299C463.162 569.812 493.077 598.017 509.316 619.385L216.154 619.385L216.154 668.103L682.821 668.103C633.248 703.145 565.726 739.897 510.171 762.974C452.906 743.316 393.077 725.368 341.795 712.547L314.444 753.573C428.974 785.197 577.692 839.897 653.761 879.214L681.966 831.350C654.615 817.675 619.573 803.145 580.256 787.761C652.906 751.009 738.376 697.162 787.949 645.026L746.923 615.966L737.521 619.385L521.282 619.385L555.470 593.744C538.376 572.376 505.897 541.607 477.692 521.949M510.171 415.111C417.863 484.342 246.068 544.171 99.915 574.940C113.590 588.615 128.120 608.274 135.812 622.803C253.761 594.598 386.239 548.444 487.094 491.179C584.530 543.316 745.214 595.453 860.598 618.530C869.145 604 887.094 580.068 899.915 567.248C783.675 547.590 625.556 505.709 534.957 462.120L558.889 445.026"/></svg>