<svg xmlns="http://www.w3.org/2000/svg" viewBox="0 0 1000 1000" fill="currentColor"><path d="M260.548 161.562L812.622 161.562L812.622 274.005L260.548 274.005M191.424 100.733L191.424 369.857C191.424 515.479 184.051 721.009 100.180 866.631C117.691 872.161 149.028 889.673 161.931 899.811C249.488 749.581 260.548 524.696 260.548 369.857L260.548 335.756L881.747 335.756L881.747 100.733M319.535 648.198L319.535 863.866L832.899 863.866L832.899 899.811L900.180 899.811L900.180 646.355L832.899 646.355L832.899 803.959L638.429 803.959L638.429 597.507L867.922 597.507L867.922 388.290L801.562 388.290L801.562 539.442L638.429 539.442L638.429 352.346L570.226 352.346L570.226 539.442L414.465 539.442L414.465 388.290L350.871 388.290L350.871 597.507L570.226 597.507L570.226 803.959L385.894 803.959L385.894 648.198"/></svg>