<svg xmlns="http://www.w3.org/2000/svg" viewBox="0 0 1000 1000" fill="currentColor"><path d="M639.747 163.874L639.747 712.912L703.168 712.912L703.168 163.874M819.136 100.454L819.136 813.478C819.136 828.880 814.606 833.410 799.204 833.410C783.802 834.316 733.972 834.316 680.518 832.504C691.390 850.624 702.262 881.428 705.886 900.454C772.024 900.454 820.042 898.642 848.128 886.864C875.308 875.992 885.274 856.060 885.274 813.478L885.274 100.454M115.172 808.948L130.574 874.180C250.166 850.624 422.307 818.008 583.575 786.298L579.951 726.502L389.691 761.836L389.691 619.593L570.891 619.593L570.891 558.891L389.691 558.891L389.691 461.949L325.365 461.949L325.365 558.891L146.882 558.891L146.882 619.593L325.365 619.593L325.365 772.708M166.814 449.265C188.558 439.299 222.080 435.675 505.659 408.495C518.343 429.333 529.215 448.359 537.369 464.667L589.011 430.239C562.737 378.597 502.941 296.151 452.205 235.448L402.375 264.441C425.025 291.621 448.581 324.237 470.325 355.041L238.388 374.973C275.535 326.049 312.681 265.347 343.485 205.550L589.011 205.550L589.011 145.754L123.326 145.754L123.326 205.550L267.381 205.550C238.388 269.877 201.242 327.861 187.652 345.075C172.250 366.819 158.660 382.221 144.164 384.939C152.318 403.059 162.284 434.769 166.814 449.265"/></svg>