<svg xmlns="http://www.w3.org/2000/svg" viewBox="0 0 1000 1000" fill="currentColor"><path d="M723.619 102.727L723.619 227.403L568.641 227.403L568.641 102.727L506.303 102.727L506.303 227.403L385.957 227.403L385.957 286.277L506.303 286.277L506.303 399.697L568.641 399.697L568.641 286.277L723.619 286.277L723.619 399.697L785.957 399.697L785.957 286.277L900.242 286.277L900.242 227.403L785.957 227.403L785.957 102.727M483.792 673.290L614.528 673.290L614.528 795.368L483.792 795.368M483.792 616.147L483.792 496.667L614.528 496.667L614.528 616.147M806.736 673.290L806.736 795.368L673.403 795.368L673.403 673.290M806.736 616.147L673.403 616.147L673.403 496.667L806.736 496.667M424.052 438.658L424.052 897.532L483.792 897.532L483.792 853.377L806.736 853.377L806.736 893.203L869.074 893.203L869.074 438.658M217.126 103.593L217.126 277.619L112.364 277.619L112.364 338.225L217.126 338.225L217.126 528.701C172.970 542.554 132.277 553.810 100.242 562.468L116.693 626.537L217.126 593.636L217.126 817.879C217.126 830 212.797 833.463 202.407 833.463C192.017 834.329 158.251 834.329 120.156 833.463C128.814 850.779 136.606 877.619 139.203 893.203C193.749 894.069 227.515 891.472 248.294 881.082C269.939 871.558 277.732 853.377 277.732 817.879L277.732 573.723L372.970 542.554L364.312 482.814L277.732 509.654L277.732 338.225L370.372 338.225L370.372 277.619L277.732 277.619L277.732 103.593"/></svg>