<svg xmlns="http://www.w3.org/2000/svg" viewBox="0 0 1000 1000" fill="currentColor"><path d="M278.892 644.784C307.432 669.865 339.432 707.919 354.135 732.135L403.432 700.135C388.730 675.919 355.865 641.324 325.595 617.108M592.838 100.784C571.216 175.162 534.027 246.946 487.324 298.838L487.324 250.405L336.838 250.405L336.838 176.027C387 167.378 433.703 157 470.892 144.027L431.108 102.514C360.189 127.595 227.865 145.757 118.027 155.270C124.081 167.378 131.865 186.405 133.595 199.378C179.432 195.919 228.730 191.595 277.162 185.541L277.162 250.405L115.432 250.405L115.432 301.432L260.730 301.432C219.216 361.108 154.351 422.514 99.865 454.514C112.838 464.892 131 483.919 139.649 497.757C184.622 466.622 236.514 415.595 277.162 361.108L277.162 498.622L336.838 498.622L336.838 351.595C369.703 378.405 412.081 414.730 431.108 433.757L463.108 387.919C444.081 373.216 373.162 321.324 342.027 301.432L484.730 301.432L471.757 315.270C485.595 323.054 509.811 339.486 520.189 349C545.270 321.324 569.486 287.595 590.243 249.541L672.405 249.541C645.595 318.730 602.351 380.135 549.595 421.649C564.297 430.297 588.514 446.730 599.757 456.243C655.108 406.946 705.270 333.432 733.811 249.541L811.649 249.541C803.865 373.216 794.351 421.649 782.243 434.622C776.189 442.405 769.270 443.270 758.027 443.270C746.784 443.270 720.838 443.270 691.432 440.676C700.081 456.243 706.135 480.459 707 497.757C739 499.486 770.135 499.486 786.568 496.892C807.324 495.162 820.297 489.973 832.405 475.270C854.027 451.919 863.541 387.919 873.054 220.135C873.919 211.486 874.784 194.189 874.784 194.189L618.784 194.189C630.027 168.243 640.405 140.568 649.054 112.892M681.919 617.108C658.568 644.784 620.514 680.243 585.919 708.784L530.568 688.027L530.568 555.703L469.162 555.703L469.162 695.811C358.459 739.919 242.568 784.027 168.189 809.108L196.730 860.135C273.703 829.865 374.027 787.486 469.162 746.838L469.162 834.189C469.162 842.838 466.568 845.432 457.054 846.297C446.676 846.297 417.270 846.297 380.946 845.432C388.730 861 397.378 882.622 399.973 899.054C448.405 899.054 482.135 898.189 502.892 889.541C525.378 880.027 530.568 865.324 530.568 835.054L530.568 741.649C623.973 777.973 727.757 829.865 787.432 866.189L822.027 821.216C777.054 795.270 707.865 761.541 637.811 730.405C670.676 704.459 706.135 673.324 735.541 643.054M508.946 409.541C420.730 502.946 255.541 584.243 101.595 626.622C115.432 640.459 131 662.081 139.649 676.784C268.514 637 403.432 570.405 502.027 489.973C616.189 579.919 737.270 630.081 860.081 669C868.730 650.838 885.162 629.216 899.865 614.514C776.189 579.919 650.784 536.676 542.676 454.514L559.973 437.216"/></svg>