<svg xmlns="http://www.w3.org/2000/svg" viewBox="0 0 1000 1000" fill="currentColor"><path d="M253.207 125.017C269.275 161.381 288.725 209.584 296.336 240.873L354.687 221.423C346.230 192.670 326.780 145.313 309.021 108.949M116.209 247.638L116.209 306.835L215.998 306.835L215.998 482.734C215.998 602.818 203.313 736.433 100.142 846.370C115.364 857.364 136.505 874.277 147.499 887.808C259.973 767.723 276.886 623.960 276.886 483.579L276.886 478.505L392.742 478.505C386.822 711.063 380.903 793.093 366.526 811.698C360.607 821.846 352.996 823.537 341.156 823.537C327.626 823.537 296.336 823.537 261.664 820.154C270.121 836.222 276.040 861.592 277.732 879.351C314.095 881.042 349.613 881.042 369.909 878.505C392.742 876.814 406.273 870.049 420.649 850.598C442.636 821.846 447.710 727.131 452.784 448.907C453.630 439.605 453.630 419.309 453.630 419.309L276.886 419.309L276.886 306.835L491.685 306.835L491.685 247.638M607.541 327.977L766.526 327.977C749.613 435.376 724.243 526.708 685.342 603.664C648.133 525.863 621.918 434.531 605.004 335.588M596.548 109.795C571.178 256.095 524.666 398.167 455.321 486.962C469.698 498.801 494.222 522.480 504.370 535.165C527.203 504.721 548.345 469.203 566.949 429.457C587.245 517.406 613.461 596.899 648.133 666.243C598.239 738.125 532.277 793.939 443.482 835.376C456.167 848.061 474.772 875.968 480.691 890.345C565.258 847.216 631.220 793.093 681.960 725.440C727.626 794.784 784.285 849.753 855.321 886.962C865.469 870.049 885.765 845.524 900.142 832.839C824.877 798.167 766.526 740.662 720.860 667.934C774.137 576.603 807.964 464.975 829.951 327.977L892.531 327.977L892.531 268.780L626.146 268.780C639.677 221.423 651.516 171.529 661.664 120.789"/></svg>