<svg xmlns="http://www.w3.org/2000/svg" viewBox="0 0 1000 1000" fill="currentColor"><path d="M233.783 587.488L233.783 896.230L296.896 896.230L296.896 856.145L717.365 856.145L717.365 896.230L783.036 896.230L783.036 587.488M296.896 798.149L296.896 646.337L717.365 646.337L717.365 798.149M668.751 258.277C624.401 312.009 567.258 356.358 501.586 393.885C435.062 355.505 379.625 310.303 336.981 258.277M442.738 126.934C457.237 148.256 472.588 175.548 484.529 200.281L128.026 200.281L128.026 258.277L265.339 258.277C311.394 323.096 371.096 378.533 441.885 424.588C341.245 471.497 223.548 504.759 99.881 526.934C111.821 540.580 131.437 569.578 139.113 584.930C269.603 556.785 394.977 517.552 503.292 461.262C607.343 517.552 730.158 555.932 863.207 576.401C871.736 559.343 887.087 534.610 899.881 520.964C776.213 504.759 661.928 472.350 564.699 427.147C638.047 381.092 701.160 325.655 749.774 258.277L877.706 258.277L877.706 200.281L557.876 200.281C545.083 172.136 522.908 133.757 502.439 104.759"/></svg>