<svg xmlns="http://www.w3.org/2000/svg" viewBox="0 0 1000 1000" fill="currentColor"><path d="M260.369 539.697L260.369 592.576L450.561 592.576C396.829 656.542 308.983 717.096 221.989 753.770C233.077 764.004 250.134 786.179 258.663 799.825C302.160 780.209 344.804 755.475 384.889 727.330L384.889 890.230L446.296 890.230L446.296 862.938L772.096 862.938L772.096 889.377L836.062 889.377L836.062 667.629L457.384 667.629C482.970 643.748 505.998 618.162 524.761 592.576L886.382 592.576L886.382 539.697M698.748 256.542L698.748 310.273L587.021 310.273L587.021 357.181L679.132 357.181C645.017 399.825 594.697 441.616 548.642 462.938C559.729 472.320 575.081 489.377 582.757 501.318C621.989 479.143 664.633 441.616 698.748 400.678L698.748 523.493L751.627 523.493L751.627 399.825C784.889 438.205 826.680 475.731 863.354 497.906C871.883 485.113 888.087 467.203 900.028 457.821C856.531 436.499 804.505 396.414 769.537 357.181L882.117 357.181L882.117 310.273L751.627 310.273L751.627 256.542M393.418 256.542L393.418 310.273L268.045 310.273L268.045 358.034L374.655 358.034C340.539 400.678 290.220 441.616 245.017 462.938C256.104 472.320 271.456 489.377 279.132 501.318C317.512 479.143 360.156 442.469 393.418 401.531L393.418 524.345L445.443 524.345L445.443 403.237C473.588 425.412 506.851 453.557 521.350 468.055L554.612 426.264C538.407 415.177 480.412 375.945 452.267 358.034L551.200 358.034L551.200 310.273L445.443 310.273L445.443 256.542M446.296 815.177L446.296 716.243L772.096 716.243L772.096 815.177M494.058 120.934C501.733 138.844 509.409 161.019 515.380 180.635L170.817 180.635L170.817 445.881C170.817 568.695 164.846 736.712 100.028 856.968C114.527 863.791 141.819 881.701 152.053 892.789C221.136 765.710 231.371 576.371 231.371 445.881L231.371 237.778L883.823 237.778L883.823 180.635L586.168 180.635C579.345 158.461 568.258 130.316 558.023 108.141"/></svg>