<svg xmlns="http://www.w3.org/2000/svg" viewBox="0 0 1000 1000" fill="currentColor"><path d="M492.721 120.122C407.758 253.876 253.815 377.535 99.872 447.356C115.855 460.816 134.362 481.846 143.615 498.671C177.264 481.846 210.913 462.498 243.720 441.468L243.720 496.147L465.802 496.147L465.802 627.377L248.768 627.377L248.768 683.739L465.802 683.739L465.802 822.540L141.933 822.540L141.933 879.743L859.493 879.743L859.493 822.540L531.417 822.540L531.417 683.739L758.547 683.739L758.547 627.377L531.417 627.377L531.417 496.147L758.547 496.147L758.547 440.627C790.513 462.498 822.479 482.688 856.128 502.036C865.382 483.529 883.889 461.657 899.872 449.039C762.753 376.694 638.252 289.207 533.941 168.072L548.242 146.200M246.244 439.785C341.302 378.376 429.630 300.143 498.610 214.339C578.526 306.032 663.489 376.694 756.864 439.785"/></svg>