<svg xmlns="http://www.w3.org/2000/svg" viewBox="0 0 1000 1000" fill="currentColor"><path d="M628.140 313.312L573.946 337.398C639.323 432.882 754.591 531.806 852.656 582.559C863.839 565.355 884.484 541.269 899.968 528.366C801.903 485.355 687.495 397.613 628.140 313.312M360.613 316.753C307.280 408.796 205.774 484.495 99.968 529.226C114.591 541.269 137.817 569.656 147.280 583.419C179.108 567.075 210.935 549.011 241.903 527.505L241.903 583.419L395.022 583.419C373.516 700.409 322.763 795.032 133.516 844.065C147.280 856.108 163.624 881.054 170.505 897.398C375.237 838.043 437.172 727.075 462.978 583.419L669.430 583.419C659.968 739.118 648.785 800.194 632.441 817.398C624.699 825.140 615.237 826.860 599.753 826.860C584.269 826.860 539.538 826 493.946 822.559C505.129 838.903 512.871 865.570 513.731 883.634C559.323 886.215 604.914 887.075 629 885.355C654.806 882.774 671.151 876.753 687.495 858.688C712.441 831.161 724.484 753.742 735.667 552.452C736.527 543.849 737.387 524.065 737.387 524.065L247.065 524.065C318.462 474.172 383.839 411.376 425.129 338.258M122.333 173.957L122.333 232.452L317.602 232.452L317.602 295.247L381.258 295.247L381.258 232.452L612.656 232.452L612.656 295.247L677.172 295.247L677.172 232.452L879.323 232.452L879.323 173.957L677.172 173.957L677.172 103.419L612.656 103.419L612.656 173.957L381.258 173.957L381.258 103.419L317.602 103.419L317.602 173.957"/></svg>