<svg xmlns="http://www.w3.org/2000/svg" viewBox="0 0 1000 1000" fill="currentColor"><path d="M372.176 400.861L623.727 400.861L623.727 458.187L372.176 458.187M372.176 302.465L623.727 302.465L623.727 358.080L372.176 358.080M197.631 128.775L197.631 346.957C197.631 489.845 188.219 690.914 100.091 835.513C115.492 842.358 142.016 860.326 153.139 871.449C245.545 719.150 258.380 497.545 258.380 346.957L258.380 185.246L736.668 185.246C739.235 550.594 735.813 865.460 837.631 865.460C881.267 864.604 893.246 820.968 900.091 711.449C888.112 701.182 871.856 682.358 860.733 666.102C859.877 740.540 854.743 797.011 845.332 797.011C797.417 797.011 797.417 436.797 798.273 128.775M309.717 663.535L309.717 711.449L465.439 711.449L465.439 780.754L242.123 780.754L242.123 834.658L748.647 834.658L748.647 780.754L527.043 780.754L527.043 711.449L687.898 711.449L687.898 663.535L527.043 663.535L527.043 601.075L709.289 601.075L709.289 551.449L284.048 551.449L284.048 601.075L465.439 601.075L465.439 663.535M314.850 257.973L314.850 502.679L682.765 502.679L682.765 257.973L510.786 257.973L538.166 198.936L470.572 188.668C465.439 208.348 456.882 235.727 448.326 257.973"/></svg>