<svg xmlns="http://www.w3.org/2000/svg" viewBox="0 0 1000 1000" fill="currentColor"><path d="M118.842 164.059C141.476 224.995 161.497 305.082 165.850 357.312L218.081 344.255C211.987 292.024 191.095 212.807 166.720 151.872M394.794 148.390C381.737 208.455 356.492 294.635 336.470 346.866L379.996 360.794C403.499 311.175 430.485 229.347 452.248 164.059M112.749 391.262L112.749 452.198L236.361 452.198C205.893 548.825 151.051 663.732 99.691 724.668C111.008 741.208 126.677 769.064 133.641 788.215C174.555 732.503 217.210 641.970 249.419 552.307L249.419 898.770L311.225 898.770L311.225 546.213C343.434 594.962 382.607 655.898 398.276 687.236L441.802 634.135C421.780 608.020 339.952 504.429 311.225 472.220L311.225 452.198L441.802 452.198L441.802 391.262L311.225 391.262L311.225 100.511L249.419 100.511L249.419 391.262M554.098 419.119L759.539 419.119L759.539 585.386L554.098 585.386M554.098 359.924L554.098 194.527L759.539 194.527L759.539 359.924M554.098 645.452L759.539 645.452L759.539 816.942L554.098 816.942M491.421 133.591L491.421 816.942L397.406 816.942L397.406 877.878L899.691 877.878L899.691 816.942L825.697 816.942L825.697 133.591"/></svg>