<svg xmlns="http://www.w3.org/2000/svg" viewBox="0 0 1000 1000" fill="currentColor"><path d="M669.567 355.322C723.644 404.249 796.605 473.777 831.798 513.262L873.858 471.202C836.090 432.575 763.129 366.481 709.052 320.129M553.687 320.987C513.343 377.639 450.682 435.150 390.597 473.777C402.614 484.936 423.215 510.687 430.940 522.704C492.742 478.069 563.987 408.541 610.339 341.588M213.773 108.112L213.773 275.494L109.910 275.494L109.910 336.438L213.773 336.438L213.773 541.588C170.854 556.180 131.369 568.197 100.468 577.639L115.060 642.017L213.773 605.966L213.773 816.266C213.773 828.283 209.481 831.717 199.180 831.717C188.880 832.575 155.403 832.575 118.494 831.717C127.077 848.884 134.803 875.494 136.519 890.944C190.597 891.803 224.931 889.227 244.674 879.785C266.133 869.485 273.858 851.459 273.858 816.266L273.858 584.506L366.562 551.030L356.262 491.803L273.858 520.987L273.858 336.438L363.129 336.438L363.129 275.494L273.858 275.494L273.858 108.112M357.979 812.833L357.979 870.343L900.468 870.343L900.468 812.833L664.416 812.833L664.416 597.382L839.524 597.382L839.524 539.871L427.506 539.871L427.506 597.382L599.180 597.382L599.180 812.833M577.721 123.562C589.738 150.172 604.330 184.506 614.631 212.833L388.021 212.833L388.021 363.047L446.391 363.047L446.391 269.485L830.082 269.485L830.082 354.464L891.884 354.464L891.884 212.833L684.159 212.833C673.858 182.790 654.974 141.588 637.807 108.112"/></svg>