<svg xmlns="http://www.w3.org/2000/svg" viewBox="0 0 1000 1000" fill="currentColor"><path d="M219.775 554.647C215.432 631.086 206.746 706.656 182.425 760.510C192.848 764.853 210.220 774.408 217.169 779.620C241.491 724.897 252.783 642.378 259.732 559.859M121.621 323.594C150.286 364.419 176.344 419.142 185.899 454.756L238.885 433.040C229.330 397.427 200.666 343.572 172.870 303.616M360.492 562.465C376.127 624.137 389.156 704.919 391.762 751.824L427.376 740.532C426.507 695.364 411.740 617.188 394.368 554.647M448.223 300.141C434.325 340.966 407.397 400.901 385.682 439.121L431.719 456.493C454.303 420.879 483.836 367.025 508.157 319.251M599.363 100.358L599.363 156.819L372.653 156.819L372.653 100.358L308.375 100.358L308.375 156.819L102.511 156.819L102.511 214.148L308.375 214.148L308.375 276.688L372.653 276.688L372.653 214.148L599.363 214.148L599.363 278.426L663.641 278.426L663.641 214.148L872.978 214.148L872.978 156.819L663.641 156.819L663.641 100.358M614.998 282.769C591.545 380.054 555.063 476.471 505.552 545.092L505.552 458.230L340.514 458.230L340.514 281.031L280.579 281.031L280.579 458.230L125.096 458.230L125.096 899.490L177.213 899.490L177.213 509.479L287.528 509.479L287.528 888.198L333.565 888.198L333.565 509.479L451.697 509.479L451.697 835.212C451.697 843.029 449.091 845.635 440.405 845.635C432.587 846.504 406.529 846.504 378.733 845.635C385.682 859.533 392.631 882.117 394.368 896.884C436.931 896.884 464.726 896.015 482.099 888.198C494.260 881.249 501.208 872.562 503.814 857.796C515.975 870.825 532.479 889.935 538.559 900.358C601.969 863.876 654.086 818.708 698.385 763.985C740.948 821.314 792.197 868.219 853 900.358C863.423 883.855 882.533 860.402 897.300 848.241C833.022 818.708 778.299 771.802 734.868 711.868C781.773 638.903 814.781 551.173 838.233 447.807L876.453 447.807L876.453 391.346L646.268 391.346C657.560 360.076 667.115 327.937 674.933 295.798M505.552 585.917C516.844 595.472 528.136 605.896 534.216 611.976C552.457 588.523 569.830 561.596 585.465 532.063C606.312 596.341 631.502 656.276 662.772 709.262C620.210 764.853 568.961 810.890 505.552 844.767L505.552 835.212M625.421 447.807L774.824 447.807C757.452 526.851 732.262 595.472 697.517 655.407C664.509 597.210 638.451 530.326 620.210 459.099"/></svg>