<svg xmlns="http://www.w3.org/2000/svg" viewBox="0 0 1000 1000" fill="currentColor"><path d="M205.213 396.468L392.447 396.468L392.447 514.766L205.213 514.766M585.638 396.468L790.745 396.468L790.745 516.468L585.638 516.468M337.128 840.723C349.894 826.255 371.170 811.787 507.340 737.745C503.085 725.830 496.277 702.851 492.872 687.532L395 736.894L395 567.532L453.723 567.532L453.723 343.702L332.872 343.702L332.872 250.936L471.596 250.936L471.596 194.766L332.872 194.766L332.872 107.106L268.191 107.106L268.191 194.766L120.106 194.766L120.106 250.936L268.191 250.936L268.191 343.702L145.638 343.702L145.638 567.532L206.064 567.532C200.957 702.851 184.787 792.213 99.681 844.128C113.298 855.191 132.021 877.319 139.681 892.638C237.553 829.660 257.979 723.277 264.787 567.532L338.830 567.532L338.830 727.532C338.830 764.128 321.809 784.553 309.043 792.213C318.404 803.277 332.021 827.106 337.128 840.723M525.213 342.851L525.213 569.234L583.936 569.234C579.681 718.170 560.957 795.617 453.723 843.277C466.489 854.340 485.213 878.170 491.170 892.638C612.872 836.468 636.702 740.298 641.809 569.234L709.894 569.234L709.894 799.021C709.894 840.723 713.298 853.489 726.064 865.404C738.830 876.468 759.255 879.872 776.277 879.872C786.489 879.872 810.319 879.872 821.383 879.872C837.553 879.872 855.426 876.468 865.638 869.660C878.404 862 886.915 850.936 891.170 833.064C896.277 815.191 898.830 766.681 899.681 721.574C884.362 716.468 862.234 704.553 850.319 694.340C851.170 738.596 849.468 777.745 847.766 793.915C846.064 804.128 842.660 811.787 837.553 815.191C833.298 818.596 824.787 819.447 816.277 819.447C808.617 819.447 797.553 819.447 790.745 819.447C783.936 819.447 777.128 817.745 772.872 815.191C769.468 812.638 767.766 807.532 767.766 801.574L767.766 569.234L853.723 569.234L853.723 342.851L718.404 342.851L718.404 250.936L877.553 250.936L877.553 194.766L718.404 194.766L718.404 107.106L652.021 107.106L652.021 194.766L507.340 194.766L507.340 250.936L652.021 250.936L652.021 342.851"/></svg>