<svg xmlns="http://www.w3.org/2000/svg" viewBox="0 0 1000 1000" fill="currentColor"><path d="M467.839 437.183L549.559 437.183L549.559 503.419L467.839 503.419M599.452 437.183L682.032 437.183L682.032 503.419L599.452 503.419M731.065 437.183L817.946 437.183L817.946 503.419L731.065 503.419M467.839 327.935L549.559 327.935L549.559 392.452L467.839 392.452M599.452 327.935L682.032 327.935L682.032 392.452L599.452 392.452M731.065 327.935L817.946 327.935L817.946 392.452L731.065 392.452M681.172 103.419L681.172 174.817L600.312 174.817L600.312 103.419L543.538 103.419L543.538 174.817L383.538 174.817L383.538 227.290L543.538 227.290L543.538 281.484L413.645 281.484L413.645 550.731L873.860 550.731L873.860 281.484L737.946 281.484L737.946 227.290L899.667 227.290L899.667 174.817L737.946 174.817L737.946 103.419M600.312 281.484L600.312 227.290L681.172 227.290L681.172 281.484M509.129 752.022L776.656 752.022L776.656 818.258L509.129 818.258M509.129 704.710L509.129 641.054L776.656 641.054L776.656 704.710M448.054 590.301L448.054 897.398L509.129 897.398L509.129 868.151L776.656 868.151L776.656 893.957L839.452 893.957L839.452 590.301M233 103.419L233 290.086L117.731 290.086L117.731 350.301L226.978 350.301C202.892 467.290 151.280 603.204 99.667 675.462C109.989 690.086 125.473 715.032 132.355 731.376C170.204 676.323 205.473 587.720 233 495.677L233 893.957L291.495 893.957L291.495 489.656C316.441 532.667 345.688 586 356.871 613.527L392.140 566.215C377.516 542.989 313.860 445.785 291.495 416.538L291.495 350.301L386.978 350.301L386.978 290.086L291.495 290.086L291.495 103.419"/></svg>