<svg xmlns="http://www.w3.org/2000/svg" viewBox="0 0 1000 1000" fill="currentColor"><path d="M495.690 247.379C509.483 277.552 523.276 317.207 528.448 343.069L586.207 326.690C580.172 300.828 564.655 262.034 549.138 233.586M601.724 116.345C611.207 135.310 620.690 158.586 626.724 179.276L405.172 179.276L405.172 233.586L748.276 233.586C738.793 266.345 722.414 310.310 707.759 343.069L419.828 343.069L419.828 899.966L477.586 899.966L477.586 397.379L622.414 397.379L622.414 473.241L509.483 473.241L509.483 520.655L622.414 520.655L622.414 592.207L537.931 592.207L537.931 806L584.483 806L584.483 770.655L761.207 770.655L761.207 592.207L673.276 592.207L673.276 520.655L787.069 520.655L787.069 473.241L673.276 473.241L673.276 397.379L818.103 397.379L818.103 826.690C818.103 837.897 814.655 840.483 804.310 841.345C793.966 841.345 759.483 842.207 722.414 841.345C730.172 856 738.793 881.862 741.379 897.379C793.966 897.379 827.586 896.517 850 887.034C871.552 876.690 877.586 859.448 877.586 828.414L877.586 343.069L766.379 343.069C780.172 312.897 794.828 276.690 808.621 243.069L772.414 233.586L893.103 233.586L893.103 179.276L690.517 179.276C683.621 154.276 671.552 124.103 656.897 99.966M584.483 637.897L713.793 637.897L713.793 724.966L584.483 724.966M318.103 344.793C309.483 455.138 292.241 548.241 265.517 625.828C238.793 601.690 211.207 578.414 183.621 557.724C199.138 495.655 215.517 420.655 230.172 344.793M118.103 579.276C158.621 610.310 201.724 647.379 241.379 685.310C206.897 761.172 162.069 815.483 106.897 849.966C120.690 861.172 137.069 883.586 146.552 898.241C203.448 858.586 250 804.276 286.207 730.138C317.241 762.034 343.103 792.207 360.345 818.931L400 766.345C379.310 737.897 348.276 703.414 312.931 668.931C348.276 571.517 369.828 447.379 377.586 289.621L342.241 282.724L332.759 284.448L240.517 284.448C250.862 224.103 259.483 164.621 265.517 111.172L209.483 107.724C204.310 162.034 195.690 223.241 184.483 284.448L109.483 284.448L109.483 344.793L173.276 344.793C156.897 433.586 136.207 518.069 118.103 579.276"/></svg>