<svg xmlns="http://www.w3.org/2000/svg" viewBox="0 0 1000 1000" fill="currentColor"><path d="M432.480 122.803C458.259 164.909 485.756 222.481 496.068 257.712L567.389 234.511C555.359 199.280 525.284 143.426 499.505 102.180M111.965 259.431L111.965 323.018L246.014 323.018C296.712 453.631 364.596 566.198 453.103 658.142C358.581 737.197 242.577 795.628 99.934 836.015C112.824 851.482 133.447 881.557 140.321 897.025C283.823 850.623 403.264 788.754 500.364 704.544C597.464 790.473 714.328 854.060 855.251 892.728C866.422 874.683 885.327 847.186 899.934 833.437C762.448 799.066 645.584 738.056 550.203 657.282C636.991 568.776 703.157 458.786 752.996 323.018L888.764 323.018L888.764 259.431M502.083 612.599C421.309 530.967 357.722 433.008 313.039 323.018L679.956 323.018C636.991 439.023 577.700 534.404 502.083 612.599"/></svg>