<svg xmlns="http://www.w3.org/2000/svg" viewBox="0 0 1000 1000" fill="currentColor"><path d="M308.468 384.107L308.468 433.893L787.438 433.893L787.438 246.768L382.288 246.768C405.464 224.451 427.781 201.275 446.665 177.240L851.815 177.240L851.815 124.880L168.554 124.880L168.554 177.240L369.412 177.240C305.893 245.910 214.906 304.279 123.918 342.906C137.652 354.064 159.970 378.957 168.554 391.833C215.764 368.657 262.974 340.330 308.468 306.854M126.494 481.103L126.494 538.614L250.099 538.614C214.906 619.300 160.828 690.545 99.884 739.472C111.043 749.773 129.927 775.524 137.652 786.682C162.545 765.223 186.579 740.330 208.897 712.004L208.897 869.944L266.408 869.944L266.408 839.043L402.030 839.043L402.030 863.077L460.399 863.077L460.399 620.159L270.700 620.159C286.150 594.408 299.026 566.940 311.043 538.614L487.867 538.614L487.867 481.103M373.704 295.695L720.485 295.695L720.485 384.107L373.704 384.107M402.030 672.519L402.030 786.682L266.408 786.682L266.408 672.519M514.476 483.678L514.476 540.330L618.339 540.330C584.004 623.592 530.785 694.837 468.124 742.906C480.142 754.064 500.742 778.099 508.468 788.399C535.077 766.940 559.970 741.189 583.146 712.004L583.146 872.519L641.515 872.519L641.515 842.476L797.738 842.476L797.738 874.236L856.966 874.236L856.966 622.734L641.515 622.734C656.107 596.983 668.124 568.657 679.283 540.330L899.884 540.330L899.884 483.678M797.738 674.236L797.738 789.258L641.515 789.258L641.515 674.236"/></svg>