<svg xmlns="http://www.w3.org/2000/svg" viewBox="0 0 1000 1000" fill="currentColor"><path d="M147.396 275.722L147.396 340.447L314.818 340.447L314.818 436.239C314.818 473.348 313.955 508.731 310.503 544.114L119.780 544.114L119.780 609.702L300.147 609.702C280.298 702.043 233.696 784.891 129.273 852.205C146.533 862.561 172.423 884.999 184.505 899.670C302.736 821.137 351.064 721.029 370.050 609.702L622.045 609.702L622.045 891.040L689.359 891.040L689.359 609.702L880.945 609.702L880.945 544.114L689.359 544.114L689.359 340.447L860.233 340.447L860.233 275.722L689.359 275.722L689.359 99.670L622.045 99.670L622.045 275.722L382.132 275.722L382.132 100.533L314.818 100.533L314.818 275.722M378.680 544.114C381.269 508.731 382.132 472.485 382.132 436.239L382.132 340.447L622.045 340.447L622.045 544.114"/></svg>