<svg xmlns="http://www.w3.org/2000/svg" viewBox="0 0 1000 1000" fill="currentColor"><path d="M507.910 118.730L507.910 480.961C507.910 598.558 501.901 743.622 424.648 843.193C439.240 850.060 466.708 868.944 477.867 880.961C561.129 775.382 572.288 607.142 572.288 480.961L572.288 180.532L714.777 180.532L714.777 743.622C714.777 815.725 719.069 832.034 733.661 844.910C746.536 856.069 765.421 861.219 781.730 861.219C792.030 861.219 812.631 861.219 824.648 861.219C841.815 861.219 858.124 857.785 869.283 849.202C881.300 840.618 889.026 826.026 893.318 802.850C896.751 781.391 899.326 723.021 900.185 677.528C883.017 671.519 862.416 660.361 848.682 648.343C848.682 703.279 846.966 746.197 845.249 764.223C843.532 783.107 841.815 791.691 837.524 795.124C834.090 799.416 827.223 801.133 820.356 801.133C813.489 801.133 803.189 801.133 798.039 801.133C792.030 801.133 787.738 799.416 784.305 795.983C780.013 792.549 779.155 776.240 779.155 749.631L779.155 118.730M163.704 118.730L163.704 426.884C163.704 553.923 158.554 726.455 100.185 847.485C115.635 852.635 142.245 868.086 154.262 878.386C192.888 796.841 210.056 687.828 217.781 585.682L351.687 585.682L351.687 792.549C351.687 803.708 347.395 808 335.378 808C325.936 808 290.742 808.858 251.258 807.142C259.841 824.309 268.425 851.777 271 868.944C326.794 868.944 361.129 868.086 383.446 856.927C404.906 845.768 412.631 826.884 412.631 792.549L412.631 118.730M222.931 178.815L351.687 178.815L351.687 319.588L222.931 319.588M222.931 379.674L351.687 379.674L351.687 524.738L221.215 524.738C222.073 490.403 222.931 456.927 222.931 426.884"/></svg>