<svg xmlns="http://www.w3.org/2000/svg" viewBox="0 0 1000 1000" fill="currentColor"><path d="M247.319 508.085L247.319 824.681L139.234 824.681L139.234 883.404L865.191 883.404L865.191 824.681L538.383 824.681L538.383 611.915L785.191 611.915L785.191 553.191L538.383 553.191L538.383 357.447L471.149 357.447L471.149 824.681L310.298 824.681L310.298 508.085M495.830 117.447C412.426 247.660 257.532 364.255 100.085 428.085C116.255 442.553 134.979 465.532 144.340 481.702C277.957 421.277 405.617 327.660 499.234 217.021C609.872 345.532 728.170 419.574 857.532 481.702C866.043 462.979 883.915 440.851 900.085 428.085C766.468 370.213 640.511 297.021 534.128 171.915L552.851 144.681"/></svg>