<svg xmlns="http://www.w3.org/2000/svg" viewBox="0 0 1000 1000" fill="currentColor"><path d="M681.581 158.396C731.057 200.325 789.757 259.025 817.430 296.761L866.067 263.218C837.556 225.482 777.178 168.459 726.864 128.208M541.539 122.338C544.893 211.226 550.763 295.084 558.310 372.233L353.698 398.229L362.922 457.767L565.019 432.610C596.885 695.922 663.971 871.184 803.174 881.247C847.618 883.763 881.161 840.157 899.610 695.084C887.031 689.214 859.358 674.119 846.780 661.541C838.394 758.816 824.977 808.291 800.658 807.453C710.931 798.229 655.585 647.285 627.073 424.224L882.839 392.358L873.614 332.820L620.365 364.686C611.979 290.052 606.948 207.872 604.432 122.338M344.474 118.983C289.128 252.317 196.046 380.618 99.610 462.799C110.512 477.055 129.799 508.920 136.507 523.176C175.082 488.795 212.818 446.866 248.876 400.744L248.876 880.409L313.447 880.409L313.447 308.501C347.828 254.832 378.855 196.971 404.013 138.270"/></svg>