<svg xmlns="http://www.w3.org/2000/svg" viewBox="0 0 1000 1000" fill="currentColor"><path d="M876.278 110.334L99.725 110.334L99.725 889.701L899.725 889.701L899.725 824.050L170.064 824.050L170.064 175.047L876.278 175.047M576.161 210.686L576.161 789.349L641.811 789.349L641.811 666.489L860.334 666.489L860.334 609.279L641.811 609.279L641.811 508.927L814.379 508.927L814.379 450.780L641.811 450.780L641.811 359.807L845.328 359.807L845.328 302.597L641.811 302.597L641.811 210.686M209.455 611.155L209.455 668.365L413.910 668.365L413.910 788.411L479.560 788.411L479.560 210.686L413.910 210.686L413.910 302.597L228.212 302.597L228.212 359.807L413.910 359.807L413.910 450.780L246.970 450.780L246.970 508.927L413.910 508.927L413.910 611.155"/></svg>