<svg xmlns="http://www.w3.org/2000/svg" viewBox="0 0 1000 1000" fill="currentColor"><path d="M315.742 641.237L315.742 698.011L471.441 698.011L471.441 793.495C471.441 807.258 467.140 811.559 451.656 812.419C435.312 813.280 382.839 813.280 324.344 810.699C334.667 828.763 344.129 856.290 348.430 874.355C422.409 874.355 470.581 872.634 498.108 862.312C527.355 851.989 536.817 833.925 536.817 793.495L536.817 698.011L688.215 698.011L688.215 641.237L536.817 641.237L536.817 561.237L649.505 561.237L649.505 505.323L536.817 505.323L536.817 427.903L634.882 427.903L634.882 372.849L536.817 372.849L536.817 322.957C622.839 281.667 711.441 218.871 771.656 157.796L726.925 125.968L712.301 128.548L240.903 128.548L240.903 187.903L646.925 187.903C597.892 228.333 531.656 268.763 471.441 293.710L471.441 372.849L370.796 372.849L370.796 427.903L471.441 427.903L471.441 505.323L355.312 505.323L355.312 561.237L471.441 561.237L471.441 641.237M127.355 314.355L127.355 373.710L289.075 373.710C257.247 544.892 188.430 682.527 99.828 759.086C115.312 768.548 139.398 791.774 149.720 806.398C248.645 715.215 328.645 546.613 361.333 326.398L321.763 311.774L309.720 314.355M700.258 287.688L643.484 297.151C676.172 512.204 736.387 697.151 852.516 796.075C862.839 778.871 884.344 754.785 899.828 741.882C831.011 689.409 781.118 600.806 746.710 493.280C790.581 452.849 842.194 397.796 882.624 348.763L831.011 307.473C806.065 345.323 765.634 393.495 729.505 433.065C717.462 386.613 708 337.581 700.258 287.688"/></svg>