<svg xmlns="http://www.w3.org/2000/svg" viewBox="0 0 1000 1000" fill="currentColor"><path d="M466.658 109.473L466.658 317.541L132.900 317.541L132.900 381.236L436.934 381.236C360.501 529.006 230.565 674.229 99.779 745.567C115.066 758.306 136.297 782.934 147.338 799.070C267.932 726.034 385.130 595.248 466.658 450.025L466.658 889.941L533.749 889.941L533.749 449.176C616.977 590.153 734.174 723.486 851.372 797.372C862.412 779.537 884.493 754.909 899.779 742.170C771.541 670.832 639.057 525.609 561.775 381.236L870.055 381.236L870.055 317.541L533.749 317.541L533.749 109.473"/></svg>