<svg xmlns="http://www.w3.org/2000/svg" viewBox="0 0 1000 1000" fill="currentColor"><path d="M302.882 266.412L302.882 467.824C302.882 560.059 293.471 680.529 214.412 767.118C232.294 774.647 261.471 796.294 273.706 808.529C349 723.824 367.824 601.471 370.647 501.706L608.765 501.706L608.765 804.765L678.412 804.765L678.412 501.706L860.059 501.706L860.059 438.647L371.588 438.647L371.588 323.824C516.529 319.118 678.412 305 789.471 280.529L746.176 223.118C641.706 246.647 455.353 260.765 302.882 266.412M99.588 828.294L99.588 896.059L899.588 896.059L899.588 828.294L173 828.294L173 171.353L884.529 171.353L884.529 103.588L99.588 103.588"/></svg>