<svg xmlns="http://www.w3.org/2000/svg" viewBox="0 0 1000 1000" fill="currentColor"><path d="M356.669 116.486L356.669 411.735L100.315 453.282L111.807 519.580L356.669 480.685L356.669 748.530C356.669 855.492 389.376 883.779 499.873 883.779C524.624 883.779 705.840 883.779 731.475 883.779C840.204 883.779 862.304 832.508 873.796 686.652C854.348 681.348 824.293 668.088 805.729 654.829C797.773 786.541 788.934 817.481 729.707 817.481C690.812 817.481 533.464 817.481 502.525 817.481C438.878 817.481 427.387 805.105 427.387 750.298L427.387 469.193L900.315 394.055L889.707 325.989L427.387 400.243L427.387 116.486"/></svg>