<svg xmlns="http://www.w3.org/2000/svg" viewBox="0 0 1000 1000" fill="currentColor"><path d="M429.191 595.617C413.872 707.106 378.128 799.021 310.894 856.894C325.362 865.404 350.043 883.277 360.255 893.489C397.702 857.745 427.489 810.936 449.617 755.617C509.191 856.043 598.553 882.426 730.468 882.426L880.255 882.426C881.957 867.106 891.319 839.872 899.830 826.255C870.043 827.106 753.447 827.106 733.021 827.106C704.936 827.106 678.553 825.404 653.872 822L653.872 707.957L847.064 707.957L847.064 656.043L653.872 656.043L653.872 581.149L839.404 581.149L839.404 460.298L899.830 460.298L899.830 407.532L839.404 407.532L839.404 292.638L653.872 292.638L653.872 235.617L879.404 235.617L879.404 182.851L653.872 182.851L653.872 107.106L593.447 107.106L593.447 182.851L382.383 182.851L382.383 235.617L593.447 235.617L593.447 292.638L419.830 292.638L419.830 343.702L593.447 343.702L593.447 407.532L370.468 407.532L370.468 460.298L593.447 460.298L593.447 530.936L419.830 530.936L419.830 581.149L593.447 581.149L593.447 808.383C539.830 788.809 498.979 752.213 471.745 687.532C478.553 661.149 484.511 633.064 488.766 603.277M779.830 460.298L779.830 530.936L653.872 530.936L653.872 460.298M779.830 407.532L653.872 407.532L653.872 343.702L779.830 343.702M218.128 107.957L218.128 279.021L111.745 279.021L111.745 338.596L218.128 338.596L218.128 513.064L99.830 548.809L116 610.085L218.128 576.894L218.128 816.043C218.128 827.957 213.872 831.362 203.660 831.362C193.447 832.213 160.255 832.213 123.660 830.511C131.319 848.383 139.830 874.766 141.532 890.085C196 890.936 228.340 888.383 248.766 878.170C270.043 868.809 277.702 850.936 277.702 816.043L277.702 557.319L371.319 526.681L361.957 467.957L277.702 494.340L277.702 338.596L369.617 338.596L369.617 279.021L277.702 279.021L277.702 107.957"/></svg>