<svg xmlns="http://www.w3.org/2000/svg" viewBox="0 0 1000 1000" fill="currentColor"><path d="M848.785 99.834C753.315 130.773 578.287 153.757 432.431 166.133C439.503 180.276 447.459 202.376 449.227 217.403C598.619 207.680 778.066 185.580 892.099 151.105M608.343 243.039C628.674 288.122 649.006 348.232 656.961 384.475L713.536 367.680C706.464 331.436 683.481 273.094 663.149 228.895M453.646 270.442C476.630 314.641 503.149 372.983 514.641 409.227L570.331 388.011C557.956 352.652 531.436 295.193 506.685 252.762M836.409 209.448C818.729 264.254 785.138 342.044 758.619 390.663L809.890 412.762C838.177 366.796 870.884 295.193 897.403 233.315M196.409 184.696L339.613 184.696L339.613 339.392L196.409 339.392M679.061 445.470L679.061 504.696L821.381 504.696L821.381 619.613L687.901 619.613L687.901 678.840L821.381 678.840L821.381 804.365L521.713 804.365L521.713 677.956L649.006 677.956L649.006 619.613L521.713 619.613L521.713 509.116C565.912 490.552 612.762 468.453 652.541 446.354L602.155 400.387C567.680 426.906 510.221 457.845 458.066 480.829L458.066 899.834L521.713 899.834L521.713 863.591L821.381 863.591L821.381 894.530L884.144 894.530L884.144 445.470M102.707 792.873L120.387 855.635C201.713 830 311.326 797.293 414.751 764.586L405.028 707.127L304.254 736.298L304.254 578.066L403.260 578.066L403.260 519.724L304.254 519.724L304.254 396.851L397.072 396.851L397.072 126.354L141.602 126.354L141.602 396.851L246.796 396.851L246.796 753.094L194.641 768.122L194.641 479.945L139.834 479.945L139.834 783.149"/></svg>