<svg xmlns="http://www.w3.org/2000/svg" viewBox="0 0 1000 1000" fill="currentColor"><path d="M406.782 435.337C461.207 460.390 525.999 500.993 559.691 532.957L301.387 532.957L319.529 396.462L716.920 396.462L711.736 532.957L564.875 532.957L601.158 494.946C567.466 462.982 499.219 423.242 443.930 399.053M106.147 531.229L106.147 589.974L228.820 589.974C217.590 663.405 206.359 733.380 195.128 786.078L230.548 786.078L691.003 786.941C685.820 813.722 680.636 829.272 673.725 837.047C665.950 847.414 658.175 850.006 642.625 850.006C625.347 850.006 585.608 849.142 542.413 845.686C551.052 860.372 557.100 882.834 557.963 897.520C600.294 900.111 644.353 900.975 669.406 899.248C696.186 896.656 714.328 889.745 730.742 867.284C741.109 854.325 748.884 830.136 755.795 786.941L867.237 786.941L867.237 729.061L762.706 729.061C767.026 691.913 769.617 646.127 773.073 589.974L897.473 589.974L897.473 531.229L775.665 531.229L781.712 370.545C781.712 361.906 782.576 338.581 782.576 338.581L261.648 338.581C255.601 396.462 246.962 463.845 237.459 531.229M698.778 729.061L556.236 729.061L586.472 696.233C551.052 661.677 481.941 617.618 422.332 589.110L709.145 589.110C706.553 646.991 703.098 693.641 698.778 729.061M384.321 625.393C439.610 652.174 503.538 694.505 539.822 729.061L272.015 729.061L293.612 589.110L419.741 589.110M303.115 100.146C257.329 209.861 183.034 321.303 102.692 390.415C119.106 399.917 147.614 418.923 160.573 429.290C207.223 382.639 255.601 319.575 297.932 251.328L868.101 251.328L868.101 192.583L331.623 192.583C344.582 168.394 356.676 144.205 367.907 119.152"/></svg>