<svg xmlns="http://www.w3.org/2000/svg" viewBox="0 0 1000 1000" fill="currentColor"><path d="M632.050 723.414C705.420 764.961 798.238 826.840 842.436 867.503L893.707 827.724C845.088 787.061 752.271 728.718 679.785 689.823M215.696 495.348L215.696 548.387L792.050 548.387L792.050 495.348M300.558 687.171C253.707 742.862 175.033 796.785 99.895 830.376C114.923 840.983 140.558 863.083 151.166 874.575C224.536 835.680 309.398 772.917 362.436 708.387M108.735 609.381L108.735 665.072L470.282 665.072L470.282 816.232C470.282 826.840 467.630 830.376 454.370 830.376C441.110 831.260 399.564 831.260 350.061 829.492C358.901 847.171 368.624 871.923 371.276 889.602C435.807 889.602 476.470 888.718 502.989 878.994C530.392 869.271 537.464 852.475 537.464 818L537.464 665.072L899.895 665.072L899.895 609.381M171.497 233.691L171.497 437.890L839.785 437.890L839.785 233.691L632.050 233.691L632.050 165.624L882.215 165.624L882.215 110.818L118.459 110.818L118.459 165.624L367.740 165.624L367.740 233.691M428.735 165.624L569.287 165.624L569.287 233.691L428.735 233.691M233.376 284.077L367.740 284.077L367.740 386.619L233.376 386.619M428.735 284.077L569.287 284.077L569.287 386.619L428.735 386.619M632.050 284.077L774.370 284.077L774.370 386.619L632.050 386.619"/></svg>