<svg xmlns="http://www.w3.org/2000/svg" viewBox="0 0 1000 1000" fill="currentColor"><path d="M423.392 116.569C437.320 142.684 452.119 174.893 464.306 201.879L143.958 201.879L143.958 378.593L209.246 378.593L209.246 263.686L784.654 263.686L784.654 378.593L853.424 378.593L853.424 201.879L540.911 201.879C527.853 173.152 506.961 131.368 490.421 100.029M634.055 503.947C607.070 574.458 568.767 631.041 519.148 678.049C456.471 652.804 392.924 630.171 332.859 610.149C354.621 578.811 378.125 542.249 401.629 503.947M323.283 503.947C291.945 554.436 258.865 601.444 231.009 638.876C303.261 663.250 382.478 691.977 459.953 724.186C375.514 780.769 266.700 817.331 134.382 840.835C148.310 854.763 168.332 884.360 176.166 900.029C318.060 869.561 436.449 824.295 529.594 753.783C639.279 801.662 740.258 853.022 804.676 896.547L858.647 839.964C791.618 797.309 692.380 749.431 584.436 704.164C637.538 651.063 678.452 584.904 708.919 503.947L876.928 503.947L876.928 442.140L437.320 442.140C460.824 398.615 482.587 355.089 499.997 314.175L429.485 300.247C412.075 344.643 386.830 393.392 359.844 442.140L123.065 442.140L123.065 503.947"/></svg>