<svg xmlns="http://www.w3.org/2000/svg" viewBox="0 0 1000 1000" fill="currentColor"><path d="M731.249 736.677C770.550 779.472 816.838 840.607 838.672 878.162L885.834 846.721C864 810.039 815.965 752.397 775.790 709.603M316.402 634.493C328.629 663.314 340.856 696.502 350.463 729.690L288.454 741.917L288.454 574.231L391.511 574.231L391.511 256.328L288.454 256.328L288.454 100.869L233.432 100.869L233.432 256.328L127.755 256.328L127.755 616.153L177.537 616.153L177.537 574.231L233.432 574.231L233.432 753.271L99.808 777.725L111.162 840.607L365.310 786.459C369.677 804.799 372.297 820.520 374.044 835.367L422.079 819.646C413.345 765.498 389.764 684.275 361.817 620.520M177.537 311.349L239.546 311.349L239.546 519.210L177.537 519.210M282.341 311.349L340.856 311.349L340.856 519.210L282.341 519.210M503.301 713.969C482.341 748.904 452.646 787.332 422.079 819.646L393.258 848.467C407.231 856.328 430.812 872.921 442.166 881.655C480.594 843.227 526.882 782.965 559.197 731.437M492.821 299.996L615.965 299.996L615.965 370.738L492.821 370.738M673.607 299.996L797.624 299.996L797.624 370.738L673.607 370.738M492.821 182.965L615.965 182.965L615.965 252.834L492.821 252.834M673.607 182.965L797.624 182.965L797.624 252.834L673.607 252.834M431.686 703.489C448.279 697.376 473.607 693.009 626.445 680.782L626.445 832.747C626.445 842.354 623.825 844.100 612.472 844.974C601.991 845.847 567.057 845.847 527.755 844.100C535.616 859.821 543.476 882.528 546.096 898.249C601.118 898.249 636.052 899.122 658.760 890.389C682.341 880.782 687.581 865.061 687.581 834.493L687.581 676.415L819.459 665.934C833.432 686.022 844.786 705.236 853.520 720.083L899.808 691.262C877.100 650.214 828.192 586.459 786.271 539.297L741.729 564.624C755.703 581.218 770.550 599.559 785.397 618.773L550.463 634.493C629.939 589.952 711.162 534.057 788.017 470.301L736.489 437.987C713.782 458.948 689.328 479.035 664.873 498.249L547.843 501.742C579.284 478.162 611.598 450.214 640.419 420.520L857.886 420.520L857.886 134.057L435.179 134.057L435.179 420.520L563.563 420.520C532.996 452.834 499.808 479.035 486.707 486.895C470.987 498.249 457.013 505.236 443.913 506.983C450.026 521.830 459.633 550.651 462.253 562.878C474.480 558.511 493.694 555.017 593.258 549.777C549.590 580.345 512.035 603.052 494.568 612.659C460.507 631.873 435.179 644.100 414.218 647.594C420.332 663.314 429.066 692.135 431.686 703.489"/></svg>