<svg xmlns="http://www.w3.org/2000/svg" viewBox="0 0 1000 1000" fill="currentColor"><path d="M197.894 124.301L197.894 344.279C197.894 489.499 189.301 693.151 99.934 838.372C115.402 845.246 143.758 864.150 154.929 875.321C248.592 722.367 262.340 497.233 262.340 345.139L262.340 184.451L729.795 184.451C732.373 549.650 731.513 864.150 836.347 864.150C881.030 863.291 893.919 819.467 899.934 709.478C887.904 699.166 871.578 678.544 860.407 662.217C859.548 736.975 853.533 793.689 843.221 793.689C793.382 793.689 791.664 436.223 793.382 124.301M326.787 466.299C374.908 504.107 426.465 548.791 473.726 595.192C415.294 669.951 343.973 725.805 269.215 759.317C282.104 770.488 299.290 794.548 307.024 810.015C384.360 772.206 457.400 714.634 518.409 639.016C566.530 688.855 608.635 737.835 635.273 778.221L682.534 730.960C653.318 688.855 607.776 639.016 555.359 588.318C606.916 510.122 647.303 416.460 670.504 306.470L630.117 292.722L619.806 294.440L323.350 294.440L323.350 353.731L596.605 353.731C575.982 424.193 546.766 488.640 509.816 545.353C463.415 503.248 414.435 462.002 368.033 426.771"/></svg>