<svg xmlns="http://www.w3.org/2000/svg" viewBox="0 0 1000 1000" fill="currentColor"><path d="M233.826 585.049L233.826 900.358L300.710 900.358L300.710 859.533L716.780 859.533L716.780 897.752L785.401 897.752L785.401 585.049M300.710 802.204L300.710 643.246L716.780 643.246L716.780 802.204M285.075 243.681L444.033 243.681C422.317 300.141 390.178 348.784 350.221 389.609C317.214 360.076 289.418 320.119 267.702 268.002M291.155 100.358C254.673 192.432 189.527 279.294 118.300 334.886C132.198 345.309 156.519 368.762 166.942 380.054C188.658 361.813 210.374 340.098 230.352 315.776C252.067 361.813 278.126 399.164 307.659 428.697C249.461 476.471 179.972 510.347 107.008 530.326C120.037 544.224 135.672 569.414 142.621 585.917C221.666 559.859 295.498 522.508 358.039 468.654C442.295 523.377 549.136 537.275 674.217 537.275L869.657 537.275C873.131 519.902 884.423 491.238 893.110 476.471C853.153 477.340 707.225 477.340 677.692 477.340C572.588 477.340 477.909 467.785 402.339 426.091C457.931 367.025 500.493 292.324 526.552 199.381L484.858 182.877L472.697 186.352L319.820 186.352C331.980 163.768 343.273 141.183 352.827 117.731M604.727 102.964L604.727 453.018L669.005 453.018L669.005 249.761C726.334 291.455 792.350 345.309 826.226 380.923L869.657 334.886C829.700 295.798 750.656 236.732 688.984 195.907L669.005 215.885L669.005 102.964"/></svg>