<svg xmlns="http://www.w3.org/2000/svg" viewBox="0 0 1000 1000" fill="currentColor"><path d="M492.468 330.532L588.638 330.532L588.638 408.830L492.468 408.830M726.511 330.532L826.936 330.532L826.936 408.830L726.511 408.830M635.447 473.511C649.064 487.128 663.532 505 675.447 522.021L546.085 522.021C556.298 504.149 566.511 485.426 575.021 466.702L531.617 453.936L638 453.936L638 286.277L445.660 286.277L445.660 453.936L522.255 453.936C494.170 514.362 450.766 572.234 403.106 616.489L403.106 540.745L356.298 540.745L356.298 742.447L300.128 748.404L300.128 480.319L423.532 480.319L423.532 425L300.128 425L300.128 267.553L396.298 267.553L396.298 213.085L215.021 213.085C223.532 182.447 231.191 150.106 238 118.617L184.383 107.553C167.362 197.766 139.277 289.681 100.128 350.957C113.745 356.915 138.426 370.532 148.638 378.191C166.511 347.553 183.532 309.255 198 267.553L245.660 267.553L245.660 425L115.447 425L115.447 480.319L245.660 480.319L245.660 754.362L186.936 761.170L186.936 540.745L140.128 540.745L140.128 821.596L356.298 790.106L356.298 831.809L403.106 831.809L403.106 654.787L421.830 674.362C438 659.894 455.021 643.723 471.191 625L471.191 893.085L525.660 893.085L525.660 856.489L900.128 856.489L900.128 808.830L723.957 808.830L723.957 756.064L859.277 756.064L859.277 713.511L723.957 713.511L723.957 662.447L859.277 662.447L859.277 620.745L723.957 620.745L723.957 569.681L883.106 569.681L883.106 522.021L738.426 522.021C726.511 500.745 705.234 474.362 683.957 453.936L877.149 453.936L877.149 286.277L678 286.277L678 450.532M670.340 662.447L670.340 713.511L525.660 713.511L525.660 662.447M670.340 620.745L525.660 620.745L525.660 569.681L670.340 569.681M670.340 756.064L670.340 808.830L525.660 808.830L525.660 756.064M723.957 109.255L723.957 173.085L590.340 173.085L590.340 109.255L535.021 109.255L535.021 173.085L412.468 173.085L412.468 224.149L535.021 224.149L535.021 271.809L590.340 271.809L590.340 224.149L723.957 224.149L723.957 271.809L779.277 271.809L779.277 224.149L897.574 224.149L897.574 173.085L779.277 173.085L779.277 109.255"/></svg>