<svg xmlns="http://www.w3.org/2000/svg" viewBox="0 0 1000 1000" fill="currentColor"><path d="M417.401 520.815L417.401 817.206C417.401 827.397 414.004 830.794 402.115 831.643C388.527 831.643 348.611 831.643 302.752 829.945C311.244 847.779 319.737 873.257 322.285 890.242C380.883 890.242 421.648 889.393 446.276 880.051C470.904 869.860 477.699 852.875 477.699 818.055L477.699 520.815M291.711 593.002C268.781 651.601 227.168 723.788 177.062 767.100L231.414 799.372C281.520 751.813 318.887 677.079 345.214 615.083M524.408 613.384C549.885 671.134 572.815 746.718 578.760 795.975L633.962 783.236C626.318 733.130 604.238 658.395 576.212 601.495M634.811 593.002C684.917 655.847 740.119 744.170 762.200 801.919L817.401 776.442C792.773 718.692 738.420 633.766 685.766 571.771M603.389 108.926L603.389 214.234L394.471 214.234L394.471 108.926L331.626 108.926L331.626 214.234L178.760 214.234L178.760 272.832L331.626 272.832L331.626 385.783L123.558 385.783L123.558 445.231L315.490 445.231C264.535 516.569 184.705 574.318 99.779 612.535C113.367 622.726 137.146 647.355 146.488 660.093C240.756 611.686 332.476 537.800 389.376 445.231L611.032 445.231C667.932 532.705 763.898 613.384 858.166 652.450C866.658 637.163 886.191 614.234 899.779 602.344C817.401 572.620 731.626 512.323 678.123 445.231L880.246 445.231L880.246 385.783L667.083 385.783L667.083 272.832L822.497 272.832L822.497 214.234L667.083 214.234L667.083 108.926M394.471 385.783L394.471 272.832L603.389 272.832L603.389 385.783"/></svg>