<svg xmlns="http://www.w3.org/2000/svg" viewBox="0 0 1000 1000" fill="currentColor"><path d="M422.828 287.034C410.759 NaN 396.966 373.241 381.448 413.759L130.586 413.759L130.586 474.966L355.586 474.966C295.241 610.310 214.207 724.966 112.483 805.138C128.862 816.345 156.448 841.345 167.655 854.276C275.414 761.172 363.345 630.138 428 474.966L887.483 474.966L887.483 413.759L452.138 413.759C465.931 377.552 478 340.483 489.207 302.552M347.828 882.724C373.690 872.379 413.345 868.069 769.379 834.448C785.759 859.448 800.414 881.862 810.759 899.966L868.517 863.759C831.448 803.414 753 702.552 692.655 629.276L640.069 658.586C669.379 695.655 702.138 739.621 732.310 781.862L430.586 807.724C491.793 731.862 553 636.172 604.724 538.759L537.483 515.483C486.621 624.966 409.897 737.034 384.897 766.345C361.621 796.517 343.517 817.207 326.276 820.655C333.172 837.897 343.517 868.931 347.828 882.724M456.448 118.069C470.241 143.069 484.897 175.828 495.241 200.828L141.793 200.828L141.793 362.897L205.586 362.897L205.586 260.310L811.621 260.310L811.621 362.897L877.138 362.897L877.138 200.828L565.069 200.828L571.103 199.103C561.621 172.379 540.069 130.138 521.966 99.966"/></svg>