<svg xmlns="http://www.w3.org/2000/svg" viewBox="0 0 1000 1000" fill="currentColor"><path d="M213.305 107.684L213.305 323.729C213.305 471.073 202.458 678.983 100.311 825.424C114.774 833.559 143.701 856.158 154.548 868.814C231.384 758.531 262.119 611.186 273.870 479.209L830.706 479.209C820.763 710.621 809.915 797.401 790.028 818.192C781.893 828.136 772.853 829.944 756.582 829.944C739.407 829.944 695.113 829.040 647.203 825.424C658.051 843.503 665.282 869.718 666.186 888.701C715 892.316 762.006 892.316 787.316 889.605C815.339 886.893 832.514 880.565 849.689 860.678C876.808 828.136 887.655 726.893 899.407 450.282C900.311 440.339 900.311 418.644 900.311 418.644L278.390 418.644L280.198 340.904L837.034 340.904L837.034 107.684M280.198 166.441L769.237 166.441L769.237 282.147L280.198 282.147M353.418 550.621L353.418 837.175L416.695 837.175L416.695 784.746L698.729 784.746L698.729 550.621M416.695 606.667L635.452 606.667L635.452 728.701L416.695 728.701"/></svg>