<svg xmlns="http://www.w3.org/2000/svg" viewBox="0 0 1000 1000" fill="currentColor"><path d="M763.753 513.882L763.753 599.903L581.387 599.903C583.108 580.118 583.968 559.473 583.968 539.688L583.968 513.882M521.172 267.860L521.172 327.215L305.258 327.215L305.258 379.688L521.172 379.688L521.172 457.968L268.269 457.968L268.269 513.882L521.172 513.882L521.172 539.688C521.172 559.473 520.312 580.118 517.731 599.903L297.516 599.903L297.516 653.237L506.548 653.237C480.742 730.656 413.645 802.054 242.462 845.065C256.226 858.828 272.570 882.914 280.312 895.817C449.774 849.366 526.333 776.247 559.022 693.667C614.075 803.774 708.699 869.151 854.935 897.538C863.538 880.333 880.742 855.387 894.505 841.624C745.688 819.258 650.204 758.183 602.892 653.237L826.548 653.237L826.548 513.882L897.086 513.882L897.086 457.968L826.548 457.968L826.548 327.215L583.968 327.215L583.968 267.860M763.753 457.968L583.968 457.968L583.968 379.688L763.753 379.688M474.720 118.183C486.763 139.688 499.667 165.495 509.989 189.581L181.387 189.581L181.387 425.280C181.387 555.172 175.366 739.258 103.108 870.871C119.452 876.032 148.699 889.796 160.742 900.118C234.720 763.344 245.903 562.914 245.903 425.280L245.903 248.935L888.484 248.935L888.484 189.581L586.548 189.581C574.505 162.054 556.441 126.785 540.957 100.118"/></svg>