<svg xmlns="http://www.w3.org/2000/svg" viewBox="0 0 1000 1000" fill="currentColor"><path d="M466.100 490.105L777.259 490.105L777.259 569.845L466.100 569.845M466.100 360.961L777.259 360.961L777.259 439.834L466.100 439.834M213.879 100.939L213.879 274.287L108.137 274.287L108.137 335.826L213.879 335.826L213.879 526.508L100.336 559.444L117.671 622.716L213.879 591.514L213.879 817.732C213.879 829.867 209.545 834.200 197.411 834.200C186.143 835.067 148.873 835.067 108.137 834.200C115.937 850.668 125.471 877.537 128.072 894.005C187.876 894.005 224.280 892.272 246.815 882.738C269.350 872.337 278.884 855.002 278.884 817.732L278.884 570.712L378.559 536.909L372.492 477.104L278.884 506.573L278.884 335.826L374.225 335.826L374.225 274.287L278.884 274.287L278.884 100.939M403.694 308.957L403.694 621.849L591.777 621.849L591.777 696.389L349.957 696.389L349.957 754.460L591.777 754.460L591.777 898.339L655.915 898.339L655.915 754.460L900.336 754.460L900.336 696.389L655.915 696.389L655.915 621.849L841.398 621.849L841.398 308.957L655.049 308.957L655.049 230.950L891.668 230.950L891.668 174.612L655.049 174.612L655.049 100.939L590.910 100.939L590.910 308.957"/></svg>