<svg xmlns="http://www.w3.org/2000/svg" viewBox="0 0 1000 1000" fill="currentColor"><path d="M813.788 400.646L813.788 553.987L632.407 553.987C634.160 521.566 635.036 490.022 635.036 461.106L635.036 400.646M813.788 341.062L635.036 341.062L635.036 195.608L813.788 195.608M571.071 136.024L571.071 461.106C571.071 585.531 564.061 748.510 483.448 864.173C499.220 870.307 526.383 888.708 536.898 900.099C592.977 821.238 617.512 715.214 628.026 614.447L813.788 614.447L813.788 810.723C813.788 823.866 809.406 828.248 796.263 828.248C783.119 828.248 741.060 829.124 695.496 827.371C705.135 844.896 713.897 874.688 717.402 893.089C781.367 893.089 820.797 892.212 845.332 880.821C869.866 869.430 877.752 849.277 877.752 810.723L877.752 136.024M264.390 114.118C280.162 139.529 295.934 171.950 305.573 198.237L156.613 198.237L156.613 763.406C156.613 803.713 136.460 825.619 122.440 837.010C133.831 847.525 151.356 872.935 157.490 887.831C176.767 871.183 205.682 856.287 412.473 767.788C423.864 793.198 432.627 816.857 438.760 836.134L500.096 807.218C479.067 747.634 427.369 653.001 381.805 582.026L325.726 606.561C345.880 638.105 366.909 675.783 385.310 711.709L222.331 779.179L222.331 555.739L499.220 555.739L499.220 198.237L379.176 198.237C367.785 170.197 346.756 130.767 326.602 100.099M222.331 404.151L434.379 404.151L434.379 496.156L222.331 496.156M222.331 347.196L222.331 257.820L434.379 257.820L434.379 347.196"/></svg>