<svg xmlns="http://www.w3.org/2000/svg" viewBox="0 0 1000 1000" fill="currentColor"><path d="M138.869 322.560L138.869 387.035L363.683 387.035C347.564 580.460 292.421 742.496 99.844 834.967C115.963 846.844 137.172 870.598 147.352 885.869C352.654 781.521 412.888 599.972 430.703 387.035L624.977 387.035L624.977 774.734C624.977 852.783 646.186 873.143 712.357 873.143C725.931 873.143 798.890 873.143 813.312 873.143C876.090 873.143 893.057 835.815 899.844 716.197C881.180 711.107 854.881 700.078 839.611 687.353C836.217 790.853 832.824 811.213 808.222 811.213C792.951 811.213 732.718 811.213 721.689 811.213C694.542 811.213 691.148 805.275 691.148 775.582L691.148 322.560L434.945 322.560C438.338 255.540 439.187 185.975 439.187 114.713L370.470 114.713C370.470 185.975 370.470 255.540 367.925 322.560"/></svg>