<svg xmlns="http://www.w3.org/2000/svg" viewBox="0 0 1000 1000" fill="currentColor"><path d="M537.957 308.197L537.957 438.111L278.128 438.111L278.128 498.795L506.333 498.795C445.650 614.179 340.521 726.145 237.103 782.556C252.487 793.667 272.145 816.744 283.256 832.983C377.274 774.863 472.145 673.154 537.957 559.479L537.957 895.376L602.060 895.376L602.060 559.479C669.581 666.316 764.453 767.171 853.342 824.436C863.598 807.342 884.966 784.265 900.350 772.299C800.350 716.744 693.513 607.342 628.556 498.795L877.274 498.795L877.274 438.111L602.060 438.111L602.060 308.197M472.145 121.872C490.094 151.786 508.043 189.393 520.863 220.162L173.855 220.162L173.855 439.821C173.855 562.897 167.872 735.547 100.350 857.769C115.735 863.752 143.940 883.410 155.906 892.812C225.991 763.752 237.957 571.444 237.957 440.675L237.957 280.846L884.966 280.846L884.966 220.162L596.077 220.162C584.111 187.684 560.179 139.821 537.957 104.778"/></svg>