<svg xmlns="http://www.w3.org/2000/svg" viewBox="0 0 1000 1000" fill="currentColor"><path d="M196.870 188.432L315.871 188.432L315.871 339.572L196.870 339.572M109.139 793.861L122.168 850.321C195.132 830.343 289.812 805.153 380.149 779.094L374.068 726.977L299.367 746.087L299.367 581.049L381.886 581.049L381.886 525.457L299.367 525.457L299.367 394.295L371.463 394.295L371.463 133.709L143.015 133.709L143.015 394.295L244.644 394.295L244.644 759.985L190.789 773.883L190.789 482.895L138.672 482.895L138.672 786.912M420.974 141.527L420.974 306.565L879.606 306.565L879.606 141.527L819.671 141.527L819.671 250.104L679.823 250.104L679.823 99.833L621.625 99.833L621.625 250.104L477.434 250.104L477.434 141.527M465.274 410.799L566.902 410.799L566.902 489.844L465.274 489.844M411.419 356.945L411.419 576.706C411.419 667.042 405.339 781.700 348.010 865.088C361.039 872.037 384.492 888.541 393.178 898.964C433.135 841.635 451.376 766.065 459.193 693.101L566.902 693.101L566.902 820.788C566.902 828.606 564.296 831.212 556.479 832.080C547.793 832.080 522.603 832.080 493.938 831.212C500.887 846.847 508.705 871.168 511.311 886.803C552.136 886.803 579.063 885.935 598.173 875.511C615.545 865.957 620.757 848.584 620.757 820.788L620.757 356.945M465.274 543.698L566.902 543.698L566.902 639.246L463.536 639.246L465.274 577.574M729.334 410.799L836.175 410.799L836.175 490.712L729.334 490.712M675.480 356.945L675.480 582.786C675.480 671.385 669.400 785.175 619.020 867.694C631.180 873.774 655.502 890.278 665.056 899.833C700.670 843.372 717.174 767.802 724.123 695.707L836.175 695.707L836.175 823.394C836.175 832.080 834.438 834.686 825.751 834.686C817.065 834.686 791.875 834.686 763.211 833.818C770.160 849.453 777.977 874.643 779.714 891.147C821.408 891.147 850.073 890.278 868.314 879.855C886.555 870.300 891.767 852.927 891.767 823.394L891.767 357.813L863.971 357.813L729.334 356.945M729.334 544.567L836.175 544.567L836.175 640.984L728.466 640.984L729.334 582.786"/></svg>