<svg xmlns="http://www.w3.org/2000/svg" viewBox="0 0 1000 1000" fill="currentColor"><path d="M138.118 278.763C133.817 346.720 121.774 435.323 100.269 488.656L149.301 508.441C171.667 448.226 184.570 354.462 187.151 284.785M372.957 252.957C358.333 307.151 330.806 384.570 309.301 432.742L348.011 450.806C372.097 405.215 401.344 332.957 424.570 274.462M535.538 103.280C516.613 228.871 480.484 347.581 420.269 423.280C434.892 431.022 461.559 450.806 472.742 460.269C505.430 414.677 532.957 357.043 554.462 291.667L805.645 291.667C795.323 336.398 782.419 382.849 769.516 414.677L821.989 431.022C842.634 384.570 864.140 308.011 879.624 242.634L836.613 230.591L826.290 232.312L571.667 232.312C581.989 193.602 589.731 153.172 596.613 111.882M606.935 343.280L606.935 404.355C606.935 531.667 591.452 715.753 374.677 852.527C389.301 861.989 410.806 882.634 420.269 896.398C557.043 807.796 618.118 701.129 645.645 598.763C686.075 733.817 751.452 837.043 858.118 892.957C867.581 875.753 886.505 851.667 900.269 839.624C766.935 779.409 698.118 632.312 666.290 450.806L667.151 405.215L667.151 343.280M234.462 106.720L234.462 400.914C234.462 559.194 221.559 723.495 101.989 850.806C116.613 860.269 137.258 880.914 146.720 895.538C217.258 821.559 255.108 735.538 274.032 644.355C307.581 689.946 351.452 751.882 371.237 784.570L415.108 738.118C396.183 712.312 311.022 605.645 285.215 576.398C292.097 518.763 293.817 459.409 293.817 400.914L293.817 106.720"/></svg>