<svg xmlns="http://www.w3.org/2000/svg" viewBox="0 0 1000 1000" fill="currentColor"><path d="M142.804 168.222C194.444 193.619 257.090 234.254 286.720 264.730L323.968 212.243C293.492 182.614 230 145.365 179.206 122.508M99.630 396.794C152.116 419.651 214.762 457.746 245.238 485.683L281.640 434.042C250.317 406.106 186.825 369.704 135.185 349.386M487.354 567.799L687.143 567.799L687.143 655.841L487.354 655.841M673.598 115.735L673.598 216.476L508.519 216.476L508.519 115.735L446.720 115.735L446.720 216.476L332.434 216.476L332.434 274.042L446.720 274.042L446.720 372.243L296.878 372.243L296.878 430.656L449.259 430.656C413.704 497.534 357.831 562.720 301.111 601.661L260.476 571.185C218.995 666.847 162.275 778.593 122.487 843.778L178.360 882.720C218.148 809.915 264.709 714.254 301.111 630.444C311.270 640.603 321.429 652.455 327.354 661.767C362.063 638.063 396.772 604.201 428.095 566.106L428.095 794.677C428.095 867.481 454.339 885.259 544.921 885.259C564.392 885.259 713.386 885.259 734.550 885.259C812.434 885.259 831.058 858.169 839.524 756.582C822.593 752.349 798.042 743.884 784.497 733.725C780.265 815.841 772.646 829.386 730.317 829.386C698.995 829.386 572.011 829.386 548.307 829.386C495.820 829.386 487.354 823.460 487.354 793.831L487.354 706.635L744.709 706.635L744.709 548.328C777.725 591.503 815.820 628.751 855.608 653.302C864.921 637.217 885.238 615.206 899.630 603.354C835.291 569.492 773.492 501.767 736.243 430.656L886.931 430.656L886.931 372.243L736.243 372.243L736.243 274.042L863.228 274.042L863.228 216.476L736.243 216.476L736.243 115.735M487.354 517.005L464.497 517.005C483.122 489.069 499.206 460.286 512.751 430.656L673.598 430.656C687.143 460.286 703.228 489.069 721.852 517.005M508.519 274.042L673.598 274.042L673.598 372.243L508.519 372.243"/></svg>