<svg xmlns="http://www.w3.org/2000/svg" viewBox="0 0 1000 1000" fill="currentColor"><path d="M208.813 389.697L403.829 389.697L403.829 493.705L208.813 493.705M682.919 455.569L682.919 784.930C682.919 839.534 688.986 853.402 702.854 864.670C716.722 875.070 738.390 878.537 756.592 878.537C767.859 878.537 799.928 878.537 812.063 878.537C828.531 878.537 849.333 876.804 861.467 869.870C875.335 864.670 884.002 853.402 890.069 836.067C894.403 818.732 897.870 772.795 899.603 733.792C882.269 728.592 860.600 717.324 848.466 706.056C847.599 750.260 846.732 785.796 844.132 800.531C841.532 814.399 838.065 822.199 831.998 824.800C826.797 828.267 815.530 829.133 805.996 829.133C794.728 829.133 776.527 829.133 768.726 829.133C760.059 829.133 753.125 827.400 747.057 824.800C742.724 821.333 740.990 810.065 740.990 791.863L740.990 455.569M181.077 592.514C164.609 664.453 137.740 736.392 101.337 784.930C114.338 791.863 137.740 808.332 148.141 816.999C183.677 764.128 216.613 682.654 235.681 604.648M375.226 603.781C402.962 651.452 428.098 716.457 437.632 758.927L487.036 735.525C477.502 693.922 450.633 630.650 422.030 582.979M723.655 167.811C759.192 206.815 796.462 262.286 811.196 297.822L858 268.353C841.532 233.684 803.395 179.946 767.859 142.676M151.608 335.959L151.608 546.576L281.619 546.576L281.619 828.267C281.619 836.934 279.018 839.534 270.351 839.534C261.684 840.401 233.081 840.401 201.012 839.534C209.679 855.135 218.347 877.671 220.947 894.139C266.017 894.139 295.486 893.272 315.421 884.605C335.356 875.070 340.557 858.602 340.557 830L340.557 546.576L464.501 546.576L464.501 335.959M250.416 114.074C264.284 142.676 279.885 178.212 289.419 208.548L104.804 208.548L104.804 266.620L500.904 266.620L500.904 208.548L357.025 208.548C346.624 177.346 327.556 134.009 310.221 100.206M629.181 103.673C629.181 173.012 629.181 249.285 624.847 326.425L508.704 326.425L508.704 386.230L620.514 386.230C605.779 569.978 562.442 751.993 436.765 861.203C453.233 870.737 474.035 887.205 484.436 900.206C617.047 779.729 663.850 582.979 681.185 386.230L884.869 386.230L884.869 326.425L685.519 326.425C689.853 249.285 690.719 173.879 691.586 103.673"/></svg>