<svg xmlns="http://www.w3.org/2000/svg" viewBox="0 0 1000 1000" fill="currentColor"><path d="M275.759 103.862L275.759 192.655L118.862 192.655L118.862 248.690L275.759 248.690L275.759 508.172L464.552 508.172L464.552 583.172L117.138 583.172L117.138 640.931L407.655 640.931C330.931 720.241 209.379 790.069 99.897 825.414C113.690 839.207 133.517 863.345 143.862 878.862C256.793 835.759 383.517 753 464.552 659.897L464.552 896.966L530.069 896.966L530.069 658.172C611.966 751.276 740.414 834.897 855.931 877.138C866.276 859.897 885.241 834.897 899.897 821.966C788.690 788.345 666.276 719.379 587.828 640.931L882.655 640.931L882.655 583.172L530.069 583.172L530.069 508.172L719.724 508.172L719.724 248.690L880.931 248.690L880.931 192.655L719.724 192.655L719.724 103.862L653.345 103.862L653.345 192.655L339.552 192.655L339.552 103.862M653.345 248.690L653.345 321.103L339.552 321.103L339.552 248.690M653.345 374.552L653.345 452.138L339.552 452.138L339.552 374.552"/></svg>