<svg xmlns="http://www.w3.org/2000/svg" viewBox="0 0 1000 1000" fill="currentColor"><path d="M284.338 405.244L737.758 405.244L737.758 473.865L284.338 473.865M473.697 100.358L473.697 159.425L131.460 159.425L131.460 210.673L473.697 210.673L473.697 263.659L189.658 263.659L189.658 312.302L831.569 312.302L831.569 263.659L539.712 263.659L539.712 210.673L890.635 210.673L890.635 159.425L539.712 159.425L539.712 100.358M596.173 585.917L395.521 585.917L425.054 578.969C418.974 561.596 404.207 537.275 387.704 519.902L630.917 519.902C622.231 539.012 609.202 565.071 596.173 585.917M323.426 527.720C338.192 544.224 351.221 567.676 359.039 585.917L131.460 585.917L131.460 637.166L884.555 637.166L884.555 585.917L663.925 585.917C675.217 569.414 687.378 549.435 698.670 530.326L651.764 519.902L801.167 519.902L801.167 359.207L222.666 359.207L222.666 519.902L361.645 519.902M279.995 640.641C278.257 660.619 275.651 679.729 271.308 697.101L141.884 697.101L141.884 746.612L255.673 746.612C232.220 796.992 189.658 833.474 108.876 856.927C120.168 866.482 135.803 887.329 141.884 900.358C242.644 869.088 292.155 818.708 317.345 746.612L434.609 746.612C428.529 804.810 422.448 830 412.894 838.686C406.813 844.767 399.864 844.767 386.835 844.767C375.543 845.635 342.535 844.767 307.790 841.292C315.608 855.190 320.820 876.037 321.688 891.672C359.039 893.409 394.653 893.409 412.894 892.541C434.609 891.672 448.507 886.460 460.668 874.300C478.909 856.927 487.595 815.233 497.150 721.422C498.887 712.736 498.887 697.101 498.887 697.101L330.375 697.101C333.849 679.729 336.455 660.619 338.192 640.641M550.136 678.860L550.136 898.621L609.202 898.621L609.202 870.825L789.007 870.825L789.007 896.015L849.810 896.015L849.810 678.860M609.202 822.182L609.202 727.503L789.007 727.503L789.007 822.182"/></svg>