<svg xmlns="http://www.w3.org/2000/svg" viewBox="0 0 1000 1000" fill="currentColor"><path d="M100.342 716.673L123.643 781.398C197.861 749.467 296.243 708.043 386.858 668.345L373.913 612.250L381.680 624.332C417.063 607.935 451.583 590.675 485.239 570.826L485.239 897.040L546.512 897.040L546.512 865.972L779.522 865.972L779.522 895.314L843.384 895.314L843.384 520.772L563.772 520.772C601.744 494.019 637.990 465.540 671.647 434.472L900.342 434.472L900.342 374.926L731.194 374.926C787.289 313.653 836.480 243.750 876.178 166.080L814.042 145.368C771.755 231.668 713.071 308.475 644.031 374.926L601.744 374.926L601.744 266.188L736.372 266.188L736.372 207.504L601.744 207.504L601.744 103.081L539.608 103.081L539.608 207.504L398.077 207.504L398.077 266.188L539.608 266.188L539.608 374.926L370.461 374.926L370.461 324.872L279.846 324.872L279.846 120.341L218.573 120.341L218.573 324.872L115.876 324.872L115.876 387.008L218.573 387.008L218.573 670.071C173.697 688.194 133.136 704.591 100.342 716.673M574.128 434.472C504.225 488.841 424.830 533.717 339.393 568.237C348.023 577.730 361.831 594.127 371.324 607.935L279.846 645.044L279.846 387.008L367.872 387.008L367.872 434.472M546.512 717.536L779.522 717.536L779.522 809.877L546.512 809.877M546.512 664.030L546.512 576.867L779.522 576.867L779.522 664.030"/></svg>