<svg xmlns="http://www.w3.org/2000/svg" viewBox="0 0 1000 1000" fill="currentColor"><path d="M300.897 898.103C317.276 888.621 344.862 880.862 528.483 830.862C525.897 818.793 524.172 796.379 525.034 781.724L363.828 820.517L363.828 723.103C411.241 703.276 455.207 680 493.138 655C569.862 770.517 704.345 847.241 862.966 880.862C870.724 865.345 887.103 842.069 900.034 830C813.828 815.345 735.379 787.759 669.862 748.966C709.517 729.138 753.483 704.138 788.828 679.138L742.276 644.655C713.828 667.069 667.276 697.241 625.897 719.655C588.828 692.069 557.793 660.172 535.379 624.828L549.172 612.759L500.897 591.207L531.931 591.207L531.931 544.655C644.862 577.414 778.483 629.138 849.172 667.069L879.345 629.138C819 598.103 720.724 560.172 626.759 530.862L872.448 530.862L872.448 483.448L531.931 483.448L531.931 447.241L785.379 447.241L785.379 248.103L215.552 248.103L215.552 447.241L466.414 447.241L466.414 483.448L131.069 483.448L131.069 530.862L389.690 530.862C312.103 569.655 204.345 598.103 108.655 616.207C119.862 627.414 136.241 650.690 142.276 661.034C251.759 636.034 381.069 593.793 466.414 538.621L466.414 591.207L486.241 591.207C406.931 658.448 256.069 713.621 100.034 749.828C112.103 761.897 129.345 784.310 137.103 797.241C194 783.448 250.034 766.207 302.621 747.241L302.621 795.517C302.621 830 285.379 846.379 272.448 854.138C281.931 864.483 296.586 886.897 300.897 898.103M276.759 365.345L466.414 365.345L466.414 410.172L276.759 410.172M531.931 365.345L720.724 365.345L720.724 410.172L531.931 410.172M276.759 286.034L466.414 286.034L466.414 329.138L276.759 329.138M531.931 286.034L720.724 286.034L720.724 329.138L531.931 329.138M450.897 115.345C458.655 129.138 468.138 147.241 475.034 163.621L128.483 163.621L128.483 213.621L873.310 213.621L873.310 163.621L543.138 163.621C534.517 143.793 522.448 121.379 509.517 102.414"/></svg>