<svg xmlns="http://www.w3.org/2000/svg" viewBox="0 0 1000 1000" fill="currentColor"><path d="M243.391 454.458C295.235 486.637 363.168 531.330 398.028 558.145L438.251 516.134C401.603 489.318 331.883 446.413 280.933 417.810M234.453 629.654C288.084 664.514 359.592 713.676 394.453 743.173L435.570 700.268C398.028 671.665 326.520 624.291 273.782 593.006M563.391 454.458C617.916 485.743 689.425 531.330 725.179 557.251L764.508 513.453C726.966 487.531 654.564 445.520 601.827 416.022M550.877 627.866C606.296 662.726 680.486 710.994 718.922 740.492L758.251 696.693C718.922 668.089 643.838 622.503 589.313 590.324M100.374 117.475L100.374 183.620L463.279 183.620L463.279 300.715L142.385 300.715L142.385 881.721L206.743 881.721L206.743 364.179L463.279 364.179L463.279 872.782L529.425 872.782L529.425 364.179L794.899 364.179L794.899 797.698C794.899 812 790.430 815.575 774.341 816.469C759.145 817.363 705.514 817.363 647.413 815.575C657.246 832.559 667.078 860.268 670.654 877.251C743.056 877.251 794.006 877.251 822.609 866.525C851.212 855.799 860.151 836.134 860.151 797.698L860.151 300.715L529.425 300.715L529.425 183.620L900.374 183.620L900.374 117.475"/></svg>