<svg xmlns="http://www.w3.org/2000/svg" viewBox="0 0 1000 1000" fill="currentColor"><path d="M110.151 166.355C154.882 228.290 204.774 311.731 225.419 364.204L285.634 334.097C263.269 281.624 210.796 201.624 165.204 142.269M99.828 823.559L160.903 851.086C199.613 768.505 246.925 654.957 283.054 556.032L228.860 527.645C191.011 631.731 136.817 751.301 99.828 823.559M651.226 428.720C714.022 461.409 795.742 509.581 837.032 541.409L874.882 498.398C831.871 467.430 750.151 420.978 687.355 390.871M485.204 390.011C439.613 429.581 371.656 472.591 311.441 500.978C324.344 512.161 345.849 535.387 355.312 546.570C412.946 513.022 486.925 459.688 539.398 414.097M317.462 316.892L317.462 372.806L878.323 372.806L878.323 316.892L629.720 316.892L629.720 235.172L819.828 235.172L819.828 180.118L629.720 180.118L629.720 104.419L566.065 104.419L566.065 180.118L371.656 180.118L371.656 235.172L566.065 235.172L566.065 316.892M506.710 609.366L718.323 609.366C693.376 654.097 654.667 694.527 602.194 728.935C558.323 697.968 523.054 661.839 497.247 619.688M537.677 476.032C486.925 562.914 396.602 640.333 303.699 688.505C317.462 698.828 339.828 722.054 350.151 734.097C385.419 712.591 420.688 686.785 454.237 658.398C480.043 697.108 511.011 730.656 547.140 760.763C475.742 796.892 386.280 824.419 277.892 842.484C291.656 856.247 306.280 878.613 313.161 894.957C428.430 874.312 523.914 841.624 600.473 798.613C672.731 844.204 760.473 876.032 860.258 894.097C868.860 876.892 886.065 851.946 899.828 838.183C807.785 825.280 725.204 799.473 656.387 763.344C727.785 711.731 775.957 648.935 803.484 576.677L761.333 556.032L749.290 559.473L551.441 559.473C567.785 538.828 582.409 518.183 595.312 495.817"/></svg>