<svg xmlns="http://www.w3.org/2000/svg" viewBox="0 0 1000 1000" fill="currentColor"><path d="M693.511 135.359C733.338 151.810 782.688 182.978 808.662 205.489L844.160 168.260C818.186 147.481 768.835 118.043 728.143 102.459M518.619 765.662L796.541 765.662L796.541 823.671L518.619 823.671M518.619 722.372L518.619 666.095L796.541 666.095L796.541 722.372M459.745 620.208L459.745 899.861L518.619 899.861L518.619 870.424L796.541 870.424L796.541 898.130L858.013 898.130L858.013 620.208M581.823 100.727L581.823 157.004C581.823 172.589 580.957 189.039 576.628 206.355L407.797 206.355L407.797 255.706L559.312 255.706C535.935 300.727 490.913 347.481 404.333 386.442L404.333 350.944L297.840 350.944L297.840 201.160C337.667 190.771 374.896 178.649 406.065 165.662L356.714 119.775C299.571 147.481 195.675 171.723 105.632 188.173C112.558 200.294 121.216 221.939 124.680 235.792C160.177 230.597 198.273 223.671 236.368 215.879L236.368 350.944L109.961 350.944L109.961 410.684L226.844 410.684C197.407 509.385 147.190 622.805 99.571 686.009C109.961 701.593 125.545 726.701 132.472 744.883C169.701 692.935 206.931 609.818 236.368 525.835L236.368 898.996L297.840 898.996L297.840 516.312C325.545 551.810 358.446 596.831 372.299 620.208L410.394 570.857C393.944 550.944 321.216 474.753 297.840 453.974L297.840 410.684L396.541 410.684C405.199 419.342 413.857 429.732 419.052 437.524C435.502 430.597 450.221 423.671 464.074 416.745L464.074 506.788C464.074 568.260 489.182 582.113 587.883 582.113C608.662 582.113 780.091 582.113 801.736 582.113C872.732 582.113 892.645 564.797 899.571 493.801C883.121 491.203 859.745 483.411 845.892 474.753C842.429 525.835 835.502 532.762 796.541 532.762C761.043 532.762 616.455 532.762 590.481 532.762C533.338 532.762 523.814 528.433 523.814 506.788L523.814 490.338C632.905 481.680 756.714 463.498 841.563 439.255L798.273 400.294C735.935 420.208 625.113 437.524 523.814 447.913L523.814 392.502L505.632 392.502C567.970 351.810 601.736 305.056 619.918 259.169L619.918 318.909C619.918 372.589 637.234 386.442 706.498 386.442C720.351 386.442 810.394 386.442 825.113 386.442C873.597 386.442 890.913 371.723 896.974 309.385C880.524 305.922 858.879 298.996 847.623 291.203C845.026 333.628 840.697 338.823 817.320 338.823C799.139 338.823 725.545 338.823 711.693 338.823C681.390 338.823 676.195 335.359 676.195 318.909L676.195 255.706L889.182 255.706L889.182 206.355L634.636 206.355C637.234 189.905 638.100 173.455 638.100 158.736L638.100 100.727"/></svg>