<svg xmlns="http://www.w3.org/2000/svg" viewBox="0 0 1000 1000" fill="currentColor"><path d="M321.323 277.269L321.323 337.484L812.505 337.484L812.505 277.269M345.409 869.957C362.613 857.054 391.860 846.731 593.151 782.215C591.430 768.452 589.710 741.785 591.430 722.860L409.925 776.194L409.925 494.043L512.290 494.043C571.645 672.968 682.613 797.699 858.097 854.473C867.559 836.409 886.484 811.462 900.247 798.559C815.086 775.333 744.548 734.043 688.634 678.989C743.688 643.720 807.344 596.409 858.097 551.677L801.323 515.548C764.333 553.398 704.978 602.430 653.366 639.419C619.817 597.269 593.151 548.237 573.366 494.043L886.484 494.043L886.484 433.828L256.806 433.828L257.667 377.914L257.667 186.946L864.978 186.946L864.978 123.290L191.430 123.290L191.430 377.914C191.430 515.548 183.688 706.516 100.247 841.570C117.452 848.452 146.699 864.796 159.602 875.978C224.978 768.452 247.344 622.215 254.226 494.043L344.548 494.043L344.548 750.387C344.548 788.237 325.624 808.022 311 817.484C322.183 829.527 339.387 855.333 345.409 869.957"/></svg>