<svg xmlns="http://www.w3.org/2000/svg" viewBox="0 0 1000 1000" fill="currentColor"><path d="M106.372 292.662C136.447 339.063 170.818 402.651 186.286 441.319L238.702 417.259C223.235 379.450 187.145 317.581 155.351 272.039M352.129 414.681L352.129 814.251L284.245 825.422L297.994 888.150C386.501 870.965 507.661 846.904 623.665 821.985L619.368 765.272L533.439 781.598L533.439 548.730L621.087 548.730L621.087 491.158L533.439 491.158L533.439 302.114L475.008 302.114L475.008 791.910L407.983 804.799L407.983 414.681M652.881 297.817L652.881 783.317C652.881 851.201 669.207 870.105 731.076 870.105C743.106 870.105 813.568 870.105 826.458 870.105C879.734 870.105 894.342 840.889 900.357 748.086C883.171 743.789 859.970 733.478 846.221 722.307C843.643 799.643 841.066 815.970 821.302 815.970C807.553 815.970 750.840 815.970 739.669 815.970C716.468 815.970 712.172 811.673 712.172 783.317L712.172 599.429C767.166 554.745 827.317 501.469 872.859 450.771L826.458 405.229C798.960 445.615 755.996 493.736 712.172 535.841L712.172 297.817M506.801 117.366C518.831 141.426 532.580 171.502 542.032 198.140L240.421 198.140L240.421 456.786L238.702 528.107C187.145 560.760 135.588 590.836 100.357 608.881L123.557 666.453C158.788 644.971 195.738 620.052 233.547 594.273C222.376 688.795 194.879 785.895 127.854 861.512C143.321 869.246 169.959 888.150 181.130 899.321C288.541 778.161 304.009 592.554 304.009 456.786L304.009 258.290L894.342 258.290L894.342 198.140L615.072 198.140C603.901 168.924 585.856 131.115 570.389 101.040"/></svg>