<svg xmlns="http://www.w3.org/2000/svg" viewBox="0 0 1000 1000" fill="currentColor"><path d="MNaN 801.304L260.652 801.304L260.652 650.870LNaN 650.870M528.478 801.304L528.478 650.870L740.652 650.870L740.652 801.304M198.043 393.478L198.043 899.565L260.652 899.565L260.652 861.304L740.652 861.304L740.652 899.565LNaN 899.565LNaN 393.478MNaN 591.739L260.652 591.739L260.652 453.478LNaN 453.478M528.478 591.739L528.478 453.478L740.652 453.478L740.652 591.739M617.174 99.565L617.174 199.565L379.783 199.565L379.783 99.565L314.565 99.565L314.565 199.565L113.696 199.565L113.696 260.435L314.565 260.435L314.565 359.565L379.783 359.565L379.783 260.435L617.174 260.435L617.174 359.565L681.522 359.565L681.522 260.435L885.870 260.435L885.870 199.565L681.522 199.565L681.522 99.565"/></svg>