<svg xmlns="http://www.w3.org/2000/svg" viewBox="0 0 1000 1000" fill="currentColor"><path d="M379.063 849.216C396.249 838.045 423.747 830.311 623.961 784.769C636.851 819.141 648.021 850.934 654.896 875.854L710.750 855.231C690.127 788.206 642.866 673.921 601.620 587.132L550.062 603.459C568.107 642.986 587.871 689.388 605.057 734.071L434.917 769.302C509.676 630.956 512.253 472.846 512.253 346.531L512.253 209.044C568.967 202.170 623.961 194.436 675.519 185.843C692.705 495.188 729.654 755.553 851.673 890.462C861.985 873.276 883.467 849.216 899.794 837.186C785.508 720.322 751.136 460.816 734.810 175.532L806.990 160.924L752.855 109.366C629.117 140.301 407.420 167.798 219.235 184.125L219.235 353.405C219.235 496.047 208.064 700.559 99.794 847.497C114.402 855.231 141.040 876.713 151.351 888.743C265.637 734.071 283.682 505.499 283.682 353.405L283.682 233.104C337.817 227.948 393.671 222.793 449.525 216.778L449.525 343.953C449.525 486.595 449.525 658.453 337.817 793.362C348.988 804.533 373.048 834.608 379.063 849.216"/></svg>