<svg xmlns="http://www.w3.org/2000/svg" viewBox="0 0 1000 1000" fill="currentColor"><path d="M222.913 99.565L222.913 898.696L287.261 898.696L287.261 99.565M145.522 267.391C139.435 337.826 122.913 433.478 100.304 490.870L154.217 509.130C176.826 446.522 192.478 345.652 196.826 274.348M296.826 259.565C322.913 311.739 350.739 380.435 361.174 422.174LNaN 397.826C398.565 356.957 369.870 290 341.174 239.565M490.739 314.348L783.783 314.348L783.783 390.870L490.739 390.870M490.739 190.870L783.783 190.870L783.783 266.522L490.739 266.522MNaN 140.435LNaN 442.174L848.130 442.174L848.130 140.435M363.783 659.565L363.783 720.435L603.783 720.435L603.783 899.565LNaN 899.565LNaN 720.435L900.304 720.435L900.304 659.565LNaN 659.565LNaN 563.913L862.043 563.913L862.043 504.783LNaN 504.783LNaN 563.913L603.783 563.913L603.783 659.565"/></svg>