<svg xmlns="http://www.w3.org/2000/svg" viewBox="0 0 1000 1000" fill="currentColor"><path d="M376.237 375.946L637.742 375.946C601.613 415.516 555.161 451.645 501.828 483.473C450.215 453.366 406.344 418.957 372.796 379.387M395.161 260.677C352.151 326.914 268.710 402.613 149.140 455.086C163.763 465.409 183.548 486.914 193.011 501.538C243.763 476.591 288.495 448.204 327.204 418.097C359.892 454.226 398.602 486.914 441.613 516.161C336.667 566.914 215.376 603.903 100.108 624.548C112.151 639.172 125.914 664.978 131.935 682.183C176.667 672.720 223.118 661.538 268.710 647.774L268.710 898.957L332.366 898.957L332.366 869.710L673.011 869.710L673.011 898.097L739.247 898.097L739.247 643.473C777.957 652.935 818.387 661.538 858.817 667.559C868.280 649.495 885.484 621.108 900.108 606.484C777.957 591 660.968 560.032 563.763 515.301C634.301 468.849 695.376 412.935 737.527 348.419L693.656 321.753L681.613 325.194L425.269 325.194C439.892 307.989 452.796 290.785 464.839 273.581M500.968 552.290C562.903 586.699 632.581 614.226 706.559 634.871L309.140 634.871C376.237 612.505 441.613 584.978 500.968 552.290M332.366 815.516L332.366 689.065L673.011 689.065L673.011 815.516M441.613 117.022C454.516 137.667 469.140 163.473 480.323 186.699L136.237 186.699L136.237 348.419L199.892 348.419L199.892 245.194L798.602 245.194L798.602 348.419L863.978 348.419L863.978 186.699L554.301 186.699C541.398 159.172 521.613 126.484 504.409 100.677"/></svg>