<svg xmlns="http://www.w3.org/2000/svg" viewBox="0 0 1000 1000" fill="currentColor"><path d="M222.979 128.154C250.775 165.505 282.914 216.754 297.681 249.761L349.798 215.885C335.031 184.615 302.024 135.972 273.359 100.358M444.478 174.191L444.478 237.600L586.932 237.600C576.508 524.245 540.895 730.109 383.674 849.978C398.441 861.270 425.368 887.329 434.923 900.358C599.092 761.379 639.917 548.567 653.815 237.600L820.591 237.600C810.167 638.035 798.007 785.700 769.342 817.839C759.787 830.869 749.364 833.474 733.729 833.474C712.882 833.474 665.107 832.606 612.122 828.263C623.414 845.635 631.231 873.431 632.100 891.672C681.611 894.278 730.254 895.147 759.787 892.541C789.320 889.066 808.430 880.380 827.540 854.321C861.416 810.022 872.708 658.882 884.869 209.805C884.869 201.118 885.737 174.191 885.737 174.191M130.906 254.104L130.906 313.170L348.929 313.170C295.944 424.354 202.132 539.881 114.402 605.027C125.694 616.319 143.066 649.327 149.147 666.699C184.760 638.035 221.242 601.553 256.856 559.859L256.856 898.621L323.739 898.621L323.739 550.304C357.616 591.998 396.704 643.246 414.945 670.174L454.901 618.056C443.609 605.027 414.076 572.020 384.543 539.012C409.733 516.428 440.135 486.895 468.799 458.230L423.631 421.748C407.996 446.069 378.463 480.814 353.273 506.873L323.739 476.471L323.739 474.734C367.170 413.062 405.390 345.309 431.448 277.557L394.098 251.498L381.937 254.104"/></svg>