<svg xmlns="http://www.w3.org/2000/svg" viewBox="0 0 1000 1000" fill="currentColor"><path d="M818.863 266.026C799.205 340.385 760.744 444.658 729.974 508.761L787.239 527.564C818.863 465.171 858.179 367.735 887.239 285.684M414.590 270.299C405.188 354.060 382.966 457.479 350.487 518.162L411.171 542.949C445.359 474.573 467.581 366.880 474.419 278.846M305.188 107.906C258.179 236.966 181.256 364.316 100.060 446.368C111.171 461.752 130.829 496.795 136.812 511.325C164.162 482.265 190.658 448.932 216.299 412.179L216.299 892.521L282.966 892.521L282.966 306.197C315.444 248.932 343.650 188.248 366.726 127.564M578.692 113.889C577.838 495.940 588.094 725.855 319.718 841.239C333.393 853.205 354.761 877.137 363.308 892.521C506.043 829.274 576.128 733.547 611.171 603.632C653.051 744.658 724.846 840.385 857.325 890.812C866.726 872.009 886.385 846.368 900.060 832.692C734.248 779.701 665.872 642.949 637.667 444.658C646.214 348.077 646.214 237.821 647.068 113.889"/></svg>