<svg xmlns="http://www.w3.org/2000/svg" viewBox="0 0 1000 1000" fill="currentColor"><path d="M798.970 242.091C778.302 369.540 742.135 480.628 695.633 573.631C651.715 478.044 622.436 365.235 603.491 242.091M502.737 180.089L502.737 242.091L545.794 242.091C569.906 393.652 605.213 528.851 659.465 638.216C607.797 720.886 546.656 784.610 479.487 826.806C494.126 838.862 512.210 860.391 521.682 875.891C585.407 831.973 643.964 774.277 693.050 701.080C736.107 770.832 789.497 827.667 854.944 869.863C865.278 853.502 885.084 830.251 899.723 819.056C829.971 777.721 773.997 717.441 730.079 641.661C796.386 523.685 844.610 373.846 NaN 188.701L827.388 178.367L816.193 180.089M99.723 695.052L114.363 757.054L373.566 712.274L373.566 874.169L436.429 874.169L436.429 701.080L513.071 686.440L509.626 631.327L436.429 643.383L436.429 182.673L499.293 182.673L499.293 124.115L108.335 124.115L108.335 182.673L166.031 182.673L166.031 685.579M228.033 182.673L373.566 182.673L373.566 303.233L228.033 303.233M228.033 359.207L373.566 359.207L373.566 484.072L228.033 484.072M228.033 540.907L373.566 540.907L373.566 653.717L228.033 676.107"/></svg>