<svg xmlns="http://www.w3.org/2000/svg" viewBox="0 0 1000 1000" fill="currentColor"><path d="M602.317 113.801C618.732 156.134 636.011 212.289 643.786 246.847L706.853 228.704C699.078 195.875 679.207 141.447 663.657 99.978M340.546 341.879C330.179 449.006 311.173 540.583 281.799 616.609C255.017 595.875 226.508 575.140 198.862 556.998C215.276 493.931 232.555 418.769 247.242 341.879M127.156 577.732C168.624 605.378 214.413 639.071 256.745 673.629C217.004 753.974 164.305 810.994 100.374 846.415C115.060 858.510 132.339 882.700 140.978 898.251C208.365 855.918 263.657 797.171 305.989 715.961C333.635 741.879 357.825 766.069 375.104 787.667L411.389 731.512C392.382 709.050 364.737 683.996 332.771 657.214C370.784 561.317 394.974 440.367 405.341 287.451L366.464 279.676L355.233 281.404L258.473 281.404C269.704 221.793 278.343 163.045 284.391 110.346L221.324 106.026C216.140 159.590 207.501 220.065 197.134 281.404L114.197 281.404L114.197 341.879L185.039 341.879C167.760 430.864 146.162 515.529 127.156 577.732M438.171 255.486L438.171 317.689L556.529 317.689L556.529 428.272C556.529 553.542 538.387 722.873 379.423 856.782C396.702 868.013 419.164 886.156 432.123 899.978C567.760 785.076 607.501 642.527 617.868 515.529L785.471 515.529C775.968 722.009 764.737 801.490 746.594 821.361C737.955 830 729.315 831.728 712.901 831.728C696.486 831.728 649.834 830.864 601.454 826.544C613.549 844.687 620.460 871.469 621.324 890.475C669.704 893.931 715.492 893.067 741.410 891.339C769.056 889.611 786.335 882.700 801.886 862.829C829.531 831.728 839.898 739.287 850.266 485.292C850.266 475.788 851.130 454.190 851.130 454.190L621.324 454.190L621.324 429.136L621.324 317.689L898.646 317.689L898.646 255.486"/></svg>