<svg xmlns="http://www.w3.org/2000/svg" viewBox="0 0 1000 1000" fill="currentColor"><path d="M164.299 393.234C218.844 442.584 281.182 512.714 308.022 559.468L360.835 520.506C332.264 473.753 268.195 407.087 213.649 359.468M100.229 749.944L140.922 808.818C230.100 757.736 348.714 686.740 461.268 617.476L461.268 807.952C461.268 825.268 455.208 829.597 438.758 830.463C421.442 830.463 365.165 831.329 305.424 828.732C315.814 848.645 325.338 878.948 329.667 897.996C405.857 897.996 457.805 896.264 487.242 885.009C515.814 873.753 527.935 853.840 527.935 807.952L527.935 463.364C602.394 623.537 711.485 756.004 852.610 823.537CNaN 806.221 884.645 780.247 900.229 767.260C805.857 726.567 723.606 655.571 657.805 568.126C714.948 518.775 785.944 448.645 838.758 387.173L783.346 347.346C743.519 401.026 678.584 470.290 624.039 519.641C584.212 458.169 552.177 389.771 527.935 319.641L527.935 308.385L875.987 308.385L875.987 245.182L769.494 245.182L806.723 202.758C771.225 174.186 701.095 132.628 646.550 104.922L607.589 146.481C660.403 173.320 725.338 214.879 760.835 245.182L527.935 245.182L527.935 101.459L461.268 101.459L461.268 245.182L119.277 245.182L119.277 308.385L461.268 308.385L461.268 549.944C329.667 625.268 188.541 704.922 100.229 749.944"/></svg>