<svg xmlns="http://www.w3.org/2000/svg" viewBox="0 0 1000 1000" fill="currentColor"><path d="M767.106 146.758C737.953 214.496 683.934 307.101 641.919 362.835L696.795 388.558C740.525 334.539 794.544 248.794 836.559 175.054M169.464 179.341C218.339 242.792 268.928 327.680 286.935 382.556L350.386 354.260C328.950 298.526 277.503 215.354 227.771 154.475M463.569 105.600L463.569 434.861L119.732 434.861L119.732 499.169L412.980 499.169C338.382 620.070 214.051 739.255 100.011 800.134C115.445 813.853 136.024 837.862 148.028 854.153C261.211 784.700 383.826 662.085 463.569 530.895L463.569 893.596L531.308 893.596L531.308 528.323C613.623 655.225 737.953 778.698 851.136 846.436C862.283 829.287 883.719 803.564 900.011 791.559C785.970 732.395 659.925 615.782 582.755 499.169L876.860 499.169L876.860 434.861L531.308 434.861L531.308 105.600"/></svg>