<svg xmlns="http://www.w3.org/2000/svg" viewBox="0 0 1000 1000" fill="currentColor"><path d="M611.651 783.712L465.799 783.712L465.799 524.323L611.651 524.323M675.406 783.712L675.406 524.323L827.371 524.323L827.371 783.712M402.917 147.904L402.917 899.869L465.799 899.869L465.799 847.467L827.371 847.467L827.371 892.882L892.873 892.882L892.873 147.904M611.651 461.441L465.799 461.441L465.799 210.786L611.651 210.786M675.406 461.441L675.406 210.786L827.371 210.786L827.371 461.441M323.441 99.869C274.533 232.620 193.310 362.751 106.847 448.341C118.201 462.314 136.541 496.376 142.655 511.223C172.349 480.655 201.170 445.721 229.118 407.293L229.118 898.122L292 898.122L292 309.476C327.808 248.341 359.249 183.712 384.576 118.210"/></svg>