<svg xmlns="http://www.w3.org/2000/svg" viewBox="0 0 1000 1000" fill="currentColor"><path d="M837.628 115.100C737.091 146.034 560.077 166.657 415.716 177.828C422.591 191.577 430.324 215.637 432.043 231.963C577.263 223.371 758.574 203.607 870.281 170.954M806.694 224.230C786.071 284.380 757.714 352.264 726.780 399.525C742.247 404.681 767.166 416.711 779.197 425.304C806.694 377.184 839.347 303.285 862.548 240.556M587.575 253.446C605.620 299.847 625.383 360.857 632.258 400.385L688.112 381.480C679.519 342.812 659.755 282.662 640.851 237.119M431.184 280.084C454.385 328.204 481.882 390.932 494.771 431.319L547.188 409.837C534.299 369.450 505.942 309.300 480.163 262.039M184.567 187.280L323.772 187.280L323.772 336.797L184.567 336.797M433.762 502.640L433.762 562.791L591.012 562.791C545.469 649.579 472.430 737.227 406.264 783.628C420.872 795.658 442.354 818 453.525 833.467C511.957 784.488 575.545 703.714 621.087 618.644L621.087 884.165L683.815 884.165L683.815 614.348C729.358 698.559 792.945 780.191 851.377 827.452C862.548 811.126 884.889 787.925 900.357 775.895C833.332 731.212 759.433 646.142 713.031 562.791L869.422 562.791L869.422 502.640L683.815 502.640L683.815 421.008L621.087 421.008L621.087 502.640M100.357 794.799L115.824 854.950C194.879 829.171 299.712 794.799 398.531 761.287L388.219 705.433L293.697 736.367L293.697 575.680L388.219 575.680L388.219 520.685L293.697 520.685L293.697 390.932L377.048 390.932L377.048 133.145L133.869 133.145L133.869 390.932L238.702 390.932L238.702 753.553L181.130 771.598L181.130 478.580L129.573 478.580L129.573 786.206"/></svg>