<svg xmlns="http://www.w3.org/2000/svg" viewBox="0 0 1000 1000" fill="currentColor"><path d="M286.462 177.246C249.030 265.168 186.354 352.219 120.195 407.931C134.993 418.378 161.109 439.270 172.425 449.716C236.843 387.039 305.614 290.412 348.269 194.656M633.797 205.102C706.049 276.484 784.395 377.464 817.474 442.752L876.669 409.672C841.849 343.514 760.891 245.146 687.768 176.375M457.953 99.770L457.953 428.824L525.853 428.824L525.853 99.770M463.176 455.810C459.694 487.148 456.212 517.616 450.119 546.343L108.008 546.343L108.008 606.408L435.320 606.408C397.888 718.704 315.189 801.403 102.785 844.058C115.842 857.115 131.511 883.231 137.605 899.770C355.233 851.892 450.119 762.230 494.515 640.358C561.544 783.122 676.452 864.079 858.388 899.770C867.094 881.490 882.763 855.374 896.691 841.446C718.236 813.590 603.329 736.985 544.134 606.408L883.633 606.408L883.633 546.343L519.760 546.343C524.983 517.616 529.335 487.148 532.817 455.810"/></svg>