<svg xmlns="http://www.w3.org/2000/svg" viewBox="0 0 1000 1000" fill="currentColor"><path d="M546.521 103.359C510.624 216.179 451.650 324.726 381.564 397.376L381.564 142.675L157.632 142.675L157.632 449.513C157.632 575.154 154.214 746.949 100.368 868.316C114.897 873.444 140.538 887.120 152.504 897.376C187.547 815.325 202.932 708.487 209.769 607.632L325.154 607.632L325.154 815.325C325.154 826.436 320.880 829.855 310.624 830.709C300.368 830.709 268.744 831.564 232.846 829.855C240.538 846.094 247.376 873.444 249.940 889.684C303.786 889.684 334.556 887.974 355.068 877.718C374.726 867.462 381.564 847.803 381.564 816.179L381.564 413.615C392.675 429 405.496 451.222 411.479 462.333C426.009 446.949 440.538 429 455.068 411.051L455.068 514.470C455.068 616.179 447.376 754.641 379.855 854.641C393.530 861.479 419.171 881.137 428.573 892.248C502.077 785.410 514.897 626.436 514.897 515.325L514.897 384.556L896.949 384.556L896.949 327.291L732.846 327.291C756.778 290.538 780.709 245.239 796.949 205.068L755.068 177.718L744.812 180.282L583.274 180.282L605.496 119.598M214.897 200.795L325.154 200.795L325.154 342.675L214.897 342.675M214.897 401.650L325.154 401.650L325.154 547.803L213.188 547.803C214.897 512.761 214.897 479.427 214.897 449.513M559.342 234.983L714.897 234.983C702.077 267.462 684.983 301.650 669.598 327.291L510.624 327.291C528.573 298.231 543.957 266.607 559.342 234.983M574.726 453.786L574.726 787.974C574.726 859.769 596.949 877.718 671.308 877.718C687.547 877.718 793.530 877.718 810.624 877.718C875.581 877.718 893.530 848.658 900.368 741.821C884.128 738.402 859.342 728.145 845.667 717.889C843.103 805.923 837.120 822.162 805.496 822.162C783.274 822.162 694.385 822.162 677.291 822.162C641.393 822.162 634.556 816.179 634.556 787.974L634.556 509.342L793.530 509.342C793.530 599.940 793.530 633.274 787.547 641.821C783.274 647.803 775.581 649.513 767.034 649.513C756.778 649.513 729.427 648.658 698.658 646.094C707.205 659.769 712.333 681.137 713.188 697.376C746.521 699.085 778.145 699.085 794.385 697.376C814.043 695.667 826.863 690.538 836.265 676.863C849.085 660.624 849.940 609.342 849.940 476.863C849.940 469.171 849.940 453.786 849.940 453.786"/></svg>