<svg xmlns="http://www.w3.org/2000/svg" viewBox="0 0 1000 1000" fill="currentColor"><path d="M298.608 393.844L695.926 393.844L695.926 451.698L298.608 451.698M238.202 351.305L238.202 494.237L758.884 494.237L758.884 351.305M742.719 512.955C619.355 535.075 383.687 546.135 189.707 546.986C194.812 558.897 200.767 577.615 201.618 590.376C285.846 589.526 378.582 586.973 467.915 582.719L467.915 629.513L172.691 629.513L172.691 676.306L467.915 676.306L467.915 727.353L126.749 727.353L126.749 774.997L467.915 774.997L467.915 834.552C467.915 846.463 462.810 849.867 450.048 850.717C436.435 850.717 387.090 851.568 336.043 849.867C344.550 864.330 353.909 885.600 357.312 900.063C427.077 900.914 469.616 900.063 495.991 891.555C522.365 883.898 530.873 869.435 530.873 835.403L530.873 774.997L872.889 774.997L872.889 727.353L530.873 727.353L530.873 676.306L828.648 676.306L828.648 629.513L530.873 629.513L530.873 579.316C627.863 572.510 718.046 564.002 788.661 551.240M500.244 100.323C425.375 182.849 268.830 248.360 103.778 290.899C115.689 301.109 132.704 324.931 140.361 337.693C199.066 321.528 255.218 302.810 307.967 281.541L307.967 307.915L694.224 307.915L694.224 281.541C749.525 303.661 805.677 321.528 857.575 334.289C866.083 318.975 883.099 296.004 896.711 284.093C771.646 258.569 623.609 203.268 538.530 142.011L556.396 124.145M656.789 265.376L345.401 265.376C402.404 239.852 454.302 210.074 497.692 176.043C541.933 209.224 598.085 239.001 656.789 265.376"/></svg>