<svg xmlns="http://www.w3.org/2000/svg" viewBox="0 0 1000 1000" fill="currentColor"><path d="M403.562 587.610C325.348 614.815 210.576 641.170 109.407 656.473C124.710 667.525 147.664 690.479 158.716 701.531C253.084 682.828 372.106 649.672 458.823 617.366M749.577 465.187C605.050 491.542 354.253 511.096 165.518 512.796C175.719 525.548 191.022 554.454 198.674 568.056C279.439 564.656 372.956 557.854 466.474 549.353L466.474 709.183L419.715 685.378C339.800 728.736 213.126 768.694 100.055 791.648C116.208 803.550 141.713 826.505 154.465 840.107C253.934 813.752 377.207 771.244 466.474 723.635L466.474 877.514L530.236 877.514L530.236 667.525C611.851 749.140 731.724 806.951 861.798 834.156C871.150 818.003 887.303 795.049 900.055 782.296C804.837 766.143 714.721 734.688 643.307 689.629C707.919 661.574 786.134 623.317 844.795 585.910L793.785 551.903C745.326 585.060 663.711 630.118 598.249 658.173C571.044 636.919 548.089 613.115 530.236 587.610L530.236 543.402C627.154 533.200 720.672 520.447 793.785 505.145M412.064 170.182L412.064 219.491L244.582 219.491L244.582 170.182M523.435 273.051C565.943 293.455 611.851 318.960 656.060 345.315C614.402 376.770 567.643 402.275 520.034 419.278L520.884 386.122L469.875 391.223L469.875 170.182L523.435 170.182L523.435 122.573L120.459 122.573L120.459 170.182L186.772 170.182L186.772 419.278L105.156 426.080L113.658 475.389L412.064 443.083L412.064 483.891L469.875 483.891L469.875 436.282L506.431 432.031C517.484 443.083 529.386 460.086 536.187 472.838C596.548 450.734 655.209 418.428 707.069 375.920C756.378 407.376 799.736 438.832 829.492 465.187L870.300 420.979C840.544 395.474 797.186 366.569 749.577 336.813C794.635 290.904 831.192 235.644 854.997 170.182L815.889 153.179L805.688 155.729L532.786 155.729L532.786 207.589L775.932 207.589C756.378 244.146 730.023 278.152 700.268 307.908C653.509 280.702 605.050 256.048 561.692 235.644M412.064 260.299L412.064 309.608L244.582 309.608L244.582 260.299M412.064 351.266L412.064 397.174L244.582 413.327L244.582 351.266"/></svg>