<svg xmlns="http://www.w3.org/2000/svg" viewBox="0 0 1000 1000" fill="currentColor"><path d="M401.838 274.027L401.838 349.270L262.595 349.270L262.595 402.892L401.838 402.892L401.838 546.459L738.270 546.459L738.270 402.892L878.378 402.892L878.378 349.270L738.270 349.270L738.270 274.027L674.270 274.027L674.270 349.270L464.108 349.270L464.108 274.027M674.270 402.892L674.270 494.568L464.108 494.568L464.108 402.892M722.703 655.432C684.649 700.405 631.027 735.865 568.757 763.541C507.351 735 457.189 698.676 420.865 655.432M274.703 601.811L274.703 655.432L387.135 655.432L357.730 667.541C393.189 715.973 440.757 756.622 497.838 790.351C416.541 816.297 325.730 831.865 234.054 839.649C243.568 854.351 255.676 879.432 260 895C368.108 882.892 473.622 861.270 566.162 824.946C651.784 863 752.973 887.216 861.946 900.189C869.730 883.757 886.162 857.811 900 843.973C804.865 835.324 715.784 818.027 638.811 791.216C714.919 750.568 778.054 695.216 817.838 620.838L777.189 599.216L765.946 601.811M477.081 115.757C489.189 138.243 502.162 165.919 511.676 190.135L176.973 190.135L176.973 426.243C176.973 555.108 170.919 740.189 100 870.784C116.432 875.973 144.973 889.811 157.946 900.189C230.595 763.541 241.838 563.757 241.838 425.378L241.838 251.541L887.892 251.541L887.892 190.135L585.189 190.135C574.811 162.459 557.514 127.865 541.946 100.189"/></svg>