<svg xmlns="http://www.w3.org/2000/svg" viewBox="0 0 1000 1000" fill="currentColor"><path d="M125.011 168.237C144.796 228.452 162.860 306.731 166.301 357.484L211.892 345.441C206.731 294.688 188.667 217.269 167.161 157.054M348.667 154.473C336.624 212.108 315.118 297.269 297.054 347.161L336.624 360.925C356.409 312.753 381.355 232.753 400.280 169.097M402 486.516L402 843.505L456.194 843.505L456.194 782.430L627.376 782.430L627.376 486.516L543.935 486.516L543.935 329.957L647.161 329.957L647.161 272.323L543.935 272.323L543.935 100.280L487.161 100.280L487.161 272.323L379.634 272.323L379.634 329.957L487.161 329.957L487.161 486.516M672.968 128.667L672.968 509.742C672.968 625.011 666.946 767.806 598.989 865.871C611.892 871.892 634.258 889.957 642.860 900.280C699.634 821.140 717.699 705.871 722.860 601.785L836.409 601.785L836.409 815.978C836.409 827.161 832.108 830.602 821.785 830.602C811.462 831.462 777.914 831.462 740.925 830.602C748.667 846.086 755.548 871.892 757.269 886.516C811.462 887.376 842.430 885.656 863.935 876.194C882.860 865.871 889.742 848.667 889.742 815.978L889.742 128.667M725.441 183.720L836.409 183.720L836.409 335.118L725.441 335.118M725.441 390.172L836.409 390.172L836.409 546.731L725.441 546.731L725.441 508.882M456.194 542.430L573.183 542.430L573.183 727.376L456.194 727.376M129.312 388.452L129.312 446.086L224.796 446.086C199.849 541.570 151.677 656.839 109.527 717.914C119.849 734.258 134.473 762.645 140.495 781.570C172.323 732.538 203.290 655.978 229.097 577.699L229.097 889.097L284.151 889.097L284.151 543.290C307.376 585.441 334.043 636.194 344.366 663.720L383.075 614.688C370.172 590.602 306.516 497.699 284.151 467.591L284.151 446.086L370.172 446.086L370.172 388.452L284.151 388.452L284.151 102L229.097 102L229.097 388.452"/></svg>