<svg xmlns="http://www.w3.org/2000/svg" viewBox="0 0 1000 1000" fill="currentColor"><path d="M115.350 630.838L115.350 685.422L413.004 685.422C337.098 751.094 213.431 806.531 99.998 831.264C112.791 844.058 131.554 867.938 140.083 883.290C256.928 852.586 383.154 786.062 463.324 706.744L463.324 894.377L527.290 894.377L527.290 702.480C609.166 784.356 739.657 852.586 859.060 884.996C867.588 868.791 886.352 844.058 899.998 831.264C784.859 806.531 659.486 751.094 581.874 685.422L880.382 685.422L880.382 630.838L527.290 630.838L527.290 560.049L463.324 560.049L463.324 630.838M438.591 125.081L468.441 174.548L139.230 174.548L139.230 297.362L199.785 297.362L199.785 229.132L797.652 229.132L797.652 297.362L859.913 297.362L859.913 174.548L536.672 174.548C524.731 153.226 507.674 125.934 492.322 105.465M636.458 370.710C607.461 409.090 568.228 439.793 517.908 463.674C457.354 451.733 395.094 439.793 332.834 430.412C351.597 412.501 372.066 392.032 392.535 370.710M233.047 462.821C299.571 473.055 365.243 484.143 427.503 496.083C345.627 519.111 244.134 531.904 123.026 537.874C132.407 551.520 141.789 572.842 146.906 589.900C304.689 578.812 430.915 557.490 528.143 517.405C636.458 541.286 730.275 567.725 799.358 593.311L853.090 548.109C785.712 525.934 697.866 502.053 598.932 480.731C644.987 451.733 680.808 415.060 707.247 370.710L872.706 370.710L872.706 318.684L439.443 318.684C456.501 298.215 472.706 277.746 486.352 258.130L429.209 239.367C413.004 264.100 392.535 291.392 370.360 318.684L125.584 318.684L125.584 370.710L325.158 370.710C294.454 404.825 262.045 437.235 233.047 462.821"/></svg>