<svg xmlns="http://www.w3.org/2000/svg" viewBox="0 0 1000 1000" fill="currentColor"><path d="M614.578 109.141L614.578 250.719L433.768 250.719L433.768 309.567L614.578 309.567L614.578 451.145L409.034 451.145L409.034 509.994L595.814 509.994C548.906 621.721 466.177 734.301 383.448 790.591C397.947 802.531 418.416 824.706 429.503 840.058C498.586 785.473 565.964 692.510 614.578 591.870L614.578 890.377L678.544 890.377L678.544 578.224C725.452 678.864 791.124 774.386 855.090 828.117C866.177 812.765 885.793 790.591 900.292 780.356C824.386 725.772 745.068 615.751 699.866 509.994L890.910 509.994L890.910 451.145L678.544 451.145L678.544 309.567L867.883 309.567L867.883 250.719L678.544 250.719L678.544 109.141M333.981 341.124C324.599 446.881 306.689 536.433 279.397 610.633C252.957 588.458 223.959 567.989 196.667 549.226C212.872 489.525 229.077 416.177 244.429 341.124M129.290 574.812C170.228 602.104 213.725 635.367 253.810 670.335C215.431 749.652 163.405 805.942 100.292 839.205C113.938 851.145 130.996 875.026 139.525 890.377C206.902 850.292 260.633 793.149 301.571 713.832C326.305 737.712 347.627 760.740 362.126 781.209L401.358 727.478C384.301 704.450 358.714 678.864 329.716 652.424C365.537 557.755 387.712 437.499 397.094 285.687L359.567 279.716L348.480 281.422L255.516 281.422C265.751 223.426 274.279 166.284 280.249 115.111L222.254 112.552C217.136 163.725 208.608 222.574 197.520 281.422L117.350 281.422L117.350 341.124L186.433 341.124C169.375 428.970 148.906 513.405 129.290 574.812"/></svg>