<svg xmlns="http://www.w3.org/2000/svg" viewBox="0 0 1000 1000" fill="currentColor"><path d="M797.216 112.351C750.514 171.162 663.162 229.108 589.649 263.703C605.216 274.946 622.514 294.838 633.757 308.676C710.730 268.892 797.216 204.892 852.568 136.568M816.243 306.081C766.081 375.270 670.946 439.270 582.730 475.595C597.432 487.703 615.595 508.459 624.243 523.162C718.514 479.919 813.649 409 871.595 328.568M828.351 508.459C773.865 597.541 667.486 673.649 559.378 715.162C574.946 728.135 592.243 749.757 601.757 765.324C714.189 716.027 821.432 632.135 882.838 532.676M152.892 265.432L152.892 525.757C152.892 625.216 148.568 754.946 100.135 847.486C110.514 855.270 133.865 878.622 141.649 890.730C198.730 789.541 209.108 634.730 209.108 525.757L209.108 317.324L507.486 317.324C501.432 338.946 493.649 359.703 486.730 376.135L534.297 388.243C549 358.838 564.568 313.865 576.676 273.216L538.622 263.703L528.243 265.432L379.486 265.432L379.486 207.486L551.595 207.486L551.595 156.459L379.486 156.459L379.486 101.973L318.946 101.973L318.946 265.432M310.297 325.108L310.297 405.541L222.946 417.649L231.595 468.676L310.297 458.297L310.297 490.297C310.297 544.784 326.730 557.757 389.865 557.757C402.838 557.757 478.946 557.757 492.784 557.757C539.486 557.757 555.054 540.459 561.108 476.459C545.541 472.135 523.919 465.216 511.811 456.568C510.081 503.270 506.622 511.054 485.865 511.054C470.297 511.054 408.027 511.054 395.919 511.054C369.973 511.054 365.649 507.595 365.649 489.432L365.649 446.189L490.189 428.892L482.405 383.054L365.649 398.622L365.649 325.108M286.081 600.135C284.351 733.324 273.973 805.973 203.919 850.081C216.892 861.324 235.054 882.946 241.108 897.649C316.351 850.081 336.243 773.108 341.432 650.297L430.514 650.297L430.514 786.081C430.514 857 459.054 875.162 561.108 875.162C581.865 875.162 755.703 875.162 779.054 875.162C870.730 875.162 890.622 844.892 900.135 718.622C882.838 714.297 857.757 705.649 843.054 695.270C837.865 802.514 830.081 818.946 776.459 818.946C737.541 818.946 590.514 818.946 561.973 818.946C501.432 818.946 489.324 813.757 489.324 786.081L489.324 600.135"/></svg>