<svg xmlns="http://www.w3.org/2000/svg" viewBox="0 0 1000 1000" fill="currentColor"><path d="M226.017 109.624L226.017 890.091L288.013 890.091L288.013 109.624M141.941 273.531C138.544 344.019 124.106 437.437 100.327 491.790L151.282 511.323C175.911 450.176 191.197 352.512 192.896 280.325M292.259 265.887C316.038 315.144 343.214 381.386 353.406 421.301L403.512 395.824C392.471 357.607 364.446 293.913 338.968 245.505M752.556 208.138C722.832 262.490 681.219 309.200 631.113 347.416C583.554 308.350 545.338 261.641 518.161 208.138M406.909 152.087L406.909 208.138L467.206 208.138L457.015 211.535C487.588 277.777 529.202 335.527 581.006 382.236C510.518 426.397 429.839 456.121 347.461 473.106C360.200 486.694 372.938 511.323 379.732 526.609C468.904 504.529 554.679 471.408 630.263 422.151C694.807 468.860 772.089 502.830 858.713 524.062C868.055 507.076 885.890 481.599 900.327 468.860C817.100 452.724 744.064 423.849 682.068 383.934C750.008 328.732 805.210 257.395 838.331 167.374L797.567 148.690L786.527 152.087M598.841 511.323L598.841 604.741L399.265 604.741L399.265 662.490L598.841 662.490L598.841 806.864L359.350 806.864L359.350 864.614L890.136 864.614L890.136 806.864L662.535 806.864L662.535 662.490L857.015 662.490L857.015 604.741L662.535 604.741L662.535 511.323"/></svg>