<svg xmlns="http://www.w3.org/2000/svg" viewBox="0 0 1000 1000" fill="currentColor"><path d="M425.623 152.865L425.623 213.145L888.917 213.145L888.917 152.865M396.344 791.832L396.344 852.973L900.112 852.973L900.112 791.832M523.793 529.184L781.274 529.184L781.274 649.744L523.793 649.744M523.793 355.234L781.274 355.234L781.274 474.932L523.793 474.932M461.791 297.537L461.791 707.440L845.860 707.440L845.860 297.537M243.922 104.642L243.922 270.842L119.057 270.842L119.057 331.122L237.895 331.122C210.338 449.098 156.086 586.019 100.112 658.355C112.168 673.856 127.668 702.273 134.558 721.219C175.031 663.522 213.783 570.519 243.922 474.071L243.922 896.030L304.202 896.030L304.202 447.376C328.314 490.433 354.149 542.101 365.343 569.658L405.817 523.156C391.178 498.183 326.592 398.291 304.202 367.290L304.202 331.122L398.928 331.122L398.928 270.842L304.202 270.842L304.202 104.642"/></svg>