<svg xmlns="http://www.w3.org/2000/svg" viewBox="0 0 1000 1000" fill="currentColor"><path d="M323.755 639.250L323.755 806.531C323.755 875.003 347.157 893.205 437.298 893.205C455.499 893.205 581.177 893.205 601.112 893.205C677.385 893.205 697.320 866.336 705.120 751.926C686.919 747.593 660.050 738.059 646.182 727.658C641.848 820.399 634.914 834.267 595.911 834.267C567.309 834.267 462.433 834.267 441.632 834.267C396.561 834.267 387.894 829.933 387.894 806.531L387.894 639.250M394.828 611.515C453.766 642.717 527.439 691.255 562.975 725.924L605.445 679.120C569.042 645.317 494.503 599.380 436.431 570.778M702.520 659.185C757.991 725.924 816.063 816.932 839.465 875.003L900.137 846.401C875.001 787.463 814.329 699.055 758.858 634.050M213.679 646.184C191.144 712.056 150.407 792.663 100.137 842.067L157.341 875.870C208.479 822.132 245.749 737.192 271.751 668.719M407.829 266.553C389.627 328.958 361.892 380.095 327.222 421.699C295.153 404.364 260.483 386.163 226.680 369.694C244.015 339.359 262.217 303.822 279.551 266.553M144.340 390.496C192.011 412.165 240.548 437.300 285.619 464.169C235.348 506.639 174.676 536.975 106.204 556.910C120.072 566.444 143.473 589.846 152.141 603.714C223.213 580.312 286.485 546.509 339.356 497.105C371.426 517.040 399.161 537.842 421.697 556.043L466.767 510.106C443.365 491.905 413.896 471.970 380.093 452.035C426.897 393.963 461.567 317.690 482.368 219.749L444.232 205.881L432.098 207.614L306.420 207.614C319.421 176.412 331.556 146.076 341.957 116.607L276.951 106.206C266.550 138.275 253.549 172.945 238.815 207.614L112.271 207.614L112.271 266.553L211.946 266.553C189.411 313.356 166.009 356.693 144.340 390.496M778.793 216.282C756.258 284.754 721.588 343.692 678.251 392.230C637.515 341.092 605.445 282.154 584.644 216.282M496.236 157.343L496.236 216.282L566.442 216.282L525.705 226.683C551.707 306.423 587.244 376.628 634.048 435.567C588.111 475.437 536.106 505.772 480.635 525.707C493.636 538.709 510.971 563.844 518.771 580.312C575.109 556.910 627.980 523.974 675.651 482.371C725.922 533.508 785.727 573.378 855.933 600.247C865.467 582.912 884.535 558.644 898.403 545.642C829.931 522.241 770.126 485.837 719.855 438.167C781.393 369.694 829.064 281.287 855.933 170.345L815.196 155.610L803.928 157.343"/></svg>