<svg xmlns="http://www.w3.org/2000/svg" viewBox="0 0 1000 1000" fill="currentColor"><path d="M161.810 490.381C159.270 641.069 149.958 777.365 100.011 862.868C115.249 869.640 143.185 884.878 154.190 892.497C178.741 845.937 194.825 786.677 204.984 719.799C265.937 835.778 367.524 863.714 547.841 863.714L873.767 863.714C878 845.090 889.005 815.460 900.011 801.069C846.677 803.608 588.476 803.608 546.995 802.762C467.418 802.762 404.772 796.836 355.672 778.212L355.672 605.513L493.661 605.513L493.661 549.640L355.672 549.640L355.672 423.503L502.127 423.503L502.127 365.937L342.127 365.937L342.127 259.270L480.963 259.270L480.963 202.550L342.127 202.550L342.127 107.735L282.021 107.735L282.021 202.550L140.646 202.550L140.646 259.270L282.021 259.270L282.021 365.937L118.635 365.937L118.635 423.503L297.259 423.503L297.259 746.042C260.857 717.259 235.460 674.085 215.989 611.439C218.529 574.190 221.069 535.249 221.915 494.614M541.915 381.175L541.915 658C541.915 729.958 565.619 748.582 645.196 748.582C662.127 748.582 775.566 748.582 794.190 748.582C866.148 748.582 884.772 717.259 892.392 597.048C875.460 592.815 849.217 582.656 835.672 571.651C831.439 674.085 826.360 691.016 789.958 691.016C763.714 691.016 669.746 691.016 651.122 691.016C610.487 691.016 602.868 685.937 602.868 658L602.868 437.894L783.185 437.894L783.185 459.058L844.138 459.058L844.138 147.524L533.450 147.524L533.450 203.397L783.185 203.397L783.185 381.175"/></svg>