<svg xmlns="http://www.w3.org/2000/svg" viewBox="0 0 1000 1000" fill="currentColor"><path d="M373.474 100.175C314.702 128.246 213.825 153.684 126.982 169.474C134.877 184.386 143.649 207.193 147.158 221.228C178.737 215.965 212.070 210.702 245.404 202.807L245.404 344.912L125.228 344.912L125.228 406.316L230.491 406.316C202.421 505.439 151.544 620.351 105.053 683.509C115.579 700.175 133.123 727.368 139.263 746.667C177.860 692.281 215.579 604.561 245.404 516.842L245.404 900.175L304.175 900.175L304.175 497.544C330.491 537.018 362.947 587.895 375.228 614.211L415.579 559.825C398.912 538.772 326.982 448.421 304.175 425.614L304.175 406.316L416.456 406.316L416.456 344.912L304.175 344.912L304.175 189.649C344.526 179.123 383.123 166.842 415.579 152.807M454.175 134.386L454.175 460.702C454.175 588.772 445.404 751.053 353.298 865.088C366.456 871.228 391.018 889.649 399.789 900.175C498.035 781.754 512.070 597.544 512.070 460.702L512.070 193.158L838.386 193.158L838.386 822.105C838.386 835.263 834 839.649 821.719 839.649C810.316 840.526 769.088 840.526 722.596 838.772C731.368 854.561 740.140 880.877 742.772 896.667C805.053 897.544 842.772 895.789 864.702 886.140C887.509 875.614 895.404 857.193 895.404 822.982L895.404 134.386M647.158 219.474L647.158 293.158L557.684 293.158L557.684 344.035L647.158 344.035L647.158 433.509L543.649 433.509L543.649 483.509L809.439 483.509L809.439 433.509L698.912 433.509L698.912 344.035L791.018 344.035L791.018 293.158L698.912 293.158L698.912 219.474M560.316 555.439L560.316 800.175L610.316 800.175L610.316 760.702L787.509 760.702L787.509 555.439M610.316 604.561L737.509 604.561L737.509 710.702L610.316 710.702"/></svg>