<svg xmlns="http://www.w3.org/2000/svg" viewBox="0 0 1000 1000" fill="currentColor"><path d="M418.054 123.972L418.054 171.746L887.110 171.746L887.110 123.972M418.054 461.865L418.054 507.902L892.321 507.902L892.321 461.865M387.653 815.394L387.653 865.774L900.139 865.774L900.139 815.394M470.172 209.965L470.172 424.515L835.861 424.515L835.861 209.965M459.748 547.859L459.748 775.438L845.416 775.438L845.416 547.859M147.045 288.141C140.964 357.631 128.803 447.099 119.249 505.296L334.667 505.296C325.112 714.634 315.557 792.810 297.316 812.788C291.236 821.474 283.418 823.212 269.520 823.212C254.754 823.212 218.271 822.343 180.052 819.737C188.738 834.504 194.819 857.088 195.687 873.592C233.907 876.198 272.126 876.198 292.973 874.460C317.294 871.855 332.061 866.643 346.827 848.402C370.280 819.737 381.572 730.269 391.996 478.369C392.864 469.683 392.864 450.573 392.864 450.573L185.264 450.573L199.162 342.864L379.835 342.864L379.835 123.972L120.117 123.972L120.117 178.695L323.375 178.695L323.375 288.141M100.139 721.583L107.088 770.226C166.154 761.540 236.512 750.248 308.608 738.087L306.871 692.919L235.644 703.342L235.644 626.903L300.790 626.903L300.790 581.735L235.644 581.735L235.644 524.406L187.001 524.406L187.001 581.735L119.249 581.735L119.249 626.903L187.001 626.903L187.001 710.291M525.763 335.047L624.786 335.047L624.786 385.427L525.763 385.427M676.035 335.047L777.663 335.047L777.663 385.427L676.035 385.427M525.763 249.053L624.786 249.053L624.786 298.565L525.763 298.565M676.035 249.053L777.663 249.053L777.663 298.565L676.035 298.565M515.340 679.021L624.786 679.021L624.786 734.612L515.340 734.612M676.035 679.021L787.218 679.021L787.218 734.612L676.035 734.612M515.340 587.815L624.786 587.815L624.786 642.539L515.340 642.539M676.035 587.815L787.218 587.815L787.218 642.539L676.035 642.539"/></svg>