<svg xmlns="http://www.w3.org/2000/svg" viewBox="0 0 1000 1000" fill="currentColor"><path d="M509.814 470.581L780.796 470.581L780.796 532.717L509.814 532.717M509.814 364.433L780.796 364.433L780.796 425.706L509.814 425.706M709.167 102.944L709.167 173.710L580.580 173.710L580.580 102.944L521.033 102.944L521.033 173.710L402.803 173.710L402.803 228.079L521.033 228.079L521.033 291.078L580.580 291.078L580.580 228.079L709.167 228.079L709.167 291.941L768.714 291.941L768.714 228.079L891.260 228.079L891.260 173.710L768.714 173.710L768.714 102.944M450.268 316.968L450.268 580.182L608.196 580.182C606.470 602.620 603.881 624.195 599.566 644.044L402.803 644.044L402.803 700.139L584.895 700.139C557.279 771.768 501.184 819.233 380.365 848.575C393.310 859.794 408.844 882.232 414.885 897.766C551.238 861.520 615.100 803.699 646.168 714.810C685.866 804.562 756.632 868.424 858.466 897.766C867.096 881.369 885.219 858.068 899.890 845.123C804.960 823.548 737.646 771.768 700.537 700.139L887.808 700.139L887.808 644.044L664.291 644.044C667.743 624.195 670.332 602.620 672.058 580.182L841.206 580.182L841.206 316.968M158.574 140.916L158.574 449.006C158.574 574.141 153.396 746.741 99.890 867.561C113.698 872.739 137.862 886.547 149.081 895.177C186.190 812.329 201.724 703.591 208.628 600.894L317.366 600.894L317.366 818.370C317.366 829.589 313.914 833.041 304.421 833.041C294.928 833.904 264.723 833.904 231.929 833.041C238.833 847.712 246.600 874.465 248.326 888.273C297.517 888.273 326.859 887.410 346.708 877.917C365.694 867.561 371.735 850.301 371.735 820.096L371.735 140.916M212.943 200.463L317.366 200.463L317.366 338.543L212.943 338.543M212.943 398.090L317.366 398.090L317.366 540.484L211.217 540.484L212.943 449.006"/></svg>