<svg xmlns="http://www.w3.org/2000/svg" viewBox="0 0 1000 1000" fill="currentColor"><path d="M121.143 403.061L121.143 468.861L439.758 468.861C408.589 590.939 323.740 719.078 100.364 809.987C114.216 822.974 134.130 848.948 142.788 864.532C363.567 773.623 457.939 645.485 497.766 517.346C567.896 687.043 683.048 806.524 856.208 863.667C865.732 845.485 885.645 819.511 900.364 805.658C724.606 754.576 605.126 633.364 544.519 468.861L875.255 468.861L875.255 403.061L521.143 403.061C524.606 369.294 525.472 336.394 525.472 305.225L525.472 202.195L838.026 202.195L838.026 136.394L152.312 136.394L152.312 202.195L457.074 202.195L457.074 305.225C457.074 336.394 456.208 369.294 451.879 403.061"/></svg>