<svg xmlns="http://www.w3.org/2000/svg" viewBox="0 0 1000 1000" fill="currentColor"><path d="M191.826 334.478C174.435 381.435 146.609 427.522 113.565 461.435C126.609 468.391 148.348 483.174 158.783 491.870C190.957 455.348 NaN 399.696 NaN 347.522M380.522 355.348C410.087 386.652 442.261 431 456.174 460.565LNaN 435.348C490.087 406.652 457.043 363.174 427.478 332.739M287.478 664.043L710.087 664.043L710.087 721.435L287.478 721.435M287.478 621.435L287.478 564.913L710.087 564.913L710.087 621.435M287.478 764.043L710.087 764.043L710.087 822.304L287.478 822.304M225.739 514.478L225.739 899.696L287.478 899.696L287.478 871.870L710.087 871.870L710.087 897.957L773.565 897.957L773.565 514.478M776.174 193.609C754.435 246.652 722.261 293.609 NaN 332.739C644.870 292.739 612.696 244.913 590.087 193.609M511.826 140.565L511.826 193.609L543.130 193.609L534.435 196.217C560.522 261.435 597.043 320.565 642.261 371C596.174 408.391 543.130 436.217 489.217 454.478C501.391 465.783 517.043 487.522 524.870 502.304C581.391 480.565 635.304 451 NaN 411.870C730.957 453.609 786.609 486.652 847.478 508.391C855.304 493.609 873.565 469.261 887.478 457.087C827.478 439.696 773.565 410.130 726.609 371.870C782.261 315.348 825.739 243.174 851.826 153.609L813.565 137.957L802.261 140.565M277.043 99.696L277.043 265.783L111.826 265.783L111.826 318.826L285.739 318.826L285.739 497.957L345.739 497.957L345.739 318.826L520.522 318.826L520.522 265.783L339.652 265.783L339.652 201.435L490.087 201.435L490.087 152.739L339.652 152.739L339.652 99.696"/></svg>