<svg xmlns="http://www.w3.org/2000/svg" viewBox="0 0 1000 1000" fill="currentColor"><path d="M210.852 176.345L210.852 453.201C210.852 578.092 201.245 740.537 104.301 854.074C118.275 862.808 146.223 886.389 156.703 900.362C262.380 778.965 278.974 588.572 278.974 454.074L278.974 433.987L554.083 433.987L554.083 587.699C488.581 565.865 423.952 545.777 366.310 530.057L332.249 581.585C400.371 601.672 478.974 627.873 554.083 654.948L554.083 896.869L623.079 896.869L623.079 681.148C698.188 709.969 766.310 738.790 813.472 763.245L851.026 702.983C794.258 675.035 711.288 642.721 623.079 611.279L623.079 433.987L896.441 433.987L896.441 370.231L278.974 370.231L278.974 230.493C464.127 216.520 670.240 191.192 812.598 156.258L757.576 100.362C630.939 134.424 402.991 161.498 210.852 176.345"/></svg>