<svg xmlns="http://www.w3.org/2000/svg" viewBox="0 0 1000 1000" fill="currentColor"><path d="M152.666 147.637C202.164 173.270 266.688 216.580 297.624 245.749L331.212 191.832C299.392 162.663 233.984 122.888 185.370 99.907M105.820 387.171C156.202 411.920 218.958 452.579 249.894 479.980L284.366 425.178C251.662 397.778 187.138 359.771 138.524 338.557M128.801 838.839L177.415 883.917C221.610 801.716 275.527 692.997 316.186 600.189L273.759 555.994C229.565 655.874 170.344 770.779 128.801 838.839M341.819 564.833C370.987 595.769 402.807 639.080 418.717 667.364L462.028 636.428C446.118 609.028 412.530 568.369 382.478 537.432M639.689 562.181C667.974 593.118 700.678 637.312 717.472 666.480L760.782 635.544C743.988 607.260 710.401 566.601 680.348 534.781M298.508 746.914L321.489 799.948C379.826 772.547 453.189 736.308 524.784 700.952C517.713 781.386 510.642 818.509 500.035 830.884C493.848 839.723 486.777 842.374 474.402 841.491C462.028 842.374 434.627 841.491 403.691 838.839C412.530 854.749 417.833 878.614 418.717 894.524C450.537 896.292 481.473 897.176 500.919 894.524C522.132 892.756 537.158 886.569 550.417 868.007C574.282 837.955 583.121 745.147 592.843 472.025C593.727 463.186 593.727 442.856 593.727 442.856L406.343 442.856L417.833 349.164L588.424 349.164L588.424 125.540L348.006 125.540L348.006 182.993L527.435 182.993L527.435 291.711L366.568 291.711C362.148 358.887 352.425 444.624 343.586 499.425L535.390 499.425L528.319 643.499C443.466 683.274 357.729 723.049 298.508 746.914M601.682 743.379L623.779 796.412C682.116 769.012 754.595 733.656 825.306 698.300C819.119 783.154 812.048 822.045 801.441 834.419C794.370 844.142 787.299 845.910 774.041 845.910C760.782 845.910 728.962 845.910 694.491 842.374C703.330 858.284 709.517 882.150 710.401 898.060C745.756 899.827 780.228 900.711 800.557 898.943C823.539 896.292 838.565 890.105 852.707 871.543C875.688 841.491 885.411 746.914 895.134 472.025C895.134 463.186 895.134 442.856 895.134 442.856L689.187 442.856L699.794 349.164L883.643 349.164L883.643 125.540L629.967 125.540L629.967 182.993L823.539 182.993L823.539 291.711L647.645 291.711C643.225 358.887 633.502 444.624 624.663 499.425L835.913 499.425L829.726 640.848C744.872 680.623 659.135 719.514 601.682 743.379"/></svg>