<svg xmlns="http://www.w3.org/2000/svg" viewBox="0 0 1000 1000" fill="currentColor"><path d="M124.463 256.696L124.463 315.295L356.310 315.295C299.410 422.301 197.499 522.514 99.834 579.414C109.176 591.304 123.614 622.726 128.709 640.561C171.172 613.384 214.484 577.715 256.098 536.951L256.098 891.941L318.943 891.941L318.943 520.815C352.913 557.333 392.828 602.344 410.662 626.972L450.577 574.318C431.894 555.635 363.104 488.544 328.285 457.121C373.295 401.919 411.512 340.773 437.839 277.928L403.019 254.149L391.979 256.696M217.881 136.951C252.701 172.620 289.219 222.726 304.505 256.696L357.159 224.425C339.325 192.153 301.958 142.896 266.289 108.076M477.754 173.469L477.754 751.813C477.754 845.231 505.779 868.161 596.650 868.161C617.032 868.161 763.953 868.161 786.034 868.161C870.110 868.161 890.493 829.096 899.834 711.049C881.151 706.803 855.673 696.611 840.386 685.571C834.442 784.934 827.648 808.713 782.637 808.713C752.064 808.713 626.374 808.713 600.896 808.713C549.941 808.713 541.448 798.522 541.448 752.662L541.448 514.021L786.034 514.021L786.034 559.881L848.030 559.881L848.030 173.469M541.448 455.423L541.448 232.068L786.034 232.068L786.034 455.423"/></svg>