<svg xmlns="http://www.w3.org/2000/svg" viewBox="0 0 1000 1000" fill="currentColor"><path d="M647.892 106.654C647.892 175.052 647.892 240.853 646.160 303.190L535.338 303.190L535.338 363.797L644.429 363.797C637.502 547.346 614.126 698.861 530.143 802.758L530.143 780.247L357.848 794.100L357.848 733.494L514.558 733.494L514.558 687.606L357.848 687.606L357.848 635.658L532.740 635.658L532.740 588.039L357.848 588.039L357.848 542.152L518.887 542.152L518.887 362.931L357.848 362.931L357.848 321.372L458.281 321.372L458.281 219.208L547.459 219.208L547.459 169.857L458.281 169.857L458.281 99.727L396.810 99.727L396.810 169.857L260.013 169.857L260.013 99.727L201.139 99.727L201.139 169.857L110.229 169.857L110.229 219.208L201.139 219.208L201.139 321.372L297.242 321.372L297.242 362.931L141.398 362.931L141.398 542.152L297.242 542.152L297.242 588.039L131.009 588.039L131.009 635.658L297.242 635.658L297.242 687.606L144.861 687.606L144.861 733.494L297.242 733.494L297.242 799.294L106.766 813.147L113.693 868.558L500.706 835.658L479.926 853.840C494.645 863.364 517.156 885.009 526.680 899.727C660.879 784.576 695.511 596.697 705.035 363.797L830.576 363.797C822.784 680.680 813.260 794.100 793.346 818.342C786.420 830.463 777.762 832.195 763.909 832.195C748.325 832.195 711.961 832.195 672.134 828.732C682.524 845.182 688.584 872.022 689.450 889.338C729.277 891.935 767.372 892.801 791.615 889.338C816.723 886.740 832.307 879.814 847.892 857.303C874.732 821.805 883.390 700.593 892.048 335.225C892.048 326.567 892.913 303.190 892.913 303.190L707.632 303.190C708.498 240.853 709.364 175.052 709.364 106.654M396.810 219.208L396.810 278.082L260.013 278.082L260.013 219.208M197.675 409.684L297.242 409.684L297.242 495.398L197.675 495.398M357.848 409.684L460.013 409.684L460.013 495.398L357.848 495.398"/></svg>