<svg xmlns="http://www.w3.org/2000/svg" viewBox="0 0 1000 1000" fill="currentColor"><path d="M326.118 288.096L326.118 722.749L382.588 722.749L382.588 288.096M418.524 610.663L418.524 666.278L611.893 666.278C593.925 728.738 540.877 796.332 392 844.246C405.690 856.225 423.658 877.615 432.214 892.160C561.412 844.246 625.583 783.497 656.385 721.037C688.043 785.209 744.513 851.947 861.733 886.171C869.433 869.059 886.545 845.102 900.235 833.123C766.759 798.898 714.567 727.027 692.321 666.278L886.545 666.278L886.545 610.663L683.765 610.663L683.765 593.551L683.765 498.578L858.310 498.578L858.310 443.818L552.856 443.818C561.412 421.572 569.968 399.326 576.813 376.225L518.631 362.535C496.385 436.973 458.738 510.556 411.679 559.326C426.225 567.027 451.037 583.283 463.016 592.695C485.262 567.027 507.508 534.513 526.332 498.578L621.305 498.578L621.305 592.695L621.305 610.663M464.727 144.353L464.727 199.112L743.658 199.112L727.401 301.786L416.813 301.786L416.813 357.401L885.690 357.401L885.690 301.786L789.005 301.786C797.561 253.016 805.262 196.545 811.251 146.920L766.759 141.786L756.492 144.353M268.791 108.417C231.144 240.182 170.396 371.091 100.235 458.364C111.358 473.765 129.326 507.989 134.460 523.390C155.850 496.866 176.385 466.064 196.064 432.695L196.064 891.305L256.813 891.305L256.813 316.332C285.048 254.727 309.005 189.701 328.684 124.674"/></svg>