<svg xmlns="http://www.w3.org/2000/svg" viewBox="0 0 1000 1000" fill="currentColor"><path d="M675.638 743.702C738.617 787.106 818.617 850.085 856.064 890.936L900.319 846.681C860.319 805.830 779.468 745.404 715.638 703.702M512.234 703.702C471.383 753.915 398.191 810.936 326.702 846.681C340.319 858.596 358.191 877.319 367.553 890.936C439.894 852.638 515.638 796.468 562.447 737.745M416.915 139.447L416.915 633.915L331.809 633.915L331.809 690.936L899.468 690.936L899.468 633.915L819.468 633.915L819.468 139.447M478.191 633.915L478.191 556.468L756.489 556.468L756.489 633.915M478.191 312.213L756.489 312.213L756.489 387.106L478.191 387.106M478.191 265.404L478.191 192.213L756.489 192.213L756.489 265.404M478.191 433.064L756.489 433.064L756.489 509.660L478.191 509.660M311.383 108.809C262.872 238.170 184.574 365.830 100.319 448.383C111.383 462.851 130.106 496.043 136.064 511.362C165.851 480.723 194.787 444.979 222.872 405.830L222.872 888.383L284.149 888.383L284.149 309.660C317.340 250.936 347.979 188.809 371.809 126.681"/></svg>