<svg xmlns="http://www.w3.org/2000/svg" viewBox="0 0 1000 1000" fill="currentColor"><path d="M395.159 143.143L395.159 450.835L830.262 450.835L830.262 143.143M434.163 554.844L434.163 651.919L370.891 651.919L370.891 554.844M476.633 554.844L543.372 554.844L543.372 651.919L476.633 651.919M370.891 698.723L434.163 698.723L434.163 798.398L370.891 798.398M543.372 698.723L543.372 798.398L476.633 798.398L476.633 698.723M324.087 507.173L324.087 887.672L370.891 887.672L370.891 846.068L543.372 846.068L543.372 879.871L591.042 879.871L591.042 507.173M741.855 554.844L741.855 651.919L676.849 651.919L676.849 554.844M784.325 554.844L851.931 554.844L851.931 651.919L784.325 651.919M676.849 698.723L741.855 698.723L741.855 798.398L676.849 798.398M851.931 698.723L851.931 798.398L784.325 798.398L784.325 698.723M630.046 507.173L630.046 887.672L676.849 887.672L676.849 846.068L851.931 846.068L851.931 879.871L899.601 879.871L899.601 507.173M454.964 319.091L580.641 319.091L580.641 401.431L454.964 401.431M640.446 319.091L767.857 319.091L767.857 401.431L640.446 401.431M454.964 191.680L580.641 191.680L580.641 273.154L454.964 273.154M640.446 191.680L767.857 191.680L767.857 273.154L640.446 273.154M285.950 103.273C244.347 236.751 175.008 369.362 99.601 455.169C110.869 471.637 127.337 507.173 134.271 521.908C162.873 488.105 189.742 449.102 215.744 406.632L215.744 896.339L276.416 896.339L276.416 293.956C303.285 237.618 326.687 178.679 345.755 119.741"/></svg>