<svg xmlns="http://www.w3.org/2000/svg" viewBox="0 0 1000 1000" fill="currentColor"><path d="M540.103 130.983C566.598 174.573 590.530 233.547 598.222 272.863L653.778 252.350C645.231 213.034 620.444 155.769 591.385 113.034M803.350 106.197C789.675 150.641 762.325 214.744 740.957 254.915L793.949 269.444C816.171 230.983 841.812 172.863 864.889 121.581M509.333 631.838L509.333 692.521L670.872 692.521L670.872 894.231L732.410 894.231L732.410 692.521L899.932 692.521L899.932 631.838L732.410 631.838L732.410 507.906L865.744 507.906L865.744 448.077L732.410 448.077L732.410 332.692L881.128 332.692L881.128 273.718L528.991 273.718L528.991 332.692L670.872 332.692L670.872 448.077L540.957 448.077L540.957 507.906L670.872 507.906L670.872 631.838M409.333 346.368L409.333 431.838L291.385 431.838C297.368 404.487 302.496 376.282 306.769 346.368M157.197 149.786L157.197 205.342L260.615 205.342L252.923 290.812L113.607 290.812L113.607 346.368L246.085 346.368C241.812 376.282 236.684 404.487 229.846 431.838L152.923 431.838L152.923 487.393L215.316 487.393C190.530 570.299 153.778 638.675 99.932 690.812C113.607 701.923 134.974 727.564 142.667 740.385C164.889 717.308 185.402 692.521 202.496 665.171L202.496 893.376L261.470 893.376L261.470 847.222L481.128 847.222L481.128 575.427L248.650 575.427C259.761 548.077 269.162 518.162 277.709 487.393L469.162 487.393L469.162 346.368L520.444 346.368L520.444 290.812L469.162 290.812L469.162 149.786M409.333 290.812L313.607 290.812L322.154 205.342L409.333 205.342M261.470 631.838L418.735 631.838L418.735 790.812L261.470 790.812"/></svg>