<svg xmlns="http://www.w3.org/2000/svg" viewBox="0 0 1000 1000" fill="currentColor"><path d="M208.528 132.030C241.429 167.528 275.195 216.013 289.913 248.913L344.459 215.147C328.009 183.978 292.511 137.225 258.745 103.459M122.814 250.645L122.814 310.385L345.325 310.385C290.779 418.610 193.810 522.506 100.303 579.649C109.827 591.771 123.680 624.671 128.874 642.853C166.970 616.879 205.931 584.844 243.160 546.749L243.160 897.398L306.364 897.398L306.364 524.238C339.264 560.602 378.225 607.355 397.273 632.463L437.965 578.784C419.784 559.736 353.117 492.203 318.485 460.169C362.641 403.026 400.736 338.957 426.710 273.156L391.212 248.048L379.957 250.645M484.719 192.636L484.719 422.939C484.719 551.944 476.926 729.433 397.273 856.706C413.723 863.632 443.160 881.814 455.281 893.069C534.935 765.797 549.654 580.515 551.385 444.584L708.961 444.584L708.961 896.532L774.762 896.532L774.762 444.584L900.303 444.584L900.303 381.381L551.385 381.381L551.385 240.255C665.671 220.342 788.615 192.636 876.926 158.004L820.649 106.056C742.727 138.957 605.931 171.857 484.719 192.636"/></svg>