<svg xmlns="http://www.w3.org/2000/svg" viewBox="0 0 1000 1000" fill="currentColor"><path d="M421.838 120.351C433.081 139.378 445.189 162.730 454.703 184.351L128.649 184.351L128.649 362.514L191.784 362.514L191.784 243.162L787.676 243.162L787.676 362.514L854.270 362.514L854.270 184.351L532.541 184.351C522.162 158.405 504.865 126.405 489.297 100.459M739.243 417C690.811 461.973 615.568 519.054 549.838 562.297C529.946 514.730 500.541 468.892 459.892 429.108C481.514 414.405 502.270 399.703 520.432 383.270L738.378 383.270L738.378 326.189L236.757 326.189L236.757 383.270L434.811 383.270C351.784 438.622 233.297 482.730 125.189 509.541C136.432 521.649 154.595 548.459 160.649 560.568C243.676 536.351 333.622 501.757 411.459 458.514C427.892 474.081 441.730 491.378 453.838 509.541C378.595 564.892 232.432 627.162 123.459 653.973C134.703 667.811 149.405 690.297 156.324 705C260.108 673 394.162 611.595 478.919 552.784C489.297 573.541 497.081 593.432 502.270 613.324C415.784 692.027 247.135 773.324 108.757 805.324C121.730 820.027 135.568 844.243 142.486 860.676C267.027 822.622 415.784 750.838 514.378 675.595C522.162 745.649 506.595 804.459 480.649 824.351C465.081 839.054 448.649 841.649 425.297 841.649C407.135 841.649 377.730 840.784 346.595 837.324C356.973 855.486 363.027 881.432 363.892 898.730C391.568 899.595 419.243 900.459 437.405 900.459C477.189 900.459 499.676 893.541 527.351 870.189C575.784 833.865 596.541 725.757 567.135 614.189L608.649 589.108C655.351 715.378 737.514 815.703 848.216 865.865C857.730 848.568 876.757 825.216 891.459 813.108C782.486 769.865 699.459 672.135 658.811 557.108C706.378 525.973 753.081 491.378 792.865 459.378"/></svg>