<svg xmlns="http://www.w3.org/2000/svg" viewBox="0 0 1000 1000" fill="currentColor"><path d="M571.299 314.823C670.866 356.381 791.212 426.511 853.550 476.727L900.303 427.377C836.234 379.758 716.753 311.359 618.052 271.532M223.247 545.991L223.247 873.264L289.913 873.264L289.913 831.706L719.351 831.706L719.351 871.532L789.481 871.532L789.481 545.991M289.913 773.697L289.913 603.134L719.351 603.134L719.351 773.697M127.143 126.078L127.143 187.550L510.693 187.550C410.260 293.177 254.416 378.892 100.303 428.242C115.022 441.229 136.667 471.532 146.190 487.117C257.879 444.693 372.165 384.952 469.134 310.494L469.134 520.883L534.935 520.883L534.935 255.082C557.446 233.437 579.091 210.926 598.139 187.550L878.658 187.550L878.658 126.078"/></svg>