<svg xmlns="http://www.w3.org/2000/svg" viewBox="0 0 1000 1000" fill="currentColor"><path d="M211.297 553.378C219.946 545.595 252.811 540.405 304.703 540.405L504.486 540.405L504.486 671.865L118.757 671.865L118.757 735.865L504.486 735.865L504.486 900.189L572.811 900.189L572.811 735.865L880.703 735.865L880.703 671.865L572.811 671.865L572.811 540.405L808.054 540.405L808.054 479L572.811 479L572.811 346.676L504.486 346.676L504.486 479L282.216 479C318.541 424.514 356.595 361.378 391.189 293.054L865.135 293.054L865.135 229.919L422.324 229.919C439.622 193.595 456.054 157.270 470.757 120.081L397.243 100.189C382.541 143.432 364.378 188.405 345.351 229.919L132.595 229.919L132.595 293.054L315.946 293.054C286.541 351.865 260.595 398.568 247.622 417.595C223.405 455.649 206.108 481.595 187.081 486.784C195.730 504.946 207.838 538.676 211.297 553.378"/></svg>