<svg xmlns="http://www.w3.org/2000/svg" viewBox="0 0 1000 1000" fill="currentColor"><path d="M430.841 650.080C471.141 696.383 514.871 760.691 532.878 802.706L587.755 770.123C568.891 728.966 523.446 667.229 484.003 622.642M293.650 106.458C256.779 167.337 179.609 239.362 112.728 283.092C122.160 295.954 139.309 321.677 146.168 336.254C221.624 284.807 303.939 205.064 353.671 130.466M594.614 109.030L594.614 216.211L405.975 216.211L405.975 274.518L594.614 274.518L594.614 383.414L355.386 383.414L355.386 442.578L715.514 442.578L715.514 538.612L365.675 538.612L365.675 597.776L715.514 597.776L715.514 815.568C715.514 826.715 711.227 831.002 697.508 831.002C683.789 831.860 635.772 832.717 584.325 830.145C592.899 848.151 603.189 874.732 605.761 891.881C672.642 891.881 716.372 891.881 743.810 881.592C770.391 871.302 778.966 853.296 778.966 815.568L778.966 597.776L893.864 597.776L893.864 538.612L778.966 538.612L778.966 442.578L899.866 442.578L899.866 383.414L658.923 383.414L658.923 274.518L855.279 274.518L855.279 216.211L658.923 216.211L658.923 109.030M308.226 295.954C259.352 384.271 177.036 472.588 99.866 529.180C111.013 544.614 129.019 578.055 134.164 592.631C166.747 565.193 201.045 532.610 233.628 497.454L233.628 892.738L295.364 892.738L295.364 423.714C321.088 389.416 345.096 353.403 364.818 318.248"/></svg>