<svg xmlns="http://www.w3.org/2000/svg" viewBox="0 0 1000 1000" fill="currentColor"><path d="M584.257 534.429C618.086 565.514 656.486 609.400 674.771 638.657L722.314 610.314C703.114 581.971 663.800 539 629.057 509.743M251.457 647.800L251.457 706.314L753.400 706.314L753.400 647.800L527.571 647.800L527.571 493.286L712.257 493.286L712.257 433.857L527.571 433.857L527.571 303.114L734.200 303.114L734.200 241.857L264.257 241.857L264.257 303.114L462.657 303.114L462.657 433.857L289.857 433.857L289.857 493.286L462.657 493.286L462.657 647.800M121.629 100.143L121.629 900.143L191.114 900.143L191.114 854.429L806.429 854.429L806.429 900.143L878.657 900.143L878.657 100.143M191.114 790.429L191.114 164.143L806.429 164.143L806.429 790.429"/></svg>