<svg xmlns="http://www.w3.org/2000/svg" viewBox="0 0 1000 1000" fill="currentColor"><path d="M145.448 164.483C196.310 189.483 258.379 229.138 287.690 260.172L325.621 206.724C295.448 178.276 232.517 140.345 181.655 117.069M99.759 392.931C154.069 416.207 219.586 455 250.621 485.172L288.552 430.862C255.793 402.414 188.552 365.345 135.103 343.793M111.828 849.828L169.586 887.759C212.690 806.724 262.690 698.966 299.759 606.724L247.172 569.655C206.655 667.931 151.483 782.586 111.828 849.828M576.483 116.207C587.690 139.483 599.759 167.931 607.517 192.931L354.931 192.931L354.931 425.690C354.931 556.724 347.172 737.759 260.103 866.207C275.621 871.379 302.345 886.034 314.414 897.241C403.207 763.621 417 565.345 417 426.552L417 248.966L885.966 248.966L885.966 192.931L673.897 192.931C666.138 165.345 651.483 130 635.103 102.414M513.552 272.241L513.552 341.207L423.034 341.207L423.034 394.655L513.552 394.655L513.552 529.138L790.276 529.138L790.276 394.655L878.207 394.655L878.207 341.207L790.276 341.207L790.276 272.241L729.931 272.241L729.931 341.207L571.310 341.207L571.310 272.241M729.931 394.655L729.931 477.414L571.310 477.414L571.310 394.655M762.690 630.862C735.966 675.690 698.897 712.759 654.931 743.793C611.828 712.759 577.345 674.828 552.345 630.862M797.172 577.414L784.241 578.276L439.414 578.276L439.414 630.862L488.552 630.862C516.138 687.759 554.069 736.034 601.483 775.690C539.414 808.448 467.862 830.862 395.448 843.793C406.655 857.586 421.310 881.724 426.483 897.241C506.655 879.138 584.241 852.414 652.345 812.759C710.966 850.690 780.793 878.276 860.103 894.655C868.724 878.276 885.966 854.138 899.759 841.207C826.483 829.138 761.828 806.724 706.655 776.552C767.862 730 817 669.655 847.172 592.931L808.379 574.828"/></svg>