<svg xmlns="http://www.w3.org/2000/svg" viewBox="0 0 1000 1000" fill="currentColor"><path d="M257.486 451.189L257.486 900.054L323.216 900.054L323.216 870.649L741.811 870.649L741.811 898.324L805.811 898.324L805.811 684.703L323.216 684.703L323.216 625.027L759.973 625.027L759.973 451.189M741.811 819.622L323.216 819.622L323.216 735.730L741.811 735.730M455.541 291.189C465.054 308.486 474.568 328.378 482.351 346.541L162.351 346.541L162.351 489.243L225.486 489.243L225.486 397.568L800.622 397.568L800.622 489.243L866.351 489.243L866.351 346.541L548.946 346.541C541.162 324.919 526.459 298.973 513.486 279.081M323.216 501.351L696.838 501.351L696.838 575.730L323.216 575.730M219.432 100.054C197.811 175.297 159.757 248.811 112.189 297.243C128.622 305.027 155.432 319.730 168.405 328.378C193.486 299.838 216.838 262.649 238.459 222L298.135 222C317.162 254 336.189 292.919 343.973 318L399.324 298.973C392.405 278.216 377.703 248.811 361.270 222L493.595 222L493.595 174.432L260.081 174.432C268.730 153.676 276.514 132.919 282.568 112.162M585.270 101.784C569.703 164.919 539.432 225.459 500.514 266.973C516.081 274.757 542.892 288.595 554.135 297.243C572.297 276.486 589.595 251.405 604.297 222.865L665.703 222.865C691.649 254.865 716.730 295.514 727.973 320.595L780.730 297.243C771.216 276.486 753.054 248.811 733.162 222.865L887.973 222.865L887.973 174.432L626.784 174.432C635.432 154.541 642.351 133.784 648.405 113.027"/></svg>