<svg xmlns="http://www.w3.org/2000/svg" viewBox="0 0 1000 1000" fill="currentColor"><path d="M188.145 130.115C213.924 165.346 244.858 214.325 259.466 243.541L313.602 213.466C298.134 184.250 266.340 139.567 239.702 104.336M451.947 149.879L451.947 206.592L584.278 206.592C581.700 237.526 579.122 267.602 574.826 296.817L412.420 296.817L412.420 355.249L566.233 355.249C561.077 387.902 554.203 418.837 545.610 448.053L444.214 448.053L444.214 505.625L527.565 505.625C493.193 598.429 441.636 671.468 363.440 723.885C377.189 735.056 400.390 758.257 408.983 770.287C445.932 742.789 476.867 710.996 503.505 675.765L503.505 894.025L563.655 894.025L563.655 855.357L796.523 855.357L796.523 894.025L860.111 894.025L860.111 591.554L554.203 591.554C567.952 564.916 579.122 535.700 589.434 505.625L841.206 505.625L841.206 355.249L899.638 355.249L899.638 296.817L841.206 296.817L841.206 149.879M563.655 798.643L563.655 649.127L796.523 649.127L796.523 798.643M777.619 355.249L777.619 448.053L605.760 448.053C613.494 418.837 620.368 387.902 625.524 355.249M777.619 296.817L634.976 296.817C638.414 267.602 641.851 237.526 644.429 206.592L777.619 206.592M378.908 415.400C364.300 442.038 340.240 477.269 317.898 505.625L292.119 476.409C329.069 413.681 361.722 345.797 383.204 276.194L348.832 254.712L336.802 257.290L117.683 257.290L117.683 316.581L308.446 316.581C262.903 434.304 180.411 550.308 99.638 616.474C109.950 627.644 127.995 656.860 134.010 673.187C163.226 646.549 193.301 614.755 222.517 577.806L222.517 895.743L284.386 895.743L284.386 541.715C313.602 581.243 348.832 631.082 363.440 657.720L402.968 613.037L344.536 538.278C368.596 510.781 395.234 476.409 417.576 444.615"/></svg>