<svg xmlns="http://www.w3.org/2000/svg" viewBox="0 0 1000 1000" fill="currentColor"><path d="M438.914 386.733C476 421.170 518.384 471.501 536.044 505.055L581.077 474.150C562.534 441.479 519.267 393.797 481.298 360.243M152.821 146.556C196.088 173.046 251.717 213.664 278.208 241.038L318.826 189.823C291.453 162.450 234.940 124.481 192.556 99.757M108.671 389.382C154.587 414.989 213.748 453.841 242.004 480.331L279.974 427.351C250.834 400.861 190.790 364.658 145.757 341.700M136.044 844.128L195.205 882.097C234.940 805.276 279.091 705.497 313.528 620.728L260.547 582.759C222.578 675.475 172.247 780.552 136.044 844.128M338.252 283.422L338.252 852.075L829.201 852.075L829.201 899.757L891.894 899.757L891.894 288.720L829.201 288.720L829.201 792.914L402.711 792.914L402.711 283.422M590.790 293.135L590.790 499.757C526.331 547.439 461.872 594.238 418.605 623.377L450.393 671.943C492.777 640.155 542.225 602.185 590.790 563.333L590.790 685.188C590.790 694.901 588.141 696.667 577.545 697.550C567.832 697.550 534.278 697.550 498.958 696.667C506.022 713.444 514.852 736.402 517.501 753.179C567.832 753.179 602.269 752.296 623.461 742.583C645.536 732.870 651.717 716.976 651.717 685.188L651.717 545.673C705.581 587.174 760.327 636.623 789.466 671.060L829.201 632.208C801.828 601.302 754.146 559.801 705.581 522.715C740.901 483.863 780.636 434.415 813.307 390.265L766.508 354.945C741.784 396.446 701.166 452.075 666.728 493.576L651.717 482.980L651.717 317.859C723.241 276.358 798.296 215.430 848.627 157.152L806.243 126.247L792.115 129.779L379.753 129.779L379.753 191.589L732.071 191.589C691.453 229.558 639.355 267.528 590.790 293.135"/></svg>