<svg xmlns="http://www.w3.org/2000/svg" viewBox="0 0 1000 1000" fill="currentColor"><path d="M772.310 406.586L772.310 505.724L499.034 505.724L499.034 406.586M772.310 350.552L499.034 350.552L499.034 258.310L772.310 258.310M434.379 899.690L435.241 898.828C450.759 887.621 477.483 875.552 643 818.655C639.552 805.724 635.241 780.724 635.241 763.483L499.034 806.586L499.034 562.621L591.276 562.621C639.552 709.172 728.345 825.552 855.931 883.310C865.414 866.069 884.379 841.931 899.034 829.862C837.828 806.586 785.241 767.793 743 718.655C786.966 692.793 837.828 659.172 875.759 626.414L833.517 584.172C802.483 612.621 752.483 647.966 709.379 674.690C686.103 641.069 667.138 603.138 652.483 562.621L835.241 562.621L835.241 201.414L683.517 201.414C673.172 171.241 654.207 130.724 636.966 99.690L580.069 116.069C593 141.931 606.793 173.828 617.138 201.414L436.966 201.414L436.966 778.138C436.966 817.793 415.414 841.069 401.621 851.414C411.966 860.897 427.483 884.172 434.379 897.966M100.759 741.069L118 802.276C193 775.552 291.276 740.207 383.517 706.586L373.172 647.103L276.621 681.586L276.621 472.966L366.276 472.966L366.276 412.621L276.621 412.621L276.621 223.828L385.241 223.828L385.241 163.483L105.931 163.483L105.931 223.828L218 223.828L218 412.621L118.862 412.621L118.862 472.966L218 472.966L218 702.276"/></svg>