<svg xmlns="http://www.w3.org/2000/svg" viewBox="0 0 1000 1000" fill="currentColor"><path d="M662.366 483.526L662.366 596.067L517.546 596.067L517.546 483.526M637.067 125.838C661.494 165.096 685.921 218.313 696.390 254.082L533.250 254.082C555.932 208.716 575.125 161.606 590.829 117.986L526.270 100.538C495.736 201.737 432.923 329.109 359.640 409.371C371.854 420.712 390.174 444.267 399.771 458.226C418.964 437.288 438.157 412.860 455.605 387.561L455.605 899.665L517.546 899.665L517.546 835.979L899.662 835.979L899.662 774.911L724.308 774.911L724.308 655.390L866.510 655.390L866.510 596.067L724.308 596.067L724.308 483.526L866.510 483.526L866.510 424.202L724.308 424.202L724.308 313.406L889.193 313.406L889.193 254.082L700.752 254.082L755.714 229.654C744.373 194.758 718.201 142.413 692.901 103.155M662.366 424.202L517.546 424.202L517.546 313.406L662.366 313.406M662.366 655.390L662.366 774.911L517.546 774.911L517.546 655.390M99.662 692.904L125.834 758.335C204.351 724.311 306.423 678.073 401.516 634.453L387.557 576.001L281.123 620.494L281.123 368.368L385.812 368.368L385.812 306.426L281.123 306.426L281.123 106.644L218.310 106.644L218.310 306.426L106.641 306.426L106.641 368.368L218.310 368.368L218.310 646.666C172.944 664.987 132.814 680.690 99.662 692.904"/></svg>