<svg xmlns="http://www.w3.org/2000/svg" viewBox="0 0 1000 1000" fill="currentColor"><path d="M195.920 134.663C223.299 169.743 255.813 217.658 272.070 248.460L325.973 214.235C308.861 186 276.348 140.652 247.257 106.428M115.492 258.727L115.492 318.620L315.706 318.620C266.080 424.717 179.663 535.947 100.091 600.118C111.214 611.241 129.182 644.610 136.027 662.578C168.540 633.487 202.765 597.551 235.278 556.481L235.278 893.594L294.316 893.594L294.316 537.658C330.251 579.583 375.599 635.198 394.422 663.433L431.214 614.663L423.513 606.107L584.369 606.107C536.455 687.390 458.594 765.251 382.444 804.610C396.989 816.588 415.813 838.834 426.080 855.091C495.385 812.310 565.545 737.016 615.171 654.877L615.171 893.594L677.631 893.594L677.631 646.321C726.401 725.893 794.850 805.465 855.599 849.957C866.722 834.556 885.545 812.310 900.091 801.187C833.353 760.973 758.059 682.257 711 606.107L894.957 606.107L894.957 548.781L677.631 548.781L677.631 476.909L851.321 476.909L851.321 143.219L447.471 143.219L447.471 476.909L615.171 476.909L615.171 548.781L414.102 548.781L414.102 595.840L358.487 536.802C383.299 512.845 411.535 483.754 437.203 456.374L396.134 423.861C379.877 447.818 353.353 480.332 330.251 506.856L296.027 474.342C337.096 413.594 372.176 347.711 397.845 282.684L361.053 256.160L349.075 258.727M505.652 335.733L618.594 335.733L618.594 424.717L505.652 424.717M675.064 335.733L791.428 335.733L791.428 424.717L675.064 424.717M505.652 196.267L618.594 196.267L618.594 283.540L505.652 283.540M675.064 196.267L791.428 196.267L791.428 283.540L675.064 283.540"/></svg>