<svg xmlns="http://www.w3.org/2000/svg" viewBox="0 0 1000 1000" fill="currentColor"><path d="M315.493 295.873L676.579 295.873L676.579 380.941L315.493 380.941M315.493 158.317L676.579 158.317L676.579 241.575L315.493 241.575M249.430 100.398L249.430 438.860L744.452 438.860L744.452 100.398M191.511 705.828L390.606 705.828L390.606 808.995L191.511 808.995M191.511 652.434L191.511 560.127L390.606 560.127L390.606 652.434M127.258 500.398L127.258 900.398L191.511 900.398L191.511 867.819L390.606 867.819L390.606 894.968L457.575 894.968L457.575 500.398M601.466 705.828L803.276 705.828L803.276 808.995L601.466 808.995M601.466 652.434L601.466 560.127L803.276 560.127L803.276 652.434M537.213 500.398L537.213 900.398L601.466 900.398L601.466 867.819L803.276 867.819L803.276 894.968L872.054 894.968L872.054 500.398"/></svg>