<svg xmlns="http://www.w3.org/2000/svg" viewBox="0 0 1000 1000" fill="currentColor"><path d="M388.203 342.060C375.355 454.266 351.373 547.627 315.398 623.002C281.137 595.593 244.306 569.041 208.332 544.201C227.176 485.101 246.876 414.865 264.006 342.060M134.670 565.615C183.493 599.019 237.454 639.276 284.563 680.390C236.597 756.621 174.927 810.582 99.552 842.274C114.113 855.122 132.957 879.961 141.522 896.236C220.323 857.692 284.563 802.874 335.099 724.929C364.221 753.195 389.916 780.604 407.047 804.587L453.300 754.051C432.743 728.355 402.764 697.520 367.647 666.685C414.756 570.754 444.734 447.413 457.582 287.242L416.469 280.390L404.478 282.103L278.567 282.103C291.415 222.146 303.407 162.188 311.116 107.370L243.450 103.088C236.597 157.906 225.463 220.433 211.758 282.103L110.687 282.103L110.687 342.060L198.910 342.060C178.353 426.857 155.227 507.370 134.670 565.615M569.788 235.850L509.831 246.128C537.240 402.017 578.353 542.488 639.167 656.407C578.353 743.773 503.835 807.156 420.752 845.700C435.313 857.692 453.300 880.818 462.722 895.379C543.236 854.266 615.184 796.021 675.141 717.221C722.251 790.026 780.495 849.126 851.587 891.953C862.722 874.822 884.135 849.983 899.552 837.991C825.034 796.878 764.221 735.208 715.398 658.120C787.347 540.775 837.882 385.743 860.152 185.315L819.039 173.323L807.047 176.749L476.426 176.749L476.426 235.850L790.773 235.850C770.216 378.034 731.672 496.236 678.567 593.024C627.176 490.240 592.058 367.756 569.788 235.850"/></svg>