<svg xmlns="http://www.w3.org/2000/svg" viewBox="0 0 1000 1000" fill="currentColor"><path d="M147.200 285.142C144.655 360.646 130.233 444.633 99.692 490.444L142.959 511.653C177.741 459.055 190.467 369.978 191.315 291.081M361.835 247.814C347.413 300.413 317.720 376.765 294.814 424.273L334.687 441.240C360.138 395.428 390.679 325.015 415.281 265.630M604.464 467.539L604.464 528.620L442.428 528.620L442.428 577.825L604.464 577.825L604.464 632.120L452.609 632.120L452.609 680.476L604.464 680.476L604.464 739.861L408.494 739.861L408.494 789.914L604.464 789.914L604.464 890.020L666.394 890.020L666.394 789.914L862.365 789.914L862.365 739.861L666.394 739.861L666.394 680.476L819.947 680.476L819.947 632.120L666.394 632.120L666.394 577.825L830.127 577.825L830.127 528.620L666.394 528.620L666.394 467.539M732.566 246.118C707.964 284.294 675.726 318.228 638.399 348.769C601.919 319.925 571.379 286.839 548.473 251.208L552.715 246.118M573.075 110.381C535.748 193.520 467.879 268.175 394.072 316.531C407.646 325.015 431.400 343.679 440.732 353.859C464.486 336.043 488.240 315.683 511.145 292.777C534.051 325.015 562.047 354.707 593.436 381.855C526.416 425.969 450.064 458.207 375.408 476.871C386.437 488.748 400.011 510.805 405.949 525.227C485.695 502.321 567.137 466.690 638.399 417.486C702.874 464.145 780.074 498.928 861.516 520.137C870 504.866 886.967 481.112 899.692 469.235C821.644 452.268 746.988 421.727 684.210 381.855C740.201 334.347 786.013 277.507 816.554 210.487L778.378 190.975L767.349 194.368L590.891 194.368C605.313 172.311 618.038 149.405 629.067 125.651M232.036 120.561L232.036 407.305C232.036 561.706 219.311 722.046 99.692 845.057C114.115 855.238 134.475 875.598 142.959 889.172C208.282 822.152 244.761 746.648 265.122 666.054C299.056 712.714 341.474 777.189 360.138 811.123L403.404 764.463C385.589 738.164 308.388 633.817 278.696 597.337C288.028 534.559 289.724 470.084 289.724 406.457L289.724 120.561"/></svg>