<svg xmlns="http://www.w3.org/2000/svg" viewBox="0 0 1000 1000" fill="currentColor"><path d="M126.814 100.480L126.814 168.624L438.600 168.624C370.455 299.313 253.769 430.001 113.746 509.348C128.681 523.350 152.019 547.621 164.154 563.490C251.902 511.215 329.382 440.270 394.726 360.923L721.447 360.923C687.841 457.072 636.499 537.352 573.022 603.630C519.813 556.956 438.600 500.946 373.256 460.806L324.714 505.614C390.992 546.687 469.405 605.497 521.680 653.105C420.863 739.919 294.842 797.796 157.620 833.268C171.622 848.204 193.092 881.810 201.494 900.480C480.607 818.333 719.580 643.770 815.729 315.182L767.188 289.978L753.186 292.778L447.001 292.778C475.006 252.638 500.210 210.631 521.680 168.624L885.741 168.624L885.741 100.480"/></svg>