<svg xmlns="http://www.w3.org/2000/svg" viewBox="0 0 1000 1000" fill="currentColor"><path d="M576.310 118.379C591.828 160.621 609.931 217.517 616.828 251.138L683.207 233.034C675.448 199.414 656.483 145.103 640.103 103.724M350.448 254.586L350.448 317.517L498.724 317.517C493.552 531.310 477.172 740.793 314.241 852C330.621 862.345 352.172 882.172 361.655 896.828C488.379 807.172 534.931 665.793 554.759 505.448L769.414 505.448C759.931 717.517 747.862 800.276 728.034 820.103C720.276 828.724 712.517 831.310 696.138 830.448C678.897 830.448 634.069 830.448 587.517 826.138C597.862 842.517 605.621 868.379 607.345 887.345C653.034 889.069 698.724 889.931 723.724 887.345C750.448 885.621 769.414 878.724 786.655 858.897C813.379 828.724 824.586 735.621 836.655 473.552C837.517 464.931 837.517 444.241 837.517 444.241L560.793 444.241C564.241 402.862 565.966 360.621 567.690 317.517L899.586 317.517L899.586 254.586M301.310 103.724C255.621 233.897 180.621 363.207 99.586 447.690C111.655 463.207 130.621 496.828 137.517 512.345C163.379 483.897 189.241 451.138 213.379 415.793L213.379 894.241L276.310 894.241L276.310 313.207C309.931 252.862 339.241 187.345 363.379 122.690"/></svg>