<svg xmlns="http://www.w3.org/2000/svg" viewBox="0 0 1000 1000" fill="currentColor"><path d="M777.832 258.922C635.550 277.714 379.622 288.452 164.857 291.136C169.331 302.770 175.595 322.456 176.490 335.879C268.660 335.879 367.094 333.195 463.738 328.720L463.738 376.148L106.691 376.148L106.691 425.365L463.738 425.365L463.738 469.213L196.177 469.213L196.177 696.506L463.738 696.506L463.738 743.933L168.436 743.933L168.436 791.360L463.738 791.360L463.738 846.841L100.427 846.841L100.427 897.848L900.427 897.848L900.427 846.841L529.957 846.841L529.957 791.360L835.998 791.360L835.998 743.933L529.957 743.933L529.957 696.506L807.362 696.506L807.362 469.213L529.957 469.213L529.957 425.365L895.953 425.365L895.953 376.148L529.957 376.148L529.957 326.036C637.340 320.667 738.459 312.613 818.996 301.875M259.711 601.651L463.738 601.651L463.738 655.342L259.711 655.342M529.957 601.651L742.038 601.651L742.038 655.342L529.957 655.342M259.711 510.376L463.738 510.376L463.738 563.172L259.711 563.172M529.957 510.376L742.038 510.376L742.038 563.172L529.957 563.172M615.864 102.322L615.864 163.172L380.517 163.172L380.517 102.322L316.087 102.322L316.087 163.172L105.796 163.172L105.796 218.653L316.087 218.653L316.087 272.345L380.517 272.345L380.517 218.653L615.864 218.653L615.864 267.870L682.083 267.870L682.083 218.653L895.058 218.653L895.058 163.172L682.083 163.172L682.083 102.322"/></svg>