<svg xmlns="http://www.w3.org/2000/svg" viewBox="0 0 1000 1000" fill="currentColor"><path d="M186.333 879.395C220.581 865.345 269.757 862.710 748.352 824.950C765.915 852.172 780.844 877.639 791.382 900.471L854.609 866.223C814.214 788.945 729.033 672.150 649.121 585.213L590.284 613.314C630.679 658.100 672.831 712.546 709.714 765.235L274.148 796.849C340.010 723.962 407.628 632.633 465.586 536.914L894.126 536.914L894.126 471.053L532.326 471.053L532.326 305.081L829.143 305.081L829.143 239.220L532.326 239.220L532.326 100.471L462.952 100.471L462.952 239.220L173.160 239.220L173.160 305.081L462.952 305.081L462.952 471.053L105.542 471.053L105.542 536.914L383.918 536.914C327.716 636.146 253.072 730.987 229.362 757.332C203.018 788.945 182.820 809.143 163.501 813.533C172.282 831.975 182.820 865.345 186.333 879.395"/></svg>