<svg xmlns="http://www.w3.org/2000/svg" viewBox="0 0 1000 1000" fill="currentColor"><path d="M285.761 532.063C261.440 584.180 219.746 647.590 168.497 686.678L224.089 720.554C275.338 677.991 313.557 611.976 341.353 556.384M736.575 529.457C709.648 578.969 662.743 647.590 626.261 690.152L676.641 713.605C713.991 673.648 760.897 610.239 798.248 555.516M471.646 451.281C453.405 653.670 412.580 786.569 99.876 843.029C112.037 856.927 128.541 883.855 133.752 900.358C359.594 856.059 456.011 770.934 501.179 648.458C565.457 785.700 675.772 863.876 861.657 894.278C869.474 876.906 885.978 850.847 899.876 836.080C689.670 810.022 575.881 717.948 526.369 554.647C532.450 521.640 535.924 487.763 539.398 451.281M399.550 100.358C354.382 171.585 267.520 252.367 144.176 308.827C158.942 319.251 179.789 340.966 189.344 356.602C260.571 320.119 319.637 278.426 368.280 232.389L583.698 232.389C492.493 358.339 309.214 433.040 128.541 460.836C139.833 474.734 154.599 500.793 159.811 518.165C291.841 492.975 424.740 446.938 528.975 372.237C646.239 416.536 780.875 479.077 853.839 521.640L893.796 467.785C820.832 426.091 692.276 370.499 580.224 329.674C621.049 292.324 655.794 248.024 680.984 197.644L636.684 172.454L623.655 175.928L422.135 175.928C439.507 155.950 455.142 135.103 469.040 114.256"/></svg>