<svg xmlns="http://www.w3.org/2000/svg" viewBox="0 0 1000 1000" fill="currentColor"><path d="M577.212 320.506L755.567 320.506C737.385 433.926 709.680 530.030 667.255 609.684C624.831 528.299 594.528 433.061 573.749 330.030M121.801 160.333L121.801 224.403L365.091 224.403L365.091 407.952L133.056 407.952L133.056 737.823C133.056 769.857 119.203 781.113 106.216 787.173C117.472 803.623 127.861 835.658 132.190 854.706C152.104 838.255 184.139 821.805 436.087 725.701C433.489 710.983 429.160 683.277 428.294 664.229L198.857 746.481L198.857 472.022L427.429 472.022L423.100 477.216C436.952 487.606 462.926 512.714 473.316 523.970C495.827 493.667 516.606 459.035 534.788 420.939C559.030 513.580 589.333 598.429 629.160 670.290C577.212 743.017 507.948 799.294 416.173 840.853C429.160 854.706 448.208 884.143 455.134 899.727C543.446 855.571 612.710 800.160 667.255 730.896C714.874 799.294 774.615 854.706 848.208 891.935C858.597 874.619 878.511 850.377 894.095 837.390C817.039 801.892 755.567 745.615 706.216 673.753C763.359 579.381 799.723 463.364 823.100 320.506L880.242 320.506L880.242 259.900L597.991 259.900C612.710 212.281 625.697 162.065 636.087 110.983L572.017 99.727C545.177 241.719 497.558 379.381 429.160 469.424L429.160 160.333"/></svg>