<svg xmlns="http://www.w3.org/2000/svg" viewBox="0 0 1000 1000" fill="currentColor"><path d="M279.264 246.097L717.150 246.097L717.150 294.555L279.264 294.555M279.264 159.753L717.150 159.753L717.150 207.330L279.264 207.330M214.947 120.106L214.947 334.203L783.229 334.203L783.229 120.106M104.815 372.088L104.815 422.308L895.123 422.308L895.123 372.088M261.643 591.471L466.048 591.471L466.048 642.573L261.643 642.573M530.366 591.471L743.581 591.471L743.581 642.573L530.366 642.573M261.643 503.366L466.048 503.366L466.048 552.705L261.643 552.705M530.366 503.366L743.581 503.366L743.581 552.705L530.366 552.705M100.410 829.357L100.410 880.458L900.410 880.458L900.410 829.357L530.366 829.357L530.366 778.256L828.163 778.256L828.163 731.559L530.366 731.559L530.366 683.101L808.780 683.101L808.780 461.956L199.088 461.956L199.088 683.101L466.048 683.101L466.048 731.559L174.419 731.559L174.419 778.256L466.048 778.256L466.048 829.357"/></svg>