<svg xmlns="http://www.w3.org/2000/svg" viewBox="0 0 1000 1000" fill="currentColor"><path d="M433.665 330.579L433.665 385.515L816.498 385.515L816.498 330.579M151.262 167.489C201.047 194.099 264.567 235.300 296.326 262.768L334.094 211.266C302.335 184.657 237.099 146.030 188.172 121.137M99.760 403.541C150.403 427.575 216.498 464.485 250.833 488.519L286.026 435.300C251.691 411.266 184.738 376.073 134.953 355.472M127.227 833.584L183.021 875.644C227.657 799.249 280.017 697.103 319.502 610.408L270.575 569.206C225.940 661.910 167.571 770.064 127.227 833.584M463.708 103.970C431.948 199.249 377.013 292.811 312.635 352.897C327.227 361.481 352.979 381.223 364.137 392.382C397.614 357.189 431.090 312.554 459.416 261.910L891.176 261.910L891.176 205.258L489.459 205.258C502.335 177.790 514.352 149.464 524.652 120.279M353.837 456.760L353.837 515.129L728.944 515.129C732.378 743.455 743.536 894.528 834.524 895.386C882.592 894.528 894.609 855.901 899.760 754.614C886.884 746.030 869.717 730.579 857.700 716.845C855.983 784.657 852.549 835.300 840.532 835.300C795.897 835.300 790.747 670.494 790.747 456.760"/></svg>