<svg xmlns="http://www.w3.org/2000/svg" viewBox="0 0 1000 1000" fill="currentColor"><path d="M664.048 193.814L664.048 682.654L726.453 682.654L726.453 193.814M823.528 114.074L823.528 816.999C823.528 831.733 818.327 836.067 804.459 836.067C790.592 836.067 745.521 836.934 695.250 835.200C703.918 853.402 713.452 882.004 716.919 900.206C785.391 900.206 826.995 898.472 851.263 887.205C877.265 876.804 886.800 857.736 886.800 816.132L886.800 114.074M270.548 100.206C237.612 209.415 181.274 314.290 112.802 383.629C127.536 392.297 154.405 412.232 165.673 423.499L188.208 396.631L188.208 779.729C188.208 865.536 215.944 886.338 309.551 886.338C330.353 886.338 480.299 886.338 501.967 886.338C588.641 886.338 608.576 849.068 618.111 723.391C600.776 719.924 574.774 710.390 560.906 699.122C555.705 806.598 547.905 828.267 499.367 828.267C466.431 828.267 339.021 828.267 313.018 828.267C260.147 828.267 249.746 819.599 249.746 780.596L249.746 590.780L439.562 590.780L439.562 337.692L229.811 337.692C246.280 312.557 261.014 285.688 275.749 257.086L521.902 257.086C516.702 508.440 510.635 596.847 496.767 617.649C489.833 627.183 483.766 628.917 471.632 628.917C458.631 628.917 430.028 628.917 397.959 626.316C407.493 641.918 413.560 667.053 414.427 683.521C447.363 685.255 480.299 686.121 500.234 682.654C521.902 680.054 537.504 674.854 550.505 654.919C571.307 624.583 576.507 526.641 582.574 227.616C582.574 218.082 582.574 197.281 582.574 197.281L302.618 197.281C313.885 170.412 323.419 143.543 332.087 115.807M249.746 394.897L380.624 394.897L380.624 533.575L249.746 533.575"/></svg>