<svg xmlns="http://www.w3.org/2000/svg" viewBox="0 0 1000 1000" fill="currentColor"><path d="M295.318 123.021L295.318 401.133C295.318 555.639 275.575 716.155 100.468 828.601C115.918 839.760 137.378 863.794 146.820 878.386C337.378 754.781 359.695 576.240 359.695 401.991L359.695 123.021M613.773 122.163L613.773 758.215C613.773 844.052 633.515 868.086 703.901 868.086C718.494 868.086 791.455 868.086 805.189 868.086C879.009 868.086 894.459 814.009 900.468 655.210C883.300 650.918 856.691 638.901 840.382 626.026C836.948 768.515 832.657 806.283 800.897 806.283C785.446 806.283 725.361 806.283 711.627 806.283C684.159 806.283 679.009 798.558 679.009 759.073L679.009 122.163"/></svg>