<svg xmlns="http://www.w3.org/2000/svg" viewBox="0 0 1000 1000" fill="currentColor"><path d="M354.273 99.951C307.060 187.383 219.628 295.798 99.847 375.361C115.585 385.852 136.568 407.710 147.060 423.448C164.546 410.333 182.033 397.219 198.645 384.104L198.645 594.814L433.836 594.814C392.743 706.727 306.186 794.158 109.464 843.120C123.454 856.235 140.066 881.590 147.060 899.077C367.388 839.623 460.940 732.082 504.656 594.814L543.126 594.814L543.126 799.404C543.126 869.350 565.858 889.459 650.667 889.459C668.153 889.459 779.191 889.459 797.552 889.459C872.743 889.459 891.978 857.984 899.847 732.956C880.612 728.585 854.383 718.093 839.519 707.601C836.022 813.393 829.902 830.005 792.306 830.005C768.699 830.005 676.022 830.005 657.661 830.005C617.443 830.005 610.448 825.634 610.448 798.530L610.448 594.814L830.776 594.814L830.776 322.902L573.727 322.902C606.951 283.557 640.175 236.344 663.781 195.251L619.191 166.399L607.825 169.022L390.995 169.022C404.109 150.661 415.475 132.301 425.967 113.940M265.093 322.902C297.443 290.552 326.295 257.328 351.650 224.104L571.104 224.104C550.120 258.202 523.016 294.923 496.787 322.902M263.344 382.355L471.432 382.355C467.934 436.563 461.814 487.273 451.322 535.361L263.344 535.361M540.503 382.355L762.579 382.355L762.579 535.361L519.519 535.361C530.011 487.273 536.131 435.689 540.503 382.355"/></svg>