<svg xmlns="http://www.w3.org/2000/svg" viewBox="0 0 1000 1000" fill="currentColor"><path d="M220.877 108.139L220.877 280.118L112.214 280.118L112.214 340.011L220.877 340.011L220.877 526.535C175.529 540.225 133.604 553.059 100.235 561.615L116.492 624.930L220.877 590.706L220.877 814.021C220.877 826 216.599 829.422 206.332 829.422C196.064 830.278 162.695 830.278 125.904 829.422C134.460 846.535 142.160 873.059 143.872 888.460C197.775 889.316 231.144 886.749 251.679 876.481C273.070 867.070 280.770 849.102 280.770 814.021L280.770 571.027L369.754 541.936L361.198 482.898L280.770 507.711L280.770 340.011L367.187 340.011L367.187 280.118L280.770 280.118L280.770 108.139M406.545 233.914L406.545 458.086C406.545 576.160 397.134 734.449 309.005 847.390C322.695 854.235 348.364 875.626 357.775 887.604C442.481 780.652 463.872 623.219 467.294 500.011L475.850 500.011C507.508 590.706 552 668.567 609.326 732.738C550.289 782.364 482.695 819.155 410.824 841.401C423.658 854.235 439.059 878.193 446.759 893.594C521.198 867.070 591.358 828.567 652.107 775.519C710.289 826.856 778.738 866.214 858.310 891.882C867.722 874.770 886.545 849.102 900.235 836.267C821.519 814.877 754.781 778.941 698.310 732.738C764.193 661.722 816.385 570.171 845.476 455.519L806.118 440.118L794.995 443.540L664.941 443.540L664.941 293.807L806.118 293.807C795.850 334.021 783.872 374.235 772.749 402.471L829.219 415.305C848.043 372.524 869.433 302.364 885.690 242.471L839.487 231.348L829.219 233.914L664.941 233.914L664.941 107.283L602.481 107.283L602.481 233.914M602.481 293.807L602.481 443.540L468.150 443.540L468.150 293.807M768.471 500.011C742.802 574.449 702.588 638.620 653.818 690.813C603.337 636.909 563.979 572.738 536.599 500.011"/></svg>