<svg xmlns="http://www.w3.org/2000/svg" viewBox="0 0 1000 1000" fill="currentColor"><path d="M316.156 345.967L691.861 345.967L691.861 424.926L316.156 424.926M251.080 298.245L251.080 472.649L759.540 472.649L759.540 298.245M450.646 114.297L475.809 192.388L119.193 192.388L119.193 249.655L881.015 249.655L881.015 192.388L547.826 192.388C538.282 164.623 525.267 128.180 513.119 99.547M151.297 521.239L151.297 899.547L213.770 899.547L213.770 575.902L788.174 575.902L788.174 831.868C788.174 841.412 783.835 844.883 773.423 844.883C763.011 844.883 722.230 845.751 684.920 844.015C692.729 857.898 702.273 877.855 705.744 893.473C761.275 893.473 798.586 893.473 822.013 885.664C845.440 876.987 853.249 863.104 853.249 831L853.249 521.239M311.818 627.095L311.818 849.221L373.423 849.221L373.423 805.837L680.581 805.837L680.581 627.095M373.423 675.685L621.579 675.685L621.579 757.247L373.423 757.247"/></svg>