<svg xmlns="http://www.w3.org/2000/svg" viewBox="0 0 1000 1000" fill="currentColor"><path d="M251.593 488.259L251.593 588.477C251.593 667.780 237.649 774.098 125.231 857.758C141.789 869.087 164.447 888.259 174.904 900.460C269.893 829.871 302.137 741.854 312.595 660.808L586.233 660.808L586.233 893.488L653.336 893.488L653.336 660.808L852.028 660.808L852.028 602.420L316.081 602.420L316.081 590.220L316.081 537.061C472.943 525.732 643.749 505.688 766.625 476.930L714.338 429.871C604.534 454.272 417.170 476.930 251.593 488.259M573.161 139.675L645.492 178.020C608.891 220.721 560.089 257.322 503.444 287.824C446.800 260.808 397.126 229.436 359.654 194.577C391.026 171.919 419.784 147.519 443.314 123.118L383.183 100.460C326.538 155.362 232.420 209.392 147.889 243.379C161.832 254.708 184.490 280.852 194.076 293.052C232.420 274.752 273.379 252.094 312.595 226.821C349.196 260.808 391.898 290.438 439.828 317.453C340.481 359.283 222.834 387.170 100.830 405.471C114.773 418.542 134.817 447.301 142.660 462.115C270.765 438.586 398.869 403.728 506.930 351.440C613.248 400.242 736.996 433.357 861.614 451.658C870.329 435.100 886.015 409.828 899.087 395.885C784.926 381.941 670.765 354.926 571.418 316.582C621.963 286.952 666.407 251.222 703.009 210.264C749.196 237.279 791.026 264.294 818.913 285.209L865.972 239.893C809.327 199.806 699.523 139.675 616.734 100.460"/></svg>