<svg xmlns="http://www.w3.org/2000/svg" viewBox="0 0 1000 1000" fill="currentColor"><path d="M512.765 374.762L630.742 374.762C628.158 430.736 623.853 484.127 616.102 533.212L512.765 533.212M691.022 374.762L802.109 374.762L802.109 533.212L676.382 533.212C684.132 483.266 687.577 430.736 691.022 374.762M560.989 103.503C533.433 181.005 480.042 276.592 399.095 348.067C412.873 356.678 432.679 377.346 443.013 391.985L455.069 380.790L455.069 585.742L604.907 585.742C576.490 701.135 514.488 792.416 370.677 846.667C384.455 858.723 402.539 880.252 409.428 895.752C526.544 848.390 593.713 776.915 633.325 689.079L633.325 801.027C633.325 863.029 648.826 881.113 716.856 881.113C730.634 881.113 806.414 881.113 820.193 881.113C877.889 881.113 894.251 852.695 900.279 745.053C883.056 740.747 858.083 731.274 845.166 720.941C842.582 813.083 838.277 826 814.165 826C798.664 826 736.662 826 724.606 826C697.911 826 693.605 822.555 693.605 801.027L693.605 585.742L864.111 585.742L864.111 322.233L734.940 322.233C761.635 282.620 789.192 233.535 812.442 187.033L765.941 171.533L753.885 174.977L598.879 174.977C608.352 154.310 616.963 133.643 624.714 113.836M507.598 322.233C531.710 292.093 552.378 260.230 570.462 228.368L721.161 228.368C703.939 261.953 683.271 295.537 664.326 322.233M331.926 340.316C322.453 459.154 301.786 557.324 270.785 635.688C244.950 613.298 217.394 591.770 191.560 571.963C207.921 504.794 225.144 423.847 239.784 340.316M125.252 594.353C164.003 622.771 206.199 657.216 244.950 692.523C207.060 762.276 158.836 811.361 100.279 842.362C114.057 854.418 130.419 878.530 139.030 894.030C201.032 857.001 251.840 806.194 290.591 737.302C319.009 766.581 343.982 794.999 360.343 819.972L404.262 774.332C384.455 745.914 354.315 712.329 319.009 679.606C360.343 581.436 385.316 453.126 394.789 284.342L356.899 278.314L346.565 280.037L250.117 280.037C260.451 219.757 268.201 160.338 274.229 106.947L214.811 103.503C210.505 157.755 202.755 218.034 192.421 280.037L115.779 280.037L115.779 340.316L182.087 340.316C164.864 435.903 144.197 528.045 125.252 594.353"/></svg>