<svg xmlns="http://www.w3.org/2000/svg" viewBox="0 0 1000 1000" fill="currentColor"><path d="M466.906 576.225L466.906 633.307L121.006 633.307L121.006 686.981L409.824 686.981C328.035 748.323 205.351 802.849 99.707 830.112C114.191 843.743 132.082 867.599 142.306 883.786C251.358 849.707 379.153 784.957 466.906 709.984L466.906 892.306L530.804 892.306L530.804 707.428C617.705 780.698 747.204 844.595 858.813 876.970C868.184 860.783 886.076 837.780 899.707 824.148C793.211 798.589 672.231 746.619 590.442 686.981L881.816 686.981L881.816 633.307L530.804 633.307L530.804 576.225M492.465 354.712L492.465 410.942L285.437 410.942L285.437 354.712M472.870 122.977C486.502 145.980 500.985 174.947 511.209 199.654L318.663 199.654C336.555 173.243 352.742 145.980 367.226 120.421L300.772 107.641C263.285 182.614 194.276 278.035 100.559 349.601C115.043 358.120 136.342 376.864 147.417 390.495C173.829 368.344 198.536 345.341 221.539 321.486L221.539 594.116L285.437 594.116L285.437 566.853L857.961 566.853L857.961 515.735L553.807 515.735L553.807 456.949L798.323 456.949L798.323 410.942L553.807 410.942L553.807 354.712L795.767 354.712L795.767 308.706L553.807 308.706L553.807 252.476L830.698 252.476L830.698 199.654L578.514 199.654C567.439 172.391 548.695 134.904 529.952 106.789M492.465 308.706L285.437 308.706L285.437 252.476L492.465 252.476M492.465 456.949L492.465 515.735L285.437 515.735L285.437 456.949"/></svg>