<svg xmlns="http://www.w3.org/2000/svg" viewBox="0 0 1000 1000" fill="currentColor"><path d="M482.612 192.781C467.950 349.482 440.458 594.156 226.942 707.787C242.520 718.784 261.764 739.860 270.928 755.439C387.308 691.292 453.288 591.407 492.692 485.107C571.501 572.163 653.975 676.630 697.045 744.442L753.860 707.787C704.376 631.727 603.574 512.598 512.852 419.127C533.929 340.318 543.093 260.593 549.507 192.781M116.060 100.227L116.060 900.227L184.788 900.227L184.788 857.157L811.592 857.157L811.592 900.227L883.070 900.227L883.070 100.227M184.788 791.178L184.788 166.206L811.592 166.206L811.592 791.178"/></svg>