<svg xmlns="http://www.w3.org/2000/svg" viewBox="0 0 1000 1000" fill="currentColor"><path d="M556.403 407.867L782.223 407.867L782.223 575.919L556.403 575.919M884.630 145.284L489.882 145.284L489.882 870.011L899.510 870.011L899.510 806.116L556.403 806.116L556.403 637.188L844.368 637.188L844.368 345.722L556.403 345.722L556.403 210.055L884.630 210.055M190.538 100.646C175.659 209.179 149.400 315.963 105.637 386.860C120.516 394.737 147.650 411.368 159.028 421.871C181.786 382.484 201.042 332.593 216.796 277.451L271.939 277.451L271.939 416.619L271.063 458.632L121.392 458.632L121.392 520.777L266.687 520.777C255.309 634.562 215.921 758.851 99.510 853.381C112.639 861.258 137.147 885.766 145.024 899.770C229.050 831.499 277.190 743.972 303.449 655.569C341.961 704.584 397.103 776.357 419.860 812.243L462.748 758.851C440.867 732.593 351.589 624.059 319.204 590.799C324.455 567.166 327.956 543.534 329.707 520.777L460.998 520.777L460.998 458.632L334.083 458.632L334.958 418.370L334.958 277.451L439.991 277.451L439.991 217.057L232.551 217.057C240.429 182.921 247.431 147.910 252.683 112.024"/></svg>