<svg xmlns="http://www.w3.org/2000/svg" viewBox="0 0 1000 1000" fill="currentColor"><path d="M100.380 156.819C129.913 211.542 159.446 287.980 169.001 336.623L226.330 314.039C215.038 265.396 184.636 191.564 152.497 135.972M450.434 129.023C434.799 186.352 404.397 268.002 379.207 318.382L431.325 337.492C457.383 288.849 488.654 213.279 513.844 149.870M625.896 327.068L769.218 327.068C754.452 433.909 731.868 527.720 697.123 606.764C662.378 527.720 638.056 436.515 621.553 340.098M116.884 358.339L116.884 896.015L175.081 896.015L175.081 413.062L437.405 413.062L437.405 819.577C437.405 828.263 433.931 830.869 425.244 830.869C416.558 831.737 387.025 831.737 355.755 830.869C364.441 846.504 372.258 871.694 374.864 888.198C420.033 888.198 450.434 887.329 470.413 876.906C482.573 870.825 488.654 862.139 492.128 849.110C504.289 863.876 521.661 887.329 526.873 900.358C596.363 856.059 651.954 801.336 695.385 736.189C737.079 805.679 789.197 862.139 853.474 900.358C863.898 883.855 883.876 859.533 898.643 848.241C829.153 810.890 774.430 750.955 730.999 675.385C780.510 579.837 810.912 465.179 830.890 327.068L884.745 327.068L884.745 266.265L643.268 266.265C656.298 216.754 666.721 163.768 675.407 109.913L611.998 100.358C591.151 241.075 554.669 376.580 495.603 468.654L495.603 358.339L334.908 358.339L334.908 101.227L274.104 101.227L274.104 358.339M584.202 438.252C603.312 525.114 628.502 605.027 662.378 674.517C620.684 744.007 565.961 799.598 493.865 841.292L495.603 820.445L495.603 498.187C508.632 509.479 523.398 524.245 530.347 532.063C550.326 504.267 567.698 472.997 584.202 438.252M223.724 481.683L223.724 770.065L266.287 770.065L266.287 723.160L389.631 723.160L389.631 481.683M266.287 529.457L346.200 529.457L346.200 675.385L266.287 675.385"/></svg>