<svg xmlns="http://www.w3.org/2000/svg" viewBox="0 0 1000 1000" fill="currentColor"><path d="M590.519 387.638L590.519 743.685L651.308 743.685L651.308 387.638M766.806 361.585L766.806 821.842C766.806 834.868 762.464 838.342 748.570 838.342C733.807 839.210 686.913 839.210 633.940 837.474C643.492 854.842 653.913 882.631 657.387 899.999C724.254 900.868 768.543 899.131 794.595 888.710C821.516 878.289 831.069 860.052 831.069 822.711L831.069 361.585M693.860 100.194C674.755 142.746 641.755 200.061 612.230 241.745L351.707 241.745L394.259 226.113C377.759 191.377 340.417 140.141 307.418 103.668L246.629 125.378C277.892 160.983 310.023 207.877 326.523 241.745L112.026 241.745L112.026 301.665L888.384 301.665L888.384 241.745L686.044 241.745C711.228 206.140 739.017 162.720 763.333 122.773M421.179 572.609L421.179 660.318L228.393 660.318L228.393 572.609M421.179 521.373L228.393 521.373L228.393 435.400L421.179 435.400M166.735 379.822L166.735 899.131L228.393 899.131L228.393 711.554L421.179 711.554L421.179 827.921C421.179 839.210 417.706 842.684 405.548 842.684C394.259 843.553 354.312 843.553 310.023 841.816C318.707 858.315 328.260 883.499 332.602 899.999C390.785 899.999 429.864 899.131 453.311 888.710C477.626 879.157 484.573 861.789 484.573 828.790L484.573 379.822"/></svg>