<svg xmlns="http://www.w3.org/2000/svg" viewBox="0 0 1000 1000" fill="currentColor"><path d="M461.243 115.514L461.243 193.351L226 193.351L226 378.432L119.622 378.432L119.622 434.649L424.919 434.649C381.676 496.054 290.865 553.135 99.730 595.514C113.568 608.486 130 633.568 136.919 647.405C164.595 640.486 190.541 633.568 214.757 626.649L214.757 828.162L104.919 828.162L104.919 885.243L893.676 885.243L893.676 828.162L781.243 828.162L781.243 626.649C806.324 632.703 833.135 637.892 860.811 641.351C868.595 623.189 885.892 596.378 899.730 582.541C743.189 566.973 628.162 521.135 565.892 434.649L875.514 434.649L875.514 378.432L770.865 378.432L770.865 193.351L525.243 193.351L525.243 115.514M276.162 828.162L276.162 665.568L382.541 665.568L382.541 828.162M441.351 828.162L441.351 665.568L549.459 665.568L549.459 828.162M608.270 828.162L608.270 665.568L717.243 665.568L717.243 828.162M263.189 610.216C397.243 561.784 464.703 502.108 496.703 437.243C544.270 521.135 619.514 576.486 721.568 610.216M289.135 378.432L289.135 248.703L461.243 248.703L461.243 300.595C461.243 326.541 459.514 352.486 451.730 378.432M705.135 378.432L517.459 378.432C523.514 353.351 525.243 327.405 525.243 301.459L525.243 248.703L705.135 248.703"/></svg>