<svg xmlns="http://www.w3.org/2000/svg" viewBox="0 0 1000 1000" fill="currentColor"><path d="M623.207 188.803L623.207 681.808L689.710 681.808L689.710 188.803M818.281 100.133L818.281 808.606C818.281 825.453 812.074 830.773 793.454 831.660C775.720 832.547 718.084 832.547 652.468 830.773C663.109 850.281 674.636 881.315 678.183 899.936C762.419 900.823 813.848 899.049 844.882 887.522C874.143 876.882 886.557 855.601 886.557 808.606L886.557 100.133M112.468 433.532L112.468 499.148L303.109 499.148L303.109 898.163L371.384 898.163L371.384 499.148L562.912 499.148L562.912 433.532L371.384 433.532L371.384 203.876L536.311 203.876L536.311 138.261L137.296 138.261L137.296 203.876L303.109 203.876L303.109 433.532"/></svg>