<svg xmlns="http://www.w3.org/2000/svg" viewBox="0 0 1000 1000" fill="currentColor"><path d="M215.276 103.298L215.276 897.251L278.343 897.251L278.343 103.298M135.795 270.037C133.203 339.151 121.972 435.048 100.374 492.067L152.210 510.210C172.944 447.143 185.039 346.927 185.903 276.084M286.119 262.261C309.445 314.961 335.363 385.803 344.866 429L393.246 404.810C382.879 365.069 356.097 295.955 331.043 244.119M481.367 365.069L789.790 365.069L789.790 439.367L481.367 439.367M481.367 242.391L789.790 242.391L789.790 316.689L481.367 316.689M420.028 192.283L420.028 490.339L853.721 490.339L853.721 192.283L621.324 192.283C634.283 168.093 649.834 139.583 661.929 111.073L585.903 103.298C579.855 128.352 567.760 163.773 557.393 192.283M348.322 822.089L348.322 877.380L900.374 877.380L900.374 822.089L665.384 822.089L665.384 737.423L848.538 737.423L848.538 683.860L665.384 683.860L665.384 603.514L877.048 603.514L877.048 549.950L388.063 549.950L388.063 603.514L600.590 603.514L600.590 683.860L415.708 683.860L415.708 737.423L600.590 737.423L600.590 822.089"/></svg>