<svg xmlns="http://www.w3.org/2000/svg" viewBox="0 0 1000 1000" fill="currentColor"><path d="M488.903 398.613C527.613 420.118 577.505 450.226 603.312 469.151L639.441 434.742C612.774 415.817 562.022 387.430 523.312 368.505M720.301 243.774L720.301 303.989L472.559 303.989L472.559 353.022L720.301 353.022L720.301 461.409C720.301 470.871 716.860 473.452 707.398 474.312C697.935 474.312 664.387 474.312 629.118 473.452C635.140 485.495 642.882 501.839 646.323 514.742C697.935 514.742 730.624 514.742 751.269 507.860C771.914 500.978 778.796 490.656 778.796 463.129L778.796 353.022L882.882 353.022L882.882 303.989L778.796 303.989L778.796 243.774M554.280 501.839C552.559 519.903 549.118 536.247 545.677 551.731L299.656 551.731L299.656 888.935L358.151 888.935L358.151 599.903L525.892 599.903C500.946 642.054 457.075 669.581 377.075 686.785C386.538 695.387 399.441 712.591 404.602 723.774C474.280 707.430 520.731 684.204 551.699 650.656C611.914 671.301 684.172 703.129 724.602 724.634L758.151 690.226C715.140 668.720 637.720 636.892 575.785 616.247L583.527 599.903L782.237 599.903L782.237 824.419C782.237 833.882 778.796 837.323 766.753 837.323C755.570 838.183 716 839.043 669.548 837.323C676.430 851.946 684.172 872.591 686.753 887.215C747.828 887.215 789.118 888.075 812.344 878.613C835.570 870.011 840.731 855.387 840.731 824.419L840.731 551.731L599.011 551.731C602.452 536.247 605.032 519.903 606.753 501.839M548.258 688.505C526.753 740.978 476 781.409 377.935 803.774C388.258 812.376 402.882 831.301 408.903 843.344C476.860 824.419 524.172 798.613 556.860 764.204C611.054 785.710 673.849 814.957 709.118 834.742L743.527 801.194C705.677 781.409 637.720 751.301 582.667 730.656C590.409 717.753 596.430 703.129 601.591 688.505M426.108 238.613C389.118 296.247 325.462 350.441 263.527 386.570C274.710 396.892 292.774 420.978 299.656 432.161C318.581 419.258 338.366 404.634 357.290 389.151L357.290 522.484L414.065 522.484L414.065 335.817C438.151 310.011 460.516 283.344 477.720 255.817M475.140 113.022C485.462 130.226 495.785 150.871 505.247 169.796L181.806 169.796L181.806 431.301C181.806 559.473 175.785 736.677 107.828 862.269C121.591 869.151 149.118 888.935 160.301 900.118C232.559 767.645 243.742 567.215 243.742 431.301L243.742 225.710L891.484 225.710L891.484 169.796L576.645 169.796C564.602 148.290 549.978 120.763 536.215 100.118"/></svg>