<svg xmlns="http://www.w3.org/2000/svg" viewBox="0 0 1000 1000" fill="currentColor"><path d="M466.033 205.144L771.196 205.144L771.196 378.801L466.033 378.801M281.417 112.415C240.954 243.079 173.514 372.900 100.174 457.199C111.133 473.216 127.150 506.936 133.051 521.267C160.869 488.390 187.845 450.455 213.135 408.306L213.135 885.439L275.516 885.439L275.516 291.973C299.963 238.864 321.881 184.070 339.584 129.275M423.040 518.738C408.709 660.360 374.146 777.536 297.434 850.034C311.765 858.464 338.741 877.009 348.014 887.125C391.006 842.447 422.197 785.123 444.958 716.841C509.868 839.918 611.870 866.894 743.377 866.894L879.099 866.894C881.628 850.034 890.901 821.372 900.174 806.198C868.983 807.041 770.353 807.041 748.435 807.041C714.715 807.041 681.839 805.355 651.491 799.454L651.491 624.955L850.437 624.955L850.437 565.102L651.491 565.102L651.491 435.281L834.420 435.281L834.420 148.664L405.337 148.664L405.337 435.281L588.267 435.281L588.267 780.908C536.001 757.305 493.008 713.469 466.876 635.914C473.620 601.351 479.521 564.259 483.736 525.482"/></svg>