<svg xmlns="http://www.w3.org/2000/svg" viewBox="0 0 1000 1000" fill="currentColor"><path d="M118.652 171.783C164.739 216.130 219.522 278.739 NaN 318.739L296.913 282.217C270.826 242.217 215.174 182.217 169.087 140.478M458.652 517L749.957 517L749.957 590.043L458.652 590.043M458.652 636.130L749.957 636.130L749.957 709.174L458.652 709.174M458.652 398.739L749.957 398.739L749.957 470.913L458.652 470.913M396.913 349.174L396.913 759.609L813.435 759.609L813.435 349.174L605.609 349.174C615.174 327.435 625.609 301.348 636.043 276.130L886.478 276.130L886.478 221.348L723.870 221.348C744.739 192.652 766.478 157.870 787.348 125.696LNaN 106.565C709.087 140.478 681.261 187.435 657.783 221.348L495.174 221.348L540.391 200.478C529.957 173.522 502.130 131.783 476.913 103.087LNaN 126.565C445.609 155.261 469.957 194.391 481.261 221.348L333.435 221.348L333.435 276.130L563.870 276.130C558.652 299.609 550.826 326.565 543.870 349.174M290.826 417L107.348 417L107.348 477.870L228.217 477.870L228.217 748.304C189.087 762.217 144.739 798.739 99.522 843.087L140.391 896.130C184.739 842.217 229.087 796.130 260.391 796.130C280.391 796.130 307.348 822.217 344.739 843.087C404.739 877 479.522 886.565 582.130 886.565C665.609 886.565 818.652 881.348 881.261 877C882.130 858.739 892.565 829.174 899.522 813.522C815.174 822.217 685.609 828.304 583.870 828.304C489.087 828.304 414.304 822.217 358.652 791.783C328.217 774.391 308.217 758.739 290.826 750.043"/></svg>