<svg xmlns="http://www.w3.org/2000/svg" viewBox="0 0 1000 1000" fill="currentColor"><path d="M787.838 248C775.730 312.865 749.784 408.865 728.162 466.811L777.459 480.649C801.676 425.297 828.486 335.351 850.108 261.838M419.405 266.162C441.892 334.486 462.649 422.703 467.838 480.649L524.054 465.946C517.135 408 497.243 320.649 471.297 252.324M386.541 141.622L386.541 203.027L597.568 203.027L597.568 522.162L360.595 522.162L360.595 584.432L597.568 584.432L597.568 892.324L662.432 892.324L662.432 584.432L900.270 584.432L900.270 522.162L662.432 522.162L662.432 203.027L876.919 203.027L876.919 141.622M100.270 692.541L123.622 757.405C194.541 728.865 285.351 692.541 371.838 655.351L361.459 597.405L268.919 632L268.919 367.351L352.811 367.351L352.811 305.946L268.919 305.946L268.919 107.892L209.243 107.892L209.243 305.946L114.108 305.946L114.108 367.351L209.243 367.351L209.243 654.486"/></svg>