<svg xmlns="http://www.w3.org/2000/svg" viewBox="0 0 1000 1000" fill="currentColor"><path d="MNaN 136.957LNaN 403.043CNaN 539.565 397.913 730 328.348 865.652C343.130 871.739 369.217 890 379.652 900.435C453.565 758.696 464.870 547.391 464.870 403.043L464.870 355.217L886.609 355.217L886.609 136.957M464.870 192.609L824.870 192.609L824.870 299.565L464.870 299.565M494.435 658.696L494.435 864.783L836.174 864.783L836.174 895.217L890.957 895.217L890.957 658.696L836.174 658.696L836.174 810.870L716.174 810.870L716.174 609.130L877.043 609.130L877.043 415.217L821.391 415.217L821.391 556.087L716.174 556.087L716.174 383.043L661.391 383.043L661.391 556.087L561.391 556.087L561.391 416.087L508.348 416.087L508.348 609.130L661.391 609.130L661.391 810.870L549.217 810.870L549.217 658.696M224.870 100.435L224.870 275.217L120.522 275.217L120.522 336.087L224.870 336.087L224.870 527.391C180.522 541.304 140.522 553.478 108.348 561.304L124.870 625.652L224.870 592.609L224.870 817.826C224.870 830 220.522 833.478 210.087 833.478C199.652 834.348 165.739 834.348 128.348 833.478C136.174 850.870 144 877.826 146.609 893.478C201.391 894.348 235.304 891.739 256.174 881.304C277.913 871.739 285.739 853.478 285.739 817.826L285.739 572.609L374.435 543.913L365.739 483.913L285.739 509.130L285.739 336.087L370.087 336.087L370.087 275.217L285.739 275.217L285.739 100.435"/></svg>