<?xml version="1.0" standalone="no"?><!DOCTYPE svg PUBLIC "-//W3C//DTD SVG 1.1//EN" "http://www.w3.org/Graphics/SVG/1.1/DTD/svg11.dtd"><svg class="icon" width="200px" height="200.00px" viewBox="0 0 1024 1024" version="1.1" xmlns="http://www.w3.org/2000/svg"><path d="M866.304 885.028571l-52.187429-51.2 25.6-26.075428 52.187429 51.2z m-104.338286-102.4L709.778286 731.428571l25.6-26.075428 52.187428 51.2z m-104.338285-102.4l-52.187429-51.2 25.6-26.075428 52.187429 51.2z m-104.338286-102.4l-52.187429-51.2 25.6-26.075428 52.187429 51.2zM448.950857 475.428571l-52.187428-51.2 25.6-26.075428 52.187428 51.2z m-104.338286-102.4L292.425143 321.828571l25.6-26.075428 52.187428 51.2zM240.274286 270.628571L188.086857 219.428571l25.6-26.075428 52.187429 51.2zM135.936 168.228571L83.785143 117.028571l25.6-26.075428 52.187428 51.2z" fill="#FFBEBE" /><path d="M883.382857 518.107429H810.422857v-36.571429l72.96-0.146286z m-146.285714 0l-73.069714-0.073143v-36.571429h73.142857z m-146.212572-0.073143h-73.142857v-36.571429h73.142857z m-146.285714 0l-73.252571 0.073143v-36.717715l73.252571 0.036572z m-146.176 0.109714l-73.252571-0.109714v-36.571429l73.252571-0.109714z m-146.395428-0.109714h-73.142858v-36.571429h73.142858z" fill="#FFBEBE" /><path d="M535.04 132.864v72.96h-36.571429l-0.146285-72.96z m0 146.285714l-0.073143 73.069715h-36.571428v-73.142858z m-0.073143 146.212572v73.142857h-36.571428v-73.142857z m0 146.285714l0.073143 73.252571h-36.717714l0.036571-73.252571z m0.109714 146.176l-0.109714 73.252571h-36.571428l-0.109715-73.252571z m-0.109714 146.395429v73.142857h-36.571428v-73.142857zM144.530286 885.028571l-25.6-26.075428 52.187428-51.2 25.6 26.075428z m104.338285-102.4l-25.6-26.075428 52.187429-51.2 25.6 26.075428z m104.338286-102.4l-25.6-26.075428 52.187429-51.2 25.6 26.075428z m104.338286-102.4l-25.6-26.075428 52.187428-51.2 25.6 26.075428z m104.338286-102.4l-25.6-26.075428 52.187428-51.2 25.6 26.075428z m104.338285-102.4l-25.6-26.075428 52.187429-51.2 25.6 26.075428z m104.338286-102.4l-25.6-26.075428 52.187429-51.2 25.6 26.075428z m104.338286-102.4l-25.6-26.075428 52.187428-51.2 25.6 26.075428z" fill="#FFBEBE" /><path d="M146.285714 109.714286a36.571429 36.571429 0 0 0-36.571428 36.571428v731.428572a36.571429 36.571429 0 0 0 36.571428 36.571428h731.428572a36.571429 36.571429 0 0 0 36.571428-36.571428V146.285714a36.571429 36.571429 0 0 0-36.571428-36.571428H146.285714m0-109.714286h731.428572a146.285714 146.285714 0 0 1 146.285714 146.285714v731.428572a146.285714 146.285714 0 0 1-146.285714 146.285714H146.285714a146.285714 146.285714 0 0 1-146.285714-146.285714V146.285714a146.285714 146.285714 0 0 1 146.285714-146.285714z" fill="#7E8083" /><path d="M613.412571 550.692571a606.793143 606.793143 0 0 0 93.147429 109.275429 349.878857 349.878857 0 0 0 116.845714 67.145143 374.710857 374.710857 0 0 0-48.054857 39.168l-17.773714 18.285714a125.513143 125.513143 0 0 1-19.090286 17.444572 35.072 35.072 0 0 1-17.115428 4.937142 24.137143 24.137143 0 0 0-12.836572-5.595428 52.260571 52.260571 0 0 1-12.836571-3.657143 121.636571 121.636571 0 0 1-21.065143-19.748571q-8.557714-9.216-15.798857-15.798858a135.314286 135.314286 0 0 1-25.6-32.914285q-14.628571-23.698286-32.914286-57.929143-23.698286-42.130286-28.306286-48.054857a201.728 201.728 0 0 0-34.633143 35.035428q-20.736 25.344-22.710857 27.977143-82.285714 106.642286-157.988571 115.858286a512.292571 512.292571 0 0 0 68.461714-88.173714 679.972571 679.972571 0 0 0 55.954286-94.134858q9.874286-16.457143 44.105143-83.602285a107.958857 107.958857 0 0 0-12.507429-30.939429q-11.190857-21.065143-13.824-25.6l-11.190857-20.406857q-2.633143-5.924571-14.628571-27.648a389.522286 389.522286 0 0 1-26.002286-56.941714 183.332571 183.332571 0 0 1-8.155429-58.989715 969.654857 969.654857 0 0 0 54.857143 84.589715 648.411429 648.411429 0 0 0 43.300572 53.650285 137.801143 137.801143 0 0 0 23.04 21.723429 282.112 282.112 0 0 0 38.180571-83.273143q16.457143-53.650286 35.547429-131.328a28.269714 28.269714 0 0 0-9.874286-9.216 55.186286 55.186286 0 0 0-15.140572-5.266286 329.728 329.728 0 0 0-58.916571 11.190858q-58.258286 13.165714-87.222857 20.406857-13.165714-18.285714-18.285714-25.6a172.214857 172.214857 0 0 1-15.469715-24.685715 70.070857 70.070857 0 0 1-3.657143-22.710857q6.582857 11.190857 37.522286 11.190857a179.2 179.2 0 0 0 40.813714-4.608 435.456 435.456 0 0 1 64.512-13.165714 441.417143 441.417143 0 0 0 52.004572-10.971428 142.628571 142.628571 0 0 0 39.497143-19.419429 69.485714 69.485714 0 0 1 36.571428 12.836571 136.082286 136.082286 0 0 1 34.230857 30.939429 60.233143 60.233143 0 0 1 14.628572 33.243429q-5.924571 18.285714-22.381714 55.296-13.165714 28.306286-22.381715 53.979428l-23.661714 54.016z m-248.685714-218.550857a328.740571 328.740571 0 0 1-47.067428-40.484571 738.304 738.304 0 0 1-54.308572-58.258286q-22.710857-27.648-18.761143-32.914286a230.4 230.4 0 0 1 96.438857 19.748572 113.371429 113.371429 0 0 1 47.542858 40.228571 62.171429 62.171429 0 0 0-3.657143 10.532572q-2.962286 9.874286-4.278857 15.140571-4.608 15.798857-9.545143 30.939429t-6.509715 15.067428z m330.166857-94.793143a3.657143 3.657143 0 0 0 1.316572-2.633142 2.852571 2.852571 0 0 0-1.316572-2.304 5.888 5.888 0 0 1-1.974857-2.962286v10.532571h1.974857z m-208.018285 23.04q2.633143-3.291429 3.291428-3.949714l-3.291428-10.532571h-13.165715v8.557714l6.582857 1.974857a21.467429 21.467429 0 0 0 6.729143 3.949714z m-153.234286 238.957715a537.6 537.6 0 0 1-49.700572-39.168 751.104 751.104 0 0 1-55.954285-52.662857q-23.369143-24.685714-19.492572-28.635429a413.988571 413.988571 0 0 1 103.350857 14.628571 86.966857 86.966857 0 0 1 47.542858 30.610286q-0.658286 0.658286-8.557715 26.989714a202.166857 202.166857 0 0 1-17.188571 48.237715z m59.245714 0a77.348571 77.348571 0 0 1-0.987428 23.04q-2.304 13.824-5.266286 28.964571t-4.278857 20.406857a847.579429 847.579429 0 0 0-19.090286 106.057143q-14.628571 105.325714-45.421714 119.808a23.113143 23.113143 0 0 1-6.582857 0.658286 120.027429 120.027429 0 0 1-35.218286-6.582857 118.601143 118.601143 0 0 1-37.851429-20.041143 58.514286 58.514286 0 0 1-21.723428-33.243429q15.140571-1.974857 44.763428-39.497143a527.067429 527.067429 0 0 0 49.371429-73.728l52.662857-80.457142z" fill="#7E8083" /><path d="M397.458286 251.062857a183.734857 183.734857 0 0 0 8.594285 60.964572 1247.085714 1247.085714 0 0 0 88.32 189.366857c55.990857 100.571429 131.986286 241.883429 158.134858 261.814857s27.977143 43.556571 49.773714 43.556571l19.236571 4.717715s1.682286 8.667429 23.076572-8.338286 62.390857-59.611429 62.390857-59.611429a169.252571 169.252571 0 0 1 34.230857-20.736s-135.314286-31.524571-243.309714-203.227428l-61.805715-87.332572a766.244571 766.244571 0 0 1-138.642285-181.174857z" fill="#333333" /></svg>