<svg xmlns="http://www.w3.org/2000/svg" viewBox="0 0 1000 1000" fill="currentColor"><path d="M140.538 122.081L140.538 192.370L421.694 192.370C412.445 413.410 384.699 688.092 99.844 819.422C120.191 834.220 142.387 859.191 153.486 877.688C450.364 731.561 487.358 436.532 498.457 192.370L824.931 192.370C812.908 588.208 796.260 744.509 763.890 777.803C752.792 790.751 740.769 793.526 721.347 793.526C696.376 793.526 633.486 793.526 565.971 787.052C579.844 808.324 589.092 840.694 590.942 861.965C650.133 866.590 713.023 867.514 748.168 863.815C784.237 860.116 807.358 851.792 830.480 821.272C872.098 772.254 884.121 615.029 898.919 162.775C899.844 151.676 899.844 122.081 899.844 122.081"/></svg>