<svg xmlns="http://www.w3.org/2000/svg" viewBox="0 0 1000 1000" fill="currentColor"><path d="M163.087 687.913C193.522 710.522 233.522 742.696 254.391 762.696L289.174 725.304C267.435 706.174 226.565 676.609 196.130 655.739M278.739 248.783L278.739 294.870L798.739 294.870L798.739 248.783M210.043 521.826L210.043 564.435L536.130 564.435L532.652 606.174L104.826 606.174L104.826 654L370.043 654L370.043 727.043C276.130 760.957 182.217 794.870 117.870 815.739L141.348 863.565C207.435 838.348 289.174 806.174 370.043 774L370.043 841.826C370.043 850.522 366.565 853.130 NaN 854C346.565 854.870 312.652 854.870 273.522 853.130C281.348 867.043 289.174 885.304 292.652 900.087C345.696 900.087 379.609 899.217 401.348 892.261C423.087 884.435 429.174 871.391 429.174 842.696L429.174 753.130C510.043 793.130 602.217 841.826 653.522 874L681.348 830.522C647.435 810.522 597 783.565 543.957 757.478C574.391 738.348 607.435 714.870 636.130 690.522L588.304 663.565C566.565 684.435 530.913 713.130 499.609 734.870L429.174 700.957L429.174 654L675.261 654L675.261 606.174L588.304 606.174C594.391 552.261 598.739 488.783 601.348 434L559.609 429.652L550.043 433.130L179.609 433.130L179.609 477.478L542.217 477.478L538.739 521.826M276.130 100.087C236.130 174 169.174 247.043 101.348 294C117 302.696 143.957 320.957 157 332.261C198.739 298.348 244.826 252.261 283.087 201.826L856.130 201.826L856.130 151.391L318.739 151.391L337.870 119.217M177 343.565L177 391.391L688.304 391.391C695.261 673.130 714.391 888.783 828.304 888.783C878.739 888.783 892.652 845.304 898.739 730.522C885.696 721.826 867.435 706.174 854.391 692.261C853.522 771.391 848.304 824.435 832.652 824.435C770.043 824.435 754.391 589.652 751.783 343.565"/></svg>