<svg xmlns="http://www.w3.org/2000/svg" viewBox="0 0 1000 1000" fill="currentColor"><path d="M323.310 653.069L672.448 653.069L672.448 725.483L323.310 725.483M323.310 537.552L672.448 537.552L672.448 608.241L323.310 608.241M259.517 491L259.517 772.034L739.690 772.034L739.690 491M132.793 823.759L132.793 882.379L870.724 882.379L870.724 823.759M465.552 116.862L465.552 226.345L118.138 226.345L118.138 283.241L395.724 283.241C321.586 365.138 206.069 439.276 100.034 475.483C113.828 487.552 132.793 511.690 142.276 527.207C259.517 480.655 387.103 390.138 465.552 287.552L465.552 464.276L529.345 464.276L529.345 286.690C608.655 386.690 737.966 476.345 856.931 520.310C866.414 503.931 885.379 478.931 900.034 466.862C791.414 433.241 674.172 361.690 599.172 283.241L882.793 283.241L882.793 226.345L529.345 226.345L529.345 116.862"/></svg>