<svg xmlns="http://www.w3.org/2000/svg" viewBox="0 0 1000 1000" fill="currentColor"><path d="M283.072 338.859C275.397 459.968 258.339 560.608 231.900 642.484C213.136 619.456 192.667 596.429 172.198 575.107C187.550 509.435 204.608 425 219.107 338.859M116.761 587.900C148.318 620.309 181.580 659.542 211.431 697.921C182.433 766.151 144.906 816.471 99.704 848.881C111.644 859.115 126.996 878.731 134.672 891.525C179.874 855.704 216.548 807.942 246.399 745.682C265.162 772.974 280.514 798.561 291.601 819.883L325.716 777.239C312.923 751.652 293.307 721.802 269.426 690.245C306.100 589.606 327.422 457.409 335.098 287.687L303.542 282.569L294.160 284.275L228.488 284.275C237.870 223.721 245.546 164.872 250.663 111.141L200.343 108.582C196.079 162.313 188.403 222.868 179.021 284.275L113.350 284.275L113.350 338.859L169.640 338.859C154.288 432.676 134.672 523.081 116.761 587.900M695.866 109.435C681.367 239.925 658.339 367.857 613.136 456.557L613.136 326.066L517.614 326.066L517.614 253.571L628.488 253.571L628.488 198.134L517.614 198.134L517.614 107.729L460.471 107.729L460.471 198.134L343.627 198.134L343.627 253.571L460.471 253.571L460.471 326.066L362.390 326.066L362.390 564.019L452.795 564.019C426.356 651.866 377.742 745.682 328.275 797.708C337.657 810.501 351.303 831.823 356.420 847.175C395.652 806.237 432.326 741.418 460.471 671.482L460.471 893.230L516.761 893.230L516.761 656.130C545.759 691.951 579.874 735.448 594.373 760.181L631.047 715.832C613.989 695.362 540.642 614.339 516.761 589.606L516.761 564.019L613.136 564.019L613.136 487.260C624.224 499.200 637.870 514.552 643.840 523.081C656.633 501.759 668.574 477.026 678.808 451.439C688.190 521.375 702.689 597.281 726.569 668.923C691.601 744.829 642.987 806.237 576.463 853.145C589.256 862.527 608.872 882.143 616.548 893.230C674.544 851.439 718.893 799.414 753.009 737.154C779.448 796.002 813.563 849.733 858.765 891.525C867.294 876.173 886.910 851.439 899.704 841.205C848.531 797.708 811.004 738.859 782.859 672.335C822.092 575.107 842.561 457.409 853.648 320.096L888.616 320.096L888.616 265.512L730.834 265.512C740.215 217.751 747.891 168.284 753.861 117.964M406.740 376.386L466.441 376.386L466.441 514.552L406.740 514.552M510.791 376.386L565.375 376.386L565.375 514.552L510.791 514.552M718.893 320.096L800.770 320.096C793.947 422.441 780.301 513.699 755.567 592.164C732.539 510.288 719.746 424.147 712.923 345.682"/></svg>