<svg xmlns="http://www.w3.org/2000/svg" viewBox="0 0 1000 1000" fill="currentColor"><path d="M484.478 586.304L484.478 801.087C484.478 870.652 510.565 888.913 604.478 888.913C624.478 888.913 768.826 888.913 790.565 888.913C867.087 888.913 887.957 863.696 895.783 762.826C878.391 758.478 852.304 749.783 837.522 739.348C834.043 819.348 827.087 832.391 786.217 832.391C754.043 832.391 632.304 832.391 608.826 832.391C557.522 832.391 548.826 827.174 548.826 801.087L548.826 586.304M194.913 189.783L194.913 553.261L425.348 553.261C384.478 658.478 295.783 768.913 104.478 853.261C121 865.435 142.739 886.304 153.174 900.217C364.478 805.435 456.652 676.739 495.783 553.261L787.087 553.261L787.087 189.783L477.522 189.783C492.304 166.304 508.826 140.217 522.739 115L450.565 100.217CNaN 126.304 423.609 160.217 406.217 189.783M260.130 396.739L457.522 396.739C455.783 428.043 451.435 461.957 442.739 496.739L260.130 496.739M521.870 396.739L718.391 396.739L718.391 496.739L510.565 496.739C516.652 461.957 520.130 428.913 521.870 396.739M260.130 245.435L458.391 245.435L458.391 343.696L260.130 343.696M522.739 245.435L718.391 245.435L718.391 343.696L522.739 343.696M594.913 776.739C608.826 768.913 630.565 762.826 779.261 741.087C784.478 753.261 789.696 764.565 792.304 775L834.043 755.870C824.478 721.087 794.913 668.043 764.478 628.913L725.348 645.435C737.522 661.957 748.826 681.087 759.261 699.348L651.435 713.261C674.043 676.739 698.391 631.522 716.652 586.304L661.870 569.783C647.087 625.435 614.043 682.826 605.348 697.609C595.783 713.261 587.087 723.696 576.652 725.435C582.739 739.348 592.304 765.435 594.913 776.739"/></svg>