<svg xmlns="http://www.w3.org/2000/svg" viewBox="0 0 1000 1000" fill="currentColor"><path d="M229.792 106.081L229.792 280.407L110.698 280.407L110.698 340.817L229.792 340.817L229.792 528.950C181.464 541.895 136.588 553.977 100.342 562.607L119.328 625.606L229.792 592.812L229.792 818.055C229.792 830.137 224.614 833.589 212.532 834.452C202.176 834.452 164.204 835.315 123.643 833.589C132.273 849.986 140.903 876.739 143.492 893.136C203.039 893.136 238.422 892.273 261.723 881.917C284.161 871.561 292.791 854.301 292.791 818.055L292.791 574.689L399.803 541.895L392.036 483.211L292.791 511.690L292.791 340.817L390.310 340.817L390.310 280.407L292.791 280.407L292.791 106.081M428.282 886.232C442.953 872.424 466.254 858.616 619.004 788.713C614.689 774.905 610.374 749.015 608.648 730.892L492.143 779.220L492.143 446.102L617.278 446.102L617.278 385.693L492.143 385.693L492.143 118.163L428.282 118.163L428.282 764.549C428.282 800.795 411.022 819.781 397.214 828.411C408.433 842.219 423.104 869.835 428.282 886.232M836.480 305.434C804.549 339.954 757.084 382.241 712.208 416.761L712.208 119.026L646.620 119.026L646.620 775.768C646.620 856.890 665.606 879.328 728.605 879.328C740.687 879.328 808.001 879.328 820.946 879.328C880.493 879.328 895.164 837.041 900.342 723.988C882.219 719.673 856.329 706.728 840.795 693.783C838.206 791.302 834.754 817.192 815.768 817.192C802.823 817.192 748.454 817.192 738.098 817.192C716.523 817.192 712.208 810.288 712.208 775.768L712.208 485.800C767.440 447.828 833.891 396.049 884.808 348.584"/></svg>