<svg xmlns="http://www.w3.org/2000/svg" viewBox="0 0 1000 1000" fill="currentColor"><path d="M282.154 365.826L282.154 492.470L163.536 492.470L163.536 365.826M282.154 307.855L163.536 307.855L163.536 183.886L282.154 183.886M282.154 550.441L282.154 681.545L163.536 681.545L163.536 550.441M100.214 123.240L100.214 818.892L163.536 818.892L163.536 741.300L345.476 741.300L345.476 123.240M618.386 357.799C620.169 404.176 622.845 448.769 626.412 490.687L477.472 490.687L477.472 357.799M399.880 892.025C417.717 881.322 446.256 871.512 645.142 819.784C643.358 804.622 641.574 776.974 642.466 759.137L477.472 797.487L477.472 553.117L633.547 553.117C658.520 748.435 714.707 882.214 811.920 882.214C868.107 882.214 891.295 847.431 900.214 723.463C883.269 718.111 860.972 705.625 846.702 692.247C843.135 778.758 836 817.108 816.379 817.108C762.867 818 719.166 713.652 697.761 553.117L887.728 553.117L887.728 490.687L690.627 490.687C687.059 448.769 685.275 404.176 683.492 357.799L847.594 357.799L847.594 107.186L414.149 107.186L414.149 766.272C414.149 807.298 383.826 832.270 365.989 842.080C376.691 854.566 394.528 878.647 399.880 892.025M477.472 168.725L781.596 168.725L781.596 296.261L477.472 296.261"/></svg>