<svg xmlns="http://www.w3.org/2000/svg" viewBox="0 0 1000 1000" fill="currentColor"><path d="M328.871 577.874L328.871 888.451L393.430 888.451L393.430 853.555L763.332 853.555L763.332 886.707L829.635 886.707L829.635 577.874L587.105 577.874L587.105 460.098L871.510 460.098L871.510 399.902L587.105 399.902L587.105 296.085L520.802 296.085L520.802 577.874M393.430 795.104L393.430 638.942L763.332 638.942L763.332 795.104M481.543 114.624C498.991 141.668 515.567 173.948 527.781 203.610L184.051 203.610L184.051 432.181C184.051 558.680 177.072 736.652 101.172 862.279C117.748 869.258 146.538 889.324 158.751 899.793C239.013 767.186 251.227 567.405 251.227 432.181L251.227 266.423L898.555 266.423L898.555 203.610L601.063 203.610C589.722 172.203 567.912 131.200 545.229 99.793"/></svg>