<svg xmlns="http://www.w3.org/2000/svg" viewBox="0 0 1000 1000" fill="currentColor"><path d="M424.204 100.282C412.056 144.534 396.438 189.653 378.217 233.905L130.928 233.905L130.928 297.245L349.584 297.245C291.449 412.646 210.755 519.371 104.898 591.388C117.046 605.271 134.399 630.434 143.944 646.920C190.798 613.948 233.315 574.902 270.625 532.386L270.625 818.720L335.701 818.720L335.701 517.636L519.649 517.636L519.649 900.282L585.592 900.282L585.592 517.636L781.688 517.636L781.688 735.423C781.688 747.570 777.349 751.041 762.599 751.909C748.716 751.909 698.390 752.777 642.859 751.041C651.536 767.527 661.948 791.822 664.551 810.043C739.171 810.043 785.158 810.043 812.056 799.631C838.954 789.219 846.764 770.998 846.764 736.291L846.764 456.030L781.688 456.030L585.592 456.030L585.592 338.894L519.649 338.894L519.649 456.030L330.495 456.030C365.202 405.705 395.570 352.777 421.601 297.245L894.486 297.245L894.486 233.905L449.367 233.905C464.985 194.859 478.868 154.946 491.015 115.900"/></svg>