<svg xmlns="http://www.w3.org/2000/svg" viewBox="0 0 1000 1000" fill="currentColor"><path d="M700.653 133.896C720.374 175.911 738.380 230.788 745.240 267.658L794.972 246.222C788.113 211.066 769.249 156.190 748.670 115.032M622.625 104.743C596.044 215.354 553.171 325.965 501.725 406.565L501.725 142.471L150.170 142.471L150.170 484.593C150.170 600.348 146.741 753.832 99.581 861.870C112.443 866.158 137.309 879.877 147.598 889.309C197.330 776.125 203.332 606.350 203.332 484.593L203.332 197.347L446.848 197.347L446.848 804.421C446.848 817.283 443.418 820.713 432.271 820.713C420.267 820.713 382.539 821.570 340.524 819.855C349.099 836.147 359.388 864.443 361.960 879.877C415.122 880.734 451.135 879.019 473.429 868.730C494.865 857.583 501.725 838.719 501.725 806.136L501.725 453.725C510.299 464.014 518.874 474.303 523.161 481.163C538.595 458.869 553.171 434.003 567.748 407.422L567.748 894.453L625.197 894.453L625.197 849.009L899.581 849.009L899.581 789.845L776.966 789.845L776.966 668.087L883.289 668.087L883.289 612.353L776.966 612.353L776.966 494.882L883.289 494.882L883.289 439.148L776.966 439.148L776.966 326.822L891.864 326.822L891.864 268.516L630.342 268.516C649.206 219.641 665.497 169.051 678.359 118.462M300.224 222.213L300.224 294.239L235.058 294.239L235.058 342.256L300.224 342.256L300.224 411.710L225.626 411.710L225.626 458.869L427.126 458.869L427.126 411.710L346.526 411.710L346.526 342.256L414.265 342.256L414.265 294.239L346.526 294.239L346.526 222.213M236.773 512.889L236.773 775.268L278.788 775.268L278.788 728.108L409.977 728.108L409.977 512.889M278.788 560.906L368.820 560.906L368.820 680.949L278.788 680.949M625.197 494.882L722.089 494.882L722.089 612.353L625.197 612.353M625.197 439.148L625.197 326.822L722.089 326.822L722.089 439.148M625.197 668.087L722.089 668.087L722.089 789.845L625.197 789.845"/></svg>