<svg xmlns="http://www.w3.org/2000/svg" viewBox="0 0 1000 1000" fill="currentColor"><path d="M405.659 244.928C468.865 277.433 545.614 327.095 581.731 363.212L623.266 317.163C585.343 281.045 507.691 233.190 445.388 204.296M370.445 527.546C440.874 563.664 522.138 620.549 560.964 662.986L606.111 617.840C565.479 575.402 482.409 521.226 412.883 486.914M745.163 169.081L735.230 389.397L285.569 389.397L316.269 169.081M253.966 106.779C244.937 191.655 231.393 290.977 216.946 389.397L100.467 389.397L100.467 453.506L207.014 453.506C190.761 562.761 171.799 666.598 155.546 744.251L699.113 744.251C690.986 782.174 681.957 804.747 671.122 816.485C660.287 830.029 649.451 832.738 631.393 832.738C608.819 832.738 559.158 832.738 502.273 827.321C513.108 844.476 520.332 871.564 521.235 889.623C572.702 892.332 625.975 894.138 658.481 890.526C690.986 886.914 712.657 878.788 733.424 848.991C747.871 830.932 759.609 799.330 770.445 744.251L875.185 744.251L875.185 681.948L779.474 681.948C786.698 624.160 793.921 550.120 799.339 453.506L900.467 453.506L900.467 389.397L802.950 389.397L814.688 144.702C814.688 134.770 815.591 106.779 815.591 106.779M709.948 681.948L239.519 681.948C250.354 615.131 263.898 536.576 275.637 453.506L730.716 453.506C724.395 551.023 718.074 625.966 709.948 681.948"/></svg>