<svg xmlns="http://www.w3.org/2000/svg" viewBox="0 0 1000 1000" fill="currentColor"><path d="M197.893 341.594C218.561 353.650 242.673 370.012 262.479 384.651C215.116 411.347 163.448 432.014 114.363 444.931C126.419 455.265 141.058 475.071 147.086 487.988C275.396 449.237 412.318 370.012 474.320 249.452L437.291 228.785L426.096 231.368L348.593 231.368L348.593 190.033L498.432 190.033L498.432 146.976L348.593 146.976L348.593 105.642L291.758 105.642L291.758 231.368L276.257 231.368L287.452 213.284L234.922 203.812C209.088 245.146 163.448 293.370 99.723 329.538C111.779 336.427 128.141 351.928 137.614 363.984C181.532 336.427 216.839 305.426 245.256 271.842L395.956 271.842C372.705 303.704 340.843 332.983 304.675 357.956C284.008 342.455 256.451 325.233 233.200 313.177M532.016 255.480C566.462 271.842 603.491 291.648 639.659 312.315C610.380 329.538 579.379 343.316 548.378 352.789C559.573 363.984 575.073 384.651 581.962 399.291C619.853 385.512 656.882 366.567 692.188 343.316C739.551 374.318 782.608 405.319 811.026 431.153L851.499 388.957C823.082 364.845 782.608 336.427 737.829 308.871C783.469 268.397 821.360 218.451 843.749 158.171L806.720 141.809L800.692 143.532L532.877 143.532L532.877 191.756L767.108 191.756C747.301 224.479 719.745 254.619 687.883 279.592C647.409 257.202 606.935 236.535 569.045 219.312M670.660 644.716L670.660 689.495L330.509 689.495L330.509 644.716M670.660 608.548L330.509 608.548L330.509 564.630L670.660 564.630M448.485 475.932C460.541 490.572 474.320 508.656 485.515 525.017L322.759 525.017C387.344 493.155 447.624 455.265 496.709 412.208C549.239 455.265 617.269 494.016 690.466 525.017L548.378 525.017C536.322 504.350 517.377 480.238 500.154 462.154M251.284 894.447C267.646 885.835 296.064 881.530 517.377 847.084C517.377 835.028 520.821 812.638 523.405 798.860L330.509 825.555L330.509 729.969L511.349 729.969L482.070 763.553C589.713 799.721 728.356 856.557 798.970 895.308L834.277 852.251C804.137 836.750 764.524 818.666 720.606 801.443C753.329 779.054 788.636 750.636 819.637 724.802L772.274 694.662C748.163 719.635 707.689 754.942 672.382 781.637C622.436 762.692 571.629 744.608 525.988 729.969L732.662 729.969L732.662 542.240C775.719 558.602 819.637 572.380 861.833 581.853C869.583 566.352 886.806 543.101 899.723 531.045C767.969 505.211 617.269 447.515 532.016 378.623L549.239 359.678L498.432 332.983C417.484 430.292 256.451 506.072 104.890 544.823C118.668 558.602 134.169 580.130 142.780 595.631C184.976 582.714 226.311 568.074 267.646 550.851L267.646 791.971C267.646 826.417 243.534 839.334 228.033 845.362C237.506 857.418 247.840 880.668 251.284 894.447"/></svg>