<svg xmlns="http://www.w3.org/2000/svg" viewBox="0 0 1000 1000" fill="currentColor"><path d="M295.486 692.608L295.486 818.133C295.486 884.431 322.006 900.343 422.779 900.343C444.878 900.343 602.227 900.343 624.326 900.343C704.768 900.343 725.099 877.359 733.939 777.470C716.260 773.934 690.624 765.094 674.713 755.370C671.177 834.044 663.221 844.652 619.906 844.652C584.547 844.652 451.950 844.652 426.315 844.652C370.624 844.652 360.901 840.232 360.901 817.249L360.901 692.608M421.895 682.884C475.818 710.287 539.464 753.602 569.519 784.541L613.718 743.878C581.895 712.939 517.365 672.276 464.326 645.757M729.519 710.287C771.066 762.442 814.381 833.160 831.177 879.127L891.287 857.028C874.492 810.177 828.525 741.227 786.094 689.956M192.061 689.072C175.265 742.110 144.326 811.945 108.967 853.492L165.541 886.199C200.901 839.348 230.072 767.746 248.635 712.055M130.182 584.762L132.834 643.105C295.486 641.337 545.652 636.917 783.442 631.613C806.425 648.409 827.641 666.088 842.669 681.116L886.867 643.105C842.669 600.674 756.039 545.867 680.017 514.044L817.917 514.044L817.917 266.530L534.160 266.530L534.160 209.072L878.912 209.072L878.912 154.265L534.160 154.265L534.160 100.343L466.094 100.343L466.094 154.265L130.182 154.265L130.182 209.072L466.094 209.072L466.094 266.530L190.293 266.530L190.293 514.044L466.094 514.044L466.094 582.994M253.055 410.619L466.094 410.619L466.094 468.961L253.055 468.961M534.160 410.619L752.503 410.619L752.503 468.961L534.160 468.961M253.055 309.845L466.094 309.845L466.094 368.188L253.055 368.188M534.160 309.845L752.503 309.845L752.503 368.188L534.160 368.188M629.630 544.983C653.497 554.707 679.133 567.083 703 580.343L534.160 582.110L534.160 514.044L670.293 514.044"/></svg>