<svg xmlns="http://www.w3.org/2000/svg" viewBox="0 0 1000 1000" fill="currentColor"><path d="M141.980 305.632C193.507 329.212 256.387 366.765 287.827 395.585L325.381 346.679C293.067 319.605 229.314 283.798 177.787 261.965M101.807 482.046C154.207 504.752 218.834 542.306 251.147 571.126L287.827 521.346C254.641 494.272 190.014 458.466 137.614 437.505M122.767 859.327L174.294 897.754C215.340 831.380 264.247 743.173 301.801 669.813L257.261 632.259C215.340 712.606 161.194 804.307 122.767 859.327M369.921 398.205L369.921 660.206L430.181 660.206L430.181 607.806L576.902 607.806L576.902 654.093L637.162 654.093L637.162 607.806L788.249 607.806L788.249 657.586L851.129 657.586L851.129 398.205L637.162 398.205L637.162 357.159L887.809 357.159L887.809 311.745L832.789 311.745L851.129 288.165C826.676 268.952 781.262 244.498 742.835 229.652L713.142 266.332C740.215 276.812 773.402 295.152 797.856 311.745L637.162 311.745L637.162 270.698L683.449 270.698L683.449 214.805L893.922 214.805L893.922 158.911L683.449 158.911L683.449 100.398L618.822 100.398L618.822 158.911L382.148 158.911L382.148 100.398L317.521 100.398L317.521 158.911L116.653 158.911L116.653 214.805L317.521 214.805L317.521 270.698L382.148 270.698L382.148 214.805L618.822 214.805L618.822 259.345L576.902 259.345L576.902 311.745L337.607 311.745L337.607 357.159L576.902 357.159L576.902 398.205M697.422 639.246L697.422 682.040L324.507 682.040L324.507 735.313L437.168 735.313L406.601 762.386C448.521 790.333 497.428 832.253 520.135 861.947L562.928 821.773C541.968 795.573 499.175 761.513 459.875 735.313L697.422 735.313L697.422 834.873C697.422 843.607 694.802 847.100 683.449 847.100C672.968 847.973 637.162 847.973 595.242 846.227C603.102 862.820 611.835 884.653 614.455 900.374C670.348 900.374 706.155 901.247 729.735 892.514C754.189 882.907 758.555 867.187 758.555 835.747L758.555 735.313L897.416 735.313L897.416 682.040L758.555 682.040L758.555 639.246M576.902 439.252L576.902 484.666L430.181 484.666L430.181 439.252M637.162 439.252L788.249 439.252L788.249 484.666L637.162 484.666M576.902 522.219L576.902 568.506L430.181 568.506L430.181 522.219M637.162 522.219L788.249 522.219L788.249 568.506L637.162 568.506"/></svg>