<svg xmlns="http://www.w3.org/2000/svg" viewBox="0 0 1000 1000" fill="currentColor"><path d="M276.831 252.208L734.356 252.208L734.356 309.288L276.831 309.288M276.831 151.428L734.356 151.428L734.356 207.615L276.831 207.615M297.343 564.360L717.410 564.360L717.410 649.087L297.343 649.087M616.630 764.137C698.681 795.352 801.245 846.188 852.973 881.863L898.458 838.162C843.163 801.595 739.707 753.435 659.439 724.895M320.532 721.328C267.020 764.137 178.726 805.163 100.242 831.027C115.404 841.729 138.592 865.809 150.186 879.187C225.994 847.972 321.424 797.136 381.178 746.300M447.176 371.718C456.095 383.312 465.013 397.582 473.040 411.852L110.944 411.852L110.944 467.147L900.242 467.147L900.242 411.852L545.281 411.852C536.362 393.123 522.984 372.610 508.715 355.664L801.245 355.664L801.245 105.943L212.616 105.943L212.616 355.664L495.337 355.664M233.129 514.416L233.129 698.139L473.040 698.139L473.040 828.351C473.040 838.162 470.365 840.837 457.878 841.729C445.392 842.621 401.691 842.621 355.314 840.837C364.233 855.999 373.152 877.404 375.827 894.349C439.149 894.349 480.175 894.349 506.039 885.430C532.795 877.404 540.822 863.134 540.822 830.135L540.822 698.139L784.300 698.139L784.300 514.416"/></svg>