<svg xmlns="http://www.w3.org/2000/svg" viewBox="0 0 1000 1000" fill="currentColor"><path d="M281.808 408.354L717.629 408.354L717.629 462.938L281.808 462.938M281.808 312.832L717.629 312.832L717.629 367.416L281.808 367.416M220.401 271.041L220.401 505.582L380.742 505.582C371.360 521.787 359.420 537.991 345.774 554.196L120.614 554.196L120.614 606.222L291.190 606.222C243.429 644.601 179.463 677.864 100.145 703.450C113.791 712.832 130.849 734.154 138.525 748.652C176.904 735.006 211.872 719.655 243.429 702.597L243.429 732.448L410.593 732.448C376.478 786.179 312.512 822.853 189.697 845.028C200.785 856.115 216.136 879.143 222.107 894.495C371.360 863.791 443.002 811.765 479.676 732.448L671.574 732.448C665.603 793.002 657.928 819.441 647.693 829.676C640.870 834.793 634.047 836.499 620.401 836.499C605.049 836.499 566.670 835.646 526.584 832.235C535.113 846.733 541.083 868.055 542.789 885.113C584.580 885.966 624.665 886.819 645.134 885.113C668.162 883.407 683.514 879.996 697.160 867.203C715.923 848.439 726.158 805.795 735.539 708.567L736.392 700.891C775.625 724.772 817.416 744.388 859.207 758.034C867.736 741.829 886.499 718.802 900.145 706.009C825.945 688.098 748.333 650.571 693.748 606.222L877.970 606.222L877.970 554.196L419.122 554.196C430.209 537.991 440.443 521.787 448.972 505.582L782.448 505.582L782.448 271.041M447.267 622.426C443.855 644.601 439.591 665.070 433.620 683.834L275.838 683.834C314.217 659.953 347.480 634.367 374.772 606.222L620.401 606.222C644.281 634.367 674.985 660.806 709.953 683.834L496.733 683.834C501.851 665.070 506.115 644.601 509.527 622.426M608.461 105.582L608.461 162.725L385.006 162.725L385.006 105.582L322.746 105.582L322.746 162.725L131.701 162.725L131.701 215.603L322.746 215.603L322.746 259.100L385.006 259.100L385.006 215.603L608.461 215.603L608.461 259.100L670.721 259.100L670.721 215.603L866.030 215.603L866.030 162.725L670.721 162.725L670.721 105.582"/></svg>