<svg xmlns="http://www.w3.org/2000/svg" viewBox="0 0 1000 1000" fill="currentColor"><path d="M349.882 412.855L349.882 592.946L180.652 592.946L180.652 412.855M349.882 351.317L180.652 351.317L180.652 178.466L349.882 178.466M116.398 116.023L116.398 741.362L180.652 741.362L180.652 656.294L413.231 656.294L413.231 116.023M816.851 163.081L816.851 319.643L563.457 319.643L563.457 163.081M497.394 99.733L497.394 421.905C497.394 563.081 482.009 735.932 328.163 852.674C342.643 862.629 367.982 885.253 377.937 899.733C482.009 820.095 528.163 710.593 548.977 602.900L816.851 602.900L816.851 803.805C816.851 820.095 810.516 825.525 794.226 825.525C778.842 826.430 721.828 827.335 663.005 824.620C672.959 843.624 684.724 872.584 687.439 891.588C766.172 891.588 815.041 889.778 844.905 878.919C873.864 868.059 883.819 846.339 883.819 803.805L883.819 99.733M816.851 381.181L816.851 541.362L558.027 541.362C562.552 500.638 563.457 459.914 563.457 422.810L563.457 381.181"/></svg>