<svg xmlns="http://www.w3.org/2000/svg" viewBox="0 0 1000 1000" fill="currentColor"><path d="M539.018 182.469L796.690 182.469L796.690 299.988L539.018 299.988M477.212 128.497L477.212 353.960L860.237 353.960L860.237 128.497M516.385 602.055L821.064 602.055L821.064 677.790L516.385 677.790M516.385 547.213L516.385 474.090L821.064 474.090L821.064 547.213M451.967 417.507L451.967 899.770L516.385 899.770L516.385 732.632L821.064 732.632L821.064 824.036C821.064 834.482 816.712 838.835 805.395 838.835C792.337 839.705 750.553 839.705 705.286 837.964C713.991 855.374 722.696 881.490 725.308 898.900C787.114 898.900 828.899 898.900 854.144 888.454C879.388 878.008 887.223 859.727 887.223 824.036L887.223 417.507M246.527 99.770L246.527 275.614L123.785 275.614L123.785 336.550L246.527 336.550L246.527 525.450L113.338 560.271L132.490 623.818L246.527 590.739L246.527 823.165C246.527 836.223 241.304 839.705 229.116 840.576C218.670 840.576 180.368 840.576 139.454 839.705C148.159 857.115 156.864 883.231 159.476 898.900C219.541 899.770 255.232 898.029 278.736 887.583C301.369 878.008 310.074 859.727 310.074 823.165L310.074 571.588L425.852 536.767L417.147 476.702L310.074 507.170L310.074 336.550L423.240 336.550L423.240 275.614L310.074 275.614L310.074 99.770"/></svg>