<svg xmlns="http://www.w3.org/2000/svg" viewBox="0 0 1000 1000" fill="currentColor"><path d="M134.649 315.135C178.757 342.811 239.297 382.595 269.568 406.811L309.351 360.108C277.351 336.757 216.811 299.568 172.703 274.486M100.054 482.054C145.027 508.865 205.568 548.649 236.703 572L275.622 523.568C242.757 501.081 181.351 463.892 137.243 439.676M117.351 853.081L169.243 893.730C206.432 830.595 248.811 749.297 281.676 680.108L237.568 641.189C199.514 716.432 151.081 801.189 117.351 853.081M606 101.514L606 167.243L379.405 167.243L379.405 101.514L315.405 101.514L315.405 167.243L110.432 167.243L110.432 222.595L315.405 222.595L315.405 281.405L379.405 281.405L379.405 222.595L606 222.595L606 277.081L670 277.081L670 222.595L881.027 222.595L881.027 167.243L670 167.243L670 101.514M386.324 374.811C401.892 394.703 418.324 423.243 427.838 442.270L303.297 442.270L303.297 493.297L492.703 493.297C434.757 548.649 348.270 598.811 270.432 624.757C283.405 636 301.568 657.622 310.216 671.459C330.108 663.676 350 654.162 369.892 643.784L369.892 898.054L428.703 898.054L428.703 869.514L745.243 869.514L745.243 898.054L806.649 898.054L806.649 639.459C824.811 648.108 842.973 655.892 861.135 661.946C869.784 648.108 887.081 626.486 900.054 615.243C821.351 592.757 736.595 546.054 679.514 493.297L877.568 493.297L877.568 442.270L737.459 442.270C756.486 415.459 776.378 383.459 794.541 353.189L735.730 335.892C722.757 366.162 700.270 410.270 680.378 442.270L615.514 442.270L615.514 336.757C693.351 328.108 766.865 316 825.676 302.162L773.784 260.649C676.054 284.865 490.108 302.162 333.568 309.946C339.622 322.054 346.541 342.811 349.135 355.784C414.865 353.189 485.784 348.865 554.973 342.811L554.973 442.270L439.946 442.270L480.595 424.973C471.946 407.676 452.054 379.135 436.486 357.514M556.703 758.811L556.703 824.541L428.703 824.541L428.703 758.811M613.784 758.811L745.243 758.811L745.243 824.541L613.784 824.541M556.703 716.432L428.703 716.432L428.703 657.622L556.703 657.622M613.784 716.432L613.784 657.622L745.243 657.622L745.243 716.432M554.973 501.081L554.973 594.486L615.514 594.486L615.514 495.027C650.973 538.270 702 578.919 755.622 611.784L424.378 611.784C473.676 579.784 520.378 541.730 554.973 501.081"/></svg>