<svg xmlns="http://www.w3.org/2000/svg" viewBox="0 0 1000 1000" fill="currentColor"><path d="M274.138 360.724L274.138 419.345L733.621 419.345L733.621 360.724M277.586 643.483C240.517 710.724 176.724 777.103 113.793 820.207C129.310 830.552 156.034 852.103 168.103 862.448C229.310 815.034 297.414 738.310 340.517 663.310M662.931 675.379C722.414 734 794.828 815.897 828.448 865.897L885.345 831.414C850 779.690 776.724 700.379 716.379 644.345M446.552 117.621C461.207 141.759 476.724 171.931 487.931 198.655L143.103 198.655L143.103 384L206.897 384L206.897 259L806.897 259L806.897 384L873.276 384L873.276 198.655L561.207 198.655C549.138 169.345 528.448 129.690 508.621 99.517M129.310 520.207L129.310 581.414L472.414 581.414L472.414 823.655C472.414 834 468.103 837.448 455.172 838.310C440.517 838.310 392.241 838.310 341.379 837.448C350.862 854.690 360.345 880.552 362.931 899.517C431.034 899.517 475 898.655 502.586 889.172C530.172 878.828 538.793 860.724 538.793 824.517L538.793 581.414L881.897 581.414L881.897 520.207"/></svg>