<svg xmlns="http://www.w3.org/2000/svg" viewBox="0 0 1000 1000" fill="currentColor"><path d="M622.261 99.565L622.261 160.435L372.696 160.435L372.696 99.565L308.348 99.565L308.348 160.435L112.696 160.435L112.696 215.217L308.348 215.217L308.348 280.435L372.696 280.435L372.696 215.217L622.261 215.217L622.261 280.435L686.609 280.435L686.609 215.217L887.478 215.217L887.478 160.435L686.609 160.435L686.609 99.565MNaN 374.348C633.565 403.043 615.304 443.043 599.652 472.609L387.478 472.609L397.913 470C390.087 443.043 370.957 403.913 350.087 374.348L290.957 388.261C307.478 413.478 323.130 446.522 330.957 472.609L136.174 472.609L136.174 609.130L199.652 609.130L199.652 527.391LNaN 527.391LNaN 600.435L220.522 600.435L220.522 851.739L284.870 851.739L284.870 656.957LNaN 656.957LNaN 899.565L529.217 899.565L529.217 656.957L715.304 656.957L715.304 783.913C715.304 793.478 712.696 796.087 701.391 796.087C689.217 796.957 651.826 796.957 608.348 796.087C617.043 811.739 624.870 833.478 628.348 850C686.609 850 724.870 850 749.217 841.304C773.565 831.739 779.652 815.217 779.652 784.783L779.652 600.435L529.217 600.435L529.217 527.391L798.783 527.391L798.783 609.130L865.739 609.130L865.739 472.609L666.609 472.609C681.391 448.261 697.043 418.696 710.957 390M451.826 259.565C463.130 277.826 473.565 299.565 481.391 319.565L149.217 319.565L149.217 374.348L849.217 374.348L849.217 319.565L544.870 319.565C536.174 296.087 520.522 266.522 505.739 243.043"/></svg>