<svg xmlns="http://www.w3.org/2000/svg" viewBox="0 0 1000 1000" fill="currentColor"><path d="M523.276 313.345C492.241 373.690 437.069 446.966 381.034 493.517C394.828 503 415.517 520.241 425.862 532.310C483.621 481.448 542.241 408.172 581.034 339.207M692.241 342.655C749.138 397.828 813.793 475.414 842.241 527.138L890.517 487.483C860.345 437.483 794.828 362.483 737.931 308.172M329.310 120.241C312.069 151.276 288.793 184.034 262.931 216.793C239.655 184.897 211.207 153.862 175.862 123.690L131.897 159.897C169.828 193.517 199.138 227.138 221.552 262.483C184.483 300.414 144.828 334.897 108.621 357.310C122.414 372.828 138.793 399.552 147.414 417.655C181.897 391.793 218.103 358.172 252.586 321.103C267.241 354.724 275.862 388.345 281.897 423.690C243.966 503 175.862 585.759 113.793 628C127.586 642.655 143.966 668.517 152.586 684.897C200 646.103 250.862 586.621 291.379 522.828L292.241 566.793C292.241 678 284.483 775.414 263.793 804.724C256.034 814.207 248.276 818.517 235.345 819.379C215.517 821.966 182.759 822.828 139.655 818.517C150.862 837.483 158.621 861.621 159.483 882.310C196.552 884.897 232.759 884.034 262.069 878.862C282.759 875.414 298.276 865.069 309.483 849.552C343.966 801.276 353.448 691.793 353.448 568.517C353.448 465.069 345.690 365.069 296.552 271.103C328.448 231.448 356.897 190.931 378.448 152.138M572.414 121.966C598.276 154.724 624.138 199.552 635.345 230.586L402.586 230.586L402.586 290.931L889.655 290.931L889.655 230.586L640.517 230.586L695.690 206.448C683.621 176.276 656.034 132.310 628.448 100.414M730.172 466.793C710.345 539.207 678.448 603.862 635.345 659.897C590.517 603.862 556.034 539.207 531.034 468.517L475 484.034C504.310 567.655 543.966 643.517 593.103 707.310C535.345 767.655 461.207 815.069 373.276 852.138C387.069 863.345 406.034 886.621 414.655 900.414C501.724 862.483 574.138 814.207 633.621 754.724C693.103 817.655 764.655 866.793 847.414 898.690C856.897 880.586 876.724 853.862 891.379 840.931C807.759 813.345 736.207 766.793 676.724 707.310C728.448 643.517 767.241 568.517 793.103 482.310"/></svg>