<svg xmlns="http://www.w3.org/2000/svg" viewBox="0 0 1000 1000" fill="currentColor"><path d="M203.020 174.241L203.020 398.970C203.020 533.460 193.475 719.143 99.766 851.030C115.384 859.707 143.150 882.267 154.430 896.150C254.213 754.718 268.963 543.872 268.963 398.970L899.766 398.970L899.766 336.497L268.963 336.497L268.963 228.905C467.662 215.889 688.920 192.462 839.896 156.020L784.364 103.091C650.742 136.931 408.659 162.093 203.020 174.241M342.716 523.048L342.716 895.282L407.792 895.282L407.792 850.163L767.879 850.163L767.879 893.547L836.425 893.547L836.425 523.048M407.792 789.425L407.792 583.785L767.879 583.785L767.879 789.425"/></svg>