<svg xmlns="http://www.w3.org/2000/svg" viewBox="0 0 1000 1000" fill="currentColor"><path d="M410.904 173.180C441.739 229.711 470.861 305.086 481.996 351.338L540.240 326.499C529.105 281.103 497.413 208.298 465.722 152.623M804.051 142.345C786.921 199.732 752.660 283.672 726.107 334.208L778.355 351.338C807.478 302.516 840.882 225.428 868.291 160.332M606.193 106.370L606.193 381.317L422.039 381.317L422.039 441.274L606.193 441.274L606.193 581.745L380.925 581.745L380.925 642.559L606.193 642.559L606.193 893.522L670.433 893.522L670.433 642.559L899.983 642.559L899.983 581.745L670.433 581.745L670.433 441.274L870.004 441.274L870.004 381.317L670.433 381.317L670.433 106.370M231.032 105.514L231.032 277.677L111.974 277.677L111.974 338.490L231.032 338.490L231.032 525.214L99.983 561.188L117.970 623.715L231.032 588.597L231.032 819.004C231.032 831.852 225.893 835.278 214.758 835.278C203.623 836.135 168.505 836.135 129.105 835.278C137.670 852.409 146.236 878.105 148.805 893.522C205.336 893.522 240.454 891.809 262.724 882.388C284.994 872.109 292.702 854.979 292.702 819.004L292.702 569.754L398.056 536.349L389.490 478.961L292.702 507.227L292.702 338.490L388.634 338.490L388.634 277.677L292.702 277.677L292.702 105.514"/></svg>