<svg xmlns="http://www.w3.org/2000/svg" viewBox="0 0 1000 1000" fill="currentColor"><path d="M462.607 324.039L597.787 324.039L597.787 410.380L462.607 410.380M656.219 324.039L797.504 324.039L797.504 410.380L656.219 410.380M462.607 189.732L597.787 189.732L597.787 274.328L462.607 274.328M656.219 189.732L797.504 189.732L797.504 274.328L656.219 274.328M705.930 630.155C717.268 648.470 727.734 669.401 738.199 689.460L656.219 697.309L656.219 587.421L835.877 587.421L835.877 829.872C835.877 841.210 832.389 844.698 818.435 844.698C805.353 845.570 760.002 846.443 708.547 844.698C717.268 860.397 725.117 883.944 727.734 899.642C794.887 900.514 837.621 899.642 863.785 890.049C889.949 881.328 896.926 863.885 896.926 829.872L896.926 530.733L656.219 530.733L656.219 461.835L860.297 461.835L860.297 138.277L401.559 138.277L401.559 461.835L597.787 461.835L597.787 530.733L359.697 530.733L359.697 898.770L422.490 898.770L422.490 587.421L597.787 587.421L597.787 703.414L450.398 714.752L462.607 773.184L760.002 739.171C769.596 760.974 777.445 782.777 781.805 799.348L825.412 782.777C812.330 739.171 780.061 668.529 746.920 616.201M308.241 99.903C262.019 231.594 184.399 362.413 102.420 447.881C114.629 462.707 133.816 496.720 139.921 512.418C166.957 483.638 192.248 450.497 217.540 413.868L217.540 899.642L280.333 899.642L280.333 312.702C315.218 250.781 345.743 184.499 370.162 118.218"/></svg>