<svg xmlns="http://www.w3.org/2000/svg" viewBox="0 0 1000 1000" fill="currentColor"><path d="M121.526 845.772L164.509 900.158C227.667 838.754 298.719 760.684 358.368 691.386L323.281 641.386C257.491 715.070 175.912 798.404 121.526 845.772M148.719 355.421C200.474 380.860 266.263 420.333 298.719 447.526L337.316 398.404C303.982 371.211 237.316 334.368 185.561 311.561M101.351 530.860C156.614 553.667 225.912 589.632 260.123 615.947L297.842 565.070C261.877 539.632 190.825 505.421 137.316 485.246M569.772 329.105C598.719 362.439 629.421 408.930 642.579 441.386L361 441.386L361 501.912L440.825 501.912L440.825 867.702L859.246 867.702L859.246 807.175L504.860 807.175L504.860 501.912L899.596 501.912L899.596 441.386L652.228 441.386L701.351 413.316C689.070 385.246 660.123 343.140 632.053 310.684L682.930 310.684L682.930 233.491L886.439 233.491L886.439 173.842L682.930 173.842L682.930 100.158L618.018 100.158L618.018 173.842L377.667 173.842L377.667 100.158L312.754 100.158L312.754 173.842L115.386 173.842L115.386 233.491L312.754 233.491L312.754 313.316L377.667 313.316L377.667 233.491L618.018 233.491L618.018 302.789"/></svg>