<svg xmlns="http://www.w3.org/2000/svg" viewBox="0 0 1000 1000" fill="currentColor"><path d="M313.870 571.436L313.870 778.971C313.870 849.584 337.982 868.530 431.846 868.530C450.791 868.530 586.851 868.530 608.380 868.530C687.605 868.530 708.272 840.112 716.884 724.719C698.800 719.552 671.243 710.080 657.465 698.885C653.159 795.333 645.409 809.111 604.074 809.111C573.073 809.111 458.541 809.111 436.152 809.111C387.067 809.111 377.594 804.805 377.594 778.110L377.594 571.436M447.347 563.686C491.265 609.326 541.211 672.189 563.601 712.663L616.130 680.801C592.879 640.327 541.211 579.186 498.154 536.129M541.211 294.149C583.407 330.316 631.631 383.707 654.020 419.875L703.105 386.291C680.716 350.984 630.770 299.315 588.574 264.870M701.383 613.632C755.635 679.079 816.776 769.498 842.610 825.473L900.307 797.055C871.889 740.220 809.026 652.383 753.913 588.659M194.171 603.298C176.087 671.328 142.503 758.304 102.890 812.555L159.726 841.834C199.338 784.138 230.339 693.718 250.145 623.966M100.307 454.321L117.530 514.601C206.227 489.628 324.203 455.182 435.291 420.736L426.679 366.484L304.397 400.069L304.397 205.451L425.818 205.451L425.818 146.893L117.530 146.893L117.530 205.451L244.117 205.451L244.117 416.431M477.487 130.532L477.487 280.370C477.487 354.428 465.431 456.904 343.149 517.184C356.066 528.379 374.150 548.185 381.900 561.963C517.099 487.905 538.628 372.512 538.628 280.370L538.628 188.228L711.717 188.228L711.717 456.043C711.717 509.434 716.023 524.073 729.801 535.268C741.857 545.602 760.802 549.907 778.025 549.907C787.497 549.907 811.609 549.907 822.804 549.907C837.443 549.907 853.805 547.324 864.139 542.157C876.195 536.990 884.806 527.518 889.112 512.878C894.279 499.100 897.723 461.210 898.584 429.348C881.362 424.181 861.555 412.986 848.638 402.652C848.638 437.098 846.916 462.932 845.194 474.988C843.471 485.322 840.027 490.489 836.582 493.072C832.277 495.656 824.526 496.517 817.637 496.517C809.887 496.517 797.831 496.517 791.803 496.517C786.636 496.517 781.469 494.794 777.164 492.211C773.719 488.766 772.858 478.433 772.858 460.349L772.858 130.532"/></svg>