<svg xmlns="http://www.w3.org/2000/svg" viewBox="0 0 1000 1000" fill="currentColor"><path d="M273.034 262L725.621 262L725.621 317.172L273.034 317.172M273.034 163.724L725.621 163.724L725.621 218.034L273.034 218.034M176.483 813.724L205.793 862.862C273.034 839.586 360.966 807.690 442.862 777.517L435.103 731.828C340.276 762.862 242 794.759 176.483 813.724M466.138 618.897L466.138 819.759C466.138 829.241 462.690 831.828 451.483 832.690C440.276 833.552 402.345 833.552 360.103 831.828C367 846.483 375.621 866.310 378.207 881.828C435.966 881.828 473.897 881.828 497.172 874.069C520.448 865.448 526.483 850.793 526.483 820.621L526.483 618.897M535.103 774.069C616.138 799.069 719.586 837.862 777.345 864.586L807.517 820.621C749.759 796.483 645.448 758.552 565.276 735.276M297.172 671.483C320.448 692.172 347.172 723.207 359.241 743.897L408.379 715.448C396.310 695.621 367.862 666.310 343.724 646.483M655.793 637.862C640.276 661.138 610.103 697.345 590.276 718.034L633.379 743.034C655.793 723.207 684.241 694.759 708.379 665.448M161.828 420.621L161.828 471.483L328.207 471.483L328.207 537L119.586 537L119.586 590.448L308.379 590.448C251.483 634.414 171.310 672.345 99.759 692.172C112.690 703.379 129.069 724.069 137.690 737.862C223.897 709.414 323.034 652.517 384.241 590.448L617.862 590.448C679.931 647.345 778.207 703.379 860.966 730.103C869.586 715.448 886.828 694.759 899.759 683.552C831.655 665.448 751.483 630.103 693.724 590.448L879.931 590.448L879.931 537L667 537L667 471.483L837.690 471.483L837.690 420.621L667 420.621L667 363.724L789.414 363.724L789.414 118.034L210.966 118.034L210.966 363.724L328.207 363.724L328.207 420.621M391.138 363.724L604.069 363.724L604.069 420.621L391.138 420.621M391.138 537L391.138 471.483L604.069 471.483L604.069 537"/></svg>