<svg xmlns="http://www.w3.org/2000/svg" viewBox="0 0 1000 1000" fill="currentColor"><path d="M501.730 248.993C488.658 344.854 466 445.072 433.756 512.174C449.442 518.275 476.458 531.346 489.529 539.190C520.902 469.473 546.174 362.283 562.732 260.322M741.381 255.094C782.340 330.039 823.298 429.386 838.985 494.745L898.244 472.959C881.686 407.599 840.728 310.867 797.155 235.922M797.155 526.118C733.538 697.795 596.719 796.270 379.725 841.586C393.669 856.401 408.484 881.673 415.455 899.102C644.649 844.200 789.312 734.397 858.157 545.290M621.991 99.974L621.991 639.407L683.865 639.407L683.865 99.974M343.124 339.625C332.667 452.044 311.752 547.033 281.251 624.593L192.362 557.490C210.662 494.745 229.834 418.057 246.392 339.625M123.516 578.405C165.346 608.035 211.534 645.508 255.107 682.109C215.891 758.797 164.475 814.571 101.730 848.558C115.673 860.758 133.102 884.288 141.817 899.974C208.048 859.015 262.078 801.499 303.908 723.939C333.538 750.083 358.810 774.484 377.983 795.399L420.684 745.725C398.898 723.068 366.654 694.309 330.924 665.551C371.011 567.076 397.155 442.458 407.612 283.852L368.397 276.880L357.939 278.623L259.464 278.623C270.793 218.492 281.251 159.233 288.222 105.203L226.349 100.845C220.248 154.876 210.662 216.749 198.462 278.623L104.344 278.623L104.344 339.625L186.261 339.625C167.089 429.386 144.431 515.660 123.516 578.405"/></svg>