<svg xmlns="http://www.w3.org/2000/svg" viewBox="0 0 1000 1000" fill="currentColor"><path d="M521.068 115.305C427 144.119 258.356 165.305 119.373 177.169C126.153 191.576 134.627 214.458 136.322 229.712C277.847 220.390 450.729 200.051 560.898 168.695M143.949 286.492C175.305 327.169 205.814 384.797 217.678 422.932L269.373 398.356C255.814 361.068 224.458 305.983 192.254 264.458M293.949 256.831C318.525 298.356 341.407 354.288 349.881 392.424L403.271 372.932C393.949 336.492 369.373 282.254 344.797 240.729M498.186 238.186C480.390 288.186 447.339 359.373 421.915 404.288L470.220 421.237C497.339 379.712 532.085 312.763 559.203 255.983M793.102 119.542C744.797 184.797 654.119 253.441 578.695 293.271C595.644 305.983 614.288 325.475 626.153 340.729C706.661 294.119 797.339 220.390 856.661 144.966M817.678 352.593C763.441 421.237 665.983 493.271 583.780 534.797C600.729 546.661 620.220 567 631.237 581.407C717.678 533.949 815.983 456.831 878.695 378.864M837.169 591.576C776.153 693.271 659.203 782.254 536.322 831.407C553.271 845.814 571.915 867.847 582.085 884.797C710.898 826.322 829.542 731.407 899.881 617M384.627 551.746L388.017 551.746L384.627 555.136M322.763 404.288L322.763 493.271L125.305 493.271L125.305 551.746L304.119 551.746C254.966 636.492 173.610 722.932 99.881 767.847C113.441 782.254 130.390 806.831 138.864 823.780C202.424 778.017 271.068 704.288 322.763 628.017L322.763 883.102L384.627 883.102L384.627 611.068C433.780 654.288 482.085 707.678 506.661 744.966L549.881 702.593C520.220 660.220 458.356 597.508 398.186 551.746L560.051 551.746L560.051 493.271L384.627 493.271L384.627 404.288"/></svg>