<svg xmlns="http://www.w3.org/2000/svg" viewBox="0 0 1000 1000" fill="currentColor"><path d="M431.701 160.477C416.267 215.354 387.114 276.233 353.673 310.531L408.550 333.682C443.705 293.382 472.859 229.073 488.293 173.339M422.269 534.325C406.835 594.346 376.824 659.512 341.669 697.240L396.546 724.678C435.131 680.091 465.141 608.923 480.576 546.329M782.398 157.905C761.819 203.349 722.376 269.373 690.651 309.673L740.383 330.252C773.823 291.667 814.123 233.360 846.706 181.056M790.972 528.323C767.821 578.055 725.806 648.365 692.365 691.238L743.812 712.674C778.110 672.374 821.840 607.208 856.996 551.474M145.313 163.049C197.617 190.488 264.498 234.218 296.224 265.086L337.382 214.496C303.941 185.343 237.060 144.185 184.756 118.462M99.868 395.418C152.173 421.999 218.196 463.156 250.779 492.310L291.937 442.578C258.496 413.424 192.473 374.839 140.168 350.831M122.162 833.574L180.468 875.589C225.056 796.704 278.218 692.095 317.660 602.921L266.213 560.906C222.483 656.940 163.319 768.408 122.162 833.574M579.182 104.743C573.180 321.677 550.886 409.995 339.096 458.012C351.958 470.016 369.107 494.882 374.252 509.459C501.154 478.591 568.035 431.431 603.191 354.260C689.793 401.420 784.970 462.299 835.559 506.029L874.145 454.582C818.411 409.995 711.229 346.543 622.055 299.384C635.774 247.079 640.061 182.771 642.633 104.743M575.752 461.442C567.178 690.380 542.312 788.130 300.511 838.719C313.373 852.438 330.522 878.162 336.524 894.453C499.439 856.726 573.180 795.847 607.478 692.095C652.923 795.847 731.808 864.443 860.426 891.881C869 874.732 886.149 849.866 899.868 836.147C745.527 811.281 663.212 717.819 629.772 585.772C634.059 548.044 636.631 506.886 638.346 461.442"/></svg>