<svg xmlns="http://www.w3.org/2000/svg" viewBox="0 0 1000 1000" fill="currentColor"><path d="M389.682 466.179L389.682 540.881L204.666 540.881L204.666 466.179M143.862 410.587L143.862 899.621L204.666 899.621L204.666 722.422L389.682 722.422L389.682 824.051C389.682 835.343 387.076 838.818 375.784 838.818C362.755 839.686 326.273 839.686 285.447 837.949C294.134 855.321 303.688 880.511 307.163 897.884C361.886 897.884 399.237 897.015 423.558 887.460C447.011 877.037 453.960 858.796 453.960 824.920L453.960 410.587M204.666 592.129L389.682 592.129L389.682 671.174L204.666 671.174M802.277 166.505C752.765 192.564 674.590 223.834 599.888 249.024L599.888 103.096L535.610 103.096L535.610 391.478C535.610 462.705 557.326 482.683 640.713 482.683C658.086 482.683 771.007 482.683 790.116 482.683C858.737 482.683 878.716 454.018 885.664 348.047C867.423 343.704 841.365 334.149 828.336 322.857C823.992 408.850 817.912 423.617 784.036 423.617C759.714 423.617 664.166 423.617 645.925 423.617C606.837 423.617 599.888 418.405 599.888 390.609L599.888 302.010C684.144 277.688 777.087 246.418 845.708 215.148M812.700 553.910C762.320 586.049 678.933 619.925 599.888 645.984L599.888 507.004L535.610 507.004L535.610 800.598C535.610 873.562 558.194 892.672 642.451 892.672C660.692 892.672 775.350 892.672 794.459 892.672C867.423 892.672 885.664 861.402 893.482 745.007C876.110 740.663 850.051 730.240 835.284 719.817C831.810 817.971 824.861 834.474 789.248 834.474C764.058 834.474 667.641 834.474 648.531 834.474C607.706 834.474 599.888 829.263 599.888 801.467L599.888 699.838C687.619 675.517 787.510 641.641 855.263 602.553M129.964 350.653C148.205 342.835 178.607 338.492 416.609 321.988C424.427 338.492 431.376 354.127 436.587 368.025L493.048 341.966C474.807 289.849 426.164 211.673 380.996 153.476L328.010 174.322C349.725 203.856 371.441 238.600 390.550 272.477L199.454 282.900C236.805 236.863 275.893 178.666 306.294 120.468L238.542 99.621C210.746 167.374 162.972 235.995 148.205 254.236C133.439 272.477 120.409 285.506 107.380 288.112C115.198 305.484 126.490 336.755 129.964 350.653"/></svg>