<svg xmlns="http://www.w3.org/2000/svg" viewBox="0 0 1000 1000" fill="currentColor"><path d="M454.838 417.595L454.838 658.892L613.973 658.892L613.973 712.514L439.270 712.514L439.270 761.811L613.973 761.811L613.973 829.270L402.081 829.270L402.081 879.432L889.865 879.432L889.865 829.270L678.838 829.270L678.838 761.811L859.595 761.811L859.595 712.514L678.838 712.514L678.838 658.892L848.351 658.892L848.351 417.595M738.514 229.919C729.865 256.730 713.432 293.054 699.595 322.459L574.189 322.459L590.622 318.135C585.432 293.919 571.595 257.595 556.892 229.919M593.216 116.622C603.595 134.784 613.973 157.270 621.757 178.027L428.892 178.027L428.892 229.919L551.703 229.919L501.541 241.162C513.649 266.243 525.757 298.243 531.811 322.459L402.946 322.459L402.946 375.216L890.730 375.216L890.730 322.459L759.270 322.459C773.108 298.243 787.811 268.838 801.649 241.162L748.027 229.919L871.703 229.919L871.703 178.027L689.216 178.027C682.297 154.676 667.595 123.541 652.892 100.189M510.189 558.568L617.432 558.568L617.432 615.649L510.189 615.649M675.378 558.568L790.405 558.568L790.405 615.649L675.378 615.649M510.189 460.838L617.432 460.838L617.432 517.054L510.189 517.054M675.378 460.838L790.405 460.838L790.405 517.054L675.378 517.054M109.757 268.838L109.757 720.297L159.054 720.297L159.054 326.784L217 326.784L217 900.189L271.486 900.189L271.486 326.784L329.432 326.784L329.432 646.784C329.432 652.838 328.568 654.568 322.514 654.568C316.459 654.568 301.757 654.568 284.459 654.568C292.243 670.135 299.162 694.351 300.892 709.919C328.568 709.919 345.865 709.054 360.568 698.676C373.541 688.297 377 670.135 377 647.649L377 268.838L271.486 268.838L271.486 105.378L217 105.378L217 268.838"/></svg>