<svg xmlns="http://www.w3.org/2000/svg" viewBox="0 0 1000 1000" fill="currentColor"><path d="M585.347 163.450C638.853 202.285 707.893 256.654 742.413 292.037L786.426 251.476C751.043 217.819 681.140 164.313 626.771 128.067M770.029 423.213C726.016 506.060 664.743 582.867 590.525 648.455L590.525 376.611L885.671 376.611L885.671 315.338L436.049 315.338C442.090 252.339 446.405 185.025 448.994 111.670L380.817 109.081C379.091 183.299 375.639 252.339 369.598 315.338L117.602 315.338L117.602 376.611L362.694 376.611C335.078 594.086 267.764 742.522 100.342 834.863C115.876 847.808 141.766 876.287 150.396 890.095C326.448 779.631 397.214 617.387 429.145 376.611L524.937 376.611L524.937 701.961C467.117 745.974 403.255 782.220 336.804 811.562C353.201 825.370 372.187 846.945 381.680 862.479C431.734 839.178 479.198 811.562 524.937 779.631C524.937 857.301 549.964 878.013 635.401 878.013C653.524 878.013 780.385 878.013 799.371 878.013C872.726 878.013 892.575 847.808 900.342 744.248C882.219 739.933 856.329 729.577 840.795 718.358C837.343 801.206 830.439 818.466 795.919 818.466C769.166 818.466 662.154 818.466 640.579 818.466C597.429 818.466 590.525 811.562 590.525 777.905L590.525 730.440C688.044 651.044 770.892 554.388 829.576 448.239"/></svg>