<svg xmlns="http://www.w3.org/2000/svg" viewBox="0 0 1000 1000" fill="currentColor"><path d="M425.803 122.441C456.905 187.235 495.782 275.356 511.333 332.376L570.080 308.186C552.801 251.166 514.788 166.501 481.959 100.842M753.233 167.365C699.670 333.240 620.188 480.108 503.557 598.467C394.702 488.747 310.037 352.246 253.881 203.650L194.270 222.657C257.337 384.212 343.730 528.488 455.177 645.119C361.009 728.056 244.378 795.443 100.102 842.959C112.197 856.782 127.747 881.836 135.523 898.251C284.119 846.415 404.205 776.436 501.829 690.043C601.181 781.620 718.676 853.326 855.177 898.251C865.544 880.972 885.415 854.190 900.102 840.367C767.056 799.762 649.562 731.512 551.073 643.391C674.616 518.121 758.417 364.341 819.756 188.099"/></svg>