<svg xmlns="http://www.w3.org/2000/svg" viewBox="0 0 1000 1000" fill="currentColor"><path d="M568.261 224.783L737.826 224.783C714.348 266.522 682.174 303.913 644.783 336.957C608.261 305.652 579.565 271.739 558.696 236.957M569.130 99.565C533.478 187.391 464.783 265.652 389.130 316.087C402.174 327.391 423.913 353.478 431.739 365.652C463.043 342.174 493.478 314.348 521.304 283.043C541.304 313.478 567.391 344.783 597.826 373.478C533.478 418.696 458.696 451.739 383.043 470C395.217 482.174 NaN 506.522 416.957 521.304C496.957 497.826 576.087 462.174 644.783 412.609C699.565 453.478 768.261 488.261 848.261 510C856.957 493.478 876.087 468.261 889.130 455.217C811.739 437.826 746.522 408.261 692.609 372.609C748.261 323.043 793.478 261.304 823.043 187.391L782.174 170L770.870 171.739L601.304 171.739C611.739 153.478 621.304 134.348 NaN 115.217M608.261 468.261L608.261 523.913L447.391 523.913L447.391 574.348L608.261 574.348L608.261 630.870L452.609 630.870L452.609 681.304L608.261 681.304L608.261 744.783L412.609 744.783L412.609 797.826L608.261 797.826L608.261 899.565L671.739 899.565L671.739 797.826L866.522 797.826L866.522 744.783L671.739 744.783L671.739 681.304L830.870 681.304L830.870 630.870L671.739 630.870L671.739 574.348L833.478 574.348L833.478 523.913L671.739 523.913L671.739 468.261M216.957 108.261L216.957 723.043L162.174 727.391L162.174 244.783L110.870 244.783L110.870 784.783L325.652 767.391L325.652 800.435L375.217 800.435L375.217 243.913L325.652 243.913L325.652 714.348L270 718.696L270 108.261"/></svg>