<svg xmlns="http://www.w3.org/2000/svg" viewBox="0 0 1000 1000" fill="currentColor"><path d="M386.673 336.377C411.380 384.939 436.939 451.393 444.607 493.140L501.689 471.840C493.169 431.798 466.758 367.048 439.495 318.486M768.356 317.634C753.020 365.344 723.201 434.354 699.346 476.100L747.908 495.695C773.468 455.653 803.286 392.607 830.550 340.637M575.810 114.865L575.810 229.029L356.002 229.029L356.002 288.667L575.810 288.667L575.810 415.610C575.810 448.837 574.958 482.916 571.551 517.847L327.035 517.847L327.035 577.485L561.327 577.485C537.472 678.017 472.722 774.290 304.032 840.743C319.367 854.375 338.963 879.082 347.482 892.714C499.133 825.408 572.403 735.099 608.185 638.826C658.452 757.250 739.389 845.003 856.109 889.306C865.480 873.118 884.224 849.263 899.559 836.483C772.616 795.589 689.122 701.872 644.820 577.485L885.928 577.485L885.928 517.847L635.448 517.847C639.708 483.768 640.560 449.689 640.560 416.462L640.560 288.667L867.184 288.667L867.184 229.029L640.560 229.029L640.560 114.865M296.364 106.345C252.062 235.845 178.792 362.788 99.559 446.281C111.487 460.765 129.378 494.843 135.342 509.327C160.901 480.360 186.460 447.133 211.167 411.350L211.167 892.714L273.361 892.714L273.361 308.262C304.884 249.476 332.999 186.430 356.002 124.236"/></svg>