<svg xmlns="http://www.w3.org/2000/svg" viewBox="0 0 1000 1000" fill="currentColor"><path d="M645.595 629.351C617.054 677.784 576.405 716.703 524.514 746.973C463.108 732.270 399.108 718.432 335.973 705.459C355 682.973 375.757 657.027 395.649 629.351M225.270 740.919C298.784 754.757 370.568 770.324 438.892 786.757C353.270 817.027 245.162 833.459 113.703 842.108C123.216 857.676 134.459 881.027 139.649 900.054C304.838 886.216 434.568 859.405 533.162 810.108C644.730 839.514 741.595 871.514 811.649 900.054L879.108 851.622C807.324 823.946 711.324 794.541 604.946 766.865C653.378 730.541 691.432 685.568 719.108 629.351L892.946 629.351L892.946 574.865L432.838 574.865C444.946 556.703 455.324 538.541 464.838 521.243L399.108 503.946C387 526.432 372.297 550.649 355.865 574.865L106.784 574.865L106.784 629.351L317.811 629.351C287.541 670.865 254.676 710.649 225.270 740.919M277.162 122.541C301.378 148.486 325.595 183.946 340.297 211.622L143.973 211.622L143.973 265.243L463.973 265.243L463.973 328.378L184.622 328.378L184.622 381.135L463.973 381.135L463.973 444.270L114.568 444.270L114.568 498.757L885.162 498.757L885.162 444.270L528.838 444.270L528.838 381.135L813.378 381.135L813.378 328.378L528.838 328.378L528.838 265.243L857.486 265.243L857.486 211.622L656.838 211.622C678.459 184.811 701.811 152.811 721.703 122.541L657.703 102.649C641.270 134.649 611.865 179.622 586.784 211.622L380.081 211.622L405.162 200.378C392.189 171.838 361.054 129.459 332.514 100.054"/></svg>