<svg xmlns="http://www.w3.org/2000/svg" viewBox="0 0 1000 1000" fill="currentColor"><path d="M283.686 388.780L283.686 513.263L175.742 513.263L175.742 388.780M283.686 332.197L175.742 332.197L175.742 212.066L283.686 212.066M283.686 569.847L283.686 697.812L175.742 697.812L175.742 569.847M117.418 152.872L117.418 831.871L175.742 831.871L175.742 756.136L342.010 756.136L342.010 152.872M588.365 99.770L588.365 170.282L393.370 170.282L393.370 220.771L588.365 220.771L588.365 274.743L415.133 274.743L415.133 322.621L588.365 322.621L588.365 380.946L368.996 380.946L368.996 432.306L881.727 432.306L881.727 380.946L650.171 380.946L650.171 322.621L839.942 322.621L839.942 274.743L650.171 274.743L650.171 220.771L859.964 220.771L859.964 170.282L650.171 170.282L650.171 99.770M755.503 534.156L755.503 599.444L490.867 599.444L490.867 534.156M429.061 484.536L429.061 899.770L490.867 899.770L490.867 757.877L755.503 757.877L755.503 832.741C755.503 842.317 752.021 845.799 741.575 845.799C730.258 846.669 694.567 846.669 655.394 844.928C663.229 860.597 671.934 883.231 674.545 899.770C728.517 899.770 765.078 898.900 787.712 890.195C811.215 880.619 817.309 864.950 817.309 832.741L817.309 484.536M490.867 646.452L755.503 646.452L755.503 711.740L490.867 711.740"/></svg>