<svg xmlns="http://www.w3.org/2000/svg" viewBox="0 0 1000 1000" fill="currentColor"><path d="M236.600 290.352C217.614 329.187 185.683 379.241 150.300 407.720L196.902 440.513C232.285 407.720 261.627 355.940 283.202 313.653M675.003 324.872C727.646 358.529 788.056 409.446 815.672 445.691L863.137 415.487C833.795 378.378 772.522 329.187 719.879 297.256M276.298 594.127L462.706 594.127L462.706 674.386L276.298 674.386M526.567 594.127L725.057 594.127L725.057 674.386L526.567 674.386M139.081 817.644L145.122 874.602C301.325 870.287 543.827 861.657 774.248 852.164C794.097 869.424 811.357 885.821 825.165 899.629L874.356 863.383C835.521 824.548 757.851 764.138 691.400 725.303L791.508 725.303L791.508 543.210L526.567 543.210L526.567 494.882L462.706 494.882L462.706 543.210L212.436 543.210L212.436 725.303L462.706 725.303L462.706 809.877M640.483 753.782C663.784 767.590 687.948 784.850 712.112 802.110L526.567 808.151L526.567 725.303L686.222 725.303M656.880 237.709C593.881 308.475 495.499 363.707 384.173 405.131L384.173 285.174L328.078 285.174L328.078 408.583L328.941 424.117C263.353 445.691 194.313 462.088 125.273 475.033C136.492 486.252 153.752 508.690 161.519 521.635C224.518 506.964 289.243 489.704 351.379 468.129C368.639 478.485 396.255 481.937 440.268 481.937C458.391 481.937 604.237 481.937 624.086 481.937C689.674 481.937 707.797 464.677 714.701 389.597C699.167 387.008 676.729 380.104 664.647 372.337C661.195 425.843 654.291 434.472 618.045 434.472C587.840 434.472 465.294 434.472 441.131 434.472C546.416 390.460 640.483 333.502 706.071 261.010M443.720 115.163C453.213 130.697 463.569 149.683 472.198 167.806L130.451 167.806L130.451 303.297L189.998 303.297L189.998 220.449L420.419 220.449L387.625 249.791C433.364 269.640 488.595 305.023 517.937 330.913L555.046 293.804C527.430 272.229 476.513 240.298 431.638 220.449L800.138 220.449L800.138 303.297L861.411 303.297L861.411 167.806L543.827 167.806C533.471 147.094 517.937 120.341 504.129 99.629"/></svg>