<svg xmlns="http://www.w3.org/2000/svg" viewBox="0 0 1000 1000" fill="currentColor"><path d="M295.102 669.458C258.661 727.932 196.797 786.407 136.627 824.542C151.034 833.017 175.610 854.203 187.475 865.220C246.797 822 313.746 755.051 356.119 688.102M632.390 699.966C691.712 749.966 763.746 821.153 797.644 866.915L851.881 832.169C816.288 787.254 742.559 717.763 682.390 669.458M443.407 109.288C433.237 145.729 417.983 183.017 398.492 220.305L134.932 220.305L134.932 278.780L361.203 278.780C303.576 360.136 217.983 434.712 100.186 487.254C113.746 497.424 134.932 520.305 143.407 536.407C214.593 501.661 275.610 459.288 325.610 411.831C369.678 370.305 406.966 325.390 436.627 278.780L569.678 278.780C599.339 326.237 638.322 372 681.542 411.831C734.932 460.983 795.949 502.508 856.966 528.780C867.136 512.678 886.627 488.949 900.186 477.085C801.034 439.797 698.492 363.525 636.627 278.780L871.373 278.780L871.373 220.305L469.678 220.305C487.475 186.407 501.034 152.508 512.051 118.610M197.644 566.068L197.644 622L470.525 622L470.525 821.153C470.525 832.169 467.136 834.712 454.424 835.559C440.864 836.407 395.949 836.407 346.797 834.712C356.119 850.814 366.288 873.695 369.678 889.797C433.237 889.797 473.915 889.797 500.186 881.322C527.305 872 534.932 855.898 534.932 822L534.932 622L808.661 622L808.661 566.068M681.542 411.831L325.610 411.831L325.610 468.610L681.542 468.610"/></svg>