<svg xmlns="http://www.w3.org/2000/svg" viewBox="0 0 1000 1000" fill="currentColor"><path d="M475.134 106.110C470.012 130.870 464.889 155.630 458.059 180.390L174.601 180.390L174.601 232.471L443.544 232.471C436.714 252.962 429.030 273.453 421.346 293.090L202.776 293.090L202.776 343.463L398.293 343.463C387.194 366.515 374.387 387.860 360.727 409.205L137.034 409.205L137.034 462.994L321.453 462.994C265.956 530.443 193.384 585.939 100.321 626.921C114.836 638.874 134.473 661.073 143.864 675.587C255.711 623.506 338.528 550.934 400.001 462.994L610.033 462.994C666.383 552.641 760.300 631.190 858.486 670.464C867.877 654.242 886.661 631.190 900.321 619.237C814.942 590.208 730.417 531.297 678.336 462.994L864.462 462.994L864.462 409.205L434.153 409.205C446.959 387.860 458.059 365.662 468.304 343.463L790.182 343.463L790.182 293.090L489.649 293.090C497.333 273.453 504.163 252.962 510.994 232.471L826.895 232.471L826.895 180.390L525.508 180.390L540.876 118.917M468.304 490.315L468.304 568.863L311.207 568.863L311.207 623.506L468.304 623.506L468.304 701.201L189.115 701.201L189.115 757.551L468.304 757.551L468.304 893.303L533.192 893.303L533.192 757.551L803.843 757.551L803.843 701.201L533.192 701.201L533.192 623.506L687.728 623.506L687.728 568.863L533.192 568.863L533.192 490.315"/></svg>