<svg xmlns="http://www.w3.org/2000/svg" viewBox="0 0 1000 1000" fill="currentColor"><path d="M315.150 625.855L315.150 809.996C315.150 880.480 339.819 899.863 436.736 899.863C456.119 899.863 595.326 899.863 616.471 899.863C697.529 899.863 717.793 872.551 726.604 760.656C708.101 756.251 681.670 746.559 666.692 735.987C662.286 825.855 655.238 839.070 612.066 839.070C580.348 839.070 464.048 839.070 440.260 839.070C389.159 839.070 380.348 834.665 380.348 809.115L380.348 625.855M439.379 617.044C480.789 664.621 535.414 729.819 560.965 769.467L616.471 735.106C589.159 697.220 533.652 633.784 492.242 587.969M697.529 644.357C747.749 713.960 808.542 809.115 836.736 864.621L900.172 837.308C869.335 781.802 805.899 690.172 756.559 623.211M207.661 641.714C182.991 702.507 142.463 787.088 100.172 842.595L160.084 872.551C197.969 815.282 237.617 727.176 264.930 666.383M556.559 100.744L556.559 587.969L623.520 587.969L623.520 513.079L886.956 513.079L886.956 454.930L623.520 454.930L623.520 376.515L844.665 376.515L844.665 319.247L623.520 319.247L623.520 241.714L876.383 241.714L876.383 184.445L623.520 184.445L623.520 100.744M115.150 456.692L115.150 514.841L370.656 514.841L370.656 587.969L437.617 587.969L437.617 105.150L370.656 105.150L370.656 185.326L123.079 185.326L123.079 243.476L370.656 243.476L370.656 318.366L149.511 318.366L149.511 375.634L370.656 375.634L370.656 456.692"/></svg>