<svg xmlns="http://www.w3.org/2000/svg" viewBox="0 0 1000 1000" fill="currentColor"><path d="M292.239 108.615C255.487 169.299 179.419 240.239 112.752 284.684C123.009 297.504 139.248 323.145 146.940 337.675C222.154 286.393 303.350 206.051 353.778 132.547M306.769 296.650C258.051 385.538 177.709 473.573 99.932 529.983C111.897 545.368 129.846 578.701 135.829 593.231C167.453 567.590 199.077 535.966 230.701 501.778L230.701 892.376L293.949 892.376L293.949 426.564C320.444 392.376 344.376 355.624 364.889 319.726M757.197 357.333L757.197 463.316L480.274 463.316L480.274 357.333M757.197 303.487L480.274 303.487L480.274 200.068L757.197 200.068M415.316 892.376C431.556 881.265 458.051 871.863 634.974 824C632.410 810.325 631.556 783.829 631.556 765.880L480.274 802.632L480.274 519.726L564.889 519.726C613.607 694.085 705.060 824.855 855.487 886.393C865.744 869.299 884.547 843.658 899.932 830.838C822.154 803.487 759.761 757.333 711.897 696.650C760.615 668.444 820.444 629.128 865.744 592.376L822.154 547.077C786.256 580.410 728.137 623.145 681.128 653.060C656.342 612.889 636.684 568.444 621.299 519.726L820.444 519.726L820.444 143.658L417.880 143.658L417.880 778.701C417.880 814.598 399.932 831.692 386.256 839.385C395.658 852.205 410.188 877.846 415.316 892.376"/></svg>