<svg xmlns="http://www.w3.org/2000/svg" viewBox="0 0 1000 1000" fill="currentColor"><path d="M433.698 345.262L433.698 472.597L216.858 472.597L216.858 345.262M433.698 281.594L216.858 281.594L216.858 161.640L433.698 161.640M338.657 611.006C356.189 640.533 374.644 672.828 393.098 706.046L216.858 763.255L216.858 535.343L502.902 535.343L502.902 99.818L147.654 99.818L147.654 742.032C147.654 777.096 123.663 793.705 107.977 802.009C119.050 818.618 132.890 851.836 137.504 872.136C156.881 856.450 187.331 844.454 421.702 761.409C439.234 795.550 453.998 828.768 464.148 853.682L526.893 819.541C501.979 758.641 444.770 658.065 396.789 582.401M586.870 105.354L586.870 899.818L655.151 899.818L655.151 169.945L823.087 169.945L823.087 636.842C823.087 649.760 819.396 653.451 805.555 653.451C793.559 654.374 750.191 654.374 703.133 652.528C712.360 671.905 721.587 700.510 723.433 718.964C790.791 719.887 832.314 718.964 858.150 706.969C883.986 695.896 891.368 675.596 891.368 637.765L891.368 105.354"/></svg>