<svg xmlns="http://www.w3.org/2000/svg" viewBox="0 0 1000 1000" fill="currentColor"><path d="M258.151 170.754L745.497 170.754L745.497 506.700L258.151 506.700M190.962 113.419L190.962 564.035L816.270 564.035L816.270 113.419M312.798 618.682L312.798 794.270C312.798 865.938 338.778 886.543 436.427 886.543C456.135 886.543 599.473 886.543 620.973 886.543C705.184 886.543 725.788 856.084 734.747 735.143C715.934 729.768 686.371 719.914 672.037 708.268C667.558 809.499 661.287 823.833 616.494 823.833C585.139 823.833 465.094 823.833 440.906 823.833C389.842 823.833 380.884 819.354 380.884 793.374L380.884 618.682M438.218 607.932C484.803 651.829 535.867 713.643 557.367 753.956L614.702 722.601C591.410 680.496 539.450 621.370 492.866 580.160M706.975 630.328C762.518 693.934 818.062 782.624 837.770 841.750L900.480 811.291C878.084 752.165 820.749 666.162 765.206 602.557M202.608 621.370C182.899 688.559 146.169 771.873 100.480 823.833L158.711 856.980C205.296 801.437 238.442 712.747 261.735 642.870M474.053 188.671C472.261 214.651 468.677 237.943 464.198 260.339L309.215 260.339L309.215 312.299L448.969 312.299C425.676 372.321 382.675 417.114 298.465 444.886C310.111 454.740 324.445 474.449 330.716 486.991C410.447 458.324 458.823 417.114 488.386 362.467C548.409 402.781 616.494 453.844 653.224 486.991L692.642 446.677C650.536 411.739 570.805 356.196 508.095 316.778L509.887 312.299L691.746 312.299L691.746 260.339L522.429 260.339C526.908 237.943 529.596 213.755 532.283 188.671"/></svg>