<svg xmlns="http://www.w3.org/2000/svg" viewBox="0 0 1000 1000" fill="currentColor"><path d="M103.595 563.541L103.595 625.811L240.243 625.811C222.081 707.973 185.757 784.946 107.919 851.541C125.216 861.054 151.162 881.811 163.270 895.649C250.622 817.811 290.405 724.405 306.838 625.811L442.622 625.811L442.622 563.541L315.486 563.541C318.946 524.622 319.811 484.838 319.811 445.054L319.811 411.324L435.703 411.324L435.703 349.919L319.811 349.919L319.811 198.568C369.973 186.459 417.541 172.622 456.459 157.054L408.892 104.297C337.973 137.162 210.838 163.108 100.135 179.541C108.784 194.243 117.432 217.595 120.027 233.162C163.270 227.973 209.108 220.189 254.946 211.541L254.946 349.919L122.622 349.919L122.622 411.324L254.946 411.324L254.946 445.054C254.946 484.838 254.081 524.622 249.757 563.541M446.081 640.514L446.081 704.514L648.459 704.514L648.459 892.189L714.189 892.189L714.189 704.514L900.135 704.514L900.135 640.514L714.189 640.514L714.189 535.865L875.054 535.865L875.054 473.595L714.189 473.595L714.189 370.676L868.135 370.676L868.135 307.541L714.189 307.541L714.189 207.216L890.622 207.216L890.622 143.216L464.243 143.216L464.243 207.216L648.459 207.216L648.459 307.541L489.324 307.541L489.324 370.676L648.459 370.676L648.459 473.595L485 473.595L485 535.865L648.459 535.865L648.459 640.514"/></svg>