<svg xmlns="http://www.w3.org/2000/svg" viewBox="0 0 1000 1000" fill="currentColor"><path d="M118.396 180.463C140.666 238.707 158.653 314.938 161.223 365.473L211.758 352.625C207.475 302.090 189.488 226.715 164.649 168.471M376.212 162.475C364.221 219.006 339.381 302.090 318.824 352.625L362.507 366.330C384.777 318.364 412.186 241.276 434.456 177.893M751.373 294.381C727.390 383.460 679.424 462.261 615.184 513.653C625.463 520.505 640.024 535.923 650.302 547.914L618.610 547.914L618.610 603.589L409.617 603.589L409.617 624.146C390.773 601.019 327.390 528.214 302.550 503.375L302.550 463.974L419.895 463.974L419.895 404.017L302.550 404.017L302.550 108.514L242.593 108.514L242.593 404.017L111.544 404.017L111.544 463.974L228.032 463.974C198.910 555.623 147.518 659.263 99.552 716.651C110.687 732.925 126.961 760.334 133.814 779.178C173.214 728.642 211.758 648.985 242.593 567.615L242.593 895.666L302.550 895.666L302.550 574.467C329.103 610.441 359.081 654.124 371.929 677.251L409.617 630.998L409.617 663.546L618.610 663.546L618.610 896.522L682.850 896.522L682.850 663.546L899.552 663.546L899.552 603.589L682.850 603.589L682.850 547.914L668.289 547.914C697.411 521.362 723.107 488.814 745.377 451.983C788.203 487.957 833.600 531.640 858.439 560.762L896.983 517.079C869.574 487.101 816.469 440.848 771.929 404.874C787.347 373.182 799.338 339.777 809.617 304.660M618.610 117.936C632.315 147.058 646.876 185.602 654.585 213.011L439.595 213.011L439.595 272.111L877.283 272.111L877.283 213.011L686.276 213.011L717.111 204.445C710.259 177.893 693.128 135.066 675.998 104.231M527.818 294.381C506.405 391.169 462.722 477.679 399.338 532.497C413.899 541.919 437.026 560.762 447.304 571.041C481.565 538.493 511.544 495.666 535.527 445.987C560.366 467.400 585.206 491.383 600.623 508.514L633.171 463.974C616.897 445.987 586.062 419.435 557.797 397.165C568.931 367.186 578.353 336.351 586.062 303.803"/></svg>