<svg xmlns="http://www.w3.org/2000/svg" viewBox="0 0 1000 1000" fill="currentColor"><path d="M389.173 248.202C321.859 301.708 226.066 344.858 143.218 368.159L176.875 418.213C267.490 390.597 364.146 338.817 436.638 279.270M566.087 284.448C654.976 322.420 768.029 383.693 823.261 424.254L865.548 381.967C806.001 340.543 692.085 283.585 605.785 247.339M441.816 334.502C428.871 360.392 406.433 394.912 385.721 422.528L210.532 422.528L210.532 899.766L275.257 899.766L275.257 863.520L732.646 863.520L732.646 894.588L799.960 894.588L799.960 422.528L453.898 422.528C472.883 400.090 492.732 374.200 509.992 348.310M275.257 814.329L275.257 471.718L732.646 471.718L732.646 814.329M383.995 640.003C418.515 653.811 455.624 671.071 491.869 689.194C437.501 721.988 372.776 745.289 308.051 758.234C318.407 769.453 330.489 787.576 336.530 800.521C409.022 782.398 479.787 754.782 540.197 714.221C585.073 739.248 624.771 764.275 651.524 784.987L685.181 747.878C659.291 728.029 622.182 705.591 581.621 683.153C622.182 648.633 654.976 606.346 677.414 554.566L642.894 538.169L633.401 539.895L437.501 539.895C446.131 525.224 453.898 510.553 460.802 495.882L409.885 488.115C390.899 530.402 355.516 580.456 305.462 618.428C317.544 624.469 334.804 639.140 344.297 649.496C369.324 628.784 390.899 605.483 409.022 582.182L606.648 582.182C588.525 611.524 563.498 637.414 535.019 659.852C495.321 640.003 453.898 621.880 415.926 607.209M436.638 116.163C446.994 134.286 457.350 156.724 466.843 177.436L135.451 177.436L135.451 313.790L200.176 313.790L200.176 229.216L797.371 229.216L797.371 310.338L864.685 310.338L864.685 177.436L544.512 177.436C533.293 152.409 517.759 123.067 503.951 99.766"/></svg>