<svg xmlns="http://www.w3.org/2000/svg" viewBox="0 0 1000 1000" fill="currentColor"><path d="M586.359 506.434L586.359 770.797L646.834 770.797L646.834 506.434M765.192 476.197L765.192 822.633C765.192 834.728 761.737 837.320 747.914 838.184C734.091 839.048 689.166 839.048 636.467 837.320C646.834 854.598 658.929 880.516 663.248 897.795C725.451 897.795 766.920 896.067 793.702 886.564C821.348 877.060 829.123 858.918 829.123 823.497L829.123 476.197M651.153 298.227C638.194 322.417 615.732 355.246 595.862 381.164L391.110 381.164C376.423 356.974 348.778 323.281 325.451 298.227L270.160 320.689C285.711 337.968 303.853 361.294 317.676 381.164L110.333 381.164L110.333 433.864L890.462 433.864L890.462 381.164L668.432 381.164C683.983 362.158 699.533 340.559 715.084 318.961M420.484 534.080L420.484 598.011L238.194 598.011L238.194 534.080M177.719 485.700L177.719 899.523L238.194 899.523L238.194 761.294L420.484 761.294L420.484 826.952C420.484 837.320 417.892 839.911 408.389 839.911C398.022 840.775 367.784 840.775 330.635 839.911C338.410 855.462 347.050 878.788 349.641 895.203C398.022 895.203 433.443 895.203 455.041 885.700C477.503 875.333 482.687 859.782 482.687 827.816L482.687 485.700M238.194 647.255L420.484 647.255L420.484 712.914L238.194 712.914M245.106 99.523C216.596 172.093 165.624 241.207 108.605 286.132C124.156 293.907 150.937 312.914 163.032 323.281C192.406 296.499 222.644 261.942 248.562 223.929L304.717 223.929C320.268 252.438 334.955 285.268 341.002 307.730L397.158 283.540C391.974 267.125 382.471 245.527 371.240 223.929L491.326 223.929L491.326 167.773L283.119 167.773C292.622 150.495 301.261 133.216 308.173 115.937M577.719 99.523C556.121 166.909 514.652 231.704 465.408 274.901C480.959 283.540 507.741 301.683 519.836 312.050C544.026 288.724 567.352 257.622 588.950 223.929L664.976 223.929C686.575 254.166 707.309 291.315 716.812 316.369L771.240 286.132C764.328 268.853 750.505 246.391 735.819 223.929L881.823 223.929L881.823 167.773L619.188 167.773C626.963 150.495 634.739 132.352 640.786 114.210"/></svg>