<svg xmlns="http://www.w3.org/2000/svg" viewBox="0 0 1000 1000" fill="currentColor"><path d="M100.216 804.165L100.216 868.307L900.216 868.307L900.216 804.165L681.953 804.165C705.116 656.281 730.060 465.635 741.641 344.477L691.753 338.241L679.281 341.804L367.477 341.804L394.203 197.483L873.490 197.483L873.490 132.450L128.724 132.450L128.724 197.483L322.042 197.483C297.989 346.258 258.791 543.140 227.610 659.844L634.737 659.844L612.465 804.165M355.895 404.165L666.808 404.165C660.572 458.508 652.555 527.105 642.755 597.483L315.806 597.483C329.169 540.468 342.532 473.653 355.895 404.165"/></svg>