<svg xmlns="http://www.w3.org/2000/svg" viewBox="0 0 1000 1000" fill="currentColor"><path d="M274.215 364.977L724.376 364.977L724.376 447.293L274.215 447.293M274.215 234.645L724.376 234.645L724.376 316.103L274.215 316.103M132.736 560.476L132.736 617.068L333.379 617.068C286.220 711.387 195.330 783.413 100.153 818.568C113.015 831.430 130.164 856.296 137.881 871.730C258.781 820.283 367.677 720.819 415.695 574.195L375.394 557.046L364.248 560.476M462.854 103.456C455.995 126.607 441.418 156.617 426.841 183.198L210.764 183.198L210.764 499.597L466.284 499.597L466.284 821.998C466.284 834.002 462.854 837.432 448.278 838.289C433.701 839.147 385.684 839.147 333.379 836.574C342.811 855.438 351.386 879.447 354.816 896.596C420.839 896.596 467.141 896.596 494.580 887.164C522.018 877.732 530.593 860.583 530.593 822.855L530.593 621.355C606.906 738.825 718.374 826.285 858.138 868.300C867.570 851.151 885.577 825.428 900.153 811.708C802.404 787.700 717.517 739.683 650.636 677.089C711.514 641.934 784.398 593.059 840.989 547.614L786.113 507.314C742.383 548.472 672.929 601.633 613.765 639.361C579.467 599.919 552.029 556.189 530.593 509.886L530.593 499.597L790.400 499.597L790.400 183.198L498.010 183.198L538.310 116.317"/></svg>