<svg xmlns="http://www.w3.org/2000/svg" viewBox="0 0 1000 1000" fill="currentColor"><path d="M195.316 201.140L329.365 201.140L329.365 355.812L195.316 355.812M544.188 103.180C509.816 207.155 452.244 306.832 386.938 377.294L386.938 146.145L139.462 146.145L139.462 410.807L242.577 410.807L242.577 751.945L191.019 765.694L191.019 491.580L138.603 491.580L138.603 778.583L99.934 787.176L112.824 847.327C196.175 824.126 307.883 794.050 414.435 764.835L406.701 708.981L298.431 737.337L298.431 589.539L398.108 589.539L398.108 532.826L298.431 532.826L298.431 410.807L379.204 410.807C389.516 425.415 400.686 444.319 404.124 453.771C420.450 437.445 435.917 420.259 451.385 400.495L451.385 516.499C451.385 618.755 443.651 757.960 376.626 858.497C390.375 865.372 415.294 885.135 425.606 896.306C499.505 788.895 511.535 629.067 511.535 517.359L511.535 385.887L895.638 385.887L895.638 327.455L731.513 327.455C754.714 290.506 778.774 244.963 795.101 205.436L752.996 177.079L742.684 180.517L579.419 180.517C588.012 160.753 595.745 140.130 602.620 120.366M554.499 235.511L712.609 235.511C699.720 267.305 683.393 301.677 667.926 327.455L502.942 327.455C520.987 298.240 538.173 267.305 554.499 235.511M572.545 455.490L572.545 791.473C572.545 863.653 594.027 881.698 668.785 881.698C685.112 881.698 791.664 881.698 808.850 881.698C874.156 881.698 892.201 852.482 899.934 745.071C882.749 740.774 858.689 731.322 844.940 721.011C841.503 809.518 836.347 824.985 804.553 824.985C781.352 824.985 691.986 824.985 675.660 824.985C638.710 824.985 631.836 819.829 631.836 790.613L631.836 511.344L792.523 511.344C792.523 602.429 791.664 635.941 785.649 644.534C781.352 650.549 774.478 651.408 765.026 651.408C754.714 651.408 727.217 651.408 696.282 648.830C704.016 662.579 710.031 684.061 710.890 700.388C744.403 702.106 777.056 702.106 792.523 699.528C813.146 698.669 825.176 692.654 835.488 679.765C847.518 663.438 849.236 611.881 849.236 478.691C849.236 470.098 849.236 455.490 849.236 455.490"/></svg>