<svg xmlns="http://www.w3.org/2000/svg" viewBox="0 0 1000 1000" fill="currentColor"><path d="M347.353 531.800L347.353 595.210L596.647 595.210L596.647 897.490L661.794 897.490L661.794 595.210L899.796 595.210L899.796 531.800L661.794 531.800L661.794 339.835L861.577 339.835L861.577 276.426L661.794 276.426L661.794 108.782L596.647 108.782L596.647 276.426L480.252 276.426C491.544 237.338 501.099 195.644 509.785 154.819L447.244 141.789C427.266 255.579 390.784 367.631 340.404 439.726C356.039 447.544 383.835 463.179 395.996 472.734C419.448 436.252 441.164 390.215 459.405 339.835L596.647 339.835L596.647 531.800M304.790 101.833C257.885 232.995 181.446 363.288 99.796 448.413C111.088 463.179 130.198 497.055 137.147 512.691C164.942 483.157 191.001 448.413 217.060 411.062L217.060 895.752L279.600 895.752L279.600 309.433C312.608 248.630 342.141 184.352 366.463 120.074"/></svg>