<svg xmlns="http://www.w3.org/2000/svg" viewBox="0 0 1000 1000" fill="currentColor"><path d="M235.814 99.939L235.814 267.220L124.871 267.220L124.871 327.892L234.080 327.892C208.945 445.768 157.807 584.446 105.803 657.252C116.204 672.854 132.672 700.589 139.606 718.791C174.275 665.053 208.945 580.113 235.814 489.972L235.814 896.472L296.485 896.472L296.485 438.834C324.221 486.505 358.024 548.043 372.758 579.246L410.028 534.176C394.427 507.307 321.621 396.364 296.485 363.428L296.485 327.892L387.493 327.892L387.493 267.220L296.485 267.220L296.485 99.939M432.563 324.425L432.563 899.939L493.235 899.939L493.235 384.230L624.979 384.230L624.979 405.031C624.979 463.103 610.245 589.647 500.169 679.788C514.037 688.455 536.572 706.657 546.973 718.791C611.112 660.719 645.781 587.913 663.983 524.641C704.719 590.514 744.589 660.719 766.258 707.523L814.795 676.321C787.060 620.849 728.988 527.242 679.584 452.702C682.184 433.634 683.051 417.166 683.051 405.898L683.051 384.230L820.862 384.230L820.862 821.933C820.862 834.067 816.529 837.534 803.528 838.401C791.393 839.268 748.056 839.268 702.119 837.534C710.787 854.869 718.587 881.738 721.187 899.073C783.593 899.073 825.196 898.206 850.332 887.805C875.467 878.271 882.401 859.203 882.401 822.800L882.401 324.425L685.651 324.425L685.651 210.015L893.668 210.015L893.668 148.477L413.495 148.477L413.495 210.015L624.113 210.015L624.113 324.425"/></svg>