<svg xmlns="http://www.w3.org/2000/svg" viewBox="0 0 1000 1000" fill="currentColor"><path d="M137.374 146.795C184.795 175.774 248.022 217.925 279.636 244.270L320.031 190.703C286.661 166.114 223.434 127.475 176.891 100.252M102.248 385.653C152.303 412.876 219.921 452.393 253.291 476.981L291.930 423.414C256.804 400.582 189.186 362.821 140.009 339.111M492.149 620.999C520.250 641.196 557.133 670.176 576.452 688.617L605.431 652.613C586.112 636.806 549.229 607.827 521.128 589.385M489.515 742.184C518.494 765.016 555.377 797.508 573.818 816.828L604.553 782.580C586.112 764.138 548.351 733.403 519.372 713.205M693.247 618.364C722.226 638.562 759.987 669.297 779.306 687.739L806.529 653.491C788.088 635.928 750.327 606.948 721.348 587.629M687.978 736.915C716.957 758.869 753.840 790.483 773.159 810.681L803.016 775.554C783.697 757.113 745.936 728.134 716.957 707.058M111.908 853.710L171.622 888.836C210.261 807.168 255.047 699.155 287.539 606.070L234.850 570.944C198.845 670.176 147.912 785.214 111.908 853.710M350.766 123.085L350.766 377.750C350.766 520.889 342.863 719.352 253.291 859.857C268.220 866.883 294.564 884.446 305.102 895.862C388.527 765.895 407.846 581.482 411.359 436.586L621.238 436.586L621.238 503.326L419.262 503.326L419.262 899.374L473.708 899.374L473.708 554.259L621.238 554.259L621.238 894.105L676.562 894.105L676.562 554.259L827.605 554.259L827.605 841.416C827.605 851.076 824.092 853.710 814.432 854.588C805.651 854.588 774.037 854.588 738.033 853.710C745.058 866.883 752.083 886.202 754.718 900.252C805.651 900.252 839.021 900.252 859.218 891.471C878.538 883.568 884.685 869.517 884.685 841.416L884.685 503.326L676.562 503.326L676.562 436.586L897.857 436.586L897.857 382.141L412.237 382.141L412.237 377.750L412.237 318.913L869.756 318.913L869.756 123.085M412.237 178.408L806.529 178.408L806.529 264.468L412.237 264.468"/></svg>