<svg xmlns="http://www.w3.org/2000/svg" viewBox="0 0 1000 1000" fill="currentColor"><path d="M468.883 494.293C495.636 527.087 526.704 572.826 539.649 602.168L583.662 578.004C569.854 548.662 538.786 505.512 510.307 471.855M676.003 492.567C701.030 525.361 727.783 571.100 740.728 600.442L785.604 577.141C772.659 546.936 744.180 503.786 718.290 470.992M189.272 495.156L367.913 495.156L367.913 562.470L189.272 562.470M189.272 379.515L367.913 379.515L367.913 445.965L189.272 445.965M662.195 100.766C610.415 189.655 518.937 269.914 426.597 319.968C439.542 332.913 458.528 362.255 466.294 375.200L472.335 371.748L472.335 419.213L596.607 419.213L596.607 632.373C546.553 664.304 497.362 695.372 456.802 719.536L456.802 686.742L311.818 686.742L311.818 614.250L427.460 614.250L427.460 327.735L311.818 327.735L311.818 254.380L449.035 254.380L449.035 196.559L311.818 196.559L311.818 105.081L248.819 105.081L248.819 196.559L108.150 196.559L108.150 254.380L248.819 254.380L248.819 327.735L132.314 327.735L132.314 614.250L248.819 614.250L248.819 686.742L99.520 686.742L99.520 745.426L248.819 745.426L248.819 899.040L311.818 899.040L311.818 745.426L433.501 745.426L458.528 787.713L596.607 691.920L596.607 827.411C596.607 836.904 594.018 839.493 584.525 839.493C575.895 840.356 546.553 840.356 514.622 839.493C522.389 855.027 530.156 880.054 531.882 895.588C577.621 895.588 607.826 894.725 628.538 885.232C647.524 875.739 652.702 858.479 652.702 828.274L652.702 364.844L482.691 364.844C550.005 320.831 617.319 261.284 670.825 194.833C720.016 259.558 789.919 322.557 858.959 364.844L677.729 364.844L677.729 419.213L803.727 419.213L803.727 623.743C749.358 663.441 694.989 700.550 657.017 723.851L688.085 773.905C723.468 748.015 764.029 716.947 803.727 685.879L803.727 825.685C803.727 835.178 801.138 837.767 791.645 837.767C782.152 838.630 752.810 838.630 720.016 837.767C727.783 854.164 735.550 880.054 737.276 895.588C783.878 895.588 815.809 894.725 835.658 885.232C855.507 874.876 861.548 856.753 861.548 826.548L861.548 366.570L870.178 371.748C875.356 355.351 888.301 327.735 899.520 312.201C827.891 277.681 751.084 212.956 705.345 147.368L721.742 121.478"/></svg>