<svg xmlns="http://www.w3.org/2000/svg" viewBox="0 0 1000 1000" fill="currentColor"><path d="M597.310 102.862L597.310 238.207L393.862 238.207L393.862 298.552L597.310 298.552L597.310 428.724L411.103 428.724L411.103 488.207L439.552 488.207L436.966 489.069C471.448 581.310 518.862 661.483 580.069 727C509.379 778.724 427.483 814.931 343.862 837.345C356.793 851.138 372.310 877.862 379.207 895.103C468 868.379 552.483 827.862 626.621 771.828C690.414 827.862 768 870.103 857.655 896.828C867.138 879.586 885.241 854.586 899.897 840.793C813.690 818.379 738.690 780.448 675.759 729.586C754.207 657.172 816.276 563.207 851.621 444.241L810.241 426.138L798.172 428.724L661.103 428.724L661.103 298.552L868.862 298.552L868.862 238.207L661.103 238.207L661.103 102.862M500.759 488.207L769.724 488.207C737.828 566.655 688.690 633.034 628.345 687.345C573.172 631.310 530.931 564.069 500.759 488.207M221.448 102.862L221.448 277L110.241 277L110.241 337.345L221.448 337.345L221.448 527C175.759 539.931 134.379 551.138 99.897 558.897L118.862 621.828L221.448 591.655L221.448 817.517C221.448 830.448 217.138 834.759 205.069 834.759C193.862 834.759 156.793 834.759 116.276 833.897C124.034 851.138 133.517 877.862 136.103 893.379C195.586 894.241 230.931 891.655 254.207 882.172C276.621 871.828 285.241 854.586 285.241 817.517L285.241 572.690L389.552 540.793L380.931 482.172L285.241 509.759L285.241 337.345L380.931 337.345L380.931 277L285.241 277L285.241 102.862"/></svg>