<svg xmlns="http://www.w3.org/2000/svg" viewBox="0 0 1000 1000" fill="currentColor"><path d="M320.042 641.836L666.286 641.836L666.286 700.249L320.042 700.249M320.042 595.275L320.042 537.709L666.286 537.709L666.286 595.275M320.042 745.963L666.286 745.963L666.286 806.069L320.042 806.069M684.910 128.820C667.979 162.683 636.656 209.243 609.566 243.106L506.286 243.106C523.217 201.624 535.915 160.143 544.381 117.815L480.042 110.196C472.423 154.217 458.878 199.085 438.561 243.106L332.741 243.106L369.143 222.788C355.598 195.698 325.968 155.910 298.878 127.127L249.778 151.677C272.635 179.614 298.878 216.016 313.270 243.106L176.974 243.106L176.974 296.439L411.471 296.439C398.772 317.603 384.381 338.767 368.296 359.085L124.487 359.085L124.487 412.418L320.042 412.418C263.323 467.444 190.519 516.545 99.937 552.101C113.481 563.106 131.259 586.810 138.878 602.048C182.899 583.423 221.841 562.259 258.243 539.402L258.243 890.725L320.042 890.725L320.042 857.709L666.286 857.709L666.286 889.032L729.778 889.032L729.778 534.323C770.413 559.720 814.434 580.037 859.302 594.429C868.614 578.344 886.392 555.487 899.937 542.788C809.354 519.931 722.159 472.524 664.593 412.418L868.614 412.418L868.614 359.085L443.640 359.085C458.032 338.767 469.884 317.603 481.735 296.439L810.201 296.439L810.201 243.106L673.905 243.106C696.762 214.323 722.159 180.460 743.323 149.138M662.899 486.069L330.201 486.069C357.291 463.212 381.841 437.815 403.005 412.418L592.635 412.418C612.106 438.661 635.810 463.212 662.899 486.069"/></svg>