<svg xmlns="http://www.w3.org/2000/svg" viewBox="0 0 1000 1000" fill="currentColor"><path d="M115.351 206.221C174.225 239.121 247.818 291.069 282.450 326.567L324.009 273.753C287.645 238.255 213.186 190.636 154.312 159.468M102.364 763.797L162.104 808.818C215.784 730.896 281.584 630.463 332.667 542.152L282.450 498.861C226.173 593.234 152.580 700.593 102.364 763.797M459.074 99.727C431.368 238.255 382.883 373.320 316.216 458.169C333.532 465.961 365.567 484.143 378.554 494.532C413.186 445.182 444.355 381.978 471.195 310.983L790.675 310.983C774.225 370.723 747.385 436.524 726.606 478.082C742.190 485.009 768.165 497.996 782.017 505.788C812.320 446.048 850.416 354.273 872.926 269.424L825.307 243.450L812.320 246.913L492.840 246.913C506.693 203.623 518.814 158.602 528.338 112.714M558.641 353.407L558.641 407.087C558.641 530.896 539.593 719.641 273.792 849.511C290.242 860.766 312.753 884.143 323.143 899.727C493.706 814.013 569.030 703.190 602.797 597.563C651.281 736.091 729.203 837.390 854.745 890.203C863.403 872.887 883.316 846.048 898.035 833.061C747.385 778.515 665.134 645.182 626.173 471.156C627.039 448.645 627.905 427.866 627.905 407.952L627.905 353.407"/></svg>