<svg xmlns="http://www.w3.org/2000/svg" viewBox="0 0 1000 1000" fill="currentColor"><path d="M475.305 110.136C471.068 135.559 465.136 160.983 458.356 187.254L166.831 187.254L166.831 238.949L441.407 238.949C433.780 258.441 425.305 278.780 415.983 298.271L211.746 298.271L211.746 348.271L389.712 348.271C377.847 369.458 364.288 389.797 349.881 410.136L121.068 410.136L121.068 463.525L306.661 463.525C252.424 523.695 183.780 577.932 99.881 620.305C114.288 631.322 132.932 654.203 140.559 669.458C206.661 634.712 264.288 592.339 313.441 544.881C319.373 557.593 324.458 575.390 326.153 588.102C371.068 585.559 420.220 581.322 467.678 576.237L467.678 639.797L230.390 639.797L230.390 693.186L421.915 693.186C353.271 753.356 249.881 806.746 154.966 832.169C169.373 845.729 187.169 867.763 196.492 883.017C290.559 851.661 393.949 793.186 467.678 723.695L467.678 889.797L531.237 889.797L531.237 717.763C618.525 769.458 720.220 835.559 773.610 877.932L813.441 833.864C761.746 795.729 671.915 739.797 591.407 693.186L772.763 693.186L772.763 639.797L531.237 639.797L531.237 568.610C577.847 561.831 621.068 554.203 657.508 545.729L622.763 499.119C549.034 517.763 425.305 533.017 316.831 541.492C342.254 516.068 365.136 490.644 386.322 463.525L618.525 463.525C674.458 542.339 767.678 618.610 853.271 665.220C864.288 649.119 882.932 628.780 899.881 616.068C823.610 583.017 743.102 526.237 688.864 463.525L881.237 463.525L881.237 410.136L423.610 410.136C437.169 389.797 449.034 369.458 460.051 348.271L799.034 348.271L799.034 298.271L483.780 298.271C492.254 278.780 500.729 258.441 507.508 238.949L841.407 238.949L841.407 187.254L523.610 187.254C529.542 163.525 535.475 139.797 539.712 116.915"/></svg>