<svg xmlns="http://www.w3.org/2000/svg" viewBox="0 0 1000 1000" fill="currentColor"><path d="M398.447 351.036L398.447 489.115L457.994 489.115L457.994 403.679L835.124 403.679L835.124 489.115L897.260 489.115L897.260 351.036L767.810 351.036C781.618 321.694 797.152 286.311 810.960 251.791L747.098 239.709C737.605 272.503 721.208 316.516 706.537 351.036L567.594 351.036L586.580 346.721C581.402 320.831 566.731 277.681 552.923 245.750L495.965 256.106C507.184 285.448 519.266 324.283 524.444 351.036M604.703 107.670C612.470 131.834 619.374 161.176 624.552 186.203L409.666 186.203L409.666 239.709L880.863 239.709L880.863 186.203L688.414 186.203C683.236 159.450 673.743 126.656 664.250 99.903M601.251 434.746C610.744 461.499 619.374 493.430 624.552 518.457L409.666 518.457L409.666 572.826L539.978 572.826C530.485 707.454 500.280 800.658 369.968 852.438C383.776 863.657 401.036 886.095 407.940 899.903C506.321 857.616 555.512 794.617 580.539 708.317L773.851 708.317C766.084 790.302 757.454 824.822 745.372 836.904C738.468 843.808 731.564 843.808 717.756 843.808C703.948 843.808 666.839 843.808 628.004 840.356C637.497 855.890 643.538 878.328 645.264 895.588C684.962 897.314 724.660 898.177 744.509 895.588C766.947 894.725 783.344 889.547 797.152 875.739C817.001 855.027 828.220 803.247 838.576 679.838C840.302 672.071 841.165 654.811 841.165 654.811L592.621 654.811C596.936 628.921 600.388 602.168 602.114 572.826L882.589 572.826L882.589 518.457L690.140 518.457C685.825 492.567 674.606 455.458 661.661 426.117M232.751 105.081L232.751 271.640L120.561 271.640L120.561 332.050L224.121 332.050C201.683 449.417 152.492 587.497 103.301 659.989C114.520 675.523 129.191 704.865 136.958 722.988C173.204 666.030 206.861 573.689 232.751 477.033L232.751 898.177L288.846 898.177L288.846 447.691C309.558 490.841 332.859 543.484 343.215 571.100L381.187 525.361C368.242 498.608 306.106 389.008 288.846 363.118L288.846 332.050L379.461 332.050L379.461 271.640L288.846 271.640L288.846 105.081"/></svg>