<svg xmlns="http://www.w3.org/2000/svg" viewBox="0 0 1000 1000" fill="currentColor"><path d="M655.874 100.414C648.933 147.269 633.315 212.345 618.564 260.067L503.163 260.067L503.163 900.414L563.033 900.414L563.033 853.560L802.512 853.560L802.512 895.208L864.117 895.208L864.117 260.067L680.169 260.067C694.920 215.816 709.670 160.284 722.685 110.826M563.033 791.954L563.033 581.976L802.512 581.976L802.512 791.954M563.033 523.842L563.033 320.805L802.512 320.805L802.512 523.842M136.134 267.009L136.134 722.540L188.195 722.540L188.195 325.143L258.477 325.143L258.477 900.414L319.215 900.414L319.215 325.143L394.703 325.143L394.703 652.258C394.703 659.200 392.967 660.935 386.026 660.935C379.085 661.803 361.731 661.803 338.304 660.935C346.113 677.421 353.054 703.451 353.922 719.069C387.761 719.069 410.321 718.202 426.807 707.790C443.293 697.377 446.764 679.156 446.764 653.126L446.764 267.009L319.215 267.009L319.215 103.017L258.477 103.017L258.477 267.009"/></svg>