<svg xmlns="http://www.w3.org/2000/svg" viewBox="0 0 1000 1000" fill="currentColor"><path d="M555.510 373.608C586.345 406.156 624.032 450.696 642.019 478.961L692.555 447.270C673.711 420.717 636.024 378.747 603.475 347.056M614.610 104.657C568.358 214.293 476.709 333.351 367.929 410.439C383.347 420.717 404.760 442.131 415.039 454.979C501.548 389.882 574.353 304.229 629.171 211.724C690.842 307.655 776.495 402.730 852.726 456.692C863.861 440.418 885.274 417.291 899.835 405.300C815.039 353.908 715.681 253.694 659.150 157.762L675.424 122.645M441.591 505.514L441.591 564.615L737.951 564.615C699.407 622.859 643.732 691.381 599.193 736.777L518.679 678.533L474.139 714.507C548.657 768.469 646.302 846.413 692.555 895.236L740.520 853.266C718.251 830.996 684.846 803.587 648.872 774.465C708.829 710.225 787.630 611.724 832.169 530.353L786.773 501.231L775.638 505.514M99.835 737.634L116.109 798.448C189.771 771.895 284.846 738.490 373.925 705.942L363.647 647.698L271.141 680.246L271.141 471.253L352.512 471.253L352.512 411.296L271.141 411.296L271.141 223.715L374.782 223.715L374.782 163.758L104.118 163.758L104.118 223.715L211.184 223.715L211.184 411.296L116.966 411.296L116.966 471.253L211.184 471.253L211.184 700.803"/></svg>