<svg xmlns="http://www.w3.org/2000/svg" viewBox="0 0 1000 1000" fill="currentColor"><path d="M653.514 254.270C640.541 291.459 618.054 344.216 599.027 379.676L351.676 379.676L402.703 364.973C394.054 333.838 372.432 288 347.351 254.270M444.216 116.757C454.595 140.108 462.378 168.649 468.432 195.459L151.892 195.459L151.892 254.270L340.432 254.270L285.081 268.973C307.568 301.838 329.189 347.676 336.108 379.676L132.865 379.676L132.865 550.919L196.865 550.919L196.865 438.486L801.405 438.486L801.405 550.919L868 550.919L868 379.676L667.351 379.676C684.649 347.676 702.811 307.892 720.108 269.838L663.892 254.270L851.568 254.270L851.568 195.459L539.351 195.459C532.432 166.054 520.324 128.865 507.351 100.324M226.270 538.811L226.270 829.405L289.405 829.405L289.405 596.757L465.838 596.757L465.838 900.324L531.568 900.324L531.568 596.757L714.054 596.757L714.054 757.622C714.054 767.135 710.595 770.595 698.486 770.595C686.378 771.459 644 772.324 595.568 770.595C604.216 787.892 613.730 812.108 615.459 829.405C679.459 829.405 720.108 830.270 746.054 819.892C772 809.514 778.054 791.351 778.054 757.622L778.054 538.811L531.568 538.811L531.568 460.973L465.838 460.973L465.838 538.811"/></svg>