<svg xmlns="http://www.w3.org/2000/svg" viewBox="0 0 1000 1000" fill="currentColor"><path d="M114.011 265.140C160.462 280.624 218.097 307.290 247.344 328.796L276.591 280.624C245.624 259.978 187.989 235.032 143.258 222.989M169.065 146.430C214.656 162.774 271.430 189.441 300.677 210.946L328.204 163.634C298.957 143.849 240.462 118.043 195.731 105.140M466.699 517.183L466.699 590.301L120.032 590.301L120.032 647.935L405.624 647.935C329.065 725.355 209.495 793.312 100.247 826.860C114.871 839.763 133.796 864.710 144.118 881.054C259.387 838.903 385.839 758.043 466.699 663.419L466.699 894.817L533.796 894.817L533.796 669.441C613.796 759.763 738.527 836.323 856.376 875.892C865.839 859.548 885.624 834.602 900.247 821.699C785.839 789.011 665.409 724.495 590.570 647.935L883.903 647.935L883.903 590.301L533.796 590.301L533.796 517.183M380.677 138.688L380.677 195.462L539.817 195.462C525.194 341.699 470.140 432.882 350.570 484.495C363.473 494.817 386.699 518.043 395.301 530.086C520.892 466.430 582.828 365.785 601.753 195.462L708.419 195.462C699.817 366.645 690.355 431.161 675.731 447.505C668.849 456.108 661.968 456.968 649.925 456.968C637.882 456.968 610.355 456.968 578.527 453.527C587.129 469.011 593.151 492.237 594.011 508.581C627.559 510.301 660.247 511.161 678.312 508.581C698.957 506.860 713.581 500.839 727.344 484.495C745.409 462.989 754.871 408.796 764.333 274.602C796.161 328.796 824.548 390.731 834.871 432.882L891.645 409.656C877.022 358.043 836.591 279.763 796.161 222.129L766.914 233.312L770.355 165.355C771.215 157.613 771.215 138.688 771.215 138.688M393.581 231.591C376.376 274.602 346.269 330.516 311.860 364.925L279.172 332.237C230.140 391.591 173.366 454.387 132.935 492.237L179.387 535.247C224.978 486.215 275.731 427.720 317.882 371.806L358.312 396.753C394.441 358.903 422.828 299.548 442.613 253.957"/></svg>