<svg xmlns="http://www.w3.org/2000/svg" viewBox="0 0 1000 1000" fill="currentColor"><path d="M139.753 161.020C190.946 188.785 259.492 231.302 292.464 258.200L326.304 204.403C291.597 179.241 223.050 140.195 172.725 113.297M102.443 397.028C151.900 424.794 218.711 465.575 251.683 491.605L284.655 437.809C249.948 411.779 183.137 373.601 134.547 349.306M126.738 843.883L175.328 888.134C223.050 807.440 280.317 698.980 322.833 607.007L280.317 564.490C233.462 662.538 170.121 777.072 126.738 843.883M578.798 100.282L578.798 229.566L336.716 229.566L336.716 292.907L578.798 292.907L578.798 400.499L374.894 400.499L374.894 786.616L439.102 786.616L439.102 462.972L578.798 462.972L578.798 900.282L644.742 900.282L644.742 462.972L791.380 462.972L791.380 707.657C791.380 717.202 788.777 719.805 777.497 720.672C767.085 720.672 734.113 720.672 695.935 719.805C704.612 738.026 712.421 764.056 715.024 782.278C768.820 782.278 804.395 782.278 826.954 770.998C850.382 759.718 855.588 741.497 855.588 708.525L855.588 400.499L644.742 400.499L644.742 292.907L898.104 292.907L898.104 229.566L644.742 229.566L644.742 100.282"/></svg>