<svg xmlns="http://www.w3.org/2000/svg" viewBox="0 0 1000 1000" fill="currentColor"><path d="M599.591 258.978L599.591 317.473L365.613 317.473L365.613 373.387L599.591 373.387L599.591 468.871C599.591 477.473 597.011 480.914 584.108 481.774C571.204 481.774 532.495 482.634 486.903 480.914C496.366 496.398 510.129 519.624 514.430 536.828C570.344 536.828 604.753 535.968 629.699 526.505C655.505 517.043 663.247 501.559 663.247 469.731L663.247 373.387L891.204 373.387L891.204 317.473L663.247 317.473L663.247 276.183C720.022 244.355 781.097 203.065 826.688 162.634L787.978 130.806L774.215 134.247L427.548 134.247L427.548 190.161L707.118 190.161C673.570 215.968 634 240.914 599.591 258.978M394 567.796L394 815.538L327.763 815.538L327.763 873.172L899.806 873.172L899.806 815.538L838.731 815.538L838.731 567.796M449.914 815.538L449.914 621.129L526.473 621.129L526.473 815.538M575.505 815.538L575.505 621.129L652.925 621.129L652.925 815.538M701.957 815.538L701.957 621.129L781.097 621.129L781.097 815.538M311.419 105.860C294.215 139.409 272.710 173.817 246.903 208.226C224.538 174.677 196.151 141.129 160.882 109.301L116.151 142.849C155.720 179.839 184.968 217.688 207.333 257.258C173.785 295.108 137.656 331.237 99.806 360.484C114.430 369.946 135.075 388.011 144.538 400.054C175.505 375.108 206.473 345.860 234.860 315.753C249.484 353.602 258.086 392.312 263.247 432.742C227.118 507.581 160.882 588.441 101.527 630.591C117.011 642.634 135.075 664.140 144.538 679.624C187.548 643.495 233.140 588.441 270.989 531.667L270.989 566.075C270.989 679.624 263.247 788.871 241.742 816.398C235.720 825 227.118 829.301 215.935 831.022C197.011 832.742 166.903 832.742 129.914 830.161C141.097 848.226 147.118 873.172 147.118 892.957C180.667 894.677 213.355 893.817 240.882 888.656C261.527 885.215 277.871 876.613 289.054 861.129C323.462 813.817 332.065 693.387 332.065 566.935C332.065 461.129 324.323 360.484 278.731 265C313.140 222.849 343.247 178.118 367.333 134.247"/></svg>