<svg xmlns="http://www.w3.org/2000/svg" viewBox="0 0 1000 1000" fill="currentColor"><path d="M403.108 798.503L403.108 862.090L899.779 862.090L899.779 798.503L690.112 798.503L690.112 435.023L875.719 435.023L875.719 372.294L690.112 372.294L690.112 105.055L625.665 105.055L625.665 372.294L448.651 372.294L448.651 435.023L625.665 435.023L625.665 798.503M168.522 150.597C156.492 256.290 135.010 364.561 99.779 436.741C113.527 443.615 138.447 458.223 148.758 466.816C165.085 432.445 178.834 389.480 190.864 343.078L272.496 343.078L272.496 546.730C208.049 562.198 148.758 575.087 102.357 584.539L119.542 648.127L272.496 610.318L272.496 894.743L334.365 894.743L334.365 594.851L458.103 563.057L451.229 504.625L334.365 532.982L334.365 343.078L446.073 343.078L446.073 281.209L334.365 281.209L334.365 105.055L272.496 105.055L272.496 281.209L204.612 281.209C212.346 241.682 219.220 201.295 224.376 160.909"/></svg>