<svg xmlns="http://www.w3.org/2000/svg" viewBox="0 0 1000 1000" fill="currentColor"><path d="M786.113 421.141C771.536 495.740 750.100 564.335 722.661 625.214C710.657 556.618 701.225 470.874 696.938 367.980L887.292 367.980L887.292 312.245L832.415 312.245L854.708 294.239C838.417 272.803 801.547 245.364 770.678 228.215L732.093 257.369C756.102 271.945 783.540 293.382 801.547 312.245L695.223 312.245L694.365 256.511L670.357 256.511L670.357 219.641L878.717 219.641L878.717 164.764L670.357 164.764L670.357 104.743L606.906 104.743L606.906 164.764L389.971 164.764L389.971 104.743L326.520 104.743L326.520 164.764L122.447 164.764L122.447 219.641L326.520 219.641L326.520 279.662L389.971 279.662L389.971 219.641L606.906 219.641L606.906 281.377L636.059 281.377L636.916 312.245L265.641 312.245L265.641 463.156L194.473 463.156L194.473 316.533L144.741 316.533L144.741 543.757L194.473 543.757L194.473 516.318L265.641 516.318L265.641 549.759L265.641 587.487L106.155 587.487L106.155 642.363L154.173 642.363L154.173 680.091C154.173 733.253 146.456 810.423 100.153 866.158C112.158 873.017 130.164 885.021 140.453 893.596C193.615 832.717 202.190 742.685 202.190 681.806L202.190 642.363L263.069 642.363C258.781 719.534 245.920 802.706 210.764 867.872C224.483 873.017 248.492 885.879 258.781 895.311C312.801 798.419 321.375 655.225 321.375 549.759L321.375 367.980L639.489 367.980C647.206 504.314 661.782 615.782 682.361 700.670C666.070 727.251 648.063 752.117 628.342 774.411L628.342 749.544L531.450 749.544L531.450 686.951L620.625 686.951L620.625 526.608L531.450 526.608L531.450 466.586L620.625 466.586L620.625 421.999L365.105 421.999L365.105 845.579L413.122 845.579L413.122 794.132L610.335 794.132C588.042 817.283 563.176 837.862 536.595 855.868C551.171 864.443 575.180 884.164 584.612 895.311C630.057 861.013 669.499 818.998 703.797 771.838C732.951 852.438 772.393 894.453 819.553 894.453C869.285 894.453 890.721 873.017 900.153 758.119C885.577 752.974 866.713 740.970 854.708 729.823C850.421 814.711 841.847 837.004 823.840 837.862C795.544 837.862 765.534 796.704 742.383 711.817C787.827 632.931 821.268 538.612 844.419 431.431M484.290 749.544L413.122 749.544L413.122 686.951L484.290 686.951M484.290 526.608L413.122 526.608L413.122 466.586L484.290 466.586M413.122 568.623L572.608 568.623L572.608 644.078L413.122 644.078"/></svg>