<svg xmlns="http://www.w3.org/2000/svg" viewBox="0 0 1000 1000" fill="currentColor"><path d="M163.308 122.675L163.308 429.513C163.308 556.009 158.179 727.803 100.060 848.316C115.444 853.444 141.085 867.974 152.197 878.231C191.513 797.034 208.607 689.342 216.299 587.632L352.197 587.632L352.197 799.598C352.197 812.419 347.068 815.838 335.957 815.838C324.846 816.692 288.949 816.692 249.632 815.838C258.179 832.932 265.872 861.137 267.581 877.376C325.701 877.376 359.889 876.521 382.111 865.410C404.333 855.154 412.026 835.496 412.026 800.453L412.026 122.675M221.427 182.504L352.197 182.504L352.197 322.675L221.427 322.675M221.427 382.504L352.197 382.504L352.197 526.949L219.718 526.949C220.573 492.761 221.427 459.427 221.427 429.513M804.333 474.812C785.530 546.607 755.615 611.564 718.863 667.120C678.692 609.855 647.923 544.897 624.846 474.812M487.239 125.239L487.239 877.376L547.923 877.376L547.923 474.812L569.291 474.812C596.641 563.701 634.248 645.752 682.966 714.983C643.650 762.846 598.350 799.598 551.342 825.239C565.017 836.350 582.111 857.718 588.949 872.248C635.957 844.897 680.402 808.145 719.718 762.846C759.889 810.709 806.043 850.026 858.179 878.231C868.436 862.846 886.385 840.624 900.060 828.658C846.214 803.017 798.350 763.701 756.470 715.838C810.316 639.769 852.197 543.188 875.274 426.949L837.667 413.274L826.556 415.838L547.923 415.838L547.923 185.068L788.094 185.068L788.094 290.197C788.094 300.453 785.530 303.017 771.855 303.872C758.179 304.726 712.880 304.726 660.744 303.017C669.291 318.402 678.692 340.624 681.256 357.718C746.214 357.718 789.803 357.718 816.299 349.171C843.650 339.769 850.487 322.675 850.487 291.051L850.487 125.239"/></svg>