<svg xmlns="http://www.w3.org/2000/svg" viewBox="0 0 1000 1000" fill="currentColor"><path d="M201.724 120.341C225.025 159.176 251.778 210.093 263.860 243.750L321.681 222.175C308.736 190.244 281.983 140.190 256.093 103.081M563.320 735.659C533.115 783.124 481.335 829.726 431.282 861.657C445.090 870.287 467.528 890.136 477.883 900.492C528.800 864.246 586.621 808.151 621.141 754.645M695.359 765.864C744.550 805.562 804.960 862.520 833.439 899.629L880.904 863.383C850.699 827.137 789.426 771.905 740.235 733.933M502.047 100.492C482.198 175.573 447.679 246.339 404.529 299.845L404.529 245.476L109.383 245.476L109.383 303.297L196.546 303.297C193.094 517.320 184.464 735.659 103.342 857.342C119.739 865.972 139.588 884.095 149.944 897.903C214.669 797.795 238.833 647.633 248.326 482.800L339.804 482.800C333.763 715.810 326.859 798.658 311.325 818.507C305.284 828 300.106 830.589 288.887 829.726C276.805 829.726 252.641 829.726 225.025 827.137C232.792 842.671 238.833 867.698 240.559 884.958C269.901 887.547 297.517 886.684 315.640 884.958C336.352 882.369 350.160 876.328 362.242 857.342C383.817 828 390.721 733.070 398.488 452.595C399.351 443.102 399.351 423.254 399.351 423.254L365.694 423.254L250.915 422.391L254.367 303.297L401.077 303.297C393.310 312.790 384.680 322.283 376.050 330.913C389.858 340.406 413.159 360.255 422.652 370.611C453.720 338.680 482.198 296.393 506.362 249.791L887.808 249.791L887.808 194.559L531.389 194.559C542.608 168.669 552.101 141.053 559.868 113.437M749.728 286.900L749.728 342.995L577.128 342.995L577.128 286.900L519.307 286.900L519.307 342.995L464.939 342.995L464.939 397.364L519.307 397.364L519.307 667.482L425.241 667.482L425.241 721.851L897.301 721.851L897.301 667.482L807.549 667.482L807.549 397.364LNaN 397.364LNaN 342.995L807.549 342.995L807.549 286.900M577.128 397.364L749.728 397.364L749.728 454.321L577.128 454.321M577.128 499.197L749.728 499.197L749.728 559.607L577.128 559.607M577.128 604.483L749.728 604.483L749.728 667.482L577.128 667.482"/></svg>