<svg xmlns="http://www.w3.org/2000/svg" viewBox="0 0 1000 1000" fill="currentColor"><path d="M131.863 393.985C169.753 438.764 211.088 499.905 228.311 539.518L279.118 511.961C261.896 472.349 218.839 413.791 180.087 370.734M386.761 140.809C420.346 170.088 457.375 212.284 473.736 241.563L521.099 209.701C503.876 181.283 465.125 140.809 431.540 112.392M459.097 356.095C434.124 393.124 395.372 441.348 358.343 481.821L358.343 313.899L530.572 313.899L530.572 253.619L358.343 253.619L358.343 103.780L295.480 103.780L295.480 253.619L110.335 253.619L110.335 313.899L295.480 313.899L295.480 553.296C224.005 610.992 149.947 668.689 100.001 704.857L132.724 756.525C180.087 719.496 239.506 672.133 295.480 625.632L295.480 817.666C295.480 831.445 290.313 834.889 277.396 835.750C265.340 836.611 224.867 836.611 181.809 834.889C189.560 851.251 199.032 876.224 201.616 891.724C264.479 892.586 302.369 890.863 325.620 882.252C349.732 871.918 358.343 854.695 358.343 818.527L358.343 598.075C406.567 636.827 457.375 682.467 484.070 714.329L529.710 671.272C495.265 634.243 430.679 580.853 374.705 538.657C420.346 496.461 474.597 435.320 515.932 380.207M636.492 331.983L780.302 331.983C766.524 436.181 743.273 529.184 707.967 607.548C672.660 532.629 646.826 447.376 627.881 358.678M620.991 105.503C599.463 257.925 559.850 401.735 490.098 493.016C504.737 503.350 530.572 526.601 540.905 537.795C559.850 511.961 577.073 481.821 592.574 449.098C613.241 530.045 639.075 606.687 671.799 673.856C622.714 751.358 554.684 809.916 464.264 844.362C481.487 857.279 501.293 880.530 511.626 896.891C593.435 862.446 657.159 807.333 706.244 736.719C745.857 802.166 794.081 856.418 851.777 894.308C862.972 877.085 884.501 852.112 900.001 839.195C837.138 802.166 785.469 745.330 743.273 674.717C792.358 579.991 822.498 463.737 838.860 331.983L893.973 331.983L893.973 271.703L653.715 271.703C665.771 221.757 676.104 169.227 684.716 114.975"/></svg>