<svg xmlns="http://www.w3.org/2000/svg" viewBox="0 0 1000 1000" fill="currentColor"><path d="M224.271 408.850C212.111 482.683 192.132 575.625 174.760 636.429L437.084 636.429C360.645 718.079 239.907 788.438 122.643 823.182C138.278 837.080 158.256 862.270 168.680 880.511C279.863 840.555 395.390 770.197 477.040 684.203L477.040 900.490L542.187 900.490L542.187 636.429L805.379 636.429C796.693 731.109 787.138 771.934 773.240 784.963C765.422 791.912 756.736 792.781 741.101 792.781C723.729 792.781 679.429 791.912 633.392 787.569C644.684 804.941 651.633 830.131 652.502 849.241C701.144 852.716 745.444 852.716 769.765 850.978C794.955 849.241 811.459 844.029 827.094 827.526C850.547 804.073 862.708 745.007 874.869 603.421C875.737 594.735 876.606 576.494 876.606 576.494L542.187 576.494L542.187 469.654L834.912 469.654L834.912 235.126L686.378 235.126C708.093 201.250 732.415 157.819 754.130 119.599L682.903 100.490C669.005 140.446 641.210 196.038 616.888 235.126L369.331 235.126L398.864 224.702C386.704 191.695 357.170 140.446 330.243 103.096L270.308 122.205C294.630 156.950 319.820 202.118 332.849 235.126L172.154 235.126L172.154 295.061L477.040 295.061L477.040 408.850M477.040 576.494L254.673 576.494L277.257 469.654L477.040 469.654M542.187 295.061L768.028 295.061L768.028 408.850L542.187 408.850"/></svg>