<svg xmlns="http://www.w3.org/2000/svg" viewBox="0 0 1000 1000" fill="currentColor"><path d="M299.522 403.918L713.554 403.918L713.554 542.502L299.522 542.502M663.629 686.251C720.440 743.923 790.163 825.696 822.011 874.760L877.961 836.886C843.531 787.822 772.086 710.353 716.136 653.542M276.282 654.402C242.711 712.935 176.432 785.240 118.760 831.722C132.533 841.190 154.913 859.266 166.103 872.178C227.217 821.392 295.219 744.784 339.118 677.643M431.221 120.724C449.297 149.129 469.095 183.560 483.728 213.687L129.950 213.687L129.950 277.384L880.544 277.384L880.544 213.687L559.476 213.687C544.842 181.838 516.437 134.496 493.196 100.065M235.825 347.107L235.825 600.174L473.398 600.174L473.398 823.114C473.398 835.165 469.955 838.608 453.601 839.468C438.107 839.468 384.739 840.329 325.346 838.608C334.814 856.684 343.422 881.646 347.726 899.723C423.474 900.583 472.538 900.583 502.665 890.254C532.792 880.786 541.399 862.709 541.399 823.975L541.399 600.174L781.555 600.174L781.555 347.107"/></svg>