<svg xmlns="http://www.w3.org/2000/svg" viewBox="0 0 1000 1000" fill="currentColor"><path d="M271.957 313.478L742.391 313.478L742.391 377.826L271.957 377.826M352.826 538.696L639.783 538.696C631.087 561.304 617.174 590.870 604.130 616.087L395.435 616.087C385.870 592.609 368.478 563.043 352.826 538.696M450.217 432.609C464.130 448.261 477.174 468.261 485.870 486.522L171.957 486.522L171.957 538.696L342.391 538.696L293.696 553.478C305.870 571.739 318.043 595.217 327.609 616.087L116.304 616.087L116.304 670L466.739 670L466.739 742.174L156.304 742.174L156.304 794.348L466.739 794.348L466.739 899.565L533.696 899.565L533.696 794.348L850.217 794.348L850.217 742.174L533.696 742.174L533.696 670L883.261 670L883.261 616.087L668.478 616.087L708.478 552.609L651.087 538.696L837.174 538.696L837.174 486.522L538.043 486.522L552.826 479.565C545.870 463.043 531.957 441.304 516.304 423.043L808.478 423.043L808.478 269.130L533.696 269.130L533.696 218.696L877.174 218.696L877.174 167.391L533.696 167.391L533.696 99.565L466.739 99.565L466.739 167.391L126.739 167.391L126.739 218.696L466.739 218.696L466.739 269.130L209.348 269.130L209.348 423.043L472.826 423.043"/></svg>