<svg xmlns="http://www.w3.org/2000/svg" viewBox="0 0 1000 1000" fill="currentColor"><path d="M298.783 99.654L298.783 383.525C298.783 531.912 284.037 719.009 134.728 849.885C150.396 859.101 177.124 884.908 187.263 899.654C277.585 820.392 323.668 716.244 346.710 611.175L791.871 611.175L791.871 795.507C791.871 815.783 785.419 822.235 763.300 823.157C742.101 824.078 667.447 825 590.949 822.235C602.931 841.590 615.834 873.848 620.442 895.046C719.060 895.046 780.811 894.124 816.756 881.221C850.857 869.240 864.682 846.198 864.682 796.429L864.682 99.654M368.829 166.935L791.871 166.935L791.871 321.774L368.829 321.774M368.829 387.212L791.871 387.212L791.871 543.894L358.691 543.894C366.065 489.516 368.829 436.060 368.829 387.212"/></svg>