<svg xmlns="http://www.w3.org/2000/svg" viewBox="0 0 1000 1000" fill="currentColor"><path d="M578.534 791.087C675.714 823.191 774.629 865.707 834.499 898.679L886.560 853.560C823.219 821.456 716.495 779.807 618.447 748.570M364.217 751.174C308.685 788.484 200.226 831.868 113.458 854.427C127.341 866.575 147.297 888.267 157.709 900.414C243.610 876.119 352.937 831.868 421.484 787.616M470.941 100.414L464 175.902L137.753 175.902L137.753 231.434L456.191 231.434L446.646 286.098L237.536 286.098L237.536 679.156L113.458 679.156L113.458 733.820L883.957 733.820L883.957 679.156L760.746 679.156L760.746 286.098L509.987 286.098L520.399 231.434L861.397 231.434L861.397 175.902L529.076 175.902L540.356 109.091M300.009 679.156L300.009 617.551L695.670 617.551L695.670 679.156M300.009 431.868L695.670 431.868L695.670 482.193L300.009 482.193M300.009 389.351L300.009 332.085L695.670 332.085L695.670 389.351M300.009 523.842L695.670 523.842L695.670 575.902L300.009 575.902"/></svg>