<svg xmlns="http://www.w3.org/2000/svg" viewBox="0 0 1000 1000" fill="currentColor"><path d="M469.234 540.990L469.234 796.050L523.206 796.050L523.206 746.431L690.344 746.431L690.344 540.990M523.206 589.739L636.372 589.739L636.372 697.682L523.206 697.682M625.926 99.641C625.055 127.497 623.314 153.613 619.832 176.246L437.025 176.246L437.025 230.218L609.386 230.218C587.624 303.341 539.745 345.125 425.708 371.240C437.025 381.687 451.824 404.320 457.917 418.248C554.544 394.744 610.257 359.053 642.466 304.211C706.013 339.902 779.136 384.298 818.309 412.155L860.094 366.888C813.956 335.550 730.387 288.542 664.229 254.592L670.322 230.218L864.446 230.218L864.446 176.246L679.898 176.246C682.509 152.742 684.250 127.497 685.991 99.641M410.910 420.860L410.910 475.702L773.913 475.702L773.913 823.906C773.913 836.964 769.560 840.446 754.762 841.317C740.834 841.317 691.214 841.317 635.502 839.576C645.077 856.986 655.523 882.231 659.005 899.641C728.646 899.641 773.042 898.770 800.028 889.195C827.014 879.619 835.719 861.338 835.719 824.777L835.719 475.702L891.432 475.702L891.432 420.860M108.842 242.405L108.842 785.604L339.528 763.841L339.528 801.273L389.147 801.273L389.147 241.534L339.528 241.534L339.528 705.517L275.110 711.610L275.110 106.605L220.268 106.605L220.268 716.834L157.591 722.927L157.591 242.405"/></svg>