<svg xmlns="http://www.w3.org/2000/svg" viewBox="0 0 1000 1000" fill="currentColor"><path d="M213.752 136.111C245.376 172.009 279.564 220.726 294.949 253.205L347.940 219.872C330.846 189.103 296.658 142.094 262.470 107.906M472.726 154.915L472.726 805.342L371.017 805.342L371.017 865.171L900.077 865.171L900.077 805.342L826.573 805.342L826.573 154.915M534.265 805.342L534.265 640.385L762.470 640.385L762.470 805.342M534.265 423.291L762.470 423.291L762.470 581.410L534.265 581.410M534.265 365.171L534.265 214.744L762.470 214.744L762.470 365.171M122.299 254.060L122.299 313.034L348.795 313.034C293.239 419.872 194.094 522.436 100.077 578.846C109.479 590.812 123.154 623.291 128.282 641.239C168.453 614.744 208.624 581.410 247.940 542.094L247.940 892.521L310.333 892.521L310.333 524.145C342.812 560.897 381.274 606.197 399.222 630.983L440.248 577.991C421.444 559.188 354.778 490.812 320.590 460.043C365.034 403.632 402.641 341.239 429.137 276.282L394.094 251.496L382.983 254.060"/></svg>