<svg xmlns="http://www.w3.org/2000/svg" viewBox="0 0 1000 1000" fill="currentColor"><path d="M333.099 126.645C315.968 160.049 291.985 195.167 264.576 229.428C240.593 195.167 209.758 161.762 171.214 129.214L124.105 165.188C166.931 202.019 198.623 238.850 222.606 277.394C184.919 317.651 143.805 353.625 106.118 378.465C119.822 392.169 137.809 417.865 145.518 434.996C179.779 408.443 216.610 373.325 251.728 335.638C264.576 369.043 273.141 402.448 278.281 437.565C237.167 515.510 165.218 595.167 100.122 635.424C113.827 649.128 130.101 673.968 138.666 691.099C190.058 652.555 244.019 594.310 285.989 531.784L286.846 569.471C286.846 679.107 279.137 775.895 256.867 805.017C250.872 813.582 242.306 817.865 228.602 818.722C208.901 821.291 175.497 822.148 132.670 818.722C143.805 837.565 151.514 862.405 151.514 883.818C190.058 885.531 226.889 885.531 256.867 879.535C278.281 876.109 294.555 866.687 306.546 850.413C341.664 802.448 351.086 692.812 351.086 571.184C351.086 470.970 343.377 374.182 297.124 283.390C330.529 241.420 360.507 197.737 382.777 157.480M539.522 867.544C553.227 858.122 575.497 849.557 712.542 811.013C719.394 835.852 725.390 858.979 728.816 879.535L776.782 864.118C763.077 798.165 729.672 697.094 696.268 620.006L651.728 634.567C668.002 672.255 684.276 716.794 697.981 760.478L584.919 788.743C642.306 659.407 644.019 507.801 644.019 393.882L644.019 204.589L733.099 190.028C745.946 476.966 771.642 742.490 851.300 888.957C862.435 872.683 884.704 851.270 900.122 840.991C824.747 712.512 799.051 449.557 786.203 179.749C818.752 172.897 849.587 165.188 876.996 157.480L828.173 107.801C735.668 136.066 575.497 160.906 435.026 176.323L435.026 343.347C435.026 488.101 427.317 702.233 340.807 855.552C352.799 861.548 378.495 880.392 388.773 891.527C479.565 729.642 493.270 494.953 493.270 343.347L493.270 223.433L588.345 212.298L588.345 393.882C588.345 527.501 586.632 697.951 498.409 823.004C510.400 831.570 531.814 855.552 539.522 867.544"/></svg>