<svg xmlns="http://www.w3.org/2000/svg" viewBox="0 0 1000 1000" fill="currentColor"><path d="M201.459 193.919L368.378 193.919L368.378 346.135L201.459 346.135M546.541 404.946L776.595 404.946L776.595 581.378L546.541 581.378M884.703 145.486L481.676 145.486L481.676 861.595L900.270 861.595L900.270 798.459L546.541 798.459L546.541 642.784L838 642.784L838 343.541L546.541 343.541L546.541 209.486L884.703 209.486M100.270 795L116.703 856.405C206.649 831.324 330.324 796.730 447.946 763.865L440.162 706.784L327.730 737.054L327.730 583.973L441.027 583.973L441.027 526.892L327.730 526.892L327.730 402.351L427.189 402.351L427.189 137.703L144.378 137.703L144.378 402.351L267.189 402.351L267.189 753.486L200.595 770.784L200.595 489.703L145.243 489.703L145.243 784.622"/></svg>