<svg xmlns="http://www.w3.org/2000/svg" viewBox="0 0 1000 1000" fill="currentColor"><path d="M841.197 593.980L347.156 593.980L347.156 706.657L263.949 706.657L263.949 753.460L347.156 753.460L347.156 873.937L859.399 873.937L859.399 822.800L411.295 822.800L411.295 753.460L893.202 753.460L893.202 706.657L411.295 706.657L411.295 645.118L841.197 645.118M182.476 260.286L182.476 473.504C182.476 587.047 175.542 746.527 107.069 860.069C121.804 867.003 149.540 887.805 159.940 899.939C234.480 779.463 245.748 597.447 245.748 473.504L245.748 313.157L466.766 313.157L466.766 388.563L288.218 399.831L290.818 446.635L466.766 435.367L466.766 466.570C466.766 527.242 491.035 541.976 584.642 541.976C605.444 541.976 759.724 541.976 780.525 541.976C847.264 541.976 866.333 524.641 873.267 458.769C856.798 456.169 833.397 449.235 819.529 440.568C816.928 486.505 809.128 494.306 774.458 494.306C742.389 494.306 611.511 494.306 588.109 494.306C536.105 494.306 527.438 489.972 527.438 465.703L527.438 431.900L753.657 417.166L750.190 370.362L527.438 384.230L527.438 313.157L810.861 313.157C800.460 343.493 788.326 373.829 777.059 394.631L831.663 411.099C851.598 375.562 874.133 319.224 891.468 269.820L846.398 257.686L835.130 260.286L530.905 260.286L530.905 203.948L829.063 203.948L829.063 154.544L530.905 154.544L530.905 99.939L466.766 99.939L466.766 260.286"/></svg>