<svg xmlns="http://www.w3.org/2000/svg" viewBox="0 0 1000 1000" fill="currentColor"><path d="M783.588 506.545C813.631 573.498 841.957 661.910 850.541 719.421L900.326 705.687C890.884 649.034 861.700 561.481 829.082 495.386M538.953 494.528C526.936 570.064 507.193 643.884 472.858 695.386C485.734 701.395 507.193 714.270 515.777 721.137C549.253 667.060 573.288 586.373 587.021 503.112M392.172 507.403C414.489 553.755 435.948 616.416 442.815 657.618L487.451 641.309C479.725 600.966 457.408 540.021 434.232 492.811M157.837 492.811C146.678 563.197 128.652 635.300 100.326 685.086C112.343 691.094 134.661 702.253 144.103 709.120C170.712 657.618 193.030 578.648 205.906 502.253M525.219 212.124L525.219 269.635L659.124 269.635L659.124 370.064L498.609 370.064L498.609 430.150L612.773 430.150C608.481 631.867 593.888 770.064 488.309 849.893C501.185 859.335 519.210 879.077 526.936 892.811C641.099 803.541 659.983 649.893 664.275 430.150L720.069 430.150L720.069 829.292C720.069 838.734 716.635 841.309 707.193 841.309C697.751 841.309 665.991 841.309 629.940 840.451C637.665 856.760 644.532 879.077 646.249 893.670C696.893 893.670 727.794 892.811 748.395 884.227C768.137 874.785 773.288 858.476 773.288 828.433L773.288 430.150L885.734 430.150L885.734 370.064L718.352 370.064L718.352 269.635L853.974 269.635L853.974 212.124L718.352 212.124L718.352 103.970L659.124 103.970L659.124 212.124M148.395 212.124L148.395 269.635L272.858 269.635L272.858 370.064L115.777 370.064L115.777 430.150L230.798 430.150C226.506 631.867 212.773 772.639 110.627 852.468C124.361 861.910 141.528 882.511 150.112 896.245C261.700 805.258 278.867 649.034 283.159 430.150L333.803 430.150L333.803 823.283C333.803 832.725 331.227 835.300 320.927 835.300C311.485 836.159 281.442 836.159 247.107 835.300C253.974 850.751 261.700 873.069 263.416 887.661C312.343 888.519 342.386 887.661 362.987 878.219C381.013 868.777 387.021 853.326 387.021 823.283L387.021 430.150L472.858 430.150L472.858 370.064L332.944 370.064L332.944 269.635L450.541 269.635L450.541 212.124L332.944 212.124L332.944 103.970L272.858 103.970L272.858 212.124"/></svg>