<svg xmlns="http://www.w3.org/2000/svg" viewBox="0 0 1000 1000" fill="currentColor"><path d="M552.055 196.775L552.055 335.755L451.295 335.755L451.295 196.775M397.441 141.183L397.441 445.201C397.441 573.757 389.623 741.401 311.447 861.270C323.608 868.219 345.324 889.066 353.141 900.358C409.602 816.102 433.923 704.919 444.346 599.815L552.055 599.815L552.055 827.394C552.055 838.686 547.712 843.029 538.157 843.029C528.603 843.898 499.069 843.898 463.456 842.161C472.142 857.796 479.960 883.855 482.566 899.490C532.946 899.490 560.742 898.621 580.720 888.198C599.830 877.774 606.779 859.533 606.779 829.131L606.779 141.183M552.055 392.215L552.055 541.618L448.689 541.618C450.427 507.742 451.295 474.734 451.295 445.201L451.295 392.215M831.751 196.775L831.751 335.755L721.436 335.755L721.436 196.775M665.845 141.183L665.845 503.398C665.845 616.319 661.502 759.642 608.516 859.533C620.676 866.482 642.392 889.066 651.078 900.358C697.115 817.839 713.619 703.181 718.831 599.815L831.751 599.815L831.751 827.394C831.751 838.686 827.408 842.161 816.985 843.029C808.299 843.898 777.028 843.898 739.678 843.029C747.495 857.796 756.181 882.986 758.787 898.621C811.773 898.621 840.438 897.752 861.284 888.198C881.263 877.774 888.212 859.533 888.212 827.394L888.212 141.183M831.751 392.215L831.751 541.618L721.436 541.618L721.436 503.398L721.436 392.215M225.454 100.358L225.454 268.002L122.957 268.002L122.957 328.806L222.848 328.806C202.001 446.069 156.833 585.049 110.796 658.882C120.351 674.517 134.249 703.181 141.198 722.291C172.468 669.305 202.001 585.049 225.454 496.450L225.454 898.621L283.651 898.621L283.651 453.018C302.761 495.581 323.608 543.355 333.163 570.282L370.514 521.640C358.353 496.450 301.893 393.952 283.651 365.288L283.651 328.806L367.039 328.806L367.039 268.002L283.651 268.002L283.651 100.358"/></svg>