<svg xmlns="http://www.w3.org/2000/svg" viewBox="0 0 1000 1000" fill="currentColor"><path d="M521 356.217L808.826 356.217L808.826 431.870L521 431.870M521 234.478L808.826 234.478L808.826 308.391L521 308.391M460.130 184.043L460.130 482.304L627.957 482.304L627.957 553.609L438.391 553.609L438.391 831.870L499.261 831.870L499.261 611.870L627.957 611.870L627.957 899.696L690.565 899.696L690.565 611.870L826.217 611.870L826.217 764.913C826.217 772.739 823.609 775.348 814.043 776.217C805.348 776.217 776.652 776.217 742.739 775.348C749.696 791.870 758.391 814.478 NaN 831C808.826 831 NaN 831 861.870 821.435C883.609 811.870 888.826 795.348 888.826 765.783L888.826 553.609L690.565 553.609L690.565 482.304L871.435 482.304L871.435 184.043L668.826 184.043C677.522 160.565 687.087 132.739 695.783 106.652L621.870 99.696C618.391 124.043 612.304 156.217 604.478 184.043M253.174 100.565L253.174 286.652L126.217 286.652L126.217 348.391L246.217 348.391C219.261 467.522 165.348 604.913 110.565 678.826C121.870 694.478 138.391 720.565 145.348 737.957C185.348 681.435 223.609 589.261 253.174 494.478L253.174 899.696L314.913 899.696L314.913 467.522C342.739 509.261 375.783 559.696 389.696 586.652L429.696 535.348C413.174 512.739 341 420.565 314.913 391L314.913 348.391L428.826 348.391L428.826 286.652L314.913 286.652L314.913 100.565"/></svg>