<svg xmlns="http://www.w3.org/2000/svg" viewBox="0 0 1000 1000" fill="currentColor"><path d="M477.778 532.508L477.778 899.793L542.336 899.793L542.336 852.683L800.569 852.683L800.569 892.814L867.745 892.814L867.745 532.508L701.115 532.508L701.115 351.047L900.024 351.047L900.024 288.233L701.115 288.233L701.115 99.793L635.684 99.793L635.684 288.233L443.754 288.233L443.754 351.047L635.684 351.047L635.684 532.508M542.336 791.614L542.336 593.577L800.569 593.577L800.569 791.614M340.809 338.833C330.340 456.609 308.530 554.318 276.251 632.835C246.589 604.918 215.182 578.746 185.520 553.446C201.224 493.250 218.672 417.350 233.503 338.833M114.855 574.384C157.603 609.280 203.841 652.028 246.589 693.904C208.203 762.824 159.348 812.552 100.024 843.959C113.983 856.172 130.558 880.600 140.155 897.176C202.096 860.534 252.696 809.935 293.699 742.759C325.106 776.783 352.150 809.062 371.344 836.979L418.454 787.252C396.643 755.845 363.492 718.332 325.106 679.945C369.599 580.491 396.643 450.502 406.240 280.382L366.981 274.275L355.640 276.020L243.972 276.020C254.441 216.696 263.165 157.372 269.272 104.155L205.586 101.538C200.351 154.755 192.499 214.951 182.031 276.020L106.131 276.020L106.131 338.833L170.689 338.833C153.241 427.819 133.176 513.315 114.855 574.384"/></svg>