<svg xmlns="http://www.w3.org/2000/svg" viewBox="0 0 1000 1000" fill="currentColor"><path d="M291.415 375.321L696.555 375.321L696.555 497.805L291.415 497.805M448.161 113.223C457.582 138.919 467.861 170.610 476.426 197.163L134.670 197.163L134.670 256.263L869.574 256.263L869.574 197.163L547.518 197.163C538.953 168.897 524.392 130.353 511.544 100.375M285.420 900.375C303.407 889.240 332.529 879.818 550.944 813.009C548.375 800.161 546.662 774.465 546.662 757.334L368.503 807.869L368.503 643.415C410.473 616.006 449.017 586.028 478.996 553.480L497.839 553.480C561.223 719.647 679.424 830.139 858.439 878.105C867.004 861.831 884.135 836.991 898.696 823.287C807.904 802.730 731.672 765.043 672.572 711.938C731.672 680.246 801.908 635.707 857.582 593.737L803.621 555.193C762.507 592.024 693.985 642.559 636.597 676.820C604.906 640.846 579.210 599.732 559.510 553.480L761.651 553.480L761.651 319.647L228.032 319.647L228.032 553.480L399.338 553.480C323.107 616.863 204.906 666.542 101.266 695.664C109.831 710.225 123.535 742.773 127.818 757.334C186.062 736.777 248.589 711.081 306.833 679.390L306.833 787.313C306.833 818.148 278.567 830.996 260.580 836.991C270.859 854.122 281.137 883.244 285.420 900.375"/></svg>