<svg xmlns="http://www.w3.org/2000/svg" viewBox="0 0 1000 1000" fill="currentColor"><path d="M132.532 148.346C181.883 197.697 238.160 266.961 261.537 311.983L317.814 278.216C291.840 233.195 234.697 165.662 184.481 117.177M458.939 182.978L749.848 182.978L749.848 305.056L458.939 305.056M396.602 131.030L396.602 357.004L815.649 357.004L815.649 131.030M279.719 414.147L104.827 414.147L104.827 476.485L214.784 476.485L214.784 719.775C180.152 735.359 141.190 775.186 100.498 825.403L143.788 882.545C182.749 821.074 219.978 766.528 245.952 766.528C264.134 766.528 292.706 798.563 329.069 821.939C390.541 862.632 463.268 872.156 575.823 872.156C658.074 872.156 821.710 866.961 882.316 862.632C883.182 844.450 893.571 813.281 900.498 796.831C816.515 806.355 685.779 813.281 577.554 813.281C476.255 813.281 401.797 808.087 344.654 769.991C315.216 750.944 296.169 733.628 279.719 723.238M336.861 689.472L336.861 743.152L877.121 743.152L877.121 689.472L639.892 689.472L639.892 602.026L837.294 602.026L837.294 549.212L639.892 549.212L639.892 469.558L857.208 469.558L857.208 415.013L355.909 415.013L355.909 469.558L575.823 469.558L575.823 549.212L384.481 549.212L384.481 602.026L575.823 602.026L575.823 689.472"/></svg>