<svg xmlns="http://www.w3.org/2000/svg" viewBox="0 0 1000 1000" fill="currentColor"><path d="M609.914 139.738L609.914 195.532L791.888 195.532L791.888 350.897L609.914 350.897L609.914 406.691L852.833 406.691L852.833 139.738M250.258 106.262C218.498 239.309 166.137 370.639 100.043 457.335C111.202 472.785 129.227 507.120 135.236 521.712C154.979 495.961 173.863 465.918 191.888 434.159L191.888 890.811L253.691 890.811L253.691 299.395C276.009 241.884 294.893 180.940 310.343 119.996M339.528 139.738L339.528 889.094L398.755 889.094L398.755 717.421L566.137 717.421L566.137 662.485L398.755 662.485L398.755 555.189L556.695 555.189L556.695 500.253L398.755 500.253L398.755 408.408L575.579 408.408L575.579 139.738M795.322 527.721C779.013 589.524 754.120 642.742 722.361 687.378C692.318 639.309 668.283 585.232 652.833 527.721M585.880 473.644L585.880 527.721L645.107 527.721L602.189 538.021C621.931 610.124 649.399 676.219 686.309 732.871C637.382 785.232 578.155 823 512.918 846.176C524.936 857.335 538.670 878.794 546.395 893.386C612.489 866.777 670.858 829.867 720.644 779.223C759.270 827.292 805.622 865.060 860.558 889.953CNaN 875.361 887.167 853.043 900.043 841.026C845.107 818.708 797.039 781.798 758.412 735.446C807.339 671.069 843.391 588.665 863.991 483.944L827.082 471.927L816.781 473.644M398.755 194.674L518.927 194.674L518.927 353.472L398.755 353.472"/></svg>