<svg xmlns="http://www.w3.org/2000/svg" viewBox="0 0 1000 1000" fill="currentColor"><path d="M111.462 402.068L111.462 456.769L214.880 456.769C208.897 620.017 191.803 770.444 100.350 855.060C114.880 863.607 134.538 884.120 143.085 897.795C218.299 826.855 249.923 718.308 264.453 591.812L359.325 591.812C354.197 755.915 348.214 814.889 336.248 830.274C331.120 837.966 324.282 839.675 314.026 839.675C302.060 839.675 277.274 839.675 247.359 837.111C255.906 851.641 261.889 875.573 263.598 891.812C294.368 893.521 325.137 893.521 342.231 891.812C362.744 890.103 376.419 884.120 389.239 867.880C408.043 843.949 414.026 770.444 420.863 563.607C420.863 555.060 420.863 537.111 420.863 537.111L269.581 537.111L274.709 456.769L443.940 456.769L443.940 402.068L281.547 402.068L336.248 384.974C328.556 355.915 308.897 313.179 287.530 281.556L233.684 296.940C252.487 329.419 272.145 372.154 278.983 402.068M233.684 102.923C205.479 169.590 156.761 236.256 102.915 279.846C118.299 287.538 143.940 305.487 155.906 314.889C182.402 290.103 208.897 259.333 233.684 224.291L299.496 224.291C323.427 256.769 347.359 296.940 357.615 323.436L414.880 302.923C404.624 281.556 386.675 251.641 367.017 224.291L498.641 224.291L498.641 174.718L265.308 174.718C275.564 156.769 284.966 137.966 293.513 119.162M581.547 104.632C557.615 171.299 513.171 235.402 460.179 278.137C476.419 284.120 502.915 299.504 514.880 309.761C540.521 286.684 565.308 256.769 587.530 223.436L643.940 223.436C671.291 255.060 699.496 295.231 712.316 321.726L768.726 296.940C758.470 276.427 738.812 249.077 717.444 223.436L878.983 223.436L878.983 173.863L617.444 173.863C626.846 155.915 635.393 137.966 642.231 119.162M568.726 439.675C549.068 501.214 514.880 562.752 474.709 605.487C488.385 613.179 511.462 629.419 521.718 637.966C539.667 617.453 557.615 590.957 573.855 561.897L638.812 561.897L638.812 629.419L638.812 645.658L459.325 645.658L459.325 698.650L629.410 698.650C613.171 752.496 567.872 810.615 443.940 851.641C457.615 862.752 475.564 884.120 483.256 896.940C593.513 853.350 649.923 798.650 677.274 743.094C715.735 816.598 776.419 870.444 862.744 896.940C870.436 880.701 886.675 857.624 900.350 845.658C812.316 823.436 749.923 770.444 716.590 698.650L879.838 698.650L879.838 645.658L701.205 645.658L701.205 630.274L701.205 561.897L860.179 561.897L860.179 508.051L601.205 508.051C609.752 490.103 616.590 471.299 623.427 452.496M537.103 300.359C513.171 372.154 471.291 444.803 425.137 493.521C437.957 501.214 461.889 519.162 473 528.564C496.932 501.214 520.863 467.026 542.231 428.564L880.692 428.564L880.692 375.573L568.726 375.573C578.128 355.915 586.675 335.402 593.513 315.744"/></svg>