<svg xmlns="http://www.w3.org/2000/svg" viewBox="0 0 1000 1000" fill="currentColor"><path d="M410.788 347.601C458.498 385.939 514.728 442.169 540.288 478.804L588.850 438.761C562.439 402.127 503.653 347.601 456.794 310.966M213.131 500.955L213.131 562.297L676.603 562.297C628.040 613.415 564.995 675.609 507.061 730.987C462.758 701.168 416.752 673.053 376.709 649.198L331.555 694.353C426.124 752.286 548.807 839.187 606.741 895.417L655.304 841.743C631.448 820.444 598.222 794.033 560.735 767.622C643.376 686.685 735.389 592.968 799.286 525.662L751.576 496.695L740.501 500.955M504.505 103.937C415.900 224.917 254.878 339.081 99.819 404.683C117.710 420.018 136.454 442.169 146.677 458.357C273.621 398.719 402.268 309.262 499.393 207.878C595.666 306.706 737.093 403.831 852.109 456.653C862.332 438.761 884.483 412.350 899.819 398.719C778.839 351.860 628.040 255.588 539.436 163.575L562.439 134.608"/></svg>