<svg xmlns="http://www.w3.org/2000/svg" viewBox="0 0 1000 1000" fill="currentColor"><path d="M783.426 276.092C753.221 310.612 699.715 358.077 660.880 386.556L708.345 418.487C748.043 390.871 798.097 349.447 837.795 308.886M116.328 540.169L149.122 591.949C206.080 564.333 276.846 526.361 343.297 490.978L330.352 441.787C251.819 479.759 169.834 517.731 116.328 540.169M141.355 314.064C187.957 343.406 244.915 386.556 271.668 415.898L318.270 376.200C288.928 346.858 231.970 305.434 185.368 278.681M652.250 478.896C711.797 515.142 786.015 566.922 822.261 601.442L870.589 562.607C832.617 528.087 755.810 477.170 697.989 444.376M112.013 656.674L112.013 717.084L464.980 717.084L464.980 900.040L534.019 900.040L534.019 717.084L887.849 717.084L887.849 656.674L534.019 656.674L534.019 585.908L464.980 585.908L464.980 656.674M443.405 116.437C456.350 136.286 471.883 161.313 483.102 183.751L129.273 183.751L129.273 243.298L445.994 243.298C420.104 284.722 390.762 320.105 379.543 331.324C366.598 346.858 353.653 356.351 341.571 358.940C347.612 373.611 356.242 401.227 359.694 414.172C372.639 408.994 391.625 404.679 490.869 396.912C449.446 439.198 412.337 472.855 395.077 486.663C365.735 510.827 343.297 527.224 324.311 529.813C331.215 546.210 339.845 574.689 342.434 585.908C360.557 578.141 390.762 573.826 616.867 551.388C627.223 568.648 635.853 584.182 641.031 597.990L692.811 574.689C674.688 534.991 630.675 472.855 591.840 428.843L543.512 448.691C558.183 465.088 572.854 484.937 585.799 503.923L433.049 516.868C508.992 456.458 584.936 380.515 653.976 300.256L601.333 270.051C583.210 294.215 562.498 318.379 542.649 341.680L431.323 347.721C459.802 317.516 488.280 281.270 513.307 243.298L880.082 243.298L880.082 183.751L559.046 183.751C546.964 158.724 526.252 125.067 506.403 100.040"/></svg>