<svg xmlns="http://www.w3.org/2000/svg" viewBox="0 0 1000 1000" fill="currentColor"><path d="M445.398 119.209L472.719 176.413L137.180 176.413L137.180 317.288L195.238 317.288L195.238 229.348L803.989 229.348L803.989 317.288L864.608 317.288L864.608 176.413L547.853 176.413C538.461 154.215 523.093 124.332 509.432 102.133M260.126 360.831L260.126 583.670L122.666 583.670L122.666 634.898L293.424 634.898C245.612 683.564 173.039 722.838 99.614 743.329C113.274 754.428 130.350 776.626 138.888 791.141C196.092 772.358 252.442 739.914 298.546 699.785L298.546 732.229L416.369 732.229C392.463 799.679 333.552 831.269 197.799 849.199C208.899 861.152 223.413 884.204 228.536 898.718C383.925 872.251 450.521 827 478.696 732.229L650.307 732.229C640.062 798.825 629.816 827.854 618.717 838.953C611.033 844.930 604.203 846.637 590.542 846.637C577.735 846.637 541.022 845.783 503.456 842.368C511.994 856.029 517.116 876.520 517.970 891.034C557.244 893.596 594.811 893.596 614.448 891.888C636.647 891.888 652.869 886.765 666.529 874.812C687.020 856.029 701.535 811.632 714.342 708.323L715.195 704.054C757.885 740.767 809.112 771.504 858.632 790.287C868.023 774.919 885.953 753.574 899.614 742.475C832.164 721.984 762.154 681.856 715.195 634.898L881.684 634.898L881.684 583.670L749.347 583.670L749.347 360.831L504.309 360.831L522.239 319.850L775.814 319.850L775.814 272.891L225.121 272.891L225.121 319.850L455.644 319.850L442.837 360.831M319.891 470.116L687.874 470.116L687.874 507.683L319.891 507.683M319.891 436.819L319.891 400.106L687.874 400.106L687.874 436.819M317.330 682.710C332.698 667.342 346.359 651.120 358.312 634.898L648.600 634.898C661.407 651.120 675.921 667.342 691.289 682.710M319.891 540.981L687.874 540.981L687.874 583.670L319.891 583.670"/></svg>