<svg xmlns="http://www.w3.org/2000/svg" viewBox="0 0 1000 1000" fill="currentColor"><path d="M143.605 157.613C194.095 181.987 255.030 222.030 283.757 250.757L322.930 197.656C291.592 168.929 230.656 132.368 181.037 109.734M100.079 393.521C150.569 416.155 212.375 452.716 241.973 480.572L280.275 426.601C248.937 399.615 187.131 364.794 136.641 343.902M119.231 849.669L177.555 889.713C221.081 807.885 271.570 697.330 309.002 605.926L258.513 565.882C216.728 665.991 159.274 781.769 119.231 849.669M402.147 611.149C435.226 640.746 470.917 682.531 485.716 713.869L530.112 684.272C515.313 654.675 479.622 612.890 444.802 585.034M568.415 101.900L568.415 188.081L343.823 188.081L343.823 244.664L522.277 244.664C466.565 301.247 381.255 352.607 304.650 378.723C317.707 390.910 335.988 413.543 345.564 428.342C423.910 396.133 509.220 336.938 568.415 270.779L568.415 382.205L580.602 382.205C526.630 463.162 423.910 528.450 311.614 563.271C325.542 575.458 339.470 594.609 347.305 608.538C441.320 574.588 529.242 522.357 590.177 455.328C669.394 527.580 761.668 572.847 862.647 609.408C870.482 591.998 886.151 571.976 900.079 559.789C796.489 527.580 698.121 487.536 620.645 417.025L631.962 400.485L584.084 382.205L631.091 382.205L631.091 274.261C710.308 321.269 799.100 380.464 846.108 421.378L885.281 381.334C838.273 343.032 755.575 289.060 680.711 244.664L883.540 244.664L883.540 188.081L631.091 188.081L631.091 101.900M761.668 585.034C735.553 616.372 692.027 658.157 655.466 689.495L631.962 676.437L631.962 532.803L571.897 532.803L571.897 683.402C483.104 726.927 392.571 770.453 332.506 797.439L358.621 847.058L571.897 738.244L571.897 835.741C571.897 845.317 568.415 847.928 557.968 847.928C548.393 848.799 514.443 848.799 475.270 847.928C483.104 861.856 490.939 882.749 493.551 898.418C547.522 898.418 582.343 898.418 604.106 889.713C625.868 881.008 631.962 867.079 631.962 836.612L631.962 733.021C702.473 774.805 777.337 827.036 818.251 864.468L855.683 823.554C819.992 791.345 759.057 750.431 698.121 713.869C733.812 685.143 774.726 648.581 807.805 613.761"/></svg>