<svg xmlns="http://www.w3.org/2000/svg" viewBox="0 0 1000 1000" fill="currentColor"><path d="M650.103 383.346C623.408 497.016 582.934 585.714 520.071 652.883C456.347 623.604 390.039 595.186 324.592 569.352C351.287 515.961 380.566 451.376 408.984 383.346M226.422 599.492C308.230 630.493 389.178 665.800 465.819 701.968C382.288 765.692 269.479 805.305 113.612 827.694C128.252 844.917 142.891 872.474 149.780 893.141C322.009 863.862 446.013 814.777 536.433 736.413C646.659 792.388 744.829 849.223 815.442 900.030L868.833 842.334C797.358 793.249 697.466 738.136 587.240 684.745C652.687 608.103 694.883 509.072 722.439 383.346L886.917 383.346L886.917 314.454L436.540 314.454C463.236 244.702 487.348 174.088 504.571 109.503L434.818 100.030C416.734 166.338 390.900 240.396 361.621 314.454L125.668 314.454L125.668 383.346L332.342 383.346C297.036 465.154 260.006 541.795 226.422 599.492"/></svg>