<svg xmlns="http://www.w3.org/2000/svg" viewBox="0 0 1000 1000" fill="currentColor"><path d="M214.455 104.727L214.455 900.398L276.792 900.398L276.792 104.727M133.935 271.827C132.203 337.628 122.680 434.597 107.095 494.338L159.043 507.325C175.494 442.390 184.152 342.823 184.152 277.887M283.719 261.437C306.229 314.251 329.606 383.515 338.264 425.939L388.481 402.563C378.957 362.736 355.580 295.203 332.203 244.121M578.957 100.398C566.835 148.017 552.117 193.905 534.801 236.329L366.835 236.329L366.835 296.935L507.095 296.935C460.342 390.442 398.870 467.498 321.814 523.775C333.069 539.359 351.251 573.991 357.312 590.442C386.749 567.065 414.455 541.091 440.429 512.519L440.429 782.649L501.035 782.649L501.035 500.398L619.649 500.398L619.649 900.398L681.987 900.398L681.987 500.398L810.126 500.398L810.126 706.459C810.126 715.117 807.528 717.714 798.004 717.714C788.481 718.580 760.775 718.580 724.411 717.714C733.069 735.030 740.861 759.273 741.727 777.455C791.078 777.455 823.978 777.455 845.623 766.199C866.403 755.810 871.597 737.628 871.597 707.325L871.597 441.524L681.987 441.524L681.987 338.494L619.649 338.494L619.649 441.524L496.706 441.524C527.874 397.368 554.714 348.883 578.091 296.935L893.242 296.935L893.242 236.329L603.199 236.329C617.918 197.368 630.039 156.675 641.294 114.251"/></svg>