<svg xmlns="http://www.w3.org/2000/svg" viewBox="0 0 1000 1000" fill="currentColor"><path d="M569.012 100.288C530.709 194.304 467.162 283.096 393.169 342.291L393.169 155.131L104.159 155.131L104.159 801.050L155.519 801.050L155.519 722.704L393.169 722.704L393.169 589.516C401.874 600.832 410.579 613.890 415.802 623.466L457.587 604.314L457.587 900.288L519.393 900.288L519.393 870.691L761.395 870.691L761.395 898.547L824.942 898.547L824.942 600.832L853.669 613.890C863.245 597.350 881.526 572.106 895.454 559.048C817.108 531.192 747.467 486.795 690.013 437.176C750.949 374.499 802.309 299.635 835.388 215.196L792.733 193.433L781.417 196.045L592.516 196.045C606.444 170.800 619.502 144.684 630.818 117.699M155.519 212.584L224.289 212.584L224.289 401.485L155.519 401.485M155.519 665.250L155.519 457.198L224.289 457.198L224.289 665.250M340.938 457.198L340.938 665.250L269.556 665.250L269.556 457.198M340.938 401.485L269.556 401.485L269.556 212.584L340.938 212.584M393.169 566.882L393.169 367.535C405.356 377.982 419.284 391.039 426.248 399.744C455.845 375.370 484.572 346.643 511.558 313.564C535.062 353.607 566.400 395.392 602.962 435.435C538.544 492.018 464.551 537.285 393.169 566.882M519.393 812.367L519.393 644.358L761.395 644.358L761.395 812.367M750.078 252.628C723.092 303.988 687.402 351.866 645.617 395.392C604.703 352.737 571.624 308.341 548.120 265.686L556.825 252.628M493.277 586.034C546.379 557.307 598.609 520.745 646.487 478.961C689.143 519.004 739.632 556.436 795.345 586.034"/></svg>