<svg xmlns="http://www.w3.org/2000/svg" viewBox="0 0 1000 1000" fill="currentColor"><path d="M520.407 99.761C486.462 216.390 430.759 332.149 362.870 407.001C377.666 415.704 403.777 435.723 415.962 447.038C451.647 404.390 485.592 349.556 515.184 288.631L824.165 288.631C813.721 655.926 800.665 790.833 775.425 820.426C765.851 833.481 757.147 835.222 741.480 835.222C723.203 835.222 677.943 835.222 630.073 830.870C641.388 849.148 648.351 877.870 650.092 896.148C695.351 898.759 740.610 899.629 767.591 896.148C796.313 893.537 815.462 886.574 832.869 860.463C865.943 818.685 876.387 678.556 888.573 263.390C888.573 252.946 888.573 228.575 888.573 228.575L542.166 228.575C557.832 191.149 571.758 152.853 583.073 113.687M524.758 452.260L659.666 452.260L659.666 628.945L524.758 628.945M464.703 395.686L464.703 750.796L524.758 750.796L524.758 686.389L718.851 686.389L718.851 395.686M338.500 104.112C320.222 138.057 295.851 172.872 268 207.686C243.629 172.872 211.426 138.927 171.389 105.853L125.259 141.538C169.648 178.964 202.722 216.390 227.092 256.427C191.407 294.723 152.241 330.408 112.204 360.001C127 370.445 147.018 390.464 158.333 402.649C192.278 376.538 226.222 346.945 257.555 313.871C274.092 351.297 283.666 389.593 290.629 429.630C250.592 508.834 179.222 595 115.685 640.260C132.222 652.445 150.500 674.204 160.944 689.871C207.944 651.574 258.426 591.519 298.463 528.852L299.333 569.760C299.333 685.519 290.629 789.093 267.129 818.685C260.166 828.259 251.463 833.481 238.407 835.222C217.518 836.963 181.833 837.833 137.444 834.352C149.629 852.630 156.592 877.870 156.592 898.759C196.629 900.500 233.185 900.500 264.518 894.407C287.148 890.926 303.685 881.352 315.870 864.815C352.425 815.204 361.999 698.574 361.999 570.630C361.999 464.445 353.296 361.742 303.685 264.260C339.370 222.483 370.703 178.964 396.814 134.575"/></svg>