<svg xmlns="http://www.w3.org/2000/svg" viewBox="0 0 1000 1000" fill="currentColor"><path d="M595.838 114.027C611.405 156.405 629.568 212.622 637.351 247.216L700.486 229.054C692.703 196.189 672.811 141.703 657.243 100.189M389.135 255.865L389.135 318.135L533.568 318.135L533.568 435.757C533.568 562.892 511.946 729.811 325.135 856.081C341.568 868.189 363.189 887.216 374.432 900.189C538.757 790.351 584.595 645.919 594.973 516.189L786.973 516.189C777.459 722.892 766.216 802.459 748.054 822.351C739.405 831 730.757 832.730 714.324 832.730C696.162 832.730 649.459 831.865 599.297 827.541C610.541 845.703 619.189 872.514 620.054 891.541C668.486 895 716.054 894.135 741.135 892.405C769.676 890.676 786.973 884.622 803.405 863.865C831.081 832.730 841.459 740.189 851.838 485.919C852.703 476.405 853.568 454.784 853.568 454.784L598.432 454.784L598.432 437.486L598.432 318.135L899.405 318.135L899.405 255.865M100.270 704.730L116.703 772.189C200.595 740.189 310.432 698.676 413.351 658.027L401.243 598.351L288.811 639.865L288.811 383.865L393.459 383.865L393.459 321.595L288.811 321.595L288.811 115.757L226.541 115.757L226.541 321.595L115.838 321.595L115.838 383.865L226.541 383.865L226.541 661.486C178.973 678.784 135.730 693.486 100.270 704.730"/></svg>