<svg xmlns="http://www.w3.org/2000/svg" viewBox="0 0 1000 1000" fill="currentColor"><path d="M829.620 125.680C807.904 176.928 767.948 246.418 737.546 290.718L793.138 314.170C824.408 271.608 861.759 208.199 892.161 150.001M384.886 155.213C422.237 205.593 458.719 274.214 472.617 318.514L530.814 289.849C516.916 245.549 476.960 179.534 439.609 130.023M470.879 559.990L797.481 559.990L797.481 654.670L470.879 654.670M470.879 503.530L470.879 410.587L797.481 410.587L797.481 503.530M604.647 100.490L604.647 348.915L406.602 348.915L406.602 900.490L470.879 900.490L470.879 710.262L797.481 710.262L797.481 817.971C797.481 830.131 793.138 833.606 779.240 834.474C766.211 835.343 720.174 835.343 669.794 833.606C678.480 850.978 688.035 877.906 691.509 895.278C757.524 895.278 800.955 895.278 827.014 884.855C853.073 874.431 860.890 854.453 860.890 818.839L860.890 348.915L669.794 348.915L669.794 100.490M309.316 104.833C264.148 235.995 189.446 366.288 108.664 451.413C120.825 466.179 139.935 500.055 146.884 515.691C172.074 487.026 197.264 454.887 221.585 419.274L221.585 898.752L284.126 898.752L284.126 316.776C318.002 255.104 347.535 189.089 371.857 123.074"/></svg>