<svg xmlns="http://www.w3.org/2000/svg" viewBox="0 0 1000 1000" fill="currentColor"><path d="M115.757 174.568C136.514 226.459 162.459 293.919 171.973 337.162L227.324 319.865C215.216 277.486 191 211.757 167.649 159.865M409.811 150.351C395.973 201.378 368.297 275.757 345.811 319.865L394.243 338.892C416.730 294.784 444.405 227.324 466.027 170.243M828.405 100.189C753.162 127.865 617.378 154.676 502.351 169.378L502.351 399.432C502.351 537.811 491.108 724.622 373.486 855.216C387.324 863.865 411.541 887.216 421.054 900.189C536.946 770.459 561.162 575.865 564.622 431.432C587.973 515.324 622.568 606.135 670.135 689.162C623.432 758.351 568.081 814.568 509.270 855.216C523.973 864.730 548.189 886.351 558.568 900.189C611.324 861.270 661.486 809.378 706.459 746.243C747.108 805.054 795.541 857.811 853.486 896.730C863.865 881.162 883.757 856.946 897.595 845.703C836.189 807.649 784.297 753.162 741.919 690.892C798.135 597.486 843.108 484.189 869.919 354.459L830.135 338.027L818.027 340.622L564.622 340.622L564.622 216.081C673.595 202.243 792.946 180.622 875.973 151.216M796.405 399.432C775.649 485.054 744.514 563.757 705.595 632.946C663.216 555.973 632.081 473.811 612.189 399.432M102.784 572.405L102.784 632.946L244.622 632.946C229.054 716.838 195.324 797.270 123.541 859.541C138.243 868.189 159.865 888.081 169.378 900.189C253.270 828.405 290.459 734.135 306.892 632.946L458.243 632.946L458.243 572.405L313.811 572.405C317.270 535.216 318.135 497.162 318.135 459.973L318.135 439.216L439.216 439.216L439.216 377.811L318.135 377.811L318.135 106.243L257.595 106.243L257.595 377.811L122.676 377.811L122.676 439.216L257.595 439.216L257.595 459.973C257.595 497.162 256.730 534.351 253.270 572.405"/></svg>