<svg xmlns="http://www.w3.org/2000/svg" viewBox="0 0 1000 1000" fill="currentColor"><path d="M411.389 493.523C426.940 483.156 451.994 473.652 617.868 433.911C616.140 420.089 613.549 395.898 613.549 379.484L481.367 407.130L481.367 273.220L616.140 273.220L616.140 217.065L481.367 217.065L481.367 106.482L418.300 106.482L418.300 381.212C418.300 417.497 397.566 435.639 383.743 443.415C393.246 454.646 407.069 478.836 411.389 492.659M853.721 170.413C817.436 196.330 761.281 228.296 710.309 252.486L710.309 109.937L647.242 109.937L647.242 388.987C647.242 453.782 663.657 471.060 728.451 471.060C742.274 471.060 809.661 471.060 824.348 471.060C877.911 471.060 894.326 445.143 900.374 348.382C883.095 344.927 858.041 334.559 845.082 325.056C842.490 401.946 839.035 414.905 817.436 414.905C803.613 414.905 749.186 414.905 737.955 414.905C714.629 414.905 710.309 411.449 710.309 388.123L710.309 307.778C768.192 283.587 841.626 248.166 896.054 211.881M428.667 539.311L428.667 897.842L490.006 897.842L490.006 864.149L780.287 864.149L780.287 894.387L844.218 894.387L844.218 539.311L627.371 539.311L661.929 471.924L591.086 456.374C585.903 479.700 575.536 511.665 564.305 539.311M490.006 725.056L780.287 725.056L780.287 811.449L490.006 811.449M490.006 674.948L490.006 592.875L780.287 592.875L780.287 674.948M225.644 101.298L225.644 268.037L123.700 268.037L123.700 329.376L223.052 329.376C198.862 439.959 150.482 568.685 100.374 636.935C111.605 653.350 127.156 681.860 134.931 700.002C168.624 650.758 200.590 573.004 225.644 489.203L225.644 895.251L286.983 895.251L286.983 447.734C310.309 488.339 335.363 536.719 347.458 562.637L386.335 517.713C372.512 493.523 309.445 398.490 286.983 369.117L286.983 329.376L371.648 329.376L371.648 268.037L286.983 268.037L286.983 101.298"/></svg>