<svg xmlns="http://www.w3.org/2000/svg" viewBox="0 0 1000 1000" fill="currentColor"><path d="M491.645 104.140C491.645 172.957 491.645 239.194 489.925 303.710L338.527 303.710L338.527 366.505L487.344 366.505C476.161 572.957 438.312 746.720 296.376 849.946C312.720 860.269 335.086 880.914 344.548 896.398C495.946 781.989 538.957 590.161 551 366.505L695.516 366.505L695.516 773.387C695.516 837.903 701.538 853.387 716.161 866.290C729.065 877.473 750.570 882.634 768.634 882.634C778.957 882.634 804.763 882.634 816.806 882.634C834.871 882.634 852.935 879.194 864.978 871.452C877.882 863.710 886.484 851.667 891.645 831.022C895.946 812.097 899.387 758.763 900.247 714.892C882.183 709.731 860.677 698.548 846.914 686.505C846.914 735.538 845.194 774.247 843.473 791.452C842.613 806.935 838.312 814.677 834.011 818.118C829.710 821.559 821.108 822.419 812.505 822.419C804.763 822.419 791 822.419 784.118 822.419C777.237 822.419 771.215 821.559 766.914 818.118C761.753 814.677 760.892 800.914 760.892 776.828L760.892 303.710L553.581 303.710C556.161 239.194 556.161 172.097 556.161 104.140M300.677 104.140C255.086 234.892 180.247 363.925 100.247 447.366C111.430 462.849 130.355 496.398 137.237 511.882C163.043 483.495 188.849 450.806 212.935 414.677L212.935 893.817L276.591 893.817L276.591 310.591C309.280 251.237 338.527 186.720 361.753 123.065"/></svg>