<svg xmlns="http://www.w3.org/2000/svg" viewBox="0 0 1000 1000" fill="currentColor"><path d="M396.222 259.333L396.222 320.017L893.658 320.017L893.658 259.333M557.761 119.162C579.983 160.188 604.769 215.744 616.735 251.641L678.274 229.419C666.308 195.231 639.812 141.385 616.735 100.359M103.915 705.487L122.718 771.299C201.350 737.966 303.060 695.231 399.641 653.350L386.821 596.085L280.838 638.821L280.838 374.718L380.838 374.718L380.838 314.034L280.838 314.034L280.838 118.308L220.154 118.308L220.154 314.034L115.880 314.034L115.880 374.718L220.154 374.718L220.154 661.897C176.564 678.991 136.393 694.376 103.915 705.487M479.983 406.342L479.983 563.607C479.983 656.769 463.744 770.444 339.812 851.641C352.632 861.043 374.855 886.684 382.547 900.359C517.590 811.470 544.085 673.009 544.085 564.462L544.085 466.171L703.915 466.171L703.915 784.120C703.915 843.949 709.043 858.479 721.863 870.444C735.538 882.410 755.197 887.538 772.291 887.538C782.547 887.538 805.624 887.538 817.590 887.538C834.684 887.538 852.632 884.120 863.744 876.427C875.709 867.880 884.256 855.915 888.530 835.402C893.658 815.744 896.222 760.188 896.222 714.889C879.983 708.906 859.470 698.650 846.650 687.538C846.650 738.821 845.795 778.137 844.085 796.085C842.376 813.179 839.812 821.726 835.538 825.145C830.410 828.564 821.863 830.274 814.171 830.274C806.479 830.274 794.513 830.274 788.530 830.274C781.692 830.274 776.564 829.419 772.291 826C768.017 821.726 767.162 809.761 767.162 786.684L767.162 406.342"/></svg>