<svg xmlns="http://www.w3.org/2000/svg" viewBox="0 0 1000 1000" fill="currentColor"><path d="M755.191 112.864C618.269 154.199 368.538 184.339 155.836 199.840C162.726 215.340 172.198 242.897 173.920 260.119C266.924 254.091 366.816 244.619 463.264 233.424L463.264 397.041L119.668 397.041L119.668 462.488L426.235 462.488C349.593 582.186 219.561 699.301 99.862 757.859C115.363 771.637 136.891 796.610 148.947 813.833C260.896 749.248 380.594 636.438 463.264 512.434L463.264 887.030L532.155 887.030L532.155 509.850C616.547 632.994 737.107 749.248 850.777 812.972C861.972 795.749 884.362 769.915 899.862 756.998C780.164 697.579 650.131 581.325 570.906 462.488L880.056 462.488L880.056 397.041L532.155 397.041L532.155 223.952C635.492 209.312 732.801 191.228 810.304 169.700"/></svg>