<svg xmlns="http://www.w3.org/2000/svg" viewBox="0 0 1000 1000" fill="currentColor"><path d="M495.936 293.148L782.952 293.148L782.952 379.708L495.936 379.708M495.936 154.651L782.952 154.651L782.952 241.212L495.936 241.212M430.333 99.982L430.333 435.289L851.289 435.289L851.289 99.982M115.982 149.185L115.982 745.995L179.763 745.995L179.763 658.524L350.150 658.524L350.150 149.185M179.763 212.966L285.458 212.966L285.458 594.743L179.763 594.743M468.601 707.727L814.843 707.727L814.843 804.310L468.601 804.310M468.601 649.412L468.601 558.296L814.843 558.296L814.843 649.412M401.175 499.071L401.175 899.982L468.601 899.982L468.601 863.535L814.843 863.535L814.843 895.426L884.091 895.426L884.091 499.071"/></svg>