<svg xmlns="http://www.w3.org/2000/svg" viewBox="0 0 1000 1000" fill="currentColor"><path d="M256.922 348.199L470.792 348.199L470.792 462.740L256.922 462.740M535.221 348.199L752.671 348.199L752.671 462.740L535.221 462.740M256.922 179.966L470.792 179.966L470.792 291.823L256.922 291.823M535.221 179.966L752.671 179.966L752.671 291.823L535.221 291.823M161.172 626.499L161.172 689.139L466.318 689.139L466.318 817.998L100.322 817.998L100.322 880.638L900.322 880.638L900.322 817.998L538.801 817.998L538.801 689.139L852 689.139L852 626.499L538.801 626.499L538.801 522.696L822.470 522.696L822.470 119.116L189.808 119.116L189.808 522.696L466.318 522.696L466.318 626.499"/></svg>