<svg xmlns="http://www.w3.org/2000/svg" viewBox="0 0 1000 1000" fill="currentColor"><path d="M154.699 156.354C213.023 182.469 284.405 224.254 320.096 254.721L357.528 199.879C320.966 171.152 247.843 131.979 191.260 109.346M108.561 393.133C165.145 417.507 234.786 458.421 269.606 487.148L306.168 433.176C270.477 404.449 199.095 367.017 144.252 344.384M138.159 844.928L193.001 889.324C244.361 808.367 305.297 699.553 351.434 607.279L303.556 564.624C253.066 662.991 184.296 777.899 138.159 844.928M408.017 870.173C431.521 859.727 468.083 853.633 793.654 812.719C811.064 844.928 824.992 875.396 833.697 899.770L891.151 870.173C865.036 802.273 798.877 698.682 737.071 622.077L684.840 647.322C710.955 681.272 737.941 720.445 762.316 759.618L486.363 790.086C540.335 716.963 595.177 623.818 640.444 530.674L887.669 530.674L887.669 468.867L657.854 468.867L657.854 311.305L851.978 311.305L851.978 249.498L657.854 249.498L657.854 99.770L592.566 99.770L592.566 249.498L405.406 249.498L405.406 311.305L592.566 311.305L592.566 468.867L367.103 468.867L367.103 530.674L562.098 530.674C518.572 629.041 460.248 722.186 441.097 748.301C419.334 780.510 402.794 800.532 385.384 804.885C393.219 823.165 404.535 856.245 408.017 870.173"/></svg>