<svg xmlns="http://www.w3.org/2000/svg" viewBox="0 0 1000 1000" fill="currentColor"><path d="M219.854 329.595L219.854 377.886L417.576 377.886L417.576 329.595M199.809 434.378L199.809 483.581L418.487 483.581L418.487 434.378M576.118 434.378L576.118 483.581L801.175 483.581L801.175 434.378M576.118 329.595L576.118 377.886L778.396 377.886L778.396 329.595M113.248 216.610L113.248 415.244L175.207 415.244L175.207 272.191L463.134 272.191L463.134 513.649L530.560 513.649L530.560 272.191L823.043 272.191L823.043 415.244L886.825 415.244L886.825 216.610L530.560 216.610L530.560 155.563L832.155 155.563L832.155 99.982L166.096 99.982L166.096 155.563L463.134 155.563L463.134 216.610M463.134 731.417L463.134 814.333L256.301 814.333L256.301 731.417M530.560 731.417L740.128 731.417L740.128 814.333L530.560 814.333M463.134 677.658L256.301 677.658L256.301 598.387L463.134 598.387M530.560 677.658L530.560 598.387L740.128 598.387L740.128 677.658M190.697 543.718L190.697 899.982L256.301 899.982L256.301 869.002L740.128 869.002L740.128 893.604L808.465 893.604L808.465 543.718"/></svg>