<svg xmlns="http://www.w3.org/2000/svg" viewBox="0 0 1000 1000" fill="currentColor"><path d="M657.268 293.667C673.772 338.835 685.933 399.638 686.801 438.726L735.444 425.697C732.838 386.609 719.809 327.543 703.305 281.506M130.015 296.273C145.650 340.572 156.074 398.770 156.074 436.121L204.717 423.960C202.979 386.609 191.687 328.412 176.052 284.980M428.821 866.957C440.113 859.139 458.354 852.190 553.034 825.263L559.983 879.986L598.202 872.168C592.122 812.233 573.881 722.765 555.640 652.407L519.157 660.225C527.844 694.970 536.530 735.795 544.347 774.883L462.697 793.124C513.077 649.801 513.946 482.157 513.946 357.076L513.946 186.826L554.771 175.534C560.851 477.814 574.749 750.561 642.502 895.621C651.188 882.592 668.560 865.219 680.721 856.533C616.443 727.109 602.545 450.887 597.333 161.636L639.896 145.132L592.990 104.307C543.479 128.629 455.748 152.950 377.572 169.454L377.572 338.835C377.572 484.763 372.360 702.787 307.214 862.613C317.637 866.957 339.353 881.723 348.039 890.409C414.923 723.634 425.346 489.975 425.346 338.835L425.346 206.805L468.777 197.250L468.777 357.076C468.777 501.267 468.777 690.626 392.339 831.343C402.762 839.161 422.740 857.402 428.821 866.957M165.629 119.942C180.395 148.607 195.162 183.352 206.454 212.885L106.562 212.885L106.562 267.608L352.382 267.608L352.382 212.885L268.995 212.885C256.834 180.746 237.724 139.052 219.483 106.045M110.037 598.553L110.037 653.276L202.111 653.276C197.768 721.897 181.264 804.416 111.774 855.664C124.803 866.088 142.176 886.066 150.862 898.227C231.644 832.212 255.965 735.795 261.177 653.276L344.565 653.276L344.565 598.553L262.046 598.553L262.046 498.661L355.857 498.661L355.857 443.938L289.841 443.938C304.608 399.638 320.243 342.309 334.141 291.929L282.024 280.637C274.206 327.543 256.834 397.033 242.936 443.938L99.613 443.938L99.613 498.661L202.979 498.661L202.979 598.553M820.569 277.163C812.751 325.806 795.379 397.901 780.612 444.807L630.341 444.807L630.341 499.530L731.970 499.530L731.970 615.056L646.845 615.056L646.845 669.780L731.970 669.780L731.970 895.621L791.904 895.621L791.904 669.780L890.059 669.780L890.059 615.056L791.904 615.056L791.904 499.530L899.613 499.530L899.613 444.807L829.255 444.807C844.022 399.638 859.657 339.704 872.686 289.324M704.174 116.468C718.940 146.001 733.707 181.615 744.999 212.885L633.815 212.885L633.815 267.608L888.321 267.608L888.321 212.885L804.934 212.885C793.642 179.877 774.532 136.446 757.160 102.570"/></svg>