<svg xmlns="http://www.w3.org/2000/svg" viewBox="0 0 1000 1000" fill="currentColor"><path d="M555.830 377.386C647.309 424.919 769.283 495.771 829.372 538.821L874.215 486.803C810.538 444.650 686.771 377.386 597.982 332.543M394.395 329.852C325.336 389.942 232.063 450.928 126.233 488.596L165.695 546.892C270.628 502.049 369.283 433.888 441.031 371.108M119.058 839.269L119.058 900.256L881.390 900.256L881.390 839.269L532.511 839.269L532.511 612.363L789.910 612.363L789.910 551.377L213.229 551.377L213.229 612.363L461.659 612.363L461.659 839.269M430.269 119.987C444.619 148.686 461.659 184.561 474.215 215.054L118.161 215.054L118.161 417.744L184.529 417.744L184.529 276.937L811.435 276.937L811.435 395.323L880.493 395.323L880.493 215.054L556.726 215.054C543.274 181.870 519.955 135.233 500.224 100.256"/></svg>