<svg xmlns="http://www.w3.org/2000/svg" viewBox="0 0 1000 1000" fill="currentColor"><path d="M193.683 197.285L335.215 197.285L335.215 349.173L193.683 349.173M747.728 103.218C733.057 136.012 704.578 183.477 681.277 215.408L569.087 215.408L608.785 195.559C596.703 170.532 570.813 132.560 545.786 104.081L497.458 126.519C518.170 153.272 542.334 189.518 554.416 215.408L416.337 215.408L416.337 264.599L574.265 264.599L574.265 314.653L447.405 314.653L447.405 620.154L705.441 620.154L705.441 670.208L406.844 670.208L406.844 721.988L503.499 721.988L470.706 748.741C507.814 777.220 554.416 817.781 575.991 843.671L617.415 805.699C595.840 782.398 554.416 747.878 519.033 721.988L705.441 721.988L705.441 834.178C705.441 843.671 701.989 847.123 691.633 847.123C680.414 847.123 644.168 847.123 603.607 846.260C611.374 860.931 618.278 880.780 621.730 896.314C676.099 896.314 712.345 895.451 734.783 887.684C758.084 879.054 763.262 865.246 763.262 835.904L763.262 721.988L899.616 721.988L899.616 670.208L763.262 670.208L763.262 620.154L853.877 620.154L853.877 314.653L722.701 314.653L722.701 264.599L890.123 264.599L890.123 215.408L744.276 215.408C764.988 187.792 787.426 154.135 807.275 123.067M620.004 264.599L676.962 264.599L676.962 314.653L620.004 314.653M500.910 361.255L579.443 361.255L579.443 365.570C579.443 394.049 567.361 424.254 511.266 451.006C520.759 454.458 537.156 468.266 543.197 477.759C603.607 446.691 620.004 403.542 620.004 366.433L620.004 361.255L677.825 361.255L677.825 390.597C677.825 419.939 681.277 431.157 689.907 438.924C698.537 446.691 714.934 449.280 729.605 449.280C736.509 449.280 764.125 449.280 771.892 449.280L798.645 448.417L798.645 487.252L500.910 487.252M798.645 413.035L796.919 413.898C793.467 414.761 790.015 414.761 786.563 414.761C783.974 414.761 774.481 414.761 767.577 414.761C758.084 414.761 742.550 414.761 736.509 414.761C730.468 414.761 724.427 414.761 722.701 413.035C719.249 411.309 718.386 406.131 718.386 396.638L718.386 361.255L798.645 361.255M798.645 526.950L798.645 573.552L500.910 573.552L500.910 526.950M99.616 792.754L115.150 854.027C195.409 830.726 301.558 801.384 402.529 772.042L394.762 715.947L311.914 738.385L311.914 582.182L398.214 582.182L398.214 526.087L311.914 526.087L311.914 405.268L390.447 405.268L390.447 141.190L141.040 141.190L141.040 405.268L257.545 405.268L257.545 753.056L197.135 768.590L197.135 487.252L145.355 487.252L145.355 781.535"/></svg>