<svg xmlns="http://www.w3.org/2000/svg" viewBox="0 0 1000 1000" fill="currentColor"><path d="M381.423 380.028L381.423 487.156L241.467 487.156L242.330 434.456L242.330 380.028M381.423 326.464L242.330 326.464L242.330 236.616L381.423 236.616M441.898 380.028L592.222 380.028L592.222 487.156L441.898 487.156M441.898 326.464L441.898 236.616L592.222 236.616L592.222 326.464M653.562 380.028L803.022 380.028L803.022 487.156L653.562 487.156M477.320 116.529C485.959 134.672 495.462 157.998 503.238 178.732L180.127 178.732L180.127 434.456C180.127 561.454 174.080 735.968 101.510 860.374C115.333 866.421 142.978 884.564 154.210 895.795C212.093 796.443 232.827 659.078 239.739 540.719L865.225 540.719L865.225 326.464L653.562 326.464L653.562 236.616L887.687 236.616L887.687 178.732L575.808 178.732C566.305 153.678 553.346 124.305 540.387 100.114M290.711 900.114C308.853 891.475 337.363 885.428 553.346 854.326C551.618 842.231 550.754 818.905 551.618 802.490L371.056 825.816L371.056 697.955L546.434 697.955L546.434 644.391L371.056 644.391L371.056 564.045L309.717 564.045L309.717 793.851C309.717 826.680 283.799 839.639 268.248 844.823C276.888 858.646 287.255 885.428 290.711 900.114M587.039 563.181L587.039 801.626C587.039 867.285 606.045 885.428 682.935 885.428C698.486 885.428 796.974 885.428 813.389 885.428C873.864 885.428 892.006 859.510 898.054 761.886C881.639 757.566 855.721 748.927 843.626 738.559C841.035 818.041 834.987 830.136 807.341 830.136C785.743 830.136 705.397 830.136 689.847 830.136C655.289 830.136 650.106 825.816 650.106 801.626L650.106 721.281C725.268 701.410 809.933 672.901 869.544 641.799L820.300 597.739C781.423 622.793 714.037 648.711 650.106 669.445L650.106 563.181"/></svg>