<svg xmlns="http://www.w3.org/2000/svg" viewBox="0 0 1000 1000" fill="currentColor"><path d="M269 389.621L466.414 389.621L466.414 403.414C466.414 431 463.828 458.586 452.621 486.172L269 486.172M529.345 389.621L740.552 389.621L740.552 486.172L519 486.172C526.759 459.448 529.345 431.862 529.345 404.276M269 242.207L466.414 242.207L466.414 337.897L269 337.897M529.345 242.207L740.552 242.207L740.552 337.897L529.345 337.897M113.828 676.690L113.828 737.034L560.379 737.034L560.379 899.966L625.897 899.966L625.897 737.034L887.103 737.034L887.103 676.690L625.897 676.690L625.897 545.655L560.379 545.655L560.379 676.690L284.517 676.690C399.172 641.345 461.241 593.931 494.862 541.345L805.207 541.345L805.207 187.034L490.552 187.034C506.069 162.897 522.448 134.448 537.966 106L458.655 99.966C449.172 124.966 434.517 157.724 419 187.034L206.069 187.034L206.069 541.345L417.276 541.345C379.345 581 312.966 616.345 197.448 641.345C206.931 649.966 218.138 663.759 226.759 676.690"/></svg>