<svg xmlns="http://www.w3.org/2000/svg" viewBox="0 0 1000 1000" fill="currentColor"><path d="M456.013 286.545C477.658 334.165 497.571 395.636 503.632 436.329L559.043 418.147C552.117 377.455 532.203 317.714 507.961 270.961M438.697 581.784L438.697 900.398L499.303 900.398L499.303 863.169L766.835 863.169L766.835 897.801L829.173 897.801L829.173 581.784M499.303 804.294L499.303 639.792L766.835 639.792L766.835 804.294M584.152 109.922C594.541 138.494 603.199 174.857 608.394 203.429L396.273 203.429L396.273 262.303L872.463 262.303L872.463 203.429L671.597 203.429C666.403 173.991 655.147 132.433 642.160 100.398M749.519 267.498C736.532 320.312 710.558 396.502 688.048 446.719L363.372 446.719L363.372 505.593L900.169 505.593L900.169 446.719L746.922 446.719C767.701 399.100 791.078 336.762 810.126 283.948M100.169 720.312L120.948 786.113C194.541 756.675 290.645 717.714 382.420 679.619L370.299 619.879L269 658.840L269 377.455L367.701 377.455L367.701 315.983L269 315.983L269 115.117L209.260 115.117L209.260 315.983L107.095 315.983L107.095 377.455L209.260 377.455L209.260 681.351C167.701 696.935 130.472 709.922 100.169 720.312"/></svg>