<svg xmlns="http://www.w3.org/2000/svg" viewBox="0 0 1000 1000" fill="currentColor"><path d="M204.468 100.727L204.468 894.667L260.745 894.667L260.745 100.727M139.532 267.827C133.472 335.359 119.619 431.463 99.706 490.338L145.593 505.922C166.372 440.987 180.225 341.420 183.688 273.887M267.671 251.377C283.255 315.446 298.840 399.429 304.035 447.913L348.190 433.195C342.130 387.307 325.680 305.922 309.229 241.853M611.394 516.312C619.186 510.251 645.160 505.922 674.597 505.922L713.558 505.922C683.255 628 621.784 757.004 499.706 866.095C514.424 873.887 536.069 889.472 546.459 899.861C639.100 813.281 697.974 715.446 735.203 617.610L735.203 812.416C735.203 850.511 738.667 863.498 749.922 873.887C761.177 884.277 778.494 887.740 794.078 887.740C802.736 887.740 821.784 887.740 831.307 887.740C846.026 887.740 861.610 884.277 870.268 878.216C881.524 870.424 888.450 859.169 891.913 842.719C896.242 826.268 898.840 776.918 899.706 734.494C886.719 730.165 870.268 721.506 860.745 712.848C860.745 756.139 859.879 793.368 858.147 808.952C856.416 819.342 852.952 826.268 849.489 829.732C845.160 833.195 837.368 834.061 829.576 834.061C822.649 834.061 812.260 834.061 807.065 834.061C800.139 834.061 794.078 832.329 791.481 829.732C787.152 827.134 786.286 821.074 786.286 815.879L786.286 550.944L756.848 550.944L768.970 505.922L897.108 505.922L897.108 450.511L780.225 450.511C794.944 360.468 797.541 276.485 797.541 208.087L797.541 205.489L883.255 205.489L883.255 148.346L611.394 148.346L611.394 205.489L744.727 205.489L744.727 208.087C744.727 276.485 742.996 360.468 725.680 450.511L663.342 450.511C673.732 392.502 689.316 299.861 696.242 258.303L643.429 258.303C638.234 298.996 619.186 423.671 611.394 443.584C607.065 458.303 601.004 462.632 589.749 466.095C596.675 477.351 607.931 503.325 611.394 516.312M517.022 354.407L517.022 460.900L415.723 460.900L415.723 354.407M517.022 305.922L415.723 305.922L415.723 205.489L517.022 205.489M361.177 821.939C372.433 807.221 392.346 791.636 534.338 704.190C542.130 724.104 548.190 742.286 552.519 757.870L599.273 735.359C586.286 690.338 554.251 616.745 523.948 561.333L478.926 580.381C491.913 604.623 504.900 632.329 516.156 659.169L415.723 716.312L415.723 514.580L565.506 514.580L565.506 150.944L362.909 150.944L362.909 698.130C362.909 737.957 341.264 765.662 327.411 776.918C338.667 787.307 355.117 808.952 361.177 821.939"/></svg>