<svg xmlns="http://www.w3.org/2000/svg" viewBox="0 0 1000 1000" fill="currentColor"><path d="M494.354 671.349C458.571 737.803 398.933 804.257 340.147 848.559C355.482 857.931 379.338 878.378 391.265 888.602C449.199 840.039 513.949 764.214 555.695 690.945M688.603 702.872C744.833 759.954 807.879 839.187 836.846 891.158L890.520 857.079C860.701 805.961 796.803 730.135 738.869 673.905M311.180 109.049C262.618 238.548 183.384 367.196 99.891 448.985C110.967 464.321 129.710 497.547 135.674 512.883C164.641 483.064 192.756 448.133 220.019 410.646L220.019 889.454L283.065 889.454L283.065 311.818C317.144 253.032 346.963 190.838 371.670 127.792M705.642 115.865L705.642 289.667L539.508 289.667L539.508 116.717L477.314 116.717L477.314 289.667L367.410 289.667L367.410 351.009L477.314 351.009L477.314 561.445L346.111 561.445L346.111 623.639L899.891 623.639L899.891 561.445L768.688 561.445L768.688 351.009L890.520 351.009L890.520 289.667L768.688 289.667L768.688 115.865M539.508 351.009L705.642 351.009L705.642 561.445L539.508 561.445"/></svg>