<svg xmlns="http://www.w3.org/2000/svg" viewBox="0 0 1000 1000" fill="currentColor"><path d="M136.656 576.710L136.656 866.602L411.925 828.753L411.925 876.925L465.258 876.925L465.258 576.710L411.925 576.710L411.925 774.559L330.204 783.161L330.204 504.452L485.903 504.452L485.903 446.817L330.204 446.817L330.204 287.677L467.839 287.677L467.839 230.043L230.419 230.043C240.742 199.075 249.344 166.387 257.086 133.699L196.871 122.516C177.086 215.419 144.398 310.043 99.667 371.978C116.011 378.860 142.677 393.484 154.720 402.086C174.505 370.258 193.430 331.548 210.634 287.677L270.849 287.677L270.849 446.817L108.269 446.817L108.269 504.452L270.849 504.452L270.849 790.043L191.710 797.785L191.710 576.710M494.505 809.828L494.505 872.624L899.667 872.624L899.667 809.828L722.462 809.828L722.462 278.215L883.323 278.215L883.323 216.280L503.968 216.280L503.968 278.215L656.226 278.215L656.226 809.828"/></svg>