<svg xmlns="http://www.w3.org/2000/svg" viewBox="0 0 1000 1000" fill="currentColor"><path d="M641.536 736.291C704.876 780.542 782.100 845.618 818.542 887.267L872.338 851.692C833.293 810.043 754.334 747.570 691.861 705.054M224.182 492.473L224.182 548.004L792.512 548.004L792.512 492.473M283.184 706.790C244.139 760.586 179.063 812.646 114.855 847.354C130.473 856.898 154.768 876.855 166.915 888.134C229.388 849.957 299.670 788.351 343.922 725.879M277.978 100.282L277.978 188.785L132.208 188.785L132.208 243.449L258.022 243.449C218.976 310.260 157.371 377.072 100.104 410.911C113.119 421.323 131.341 441.280 140.885 456.030C189.475 422.191 238.933 365.792 277.978 305.054L277.978 462.104L338.716 462.104L338.716 307.657C375.158 335.423 418.542 371.866 438.499 390.087L474.074 345.835C452.382 329.349 371.688 272.082 338.716 252.126L338.716 243.449L459.323 243.449L459.323 188.785L338.716 188.785L338.716 100.282M124.399 617.419L124.399 673.818L472.338 673.818L472.338 829.132C472.338 839.544 468.868 843.015 454.985 843.883C440.234 844.751 391.644 844.751 337.848 843.015C346.525 860.369 356.069 882.928 359.540 900.282C428.087 900.282 473.206 900.282 500.972 890.738C529.605 882.061 538.282 865.575 538.282 830L538.282 673.818L881.883 673.818L881.883 617.419M654.551 100.282L654.551 188.785L500.104 188.785L500.104 243.449L631.124 243.449C589.475 308.525 523.531 373.601 461.926 405.705C474.941 416.117 493.163 436.941 501.839 450.824C555.636 416.985 612.035 359.718 654.551 297.245L654.551 462.104L716.156 462.104L716.156 300.716C757.805 359.718 811.601 417.852 857.588 450.824C867.132 436.941 886.221 416.117 899.236 405.705C841.970 371.866 776.026 306.790 734.377 243.449L869.735 243.449L869.735 188.785L716.156 188.785L716.156 100.282"/></svg>