<svg xmlns="http://www.w3.org/2000/svg" viewBox="0 0 1000 1000" fill="currentColor"><path d="M233.140 700.561C206.825 759.333 160.333 818.105 111.211 857.579C127 867.228 153.316 885.649 165.596 896.175C212.965 852.316 263.842 784.772 295.421 718.105M358.579 727.754C392.789 768.982 433.140 826.877 448.930 862.842L503.316 831.263C484.895 795.298 444.544 740.912 409.456 700.561M827 192.667L827 333.895L647.175 333.895L647.175 192.667M585.772 133.018L585.772 451.439C585.772 577.754 578.754 745.298 505.070 861.965C519.982 868.982 547.175 888.281 557.702 899.684C610.333 816.351 633.140 704.070 641.912 597.930L827 597.930L827 811.088C827 825.123 821.737 828.632 809.456 829.509C796.298 830.386 751.561 830.386 705.070 828.632C713.842 846.175 723.491 875.123 726.123 892.667C790.158 892.667 832.263 891.789 856.825 880.386C882.263 869.860 890.158 849.684 890.158 811.965L890.158 133.018M827 392.667L827 538.281L645.421 538.281C647.175 507.579 647.175 478.632 647.175 451.439L647.175 392.667M416.474 99.684L416.474 205.825L256.825 205.825L256.825 99.684L197.175 99.684L197.175 205.825L122.614 205.825L122.614 264.596L197.175 264.596L197.175 623.368L110.333 623.368L110.333 682.140L542.789 682.140L542.789 623.368L477.877 623.368L477.877 264.596L542.789 264.596L542.789 205.825L477.877 205.825L477.877 99.684M256.825 264.596L416.474 264.596L416.474 342.667L256.825 342.667M256.825 395.298L416.474 395.298L416.474 481.263L256.825 481.263M256.825 534.772L416.474 534.772L416.474 623.368L256.825 623.368"/></svg>