<svg xmlns="http://www.w3.org/2000/svg" viewBox="0 0 1000 1000" fill="currentColor"><path d="M453.075 196.559L742.968 196.559L742.968 278.280L453.075 278.280M320.602 389.247L320.602 440L492.645 440C444.473 493.333 374.796 542.366 311.140 567.312C324.043 577.634 341.247 598.280 350.710 612.043C424.688 576.774 506.409 510.538 557.161 440L564.903 440L564.903 619.785L628.559 619.785L628.559 440L632 440C684.473 507.957 772.215 573.333 851.355 607.742C859.957 592.258 878.882 570.753 891.785 559.570C822.968 537.204 747.269 490.753 695.656 440L872 440L872 389.247L628.559 389.247L628.559 328.172L806.624 328.172L806.624 145.806L392.860 145.806L392.860 328.172L564.903 328.172L564.903 389.247M466.839 603.441L466.839 678.280L187.269 678.280L187.269 735.054L466.839 735.054L466.839 827.957L105.548 827.957L105.548 884.731L899.527 884.731L899.527 827.957L533.075 827.957L533.075 735.054L818.667 735.054L818.667 678.280L533.075 678.280L533.075 603.441M293.935 115.699C248.344 216.344 175.226 316.989 99.527 382.366C111.570 394.409 133.075 422.796 141.677 435.699C165.763 412.473 190.710 385.806 213.935 356.559L213.935 626.667L275.011 626.667L275.011 273.118C304.258 229.247 330.925 181.935 352.430 134.624"/></svg>