<svg xmlns="http://www.w3.org/2000/svg" viewBox="0 0 1000 1000" fill="currentColor"><path d="M140.074 275.623C135.717 343.597 123.516 434.229 101.730 488.259L148.789 507.431C171.447 445.558 183.647 350.569 186.261 281.723M357.939 249.479C344.867 303.510 316.980 382.813 296.065 430.743L332.667 448.172C356.196 401.985 384.083 327.911 408.484 269.523M532.231 677.366C496.501 746.211 435.499 812.442 374.497 856.015C390.183 865.601 416.327 886.516 427.656 897.845C489.529 849.915 554.889 773.227 594.976 695.667M688.222 706.124C744.867 763.641 806.741 845.558 835.499 897.845L892.144 862.115C862.514 809.828 799.769 732.268 742.253 675.623M234.192 101.331L234.192 399.370C234.192 559.719 221.120 726.168 99.987 855.144C113.930 864.730 134.845 885.645 144.431 899.588C213.277 828.129 250.749 745.340 270.793 658.194C303.908 700.895 345.739 756.669 364.039 787.170L407.612 740.111C389.312 716.582 312.623 623.336 282.993 591.092C291.708 528.346 293.451 463.858 293.451 399.370L293.451 101.331M713.495 106.560L713.495 283.466L571.447 283.466L571.447 106.560L507.830 106.560L507.830 283.466L409.355 283.466L409.355 346.211L507.830 346.211L507.830 561.462L386.697 561.462L386.697 625.078L899.987 625.078L899.987 561.462L777.111 561.462L777.111 346.211L886.044 346.211L886.044 283.466L777.111 283.466L777.111 106.560M571.447 346.211L713.495 346.211L713.495 561.462L571.447 561.462"/></svg>