<svg xmlns="http://www.w3.org/2000/svg" viewBox="0 0 1000 1000" fill="currentColor"><path d="M464.690 104.862L464.690 199.690L118.138 199.690L118.138 260.034L391.414 260.034C316.414 335.897 203.483 404 100.034 438.483C114.690 450.552 133.655 473.828 142.276 489.345C258.655 445.379 385.379 360.034 464.690 262.621L464.690 451.414L530.207 451.414L530.207 262.621C610.379 357.448 738.828 441.931 856.931 484.172C866.414 466.931 885.379 442.793 900.034 430.724C794 397.966 678.483 333.310 602.621 260.034L882.793 260.034L882.793 199.690L530.207 199.690L530.207 104.862M464.690 591.931L464.690 636.759L116.414 636.759L116.414 696.241L464.690 696.241L464.690 821.241C464.690 832.448 461.241 835.897 445.724 836.759C430.207 837.621 375.897 837.621 318.138 835.034C329.345 852.276 342.276 878.138 346.586 895.379C418.138 895.379 461.241 894.517 490.552 885.034C519.862 874.690 529.345 858.310 529.345 822.103L529.345 696.241L884.517 696.241L884.517 636.759L529.345 636.759L529.345 617.793C605.207 587.621 683.655 545.379 741.414 501.414L699.172 465.207L685.379 468.655L265.552 468.655L265.552 525.552L606.931 525.552C564.690 551.414 512.966 575.552 464.690 591.931"/></svg>