<svg xmlns="http://www.w3.org/2000/svg" viewBox="0 0 1000 1000" fill="currentColor"><path d="M103.559 134.426L103.559 829L165.575 829L165.575 755.467L360.481 755.467L360.481 420.584C371.112 437.416 382.629 462.223 387.059 475.512C491.599 395.777 556.272 270.860 588.166 115.822L523.493 104.305C497.801 232.765 444.645 337.306 360.481 404.637L360.481 134.426M734.346 99.875L672.330 111.392C700.680 254.028 738.775 351.481 809.650 436.530L434.899 436.530L434.899 499.432L529.694 499.432C511.976 667.760 457.048 782.931 335.674 849.377C349.849 860.894 372.884 887.472 381.743 899.875C511.976 818.369 573.105 691.680 597.025 499.432L749.406 499.432C738.775 718.258 726.372 799.764 707.767 821.027C699.794 830.772 692.707 832.544 677.646 832.544C663.471 832.544 628.919 831.658 590.824 828.114C600.569 844.947 606.771 870.639 607.657 889.244C647.524 891.901 686.505 892.787 708.653 890.130C733.460 887.472 749.406 881.270 764.467 860.894C791.045 829.886 803.449 735.091 815.852 467.538L816.738 445.390L847.745 478.169C857.491 457.793 878.753 436.530 896.472 422.355C808.764 341.735 764.467 250.484 734.346 99.875M297.579 378.059L297.579 507.405L165.575 507.405L165.575 378.059M297.579 320.473L165.575 320.473L165.575 192.898L297.579 192.898M297.579 564.991L297.579 696.110L165.575 696.110L165.575 564.991"/></svg>