<svg xmlns="http://www.w3.org/2000/svg" viewBox="0 0 1000 1000" fill="currentColor"><path d="M194.878 363.561L194.878 412.099L464.433 412.099L464.433 474.504L109.070 474.504L109.070 529.975L464.433 529.975L464.433 591.514L187.944 591.514L187.944 640.051L406.362 640.051C330.089 711.990 209.612 774.395 99.536 804.731C113.404 818.599 132.472 842.868 142.007 858.469C256.416 821.199 382.960 748.393 464.433 662.586L464.433 900.073L532.906 900.073L532.906 660.853C613.512 748.393 739.190 821.199 857.066 857.602C866.600 842.001 884.802 816.866 899.536 803.865C785.993 775.262 664.650 712.857 589.244 640.051L799.861 640.051L799.861 529.975L890.002 529.975L890.002 474.504L799.861 474.504L799.861 363.561L532.906 363.561L532.906 304.623L873.534 304.623L873.534 248.285L532.906 248.285L532.906 184.146C636.914 177.212 734.856 165.945 811.129 151.210L771.259 100.073C630.847 126.941 376.026 141.676 167.142 145.143C172.342 158.144 179.276 182.413 181.010 198.881C270.284 198.014 369.092 194.547 464.433 189.347L464.433 248.285L124.672 248.285L124.672 304.623L464.433 304.623L464.433 363.561M532.906 529.975L735.723 529.975L735.723 591.514L532.906 591.514M532.906 474.504L532.906 412.099L735.723 412.099L735.723 474.504"/></svg>