<svg xmlns="http://www.w3.org/2000/svg" viewBox="0 0 1000 1000" fill="currentColor"><path d="M142.081 346.858C181.779 383.967 235.285 437.472 260.312 468.540L312.092 433.157C284.476 402.953 230.970 352.036 191.272 316.653M290.517 518.594L116.191 518.594L116.191 574.689L230.107 574.689L230.107 759.371C190.409 773.179 144.670 805.973 100.657 845.671L142.944 897.451C189.546 847.397 234.422 805.110 267.216 805.110C287.065 805.110 314.681 828.411 350.927 848.260C411.337 879.328 485.554 887.958 584.799 887.958C667.647 887.958 812.631 883.643 879.945 879.328C881.671 862.931 891.164 834.452 898.068 818.918C812.631 827.548 683.181 832.726 585.662 832.726C493.321 832.726 419.104 827.548 364.735 798.206C331.078 780.946 310.366 764.549 290.517 756.782M589.977 513.416L589.977 563.470L398.392 563.470L398.392 604.031L589.977 604.031L589.977 643.729L414.789 643.729L414.789 682.564L589.977 682.564L589.977 723.988L363.009 723.988L363.009 764.549L589.977 764.549L589.977 818.055L647.798 818.055L647.798 764.549L863.548 764.549L863.548 723.988L647.798 723.988L647.798 682.564L817.809 682.564L817.809 643.729L647.798 643.729L647.798 604.031L831.617 604.031L831.617 563.470L647.798 563.470L647.798 513.416M521.800 366.707L721.153 366.707C693.537 390.871 659.017 412.446 618.456 430.569C577.032 412.446 543.375 390.871 519.211 368.433M542.512 273.503C510.581 320.105 447.583 367.570 358.694 402.090C372.502 409.857 389.762 427.117 398.392 439.198C428.597 425.391 456.213 411.583 480.376 395.186C501.951 415.898 528.704 435.746 560.635 453.006C486.417 478.033 402.707 494.430 323.311 503.060C332.804 515.142 344.023 534.991 349.201 548.799C439.816 535.854 534.745 514.279 617.593 480.622C686.633 509.101 772.070 531.539 868.726 541.895C875.630 528.087 889.438 505.649 899.794 494.430C815.220 487.526 739.276 472.855 676.277 452.143C729.783 423.665 773.796 388.282 804.864 345.132L770.344 324.420L760.851 327.009L564.950 327.009C577.895 313.201 589.977 299.393 600.333 284.722M224.929 101.766C198.176 168.217 151.574 233.805 99.794 277.818C114.465 285.585 140.355 303.708 152.437 313.201C177.464 289.037 202.491 257.969 225.792 223.449L266.353 223.449L315.544 320.105L375.091 305.434L330.215 223.449L473.472 223.449L473.472 171.669L257.723 171.669C268.079 154.409 276.709 136.286 284.476 118.163M570.991 101.766C543.375 169.943 490.732 234.668 432.049 276.955C447.583 283.859 474.335 299.393 487.280 308.886C515.759 286.448 544.238 257.106 569.265 223.449L636.579 223.449C658.154 252.791 682.318 289.037 695.263 310.612L754.810 293.352L705.619 223.449L873.041 223.449L873.041 171.669L603.785 171.669C614.141 154.409 623.634 135.423 631.401 117.300"/></svg>