<svg xmlns="http://www.w3.org/2000/svg" viewBox="0 0 1000 1000" fill="currentColor"><path d="M135.724 167.366C176.198 211.284 228.728 271.564 254.562 306.871L309.675 268.981C282.980 233.674 227.867 175.977 187.393 134.643M286.424 424.847L112.474 424.847L112.474 485.988L221.839 485.988L221.839 732.274C185.671 745.192 142.614 778.776 99.557 822.694L143.475 882.113C182.226 832.167 221.839 784.804 249.395 784.804C268.340 784.804 296.758 810.638 334.648 830.445C396.650 863.168 472.431 871.779 575.767 871.779C662.743 871.779 815.165 866.612 880.611 863.168C881.473 844.223 891.806 812.361 899.557 795.138C812.581 805.471 679.966 811.499 577.490 811.499C481.903 811.499 405.262 806.333 348.426 776.193C320.870 761.553 302.786 747.775 286.424 738.302M486.209 473.932C529.266 508.378 578.351 547.990 624.853 588.464C568.878 640.994 503.432 679.745 435.402 703.857C448.319 716.774 465.541 740.886 472.431 757.248C544.766 727.969 612.797 685.773 672.215 629.799C724.745 676.300 772.108 721.941 803.970 756.386L853.916 709.885C820.332 675.439 769.524 630.660 714.411 585.019C772.108 518.712 816.887 436.042 843.582 337.011L804.831 322.371L792.775 324.955L467.264 324.955L467.264 221.618C607.630 214.729 765.219 197.506 NaN 169.088L817.748 117.420C723.023 143.254 549.933 159.616 403.539 166.505L403.539 355.095C403.539 461.015 393.206 603.964 310.536 705.579C326.037 712.468 353.593 731.413 364.788 743.469C445.735 642.716 464.680 496.322 467.264 383.512L765.219 383.512C741.968 444.653 708.383 498.905 667.048 545.407C620.547 507.517 573.184 469.626 531.849 436.903"/></svg>