<svg xmlns="http://www.w3.org/2000/svg" viewBox="0 0 1000 1000" fill="currentColor"><path d="M408.757 176.027L408.757 227.919L570.486 227.919L570.486 292.784L353.405 292.784L353.405 343.811L570.486 343.811L570.486 411.270L402.703 411.270L402.703 464.027L570.486 464.027L570.486 530.622L395.784 530.622L395.784 579.919L570.486 579.919L570.486 648.243L359.459 648.243L359.459 700.135L570.486 700.135L570.486 786.622L631.892 786.622L631.892 700.135L878.378 700.135L878.378 648.243L631.892 648.243L631.892 579.919L845.514 579.919L845.514 530.622L631.892 530.622L631.892 464.027L825.622 464.027L825.622 343.811L885.297 343.811L885.297 292.784L825.622 292.784L825.622 176.027L631.892 176.027L631.892 102.514L570.486 102.514L570.486 176.027M631.892 343.811L767.676 343.811L767.676 411.270L631.892 411.270M631.892 292.784L631.892 227.919L767.676 227.919L767.676 292.784M151.892 489.108C151.892 479.595 171.784 468.351 184.757 461.432L291.135 461.432C280.757 538.405 263.459 605 240.973 662.081C217.622 627.486 198.595 584.243 183.892 532.351L135.459 550.514C156.216 620.568 182.162 675.919 214.162 720.027C183.892 777.108 144.973 822.081 100 854.946C113.838 863.595 138.054 886.081 147.568 898.189C189.081 866.189 226.270 822.946 256.541 768.459C347.351 854.946 473.622 876.568 632.757 876.568L874.919 876.568C878.378 859.270 890.486 830.730 900 816.892C855.892 817.757 668.216 817.757 633.622 817.757C487.459 817.757 368.108 798.730 283.351 714.838C318.811 634.405 343.892 533.216 356.865 411.270L320.541 402.622L308.432 403.486L234.054 403.486C277.297 338.622 321.405 257.324 360.324 173.432L318.811 146.622L298.054 156.135L123.351 156.135L123.351 214.081L272.973 214.081C238.378 291.054 195.135 361.973 179.568 383.595C162.270 411.270 140.649 432.892 125.081 436.351C133.730 449.324 146.703 476.135 151.892 489.108"/></svg>