<svg xmlns="http://www.w3.org/2000/svg" viewBox="0 0 1000 1000" fill="currentColor"><path d="M202.175 221.918L202.175 434.163C202.175 558.760 191.864 728.041 99.919 849.201C114.527 856.934 142.025 879.276 152.336 891.306C236.547 782.176 259.748 627.504 264.903 502.047L337.084 502.047C378.330 595.710 435.043 673.905 507.223 735.774C427.309 782.176 333.647 813.970 233.110 834.593C245.999 848.342 264.044 877.557 270.918 893.884C376.611 869.824 476.289 832.874 562.218 777.880C643.851 833.734 742.669 873.261 859.533 896.462C868.126 878.417 886.171 851.779 899.919 837.171C790.789 818.266 697.127 784.754 618.931 737.493C704.860 669.609 771.885 580.243 813.131 462.520L771.026 439.319L758.136 441.897L561.359 441.897L561.359 283.787L782.197 283.787C766.729 325.033 748.684 366.279 733.217 394.636L791.649 412.681C817.427 367.998 847.503 295.817 871.563 232.230L822.583 218.481L810.553 221.918L561.359 221.918L561.359 103.336L495.193 103.336L495.193 221.918M404.968 502.047L725.483 502.047C688.534 583.680 632.680 648.127 563.937 698.825C495.193 646.408 441.917 580.243 404.968 502.047M495.193 283.787L495.193 441.897L266.622 441.897L266.622 435.023L266.622 283.787"/></svg>