<svg xmlns="http://www.w3.org/2000/svg" viewBox="0 0 1000 1000" fill="currentColor"><path d="M714.459 102.514L714.459 216.676L577.811 216.676L577.811 102.514L514.676 102.514L514.676 216.676L411.757 216.676L411.757 273.757L514.676 273.757L514.676 387.919L388.405 387.919L388.405 446.730L900.405 446.730L900.405 387.919L776.730 387.919L776.730 273.757L883.108 273.757L883.108 216.676L776.730 216.676L776.730 102.514M577.811 273.757L714.459 273.757L714.459 387.919L577.811 387.919M522.459 713.973L781.919 713.973L781.919 805.649L522.459 805.649M522.459 661.216L522.459 571.270L781.919 571.270L781.919 661.216M460.189 516.784L460.189 897.324L522.459 897.324L522.459 859.270L781.919 859.270L781.919 895.595L846.784 895.595L846.784 516.784M221.486 102.514L221.486 277.216L110.784 277.216L110.784 337.757L221.486 337.757L221.486 528.027C176.514 541 134.135 552.243 100.405 560.027L119.432 623.162L221.486 592.892L221.486 816.027C221.486 828.135 216.297 831.595 205.054 832.459C193.811 832.459 155.757 833.324 115.108 831.595C122.892 848.027 132.405 873.973 135 890.405C193.811 890.405 230.135 889.541 251.757 878.297C275.108 868.784 283.757 852.351 283.757 816.027L283.757 574.730L379.757 545.324L371.973 485.649L283.757 510.730L283.757 337.757L370.243 337.757L370.243 277.216L283.757 277.216L283.757 102.514"/></svg>