<svg xmlns="http://www.w3.org/2000/svg" viewBox="0 0 1000 1000" fill="currentColor"><path d="M537.991 375.427C568.761 407.906 606.368 453.205 625.171 480.556L677.308 448.077C658.504 420.726 620.897 379.701 588.419 348.077M312.350 110.470C264.487 240.385 185 368.590 100.385 451.496C112.350 466.026 130.299 499.359 137.137 514.744C166.197 484.829 194.402 449.786 221.752 412.179L221.752 891.667L285 891.667L285 313.034C319.188 254.060 349.103 191.667 373.889 128.419M594.402 106.197C538.846 220.726 432.009 341.239 305.513 419.017C319.188 429.274 341.410 453.205 350.812 466.026C455.085 397.650 543.974 307.051 608.932 206.197C674.744 307.051 770.470 406.197 853.376 461.752C863.632 445.513 885 422.436 900.385 410.470C807.222 357.479 700.385 253.205 639.701 154.915L655.085 125.855M396.111 507.906L396.111 568.590L738.846 568.590C696.966 627.564 634.573 695.940 586.709 738.675L496.111 677.137L451.667 714.744C532.009 767.735 635.427 846.368 685.855 894.231L732.009 850.641C708.932 829.274 674.744 802.778 637.991 775.427C702.094 713.034 788.419 616.453 836.282 534.402L790.983 504.487L779.872 507.906"/></svg>