<svg xmlns="http://www.w3.org/2000/svg" viewBox="0 0 1000 1000" fill="currentColor"><path d="M811.677 296.019C792.164 364.736 754.837 460.600 723.448 519.985L776.894 536.952C808.283 479.264 844.762 389.338 874.455 313.835M504.572 297.716C496.936 375.765 475.727 466.539 440.097 516.592L494.391 539.497C533.416 481.809 553.776 388.490 559.715 306.199M630.128 110.229C629.280 437.695 634.370 711.714 401.072 845.754C415.494 855.086 435.006 876.295 444.338 890.717C563.957 819.455 625.038 712.562 655.579 581.915C693.755 721.046 754.837 826.242 859.185 888.172C868.516 872.053 886.332 849.147 899.906 838.119C770.107 770.250 709.025 620.091 679.333 428.363C688.665 330.802 688.665 223.060 689.513 110.229M396.830 117.016C332.355 144.163 219.524 169.614 121.963 185.733C128.750 199.306 138.082 221.364 140.627 234.937C180.499 228.999 222.917 222.212 265.335 213.729L265.335 352.859L118.569 352.859L118.569 412.244L254.306 412.244C219.524 510.653 156.745 622.636 99.906 683.718C110.934 698.988 127.053 726.136 133.840 743.951C180.499 689.656 228.007 602.276 265.335 513.198L265.335 889.869L328.113 889.869L328.113 500.473C352.716 539.497 382.408 587.854 395.134 612.456L432.461 560.706C417.191 540.346 349.322 452.965 328.113 430.059L328.113 412.244L454.519 412.244L454.519 352.859L328.113 352.859L328.113 200.155C369.683 189.975 407.859 178.946 440.945 166.221"/></svg>