<svg xmlns="http://www.w3.org/2000/svg" viewBox="0 0 1000 1000" fill="currentColor"><path d="M460.549 650.893C497.459 697.245 538.661 762.481 554.970 803.682L608.189 770.206C590.163 729.004 547.245 667.202 510.335 622.567M613.339 109.262L613.339 216.558L430.506 216.558L430.506 274.927L613.339 274.927L613.339 383.940L386.730 383.940L386.730 443.167L726.644 443.167L726.644 539.305L396.172 539.305L396.172 598.532L726.644 598.532L726.644 816.558C726.644 827.717 723.210 832.009 710.335 832.009C697.459 832.867 651.966 833.725 603.897 831.150C612.481 849.176 621.064 875.785 623.639 893.811C687.159 893.811 729.219 892.953 754.112 883.511C780.721 873.210 788.446 855.185 788.446 816.558L788.446 598.532L894.884 598.532L894.884 539.305L788.446 539.305L788.446 443.167L900.034 443.167L900.034 383.940L675.142 383.940L675.142 274.927L858.833 274.927L858.833 216.558L675.142 216.558L675.142 109.262M222.781 105.828L222.781 278.361L112.052 278.361L112.052 338.446L222.781 338.446L222.781 524.712C176.429 539.305 133.511 551.322 100.034 560.764L116.343 624.283L222.781 589.948L222.781 816.558C222.781 829.433 218.489 832.867 208.189 832.867C197.888 832.867 164.412 832.867 127.502 832.009C135.227 850.034 143.811 876.644 145.528 892.094C199.605 892.953 233.082 890.378 253.682 880.077C275.142 869.777 282.867 852.609 282.867 817.416L282.867 570.206L376.429 539.305L367.845 480.077L282.867 506.687L282.867 338.446L373.854 338.446L373.854 278.361L282.867 278.361L282.867 105.828"/></svg>