<svg xmlns="http://www.w3.org/2000/svg" viewBox="0 0 1000 1000" fill="currentColor"><path d="M219.233 562.069C198.651 608.602 160.172 647.975 111.850 667.662L158.383 703.456C212.969 677.506 252.342 629.183 273.819 577.282M356.145 579.072C369.568 606.812 382.096 644.396 385.676 668.557L445.631 654.239C441.157 630.973 427.734 594.284 413.416 567.438M308.718 199.653C329.300 228.289 349.881 267.662 358.830 292.718L403.573 274.821C394.624 249.765 373.148 213.076 351.671 185.336M535.116 579.072C555.698 606.812 577.174 644.396 586.123 668.557L643.394 647.975C632.655 623.814 612.074 588.020 589.702 561.174M633.550 181.756C621.022 210.391 597.756 254.239 578.964 281.980L619.233 297.192C638.919 271.242 662.186 234.553 684.557 198.758M256.817 166.544L463.528 166.544L463.528 307.036L256.817 307.036M528.852 166.544L740.038 166.544L740.038 307.036L528.852 307.036M715.877 581.756C756.145 614.866 803.573 663.188 825.944 694.508L878.740 666.767C855.474 635.447 808.047 590.705 767.779 558.490L893.953 558.490L893.953 507.483L528.852 507.483L528.852 451.107L818.785 451.107L818.785 402.785L528.852 402.785L528.852 352.673L805.362 352.673L805.362 121.801L195.072 121.801L195.072 352.673L463.528 352.673L463.528 402.785L182.544 402.785L182.544 451.107L463.528 451.107L463.528 507.483L103.796 507.483L103.796 558.490L765.094 558.490M462.633 640.817L462.633 698.087L203.125 698.087L203.125 749.094L462.633 749.094L462.633 823.367L100.217 823.367L100.217 877.953L900.217 877.953L900.217 823.367L528.852 823.367L528.852 749.094L802.678 749.094L802.678 698.087L528.852 698.087L528.852 640.817"/></svg>