<svg xmlns="http://www.w3.org/2000/svg" viewBox="0 0 1000 1000" fill="currentColor"><path d="M221.991 182.487L382.675 182.487L382.675 321.803L221.991 321.803M163.017 126.077L163.017 377.359L444.214 377.359L444.214 126.077M591.222 184.197L768.145 184.197L768.145 322.658L591.222 322.658M532.248 127.786L532.248 378.214L830.538 378.214L830.538 127.786M616.863 425.222C663.872 450.863 720.282 488.470 751.906 516.675L513.444 516.675C521.137 476.504 525.410 433.769 529.684 388.470L460.453 388.470C457.034 433.769 452.761 476.504 444.214 516.675L104.897 516.675L104.897 578.214L427.974 578.214C389.513 689.325 305.752 771.376 99.769 814.966C113.444 829.496 129.684 856.846 135.667 873.085C362.162 820.094 454.470 720.094 496.350 585.906C558.744 739.752 671.564 828.641 857.889 867.103C866.436 848.299 885.239 820.094 899.769 805.564C727.120 777.359 616.009 703 557.889 578.214L886.094 578.214L886.094 516.675L766.436 516.675L803.188 479.068C771.564 450.009 708.316 409.838 657.889 385.051"/></svg>