<svg xmlns="http://www.w3.org/2000/svg" viewBox="0 0 1000 1000" fill="currentColor"><path d="M367.226 109.753C344.223 144.684 315.256 181.318 282.029 217.101C253.914 180.466 217.279 145.536 170.421 111.457L125.266 148.092C173.829 184.726 210.463 222.213 237.726 261.404C196.832 300.594 150.825 336.377 105.671 367.048C120.154 377.272 139.750 397.719 149.973 410.498C190.868 382.383 231.763 350.860 270.953 315.930C288.845 352.564 299.920 390.051 306.736 428.390C259.878 509.327 174.681 596.228 99.707 639.678C115.043 652.458 133.786 673.757 144.010 690.797C202.796 650.754 266.693 585.152 316.108 517.847L316.960 567.261C316.960 683.129 307.588 775.994 282.881 807.517C274.361 818.592 265.841 823.704 251.358 825.408C226.651 827.964 185.756 828.816 134.638 824.556C147.417 843.299 155.085 868.006 155.937 888.454C200.240 891.010 241.134 891.010 276.917 884.194C299.920 880.786 317.812 870.562 330.591 853.523C369.782 802.405 380.005 695.908 380.005 568.113C380.005 465.876 371.486 365.344 317.812 270.775C357.002 230.733 391.933 188.986 419.196 146.388M470.314 172.799L470.314 764.066C470.314 859.487 499.281 884.194 591.294 884.194C611.741 884.194 757.428 884.194 779.579 884.194C869.888 884.194 889.483 838.187 899.707 705.280C881.816 701.020 855.405 689.945 839.217 678.017C832.401 793.885 824.734 822 777.023 822C746.353 822 621.113 822 595.554 822C544.436 822 535.064 811.776 535.064 764.918L535.064 234.141L778.727 234.141L778.727 478.656C778.727 491.436 774.468 494.843 758.280 495.695C742.945 496.547 686.715 496.547 626.225 494.843C634.744 512.735 643.264 539.146 645.820 557.889C722.497 557.889 775.319 557.889 805.138 547.666C833.253 537.442 841.773 517.847 841.773 480.360L841.773 172.799"/></svg>