<svg xmlns="http://www.w3.org/2000/svg" viewBox="0 0 1000 1000" fill="currentColor"><path d="M316.404 705.138C270.616 758.702 191.134 807.946 115.972 839.048C129.795 850.279 151.393 874.469 160.896 887.428C236.922 849.415 323.315 789.803 375.151 725.873M615.324 742.287C688.758 782.892 782.927 842.503 829.579 879.652L874.503 835.592C824.395 797.579 730.227 741.423 658.521 703.410M183.359 480.516C205.821 496.067 230.011 517.665 249.017 536.672C201.501 566.909 150.529 591.099 99.557 606.650C111.652 617.881 126.339 638.616 133.251 653.302C211.868 625.657 289.622 582.460 354.417 523.713L354.417 562.590L650.745 562.590L650.745 518.529C708.629 567.773 778.607 604.058 860.680 627.384C869.320 610.970 885.734 586.780 899.557 574.685C826.987 557.406 763.056 528.896 709.492 490.019C754.417 445.095 800.205 384.620 830.443 328.464L792.430 304.274L781.199 307.730L559.168 307.730C551.393 290.451 543.618 272.309 537.570 254.166L485.734 267.989C519.428 364.749 570.400 445.095 638.650 507.298L371.695 507.298C423.531 456.326 465.864 394.987 492.646 322.417L456.361 305.138L445.994 307.730L434.762 308.594L331.955 308.594C342.322 293.907 351.825 278.356 360.464 262.806L302.581 253.302C268.888 315.505 202.365 387.212 103.013 437.320C115.108 445.959 132.387 464.102 140.162 477.060C204.957 440.775 256.793 398.443 297.397 352.654L420.076 352.654C405.389 381.164 388.110 407.082 367.376 432.136C347.505 416.585 323.315 399.307 301.717 387.212L267.160 416.585C290.486 431.272 316.404 450.279 335.410 466.693C321.587 481.380 306.037 495.203 289.622 507.298C270.616 490.019 245.562 470.149 223.963 455.462M587.678 359.566L745.778 359.566C724.179 393.259 696.533 428.680 668.888 456.326C636.922 427.816 610.140 395.851 587.678 359.566M204.093 628.248L204.093 684.404L474.503 684.404L474.503 828.680C474.503 838.184 471.048 841.639 458.952 841.639C445.994 843.367 405.389 843.367 356.145 841.639C363.920 858.054 373.423 879.652 376.015 896.931C437.354 896.931 478.823 896.931 504.741 888.292C530.659 878.788 537.570 863.238 537.570 829.544L537.570 684.404L791.566 684.404L791.566 628.248M442.538 118.529C453.769 136.672 465 159.998 473.639 179.868L124.611 179.868L124.611 311.186L185.950 311.186L185.950 234.296L804.525 234.296L804.525 311.186L869.320 311.186L869.320 179.868L546.210 179.868C536.706 155.678 520.292 126.305 505.605 103.842"/></svg>