<svg xmlns="http://www.w3.org/2000/svg" viewBox="0 0 1000 1000" fill="currentColor"><path d="M570.810 460.832C608.439 522.964 644.319 605.224 654.820 656.855L712.577 634.977C701.200 583.346 664.446 502.837 625.066 441.579M761.582 100.289L761.582 296.312L557.683 296.312L557.683 357.570L761.582 357.570L761.582 821.374C761.582 835.376 756.332 838.876 743.205 839.751C730.079 839.751 689.824 839.751 644.319 838.876C653.945 855.503 663.571 883.506 667.071 900.133C730.079 901.008 767.708 898.383 791.336 887.882C814.088 877.380 824.590 859.003 824.590 821.374L824.590 357.570L899.849 357.570L899.849 296.312L824.590 296.312L824.590 100.289M126.258 325.191L126.258 898.383L181.389 898.383L181.389 383.823L251.398 383.823L251.398 842.376L297.778 842.376L297.778 383.823L362.536 383.823L362.536 842.376L408.916 842.376L408.916 383.823L471.923 383.823L471.923 833.625C471.923 841.501 469.298 844.127 462.297 844.127C455.296 844.127 433.419 844.127 409.791 843.251C416.792 859.003 424.668 881.756 427.293 896.633C463.172 896.633 487.675 895.758 505.177 887.007C522.679 877.380 527.055 861.629 527.055 834.500L527.055 325.191L312.655 325.191C325.781 290.187 338.908 247.307 351.159 207.052L549.808 207.052L549.808 144.045L100.880 144.045L100.880 207.052L283.776 207.052C275.025 246.432 263.649 290.187 252.273 325.191"/></svg>