<svg xmlns="http://www.w3.org/2000/svg" viewBox="0 0 1000 1000" fill="currentColor"><path d="M636.812 194.526L636.812 678.780L698.874 678.780L698.874 194.526M824.745 112.360L824.745 814.266C824.745 830 819.500 834.371 803.766 835.245C788.906 836.119 738.208 836.119 683.140 834.371C692.755 852.727 702.370 882.446 705.866 899.928C780.165 900.803 824.745 899.054 851.842 887.691C878.065 877.202 888.554 857.097 888.554 814.266L888.554 112.360M159.551 343.123L159.551 580.880L218.116 580.880L218.116 400.814L330.001 400.814L330.001 528.434C283.674 628.956 195.389 732.974 111.475 787.169C122.838 802.029 137.698 827.378 144.691 845.734C211.997 798.532 278.429 719.863 330.001 635.075L330.001 899.054L391.189 899.054L391.189 656.927C441.887 694.514 510.067 748.708 541.535 776.680L575.625 719.863C546.779 698.884 437.516 621.963 391.189 593.992L391.189 400.814L508.319 400.814L508.319 519.693C508.319 528.434 505.696 530.182 496.081 530.182C487.340 531.056 457.621 531.056 422.656 530.182C429.649 545.042 437.516 566.020 440.138 581.754C490.837 581.754 522.304 580.880 541.535 572.139C561.639 562.524 566.010 547.664 566.010 520.567L566.010 343.123L391.189 343.123L391.189 260.958L586.988 260.958L586.988 201.518L391.189 201.518L391.189 100.122L330.001 100.122L330.001 201.518L132.453 201.518L132.453 260.958L330.001 260.958L330.001 343.123"/></svg>