<svg xmlns="http://www.w3.org/2000/svg" viewBox="0 0 1000 1000" fill="currentColor"><path d="M188.210 219.949C172.609 260.686 144.873 309.223 102.403 347.360C115.404 354.294 131.872 370.762 140.540 382.029C151.807 371.628 162.208 360.361 171.742 348.226L171.742 479.104L218.546 479.104L218.546 451.368L367.625 451.368L367.625 329.158L186.477 329.158C195.144 317.891 202.078 306.623 209.012 294.489L430.030 294.489C425.697 399.364 418.763 439.234 409.229 451.368C404.028 457.436 397.961 459.169 386.693 459.169C376.293 459.169 350.290 458.302 320.821 455.702C327.755 467.836 332.956 486.905 334.689 500.772C364.158 502.506 394.494 502.506 410.962 501.639C430.897 499.906 444.765 495.572 456.033 482.571C473.367 463.503 480.301 412.365 487.235 277.154C488.102 269.353 488.102 254.619 488.102 254.619L228.947 254.619L240.215 228.616L235.014 227.750L265.350 227.750L265.350 191.347L358.958 191.347L358.958 229.483L414.429 229.483L414.429 191.347L514.971 191.347L514.971 146.276L414.429 146.276L414.429 102.939L358.958 102.939L358.958 146.276L265.350 146.276L265.350 102.939L209.879 102.939L209.879 146.276L110.204 146.276L110.204 191.347L209.879 191.347L209.879 223.416M607.712 100.339C584.310 181.813 542.706 258.952 488.969 309.223C501.970 317.891 524.505 336.092 534.039 345.626C550.507 328.291 566.975 308.356 581.710 285.821C599.911 319.624 621.580 350.827 647.582 378.562C600.778 407.165 544.440 427.966 482.035 443.568C493.302 455.702 510.637 479.971 516.704 492.972C580.843 473.904 638.914 449.635 688.319 416.699C735.989 456.569 794.061 486.905 860.800 505.106C868.600 488.638 885.068 466.970 898.069 453.969C835.664 440.101 780.193 415.832 733.389 382.896C778.459 343.893 813.129 296.222 835.664 236.417L885.935 236.417L885.935 187.013L636.314 187.013C646.715 163.611 655.382 138.476 663.183 113.340M773.259 236.417C755.057 280.621 727.322 317.024 690.919 347.360C657.983 315.290 631.114 278.021 612.912 236.417M218.546 364.694L319.954 364.694L319.954 414.965L218.546 414.965M732.522 503.373C611.179 524.174 380.626 533.709 194.277 534.575C199.478 546.710 205.545 566.645 207.278 578.779C289.619 578.779 379.759 577.046 467.300 573.579L467.300 627.316L171.742 627.316L171.742 674.987L467.300 674.987L467.300 728.725L115.404 728.725L115.404 778.129L467.300 778.129L467.300 832.733C467.300 843.134 462.966 846.601 450.832 847.468C438.698 848.335 393.627 848.335 347.690 846.601C356.358 862.203 365.892 884.738 369.359 900.339C432.631 900.339 472.501 899.472 497.636 891.672C523.638 883.004 532.306 867.403 532.306 834.467L532.306 778.129L885.068 778.129L885.068 728.725L532.306 728.725L532.306 674.987L834.797 674.987L834.797 627.316L532.306 627.316L532.306 570.112C622.446 564.044 707.387 556.244 773.259 544.976"/></svg>