<svg xmlns="http://www.w3.org/2000/svg" viewBox="0 0 1000 1000" fill="currentColor"><path d="M500.839 336.921L795.486 336.921L795.486 426.857L500.839 426.857M500.839 195.593L795.486 195.593L795.486 284.672L500.839 284.672M440.882 144.201L440.882 478.248L856.300 478.248L856.300 144.201M610.475 500.518L610.475 596.450L419.469 596.450L419.469 654.694L610.475 654.694L610.475 802.874L360.368 802.874L360.368 861.118L899.983 861.118L899.983 802.874L674.715 802.874L674.715 654.694L868.291 654.694L868.291 596.450L674.715 596.450L674.715 500.518M231.032 106.514L231.032 279.533L113.687 279.533L113.687 340.347L231.032 340.347L231.032 524.501L99.983 560.475L117.970 623.002L231.032 589.597L231.032 819.148C231.032 831.139 225.893 834.565 214.758 835.422C203.623 835.422 168.505 835.422 129.105 834.565C137.670 851.696 146.236 878.248 148.805 893.666C206.193 894.522 240.454 891.953 263.580 882.531C285.850 872.253 293.559 855.122 293.559 818.291L293.559 570.754L398.912 538.206L391.203 478.248L293.559 506.514L293.559 340.347L390.347 340.347L390.347 279.533L293.559 279.533L293.559 106.514"/></svg>