<svg xmlns="http://www.w3.org/2000/svg" viewBox="0 0 1000 1000" fill="currentColor"><path d="M100.069 716.590L113.070 777.262L332.355 727.858L332.355 897.739L391.294 897.739L391.294 714.857L443.298 702.723L438.964 645.518L391.294 655.919L391.294 199.147L441.564 199.147L441.564 140.209L107.870 140.209L107.870 199.147L160.741 199.147L160.741 704.456M218.813 199.147L332.355 199.147L332.355 320.491L218.813 320.491M418.163 525.041L418.163 579.646L535.172 579.646C523.038 626.450 508.303 676.720 494.436 713.124L788.260 713.124C777.859 785.063 767.458 818.866 754.457 830.133C746.657 836.200 737.122 837.067 720.654 837.067C704.186 837.067 657.382 836.200 609.712 832.733C620.979 849.202 627.913 873.470 629.647 891.672C677.317 894.272 723.255 894.272 744.923 893.405C771.792 891.672 789.127 886.471 803.861 871.737C827.263 850.068 840.264 799.797 853.265 685.388C854.999 676.720 855.866 659.386 855.866 659.386L577.642 659.386L599.311 579.646L900.069 579.646L900.069 525.041M218.813 375.095L332.355 375.095L332.355 499.039L218.813 499.039M218.813 554.510L332.355 554.510L332.355 668.920L218.813 693.189M516.971 348.226L629.647 348.226L629.647 417.566L516.971 417.566M690.319 348.226L800.394 348.226L800.394 417.566L690.319 417.566M516.971 233.817L629.647 233.817L629.647 302.289L516.971 302.289M690.319 233.817L800.394 233.817L800.394 302.289L690.319 302.289M629.647 102.939L629.647 185.280L458.899 185.280L458.899 466.970L860.199 466.970L860.199 185.280L690.319 185.280L690.319 102.939"/></svg>