<svg xmlns="http://www.w3.org/2000/svg" viewBox="0 0 1000 1000" fill="currentColor"><path d="M147.009 145.673C196.186 171.139 256.778 211.535 284.879 241.392L324.396 188.703C293.661 159.723 233.946 122.841 183.891 100.009M109.248 383.653C161.059 405.607 223.408 443.368 254.144 470.591L291.026 417.901C259.413 390.678 197.064 356.430 145.252 336.233M126.811 852.588L185.648 888.593C224.286 806.924 268.194 698.911 300.686 606.705L247.997 572.457C212.870 670.810 161.937 784.970 126.811 852.588M330.543 493.423L330.543 849.076L388.502 849.076L388.502 779.701L585.209 779.701L585.209 493.423L492.124 493.423L492.124 334.476L609.797 334.476L609.797 273.884L492.124 273.884L492.124 113.181L431.531 113.181L431.531 273.884L299.808 273.884L299.808 334.476L431.531 334.476L431.531 493.423M645.801 123.719L645.801 480.250C645.801 604.948 637.020 758.626 538.666 864.883C552.717 871.908 578.183 889.471 587.843 900.009C660.730 820.975 688.831 710.327 699.369 604.948L831.092 604.948L831.092 817.462C831.092 829.756 825.823 833.269 814.407 834.147C802.991 835.025 765.231 835.025 723.957 833.269C732.739 849.076 741.520 874.542 744.155 890.349C802.991 891.227 838.117 888.593 860.071 878.933C882.903 868.395 890.807 850.832 890.807 818.340L890.807 123.719M704.638 183.434L831.092 183.434L831.092 332.720L704.638 332.720M704.638 391.557L831.092 391.557L831.092 545.234L703.760 545.234L704.638 480.250M388.502 552.259L526.372 552.259L526.372 721.743L388.502 721.743"/></svg>