<svg xmlns="http://www.w3.org/2000/svg" viewBox="0 0 1000 1000" fill="currentColor"><path d="M168.087 577.826C225.478 610 295.043 658.696 328.087 692.609L374.174 648.261C339.391 615.217 268.957 568.261 212.435 537.826M199.391 175.217L199.391 230.870L462.870 230.870L462.870 316.087L107.217 316.087L107.217 373.478L462.870 373.478L462.870 462.174L192.435 462.174L192.435 516.957L462.870 516.957L462.870 662.174C334.174 712.609 198.522 765.652 112.435 796.087L144.609 855.217C233.304 818.696 350.696 768.261 462.870 718.696L462.870 819.565C462.870 834.348 456.783 838.696 442.870 839.565C428.957 839.565 NaN 840.435 331.565 838.696C341.130 856.087 349.826 883.043 353.304 899.565C424.609 899.565 466.348 897.826 491.565 887.391C516.783 877.826 528.087 859.565 528.087 818.696L528.087 619.565C604.609 735.217 715.913 822.174 850.696 866.522C860.261 849.130 878.522 824.783 893.304 811.739C810.696 789.130 735.913 749.130 673.304 696.957C728.087 663.043 792.435 616.087 842.870 573.478L787.217 532.609C748.087 571.739 684.609 622.174 631.565 658.696C589.826 616.957 555.913 569.130 530.696 516.957L797.652 516.957L797.652 373.478L887.217 373.478L887.217 316.087L797.652 316.087L797.652 175.217L528.087 175.217L528.087 99.565L462.870 99.565L462.870 175.217M528.087 373.478L731.565 373.478L731.565 462.174L528.087 462.174M528.087 316.087L528.087 230.870L731.565 230.870L731.565 316.087"/></svg>