<svg xmlns="http://www.w3.org/2000/svg" viewBox="0 0 1000 1000" fill="currentColor"><path d="M109.015 201.635C157.032 239.362 214.481 293.382 241.062 329.394L286.507 283.092C258.211 247.079 199.047 196.490 151.030 160.477M99.583 788.130L155.317 820.713C192.188 744.400 237.632 639.791 270.215 551.474L220.483 518.033C184.471 612.353 134.738 722.106 99.583 788.130M513.731 139.898C478.576 160.477 421.984 181.913 369.680 199.920L369.680 104.743L311.373 104.743L311.373 298.526C311.373 357.690 327.665 373.124 393.688 373.124C406.550 373.124 485.435 373.124 499.154 373.124C549.744 373.124 566.035 353.403 572.038 277.090C556.603 273.660 532.595 265.086 520.591 256.511C518.018 313.103 513.731 320.820 493.152 320.820C476.861 320.820 412.552 320.820 400.548 320.820C373.109 320.820 369.680 317.390 369.680 297.669L369.680 247.937C429.701 231.645 498.297 209.352 548.886 184.486M283.935 602.063L283.935 656.940L396.260 656.940C385.114 723.821 351.673 799.277 258.211 854.153C271.073 864.443 289.937 882.449 297.654 894.453C370.537 848.151 410.837 793.274 433.131 737.540C462.284 765.836 491.437 798.419 506.014 821.570L544.599 777.840C524.878 750.402 485.435 710.959 450.280 680.091L453.710 656.940L563.463 656.940L563.463 602.063L458.854 602.063L458.854 581.484L458.854 501.742L549.744 501.742L549.744 447.722L379.969 447.722C386.829 428.001 392.831 407.422 397.975 386.844L342.241 374.839C328.522 437.433 305.371 499.169 271.073 542.899C284.792 549.759 308.801 565.193 318.233 573.767C332.809 554.046 346.528 529.180 359.390 501.742L402.263 501.742L402.263 580.627L402.263 602.063M598.618 267.658C663.785 302.814 741.812 355.975 778.683 392.846L817.268 347.401C802.691 333.682 782.113 317.390 758.961 301.956C803.549 259.941 849.851 205.064 882.434 154.475L842.991 126.179L830.987 129.609L577.182 129.609L577.182 182.771L790.687 182.771C768.393 213.639 740.098 245.364 711.802 271.088C686.078 255.654 659.497 240.220 635.489 228.215M591.759 518.891C588.329 661.227 574.610 785.557 509.444 854.153C521.448 862.728 538.597 880.734 546.314 892.738C581.469 855.011 603.763 803.564 617.482 743.542C662.070 855.868 731.523 880.734 813.838 880.734L881.577 880.734C884.149 865.300 891.866 837.862 899.583 824.143C881.577 824.143 829.272 825 817.268 825C794.974 825 773.538 823.285 752.959 816.426L752.959 648.365L879.004 648.365L879.004 595.204L752.959 595.204L752.959 454.582L829.272 454.582C823.270 482.878 817.268 510.316 811.266 530.895L855.853 542.899C868.715 506.886 880.719 452.867 890.151 405.707L854.138 396.275L845.564 398.848L566.035 398.848L566.035 454.582L698.083 454.582L698.083 784.700C670.644 759.834 647.493 718.676 632.059 653.510C637.204 611.495 639.776 566.050 640.633 518.891"/></svg>