<svg xmlns="http://www.w3.org/2000/svg" viewBox="0 0 1000 1000" fill="currentColor"><path d="M341.255 317.003C289.697 382.309 204.627 450.193 128.150 493.158C142.758 503.469 166.818 528.389 178.849 541.278C253.607 492.299 344.692 414.962 403.983 341.063M599.042 353.093C678.956 408.088 774.337 489.721 818.161 544.715L872.296 501.751C825.035 447.615 727.936 369.420 649.740 316.144M370.470 467.379L312.898 485.424C347.270 569.635 393.671 640.956 452.962 699.388C362.737 768.131 246.733 812.814 108.387 842.030C120.417 856.638 141.040 884.995 147.914 900.462C286.260 866.090 405.701 816.251 500.223 742.352C591.308 816.251 707.313 866.090 849.955 893.588C858.548 875.542 876.593 848.904 891.201 834.296C752.855 811.955 637.710 766.412 548.344 700.247C609.353 640.956 657.474 569.635 692.705 481.128L628.258 463.083C599.042 542.137 556.077 606.584 500.223 659.001C443.510 605.725 400.546 541.278 370.470 467.379M427.184 121.085C448.666 153.738 471.867 196.702 484.756 227.637L125.573 227.637L125.573 290.365LNaN 290.365LNaN 227.637L512.253 227.637L550.922 212.170C539.751 182.095 511.394 134.834 488.193 100.462"/></svg>