<svg xmlns="http://www.w3.org/2000/svg" viewBox="0 0 1000 1000" fill="currentColor"><path d="M326.079 141.284C288.442 210.431 226.298 277.827 163.278 322.466C179.033 332.094 205.291 353.101 217.545 364.479C279.689 314.589 346.210 237.565 389.098 159.665M658.683 165.792C724.328 218.309 802.228 293.582 838.989 342.597L895.007 306.711C856.495 257.696 775.969 184.173 711.199 134.282M476.626 100.147L476.626 356.602C365.466 407.368 235.050 445.004 105.510 468.637C117.764 481.766 137.020 510.650 144.897 526.405C187.786 516.777 231.549 505.398 275.313 493.144L275.313 900.147L340.958 900.147L340.958 868.637L885.379 868.637L885.379 816.120L634.175 816.120L634.175 744.348L836.363 744.348L836.363 697.958L634.175 697.958L634.175 628.812L836.363 628.812L836.363 582.422L634.175 582.422L634.175 510.650L876.626 510.650L876.626 457.258L647.304 457.258C634.175 432.751 611.418 402.116 590.411 380.234L534.394 397.740C550.149 415.245 565.904 437.127 577.282 457.258L385.597 457.258C523.891 407.368 649.930 339.972 735.707 251.569L678.814 220.059C642.053 258.571 594.788 293.582 540.521 323.341L540.521 100.147M570.280 510.650L570.280 582.422L340.958 582.422L340.958 510.650M340.958 628.812L570.280 628.812L570.280 697.958L340.958 697.958M340.958 744.348L570.280 744.348L570.280 816.120L340.958 816.120"/></svg>