<svg xmlns="http://www.w3.org/2000/svg" viewBox="0 0 1000 1000" fill="currentColor"><path d="M570.388 110.863L570.388 825.244L429.474 825.244L429.474 110.863L360.800 110.863L360.800 257.128L134.268 257.128L134.268 318.667L360.800 318.667L360.800 441.744L146.754 441.744L146.754 504.174L360.800 504.174L360.800 630.818L128.916 630.818L128.916 693.249L360.800 693.249L360.800 825.244L100.377 825.244L100.377 889.458L900.377 889.458L900.377 825.244L639.061 825.244L639.061 691.465L878.080 691.465L878.080 629.035L639.061 629.035L639.061 502.390L861.135 502.390L861.135 439.960L639.061 439.960L639.061 316.883L872.729 316.883L872.729 255.344L639.061 255.344L639.061 110.863"/></svg>