<svg xmlns="http://www.w3.org/2000/svg" viewBox="0 0 1000 1000" fill="currentColor"><path d="M285.285 402.564L714.321 402.564L714.321 542.109L285.285 542.109M463.833 100.073L463.833 187.613L126.672 187.613L126.672 247.418L463.833 247.418L463.833 344.493L222.013 344.493L222.013 601.048L358.091 601.048C339.889 723.258 294.819 801.264 103.270 840.268C117.138 854.135 135.339 882.738 141.406 900.073C352.024 849.802 407.495 752.727 427.430 601.048L556.574 601.048L556.574 798.664C556.574 869.737 578.243 889.672 659.716 889.672C677.051 889.672 779.326 889.672 797.528 889.672C871.200 889.672 889.402 857.602 897.203 726.725C879.001 721.524 851.265 711.124 836.531 699.856C833.064 811.665 827.863 827.267 792.327 827.267C768.925 827.267 683.985 827.267 666.650 827.267C629.380 827.267 623.313 823.800 623.313 797.797L623.313 601.048L781.060 601.048L781.060 344.493L529.705 344.493L529.705 247.418L875.534 247.418L875.534 187.613L529.705 187.613L529.705 100.073"/></svg>