<svg xmlns="http://www.w3.org/2000/svg" viewBox="0 0 1000 1000" fill="currentColor"><path d="M846.961 105.232C747.070 136.777 564.814 159.559 413.226 170.950C420.235 185.846 428.122 207.751 429.874 222.647C584.967 213.009 770.728 191.103 889.896 156.054M597.234 247.182C616.512 291.870 636.665 351.453 644.551 387.379L700.630 370.731C693.620 334.805 671.714 276.974 649.808 233.162M426.369 274.345C450.027 318.157 476.314 375.988 486.829 411.913L542.032 390.884C530.641 355.835 503.478 298.880 478.943 256.820M834.693 213.885C817.169 268.211 783.872 345.320 757.585 393.513L808.406 415.418C836.446 369.854 868.866 298.880 895.153 237.543M372.043 99.975C314.211 128.014 212.568 153.425 126.698 169.197C133.708 184.093 143.346 206.875 145.975 220.895C177.519 215.637 211.692 209.504 245.865 202.494L245.865 344.444L124.069 344.444L124.069 405.780L237.979 405.780C207.311 504.794 154.737 619.581 104.792 682.669C116.183 699.318 132.831 727.357 140.717 746.634C177.519 694.936 215.197 614.323 245.865 531.081L245.865 899.975L308.078 899.975L308.078 500.413C329.107 535.462 351.889 576.645 362.404 598.551L400.958 545.977C386.939 526.700 330.860 453.096 308.078 426.809L308.078 405.780L421.112 405.780L421.112 344.444L308.078 344.444L308.078 187.598C346.632 177.959 382.558 165.692 413.226 152.549M673.467 447.839L673.467 506.547L818.921 506.547L818.921 620.457L677.848 620.457L677.848 679.164L818.921 679.164L818.921 803.589L501.725 803.589L501.725 678.288L636.665 678.288L636.665 620.457L501.725 620.457L501.725 511.804C548.165 493.403 597.234 471.497 636.665 448.715L586.720 403.151C551.670 429.438 491.210 460.106 437.760 482.888L437.760 898.222L501.725 898.222L501.725 862.297L818.921 862.297L818.921 892.965L880.257 892.965L880.257 447.839"/></svg>