<svg xmlns="http://www.w3.org/2000/svg" viewBox="0 0 1000 1000" fill="currentColor"><path d="M432.004 607.761L701.782 607.761L701.782 714.179L432.004 714.179M616.834 202.627L616.834 262.370L444.139 262.370L444.139 202.627L381.595 202.627L381.595 262.370L234.104 262.370L234.104 319.313L381.595 319.313L381.595 375.322L444.139 375.322L444.139 319.313L616.834 319.313L616.834 375.322L680.312 375.322L680.312 319.313L831.537 319.313L831.537 262.370L680.312 262.370L680.312 202.627M471.210 352.918C461.875 378.123 451.607 402.393 439.471 425.730L220.102 425.730L220.102 482.673L404.932 482.673C353.590 556.419 285.446 616.162 205.166 658.169C219.168 668.438 243.439 692.708 253.707 705.777C293.847 681.506 332.120 653.502 367.593 619.896L367.593 767.387L768.993 767.387L768.993 554.552L429.203 554.552C446.939 532.148 463.742 507.877 479.611 482.673L854.874 482.673L854.874 425.730L510.417 425.730C518.818 407.061 527.219 387.457 534.687 367.854M99.681 109.278L99.681 891.541L899.681 891.541L899.681 824.330L168.760 824.330L168.760 176.489L878.211 176.489L878.211 109.278"/></svg>