<svg xmlns="http://www.w3.org/2000/svg" viewBox="0 0 1000 1000" fill="currentColor"><path d="M99.934 710.151L121.417 775.458C197.894 745.382 297.571 706.714 391.234 668.905L378.345 609.614L280.386 646.564L280.386 369.872L380.923 369.872L380.923 308.863L280.386 308.863L280.386 109.507L219.376 109.507L219.376 308.863L111.105 308.863L111.105 369.872L219.376 369.872L219.376 668.905C173.834 685.232 132.588 699.840 99.934 710.151M382.641 155.049L382.641 214.340L479.741 214.340C468.570 504.781 433.339 720.463 290.697 852.794C305.305 861.387 333.662 881.150 344.832 890.603C435.917 796.940 484.897 673.202 511.535 516.811C545.047 595.006 586.293 665.468 636.132 724.759C587.153 774.598 531.299 813.266 469.430 841.623C483.178 851.934 505.520 875.995 514.113 890.603C573.404 861.387 629.258 821 678.237 770.302C729.795 820.141 789.086 859.668 856.111 887.165C866.422 870.839 885.327 846.779 899.934 833.889C832.050 808.970 771.900 770.302 720.343 721.322C784.789 639.690 834.628 533.997 862.126 403.385L822.598 387.058L811.427 389.636L714.328 389.636C734.091 319.174 757.292 228.948 776.197 155.049M541.610 214.340L698.860 214.340C679.956 295.114 655.896 386.199 634.414 446.349L788.227 446.349C765.026 537.434 726.358 613.911 678.237 676.639C610.353 598.444 560.515 500.484 528.721 393.932C534.736 337.219 538.173 277.928 541.610 214.340"/></svg>