<svg xmlns="http://www.w3.org/2000/svg" viewBox="0 0 1000 1000" fill="currentColor"><path d="M458.453 209.737L769.100 209.737L769.100 363.390L458.453 363.390M398.328 153.787L398.328 420.175L580.374 420.175L580.374 523.724L336.532 523.724L336.532 581.344L543.630 581.344C486.846 669.862 398.328 754.205 312.315 796.793C326.511 808.484 345.718 831.031 355.739 846.063C437.576 798.463 521.919 714.956 580.374 622.263L580.374 882.806L643.004 882.806L643.004 619.758C698.954 711.616 779.121 799.299 855.948 847.733C866.804 831.866 886.010 810.154 900.207 797.628C819.205 754.205 734.027 669.862 680.582 581.344L877.660 581.344L877.660 523.724L643.004 523.724L643.004 420.175L831.731 420.175L831.731 153.787M312.315 117.044C263.881 243.140 183.714 367.566 100.207 447.733C111.063 461.929 129.434 495.332 135.280 509.528C166.177 478.630 196.240 441.887 225.468 401.804L225.468 880.301L285.593 880.301L285.593 309.111C318.161 253.996 347.388 194.706 370.770 135.415"/></svg>