<svg xmlns="http://www.w3.org/2000/svg" viewBox="0 0 1000 1000" fill="currentColor"><path d="M758.700 200.591C745.198 238.565 718.194 293.418 696.253 331.392L647.308 331.392L647.308 192.996C719.038 185.401 786.549 175.274 839.713 163.460L803.426 116.203C703.848 139.831 525.789 156.709 378.954 164.304C384.861 176.962 392.456 198.059 394.143 211.561C455.747 209.030 523.257 204.810 589.080 198.903L589.080 331.392L369.671 331.392L369.671 384.557L537.603 384.557C487.814 449.536 406.802 509.451 330.852 538.987C344.354 550.802 362.076 571.899 371.359 586.245C386.549 579.494 402.582 571.055 417.772 561.772L417.772 886.667L474.312 886.667L474.312 849.536L772.203 849.536L772.203 881.603L831.274 881.603L831.274 561.772L859.122 576.962C869.249 561.772 886.970 540.675 899.629 529.705C829.586 501.013 751.949 443.629 702.160 384.557L875.156 384.557L875.156 331.392L752.793 331.392C773.046 297.637 794.987 255.443 814.397 217.468M433.806 231.814C450.684 263.038 471.781 305.232 481.063 331.392L534.228 311.983C524.101 287.511 502.160 247.004 484.439 215.781M589.080 403.966L589.080 542.363L647.308 542.363L647.308 398.059C692.878 460.506 762.920 522.110 829.586 560.928L418.616 560.928C482.751 522.110 546.042 464.726 589.080 403.966M589.080 609.030L589.080 680.759L474.312 680.759L474.312 609.030M643.932 609.030L772.203 609.030L772.203 680.759L643.932 680.759M589.080 728.017L589.080 801.435L474.312 801.435L474.312 728.017M643.932 728.017L772.203 728.017L772.203 801.435L643.932 801.435M216.928 111.983L216.928 281.603L111.443 281.603L111.443 340.675L216.928 340.675L216.928 514.515L99.629 555.021L113.131 616.624L216.928 577.806L216.928 814.093C216.928 825.907 212.709 829.283 202.582 829.283C192.456 830.127 159.544 830.127 123.257 828.439C130.852 846.160 139.291 872.321 140.979 887.511C194.987 888.354 227.055 885.823 247.308 875.696C268.405 866.414 276 848.692 276 814.093L276 555.865L365.451 521.266L354.481 463.882L276 492.574L276 340.675L367.139 340.675L367.139 281.603L276 281.603L276 111.983"/></svg>