<svg xmlns="http://www.w3.org/2000/svg" viewBox="0 0 1000 1000" fill="currentColor"><path d="M193.530 135.139C216.583 172.705 246.465 223.079 258.418 256.377L310.499 226.494C295.985 195.758 266.956 147.092 242.196 111.233M108.152 258.938L108.152 317.850L308.792 317.850C261.834 427.134 177.308 539.835 99.614 603.869C109.005 614.968 124.374 645.704 129.496 662.780C161.086 633.751 194.384 597.892 225.974 557.764L225.974 892.449L285.740 892.449L285.740 548.372C314.768 588.501 347.212 638.874 362.581 665.342L397.586 615.822L336.967 538.127C361.727 516.782 390.756 486.046 418.077 457.871L377.949 422.012C361.727 445.918 334.406 480.923 311.353 506.537L285.740 475.800L285.740 473.239C324.160 412.620 357.458 346.878 381.364 281.137L348.920 256.377L339.528 258.938M436.006 234.178L436.006 457.017C436.006 575.694 426.615 734.498 336.113 846.345C349.774 854.029 373.680 874.520 383.072 887.327C469.304 779.749 490.649 623.506 494.064 499.707L501.748 499.707C530.777 589.354 572.613 667.903 627.255 731.937C572.613 781.457 509.432 818.170 442.837 840.368C454.790 853.175 470.158 877.081 477.842 892.449C546.999 865.982 611.887 827.561 669.091 775.480C722.026 825.854 786.060 864.274 859.486 889.888C868.877 872.812 886.807 848.052 899.614 835.245C827.042 813.901 763.861 778.895 711.780 732.791C774.961 661.073 824.480 569.717 851.801 455.309L813.381 439.941L801.428 443.356L679.336 443.356L679.336 293.943L811.673 293.943C801.428 334.072 789.475 374.200 779.229 402.375L833.018 415.181C850.948 372.492 871.439 302.481 888.514 242.716L843.264 231.617L833.872 234.178L679.336 234.178L679.336 107.818L619.571 107.818L619.571 234.178M619.571 293.943L619.571 443.356L494.918 443.356L494.918 293.943M777.522 499.707C753.616 573.986 716.049 637.166 669.091 690.101C621.279 636.313 584.566 572.279 558.952 499.707"/></svg>