<svg xmlns="http://www.w3.org/2000/svg" viewBox="0 0 1000 1000" fill="currentColor"><path d="M589.946 735.115C686.258 780.234 786.909 835.766 847.646 878.282L899.707 829.692C834.631 788.911 729.642 733.380 631.594 689.128M349.599 692.599C295.803 739.453 187.343 797.588 99.707 830.560C115.325 842.707 137.017 864.399 147.430 878.282C235.065 842.707 341.790 786.308 411.204 731.644M248.948 120.798L248.948 626.655L110.119 626.655L110.119 685.657L890.163 685.657L890.163 626.655L760.879 626.655L760.879 120.798M311.421 626.655L311.421 547.696L695.803 547.696L695.803 626.655M311.421 299.540L695.803 299.540L695.803 373.293L311.421 373.293M311.421 249.215L311.421 174.594L695.803 174.594L695.803 249.215M311.421 422.751L695.803 422.751L695.803 498.239L311.421 498.239"/></svg>