<svg xmlns="http://www.w3.org/2000/svg" viewBox="0 0 1000 1000" fill="currentColor"><path d="M564.567 517.446L564.567 862.035L622.576 862.035L622.576 517.446M411.320 516.580L411.320 605.758C411.320 685.411 400.065 781.515 293.571 854.242C308.290 863.766 329.935 883.680 339.459 896.667C456.342 813.550 470.195 701.861 470.195 607.489L470.195 516.580M718.680 516.580L718.680 791.905C718.680 843.853 723.009 857.706 735.996 869.827C747.251 880.216 766.299 884.545 783.615 884.545C792.273 884.545 815.649 884.545 826.039 884.545C840.758 884.545 858.074 881.082 867.597 875.022C879.719 868.095 886.645 857.706 890.974 841.255C895.303 825.671 897.900 779.784 899.632 741.688C884.048 736.494 NaN 727.835 853.745 717.446C852.879 759.004 852.013 790.173 850.281 804.892C848.550 818.745 845.952 824.805 841.623 828.268C837.294 830.866 830.368 831.732 822.576 831.732C815.649 831.732 804.394 831.732 798.333 831.732C792.273 831.732 787.078 830.866 784.481 828.268C780.152 823.939 779.286 815.281 779.286 797.965L779.286 516.580M138.593 159.870C190.541 191.039 254.610 237.792 285.779 271.558L324.740 220.476C293.571 187.576 228.636 142.554 176.688 113.983M99.632 397.965C155.043 423.074 223.442 463.766 257.208 494.069L293.571 440.390C258.939 410.952 189.675 372.857 134.264 350.346M121.277 843.853L175.823 888.009C226.905 807.489 287.511 699.264 333.398 607.489L286.645 565.065C236.429 662.900 168.030 777.186 121.277 843.853M548.983 117.446C562.835 146.883 576.688 184.113 587.078 215.281L340.325 215.281L340.325 274.156L510.887 274.156C474.524 320.909 425.173 382.381 408.723 397.965C392.273 412.684 367.165 418.745 350.714 422.208C355.909 436.926 364.567 468.961 368.030 484.545C393.139 475.022 432.965 471.558 789.675 447.316C806.991 470.693 821.710 492.338 832.100 510.519L884.913 475.887C852.879 424.805 786.212 345.152 731.667 287.143L683.182 316.580C703.961 339.957 727.338 367.662 748.983 394.502L477.121 410.087C510.887 371.126 551.580 317.446 584.481 274.156L883.182 274.156L883.182 215.281L653.745 215.281C644.221 182.381 626.039 138.225 607.857 102.727"/></svg>