<svg xmlns="http://www.w3.org/2000/svg" viewBox="0 0 1000 1000" fill="currentColor"><path d="M769.720 99.648C643.681 135.534 410.858 157.416 213.921 167.044L213.921 399.867C213.921 536.409 206.044 726.344 114.140 861.136C130.770 868.138 158.779 887.394 171.033 899.648C262.061 765.731 279.567 567.044 281.317 422.624L339.961 422.624C380.223 538.160 437.116 633.565 513.265 709.713C436.241 767.481 346.963 808.619 253.309 833.127C266.438 848.007 283.068 874.265 290.945 892.646C390.726 862.886 484.381 818.247 564.906 755.228C641.055 815.621 733.834 860.260 844.993 889.144C853.746 870.764 872.127 844.505 886.131 831.376C779.348 807.744 689.195 767.481 615.672 712.339C704.074 628.313 773.221 518.028 811.733 374.484L767.094 355.228L753.965 358.729L281.317 358.729L281.317 223.061C471.252 214.309 683.068 191.551 823.987 152.164M725.956 422.624C690.070 521.530 634.053 603.805 563.155 667.700C494.009 602.055 441.492 519.779 406.481 422.624"/></svg>