<svg xmlns="http://www.w3.org/2000/svg" viewBox="0 0 1000 1000" fill="currentColor"><path d="M589.269 633.527C566.903 679.978 524.753 744.495 494.645 784.065L537.656 810.731C569.484 771.161 609.054 712.667 638.301 661.054M681.312 658.473C719.161 704.925 761.312 769.441 779.376 809.871L825.828 779.763C807.763 740.194 763.892 678.258 726.043 632.667M99.806 733.312L120.452 796.968C190.989 770.301 279.591 735.032 363.892 700.624L351.849 642.989L263.247 675.677L263.247 394.387L354.430 394.387L354.430 333.312L263.247 333.312L263.247 133.742L202.172 133.742L202.172 333.312L103.247 333.312L103.247 394.387L202.172 394.387L202.172 698.043C163.462 711.806 129.054 723.849 99.806 733.312M338.086 575.032L338.086 630.086L396.581 630.086L396.581 876.108L876.581 876.108L876.581 820.194L456.796 820.194L456.796 630.086L899.806 630.086L899.806 575.032L794 575.032L794 266.215L886.903 266.215L886.903 211.161L794 211.161L794 123.419L732.925 123.419L732.925 211.161L512.710 211.161L512.710 123.419L451.634 123.419L451.634 211.161L365.613 211.161L365.613 266.215L451.634 266.215L451.634 575.032M512.710 266.215L732.925 266.215L732.925 333.312L512.710 333.312M512.710 384.065L732.925 384.065L732.925 452.882L512.710 452.882M512.710 504.495L732.925 504.495L732.925 575.032L512.710 575.032"/></svg>