<svg xmlns="http://www.w3.org/2000/svg" viewBox="0 0 1000 1000" fill="currentColor"><path d="M296.974 631.195L296.974 809.365C296.974 881.691 323.434 900.214 423.986 900.214C445.154 900.214 603.920 900.214 625.970 900.214C710.645 900.214 731.814 871.989 740.634 757.325C722.111 753.797 694.768 743.213 679.774 732.628C675.364 827.006 668.308 840.236 621.560 840.236C587.161 840.236 453.975 840.236 427.514 840.236C371.946 840.236 362.244 834.944 362.244 808.483L362.244 631.195M731.814 653.246C773.269 714.106 818.252 797.899 835.011 849.938L899.399 827.888C880.877 774.966 835.011 693.819 791.792 633.841M183.192 632.959C167.315 699.111 137.326 782.904 100.281 835.826L160.259 861.405C195.540 807.601 222.883 720.280 239.642 652.364M443.390 622.375C485.728 665.594 535.121 725.572 557.172 765.264L613.622 733.510C590.689 694.701 540.413 636.487 497.194 594.150M325.198 100.214C278.451 200.765 198.186 297.788 111.748 358.648C128.506 368.351 154.967 388.637 167.315 400.104C214.945 362.176 262.574 312.783 304.912 256.333L421.340 256.333C366.654 357.766 281.097 444.205 184.074 500.655C199.068 511.239 222.883 535.054 232.585 547.402C334.901 480.368 430.160 378.053 491.902 256.333L610.094 256.333C559.818 383.345 477.789 488.307 374.592 556.223C389.587 565.925 414.283 588.858 424.868 600.324C533.357 521.824 622.442 402.750 677.128 256.333L770.623 256.333C758.275 437.149 745.044 508.593 726.521 527.998C718.583 537.700 709.763 538.582 694.768 538.582C678.892 538.582 639.201 537.700 595.981 534.172C606.566 550.931 613.622 577.391 615.386 595.914C657.723 598.560 700.061 598.560 722.993 596.796C749.454 595.032 766.213 588.858 782.971 569.453C810.314 539.464 824.427 454.789 838.539 226.344C839.421 216.642 841.185 196.355 841.185 196.355L346.367 196.355C361.362 170.776 376.356 145.197 388.705 118.736"/></svg>