<svg xmlns="http://www.w3.org/2000/svg" viewBox="0 0 1000 1000" fill="currentColor"><path d="M231.255 280.257L231.255 318.395L428.304 318.395L428.304 280.257M211.278 357.442L211.278 395.580L429.212 395.580L429.212 357.442M586.306 357.442L586.306 395.580L810.597 395.580L810.597 357.442M586.306 280.257L586.306 318.395L787.896 318.395L787.896 280.257M125.012 193.991L125.012 340.188L186.760 340.188L186.760 238.486L473.707 238.486L473.707 419.190L540.904 419.190L540.904 238.486L832.390 238.486L832.390 340.188L895.955 340.188L895.955 193.991L540.904 193.991L540.904 148.588L841.471 148.588L841.471 99.553L177.680 99.553L177.680 148.588L473.707 148.588L473.707 193.991M193.117 415.557L193.117 452.788L108.667 452.788L108.667 498.191L193.117 498.191L193.117 576.284L287.555 576.284L287.555 609.882L141.358 609.882L141.358 738.826L287.555 738.826L287.555 775.149L103.219 775.149L103.219 820.552L287.555 820.552L287.555 898.645L346.579 898.645L346.579 820.552L522.742 820.552L522.742 775.149L346.579 775.149L346.579 738.826L499.133 738.826L499.133 609.882L346.579 609.882L346.579 576.284L450.098 576.284L450.098 498.191L534.547 498.191L534.547 452.788L450.098 452.788L450.098 415.557L392.890 415.557L392.890 452.788L247.600 452.788L247.600 415.557M392.890 498.191L392.890 537.237L247.600 537.237L247.600 498.191M573.594 440.983L573.594 609.882C573.594 690.699 565.421 793.310 497.317 868.679C512.754 875.035 539.995 890.472 550.892 899.553C590.847 853.242 612.640 795.126 623.537 736.102L814.229 736.102L814.229 825.092C814.229 835.081 810.597 838.713 797.884 839.621C786.988 840.529 747.941 840.529 705.262 839.621C712.527 855.058 721.607 878.667 723.423 894.104C784.263 895.012 823.310 894.104 846.919 885.024C869.621 875.035 876.885 857.782 876.885 825.092L876.885 440.983M633.526 495.467L814.229 495.467L814.229 565.387L633.526 565.387M633.526 614.422L814.229 614.422L814.229 687.975L629.893 687.975C632.617 662.549 633.526 637.124 633.526 614.422M194.025 648.020L287.555 648.020L287.555 699.780L194.025 699.780M346.579 648.020L444.649 648.020L444.649 699.780L346.579 699.780"/></svg>