<svg xmlns="http://www.w3.org/2000/svg" viewBox="0 0 1000 1000" fill="currentColor"><path d="M613.489 777.498C687.309 804.966 780.871 849.601 827.223 880.502L875.292 842.734C824.648 810.974 731.086 769.773 658.983 744.880M324.219 746.597C273.575 783.506 191.172 818.700 116.494 841.017C131.086 850.459 154.262 872.777 164.562 884.794C237.524 857.326 325.077 814.408 382.588 768.914M242.674 624.708C256.408 619.558 278.725 616.983 420.356 608.399C355.979 635.009 301.043 654.751 274.433 662.476C228.082 678.785 191.172 688.227 163.704 690.803C169.712 706.253 177.438 733.721 179.155 745.738C202.330 737.155 234.948 733.721 480.442 717.412L480.442 828.142C480.442 838.442 477.009 841.017 464.133 841.876C451.258 842.734 410.056 842.734 360.270 841.017C368.854 856.468 379.155 878.785 383.446 895.094C444.391 895.094 485.592 895.953 512.202 887.369C538.811 877.927 545.678 862.476 545.678 829.858L545.678 713.120L756.837 699.386C779.155 717.412 798.039 734.579 810.914 749.172L856.408 713.120C816.923 673.635 738.811 618.700 674.433 582.648L633.232 613.549C654.691 626.425 677.009 641.017 700.185 656.468L376.579 675.352C473.575 642.734 571.429 602.391 665.850 552.605L627.223 509.687C595.464 527.712 561.129 544.880 527.652 561.189L367.996 567.197C402.330 553.464 435.807 538.013 468.425 519.129L435.807 492.519L507.052 492.519L507.052 453.034L459.841 453.034L468.425 377.498L532.803 377.498L532.803 336.296L472.717 336.296L482.159 225.567L198.039 225.567C208.339 214.408 217.781 202.391 226.365 189.515L514.777 189.515L514.777 145.738L253.833 145.738L267.567 117.412L214.348 104.536C190.313 159.472 148.253 210.116 100.185 245.309C113.918 253.034 137.094 267.627 147.395 276.210C161.987 264.193 175.721 250.459 189.455 235.867L180.013 336.296L110.485 336.296L110.485 377.498L174.863 377.498C169.712 420.416 163.704 460.760 158.554 492.519L415.206 492.519C363.704 526.854 299.326 553.464 278.725 560.330C258.983 568.056 241.815 571.489 226.365 572.348C232.373 586.940 240.099 613.549 242.674 624.708M624.648 224.708L767.137 224.708C750.828 273.635 726.794 314.837 695.893 350.030C664.991 314.837 639.240 274.494 621.215 230.717M612.631 107.970C592.030 180.073 554.262 246.167 504.476 289.944C517.352 298.528 537.953 319.129 546.536 329.429C561.987 314.837 575.721 298.528 589.455 280.502C608.339 319.987 630.657 355.180 658.124 386.940C616.923 421.275 567.137 447.884 510.485 468.485C522.502 478.785 539.670 500.245 547.395 511.403C603.189 489.086 652.116 460.760 694.176 424.708C741.386 467.627 798.039 501.103 862.416 521.704C870.142 507.112 886.451 484.794 900.185 473.635C835.807 455.609 780.013 426.425 733.661 386.940C774.004 342.305 804.906 289.086 824.648 224.708L883.017 224.708L883.017 176.639L647.824 176.639C655.549 157.755 662.416 138.871 668.425 119.129M285.592 287.369C310.485 301.103 339.670 322.562 353.403 339.730L230.657 339.730L238.382 265.052L428.082 265.052L421.215 339.730L356.837 339.730L379.155 316.554C364.562 299.386 333.661 278.785 307.910 265.052M272.717 393.807C301.043 410.116 331.944 434.150 346.536 453.034L216.064 453.034L226.365 374.923L293.318 374.923M348.253 453.034L371.429 429C356.837 411.833 327.652 390.373 302.760 374.923L417.781 374.923L409.197 453.034"/></svg>