<svg xmlns="http://www.w3.org/2000/svg" viewBox="0 0 1000 1000" fill="currentColor"><path d="M340.652 430C362.391 462.174 NaN 505.652 392.826 535.217L447.609 516.087C438.043 487.391 415.435 443.913 391.957 413.478M463.261 99.565L463.261 186.522L117.174 186.522L117.174 248.261L463.261 248.261L463.261 340.435L164.130 340.435L164.130 898.696L230.217 898.696L230.217 400.435L771.087 400.435L771.087 823.043C771.087 836.957 766.739 841.304 751.087 842.174C736.304 843.043 682.391 843.913 627.609 841.304C637.174 857.826 646.739 882.174 650.217 899.565C721.522 899.565 771.087 899.565 799.783 889.130C828.478 879.565 837.174 862.174 837.174 823.043L837.174 340.435L535.435 340.435L535.435 248.261L883.261 248.261L883.261 186.522L535.435 186.522L535.435 99.565M605.870 411.739C592.826 447.391 565.870 500.435 545.870 536.087L296.304 536.087L296.304 589.130L465.870 589.130L465.870 676.957L278.043 676.957L278.043 731.739L465.870 731.739L465.870 883.043L528.478 883.043L528.478 731.739L724.130 731.739L724.130 676.957L528.478 676.957L528.478 589.130L708.478 589.130L708.478 536.087L602.391 536.087C622.391 504.783 643.261 466.522 662.391 429.130"/></svg>