<svg xmlns="http://www.w3.org/2000/svg" viewBox="0 0 1000 1000" fill="currentColor"><path d="M475.720 331.935L726.043 331.935L726.043 399.032L475.720 399.032M420.667 287.204L420.667 444.624L783.677 444.624L783.677 287.204M380.237 531.505L519.591 531.505L519.591 607.204L380.237 607.204M330.344 486.774L330.344 651.935L570.344 651.935L570.344 486.774M677.871 531.505L825.828 531.505L825.828 607.204L677.871 607.204M627.978 486.774L627.978 651.935L878.301 651.935L878.301 486.774M112.710 284.624C138.516 338.817 160.882 409.355 166.903 454.086L218.516 430.860C212.495 387.849 189.269 319.032 161.742 265.699M338.946 697.527L338.946 866.989L800.882 866.989L800.882 897.957L861.957 897.957L861.957 697.527L800.882 697.527L800.882 813.656L630.559 813.656L630.559 666.559L568.624 666.559L568.624 813.656L399.161 813.656L399.161 697.527M511.849 119.462C526.473 140.968 541.957 167.634 553.140 190.860L232.280 190.860L232.280 466.989L231.419 533.226C180.667 559.892 134.215 583.978 99.806 600.323L122.172 657.097C155.720 639.032 190.989 618.387 226.258 596.882C215.935 688.065 190.129 783.548 123.892 857.527C136.796 865.269 160.022 887.634 169.484 899.677C276.151 781.828 292.495 598.602 292.495 466.989L292.495 246.774L899.806 246.774L899.806 190.860L622.817 190.860C610.774 163.333 588.409 128.065 568.624 100.538"/></svg>