<svg xmlns="http://www.w3.org/2000/svg" viewBox="0 0 1000 1000" fill="currentColor"><path d="M158.837 144.313L158.837 450.751C158.837 576.073 154.545 746.888 100.468 867.918C115.060 873.069 139.953 886.803 151.112 896.245C186.305 816.416 202.614 711.695 209.481 612.124L324.502 612.124L324.502 819.850C324.502 831.867 320.210 835.300 309.052 835.300C298.751 835.300 266.991 836.159 229.223 834.442C237.807 851.609 245.532 879.077 247.249 894.528C302.185 894.528 333.086 893.670 354.545 882.511C375.146 872.210 382.013 854.185 382.013 820.708L382.013 400.966C398.322 410.408 419.781 425.858 430.082 434.442C439.524 423.283 448.966 410.408 458.408 397.532L458.408 781.223C458.408 864.485 486.734 884.227 582.013 884.227C602.614 884.227 761.412 884.227 784.588 884.227C870.425 884.227 890.167 849.893 900.468 729.721C882.442 726.288 857.549 715.987 842.957 705.687C836.948 808.691 829.223 828.433 781.155 828.433C746.820 828.433 611.197 828.433 586.305 828.433C529.652 828.433 519.352 819.850 519.352 781.223L519.352 603.541L713.343 603.541L713.343 361.481L481.584 361.481C497.034 336.588 511.627 309.120 525.361 280.794L804.330 280.794C797.464 519.421 791.455 604.399 776.004 625C769.137 634.442 761.412 636.159 749.395 636.159C734.803 636.159 701.326 636.159 664.416 632.725C673.858 648.176 680.725 673.927 682.442 691.953C719.352 694.528 755.403 694.528 776.863 691.953C800.897 689.378 816.348 683.369 830.082 662.768C852.399 633.584 859.266 536.588 866.133 252.468C866.133 243.026 866.133 222.425 866.133 222.425L551.112 222.425C564.845 188.948 576.863 153.755 587.163 118.562L521.927 103.112C492.742 209.549 442.957 315.987 382.013 386.373L382.013 144.313M519.352 418.133L653.258 418.133L653.258 546.888L519.352 546.888M214.631 203.541L324.502 203.541L324.502 346.030L214.631 346.030M214.631 405.258L324.502 405.258L324.502 552.039L212.914 552.039C213.773 515.987 214.631 481.652 214.631 450.751"/></svg>