<svg xmlns="http://www.w3.org/2000/svg" viewBox="0 0 1000 1000" fill="currentColor"><path d="M277.655 599.492L222.124 622.052C251.625 672.377 288.067 712.291 330.584 744.395C277.655 774.764 203.035 799.926 99.781 819.015C113.664 833.766 131.017 861.531 138.826 876.282C251.625 851.987 332.319 819.883 390.453 781.705C510.193 845.046 669.846 865.002 872.015 872.811C875.486 851.119 887.633 823.354 899.781 808.603C705.421 803.397 555.312 790.382 443.382 740.056C488.501 695.805 511.928 645.479 522.341 591.683L816.484 591.683L816.484 255.892L531.885 255.892L531.885 182.139L870.280 182.139L870.280 123.137L115.399 123.137L115.399 182.139L464.206 182.139L464.206 255.892L194.358 255.892L194.358 591.683L453.794 591.683C443.382 633.332 423.425 672.377 383.512 707.085C341.863 679.319 306.289 644.612 277.655 599.492M256.831 449.384L464.206 449.384L464.206 484.091C464.206 502.312 464.206 520.534 462.471 537.887L256.831 537.887M530.150 537.887C531.017 520.534 531.885 503.180 531.885 484.959L531.885 449.384L751.408 449.384L751.408 537.887M256.831 310.555L464.206 310.555L464.206 397.323L256.831 397.323M531.885 310.555L751.408 310.555L751.408 397.323L531.885 397.323"/></svg>