<svg xmlns="http://www.w3.org/2000/svg" viewBox="0 0 1000 1000" fill="currentColor"><path d="M601.385 702.831C649.438 742.875 711.730 798.048 742.875 830.973L791.819 791.819C759.783 759.783 695.712 706.390 648.548 669.016M437.647 116.402C453.665 147.547 472.353 186.702 485.701 218.737L128.860 218.737L128.860 406.502L195.601 406.502L195.601 281.919L801.607 281.919L801.607 392.264L198.270 392.264L198.270 455.445L461.674 455.445L461.674 595.156L221.407 595.156L221.407 657.447L461.674 657.447L461.674 838.092L113.732 838.092L113.732 900.384L887.036 900.384L887.036 838.092L533.754 838.092L533.754 657.447L782.030 657.447L782.030 595.156L533.754 595.156L533.754 455.445L801.607 455.445L801.607 406.502L870.128 406.502L870.128 218.737L562.230 218.737C547.992 184.922 523.076 136.869 502.608 100.384"/></svg>