<svg xmlns="http://www.w3.org/2000/svg" viewBox="0 0 1000 1000" fill="currentColor"><path d="M295.481 216.610C316.437 240.301 338.305 274.925 345.595 299.526L391.153 279.481C383.863 255.790 361.084 222.077 339.216 198.387M477.713 180.164C468.601 224.811 456.756 265.813 442.178 303.171L265.412 303.171L265.412 347.818L422.132 347.818C411.198 368.774 399.353 388.820 386.597 407.954L223.499 407.954L223.499 453.513L350.150 453.513C309.148 499.982 258.123 536.428 197.075 564.674C208.920 575.608 228.055 600.210 235.344 612.055C276.346 590.187 313.704 565.585 346.506 536.428L346.506 696.793C346.506 756.018 370.196 769.686 452.200 769.686C469.513 769.686 603.453 769.686 622.588 769.686C684.547 769.686 701.859 750.551 707.326 669.458C692.747 666.724 671.790 659.435 659.034 651.235C655.390 714.105 649.011 724.128 616.210 724.128C587.964 724.128 476.802 724.128 454.934 724.128C411.198 724.128 402.998 719.572 402.998 695.882L402.998 561.941L569.740 561.941C567.007 599.298 564.273 615.699 559.718 621.166C555.162 626.633 549.695 627.544 539.672 626.633C530.560 626.633 504.137 626.633 474.979 623.900C481.358 635.745 485.913 653.057 487.736 664.902C515.982 667.636 546.961 666.724 560.629 665.813C579.763 664.902 592.519 661.257 602.542 651.235C613.476 637.567 617.121 607.499 620.765 537.339C620.765 530.050 620.765 517.294 620.765 517.294L367.462 517.294C387.508 497.248 406.642 476.292 423.043 453.513L585.230 453.513C622.588 518.205 690.925 577.431 761.084 608.410C770.196 593.831 787.508 572.875 801.175 562.852C740.128 541.895 683.636 500.893 645.367 453.513L780.219 453.513L780.219 407.954L454.023 407.954C464.957 388.820 474.979 368.774 485.002 347.818L745.595 347.818L745.595 303.171L649.923 303.171C666.323 276.747 683.636 243.034 700.036 212.055L646.278 196.565C635.344 227.544 613.476 272.191 596.164 303.171L502.314 303.171C515.982 267.636 526.916 228.456 535.116 187.453M118.715 99.982L118.715 899.982L183.408 899.982L183.408 863.535L815.754 863.535L815.754 899.982L882.269 899.982L882.269 99.982M183.408 806.132L183.408 159.207L815.754 159.207L815.754 806.132"/></svg>