<svg xmlns="http://www.w3.org/2000/svg" viewBox="0 0 1000 1000" fill="currentColor"><path d="M302.786 199.571C328.679 241.536 351.893 297.786 359.929 333.500L406.357 314.750C399.214 279.036 374.214 225.464 347.429 184.393M638.500 183.500C623.321 225.464 592.964 287.071 569.750 324.571L612.607 342.429C636.714 306.714 666.179 251.357 691.179 203.143M354.571 740.643C364.393 787.964 370.643 849.571 370.643 887.071L435.821 879.036C435.821 842.429 427.786 781.714 417.071 735.286M538.500 742.429C558.143 788.857 578.679 849.571 585.821 887.071L652.786 871C643.857 834.393 622.429 774.571 601 729.929M719.750 738.857C762.607 786.179 812.607 852.250 834.929 893.321L900.107 868.321C876 826.357 824.214 762.071 781.357 716.536M201 716.536C179.571 772.786 141.179 832.607 101.893 867.429L163.500 896C206.357 854.929 242.964 790.643 265.286 732.607M253.679 161.179L462.607 161.179L462.607 355.821L253.679 355.821M529.571 161.179L734.929 161.179L734.929 355.821L529.571 355.821M100.107 621L100.107 680.821L895.643 680.821L895.643 621L529.571 621L529.571 540.643L819.750 540.643L819.750 485.286L529.571 485.286L529.571 412.071L801.893 412.071L801.893 104.929L189.393 104.929L189.393 412.071L462.607 412.071L462.607 485.286L174.214 485.286L174.214 540.643L462.607 540.643L462.607 621"/></svg>