<svg xmlns="http://www.w3.org/2000/svg" viewBox="0 0 1000 1000" fill="currentColor"><path d="M728.680 200.294L814.394 200.294L814.394 319.775L728.680 319.775M595.346 200.294L681.061 200.294L681.061 319.775L595.346 319.775M465.476 200.294L547.727 200.294L547.727 319.775L465.476 319.775M410.065 144.017L410.065 376.052L872.403 376.052L872.403 144.017M584.091 395.965C596.212 415.013 607.468 440.121 616.126 461.766L380.628 461.766L380.628 520.641L522.619 520.641L522.619 549.212C522.619 634.061 501.840 761.333 345.996 853.974C360.714 864.364 382.359 885.143 392.749 898.996C505.303 828.866 553.788 738.823 573.701 658.303L767.641 658.303C759.848 767.394 751.190 812.416 737.338 825.403C730.411 832.329 722.619 834.061 708.766 834.061C694.048 834.061 655.952 833.195 616.126 828.866C626.515 845.316 633.442 871.290 635.173 890.338C675.866 892.069 715.693 892.935 737.338 891.203C760.714 888.606 776.299 883.411 791.017 867.827C813.528 843.584 823.918 782.113 834.307 628C835.173 618.476 836.039 600.294 836.039 600.294L583.225 600.294C584.957 582.978 585.823 566.528 585.823 551.810L585.823 520.641L900.108 520.641L900.108 461.766L683.658 461.766C675.866 437.524 659.416 406.355 642.965 381.247M220.455 100.727L220.455 267.827L122.619 267.827L122.619 328.433L220.455 328.433L220.455 329.299C197.078 447.048 149.459 585.576 100.108 657.437C111.364 673.022 126.948 701.593 134.740 720.641C165.909 669.558 196.212 589.905 220.455 505.056L220.455 896.398L281.926 896.398L281.926 459.169C300.974 501.593 320.022 549.212 328.680 576.052L370.238 530.165C357.251 503.325 300.108 395.100 281.926 363.931L281.926 328.433L366.775 328.433L366.775 267.827L281.926 267.827L281.926 100.727"/></svg>