<svg xmlns="http://www.w3.org/2000/svg" viewBox="0 0 1000 1000" fill="currentColor"><path d="M267.202 725.728L677.278 725.728L677.278 808.970L267.202 808.970M267.202 675.783L267.202 596.922L677.278 596.922L677.278 675.783M201.484 543.472L201.484 900.099L267.202 900.099L267.202 862.421L677.278 862.421L677.278 896.594L746.501 896.594L746.501 543.472M158.549 532.081C178.702 521.566 210.246 514.556 465.230 471.621C464.354 458.478 463.478 434.819 465.230 418.171L247.924 451.468L247.924 341.939L510.794 341.939C569.502 461.106 671.145 538.215 771.911 539.091C829.743 538.215 854.277 514.556 864.792 421.676C847.267 417.295 825.361 406.780 811.342 395.389C807.837 455.849 799.951 475.126 774.540 476.002C708.823 476.878 635.219 425.181 585.274 341.939L852.525 341.939L852.525 285.860L557.234 285.860C544.091 254.315 535.329 219.266 530.071 182.464C620.323 174.578 705.318 164.064 772.788 151.796L742.119 100.099C608.056 124.633 374.102 142.158 181.331 149.168L181.331 423.428C181.331 458.478 151.539 473.373 134.890 479.507C143.653 491.774 155.044 517.185 158.549 532.081M488.012 285.860L247.924 285.860L247.924 199.989C318.023 197.360 392.503 192.979 465.230 187.722C469.611 221.895 477.497 255.192 488.012 285.860"/></svg>