<svg xmlns="http://www.w3.org/2000/svg" viewBox="0 0 1000 1000" fill="currentColor"><path d="M221.739 744.816C247.199 734.280 287.585 729.013 635.251 691.261C647.542 714.088 658.956 735.158 666.857 753.595L723.923 718.477C692.317 653.509 623.838 542.888 570.283 459.484L517.606 488.456C544.823 532.353 575.551 584.152 603.645 633.317L304.266 664.045C366.600 583.274 428.056 478.798 478.977 375.201L405.229 348.863C358.698 463.873 281.439 585.908 256.857 617.514C234.030 649.998 216.471 672.824 198.034 676.336C206.814 695.651 218.227 729.891 221.739 744.816M332.360 100.404C280.561 241.753 199.790 387.492 112.874 479.676C129.555 489.334 159.405 509.526 173.452 520.940C224.373 461.240 275.294 382.224 320.069 295.308L816.986 295.308C804.694 641.218 789.769 787.835 754.652 819.441C743.238 829.976 730.947 832.610 710.754 832.610C683.538 832.610 612.424 832.610 536.043 825.587C550.968 845.779 560.626 876.508 562.382 895.822C625.594 899.334 694.073 901.968 731.825 899.334C769.577 895.822 794.159 887.921 816.986 858.071C859.127 810.662 872.296 669.312 887.221 267.214C888.099 257.556 888.099 231.218 888.099 231.218L351.675 231.218C369.234 194.344 385.037 157.471 399.084 119.719"/></svg>