<svg xmlns="http://www.w3.org/2000/svg" viewBox="0 0 1000 1000" fill="currentColor"><path d="M603.662 139.957C653.879 163.333 721.411 196.234 762.970 219.610L534.398 219.610L534.398 102.727L466.866 102.727L466.866 219.610L119.680 219.610L119.680 279.351L466.866 279.351L466.866 359.870L183.749 359.870L183.749 900.130L249.550 900.130L249.550 719.177L466.866 719.177L466.866 891.472L534.398 891.472L534.398 719.177L755.177 719.177L755.177 816.147C755.177 829.134 751.714 833.463 736.996 833.463C721.411 834.329 671.195 835.195 616.649 833.463C626.173 849.913 636.563 875.887 639.160 894.069C708.424 894.069 756.043 893.203 783.749 882.814C812.320 872.424 820.113 853.377 820.113 816.147L820.113 359.870L534.398 359.870L534.398 279.351L880.719 279.351L880.719 219.610L784.615 219.610L812.320 183.247C771.628 159.870 694.571 124.372 637.429 100.130M755.177 567.662L755.177 661.169L534.398 661.169L534.398 567.662M755.177 509.654L534.398 509.654L534.398 417.879L755.177 417.879M249.550 567.662L466.866 567.662L466.866 661.169L249.550 661.169M249.550 509.654L249.550 417.879L466.866 417.879L466.866 509.654"/></svg>