<svg xmlns="http://www.w3.org/2000/svg" viewBox="0 0 1000 1000" fill="currentColor"><path d="M404.709 352.709C428.615 344.171 465.328 340.756 778.668 319.411C793.182 339.902 805.136 359.539 813.673 375.761L868.316 341.609C839.287 291.236 776.107 214.395 724.026 158.899L673.652 187.927C694.997 211.834 718.049 239.155 739.394 267.330L492.649 280.990C539.607 237.447 588.273 183.658 630.109 128.162L565.221 106.818C520.824 175.121 455.082 242.570 434.591 260.499C416.662 277.575 399.586 290.382 385.072 292.090C392.756 309.165 401.293 339.902 404.709 352.709M212.606 107.671L212.606 279.283L111.859 279.283L111.859 339.048L212.606 339.048L212.606 527.735C169.917 540.542 130.642 552.495 99.906 560.179L116.128 623.360L212.606 591.769L212.606 813.755C212.606 825.708 208.337 829.123 198.092 829.123C187.846 829.977 154.549 829.977 117.836 828.269C125.520 846.199 134.058 873.520 135.765 888.888C190.408 889.742 223.705 887.180 243.343 876.935C264.687 866.689 272.371 848.760 272.371 813.755L272.371 572.132L349.212 546.519L347.505 548.226C362.019 555.910 388.487 572.986 400.440 583.232C421.784 557.618 443.129 525.174 462.766 490.169L580.589 490.169L580.589 556.764C580.589 571.279 579.735 587.501 578.028 602.869L338.113 602.869L338.113 659.219L564.367 659.219C538.753 726.668 474.719 794.117 318.476 841.930C328.721 853.883 344.943 878.642 350.920 894.011C503.748 846.199 577.174 779.603 612.179 708.739C663.407 800.948 744.517 864.128 860.632 893.157C869.170 876.081 886.245 851.321 899.906 838.514C778.668 814.608 693.289 750.574 649.746 659.219L891.368 659.219L891.368 602.869L641.208 602.869C642.062 587.501 642.916 572.132 642.916 557.618L642.916 490.169L846.117 490.169L846.117 433.819L491.795 433.819C502.041 410.766 511.432 386.860 519.970 362.954L459.351 346.732C436.299 417.597 398.732 489.315 355.189 539.688L347.505 485.046L272.371 508.952L272.371 339.048L356.043 339.048L356.043 279.283L272.371 279.283L272.371 107.671"/></svg>