<svg xmlns="http://www.w3.org/2000/svg" viewBox="0 0 1000 1000" fill="currentColor"><path d="M540.763 423.617L540.763 900.490L598.092 900.490L598.092 862.270L822.197 862.270L822.197 900.490L882.131 900.490L882.131 423.617M598.092 808.416L598.092 732.846L822.197 732.846L822.197 808.416M598.092 679.860L598.092 606.027L822.197 606.027L822.197 679.860M598.092 553.041L598.092 478.340L822.197 478.340L822.197 553.041M444.346 135.235L444.346 394.084C444.346 533.063 438.266 728.503 360.090 867.482C374.857 872.694 400.915 889.198 412.207 897.884C492.989 753.693 504.281 539.143 504.281 394.084L504.281 359.339L885.606 359.339L885.606 135.235M504.281 190.826L632.837 190.826L632.837 303.747L504.281 303.747M691.035 190.826L823.065 190.826L823.065 303.747L691.035 303.747M332.294 341.098C322.739 459.230 304.498 557.384 274.965 636.429C251.512 615.582 227.191 594.735 202.870 575.625C219.374 507.873 236.746 425.354 252.381 341.098M137.723 597.341C175.074 625.137 215.030 659.013 250.644 694.626C215.030 764.985 169.862 816.233 114.270 847.504C128.168 859.664 144.672 883.117 153.358 898.752C211.556 861.402 258.461 810.153 295.812 741.532C316.659 764.985 334.900 788.438 347.929 808.416L389.623 760.642C373.988 737.189 350.535 709.393 322.739 681.597C362.696 582.574 386.149 452.281 393.966 283.769L357.484 278.557L346.192 280.294L262.805 280.294C273.228 218.622 281.046 158.687 287.126 103.964L228.928 100.490C223.717 155.213 215.899 217.754 205.476 280.294L128.168 280.294L128.168 341.098L195.052 341.098C177.680 437.515 156.833 530.457 137.723 597.341"/></svg>