<svg xmlns="http://www.w3.org/2000/svg" viewBox="0 0 1000 1000" fill="currentColor"><path d="M482.402 622.291C506.333 663.316 531.120 718.872 540.521 753.060L586.675 731.692C577.274 699.214 550.778 645.368 525.991 605.197M302.915 604.342C287.530 659.897 263.598 715.453 231.120 754.769C243.940 761.607 265.308 775.282 275.564 783.829C306.333 741.094 336.248 677.846 354.197 615.453M697.786 140.239C741.376 165.026 793.513 201.778 819.154 227.419L860.179 188.957C833.684 163.316 780.692 128.274 737.957 106.051M389.239 318.017L389.239 515.453L256.761 515.453L256.761 568.444L390.094 568.444L390.094 824C390.094 832.547 387.530 835.111 378.128 835.111C369.581 835.966 341.376 835.966 308.043 835.111C315.735 849.641 323.427 871.009 325.991 885.538C371.291 885.538 402.060 884.684 421.718 876.137C441.376 867.590 445.650 853.060 445.650 824.855L445.650 568.444L598.641 568.444L598.641 515.453L445.650 515.453L445.650 436.821L563.598 436.821L563.598 388.957L445.650 388.957L445.650 318.017M599.496 106.906L602.060 235.966L174.709 235.966L174.709 479.556C174.709 592.376 168.726 744.513 100.350 853.060C114.026 859.897 139.667 880.410 149.923 891.521C223.427 776.137 235.393 601.778 235.393 479.556L235.393 296.650L604.624 296.650C612.316 453.060 627.701 592.376 655.906 696.650C612.316 757.333 559.325 807.761 495.222 847.077C509.752 858.188 532.829 881.265 541.376 893.231C593.513 858.188 638.812 815.453 678.128 766.735C709.752 847.077 752.487 894.085 808.897 894.085C868.726 894.085 890.094 852.205 900.350 712.889C884.111 706.051 862.744 694.085 849.923 680.410C845.650 789.812 836.248 834.256 814.026 834.256C777.274 834.256 745.650 788.103 720.863 707.761C778.128 618.017 819.154 511.179 848.214 385.538L788.385 375.282C767.872 469.299 739.667 553.060 700.350 625.709C682.402 536.821 669.581 424.855 664.453 296.650L884.111 296.650L884.111 235.966L661.889 235.966C661.034 194.085 661.034 151.350 661.034 106.906"/></svg>