<svg xmlns="http://www.w3.org/2000/svg" viewBox="0 0 1000 1000" fill="currentColor"><path d="M326.898 554.548L309.895 554.548C341.351 527.343 370.256 497.588 394.911 466.982L588.747 466.982C610.851 498.438 637.206 528.193 667.812 554.548M693.317 137.120C674.613 172.827 642.307 225.537 614.252 261.243L510.532 261.243C527.536 214.485 539.438 166.876 547.089 120.117L480.777 113.316C473.976 161.775 461.223 211.934 442.520 261.243L335.400 261.243L374.507 238.289C360.054 209.384 326.898 166.026 298.843 134.570L249.533 161.775C275.038 191.530 303.944 232.338 318.396 261.243L176.420 261.243L176.420 317.354L417.015 317.354C401.712 348.810 382.158 379.416 360.054 409.171L123.710 409.171L123.710 466.982L310.745 466.982C255.485 523.943 185.772 574.102 99.905 611.509C114.358 623.411 133.062 647.216 139.863 663.369C195.973 637.014 245.283 606.408 288.641 572.402L288.641 792.593C288.641 869.107 320.097 886.961 428.917 886.961C452.722 886.961 640.607 886.961 666.112 886.961C760.479 886.961 782.583 858.905 791.935 747.535C774.932 743.284 748.577 733.932 733.274 723.730C727.323 814.697 718.821 829.150 663.561 829.150C621.053 829.150 461.223 829.150 429.767 829.150C362.605 829.150 350.702 823.199 350.702 791.743L350.702 610.659L607.451 610.659C602.350 665.069 596.399 689.724 587.897 698.225C581.096 703.326 574.294 704.176 558.991 704.176C545.389 704.176 502.881 704.176 459.523 700.776C468.875 714.378 473.976 735.632 475.676 750.935C521.584 753.486 565.793 753.486 587.897 752.635C610.851 750.935 627.004 746.684 640.607 733.082C657.610 716.079 665.261 674.421 672.063 579.203L673.763 559.649C727.323 605.558 791.085 642.115 857.397 665.069C866.749 648.066 885.453 624.261 899.905 611.509C806.388 586.004 719.672 532.444 661.011 466.982L871 466.982L871 409.171L437.419 409.171C456.122 379.416 473.125 348.810 487.578 317.354L812.339 317.354L812.339 261.243L678.864 261.243C703.519 229.787 729.874 192.380 751.978 156.674"/></svg>