<svg xmlns="http://www.w3.org/2000/svg" viewBox="0 0 1000 1000" fill="currentColor"><path d="M368.146 733.207C378.502 784.987 385.406 852.301 386.269 892.862L449.268 883.369C448.405 843.671 438.912 778.083 427.693 727.166M546.786 731.481C569.224 782.398 590.799 849.712 599.429 891.136L663.291 877.328C654.661 836.767 630.497 770.316 607.196 720.262M722.838 725.440C765.988 778.946 815.179 854.027 835.891 899.766L899.753 877.328C876.452 830.726 825.535 758.234 782.385 705.591M219.710 709.043C198.135 768.590 159.300 835.041 121.328 873.876L180.875 898.903C221.436 854.890 258.545 784.987 281.846 724.577M495.006 122.204C513.992 153.272 532.978 192.970 544.197 224.038L328.448 224.038C349.160 190.381 367.283 154.998 383.680 119.615L320.681 100.629C271.490 214.545 188.642 324.146 99.753 392.323C115.287 403.542 141.177 425.980 152.396 438.061C180.012 413.898 208.491 385.419 235.244 353.488L235.244 703.002L299.106 703.002L299.106 671.934L857.466 671.934L857.466 616.702L590.799 616.702L590.799 534.717L817.768 534.717L817.768 482.074L590.799 482.074L590.799 408.720L815.179 408.720L815.179 356.077L590.799 356.077L590.799 280.133L867.822 280.133L867.822 224.038L596.840 224.038L610.648 217.997C600.292 186.929 576.128 137.738 552.827 99.766M526.937 408.720L526.937 482.074L299.106 482.074L299.106 408.720M526.937 356.077L299.106 356.077L299.106 280.133L526.937 280.133M526.937 534.717L526.937 616.702L299.106 616.702L299.106 534.717"/></svg>