<svg xmlns="http://www.w3.org/2000/svg" viewBox="0 0 1000 1000" fill="currentColor"><path d="M541.146 699.858C553.036 758.456 559.830 834.890 559.830 880.749L615.881 873.106C615.032 829.794 605.690 754.210 592.102 695.611M654.098 696.461C674.480 754.210 693.163 830.643 697.410 876.503L751.762 865.463C746.667 819.603 727.134 745.718 705.902 688.817M771.295 692.214C803.567 754.210 834.989 836.588 844.331 887.544L900.382 868.011C891.040 817.055 857.919 736.376 823.949 675.229M446.879 682.873C431.592 749.964 401.019 826.397 364.501 870.558L419.703 890.941C457.919 841.684 486.794 761.854 501.231 693.913M124.161 172.469C146.242 231.068 165.775 309.200 170.021 359.306L217.580 347.416C211.635 296.461 192.102 220.877 168.323 161.429M368.747 157.183C356.858 214.083 332.229 298.159 312.696 348.265L352.611 361.004C375.541 313.446 401.868 234.465 422.251 170.771M755.159 110.473C743.270 151.238 721.189 208.138 701.656 248.053L561.529 248.053L604.841 233.616C596.348 201.344 572.569 150.389 549.639 113.021L491.040 129.157C512.272 165.675 532.654 214.932 541.996 248.053L433.291 248.053L433.291 307.501L616.730 307.501L616.730 409.412L449.427 409.412L449.427 467.161L616.730 467.161L616.730 579.263L413.758 579.263L413.758 639.561L891.040 639.561L891.040 579.263L682.123 579.263L682.123 467.161L854.522 467.161L854.522 409.412L682.123 409.412L682.123 307.501L879.151 307.501L879.151 248.053L764.501 248.053C783.185 213.234 803.567 167.374 821.401 126.609M119.066 391.577L119.066 451.875L228.620 451.875C199.745 546.142 147.941 656.546 100.382 716.843C110.573 733.828 125.860 760.155 132.654 778.839C171.720 725.335 210.786 638.711 240.510 552.936L240.510 890.091L299.108 890.091L299.108 535.951C325.435 571.620 356.008 615.781 368.747 638.711L406.964 592.002C392.527 571.620 326.285 497.735 299.108 471.408L299.108 451.875L406.964 451.875L406.964 391.577L299.108 391.577L299.108 109.624L240.510 109.624L240.510 391.577"/></svg>