<svg xmlns="http://www.w3.org/2000/svg" viewBox="0 0 1000 1000" fill="currentColor"><path d="M760.151 350.827L760.151 457.379L477.445 457.379L477.445 350.827M760.151 296.692L477.445 296.692L477.445 192.718L760.151 192.718M415.576 884.447C432.762 873.276 459.400 863.824 651.881 811.407C649.303 796.799 647.584 771.880 648.444 753.835L477.445 795.940L477.445 514.092L559.077 514.092C608.916 685.091 704.298 813.126 856.392 872.417C865.844 854.372 884.749 828.593 900.216 815.704C824.598 790.784 762.729 747.820 714.609 691.106C762.729 662.750 819.443 624.941 864.126 587.991L821.161 543.308C785.930 575.961 728.358 618.067 681.956 647.282C655.318 607.755 634.695 563.072 618.368 514.092L822.880 514.092L822.880 136.004L416.435 136.004L416.435 774.458C416.435 809.689 400.108 825.156 387.219 832.889C397.531 844.919 410.420 870.698 415.576 884.447M333.943 115.381C316.757 148.894 292.697 184.125 265.200 218.496C241.140 184.125 210.205 150.612 171.537 117.959L124.276 154.049C167.241 190.999 199.034 227.948 223.095 266.617C185.286 307.003 144.040 343.093 106.231 368.013C119.980 381.762 138.025 407.540 145.758 424.726C180.130 398.088 217.079 362.857 252.310 325.048C265.200 358.561 273.793 392.073 278.948 427.304C237.702 505.499 165.522 585.414 100.216 625.800C113.965 639.549 130.291 664.468 138.884 681.654C190.441 642.986 244.577 584.554 286.682 521.826L287.541 559.635C287.541 669.624 279.808 766.724 257.466 795.940C251.451 804.533 242.858 808.829 229.110 809.689C209.346 812.266 175.834 813.126 132.869 809.689C144.040 828.593 151.773 853.512 151.773 874.995C190.441 876.713 227.391 876.713 257.466 870.698C278.948 867.261 295.275 857.809 307.305 841.482C342.536 793.362 351.988 683.373 351.988 561.353C351.988 460.816 344.255 363.716 297.853 272.632C331.365 230.526 361.440 186.702 383.782 146.316"/></svg>