<svg xmlns="http://www.w3.org/2000/svg" viewBox="0 0 1000 1000" fill="currentColor"><path d="M811.773 111.862L811.773 808.496C811.773 825 804.824 830.212 788.320 830.212C771.817 831.080 717.093 831.949 655.421 829.343C665.845 848.453 676.268 877.986 679.743 895.358C759.656 896.227 808.299 894.490 836.963 883.198C863.890 872.774 876.051 852.796 876.051 808.496L876.051 111.862M631.100 199.593L631.100 681.678L693.641 681.678L693.641 199.593M517.311 142.264C494.726 201.330 459.982 269.083 428.711 315.988C443.478 322.068 470.405 335.098 483.434 344.653C512.967 296.010 550.318 222.177 577.245 158.768M146.409 167.454C178.548 220.440 216.768 291.667 233.271 336.835L290.600 311.645C272.359 267.345 234.140 198.724 201.132 146.607M122.957 565.282L122.957 626.086L309.710 626.086C288.863 712.079 242.826 792.861 146.409 853.664C162.045 864.088 185.497 886.672 195.921 899.701C307.973 828.474 357.484 731.189 378.331 626.086L577.245 626.086L577.245 565.282L387.017 565.282C391.360 527.063 392.229 487.975 392.229 449.756L392.229 418.485L554.661 418.485L554.661 355.945L392.229 355.945L392.229 99.701L327.083 99.701L327.083 355.945L155.096 355.945L155.096 418.485L327.083 418.485L327.083 449.756C327.083 487.975 325.345 527.063 321.002 565.282"/></svg>