<svg xmlns="http://www.w3.org/2000/svg" viewBox="0 0 1000 1000" fill="currentColor"><path d="M333.952 341.541C325.377 448.722 306.513 539.612 278.218 614.210C251.637 592.774 223.341 572.195 195.902 553.331C213.051 492.452 230.200 417.854 245.635 341.541M125.592 575.625C167.607 603.921 212.194 638.219 253.352 673.374C213.909 751.402 162.462 807.994 99.868 842.292C114.445 854.296 131.594 878.304 141.026 893.738C207.907 852.581 261.069 795.989 301.369 717.104C332.237 746.257 358.818 773.696 375.967 798.562L417.124 747.115C397.403 719.676 365.677 687.951 328.807 656.225C365.677 561.048 388.829 439.290 398.260 285.807L359.675 279.805L348.528 281.520L256.781 281.520C267.928 222.356 277.360 163.192 283.362 110.030L222.483 105.743C217.339 159.762 207.907 220.641 196.760 281.520L116.160 281.520L116.160 341.541L184.756 341.541C166.749 429.859 145.313 514.746 125.592 575.625M433.416 525.035C449.707 515.603 476.288 508.744 649.493 472.731C647.778 460.727 645.206 436.718 646.063 419.569L511.444 443.578L511.444 334.682L664.927 334.682C698.368 450.437 753.244 532.752 834.702 533.610C863.855 534.467 886.149 507.029 899.868 425.571C887.864 420.427 868.143 407.565 856.996 395.561C851.851 446.150 844.134 471.016 831.272 471.016C789.257 469.301 752.387 416.139 725.806 334.682L883.577 334.682L883.577 281.520L711.229 281.520C704.370 249.794 698.368 215.496 694.080 178.626C751.529 170.909 804.691 161.477 847.564 150.330L804.691 104.885C722.376 126.322 574.038 143.471 450.565 152.045L450.565 427.286C450.565 459.012 427.414 469.301 412.837 473.588C421.412 486.450 430.844 510.459 433.416 525.035M652.065 281.520L511.444 281.520L511.444 196.632C551.744 194.060 594.616 190.630 635.774 185.486C640.061 218.926 645.206 250.652 652.065 281.520M519.161 729.966L769.536 729.966L769.536 807.994L519.161 807.994M519.161 681.091L519.161 605.636L769.536 605.636L769.536 681.091M459.997 551.616L459.997 894.596L519.161 894.596L519.161 861.155L769.536 861.155L769.536 892.881L832.130 892.881L832.130 551.616"/></svg>