<svg xmlns="http://www.w3.org/2000/svg" viewBox="0 0 1000 1000" fill="currentColor"><path d="M178.527 335.237L178.527 393.731L460.677 393.731L460.677 335.237M509.710 597.602C546.699 619.968 587.129 647.495 625.839 675.022C579.387 708.570 526.054 734.376 469.280 752.441C481.323 762.763 499.387 786.849 506.269 799.753C565.624 779.108 622.398 749 672.290 710.290C708.419 737.817 739.387 765.344 760.892 787.710L797.022 740.398C776.376 720.613 747.989 696.527 715.301 671.581C761.753 625.129 799.602 566.634 823.688 495.237L787.559 476.312L777.237 478.892L655.946 478.892L655.946 410.075L827.989 410.075L827.989 358.462L655.946 358.462L655.946 289.645L595.731 289.645L595.731 478.892L513.151 478.892L513.151 533.086L747.129 533.086C727.344 573.516 700.677 608.785 669.710 638.892C627.559 608.785 582.828 580.398 543.258 557.172M444.333 115.882C455.516 136.527 468.419 161.473 477.882 183.839L132.935 183.839L132.935 331.796L196.591 331.796L196.591 242.333L799.602 242.333L799.602 325.774L864.978 325.774L864.978 183.839L556.161 183.839C545.839 158.892 527.774 126.204 512.290 101.258M110.570 485.774L110.570 543.409L213.796 543.409C208.634 691.366 192.290 788.570 100.247 847.065C114.871 858.247 134.656 883.194 142.398 898.677C245.624 828.140 266.269 712.871 272.290 543.409L345.409 543.409L345.409 779.968C345.409 859.108 378.957 878.032 497.667 878.032C523.473 878.032 738.527 878.032 766.054 878.032C865.839 878.032 889.065 850.505 900.247 740.398C882.183 736.957 855.516 727.495 840.892 717.172C834.871 805.774 825.409 821.258 763.473 821.258C716.161 821.258 532.935 821.258 497.667 821.258C421.108 821.258 407.344 813.516 407.344 779.108L407.344 543.409L486.484 543.409L486.484 485.774"/></svg>