<svg xmlns="http://www.w3.org/2000/svg" viewBox="0 0 1000 1000" fill="currentColor"><path d="M121.394 174.667C166.033 216.681 220.300 273.573 244.807 310.335L297.324 270.947C271.066 235.061 215.923 179.044 170.409 141.407M371.722 155.411L371.722 291.079L558.155 291.079L558.155 337.468L304.326 337.468L304.326 381.232L891.635 381.232L891.635 337.468L622.050 337.468L622.050 291.079L818.987 291.079L818.987 155.411L622.050 155.411L622.050 103.770L558.155 103.770L558.155 155.411M432.116 197.425L558.155 197.425L558.155 249.066L432.116 249.066M622.050 197.425L755.967 197.425L755.967 249.066L622.050 249.066M389.228 424.120L389.228 758.475L827.740 758.475L827.740 612.304L452.247 612.304L452.247 564.164L797.105 564.164L797.105 424.120M452.247 468.759L734.961 468.759L734.961 521.276L452.247 521.276M452.247 656.943L763.845 656.943L763.845 712.961L452.247 712.961M285.945 424.996L104.764 424.996L104.764 487.140L223.801 487.140L223.801 742.720C187.039 754.974 144.151 789.985 99.512 836.374L142.400 896.768C182.663 843.376 222.926 794.361 252.685 794.361C271.941 794.361 299.950 821.495 338.462 842.501C399.731 877.512 475.004 886.265 580.037 886.265C664.939 886.265 817.236 881.013 880.256 877.512C882.007 858.256 891.635 827.621 899.512 810.116C813.735 819.744 683.319 825.871 581.788 825.871C486.383 825.871 410.234 819.744 353.341 787.359C322.707 771.604 303.451 755.849 285.945 746.221"/></svg>