<svg xmlns="http://www.w3.org/2000/svg" viewBox="0 0 1000 1000" fill="currentColor"><path d="M465.181 100.048C464.309 168.968 465.181 257.082 452.095 349.557L117.089 349.557L117.089 416.733L440.754 416.733C405.857 582.491 318.616 751.738 100.514 845.959C118.834 859.917 139.772 883.472 150.241 900.048C363.109 802.338 457.329 634.835 500.077 466.460C568.125 665.370 680.666 819.786 849.914 900.048C861.255 880.855 882.193 853.810 898.769 838.979C729.521 768.314 615.236 609.535 554.167 416.733L884.810 416.733L884.810 349.557L521.888 349.557C534.101 257.954 534.974 170.713 535.846 100.048"/></svg>