<svg xmlns="http://www.w3.org/2000/svg" viewBox="0 0 1000 1000" fill="currentColor"><path d="M142.382 158.965C190.260 185.081 251.196 225.995 280.793 254.721L320.837 203.361C290.369 176.375 228.563 138.073 180.684 114.569M101.468 390.521C151.958 417.507 215.505 459.292 245.973 488.018L285.146 436.658C252.937 407.931 188.519 368.758 138.900 344.384M128.454 849.281L187.649 888.454C229.433 806.626 279.923 696.941 316.484 603.797L264.254 565.494C223.339 665.603 167.627 781.381 128.454 849.281M446.190 646.452L761.316 646.452L761.316 714.351L446.190 714.351M446.190 597.703L446.190 533.285L761.316 533.285L761.316 597.703M571.544 99.770L571.544 167.670L348.693 167.670L348.693 218.160L571.544 218.160L571.544 273.873L369.585 273.873L369.585 321.751L571.544 321.751L571.544 381.816L315.614 381.816L315.614 432.306L897.986 432.306L897.986 381.816L635.962 381.816L635.962 321.751L844.014 321.751L844.014 273.873L635.962 273.873L635.962 218.160L865.777 218.160L865.777 167.670L635.962 167.670L635.962 99.770M385.255 482.795L385.255 899.770L446.190 899.770L446.190 763.971L761.316 763.971L761.316 826.647C761.316 837.094 756.963 840.576 744.776 841.446C732.589 842.317 690.804 842.317 647.279 840.576C655.113 856.245 662.948 880.619 666.430 897.159C728.236 897.159 767.409 897.159 791.783 886.713C816.158 877.137 823.122 859.727 823.122 827.518L823.122 482.795"/></svg>