<svg xmlns="http://www.w3.org/2000/svg" viewBox="0 0 1000 1000" fill="currentColor"><path d="M714.027 179.973C748.663 222.211 790.057 281.345 807.797 317.671L852.570 288.948C833.140 253.468 790.902 197.713 755.421 156.319M211.388 229.814C225.749 271.208 235.886 325.273 237.576 360.754L271.366 351.461C268.832 317.671 257.850 263.605 242.644 222.211M243.489 721.472C250.247 768.779 253.626 828.758 251.937 868.463L295.865 863.394C296.710 824.534 292.486 763.711 284.038 717.248M326.277 721.472C340.638 763.711 351.620 819.466 353.309 855.791L396.393 845.654C393.014 811.018 381.187 755.263 365.136 713.024M411.599 716.403C427.649 751.039 442.855 794.967 447.079 823.690L489.318 807.639C484.249 779.761 469.043 736.678 451.303 703.732M168.304 702.042C153.098 747.660 126.910 812.707 99.878 853.257L144.650 874.376C169.994 832.137 193.647 767.090 210.543 720.627M385.411 221.366C377.808 261.071 360.912 321.894 348.241 357.375L376.963 369.202C391.324 335.411 408.220 280.501 423.426 235.728M648.980 113.235L648.980 304.999L648.135 356.530L507.058 356.530L507.058 416.509L645.601 416.509C635.464 557.586 599.138 715.559 476.646 849.033C493.542 859.170 513.816 873.531 525.643 886.203C616.034 783.985 661.652 669.096 684.460 555.052C719.096 697.818 773.162 816.087 855.949 886.203C866.087 870.152 885.516 848.188 899.878 837.206C795.126 759.487 735.147 598.980 704.735 416.509L874.534 416.509L874.534 356.530L703.890 356.530L704.735 304.999L704.735 113.235M197.026 186.731L296.710 186.731L296.710 395.390L197.026 395.390M338.103 186.731L431.873 186.731L431.873 395.390L338.103 395.390M141.271 502.676L141.271 554.207L289.107 554.207L289.107 620.099L122.686 628.547L126.910 685.147C223.214 678.389 360.068 669.941 492.697 660.648L493.542 609.117L344.862 617.565L344.862 554.207L480.870 554.207L480.870 502.676L344.862 502.676L344.862 441.852L482.560 441.852L482.560 141.113L147.185 141.113L147.185 441.852L289.107 441.852L289.107 502.676"/></svg>