<svg xmlns="http://www.w3.org/2000/svg" viewBox="0 0 1000 1000" fill="currentColor"><path d="M187.231 131.110L187.231 194.407L811.407 194.407L811.407 131.110M109.868 377.264L109.868 442.319L334.044 442.319C320.857 606.714 288.330 746.495 100.198 817.703C115.143 830.011 134.484 853.747 141.516 868.692C346.352 786.934 388.549 631.330 404.374 442.319L570.527 442.319L570.527 757.044C570.527 833.527 591.626 855.505 670.747 855.505C687.451 855.505 780.637 855.505 798.220 855.505C874.703 855.505 892.286 814.187 900.198 662.978C881.736 658.582 853.604 646.275 837.780 633.967C835.143 769.352 828.989 793.088 792.945 793.088C771.846 793.088 694.484 793.088 678.659 793.088C644.374 793.088 637.341 787.813 637.341 756.165L637.341 442.319L886.132 442.319L886.132 377.264"/></svg>