<svg xmlns="http://www.w3.org/2000/svg" viewBox="0 0 1000 1000" fill="currentColor"><path d="M253.952 445.597L416.723 445.597L416.723 538.238L253.952 538.238M644.429 126.983C652.221 143.433 659.147 162.481 664.342 180.662L508.498 180.662L508.498 232.610L607.199 232.610L559.580 244.732C571.701 270.706 582.957 305.338 588.152 331.312L486.853 331.312L486.853 384.126L659.147 384.126L659.147 455.121L501.571 455.121L501.571 507.069L659.147 507.069L659.147 606.636L719.753 606.636L719.753 507.069L879.926 507.069L879.926 455.121L719.753 455.121L719.753 384.126L898.974 384.126L898.974 331.312L788.152 331.312C800.273 305.338 812.394 274.169 825.381 243.866L767.372 233.476C759.580 261.182 744.861 301.009 732.740 331.312L627.113 331.312L643.563 326.117C639.234 301.009 625.381 262.048 610.662 232.610L877.329 232.610L877.329 180.662L730.143 180.662C724.948 159.017 714.558 133.043 703.303 112.264M159.580 146.030L159.580 297.545C159.580 375.468 153.519 480.229 99.840 556.420C111.095 564.212 134.472 589.320 142.264 602.307C170.835 563.346 188.152 516.593 199.407 468.974L199.407 587.589LNaN 587.589LNaN 396.247L211.528 396.247C214.126 375.468 214.991 354.688 215.857 335.641L465.208 335.641L465.208 146.030M216.723 196.247L405.468 196.247L405.468 286.290L216.723 286.290MNaN 604.905LNaN 673.303L202.870 673.303L202.870 730.446LNaN 730.446LNaN 830.879L112.827 830.879L112.827 888.022L899.840 888.022L899.840 830.879L538.801 830.879L538.801 730.446L816.723 730.446L816.723 673.303L538.801 673.303L538.801 604.905"/></svg>