<svg xmlns="http://www.w3.org/2000/svg" viewBox="0 0 1000 1000" fill="currentColor"><path d="M349.982 440.625L520.488 440.625L520.488 503.489L349.982 503.489M299.174 401.013L299.174 542.240L573.878 542.240L573.878 401.013M377.538 256.341C387.872 273.564 399.067 294.231 407.678 313.177L263.006 313.177L263.006 362.262L604.018 362.262L604.018 313.177L476.569 313.177C467.958 290.787 452.457 261.508 437.818 239.118M544.600 582.714L529.960 583.575L281.090 583.575L281.090 628.354L485.181 628.354C461.069 644.716 433.512 660.216 407.678 671.411L407.678 705.857L243.200 714.468L247.506 766.137L407.678 755.803L407.678 830.722C407.678 839.334 405.095 841.917 394.761 842.778C384.427 843.639 349.121 843.639 310.369 841.917C317.258 855.695 325.009 873.779 327.592 888.419C380.983 888.419 414.567 888.419 436.957 880.668C459.347 872.918 464.513 860.001 464.513 832.445L464.513 751.497L611.769 741.164L612.630 693.801L464.513 702.412L464.513 687.773C511.015 666.244 556.656 637.827 591.101 607.687L557.517 579.269M637.603 289.926L637.603 898.752L694.438 898.752L694.438 343.316L817.581 343.316C796.914 396.707 769.357 463.015 741.801 519.850C810.692 582.714 828.776 635.243 829.637 678.300C829.637 703.273 824.470 724.802 809.831 733.413C802.081 737.719 791.747 741.164 780.552 741.164C765.052 742.886 744.384 742.025 722.856 739.441C732.328 755.803 739.217 779.915 740.079 796.277C761.607 797.999 785.719 797.999 804.664 796.277C822.748 793.693 839.110 788.526 852.027 779.054C878.722 761.831 889.056 728.247 889.056 682.606C888.195 633.521 870.111 577.547 801.220 512.100C833.082 450.098 868.389 375.179 895.945 310.593L852.888 287.342L843.416 289.926M476.569 118.559C486.903 136.643 498.098 158.171 507.571 178.839L171.726 178.839L171.726 444.070C171.726 568.935 166.559 741.164 104.557 863.446C118.335 869.474 145.030 889.280 155.364 900.475C221.672 770.442 231.144 576.686 231.144 444.070L231.144 233.952L894.223 233.952L894.223 178.839L579.906 178.839C569.573 154.727 554.072 123.726 539.433 100.475"/></svg>