<svg xmlns="http://www.w3.org/2000/svg" viewBox="0 0 1000 1000" fill="currentColor"><path d="M571.876 113.660C587.562 155.490 604.991 211.264 612.834 244.379L674.708 226.078C666.865 193.834 648.564 139.804 632.007 99.717M373.183 244.379L373.183 306.253L511.745 306.253C505.645 539.804 488.216 744.597 294.752 849.172C310.438 860.501 329.610 882.288 338.325 897.102C490.830 812.571 543.989 669.651 564.033 498.845L760.111 498.845C752.268 722.810 741.810 806.471 723.510 826.514C715.667 835.229 706.952 837.843 691.266 836.972C673.837 836.972 628.521 836.972 580.590 832.614C591.919 850.915 599.763 877.930 600.634 897.102C646.821 898.845 694.752 900.588 720.024 897.102C747.039 894.488 764.468 888.388 780.155 868.344C807.170 836.972 816.756 739.368 826.342 469.216C826.342 459.630 826.342 438.715 826.342 438.715L570.133 438.715C572.747 396.013 575.362 351.569 576.233 306.253L878.630 306.253L878.630 244.379M120.460 135.447L120.460 899.717L182.333 899.717L182.333 194.706L310.438 194.706C290.394 256.580 263.379 338.497 236.364 403.856C302.595 474.444 319.153 534.575 319.153 583.377C319.153 610.392 313.924 634.793 300.852 644.379C292.137 649.608 282.551 653.094 271.222 653.094C255.536 653.094 237.235 653.094 216.320 652.222C226.778 668.780 232.007 694.052 232.878 711.481C253.793 712.353 277.322 712.353 296.495 710.610C313.924 707.996 330.481 702.767 343.553 693.181C368.826 675.752 379.283 638.279 379.283 590.349C379.283 534.575 364.468 470.959 296.495 396.013C327.867 324.553 362.725 233.050 389.741 158.976L345.296 131.961L334.839 135.447"/></svg>