<svg xmlns="http://www.w3.org/2000/svg" viewBox="0 0 1000 1000" fill="currentColor"><path d="M669.747 101.418C647.769 141.857 609.088 197.242 573.923 236.802L361.176 236.802L402.495 217.462C387.549 184.934 354.143 135.703 323.374 99.659L265.352 122.516C292.604 156.802 323.374 203.396 338.319 236.802L145.791 236.802L145.791 298.341L458.758 298.341L458.758 381.857L191.505 381.857L191.505 440.758L457 440.758C455.242 468.890 451.725 498.780 444.692 528.670L107.110 528.670L107.110 588.451L424.473 588.451C383.154 683.396 293.484 778.341 102.714 847.791C116.780 860.099 137 883.835 145.791 898.780C362.055 817.022 456.121 702.736 495.681 588.451L519.418 588.451L519.418 806.473C519.418 879.440 542.275 899.659 631.945 899.659C650.407 899.659 770.846 899.659 790.187 899.659C870.187 899.659 889.527 867.132 897.440 739.659C878.978 734.385 850.846 723.835 835.901 713.286C832.385 821.418 826.231 838.121 785.791 838.121C758.538 838.121 658.319 838.121 637.220 838.121C593.264 838.121 586.231 832.846 586.231 806.473L586.231 588.451L883.374 588.451L883.374 528.670L512.385 528.670C517.659 498.780 521.176 468.890 522.934 440.758L803.374 440.758L803.374 381.857L523.813 381.857L523.813 298.341L848.209 298.341L848.209 236.802L648.648 236.802C678.538 202.516 711.945 160.319 740.077 121.637"/></svg>