<svg xmlns="http://www.w3.org/2000/svg" viewBox="0 0 1000 1000" fill="currentColor"><path d="M530.011 217.235C517.770 273.191 493.290 343.137 460.066 385.978L511.650 410.459C544.874 366.743 567.607 294.175 581.596 236.470M820.284 211.989C804.546 264.448 773.071 338.765 749.464 385.104L800.175 405.213C824.656 361.497 856.131 294.175 882.361 234.721M293.071 676.251L293.071 807.399C293.071 876.470 320.175 893.956 421.596 893.956C443.454 893.956 602.579 893.956 624.437 893.956C707.497 893.956 729.355 868.601 738.098 763.683C719.738 759.311 692.634 749.694 677.770 739.202C673.399 823.137 666.404 834.503 620.066 834.503C585.093 834.503 451.322 834.503 425.093 834.503C369.137 834.503 358.645 830.131 358.645 806.525L358.645 676.251M731.104 683.246C770.448 740.951 810.667 817.891 826.404 865.978L885.858 840.623C870.120 791.661 827.279 717.344 787.934 662.262M190.776 677.126C172.415 733.082 139.191 802.153 100.721 844.120L157.552 874.721C196.896 829.257 226.623 757.563 246.732 699.858M422.470 106.197C351.650 128.929 224 148.164 114.710 158.656C121.705 170.896 130.448 191.880 132.197 205.869C176.787 202.372 225.749 197.126 272.962 190.131L272.962 281.060L112.962 281.060L112.962 338.765L258.098 338.765C218.754 417.454 156.678 497.891 99.847 539.858C113.836 550.350 133.071 571.333 143.563 586.197C187.279 547.727 234.492 486.525 272.962 420.077L272.962 636.907L333.290 636.907L333.290 406.962C364.765 441.060 401.486 483.027 417.224 504.885L459.191 461.169C440.831 440.186 362.142 362.372 333.290 338.765L468.809 338.765L468.809 281.060L333.290 281.060L333.290 181.388C384 172.645 431.213 163.027 469.683 150.787M636.678 106.197L636.678 249.585C636.678 359.749 619.191 489.148 440.831 580.077C448.699 587.945 459.191 601.060 467.934 613.301L423.344 637.781C470.557 683.246 521.268 746.197 543.126 789.038L597.333 755.814C577.224 717.344 531.760 664.885 488.918 623.792C599.082 564.339 652.415 489.148 677.770 411.333C712.743 511.880 769.574 587.945 858.754 627.290C866.623 608.929 885.858 585.322 899.847 572.208C786.186 531.989 724.984 427.945 697.880 295.923L698.754 250.459L698.754 106.197"/></svg>