<svg xmlns="http://www.w3.org/2000/svg" viewBox="0 0 1000 1000" fill="currentColor"><path d="M270.616 262.996L730.227 262.996L730.227 317.423L270.616 317.423M270.616 165.371L730.227 165.371L730.227 218.071L270.616 218.071M208.413 118.719L208.413 364.076L795.022 364.076L795.022 118.719M289.622 508.352L289.622 552.413L795.886 552.413L795.886 508.352M313.812 878.114C329.363 868.611 357.009 861.700 566.080 812.456C565.216 799.497 566.944 777.035 569.536 760.620L393.294 797.769L393.294 648.309L503.013 648.309C572.991 762.348 698.261 834.918 861.544 865.156C869.320 847.877 885.734 823.687 899.557 809.864C827.851 800.361 762.192 782.218 706.901 756.300C750.097 737.294 799.341 713.104 835.626 687.186L791.566 655.220C757.009 677.683 701.717 707.056 655.929 728.654C619.644 706.192 589.406 678.546 565.216 648.309L880.551 648.309L880.551 598.201L236.058 598.201C236.922 575.739 237.786 554.140 237.786 534.270L237.786 462.564L867.592 462.564L867.592 413.320L172.127 413.320L172.127 532.542C172.127 623.255 165.216 751.117 99.557 845.285C115.972 852.197 144.482 870.339 156.577 881.570C201.501 815.048 223.099 728.654 231.739 648.309L329.363 648.309L329.363 759.756C329.363 796.905 301.717 815.048 284.438 824.551C294.806 837.510 309.492 863.428 313.812 878.114"/></svg>