<svg xmlns="http://www.w3.org/2000/svg" viewBox="0 0 1000 1000" fill="currentColor"><path d="M129.273 387.556L129.273 523.046L187.094 523.046L187.094 428.980L810.179 428.980L810.179 523.046L869.726 523.046L869.726 387.556M300.147 278.818L697.989 278.818L697.989 321.968L300.147 321.968M236.285 246.024L236.285 354.762L766.166 354.762L766.166 246.024M332.078 492.841L663.469 492.841L663.469 534.265L332.078 534.265M269.079 460.910L269.079 566.196L729.057 566.196L729.057 460.910M449.446 115.711C458.939 130.382 468.431 148.505 476.198 165.765L120.643 165.765L120.643 213.230L879.219 213.230L879.219 165.765L549.553 165.765C540.923 145.053 527.115 119.163 513.307 100.177M706.619 723.262L706.619 764.686L293.243 764.686L293.243 723.262M706.619 684.427L293.243 684.427L293.243 642.140L706.619 642.140M228.518 601.579L228.518 900.177L293.243 900.177L293.243 803.521L706.619 803.521L706.619 836.315C706.619 849.260 703.167 852.712 687.633 853.575C673.825 854.438 619.456 854.438 563.361 852.712C571.128 865.657 580.621 882.054 584.073 896.725C659.154 896.725 708.345 896.725 735.961 889.821C764.440 882.054 773.070 869.109 773.070 835.452L773.070 601.579"/></svg>