<svg xmlns="http://www.w3.org/2000/svg" viewBox="0 0 1000 1000" fill="currentColor"><path d="M558.916 174.374L558.916 898.604L623.233 898.604L623.233 236.048L800.326 236.048L800.326 659.837C800.326 672.172 796.802 676.577 784.467 676.577C770.370 677.458 728.079 677.458 680.502 675.696C690.194 695.079 700.767 724.154 704.291 742.656C764.203 742.656 805.612 741.775 832.044 730.322C857.595 718.868 864.643 697.722 864.643 660.718L864.643 174.374M165.084 713.581C180.062 700.366 207.374 689.793 379.181 633.405C351.868 716.225 288.432 791.996 145.700 849.264C159.797 861.599 179.181 885.388 187.110 900.366C431.163 799.925 461.119 642.216 461.119 483.626L461.119 256.313L398.564 256.313L398.564 483.626C398.564 512.700 397.683 540.894 393.278 569.088L232.925 617.546L232.925 236.048C312.220 213.141 409.137 179.661 483.145 144.419L425.877 100.366C360.678 135.608 248.784 179.661 166.846 202.568L166.846 599.044C166.846 635.167 150.106 651.907 136.009 658.956C145.700 672.172 159.797 697.722 165.084 712.700"/></svg>