<svg xmlns="http://www.w3.org/2000/svg" viewBox="0 0 1000 1000" fill="currentColor"><path d="M221.261 99.565L221.261 275.217L110.826 275.217L110.826 336.087L221.261 336.087L221.261 527.391L99.522 559.565L112.565 623.913L221.261 591.739L221.261 817.826C221.261 829.130 216.913 832.609 205.609 833.478C196.913 833.478 163 833.478 127.348 832.609C135.174 849.130 143.870 876.087 146.478 892.609C200.391 892.609 233.435 890.870 255.174 880.435C276.043 870.870 283.870 853.478 283.870 817.826L283.870 573.478L387.348 542.174L379.522 483.043L283.870 510L283.870 336.087L377.783 336.087L377.783 275.217L283.870 275.217L283.870 99.565M393.435 610L393.435 670L541.261 670L541.261 898.696L604.739 898.696L604.739 105.652L541.261 105.652L541.261 248.261L411.696 248.261L411.696 307.391L541.261 307.391L541.261 429.130L414.304 429.130L414.304 487.391L541.261 487.391L541.261 610M684.739 105.652L684.739 899.565L747.348 899.565L747.348 672.609L899.522 672.609L899.522 612.609L747.348 612.609L747.348 487.391L881.261 487.391L881.261 429.130L747.348 429.130L747.348 307.391L889.087 307.391L889.087 248.261L747.348 248.261L747.348 105.652"/></svg>