<svg xmlns="http://www.w3.org/2000/svg" viewBox="0 0 1000 1000" fill="currentColor"><path d="M223.701 107.051L223.701 292.521L121.137 292.521L121.137 352.350L216.009 352.350C193.786 466.880 147.632 600.214 99.769 672.009C110.026 687.393 126.265 712.179 132.248 729.274C166.436 675.427 198.915 590.812 223.701 501.923L223.701 892.521L280.966 892.521L280.966 442.949C304.043 483.120 331.393 534.402 342.504 560.897L377.547 513.034C363.017 489.957 298.915 389.957 280.966 366.026L280.966 352.350L370.709 352.350L370.709 292.521L280.966 292.521L280.966 107.051M610.880 106.197C607.462 130.983 603.188 154.915 598.060 179.701L397.205 179.701L397.205 231.838L586.949 231.838C581.821 252.350 575.838 272.009 569.855 291.667L422.846 291.667L422.846 342.094L551.906 342.094C543.359 364.316 533.957 385.684 523.701 406.197L377.547 406.197L377.547 460.043L492.077 460.043C455.325 516.453 408.316 566.026 349.342 604.487C359.598 617.308 374.983 642.094 382.675 656.624C420.282 631.838 452.761 603.632 481.821 572.009L481.821 621.581L592.932 621.581L592.932 700.214L405.752 700.214L405.752 754.915L592.932 754.915L592.932 893.376L655.325 893.376L655.325 754.915L823.701 754.915L823.701 700.214L655.325 700.214L655.325 621.581L751.051 621.581L751.051 569.444L655.325 569.444L655.325 489.957L592.932 489.957L592.932 569.444L484.385 569.444C514.299 536.111 539.940 499.359 562.162 460.043L696.350 460.043C732.248 535.256 795.496 610.470 857.889 650.641C868.145 636.966 886.094 616.453 899.769 606.197C843.359 577.137 786.949 520.726 751.906 460.043L873.274 460.043L873.274 406.197L589.513 406.197C598.915 385.684 608.316 364.316 616.009 342.094L826.265 342.094L826.265 291.667L633.103 291.667L649.342 231.838L852.761 231.838L852.761 179.701L661.308 179.701L673.274 116.453"/></svg>