<svg xmlns="http://www.w3.org/2000/svg" viewBox="0 0 1000 1000" fill="currentColor"><path d="M110.037 445.332L110.037 504.398L702.436 504.398L702.436 820.577C702.436 834.474 698.093 838.818 679.852 839.686C663.349 840.555 601.676 841.423 535.661 838.818C546.085 856.190 556.508 882.249 559.983 900.490C641.633 900.490 695.488 899.621 727.626 890.935C758.897 880.511 769.320 860.533 769.320 821.445L769.320 504.398L889.190 504.398L889.190 445.332M473.989 100.490C471.383 130.023 467.040 157.819 461.828 182.140L153.468 182.140L153.468 240.338L441.850 240.338C403.631 320.251 322.849 364.550 139.570 388.003C149.993 400.164 163.891 424.485 169.103 439.252C333.273 416.668 424.478 375.843 475.726 308.959C586.041 347.178 712.860 401.033 785.824 437.515L833.598 390.609C754.554 353.258 616.443 297.667 505.260 259.447L513.077 240.338L847.496 240.338L847.496 182.140L529.581 182.140C534.793 156.950 538.267 130.023 540.873 100.490M261.177 627.743L484.413 627.743L484.413 746.744L261.177 746.744M199.505 574.757L199.505 857.059L261.177 857.059L261.177 799.730L546.953 799.730L546.953 574.757"/></svg>