<svg xmlns="http://www.w3.org/2000/svg" viewBox="0 0 1000 1000" fill="currentColor"><path d="M240.291 267.737C220.971 352.040 183.211 452.149 127.887 514.498L191.114 546.112C246.438 482.007 282.442 374.872 304.396 287.056M786.504 267.737C759.281 345.014 708.348 452.149 667.953 518.011L723.277 543.477C765.428 479.372 818.117 378.384 856.756 294.959M514.276 431.952L511.641 432.830C528.326 326.573 529.204 213.291 530.082 100.009L458.074 100.009C455.439 409.998 465.977 712.083 99.786 845.563C116.471 858.735 136.668 882.446 144.572 899.131C345.670 822.731 441.389 696.277 487.053 546.112C552.914 722.621 667.075 840.294 855.878 892.984C865.538 875.420 884.857 847.319 899.786 833.269C684.638 782.336 566.965 640.953 514.276 431.952"/></svg>