<svg xmlns="http://www.w3.org/2000/svg" viewBox="0 0 1000 1000" fill="currentColor"><path d="M385.923 262.446C398.812 282.209 412.561 306.270 423.731 326.893L273.356 326.893L273.356 376.731L443.495 376.731L443.495 432.585L304.290 432.585L304.290 478.128L443.495 478.128L443.495 537.419L261.325 537.419L261.325 582.961L443.495 582.961L443.495 647.408L297.416 647.408L297.416 692.951L422.013 692.951C373.893 752.242 297.416 808.096 228.672 835.593C241.562 846.764 258.748 867.387 268.200 881.995C329.209 851.060 395.375 796.925 443.495 737.634L443.495 889.728L501.068 889.728L501.068 692.951L598.168 692.951L598.168 889.728L656.599 889.728L656.599 729.900C704.720 792.628 773.463 851.060 836.191 882.854C845.643 867.387 864.548 845.904 877.437 833.874C808.694 806.377 732.217 751.382 684.956 692.951L819.005 692.951L819.005 583.821L899.779 583.821L899.779 533.982L819.005 533.982L819.005 432.585L656.599 432.585L656.599 376.731L875.719 376.731L875.719 326.893L696.127 326.893C709.875 307.129 724.483 284.787 737.373 261.586L676.363 246.979C665.192 270.179 646.288 301.973 629.102 326.893L490.756 326.893C477.867 302.832 458.962 272.757 441.777 249.556M501.068 582.961L598.168 582.961L598.168 647.408L501.068 647.408M501.068 537.419L501.068 478.128L598.168 478.128L598.168 537.419M656.599 582.961L761.433 582.961L761.433 647.408L656.599 647.408M656.599 537.419L656.599 478.128L761.433 478.128L761.433 537.419M501.068 376.731L598.168 376.731L598.168 432.585L501.068 432.585M485.600 116.366C495.053 136.130 505.364 160.190 513.098 181.672L171.100 181.672L171.100 448.053C171.100 571.791 165.085 741.930 99.779 863.090C115.246 869.105 141.884 888.010 153.055 899.180C221.798 771.146 232.110 580.383 232.110 448.053L232.110 239.245L889.467 239.245L889.467 181.672L584.419 181.672C575.826 156.753 561.218 125.818 549.188 101.758"/></svg>