<svg xmlns="http://www.w3.org/2000/svg" viewBox="0 0 1000 1000" fill="currentColor"><path d="M244.624 104.419L244.624 270.441L113.011 270.441L113.011 330.656L238.602 330.656C211.075 448.505 156.022 585.280 100.108 657.538C111.290 673.022 127.634 701.409 134.516 720.333C174.946 663.559 214.516 570.656 244.624 473.452L244.624 894.957L303.978 894.957L303.978 451.086C327.204 494.097 353.871 544.849 365.914 572.376L405.484 525.925C390.860 500.978 325.484 401.194 303.978 371.946L303.978 330.656L406.344 330.656L406.344 270.441L303.978 270.441L303.978 104.419M761.613 357.323L761.613 463.989L503.548 463.989L503.548 357.323M761.613 303.129L503.548 303.129L503.548 199.043L761.613 199.043M442.473 895.817C458.817 885.495 485.484 876.032 663.548 827C661.828 814.097 660.108 788.290 660.968 771.086L503.548 808.075L503.548 520.763L588.710 520.763C633.441 693.667 716.882 825.280 855.376 889.796C865.699 871.731 885.484 846.785 900.108 833.882C827.849 805.495 770.215 757.323 726.344 695.387C773.656 667.860 831.290 630.011 874.301 593.882L831.290 548.290C797.742 579.258 742.688 620.548 697.097 648.935C675.591 610.226 658.387 567.215 644.624 520.763L824.409 520.763L824.409 142.269L439.892 142.269L439.892 789.151C439.892 822.699 426.989 834.742 414.946 840.763C424.409 853.667 438.172 881.194 442.473 895.817"/></svg>