<svg xmlns="http://www.w3.org/2000/svg" viewBox="0 0 1000 1000" fill="currentColor"><path d="M207.612 105.195L207.612 894.884L266.044 894.884L266.044 105.195M139.728 271.039C134.573 338.063 120.824 433.445 100.201 491.876L150.899 509.062C170.663 444.615 184.411 344.938 187.849 277.054M273.778 247.838C291.823 288.224 311.586 342.360 319.320 375.013L364.863 352.671C356.270 321.737 335.647 270.179 316.742 230.652M460.244 646.549L771.307 646.549L771.307 711.855L460.244 711.855M460.244 597.569L460.244 533.122L771.307 533.122L771.307 597.569M583.982 105.195L583.982 172.220L364.003 172.220L364.003 222.059L583.982 222.059L583.982 277.054L384.626 277.054L384.626 324.315L583.982 324.315L583.982 383.606L338.224 383.606L338.224 433.445L900.201 433.445L900.201 383.606L647.569 383.606L647.569 324.315L852.940 324.315L852.940 277.054L647.569 277.054L647.569 222.059L874.422 222.059L874.422 172.220L647.569 172.220L647.569 105.195M400.093 483.284L400.093 894.884L460.244 894.884L460.244 760.835L771.307 760.835L771.307 822.704C771.307 833.015 767.011 836.452 755.840 837.311C743.810 838.171 702.564 838.171 658.740 836.452C666.474 851.919 675.067 875.980 677.644 892.306C738.654 892.306 777.322 892.306 801.382 881.995C825.443 872.542 832.317 855.357 832.317 823.563L832.317 483.284"/></svg>