<svg xmlns="http://www.w3.org/2000/svg" viewBox="0 0 1000 1000" fill="currentColor"><path d="M652.923 105.170C633.202 132.609 600.618 170.337 570.608 199.490L387.971 199.490L418.839 188.343C402.548 165.192 369.107 129.179 342.526 104.313L287.650 122.319C310.801 145.471 337.382 176.339 354.531 199.490L141.883 199.490L141.883 251.794L401.690 251.794L401.690 308.386L199.332 308.386L199.332 612.780L467.714 612.780C465.141 632.502 460.854 650.508 455.710 667.657L103.298 667.657L103.298 719.961L431.701 719.961C387.114 788.557 295.367 824.570 99.868 842.577C110.158 855.438 123.877 880.304 127.307 894.881C351.101 870.872 452.280 821.998 500.297 726.821C565.463 833.145 683.791 879.447 863.855 894.881C871.572 876.875 886.149 852.009 899.868 838.289C736.095 829.715 620.340 797.989 561.176 719.961L892.151 719.961L892.151 667.657L522.591 667.657C526.878 650.508 531.165 632.502 533.737 612.780L798.689 612.780L798.689 308.386L595.474 308.386L595.474 251.794L852.708 251.794L852.708 199.490L640.061 199.490C664.927 177.196 689.793 151.473 712.087 126.607M544.027 251.794L544.027 308.386L453.995 308.386L453.995 251.794M736.095 516.746L736.095 568.193L259.354 568.193L259.354 516.746M259.354 352.973L398.260 352.973C388.829 388.129 359.675 421.569 273.073 443.863C285.077 451.580 303.084 466.156 311.658 475.588C412.837 448.150 444.563 401.848 451.422 352.973L544.027 352.973L544.027 391.558C544.027 435.288 558.603 444.720 618.625 444.720C629.772 444.720 712.087 444.720 724.091 444.720L736.095 444.720L736.095 479.018L259.354 479.018M595.474 352.973L736.095 352.973L736.095 408.707C734.380 411.280 729.236 411.280 717.232 411.280C701.797 411.280 635.774 411.280 623.770 411.280C599.761 411.280 595.474 408.707 595.474 391.558"/></svg>