<svg xmlns="http://www.w3.org/2000/svg" viewBox="0 0 1000 1000" fill="currentColor"><path d="M145.607 162.144C201.945 186.413 271.284 228.016 305.953 257.485L343.223 202.881C307.687 174.278 236.614 137.875 181.143 114.473M99.670 400.497C154.274 424.766 221.013 463.769 254.816 491.505L290.352 437.767C256.549 410.898 188.077 374.495 134.339 351.960M128.272 846.868L184.610 889.338C234.014 807.865 291.219 699.522 335.423 608.515L286.018 567.778C238.348 665.719 172.476 780.129 128.272 846.868M408.229 189.880L408.229 422.166L304.220 462.902L329.355 520.974L408.229 489.771L408.229 770.595C408.229 867.670 438.564 892.805 543.440 892.805C566.842 892.805 746.257 892.805 771.392 892.805C867.600 892.805 889.269 852.935 899.670 732.458C881.468 728.991 854.599 717.724 838.998 706.456C832.064 808.731 822.530 833 769.659 833C731.522 833 575.509 833 545.173 833C483.635 833 472.367 821.732 472.367 771.462L472.367 465.503L598.911 415.232L598.911 709.056L663.050 709.056L663.050 390.963L798.261 338.092C797.394 475.037 795.661 566.044 789.594 589.446C784.393 611.982 774.859 615.449 760.125 615.449C749.724 615.449 717.654 615.449 693.386 613.715C702.053 629.316 708.120 657.052 709.854 675.254C736.723 676.120 774.859 675.254 799.128 669.186C825.997 662.252 843.332 645.784 850.265 605.914C858.066 569.511 860.666 443.834 860.666 286.088L864.133 273.953L817.329 255.752L806.062 266.153L800.861 270.486L663.050 323.358L663.050 106.673L598.911 106.673L598.911 348.493L472.367 397.897L472.367 189.880"/></svg>