<svg xmlns="http://www.w3.org/2000/svg" viewBox="0 0 1000 1000" fill="currentColor"><path d="M480.121 360.945L781.532 360.945L781.532 434.777L480.121 434.777M480.121 240.206L781.532 240.206L781.532 312.302L480.121 312.302M149.176 278.426C144.833 346.178 131.803 436.515 110.088 490.369L156.125 509.479C178.709 447.807 191.738 353.127 193.476 283.637M350.696 258.447C338.535 312.302 315.083 388.740 295.973 436.515L337.667 454.756C358.514 409.587 382.835 338.360 403.682 280.163M594.779 100.358C587.830 126.417 576.537 160.293 566.114 188.958L420.186 188.958L420.186 486.026L844.073 486.026L844.073 188.958L628.655 188.958L662.531 115.993M360.251 820.445L360.251 877.774L897.059 877.774L897.059 820.445L666.874 820.445L666.874 730.977L842.336 730.977L842.336 677.991L666.874 677.991L666.874 598.947L877.949 598.947L877.949 544.224L390.653 544.224L390.653 598.947L599.990 598.947L599.990 677.991L424.529 677.991L424.529 730.977L599.990 730.977L599.990 820.445M227.352 104.701L227.352 402.638C227.352 561.596 215.191 727.503 103.139 856.059C117.037 865.613 137.884 885.592 147.439 900.358C209.111 830 243.856 750.087 263.834 665.831C295.104 705.787 333.324 758.773 349.827 786.569L394.127 739.663C376.755 717.079 304.659 627.611 275.995 596.341C284.681 532.932 286.418 467.785 286.418 402.638L286.418 104.701"/></svg>