<svg xmlns="http://www.w3.org/2000/svg" viewBox="0 0 1000 1000" fill="currentColor"><path d="M106.182 181.785L106.182 765.210L168.061 765.210L168.061 696.260L341.320 696.260L341.320 181.785M168.061 245.431L279.442 245.431L279.442 631.729L168.061 631.729M508.392 100.459C477.453 214.492 423.530 324.105 355.464 395.707C370.492 405.431 397.895 426.646 410.271 439.022C443.862 400.127 474.801 352.392 502.204 298.470L875.243 298.470L875.243 235.707L531.376 235.707C548.171 196.812 562.315 157.033 574.691 115.486M452.702 418.691L452.702 480.569L686.072 480.569C410.271 715.707 397.011 766.094 397.011 809.409C397.011 865.983 439.442 900.459 534.028 900.459L778.006 900.459C856.680 900.459 884.083 874.823 892.923 724.547C873.475 720.127 850.492 711.287 831.928 701.564C828.392 818.249 818.669 834.160 780.657 834.160L531.376 834.160C491.597 834.160 465.961 825.320 465.961 801.453C465.961 771.398 488.945 725.431 821.320 454.050C824.856 450.514 829.276 446.094 831.044 441.674L785.961 416.039L770.050 418.691"/></svg>