<svg xmlns="http://www.w3.org/2000/svg" viewBox="0 0 1000 1000" fill="currentColor"><path d="M252.568 289.192L747.225 289.192L747.225 365.964L252.568 365.964M252.568 164.437L747.225 164.437L747.225 240.337L252.568 240.337M189.755 112.965L189.755 417.436L465.436 417.436L465.436 572.725L307.530 572.725L354.640 552.660C339.809 516.019 302.296 463.674 266.527 426.160L211.565 449.715C243.844 486.357 278.740 536.956 293.571 572.725L121.707 572.725L121.707 632.921L355.513 632.921C336.320 738.483 285.720 800.424 99.896 832.703C112.983 845.790 129.558 871.962 135.665 887.665C338.937 846.662 400.878 767.273 422.688 632.921L559.656 632.921L559.656 794.317C559.656 860.621 580.594 879.814 664.346 879.814C681.794 879.814 787.356 879.814 805.676 879.814C872.852 879.814 892.045 853.641 899.896 748.952C881.576 744.590 854.531 734.993 840.573 724.525C837.083 807.403 831.848 820.490 799.569 820.490C775.142 820.490 687.901 820.490 670.453 820.490C632.939 820.490 625.960 816.128 625.960 793.445L625.960 632.921L884.193 632.921L884.193 572.725L696.625 572.725C728.032 539.574 764.673 492.463 796.080 447.971L736.756 420.053C713.201 461.057 671.325 518.636 639.918 553.532L677.432 572.725L531.739 572.725L531.739 417.436L813.528 417.436L813.528 112.965"/></svg>