<svg xmlns="http://www.w3.org/2000/svg" viewBox="0 0 1000 1000" fill="currentColor"><path d="M291.794 680.709C274.016 736.582 245.233 794.148 212.217 833.937C225.762 840.709 248.619 855.947 258.778 865.259C292.640 822.085 325.656 756.053 345.974 694.254M395.074 695.101C423.857 734.042 455.180 787.376 467.878 822.931L518.672 799.228C504.280 765.365 472.958 713.725 442.481 675.630M212.217 598.593L212.217 651.079L527.984 651.079L527.984 598.593L456.873 598.593L456.873 489.386L507.667 489.386L507.667 437.746L456.873 437.746L456.873 342.931L409.466 342.931L409.466 437.746L334.968 437.746L334.968 342.931L288.407 342.931L288.407 437.746L220.683 437.746L220.683 489.386L288.407 489.386L288.407 598.593M334.968 489.386L409.466 489.386L409.466 598.593L334.968 598.593M163.116 127.058L163.116 421.661C163.116 540.180 158.037 701.026 100.471 815.312C114.016 820.392 138.566 837.323 148.725 848.328C210.524 727.270 218.989 546.952 218.989 420.815L218.989 321.767L512.746 321.767L512.746 127.058M218.989 177.005L454.333 177.005L454.333 270.974L218.989 270.974M787.878 514.783C766.714 579.122 735.392 634.995 696.450 680.709C658.354 633.302 628.725 577.429 608.407 514.783M527.138 457.217L527.138 514.783L560.153 514.783L553.381 516.476C577.931 596.053 611.794 664.624 656.661 722.190C609.254 767.058 552.534 800.074 492.429 821.238C504.280 833.937 519.519 857.640 526.291 872.878C588.090 848.328 646.503 813.619 696.450 767.058C742.164 812.772 797.190 849.175 861.529 872.878C869.995 856.794 886.926 833.090 900.471 820.392C836.979 800.074 781.952 767.058 737.085 723.884C792.111 658.698 835.286 574.889 858.989 469.069L821.741 454.677L811.582 457.217M578.778 128.751L578.778 246.423C578.778 295.524 571.159 347.164 511.053 386.952C520.365 396.265 537.296 423.354 542.376 437.746C618.566 389.492 633.804 312.455 633.804 248.116L633.804 185.471L748.090 185.471L748.090 326C748.090 385.259 759.095 408.116 810.735 408.116C820.048 408.116 847.138 408.116 857.296 408.116C870.841 408.116 885.233 407.270 894.545 403.884C892.852 390.339 891.159 368.328 890.312 353.090C880.153 355.630 865.762 357.323 857.296 357.323C848.831 357.323 823.434 357.323 815.815 357.323C805.656 357.323 803.963 350.550 803.963 327.693L803.963 128.751"/></svg>