<svg xmlns="http://www.w3.org/2000/svg" viewBox="0 0 1000 1000" fill="currentColor"><path d="M119.203 174.021C141.449 233.914 161.984 312.631 165.406 363.968L216.743 351.134C210.754 299.797 191.075 221.080 166.262 161.187M395.567 158.620C383.588 216.802 358.775 301.508 339.096 352.845L381.021 366.535C403.267 317.765 430.647 237.337 452.037 173.166M514.497 212.524C564.123 242.471 623.160 289.529 649.684 322.043L683.909 273.273C655.674 240.759 596.636 197.123 547.011 168.032M470.861 428.139C521.342 455.519 583.802 500.011 613.749 530.813L645.406 479.476C615.460 448.674 552.144 408.460 500.807 382.791M113.214 394.770L113.214 454.663L233.856 454.663C203.053 549.636 149.150 662.578 99.524 722.471C110.647 738.727 126.048 766.107 132.893 784.930C174.818 727.604 218.455 633.487 250.968 541.080L250.968 893.594L310.861 893.594L310.861 540.225C342.519 589.850 381.877 654.877 397.278 687.390L440.059 636.909C421.235 608.674 335.674 494.021 310.861 466.642L310.861 454.663L451.182 454.663L451.182 394.770L310.861 394.770L310.861 109.850L250.968 109.850L250.968 394.770M449.471 652.310L460.594 711.348L727.545 662.578L727.545 893.594L789.150 893.594L789.150 651.455L899.524 631.775L889.257 572.738L789.150 590.706L789.150 107.283L727.545 107.283L727.545 601.829"/></svg>