<svg xmlns="http://www.w3.org/2000/svg" viewBox="0 0 1000 1000" fill="currentColor"><path d="M293.260 107.773C256.310 168.783 180.693 240.104 112.809 284.787C123.980 296.817 140.306 322.596 147.180 337.204C222.798 286.506 304.431 205.733 355.129 130.974M387.782 576.946L387.782 631.082L582.841 631.082L582.841 704.981L349.973 704.981L349.973 761.694L582.841 761.694L582.841 894.884L645.569 894.884L645.569 761.694L891.327 761.694L891.327 704.981L645.569 704.981L645.569 631.082L850.081 631.082L850.081 576.946L645.569 576.946L645.569 509.062L838.050 509.062L838.050 380.169L899.919 380.169L899.919 323.455L838.050 323.455L838.050 196.280L645.569 196.280L645.569 105.195L582.841 105.195L582.841 196.280L403.249 196.280L403.249 251.275L582.841 251.275L582.841 323.455L362.863 323.455L362.863 380.169L582.841 380.169L582.841 454.068L398.953 454.068L398.953 509.062L582.841 509.062L582.841 576.946M645.569 251.275L775.322 251.275L775.322 323.455L645.569 323.455M645.569 454.068L645.569 380.169L775.322 380.169L775.322 454.068M306.149 295.958C257.170 385.324 176.396 472.972 99.919 530.545C111.090 546.012 129.135 578.665 134.291 592.414C166.085 565.776 199.597 533.122 231.391 497.892L231.391 894.025L292.401 894.025L292.401 423.992C319.039 389.621 343.099 353.531 362.863 318.300"/></svg>