<svg xmlns="http://www.w3.org/2000/svg" viewBox="0 0 1000 1000" fill="currentColor"><path d="M408.188 259.333L408.188 320.017L894.513 320.017L894.513 259.333M552.632 119.162C574.855 160.188 599.641 215.744 611.607 251.641L674 229.419C661.179 195.231 635.538 141.385 611.607 100.359M231.265 108.051L231.265 280.701L114.171 280.701L114.171 340.530L231.265 340.530L231.265 527.709C182.547 541.385 137.248 553.350 100.496 561.897L116.735 624.291L231.265 590.957L231.265 814.889C231.265 826.855 226.137 831.128 214.171 831.128C203.915 831.983 166.308 831.983 126.137 831.128C134.684 848.222 143.231 873.863 144.940 890.103C203.915 890.103 239.812 888.393 262.889 878.991C285.111 868.735 293.658 850.786 293.658 814.889L293.658 573.009L403.060 539.675L395.368 482.410L293.658 510.615L293.658 340.530L391.949 340.530L391.949 280.701L293.658 280.701L293.658 108.051M483.402 406.342L483.402 563.607C483.402 656.769 467.162 770.444 343.231 851.641C356.051 861.043 378.274 886.684 385.966 900.359C521.009 811.470 546.650 673.009 546.650 564.462L546.650 466.171L707.333 466.171L707.333 784.120C707.333 843.949 712.462 858.479 725.282 870.444C738.103 882.410 758.615 887.538 775.709 887.538C785.966 887.538 809.043 887.538 821.009 887.538C838.103 887.538 856.051 884.120 867.162 876.427C879.128 867.880 886.821 855.915 891.949 835.402C896.222 815.744 899.641 760.188 899.641 714.889C883.402 708.906 862.889 698.650 850.068 687.538C850.068 738.821 849.214 778.137 847.504 796.085C845.795 813.179 842.376 821.726 838.103 825.145C833.829 828.564 825.282 830.274 817.590 830.274C809.897 830.274 797.932 830.274 791.949 830.274C785.111 830.274 779.983 829.419 775.709 826C771.436 821.726 769.726 809.761 769.726 786.684L769.726 406.342"/></svg>