<svg xmlns="http://www.w3.org/2000/svg" viewBox="0 0 1000 1000" fill="currentColor"><path d="M364.591 640.691L746.210 640.691L746.210 701.961L364.591 701.961M364.591 594.302L364.591 534.783L746.210 534.783L746.210 594.302M364.591 747.475L746.210 747.475L746.210 812.245L364.591 812.245M796.976 99.772C656.932 127.781 390.849 140.910 177.282 142.661C183.409 156.665 189.536 178.547 190.411 193.427C266.560 193.427 348.836 191.676 431.112 188.175C424.985 208.306 418.858 228.438 411.856 248.569L189.536 248.569L189.536 301.085L392.600 301.085C383.847 322.967 374.219 344.849 362.840 366.731L125.641 366.731L125.641 420.998L333.081 420.998C277.939 513.777 202.665 594.302 102.884 651.195C116.888 664.324 136.144 687.956 144.897 702.836C205.291 666.950 256.932 623.186 301.571 573.295L301.571 899.772L364.591 899.772L364.591 864.761L746.210 864.761L746.210 899.772L811.856 899.772L811.856 482.267L371.593 482.267C384.722 462.136 396.976 442.004 408.354 420.998L897.632 420.998L897.632 366.731L435.488 366.731C445.991 344.849 455.619 322.967 464.372 301.085L846.867 301.085L846.867 248.569L483.628 248.569L503.759 184.674C629.799 176.796 750.586 164.543 838.989 147.037"/></svg>