<svg xmlns="http://www.w3.org/2000/svg" viewBox="0 0 1000 1000" fill="currentColor"><path d="M303.419 656.538C266.430 721.054 201.914 782.129 136.538 821.699C151.161 831.161 176.968 852.667 189.011 863.849C254.387 819.118 324.925 748.581 367.075 674.602M609.656 686.645C675.892 738.258 755.032 813.097 792.022 861.269L845.355 823.419C807.505 774.387 725.785 702.129 660.409 652.237M464.280 447.505L464.280 557.613L217.398 557.613L217.398 618.688L464.280 618.688L464.280 823.419C464.280 833.742 461.699 837.183 449.656 837.183C437.613 838.043 400.624 838.043 358.473 837.183C367.075 854.387 375.677 879.333 379.118 897.398C435.032 897.398 472.882 896.538 497.828 887.075C523.634 877.613 531.376 860.409 531.376 824.280L531.376 618.688L773.957 618.688L773.957 557.613L531.376 557.613L531.376 447.505M621.699 103.419L621.699 189.441L367.075 189.441L367.075 103.419L301.699 103.419L301.699 189.441L119.333 189.441L119.333 249.656L301.699 249.656L301.699 331.376L367.075 331.376L367.075 249.656L621.699 249.656L621.699 331.376L687.935 331.376L687.935 249.656L875.462 249.656L875.462 189.441L687.935 189.441L687.935 103.419M485.785 266C415.247 375.247 269.011 463.849 99.548 519.763C112.452 531.806 132.237 558.473 140.839 573.957C287.075 522.344 412.667 448.366 498.688 352.882C593.312 442.344 736.108 527.505 855.677 569.656C865.140 553.312 884.065 527.505 899.548 513.742C772.237 476.753 619.118 391.591 533.097 309.871L546.860 290.086"/></svg>