<svg xmlns="http://www.w3.org/2000/svg" viewBox="0 0 1000 1000" fill="currentColor"><path d="M138.382 143.390C184.519 175.598 240.232 224.347 266.347 256.556L308.132 213.901C281.146 181.692 224.563 136.425 178.425 105.087M100.079 386.262C149.699 415.860 209.764 459.385 239.361 489.853L278.534 444.587C247.196 414.989 186.260 372.334 137.511 346.219M118.360 843.281L172.332 877.231C211.505 797.144 257.642 688.330 291.592 598.667L244.584 564.717C207.152 662.214 155.792 775.381 118.360 843.281M593.659 511.616C600.624 505.522 625.868 501.170 656.336 501.170L705.955 501.170C675.487 623.912 615.422 751.877 495.292 861.561C510.961 869.396 531.853 885.936 542.299 895.511C636.314 807.590 694.639 707.481 731.200 606.502L731.200 804.108C731.200 843.281 733.812 856.338 745.999 867.655C757.316 878.972 774.726 881.583 791.266 881.583C799.971 881.583 819.992 881.583 830.439 881.583C844.367 881.583 860.036 878.972 869.612 872.008C880.928 864.173 888.763 852.856 893.115 837.187C896.597 819.777 900.079 771.028 900.079 727.503C885.281 723.150 866.129 712.704 855.683 702.258C856.554 746.654 854.813 784.956 853.072 800.626C852.201 810.201 847.849 817.165 844.367 821.518C840.885 824.129 833.050 825.871 826.086 825.871C819.122 825.871 810.417 825.871 804.323 825.871C798.230 825.871 792.136 824.129 789.524 820.647C786.042 818.036 785.172 812.813 785.172 807.590L785.172 546.436L750.351 546.436L762.539 501.170L887.022 501.170L887.022 445.457L772.985 445.457C788.654 354.924 791.266 270.484 791.266 201.714L791.266 199.102L879.187 199.102L879.187 141.649L597.141 141.649L597.141 199.102L736.423 199.102L736.423 201.714C736.423 270.484 734.682 354.924 718.143 445.457L646.761 445.457C658.077 385.392 672.876 286.153 680.711 242.628L625.868 242.628C619.775 285.283 600.624 414.989 592.789 435.881C587.566 451.551 581.472 455.903 570.156 459.385C577.120 470.702 589.307 498.558 593.659 511.616M496.162 350.571L496.162 455.903L382.125 455.903L382.125 350.571M496.162 298.341L382.125 298.341L382.125 196.491L496.162 196.491M324.671 804.978C335.988 791.050 356.880 774.510 497.033 694.423C506.608 718.798 515.313 742.301 519.666 761.453L568.415 735.337C555.357 689.200 521.407 612.595 489.198 554.271L443.931 576.034C455.248 597.797 467.435 623.041 477.881 647.416L382.125 697.905L382.125 509.875L551.004 509.875L551.004 142.519L326.412 142.519L326.412 677.013C326.412 717.057 302.909 744.913 289.851 757.100C300.297 766.676 318.578 791.921 324.671 804.978"/></svg>