<svg xmlns="http://www.w3.org/2000/svg" viewBox="0 0 1000 1000" fill="currentColor"><path d="M107.558 637.926L107.558 700.264L509.290 700.264L509.290 900.264L575.957 900.264L575.957 700.264L891.974 700.264L891.974 637.926L575.957 637.926L575.957 465.632L831.368 465.632L831.368 404.160L575.957 404.160L575.957 270.827L851.281 270.827L851.281 208.489L331.801 208.489C346.519 179.052 359.506 148.749 371.628 117.580L305.827 100.264C264.268 218.013 192.407 330.567 109.290 401.563C125.740 411.087 153.446 432.732 165.567 443.121C212.320 398.100 258.208 338.359 298.035 270.827L509.290 270.827L509.290 404.160L250.416 404.160L250.416 637.926M315.351 637.926L315.351 465.632L509.290 465.632L509.290 637.926"/></svg>