<svg xmlns="http://www.w3.org/2000/svg" viewBox="0 0 1000 1000" fill="currentColor"><path d="M653.858 149.723C696.366 173.527 750.776 207.533 777.131 232.188L817.938 197.332C789.883 173.527 735.473 140.371 692.115 119.967M436.217 437.927C458.321 466.832 483.826 507.640 494.878 533.145L553.539 505.939C542.487 481.285 516.132 443.878 491.477 415.823M301.892 885.111C319.745 874.058 347.800 864.707 566.291 812.847C564.591 799.244 562.891 776.290 562.891 759.287L373.305 801.795L373.305 681.072C423.464 653.867 470.223 623.261 505.930 590.105C571.392 736.333 687.864 829.850 860.446 871.508C868.948 853.655 885.951 829 900.404 815.397C817.938 799.244 748.225 769.489 691.265 728.681C739.724 705.727 797.535 672.571 842.593 640.265L792.434 603.708C755.877 630.913 698.066 668.320 649.607 694.675C617.301 664.069 590.946 629.213 570.542 590.105L885.101 590.105L885.101 533.995L126.759 533.995L126.759 590.105L421.764 590.105C339.299 647.916 216.876 697.225 110.606 721.880C122.508 733.782 139.511 755.886 148.013 770.339C200.723 755.886 257.683 735.482 312.944 710.828L312.944 789.043C312.944 820.498 294.240 829 280.638 834.101C289.139 846.003 299.341 870.658 301.892 885.111M506.780 115.716C510.181 166.726 519.532 214.335 533.985 257.693L353.751 273.846L360.553 328.256L554.389 310.403C607.099 422.624 695.515 493.187 798.385 493.187C856.196 493.187 880 470.233 889.352 377.565C873.199 373.315 851.095 362.262 838.342 351.210C833.241 411.572 826.440 432.826 800.935 432.826C732.072 433.676 666.610 385.217 622.402 304.452L881.700 280.647L874.899 227.087L598.597 251.742C583.294 211.784 573.092 165.876 569.692 115.716M326.546 114.866C274.687 204.133 187.120 290.849 100.404 345.259C114.006 356.311 137.811 380.116 148.013 392.018C180.319 369.064 214.325 341.009 246.631 309.553L246.631 493.187L307.843 493.187L307.843 244.090C336.748 209.234 363.103 172.677 385.207 136.120"/></svg>