<svg xmlns="http://www.w3.org/2000/svg" viewBox="0 0 1000 1000" fill="currentColor"><path d="M521.395 99.889C485.661 216.678 428.138 331.724 358.413 406.678C373.230 415.394 401.120 435.440 411.578 446.770C444.698 407.550 476.946 357.871 505.707 302.963L827.313 302.963C816.854 659.431 803.781 791.908 776.762 822.413C768.047 833.743 757.588 836.358 741.900 836.358C721.854 836.358 673.047 836.358 620.753 831.128C632.083 850.303 639.927 878.193 641.671 898.239C689.606 899.982 739.285 900.853 767.175 898.239C797.680 894.752 815.983 887.780 835.157 861.633C869.148 819.798 880.478 681.220 892.680 277.687C893.552 268.100 893.552 242.825 893.552 242.825L851.717 242.825L535.340 241.953C553.643 200.990 570.203 158.283 583.276 114.705M510.936 464.201L657.359 464.201L657.359 640.257L510.936 640.257M450.799 407.550L450.799 757.917L510.936 757.917L510.936 696.908L716.625 696.908L716.625 407.550M225.064 100.760L225.064 272.458L119.606 272.458L119.606 333.467L225.064 333.467L225.064 528.697L107.404 562.688L123.963 627.183L225.064 594.064L225.064 819.798C225.064 832 221.578 835.486 210.248 835.486C199.789 836.358 165.798 836.358 128.321 835.486C137.037 853.789 144.881 881.679 147.496 897.367C203.275 898.239 237.266 895.624 258.184 885.165C279.973 874.706 288.688 856.404 288.688 819.798L288.688 573.146L388.046 540.899L379.331 481.633L288.688 509.522L288.688 333.467L383.689 333.467L383.689 272.458L288.688 272.458L288.688 100.760"/></svg>