<svg xmlns="http://www.w3.org/2000/svg" viewBox="0 0 1000 1000" fill="currentColor"><path d="M225.749 105.514L225.749 892.666L287.420 892.666L287.420 105.514M143.522 270.824C137.527 340.203 122.109 434.422 99.839 490.953L152.088 508.940C174.358 447.270 190.632 347.912 194.058 277.677M294.272 263.116C319.111 315.364 345.664 383.887 355.086 425.857L405.621 401.874C395.343 360.760 367.934 293.951 340.525 243.415M758.512 357.334L758.512 463.544L486.135 463.544L486.135 357.334M758.512 303.373L486.135 303.373L486.135 199.732L758.512 199.732M420.182 893.522C437.313 882.388 464.722 872.966 646.306 823.287C643.737 809.582 642.024 782.173 642.880 763.330L486.135 801.874L486.135 520.075L570.931 520.075C618.897 693.951 708.833 825 856.156 887.527C865.578 870.396 884.422 844.700 899.839 831.852C824.465 804.443 763.651 758.191 716.542 697.377C764.507 669.111 822.752 629.711 867.291 592.880L824.465 547.484C789.347 580.889 731.959 622.859 686.563 652.837C661.724 612.580 642.880 568.041 628.319 520.075L821.039 520.075L821.039 143.201L423.608 143.201L423.608 779.604C423.608 815.578 404.764 832.709 391.060 840.418C401.338 853.266 415.899 878.961 420.182 893.522"/></svg>