<svg xmlns="http://www.w3.org/2000/svg" viewBox="0 0 1000 1000" fill="currentColor"><path d="M225.521 664.406L225.521 900.414L288.861 900.414L288.861 870.913L712.289 870.913L712.289 897.811L779.100 897.811L779.100 664.406M288.861 817.985L288.861 717.334L712.289 717.334L712.289 817.985M692.332 470.046C681.052 496.076 662.831 531.651 646.345 559.416L530.076 559.416L530.076 469.178L866.735 469.178L866.735 417.985L530.076 417.985L530.076 357.247L786.041 357.247L786.041 307.790L530.076 307.790L530.076 247.920L839.837 247.920L839.837 196.727L667.169 196.727C683.655 173.299 701.876 145.534 718.362 116.033L651.551 100.414C639.403 128.180 616.844 169.829 598.623 196.727L358.275 196.727L390.380 186.315C380.835 162.020 360.011 128.180 338.319 103.017L280.184 120.371C296.670 142.931 314.892 173.299 325.304 196.727L159.577 196.727L159.577 247.920L463.265 247.920L463.265 307.790L212.505 307.790L212.505 357.247L463.265 357.247L463.265 417.985L137.017 417.985L137.017 469.178L291.464 469.178L235.933 483.928C252.419 506.488 270.640 535.989 280.184 559.416L110.987 559.416L110.987 612.345L889.295 612.345L889.295 559.416L714.024 559.416C728.774 536.857 743.525 510.826 757.408 484.796M463.265 469.178L463.265 559.416L337.451 559.416L348.731 555.946C339.187 530.783 318.362 496.076 295.803 469.178"/></svg>