<svg xmlns="http://www.w3.org/2000/svg" viewBox="0 0 1000 1000" fill="currentColor"><path d="M141.476 179.246C202.411 202.750 278.146 241.052 314.707 270.650L348.657 220.160C310.355 190.563 232.879 154.872 173.684 134.850M387.830 705.905C440.931 732.021 507.090 771.194 539.299 799.050L573.249 759.007C538.429 731.150 472.270 693.718 420.039 670.214M105.785 395.133L124.936 454.328C191.965 430.824 278.146 401.226 359.974 372.499L349.528 316.787C258.124 347.255 166.720 377.723 105.785 395.133M191.095 900.029C211.987 891.324 245.937 887.842 517.536 863.468C518.407 851.281 521.018 827.777 524.501 812.108L289.462 829.518C305.132 784.251 324.283 719.834 343.434 658.898L641.149 658.898L633.314 811.237C632.444 869.561 655.948 886.101 717.754 886.101L797.841 886.101C874.446 886.101 884.892 847.799 893.597 759.877C877.058 755.524 855.295 747.690 840.496 733.762C837.014 808.626 830.921 830.388 799.582 830.388L729.071 830.388C704.696 830.388 697.732 825.165 697.732 801.662L709.049 608.408L358.233 608.408L378.255 543.120L872.705 543.120L872.705 488.277L126.677 488.277L126.677 543.120L309.484 543.120C287.721 617.984 241.584 776.417 225.915 803.403C215.469 823.424 185.872 830.388 162.368 834.741C171.073 851.281 186.742 883.490 191.095 900.029M481.845 100.029C460.083 161.836 413.946 234.959 343.434 288.060C357.362 295.894 378.255 314.175 388.701 328.974C426.133 298.506 456.601 263.686 480.975 227.995L582.825 227.995C558.450 325.492 501.867 391.651 327.765 426.471C339.952 437.788 355.621 463.033 361.715 477.831C494.033 448.234 567.156 398.615 608.940 329.844C656.818 406.449 737.776 452.587 856.165 471.738C863.129 455.198 878.799 430.824 892.727 418.637C759.539 403.838 673.358 357.701 635.055 274.132C640.279 259.333 644.631 244.534 648.113 227.995L782.172 227.995C769.985 255.851 756.057 283.707 743.869 303.729L798.712 320.269C821.345 286.319 846.590 233.218 869.223 185.339L823.086 172.282L811.769 174.893L513.184 174.893C525.371 153.131 534.947 131.368 543.652 109.605"/></svg>