<svg xmlns="http://www.w3.org/2000/svg" viewBox="0 0 1000 1000" fill="currentColor"><path d="M311.149 447.064L683.915 447.064L683.915 527.064L311.149 527.064M253.277 400.255L253.277 573.021L744.340 573.021L744.340 400.255M495.830 116C420.085 214.723 266.043 302.383 100.085 360.255C112.851 371.319 133.277 396 140.936 409.617C208.170 384.936 272 356 330.723 322.809L330.723 349.191L671.149 349.191L671.149 318.553C730.723 351.745 794.553 382.383 854.979 402.809C865.191 386.638 885.617 361.106 900.085 347.489C766.468 307.489 614.979 227.489 534.979 162.809L553.702 141.532M368.170 300.681C415.830 270.894 460.085 237.702 497.532 201.957C534.979 232.596 584.340 267.489 640.511 300.681M203.064 627.489L203.064 824.936L120.511 824.936L120.511 884.511L877.106 884.511L877.106 824.936L795.404 824.936L795.404 627.489M263.489 824.936L263.489 679.404L379.234 679.404L379.234 824.936M438.809 824.936L438.809 679.404L555.404 679.404L555.404 824.936M614.979 824.936L614.979 679.404L733.277 679.404L733.277 824.936"/></svg>