<svg xmlns="http://www.w3.org/2000/svg" viewBox="0 0 1000 1000" fill="currentColor"><path d="M116.819 335.066C116.819 418.118 112.448 524.774 107.202 591.215L287.294 591.215C278.552 750.325 268.935 813.270 254.073 829.006C245.331 837.748 237.463 838.623 222.601 838.623C205.990 838.623 164.902 838.623 121.190 834.252C132.555 851.736 140.423 877.963 141.297 898.070C184.135 899.819 226.098 900.693 248.828 898.945C274.180 896.322 289.917 891.077 304.778 872.718C329.257 845.617 339.748 767.810 350.238 561.492C351.113 552.749 351.113 533.516 351.113 533.516L168.398 533.516L172.770 395.388L351.113 395.388L351.113 142.735L100.208 142.735L100.208 202.183L287.294 202.183L287.294 335.066M531.204 875.340C545.192 865.724 567.922 856.982 707.799 817.641C714.793 842.994 720.912 866.598 724.409 887.580L773.366 871.843C759.378 804.528 725.283 701.368 691.188 622.688L645.728 637.550C662.339 676.016 678.949 721.476 692.937 766.062L577.538 794.911C636.112 662.902 637.860 508.163 637.860 391.891L637.860 198.686L728.780 183.824C741.894 476.691 768.121 747.703 849.424 897.196C860.789 880.586 883.519 858.730 899.255 848.239C822.323 717.105 796.096 448.716 782.983 173.333C816.203 166.339 847.676 158.471 875.651 150.603L825.820 99.898C731.403 128.747 567.922 154.100 424.548 169.836L424.548 340.311C424.548 488.056 416.680 705.740 332.754 863.101C345.867 868.347 372.094 887.580 381.711 898.945C470.008 733.715 483.996 494.176 483.996 340.311L483.996 217.919L581.035 206.554L581.035 391.891C581.035 528.271 579.287 702.243 489.241 829.880C501.480 838.623 523.336 863.101 531.204 875.340"/></svg>