<svg xmlns="http://www.w3.org/2000/svg" viewBox="0 0 1000 1000" fill="currentColor"><path d="M383.637 172.168C415.059 229.917 447.331 307.200 458.372 354.758L516.121 330.130C504.231 282.571 470.261 207.837 437.140 151.786M794.677 144.142C775.144 201.042 738.626 282.571 708.902 332.677L760.707 353.909C790.431 306.350 827.798 231.616 858.372 168.771M336.928 589.153L336.928 648.601L582.363 648.601L582.363 888.941L646.057 888.941L646.057 648.601L899.985 648.601L899.985 589.153L646.057 589.153L646.057 439.684L865.166 439.684L865.166 379.386L646.057 379.386L646.057 117.815L582.363 117.815L582.363 379.386L372.597 379.386L372.597 439.684L582.363 439.684L582.363 589.153M318.244 110.172C268.138 238.410 185.760 364.949 99.985 446.478C111.025 460.915 128.860 494.885 135.654 509.323C167.926 477.051 199.348 438.834 229.921 397.221L229.921 886.393L291.068 886.393L291.068 303.803C324.189 247.752 353.913 188.304 377.692 128.856"/></svg>