<svg xmlns="http://www.w3.org/2000/svg" viewBox="0 0 1000 1000" fill="currentColor"><path d="M456.962 275.335C434.621 365.561 396.812 454.927 346.973 513.359C361.581 521.092 389.078 538.278 401.108 547.730C426.028 515.937 449.229 474.691 468.992 430.008L579.841 430.008L579.841 537.419L578.982 567.494L350.410 567.494L350.410 625.926L570.389 625.926C549.766 704.121 489.615 787.473 311.742 849.342C326.350 861.372 345.255 883.713 353.847 897.462C515.394 837.311 587.575 759.116 620.228 680.061C666.629 784.895 743.966 853.638 860.829 890.588C869.422 873.402 887.467 850.201 900.357 837.311C776.619 805.518 695.845 734.197 657.177 625.926L882.311 625.926L882.311 567.494L643.429 567.494L644.288 538.278L644.288 430.008L849.658 430.008L849.658 372.435L493.053 372.435C502.505 344.938 511.098 317.440 518.831 289.084M515.394 114.648C527.424 141.286 541.173 173.939 550.625 202.295L242.140 202.295L242.140 412.822C225.813 374.154 191.441 314.863 160.507 271.898L108.950 292.521C139.025 339.782 173.396 403.369 188.864 442.038L242.140 417.977L242.140 459.223L240.421 531.404C188.004 562.338 137.306 590.695 100.357 608.740L123.557 666.313L235.265 596.710C224.954 688.654 197.456 784.895 130.432 859.653C145.899 866.527 173.396 886.291 184.567 898.321C291.119 778.020 306.586 593.273 306.586 459.223L306.586 262.446L894.342 262.446L894.342 202.295L622.806 202.295C612.494 172.220 593.590 132.693 578.982 100.899"/></svg>