<svg xmlns="http://www.w3.org/2000/svg" viewBox="0 0 1000 1000" fill="currentColor"><path d="M345.916 268.815L345.916 331.492L876.058 331.492L876.058 268.815M412.075 395.039C438.190 515.170 465.176 672.732 473.011 777.194L539.170 765.007C528.724 658.804 501.738 504.724 473.011 382.852M146.569 165.224C204.893 190.469 276.275 232.254 311.096 262.721L349.398 208.750C312.837 178.282 239.714 139.979 182.260 117.346M99.561 404.615C156.145 429.860 225.786 469.903 260.606 499.501L297.168 445.529C261.477 415.931 190.095 378.499 134.382 355.866M129.159 852.928L184.001 897.324C235.361 816.367 296.297 707.553 342.434 615.279L294.556 572.624C244.066 670.991 175.296 785.899 129.159 852.928M547.875 119.958C564.415 164.354 582.695 223.548 590.530 261.851L654.077 242.700C645.372 205.268 626.221 147.814 608.811 103.418M732.423 372.406C713.272 503.853 673.229 691.013 638.408 805.921L305.873 805.921L305.873 868.597L899.561 868.597L899.561 805.921L701.955 805.921C736.776 691.884 775.949 520.393 802.064 384.593"/></svg>