<svg xmlns="http://www.w3.org/2000/svg" viewBox="0 0 1000 1000" fill="currentColor"><path d="M860.411 106.259C783.604 131.286 648.976 151.998 536.786 162.354C543.690 176.162 551.457 196.874 553.183 210.682C666.236 202.915 803.453 183.929 892.342 156.313M557.498 252.106C579.073 295.256 604.100 352.214 614.456 388.460L661.058 372.063C649.839 335.817 623.949 280.585 602.374 238.298M825.028 208.956C812.083 257.284 788.782 331.502 768.070 376.378L814.672 387.597C836.247 343.584 857.822 277.133 878.534 221.038M185.546 353.940C198.491 405.720 210.573 473.033 214.888 518.772L251.997 509.279C247.682 465.266 233.874 398.816 221.792 347.036M670.551 234.846C682.633 278.859 695.578 335.817 699.893 373.789L745.632 363.433C741.317 326.324 728.372 269.366 714.564 225.353M127.725 716.399C136.355 706.043 153.615 694.824 245.956 651.674C229.559 730.207 193.313 804.425 117.369 867.424C129.451 874.328 145.848 889.862 154.478 900.218C289.969 786.302 307.229 635.277 307.229 485.978L307.229 244.339L259.764 244.339L259.764 485.978C259.764 523.950 258.901 561.922 254.586 599.031L179.505 629.236L179.505 227.079C234.737 202.052 291.695 171.847 336.571 139.053L283.928 100.218C249.408 132.149 188.135 170.121 131.177 196.874L131.177 618.880C131.177 649.948 118.232 658.578 107.876 662.030C115.643 676.701 124.273 701.728 127.725 716.399M344.338 172.710L344.338 895.040L391.803 895.040L391.803 355.666C408.200 408.309 425.460 473.896 431.501 517.909L471.198 506.690C463.431 460.951 443.583 391.912 426.323 338.406L391.803 347.036L391.803 225.353L471.198 225.353L471.198 667.208C471.198 674.975 469.472 677.564 461.706 677.564C453.939 678.427 430.638 678.427 404.748 677.564C411.652 692.235 418.556 715.536 421.145 730.207C456.528 730.207 482.417 729.344 498.814 718.988C516.074 710.358 520.389 693.961 520.389 668.071L520.389 172.710M680.907 546.388L680.907 617.154L542.827 617.154L542.827 673.249L680.907 673.249L680.907 822.548C680.907 832.041 678.318 834.630 667.962 835.493C655.880 836.356 619.634 835.493 578.210 834.630C585.977 851.890 594.607 875.191 596.333 891.588C650.702 891.588 687.811 891.588 710.249 882.095C734.413 872.602 740.454 856.205 740.454 823.411L740.454 673.249L888.027 673.249L888.027 617.154L740.454 617.154L740.454 563.648C783.604 528.265 829.343 481.663 861.274 437.650L822.439 410.898L812.083 413.487L569.580 413.487L569.580 466.992L766.344 466.992C741.317 496.334 710.249 525.676 680.907 546.388"/></svg>