<svg xmlns="http://www.w3.org/2000/svg" viewBox="0 0 1000 1000" fill="currentColor"><path d="M120.635 151.464L120.635 210.691L225.356 210.691C201.322 342.021 161.837 463.910 100.034 545.455C110.335 561.764 125.785 598.674 130.077 614.983C146.386 593.524 161.837 570.348 176.429 544.597L176.429 856.185L233.082 856.185L233.082 787.515L387.588 787.515L387.588 415.841L233.940 415.841C256.258 351.464 275.142 281.936 288.876 210.691L409.047 210.691L409.047 151.464M233.082 474.210L330.936 474.210L330.936 730.004L233.082 730.004M451.966 239.017L451.966 459.618C451.966 580.648 444.240 745.455 367.845 863.052C381.579 869.060 406.472 885.369 416.773 893.953C487.159 786.657 505.185 632.150 508.618 510.262C539.519 596.099 582.438 671.635 636.515 734.296C585.871 783.223 527.502 820.991 467.416 844.167C479.433 856.185 495.742 879.361 503.468 893.953C565.270 866.485 624.498 827.858 676.858 777.215C729.219 827 790.163 867.343 858.833 894.811C868.275 878.502 886.300 854.468 900.034 842.451C831.365 818.416 769.562 780.648 718.060 733.438C780.721 660.476 829.648 566.914 857.116 453.609L819.348 439.017L809.047 441.592L687.159 441.592L687.159 296.528L815.914 296.528C806.472 336.013 795.313 376.356 785.013 403.824L835.657 416.700C852.824 373.781 872.567 305.970 887.159 246.742L845.957 236.442L835.657 239.017L687.159 239.017L687.159 105.970L629.648 105.970L629.648 239.017M629.648 296.528L629.648 441.592L509.476 441.592L509.476 296.528M785.013 498.245C760.120 572.064 723.210 637.300 676.858 691.378C627.931 636.442 589.305 571.206 562.695 498.245"/></svg>