<svg xmlns="http://www.w3.org/2000/svg" viewBox="0 0 1000 1000" fill="currentColor"><path d="M447.275 706.984C431.087 758.102 402.120 825.408 368.042 866.302L416.604 893.565C451.535 849.263 478.798 780.253 495.837 726.579M540.140 725.727C550.363 775.142 558.031 839.891 558.883 881.638L612.557 873.118C611.705 831.372 602.333 767.474 590.406 718.060M650.044 723.171C670.491 772.586 691.790 836.483 698.606 878.230L751.428 863.747C742.908 822 722.461 758.954 700.310 710.392M764.208 717.208C793.175 769.178 829.809 839.891 845.145 885.046L899.671 862.895C882.632 819.444 846.849 750.435 816.178 699.316M621.929 126.792C639.820 161.723 661.119 209.433 671.343 239.252L728.425 213.693C717.349 185.578 696.050 140.424 676.455 106.345M117.562 151.499L117.562 210.285L216.391 210.285C195.092 340.637 158.457 460.765 99.671 542.554C109.895 559.593 125.230 595.376 129.490 611.563C144.825 591.116 159.309 568.113 172.088 543.406L172.088 850.967L227.466 850.967L227.466 782.809L369.745 782.809L369.745 413.906L226.614 413.906C247.914 350.009 264.953 280.999 277.733 210.285L384.229 210.285L384.229 151.499M227.466 471.840L315.219 471.840L315.219 725.727L227.466 725.727M645.784 416.462L645.784 488.028L504.357 488.028L504.357 416.462M503.505 105.493C471.130 209.433 415.752 310.818 350.150 376.420C362.930 388.347 383.377 414.758 391.045 426.686C409.788 406.239 428.531 382.383 446.423 355.972L446.423 699.316L504.357 699.316L504.357 666.089L885.187 666.089L885.187 611.563L706.274 611.563L706.274 537.442L858.776 537.442L858.776 488.028L706.274 488.028L706.274 416.462L856.220 416.462L856.220 366.196L706.274 366.196L706.274 295.482L880.928 295.482L880.928 241.808L512.024 241.808C530.768 202.618 547.807 161.723 561.439 119.977M645.784 366.196L504.357 366.196L504.357 295.482L645.784 295.482M645.784 537.442L645.784 611.563L504.357 611.563L504.357 537.442"/></svg>