<svg xmlns="http://www.w3.org/2000/svg" viewBox="0 0 1000 1000" fill="currentColor"><path d="M689.597 148.475C738.187 185.785 793.718 240.449 819.748 276.024L867.471 237.846C840.573 201.403 784.174 149.343 735.584 114.636M181.137 150.210L181.137 209.213L512.590 209.213L512.590 150.210M582.004 102.488C582.004 173.638 583.740 243.052 587.210 309.863L110.855 309.863L110.855 370.601L591.549 370.601C612.373 672.553 673.111 897.282 802.395 898.150C866.603 898.150 890.030 853.898 900.443 703.790C883.957 696.848 859.662 682.965 845.779 669.082C841.440 785.351 831.028 833.941 808.469 833.941C729.510 833.941 674.846 644.787 655.757 370.601L884.824 370.601L884.824 309.863L652.286 309.863C648.816 244.787 647.080 174.505 647.948 102.488M180.269 466.913L180.269 807.043L100.443 819.191L117.796 883.399C241.007 861.707 418.881 828.735 584.607 797.499L579.401 736.761L405.866 767.998L405.866 581.447L555.106 581.447L555.106 522.445L405.866 522.445L405.866 400.970L342.525 400.970L342.525 779.278L240.139 796.631L240.139 466.913"/></svg>