<svg xmlns="http://www.w3.org/2000/svg" viewBox="0 0 1000 1000" fill="currentColor"><path d="M272.687 415.624C299.041 445.379 326.247 486.187 336.448 514.242L377.256 492.988C367.054 464.933 338.999 424.125 310.944 396.070M216.576 107.866C193.622 205.634 153.664 301.702 100.104 364.614C114.557 373.116 140.912 390.969 151.964 401.171C163.016 386.718 174.068 369.715 185.120 352.712C181.719 402.871 177.469 458.982 172.368 515.092L110.306 515.092L110.306 568.652L167.267 568.652C160.465 638.366 152.814 705.528 145.163 754.837L407.862 754.837C402.761 789.694 396.810 809.248 390.009 817.749C383.207 827.951 375.556 830.502 362.803 830.502C347.501 830.502 314.344 829.651 278.638 827.101C287.139 842.404 293.090 866.208 294.791 882.361C329.647 884.912 366.204 885.762 388.308 883.211C412.113 879.811 427.416 873.010 441.018 852.606C452.070 838.153 460.572 809.248 466.523 754.837L542.187 754.837L542.187 701.277L471.624 701.277C475.024 665.571 477.575 621.362 480.125 568.652L547.288 568.652L547.288 515.092L481.826 515.092L486.927 368.015C486.927 359.513 486.927 337.409 486.927 337.409L193.622 337.409C207.224 313.605 219.126 288.100 231.029 260.895L535.386 260.895L535.386 203.934L252.283 203.934C262.485 176.729 270.986 148.674 277.787 119.768M262.485 596.708C290.540 628.164 319.445 670.672 331.348 701.277L211.475 701.277L225.078 568.652L421.464 568.652C418.914 623.063 416.363 666.421 413.813 701.277L335.598 701.277L373.855 680.023C362.803 650.268 331.348 606.060 302.442 576.304M424.015 515.092L230.179 515.092L240.380 391.819L428.266 391.819M626.353 329.758L781.932 329.758C766.629 438.578 742.825 532.096 706.268 610.310C669.711 528.695 643.356 433.477 626.353 329.758M620.402 107.866C597.447 245.592 556.640 381.617 494.578 468.334C509.031 477.685 533.685 498.939 543.037 509.141C559.190 485.337 574.493 457.282 588.096 427.526C608.499 519.343 635.705 603.509 670.561 674.922C627.203 743.785 568.542 799.046 492.028 839.853C503.930 851.756 526.034 876.410 533.685 887.462C603.399 845.804 658.659 794.795 702.867 733.583C742.825 799.046 792.984 852.606 855.046 891.713C865.248 874.710 884.801 851.756 900.104 840.704C833.792 803.296 781.082 745.486 739.424 674.922C789.583 581.405 821.889 467.484 842.293 329.758L889.052 329.758L889.052 271.097L644.206 271.097C658.659 221.787 670.561 169.928 679.913 117.218"/></svg>