<svg xmlns="http://www.w3.org/2000/svg" viewBox="0 0 1000 1000" fill="currentColor"><path d="M342.584 139.063L342.584 187.653L894.427 187.653L894.427 139.063M335.642 475.722L335.642 522.577L897.030 522.577L897.030 475.722M309.612 827.132L309.612 879.193L899.633 879.193L899.633 827.132M385.967 224.095L385.967 438.412L842.367 438.412L842.367 224.095M380.761 563.358L380.761 784.616L844.970 784.616L844.970 563.358M445.837 349.041L586.401 349.041L586.401 399.367L445.837 399.367M646.271 349.041L780.761 349.041L780.761 399.367L646.271 399.367M445.837 263.141L586.401 263.141L586.401 312.599L445.837 312.599M646.271 263.141L780.761 263.141L780.761 312.599L646.271 312.599M440.631 691.774L586.401 691.774L586.401 744.703L440.631 744.703M646.271 691.774L783.364 691.774L783.364 744.703L646.271 744.703M440.631 602.403L586.401 602.403L586.401 654.464L440.631 654.464M646.271 602.403L783.364 602.403L783.364 654.464L646.271 654.464M273.169 103.488C234.124 237.111 171.651 368.998 99.633 457.501C110.913 472.252 127.399 504.356 132.605 518.239C157.768 487.002 182.063 449.692 205.490 409.779L205.490 897.414L266.228 897.414L266.228 289.171C290.523 234.508 312.215 176.373 329.568 119.106"/></svg>