<svg xmlns="http://www.w3.org/2000/svg" viewBox="0 0 1000 1000" fill="currentColor"><path d="M210.902 469.781C275.111 536.592 342.790 629.434 369.688 691.039L428.690 653.729C400.056 591.256 329.774 501.017 265.566 435.941M616.108 100.150L616.108 284.965L111.119 284.965L111.119 349.174L616.108 349.174L616.108 801.234C616.108 822.059 609.167 828.132 588.343 829C564.915 829 489.427 829.868 408.733 827.265C420.013 847.221 433.896 879.325 438.234 900.150C531.944 900.150 598.755 898.414 634.330 887.134C670.772 875.855 684.655 855.030 684.655 801.234L684.655 349.174L889.427 349.174L889.427 284.965L684.655 284.965L684.655 100.150"/></svg>