<svg xmlns="http://www.w3.org/2000/svg" viewBox="0 0 1000 1000" fill="currentColor"><path d="M403.067 419.680L403.067 500.628L256.673 500.628L256.673 419.680M194.671 365.428L194.671 553.157C194.671 648.744 187.781 773.609 119.751 864.890C134.391 870.918 161.086 889.002 172.281 900.197C215.338 841.639 236.867 766.720 247.200 693.523L403.067 693.523L403.067 822.694C403.067 833.028 399.622 836.473 388.427 836.473C377.233 837.334 341.065 837.334 300.591 836.473C309.202 852.834 316.953 878.668 319.536 895.030C375.510 895.030 412.539 895.030 434.929 884.696C458.180 874.363 464.208 856.279 464.208 822.694L464.208 365.428M403.067 554.879L403.067 640.994L253.228 640.994C255.812 610.854 256.673 581.575 256.673 554.879M616.630 335.288L616.630 430.875L496.070 430.875L496.070 489.433L616.630 489.433C616.630 602.242 601.129 743.469 465.930 856.279C481.431 867.474 501.237 882.974 511.571 896.752C657.103 775.332 677.771 622.048 677.771 489.433L812.109 489.433C805.220 718.496 796.608 802.027 780.247 821.833C773.357 830.445 766.468 832.167 751.829 832.167C738.051 832.167 701.022 832.167 662.270 828.722C672.604 845.084 678.632 871.779 680.354 890.724C719.105 892.447 758.718 892.447 781.108 889.863C805.220 887.280 820.720 881.252 835.360 861.446C858.610 831.306 866.361 735.719 874.972 460.154C875.833 451.543 875.833 430.875 875.833 430.875L677.771 430.875L677.771 335.288M245.478 100.197C215.338 181.144 164.531 261.230 107.695 312.899C123.196 321.510 150.752 339.594 162.808 349.067C192.087 318.927 220.505 281.037 246.339 237.980L286.813 237.980C307.480 274.147 326.425 317.205 335.037 345.622L392.733 324.955C384.983 300.843 369.482 268.119 352.259 237.980L498.653 237.980L498.653 182.867L276.479 182.867C287.674 161.338 298.008 138.087 306.619 115.698M578.740 100.197C549.461 182.005 496.070 257.786 434.068 306.871C449.568 315.482 477.125 334.427 489.181 344.761C521.043 316.343 552.044 279.314 579.601 237.980L643.325 237.980C668.298 273.286 693.271 318.066 704.466 347.344L761.301 325.816C751.829 300.843 732.023 268.119 711.355 237.980L892.195 237.980L892.195 182.867L612.324 182.867C623.519 161.338 633.853 138.948 642.464 115.698"/></svg>