<svg xmlns="http://www.w3.org/2000/svg" viewBox="0 0 1000 1000" fill="currentColor"><path d="M226.324 344.676L402.757 344.676L402.757 425.973L226.324 425.973M168.378 297.973L168.378 472.676L462.432 472.676L462.432 297.973M266.108 117.216C279.946 142.297 293.784 173.432 303.297 200.243L100.054 200.243L100.054 254.730L532.486 254.730L532.486 200.243L371.622 200.243C362.973 171.703 343.946 132.784 326.649 102.514M641.459 102.514L641.459 401.757L513.459 401.757L513.459 461.432L555.838 461.432C581.784 556.568 618.973 644.784 667.405 718.297C619.838 774.514 564.486 817.757 505.676 845.432C519.514 857.541 536.811 881.757 544.595 897.324C603.405 866.189 657.892 823.811 704.595 770.189C747.838 823.811 798.865 867.054 856.811 898.189C866.324 881.757 886.216 859.270 900.054 847.162C839.514 818.622 786.757 775.378 742.649 720.892C799.730 639.595 842.973 537.541 865.459 412.135L825.676 399.162L815.297 401.757L704.595 401.757L704.595 285.865L881.892 285.865L881.892 227.054L704.595 227.054L704.595 102.514M125.135 519.378L125.135 897.324L180.486 897.324L180.486 568.676L450.324 568.676L450.324 834.189C450.324 843.703 446.865 846.297 436.486 847.162C426.108 847.162 390.649 848.027 353.459 846.297C360.378 860.135 369.027 880.027 371.622 893.865C424.378 894.730 458.108 893.865 478.865 885.216C499.622 877.432 505.676 862.730 505.676 834.189L505.676 519.378M612.054 461.432L793.676 461.432C773.784 540.135 743.514 609.324 704.595 668.135C664.811 606.730 633.676 536.676 612.054 461.432M228.054 617.108L228.054 832.459L270.432 832.459L270.432 786.622L401.892 786.622L401.892 617.108M270.432 656.027L357.784 656.027L357.784 747.703L270.432 747.703"/></svg>