<svg xmlns="http://www.w3.org/2000/svg" viewBox="0 0 1000 1000" fill="currentColor"><path d="M191.590 564.637C212.324 557.726 237.378 554.270 357.464 546.495C342.778 696.819 301.309 790.987 109.516 841.959C125.067 855.782 143.210 882.564 150.121 899.842C360.920 837.639 411.028 721.009 427.443 543.039L556.168 536.127L556.168 783.212C556.168 856.646 578.631 877.380 658.112 877.380C675.391 877.380 771.287 877.380 789.430 877.380C863.728 877.380 881.870 841.959 889.646 708.050C870.639 702.866 842.130 691.635 828.307 678.676C823.987 796.171 817.940 816.041 784.246 816.041C762.648 816.041 683.166 816.041 666.752 816.041C631.330 816.041 625.283 810.857 625.283 782.348L625.283 531.808L747.097 525.760C766.968 547.359 784.246 568.093 797.205 586.235L855.089 548.222C808.436 486.883 711.676 397.898 631.330 334.832L578.631 367.661C615.780 397.898 655.521 433.320 692.670 469.605L285.758 487.747C340.186 435.911 396.341 371.981 446.449 304.594L870.639 304.594L870.639 241.527L119.883 241.527L119.883 304.594L359.192 304.594C308.220 374.572 250.337 437.639 228.739 455.782C206.276 479.108 186.406 494.659 169.127 498.114C176.903 517.121 188.134 550.814 191.590 564.637M429.171 119.713C455.089 156.862 485.326 208.698 498.285 241.527L565.672 217.337C550.985 186.235 520.747 136.991 493.965 99.842"/></svg>