<svg xmlns="http://www.w3.org/2000/svg" viewBox="0 0 1000 1000" fill="currentColor"><path d="M505.851 464.085C551.053 529.757 597.109 616.751 614.166 672.188L672.162 642.337C654.252 586.900 606.490 502.465 558.729 439.352M742.951 108.435L742.951 289.245L487.940 289.245L487.940 350.652L742.951 350.652L742.951 804.384C742.951 820.588 736.981 824.853 721.629 825.706C704.571 825.706 650.840 826.559 592.844 824.853C603.079 843.616 613.313 873.467 616.725 892.230C690.072 892.230 739.539 890.525 767.684 879.437C795.829 869.203 807.770 849.586 807.770 804.384L807.770 350.652L899.881 350.652L899.881 289.245L807.770 289.245L807.770 108.435M272.162 107.582L272.162 290.098L120.350 290.098L120.350 351.505L262.780 351.505C230.371 470.055 164.699 602.252 99.881 674.746C111.821 690.098 128.026 716.537 135.701 734.448C186.021 674.746 235.488 576.665 272.162 475.173L272.162 891.377L333.569 891.377L333.569 503.318C366.832 544.256 407.770 597.134 425.680 626.132L466.618 572.401C447.855 548.520 361.714 455.557 333.569 429.117L333.569 351.505L462.354 351.505L462.354 290.098L333.569 290.098L333.569 107.582"/></svg>