<svg xmlns="http://www.w3.org/2000/svg" viewBox="0 0 1000 1000" fill="currentColor"><path d="M308.558 685.478L308.558 814.681C308.558 881.938 334.221 899.637 431.566 899.637C451.920 899.637 591.743 899.637 612.982 899.637C691.743 899.637 711.212 873.973 720.947 766.009C702.363 762.469 674.929 752.735 660.770 742.115C656.345 828.841 649.265 841.230 607.673 841.230C575.814 841.230 459 841.230 436.876 841.230C385.549 841.230 376.699 836.805 376.699 814.681L376.699 685.478M705.018 695.212C758.115 748.310 812.982 822.646 835.991 871.319L897.053 840.345C873.159 790.788 814.752 719.106 761.655 667.779M215.637 678.398C191.743 734.150 151.920 803.177 102.363 844.770L160.770 879.283C210.327 833.265 247.496 762.469 274.044 703.177M265.195 218.221L467.850 218.221L467.850 298.752L265.195 298.752M537.761 218.221L740.416 218.221L740.416 298.752L537.761 298.752M165.195 402.292L165.195 590.788L467.850 590.788L467.850 643.885L446.611 635.035L406.788 675.743C468.735 701.407 543.956 744.770 579.354 779.283L620.947 734.150C591.743 707.602 539.531 676.628 488.204 652.735L537.761 652.735L537.761 590.788L842.186 590.788L842.186 402.292L537.761 402.292L537.761 349.195L810.327 349.195L810.327 166.894L537.761 166.894L537.761 99.637L467.850 99.637L467.850 166.894L198.823 166.894L198.823 349.195L467.850 349.195L467.850 402.292M233.336 452.735L467.850 452.735L467.850 540.345L233.336 540.345M537.761 452.735L770.504 452.735L770.504 540.345L537.761 540.345"/></svg>