<svg xmlns="http://www.w3.org/2000/svg" viewBox="0 0 1000 1000" fill="currentColor"><path d="M769.279 494.953C665.416 516.412 464.558 530.146 301.468 534.438C306.618 544.738 312.627 562.764 313.485 574.781C384.730 573.923 461.983 570.489 536.661 565.339L536.661 618.558L287.734 618.558L287.734 663.193L536.661 663.193L536.661 720.704L242.240 720.704L242.240 767.056L536.661 767.056L536.661 831.433C536.661 843.451 532.369 846.884 517.777 848.601C503.185 848.601 448.249 848.601 393.313 846.884C401.039 862.335 409.622 882.936 413.056 897.528C487.734 897.528 534.086 897.528 562.412 889.803C591.597 882.077 600.180 867.485 600.180 832.292L600.180 767.056L892.026 767.056L892.026 720.704L600.180 720.704L600.180 663.193L852.541 663.193L852.541 618.558L600.180 618.558L600.180 561.047C679.150 554.180 752.970 544.738 810.481 531.863M389.880 241.734L389.880 297.528L263.700 297.528L263.700 342.163L376.146 342.163C342.670 386.798 291.167 429.717 243.957 452.034C254.258 460.618 269.708 476.927 277.433 488.944C316.060 467.485 357.262 430.575 389.880 390.232L389.880 500.103L439.665 500.103L439.665 389.373C468.850 411.691 504.043 439.159 518.635 452.893L552.112 416.841C534.944 403.966 466.275 361.906 439.665 347.313L439.665 342.163L558.979 342.163L558.979 297.528L439.665 297.528L439.665 241.734M698.893 241.734L698.893 297.528L581.296 297.528L581.296 342.163L681.725 342.163C649.107 385.082 599.322 426.283 552.970 447.742C564.129 456.326 578.721 472.635 586.446 483.794C625.073 463.193 666.275 427.142 698.893 386.798L698.893 492.378L749.536 492.378L749.536 384.223C783.013 424.567 826.790 464.052 863.700 486.369C872.283 474.352 887.734 457.185 899.751 448.601C855.116 426.283 803.614 384.223 769.279 342.163L880.009 342.163L880.009 297.528L749.536 297.528L749.536 241.734M484.300 114.695C492.884 132.721 502.326 154.180 509.193 174.781L164.987 174.781L164.987 443.451C164.987 567.914 159.837 737.871 99.751 859.760C114.343 866.627 140.094 886.369 150.395 899.245C215.631 767.914 225.073 574.781 225.073 443.451L225.073 227.142L890.309 227.142L890.309 174.781L581.296 174.781C572.712 151.605 559.837 123.279 547.820 100.103"/></svg>