<svg xmlns="http://www.w3.org/2000/svg" viewBox="0 0 1000 1000" fill="currentColor"><path d="M603.660 127.710L603.660 408.626L665.601 408.626L665.601 127.710M790.356 104.155L790.356 433.053C790.356 443.522 785.993 446.140 773.780 447.012C761.566 447.884 718.818 447.884 674.325 446.140C682.177 462.715 691.773 485.398 695.263 501.974C756.332 501.974 795.590 501.974 820.017 492.377C845.317 482.781 852.297 467.077 852.297 433.926L852.297 104.155M275.634 497.612C246.844 561.298 197.989 622.366 143.900 664.242C159.603 672.094 187.520 688.670 200.606 699.138C225.034 678.201 249.461 651.156 272.144 621.494L469.309 621.494L469.309 705.245L114.238 705.245L114.238 762.824L469.309 762.824L469.309 899.793L537.357 899.793L537.357 762.824L894.172 762.824L894.172 705.245L537.357 705.245L537.357 621.494L813.911 621.494L813.911 564.787L537.357 564.787L537.357 480.164L469.309 480.164L469.309 564.787L311.402 564.787C320.999 548.212 330.595 531.636 338.447 514.188M462.329 99.793C388.174 121.603 245.972 136.434 127.324 143.413C134.303 155.627 142.155 175.692 143.900 187.906C193.627 186.161 247.716 181.799 300.061 176.565L300.061 247.230L115.983 247.230L115.983 299.575L277.378 299.575C233.758 358.899 166.582 417.350 106.386 447.012C119.472 457.481 136.920 477.546 146.517 491.505C198.862 460.098 256.441 406.881 300.061 350.174L300.061 495.867L363.747 495.867L363.747 355.409C401.261 386.816 448.371 429.564 469.309 450.502L502.460 403.391C481.522 385.943 394.281 318.768 363.747 299.575L539.101 299.575L539.101 247.230L363.747 247.230L363.747 168.713C418.709 161.734 470.181 151.265 512.057 139.051"/></svg>