<svg xmlns="http://www.w3.org/2000/svg" viewBox="0 0 1000 1000" fill="currentColor"><path d="M524.738 415.025C543.018 443.752 565.652 483.795 576.968 509.040L298.405 509.040L298.405 563.012L463.802 563.012C449.874 697.941 413.312 798.050 258.361 851.151C271.419 862.468 288.829 885.101 295.793 899.900C415.053 856.374 473.378 785.863 502.975 693.589L762.387 693.589C753.682 782.381 744.107 820.683 729.308 833.741C722.344 839.835 713.639 840.705 697.099 840.705C679.689 840.705 630.940 839.835 583.062 835.482C592.638 851.151 599.602 873.785 601.343 890.324C650.091 892.936 697.970 893.806 722.344 892.065C749.330 890.324 766.740 885.972 782.409 871.173C805.913 849.410 818.100 796.309 829.417 667.473C830.287 658.768 831.158 641.358 831.158 641.358L516.033 641.358C521.256 616.984 524.738 589.998 528.220 563.012L886 563.012L886 509.040L587.415 509.040L637.034 489.018C625.717 463.774 601.343 424.601 580.450 395.003M471.637 118.181C482.083 139.073 492.529 164.318 501.234 187.822L204.390 187.822L204.390 395.003C204.390 531.674 196.555 729.280 113.856 868.561C131.267 874.655 159.993 889.454 173.051 899.900C257.491 754.524 270.548 539.508 270.548 395.003L270.548 391.521L856.403 391.521L856.403 187.822L573.486 187.822C563.911 160.836 549.112 127.756 535.184 99.900M270.548 243.534L791.114 243.534L791.114 335.808L270.548 335.808"/></svg>