<svg xmlns="http://www.w3.org/2000/svg" viewBox="0 0 1000 1000" fill="currentColor"><path d="M834.215 99.770C725.402 130.238 528.666 151.131 365.010 160.706C371.974 175.505 380.679 199.009 381.550 215.548C548.688 206.843 748.035 186.822 876 152.001M392.866 252.980C417.240 295.635 445.097 353.960 456.413 391.392L512.126 367.888C499.939 331.326 472.083 274.743 446.838 232.088M553.911 235.570C571.321 280.837 591.343 341.773 600.048 380.946L658.372 360.924C649.667 321.751 628.775 262.556 609.624 217.289M792.431 199.879C773.280 252.110 735.848 325.233 706.250 370.499L757.610 392.262C787.208 348.737 823.769 282.578 853.367 225.995M153.476 154.613C204.836 184.210 274.477 226.865 309.297 253.851L347.600 199.879C311.038 175.505 241.397 135.461 190.908 108.476M109.079 390.521C161.310 418.378 231.822 459.292 268.383 483.666L304.945 429.694C268.383 405.320 197.001 367.888 144.770 343.514M131.713 847.540L188.296 888.454C236.174 806.626 291.887 696.941 334.542 603.797L284.052 563.753C237.915 663.862 175.238 779.640 131.713 847.540M590.472 559.400L590.472 607.279L346.729 607.279L346.729 667.344L590.472 667.344L590.472 830.129C590.472 840.576 586.990 843.187 573.062 843.187C561.745 844.058 515.608 844.058 470.342 842.317C479.047 858.856 490.363 883.231 492.975 899.770C553.040 899.770 593.084 899.770 619.199 891.065C646.185 881.490 654.020 865.820 654.020 831L654.020 667.344L891.669 667.344L891.669 607.279L654.020 607.279L654.020 580.293C714.955 540.249 781.114 483.666 826.381 432.306L783.726 399.226L769.798 402.708L395.478 402.708L395.478 461.903L712.344 461.903C676.653 497.594 631.386 535.026 590.472 559.400"/></svg>