<svg xmlns="http://www.w3.org/2000/svg" viewBox="0 0 1000 1000" fill="currentColor"><path d="M281.881 409.942L726.609 409.942L726.609 464.469L281.881 464.469M281.881 314.522L726.609 314.522L726.609 369.048L281.881 369.048M465.054 606.748L465.054 665.534L308.292 665.534C331.295 646.790 352.594 627.195 370.486 606.748M528.100 606.748L634.596 606.748C651.636 627.195 672.935 646.790 695.086 665.534L528.100 665.534M220.539 271.923L220.539 507.919L371.338 507.919C362.818 523.255 351.742 539.442 338.963 554.777L119.154 554.777L119.154 606.748L289.548 606.748C241.838 649.346 178.792 689.389 100.411 720.060C113.191 729.431 131.082 751.583 137.898 766.918C180.496 748.175 218.835 727.727 252.914 705.576L252.914 864.895L314.256 864.895L314.256 717.504L465.054 717.504L465.054 892.158L528.100 892.158L528.100 717.504L695.938 717.504L695.938 803.553C695.938 812.072 693.382 814.628 683.159 815.480C673.787 815.480 641.412 815.480 604.777 813.776C611.593 828.260 620.113 846.151 622.669 861.487C674.639 861.487 709.570 862.339 730.869 853.819C752.168 845.299 758.132 832.520 758.132 803.553L758.132 708.984C791.359 729.431 827.142 745.619 862.072 757.546C870.592 742.211 887.632 720.060 900.411 708.984C829.698 689.389 754.724 651.050 702.754 606.748L880.816 606.748L880.816 554.777L413.084 554.777C424.160 539.442 433.531 524.106 442.903 507.919L790.507 507.919L790.507 271.923M608.185 108.345L608.185 162.871L387.525 162.871L387.525 108.345L325.331 108.345L325.331 162.871L130.230 162.871L130.230 216.545L325.331 216.545L325.331 257.440L387.525 257.440L387.525 216.545L608.185 216.545L608.185 254.884L671.231 254.884L671.231 216.545L870.592 216.545L870.592 162.871L671.231 162.871L671.231 108.345"/></svg>