<svg xmlns="http://www.w3.org/2000/svg" viewBox="0 0 1000 1000" fill="currentColor"><path d="M515.718 691.646C548.512 752.919 584.758 833.178 600.292 881.506L652.935 857.342C635.675 810.740 596.840 732.207 564.909 672.660M320.681 887.547C335.352 875.465 360.379 865.109 527.800 807.288C525.211 794.343 523.485 769.316 524.348 752.919L394.036 793.480L394.036 582.045L610.648 582.045C648.620 761.549 721.112 888.410 812.590 888.410C866.959 888.410 890.260 853.890 899.753 733.070C884.219 727.892 861.781 715.810 847.973 702.865C845.384 789.165 836.754 826.274 816.905 826.274C764.262 826.274 707.304 728.755 674.510 582.045L867.822 582.045L867.822 524.224L663.291 524.224C655.524 475.896 650.346 424.117 647.757 369.748C715.934 361.981 780.659 352.488 833.302 341.269L783.248 291.215C678.825 314.516 491.554 330.050 333.626 336.091L333.626 784.850C333.626 817.644 312.051 828 297.380 833.178C306.010 846.123 316.366 872.013 320.681 887.547M600.292 524.224L394.036 524.224L394.036 387.871C456.172 385.282 520.896 380.967 584.758 375.789C587.347 427.569 592.525 476.759 600.292 524.224M484.650 119.478C498.458 140.190 512.266 166.080 522.622 190.244L177.423 190.244L177.423 439.650C177.423 564.785 171.382 740.837 99.753 864.246C115.287 871.150 142.903 889.273 154.122 900.492C229.203 769.316 240.422 573.415 240.422 439.650L240.422 248.928L894.575 248.928L894.575 190.244L594.251 190.244C583.032 161.765 564.046 127.245 545.060 100.492"/></svg>