<svg xmlns="http://www.w3.org/2000/svg" viewBox="0 0 1000 1000" fill="currentColor"><path d="M309.220 677.361L309.220 813.925C309.220 881.767 333.890 900.269 429.044 900.269C449.308 900.269 587.634 900.269 608.780 900.269C688.956 900.269 709.220 872.956 717.150 757.537C700.410 753.132 672.216 743.441 657.238 732.868C653.714 828.022 646.665 840.357 603.493 840.357C572.656 840.357 456.357 840.357 433.449 840.357C383.229 840.357 373.537 835.952 373.537 813.925L373.537 677.361M442.260 676.480C473.097 707.317 510.982 752.251 529.485 779.564L580.586 750.489C562.084 723.176 522.436 680.004 491.599 650.048M725.079 674.718C764.727 731.106 814.947 807.758 837.855 852.692L893.361 816.568C868.692 773.396 816.709 699.388 777.062 644.762M188.515 664.145C170.894 718.771 139.176 791.899 104.815 836.833L164.727 867.670C197.326 819.211 226.401 743.441 244.903 688.815M522.436 627.141C540.938 618.330 570.013 614.806 807.899 594.542C818.471 613.044 827.282 629.784 833.449 643.881L885.432 620.974C867.811 578.683 824.639 513.485 787.634 466.789L737.414 486.172C751.511 504.674 766.489 526.700 780.586 548.727L609.661 561.062C683.670 500.269 760.322 422.736 829.044 339.916L771.775 313.485C751.511 340.797 728.604 368.110 706.577 393.661L576.181 402.471C614.947 365.467 653.714 318.771 686.313 270.313L673.978 265.026L895.123 265.026L895.123 207.758L659 207.758C680.145 182.207 703.053 152.251 723.317 122.295L649.308 101.150C634.330 131.987 608.780 176.040 585.872 207.758L406.137 207.758C389.396 176.921 356.797 132.868 331.247 100.269L271.335 125.819C289.837 150.489 310.982 181.326 326.841 207.758L109.220 207.758L109.220 265.026L270.454 265.026C234.330 318.771 186.753 368.110 170.013 382.207C155.035 398.066 140.057 407.758 125.960 410.401C132.128 423.617 140.057 448.286 143.581 461.502L144.463 463.264L144.463 464.145L145.344 462.383C159.441 457.097 183.229 452.692 300.410 441.238C257.238 483.529 219.352 515.247 201.731 528.463C170.013 553.132 146.225 568.991 125.960 572.515C133.009 588.374 141.819 617.449 145.344 629.784C164.727 621.855 193.802 618.330 435.211 598.947C442.260 613.925 448.427 627.141 452.833 638.595L503.053 615.687C488.075 577.802 451.070 516.128 418.471 472.075L371.775 490.577C384.110 509.079 397.326 530.225 409.661 551.370L238.736 562.824C317.150 502.912 396.445 428.903 467.811 348.727L419.352 314.366C398.207 340.797 375.300 366.348 351.511 391.018L221.996 399.828C260.762 363.705 300.410 317.890 335.652 271.194L322.436 265.026L619.352 265.026C585.872 317.890 540.938 368.110 525.960 382.207C511.863 398.066 496.885 408.639 483.670 410.401C490.718 425.379 499.529 453.573 503.053 466.789C516.269 460.621 536.533 456.216 658.119 445.643C621.115 483.529 588.515 513.485 572.656 525.819C545.344 549.608 523.317 566.348 503.934 568.991C510.101 584.850 519.793 613.925 522.436 627.141"/></svg>