<svg xmlns="http://www.w3.org/2000/svg" viewBox="0 0 1000 1000" fill="currentColor"><path d="M176.968 683.204C160.624 736.538 132.237 789.871 99.548 827.720C112.452 834.602 134.817 848.366 145.140 856.968C176.968 816.538 208.796 754.602 228.581 696.108M370.516 700.409C392.882 739.118 415.247 791.591 422.129 826.860L470.301 805.355C460.839 771.806 437.613 720.194 414.387 681.484M157.183 496.538L157.183 548.151L451.376 548.151L451.376 496.538M170.946 300.409L226.860 300.409L226.860 407.935L170.946 407.935M271.591 300.409L328.366 300.409L328.366 407.935L271.591 407.935M373.097 300.409L430.731 300.409L430.731 407.935L373.097 407.935M109.871 142.989L109.871 194.602L226.860 194.602L226.860 253.957L123.634 253.957L123.634 454.387L480.624 454.387L480.624 253.957L373.097 253.957L373.097 194.602L496.108 194.602L496.108 142.989M271.591 253.957L271.591 194.602L328.366 194.602L328.366 253.957M115.032 604.925L115.032 657.398L281.054 657.398L281.054 833.742C281.054 842.344 277.613 844.065 269.011 844.065C260.409 844.925 233.742 844.925 201.914 844.065C209.656 857.828 218.258 879.333 220.839 893.957C264.710 893.957 293.097 893.097 312.022 885.355C330.946 875.892 336.108 862.129 336.108 834.602L336.108 657.398L481.484 657.398L481.484 604.925M608.796 864.710C620.839 855.247 638.903 847.505 748.151 812.237C753.312 836.323 756.753 858.688 758.473 877.613L803.204 861.269C794.602 795.032 769.656 695.247 743.849 617.828L701.699 633.312C714.602 672.022 726.645 715.892 736.968 759.763L646.645 785.570C699.118 651.376 700.839 493.097 700.839 376.968L700.839 195.462L758.473 183.419C769.656 468.151 789.441 738.258 853.957 893.097C864.280 875.032 884.925 851.806 899.548 839.763C837.613 704.710 816.108 438.043 805.785 172.237C831.591 165.355 855.677 157.613 877.183 149.871L835.892 105.140C767.075 132.667 643.204 156.753 536.538 171.376L536.538 339.978C536.538 483.634 530.516 699.548 466.860 853.527C478.043 859.548 501.269 879.333 509.871 891.376C576.968 727.935 587.290 490.516 587.290 339.978L587.290 214.387L650.086 204.925L650.086 376.968C650.086 512.882 648.366 690.086 570.946 814.817C582.129 824.280 601.914 850.946 608.796 864.710"/></svg>