<svg xmlns="http://www.w3.org/2000/svg" viewBox="0 0 1000 1000" fill="currentColor"><path d="M200.476 199.690L362.187 199.690L362.187 350.278L200.476 350.278M99.513 790.064L110.636 852.524C201.332 831.134 324.540 801.187 441.759 771.241L435.770 713.914L322.829 740.439L322.829 587.283L413.524 587.283C425.503 599.262 437.481 617.230 444.326 630.064C461.439 622.364 478.551 614.663 495.663 605.251L495.663 892.738L555.556 892.738L555.556 861.080L771.171 861.080L771.171 890.171L831.920 890.171L831.920 606.963L859.299 619.797C868.711 602.684 886.679 577.872 899.513 565.893C821.652 536.802 756.626 491.455 702.722 439.262C757.481 375.091 801.118 298.941 829.353 209.957L789.139 191.989L777.160 194.556L611.171 194.556C621.439 170.599 629.995 146.642 638.551 121.829L577.802 106.428C545.289 209.957 488.818 307.497 421.225 370.813L421.225 143.219L143.150 143.219L143.150 406.749L264.647 406.749L264.647 754.128L197.909 769.529L197.909 487.176L143.150 487.176L143.150 781.508M555.556 804.610L555.556 639.476L771.171 639.476L771.171 804.610M748.925 251.027C726.679 304.075 696.733 351.989 661.652 394.770C625.717 352.845 597.481 308.353 576.947 265.572L584.647 251.027M534.166 583.861C579.513 555.626 624.005 522.257 663.364 482.043C700.155 519.690 742.080 554.770 789.995 583.861M623.150 437.551C565.824 495.733 498.230 541.080 429.781 571.027L429.781 529.957L322.829 529.957L322.829 406.749L421.225 406.749L421.225 379.369C435.770 389.636 457.160 407.604 466.572 417.872C493.952 390.492 520.476 357.123 544.433 319.476C565.824 357.979 591.492 398.193 623.150 437.551"/></svg>