<svg xmlns="http://www.w3.org/2000/svg" viewBox="0 0 1000 1000" fill="currentColor"><path d="M656.755 117.055L656.755 199.547L343.973 199.547L343.973 116.195L279.526 116.195L279.526 199.547L148.055 199.547L148.055 253.682L279.526 253.682L279.526 529.515L108.527 529.515L108.527 584.509L295.853 584.509C246.014 645.519 170.396 699.654 99.934 728.011C113.683 740.041 132.588 762.382 142.040 777.850C225.391 738.322 313.039 665.282 366.315 584.509L637.851 584.509C690.267 660.986 774.478 732.307 856.970 767.538C867.281 752.071 886.186 728.870 899.934 716.840C827.754 691.061 754.714 641.222 705.735 584.509L889.623 584.509L889.623 529.515L722.061 529.515L722.061 253.682L851.814 253.682L851.814 199.547L722.061 199.547L722.061 117.055M343.973 253.682L656.755 253.682L656.755 311.255L343.973 311.255M464.274 612.006L464.274 684.187L288.119 684.187L288.119 737.463L464.274 737.463L464.274 828.548L175.552 828.548L175.552 883.542L826.895 883.542L826.895 828.548L529.580 828.548L529.580 737.463L710.031 737.463L710.031 684.187L529.580 684.187L529.580 612.006M343.973 359.375L656.755 359.375L656.755 419.525L343.973 419.525M343.973 468.505L656.755 468.505L656.755 529.515L343.973 529.515"/></svg>