<svg xmlns="http://www.w3.org/2000/svg" viewBox="0 0 1000 1000" fill="currentColor"><path d="M222.998 107.818L222.998 892.449L284.471 892.449L284.471 107.818M143.596 272.599C139.327 342.609 124.812 436.526 100.052 492.022L151.280 510.806C175.186 449.333 190.554 350.293 193.115 279.429M294.716 255.523C312.646 294.797 328.868 347.732 335.698 379.322L381.803 359.685C375.826 328.949 357.043 278.575 339.113 240.155M834.311 257.231C732.710 273.453 550.853 284.552 401.440 287.967C406.562 299.920 412.539 318.703 414.247 330.656C474.012 329.803 538.046 328.095 601.226 324.680L601.226 366.515L366.434 366.515L366.434 413.474L601.226 413.474L601.226 456.163L414.247 456.163L414.247 678.148L601.226 678.148L601.226 724.253L399.732 724.253L399.732 771.211L601.226 771.211L601.226 823.292L354.481 823.292L354.481 871.958L899.199 871.958L899.199 823.292L660.991 823.292L660.991 771.211L866.755 771.211L866.755 724.253L660.991 724.253L660.991 678.148L852.240 678.148L852.240 456.163L660.991 456.163L660.991 413.474L900.052 413.474L900.052 366.515L660.991 366.515L660.991 320.411C736.979 315.288 808.697 308.458 865.901 299.920M472.304 585.085L601.226 585.085L601.226 638.874L472.304 638.874M660.991 585.085L792.475 585.085L792.475 638.874L660.991 638.874M472.304 495.438L601.226 495.438L601.226 547.519L472.304 547.519M660.991 495.438L792.475 495.438L792.475 547.519L660.991 547.519M711.365 107.818L711.365 170.998L551.707 170.998L551.707 107.818L494.503 107.818L494.503 170.998L367.288 170.998L367.288 217.956L494.503 217.956L494.503 264.061L551.707 264.061L551.707 217.956L711.365 217.956L711.365 262.353L768.569 262.353L768.569 217.956L895.783 217.956L895.783 170.998L768.569 170.998L768.569 107.818"/></svg>