<svg xmlns="http://www.w3.org/2000/svg" viewBox="0 0 1000 1000" fill="currentColor"><path d="M208.728 479.184L467.270 479.184L467.270 576.681L208.728 576.681M150.404 428.694L150.404 628.041L529.076 628.041L529.076 428.694M193.059 651.545C213.951 694.200 232.232 750.783 237.455 787.345L294.909 770.805C287.945 734.244 269.664 678.531 247.030 637.617M794.582 115.310C745.834 182.339 656.171 253.721 581.307 293.765C597.847 305.952 616.998 325.974 628.314 339.902C708.402 292.894 798.064 217.160 856.388 140.555M818.086 352.089C763.244 423.471 665.746 499.206 582.177 542.731C598.717 554.918 617.868 574.940 629.185 588.868C717.107 538.379 815.474 459.162 878.151 378.205M835.496 603.667C775.431 704.646 659.653 796.050 543.004 848.281C558.674 862.209 577.825 883.972 588.271 899.641C711.884 839.576 827.662 741.208 897.303 627.171M306.225 99.641L306.225 174.505L106.878 174.505L106.878 228.477L306.225 228.477L306.225 311.175L134.734 311.175L134.734 364.276L546.486 364.276L546.486 311.175L368.902 311.175L368.902 228.477L568.249 228.477L568.249 174.505L368.902 174.505L368.902 99.641M103.396 820.424L113.842 883.101C233.973 864.820 409.816 838.705 575.213 813.460L573.472 755.136L440.284 774.287C455.953 736.855 472.493 689.848 487.292 647.193L423.744 635.005C413.298 677.661 393.276 741.208 374.996 783.863C271.405 798.662 174.778 811.719 103.396 820.424"/></svg>