<svg xmlns="http://www.w3.org/2000/svg" viewBox="0 0 1000 1000" fill="currentColor"><path d="M282.630 123.870L282.630 389.668C282.630 531.253 265.257 706.714 100.219 826.584C114.117 837.008 140.176 862.198 149.731 875.227C325.192 747.540 350.382 543.414 350.382 391.405L350.382 188.148L625.735 188.148L625.735 744.934C625.735 830.927 646.582 854.380 712.597 854.380C726.495 854.380 795.985 854.380 809.014 854.380C878.504 854.380 893.270 803.131 900.219 655.466C881.110 650.254 855.051 638.093 837.679 625.064C834.204 756.226 830.730 790.102 804.671 790.102C789.904 790.102 735.181 790.102 723.021 790.102C697.831 790.102 693.488 784.022 693.488 745.802L693.488 123.870"/></svg>