<svg xmlns="http://www.w3.org/2000/svg" viewBox="0 0 1000 1000" fill="currentColor"><path d="M457.385 267.320C448.792 351.531 429.028 448.631 392.078 508.781L448.792 538.856C488.319 474.409 506.364 368.716 516.676 281.069M812.272 268.179C791.649 344.656 752.121 450.349 719.468 515.655L777.900 537.137C810.553 472.691 850.081 373.872 880.156 290.521M332.787 107.492C314.742 141.004 290.682 176.235 262.325 209.748C237.406 174.517 205.612 140.145 164.366 106.633L119.683 141.864C164.366 178.813 197.879 216.622 221.939 256.149C185.849 295.677 144.603 331.767 103.357 360.983C117.965 371.294 138.588 390.199 148.040 402.229C183.271 375.591 218.502 344.656 252.014 311.144C268.340 349.812 278.652 388.480 284.667 428.867C242.562 507.062 166.944 591.273 99.919 633.378C116.246 646.267 134.291 667.750 143.743 682.358C194.441 644.549 249.436 584.398 292.401 522.530L293.260 563.776C293.260 678.921 284.667 781.176 261.466 811.251C254.592 820.704 245.140 825 232.250 826.719C211.627 829.296 175.537 829.296 131.713 825.859C143.743 844.764 150.618 868.824 150.618 889.447C189.286 891.165 226.235 891.165 257.170 885.150C279.511 881.713 295.838 871.402 308.727 855.075C344.817 806.096 354.270 692.669 354.270 564.635C354.270 460.661 345.677 359.264 295.838 263.883C331.928 222.637 363.722 179.672 389.501 135.849M595.730 106.633L595.730 287.943C595.730 455.505 579.404 683.217 364.581 843.904C380.048 854.216 402.390 879.135 412.701 893.743C549.329 789.769 611.198 658.298 638.695 529.404C680.800 676.343 748.684 805.236 859.533 892.025C868.126 873.120 886.171 846.482 899.919 831.874C760.714 733.915 691.971 553.464 659.318 356.686L660.177 288.802L660.177 106.633"/></svg>