<svg xmlns="http://www.w3.org/2000/svg" viewBox="0 0 1000 1000" fill="currentColor"><path d="M264.688 503.839C246.624 659.538 199.312 782.548 102.968 857.387C118.452 866.849 145.118 888.355 155.441 900.398C213.075 850.505 254.366 785.129 284.473 705.129C363.613 853.946 492.645 884.054 672.430 884.054L873.720 884.054C876.301 865.129 888.344 834.161 897.806 818.677C855.656 819.538 707.699 819.538 675.871 819.538C625.118 819.538 577.806 816.957 534.796 809.215L534.796 635.452L791.140 635.452L791.140 575.237L534.796 575.237L534.796 434.161L755.871 434.161L755.871 371.366L253.505 371.366L253.505 434.161L467.699 434.161L467.699 791.151C397.161 764.484 342.968 713.731 309.419 623.409C318.022 588.140 324.903 550.290 330.065 510.720M438.452 118.462C453.075 144.269 468.559 176.957 478.022 203.624L142.538 203.624L142.538 391.151L206.194 391.151L206.194 264.699L795.441 264.699L795.441 391.151L861.677 391.151L861.677 203.624L552 203.624C543.398 175.237 521.032 132.226 502.108 100.398"/></svg>