<svg xmlns="http://www.w3.org/2000/svg" viewBox="0 0 1000 1000" fill="currentColor"><path d="M509.424 101.727C481.719 127.701 434.100 164.931 387.346 197.831C444.489 232.463 496.437 270.558 525.009 298.264L583.883 273.156C557.909 250.645 515.485 219.476 473.926 196.100C507.693 173.589 543.190 147.615 576.091 122.506M727.606 101.727C699.035 127.701 650.550 165.797 602.931 199.563C661.805 233.329 714.619 272.290 745.788 299.996L312.887 299.996L370.030 275.753C345.788 253.242 305.095 222.074 264.403 197.831C297.303 174.455 333.667 147.615 365.701 122.506L299.900 101.727C272.195 127.701 224.576 165.797 179.554 199.563C233.234 234.195 282.584 271.424 310.290 299.996L208.126 299.996L208.126 596.965L465.268 596.965L465.268 652.377L116.351 652.377L116.351 709.519L396.004 709.519C317.216 764.065 201.199 809.952 99.900 833.329C115.485 846.316 134.532 871.424 144.056 888.740C254.013 857.571 381.286 796.965 465.268 725.970L465.268 898.264L531.069 898.264L531.069 720.775C613.320 796.100 739.727 857.571 856.610 887.009C866.134 869.693 885.182 843.719 899.900 829.866C794.273 809.087 679.121 764.931 601.199 709.519L885.182 709.519L885.182 652.377L531.069 652.377L531.069 596.965L802.065 596.965L802.065 299.996L750.983 299.996L805.528 275.753C779.554 253.242 734.532 222.074 691.242 197.831C725.009 174.455 761.372 148.481 795.139 122.506M273.926 472.290L465.268 472.290L465.268 545.883L273.926 545.883M531.069 472.290L733.667 472.290L733.667 545.883L531.069 545.883M273.926 351.078L465.268 351.078L465.268 423.805L273.926 423.805M531.069 351.078L733.667 351.078L733.667 423.805L531.069 423.805"/></svg>