<svg xmlns="http://www.w3.org/2000/svg" viewBox="0 0 1000 1000" fill="currentColor"><path d="M225.450 707.163C197.893 761.414 152.253 814.805 104.029 850.112C118.668 859.584 143.642 877.668 154.836 887.141C201.338 848.390 253.006 785.526 284.008 723.524M336.537 734.719C369.260 770.026 408.012 820.833 425.235 852.695L476.042 818.250C457.958 787.249 418.346 739.025 385.622 705.440M600.907 101.780C580.240 235.257 540.628 362.706 477.764 443.653C492.404 451.404 519.960 468.626 531.155 477.238C564.740 429.875 593.157 369.595 615.547 300.704L827.388 300.704C817.054 357.539 801.553 418.680 786.053 459.154L837.721 475.516C860.972 419.541 884.223 329.122 899.723 251.619L856.666 237.841L847.194 240.424L634.492 240.424C645.687 199.089 655.159 156.032 662.910 112.114M654.298 352.372L654.298 411.791C654.298 533.212 641.381 714.052 477.764 849.251C491.543 860.446 512.210 881.974 520.821 897.475C617.269 814.805 666.354 717.496 690.466 624.493C724.051 735.580 773.136 817.389 854.083 891.447C862.694 874.224 880.778 854.418 894.557 842.362C792.081 753.664 742.996 652.911 712.856 480.682C713.717 456.571 714.578 434.181 714.578 412.652L714.578 352.372M389.067 112.975L389.067 217.173L247.840 217.173L247.840 112.975L189.282 112.975L189.282 217.173L111.779 217.173L111.779 274.870L189.282 274.870L189.282 627.076L99.723 627.076L99.723 684.773L529.433 684.773L529.433 627.076L448.485 627.076L448.485 274.870L512.210 274.870L512.210 217.173L448.485 217.173L448.485 112.975M247.840 274.870L389.067 274.870L389.067 354.095L247.840 354.095M247.840 405.763L389.067 405.763L389.067 486.710L247.840 486.710M247.840 539.240L389.067 539.240L389.067 627.076L247.840 627.076"/></svg>