<svg xmlns="http://www.w3.org/2000/svg" viewBox="0 0 1000 1000" fill="currentColor"><path d="M110.840 258.746L110.840 320.292L407.139 320.292L407.139 258.746M138.096 371.287C159.198 470.639 176.782 600.764 180.299 686.928L237.449 675.498C232.173 589.334 213.710 461.847 192.608 361.615M198.763 116.312C218.985 156.756 244.482 212.147 254.154 247.316L313.941 227.094C302.511 192.804 277.893 140.051 255.033 99.607M522.317 298.311L798.393 298.311L798.393 371.287L522.317 371.287M522.317 179.616L798.393 179.616L798.393 250.833L522.317 250.833M459.013 615.711L459.013 802.106L787.843 802.106L787.843 752.870L515.283 752.870L515.283 615.711M318.337 354.581C308.666 461.847 285.806 618.349 263.825 712.426C204.038 726.493 149.526 739.681 106.444 748.474L121.391 814.416C205.797 792.435 316.579 763.421 420.327 735.285L414.173 674.619L320.096 698.358C342.076 605.160 365.815 470.639 381.641 366.011M462.530 128.621L462.530 422.282L506.491 422.282C487.148 481.190 447.583 551.528 386.917 605.160C399.226 613.952 417.690 635.054 426.482 648.242C462.530 615.711 491.544 578.784 514.404 540.098L830.046 540.098C822.133 746.715 811.582 822.329 796.635 840.792C790.480 850.464 784.326 852.222 772.017 851.343C760.587 851.343 734.210 851.343 704.317 848.705C712.230 861.894 718.384 884.753 719.263 897.942C751.795 899.700 783.447 900.579 801.031 897.942C823.012 896.183 838.838 890.908 851.147 873.324C874.007 844.309 883.678 763.421 894.229 515.479C894.229 506.687 894.229 487.344 894.229 487.344L543.419 487.344C552.211 468.001 560.124 449.538 567.158 431.074L511.767 422.282L860.818 422.282L860.818 128.621M651.563 555.044C635.737 623.624 595.293 676.377 537.264 709.788C547.815 718.580 564.520 737.044 570.675 745.836C605.843 723.855 635.737 694.841 658.597 658.793C695.524 685.170 735.089 716.822 757.070 737.923L786.084 701.875C763.225 679.894 718.384 646.484 679.698 620.986C688.491 602.523 695.524 582.300 700.800 561.199"/></svg>