<svg xmlns="http://www.w3.org/2000/svg" viewBox="0 0 1000 1000" fill="currentColor"><path d="M100.292 672.188L116.497 737.859C206.902 713.126 331.422 678.158 449.972 644.043L442.296 586.047L299.866 622.721L299.866 276.452L432.915 276.452L432.915 215.045L112.232 215.045L112.232 276.452L236.753 276.452L236.753 638.925M536.966 106.729C501.998 251.719 443.149 393.296 365.537 481.996C380.889 490.525 409.034 509.288 420.974 519.522C445.708 487.966 468.736 451.292 490.910 410.354C517.350 509.288 552.318 597.987 600.079 672.188C534.407 744.682 448.267 797.561 333.128 835.087C345.068 849.586 362.979 877.731 368.949 893.936C481.529 852.998 569.375 798.414 637.606 725.919C694.748 798.414 765.537 855.557 855.090 892.230C865.324 875.173 884.940 848.733 900.292 835.940C809.887 802.678 737.392 747.241 681.102 674.746C746.774 585.194 790.271 471.761 819.269 327.625L890.910 327.625L890.910 266.217L554.023 266.217C571.081 219.309 587.286 169.842 600.079 119.522M751.038 327.625C728.864 445.322 693.896 540.844 641.870 618.456C590.697 535.727 555.729 436.793 531.849 327.625"/></svg>