<svg xmlns="http://www.w3.org/2000/svg" viewBox="0 0 1000 1000" fill="currentColor"><path d="M114.271 172.545C161.941 215.015 216.546 276.554 241.681 315.557L293.686 277.420C267.684 237.550 210.479 179.479 162.808 137.875M376.026 358.027L376.026 597.247L563.242 597.247C546.774 663.119 500.836 727.258 381.226 764.528C394.228 776.662 412.429 800.064 421.096 814.798C558.908 764.528 611.779 683.054 629.980 597.247L839.731 597.247L839.731 357.160L776.459 357.160L776.459 538.309L636.914 538.309L637.781 508.840L637.781 309.490L883.068 309.490L883.068 251.418L723.588 251.418C750.457 214.148 779.926 167.345 804.195 124.008L736.589 105.806C716.654 149.143 682.852 210.681 654.249 251.418L507.770 251.418L551.107 228.883C535.506 192.480 496.503 137.875 461.833 99.739L408.962 126.608C441.031 164.744 474.834 215.882 490.436 251.418L329.222 251.418L329.222 309.490L572.776 309.490L572.776 507.973L571.909 538.309L436.698 538.309L436.698 358.027M283.285 413.498L108.204 413.498L108.204 474.170L220.880 474.170L220.880 753.260C183.610 769.728 142.007 803.531 101.270 845.134L142.007 899.739C186.210 846.001 230.414 800.064 261.616 800.064C281.551 800.064 308.420 825.199 344.823 846.001C406.362 879.804 480.035 889.338 583.177 889.338C666.384 889.338 818.930 884.138 881.335 880.671C882.202 861.602 891.736 831.267 899.536 815.665C815.463 824.333 685.452 830.400 584.910 830.400C490.436 830.400 415.896 825.199 359.558 793.130C324.022 774.062 303.220 755.860 283.285 748.060"/></svg>