<svg xmlns="http://www.w3.org/2000/svg" viewBox="0 0 1000 1000" fill="currentColor"><path d="M581.495 323.464L763.784 323.464C745.641 439.231 717.132 535.127 672.207 613.745C629.875 530.808 599.637 433.184 579.767 327.784M137.434 490.203L137.434 859.102L197.909 859.102L197.909 799.490L445.857 799.490L445.857 491.931C458.816 501.434 472.639 512.665 479.551 518.713C501.149 490.203 521.883 457.374 540.026 421.089C562.488 515.257 592.726 600.786 632.467 674.220C577.175 745.927 503.741 800.354 404.389 840.095C415.620 853.918 435.490 882.428 441.538 897.978C536.570 854.782 610.868 801.218 667.888 731.240C717.132 802.082 778.471 859.102 854.497 897.114C864.864 879.836 884.734 854.782 900.285 842.687C820.803 807.266 757.737 749.382 708.492 675.948C768.104 582.644 805.253 467.741 829.443 323.464L894.238 323.464L894.238 262.125L602.229 262.125C616.916 214.609 629.875 164.501 640.242 112.665L575.447 102.298C547.801 249.166 498.557 389.123 424.259 477.244L443.266 490.203L324.043 490.203L324.043 331.240L479.551 331.240L479.551 270.765L324.043 270.765L324.043 102.298L259.248 102.298L259.248 270.765L100.285 270.765L100.285 331.240L259.248 331.240L259.248 490.203M197.909 550.678L383.654 550.678L383.654 739.015L197.909 739.015"/></svg>