<svg xmlns="http://www.w3.org/2000/svg" viewBox="0 0 1000 1000" fill="currentColor"><path d="M353.224 493.727C387.051 525.863 430.180 571.529 451.321 597.744L494.450 565.609C472.463 539.393 428.488 496.264 395.507 465.820M133.351 155.461C173.097 198.590 221.300 259.478 243.288 296.687L293.182 258.632C270.349 222.268 221.300 164.763 181.554 123.326M744.767 335.588L744.767 401.550L613.689 401.550L613.689 335.588M318.552 684.002L346.459 733.051L551.956 623.114L551.956 724.594C551.956 734.742 548.573 737.279 539.271 738.125C529.123 738.125 499.524 738.970 469.080 738.125C475.846 752.501 484.302 774.488 487.685 788.865C535.042 788.865 566.332 788.019 585.782 779.562C606.924 770.260 613.689 756.729 613.689 724.594L613.689 592.670C691.490 642.564 779.440 700.915 827.643 738.125L863.161 694.150C827.643 667.089 770.983 630.725 713.478 594.362C751.533 565.609 795.507 528.400 831.025 494.573L781.977 464.129C754.915 495.419 710.095 537.702 671.195 568.146L613.689 533.474L613.689 449.753L805.655 449.753L805.655 335.588L879.228 335.588L879.228 289.076L805.655 289.076L805.655 177.448L613.689 177.448L613.689 111.486L551.956 111.486L551.956 177.448L365.909 177.448L365.909 225.651L551.956 225.651L551.956 289.076L311.786 289.076L311.786 335.588L551.956 335.588L551.956 401.550L362.526 401.550L362.526 449.753L551.956 449.753L551.956 569.837C465.698 613.812 377.748 656.941 318.552 684.002M744.767 289.076L613.689 289.076L613.689 225.651L744.767 225.651M283.879 397.321L112.209 397.321L112.209 456.518L222.146 456.518L222.146 722.057C186.628 734.742 144.345 774.488 99.524 828.611L142.653 888.653C181.554 830.302 217.918 776.180 244.133 776.180C261.892 776.180 290.645 807.469 325.317 830.302C386.205 870.049 457.241 878.505 568.869 878.505C656.818 878.505 819.186 872.586 880.920 868.357C881.765 848.907 891.913 815.926 899.524 799.858C813.266 809.161 678.805 817.617 571.406 817.617C471.617 817.617 396.353 812.543 340.539 775.334C315.169 759.266 298.256 744.044 283.879 733.896"/></svg>