<svg xmlns="http://www.w3.org/2000/svg" viewBox="0 0 1000 1000" fill="currentColor"><path d="M240.045 99.770L240.045 899.770L303.592 899.770L303.592 99.770M157.346 267.779C151.252 338.291 135.583 434.047 112.079 491.501L164.310 509.781C186.943 446.234 202.613 345.255 206.965 274.743M312.297 259.945C337.542 313.046 364.528 382.687 374.974 424.471L425.464 400.097C415.017 359.183 386.291 291.283 359.305 239.923M635.257 104.993C628.293 149.390 612.624 209.455 598.695 256.462L452.449 256.462L452.449 899.770L516.867 899.770L516.867 855.374L821.546 855.374L821.546 893.677L887.705 893.677L887.705 256.462L663.984 256.462C679.653 214.678 695.322 163.318 709.250 115.440M516.867 580.293L821.546 580.293L821.546 791.827L516.867 791.827M516.867 519.357L516.867 319.139L821.546 319.139L821.546 519.357"/></svg>