<svg xmlns="http://www.w3.org/2000/svg" viewBox="0 0 1000 1000" fill="currentColor"><path d="M603.698 198.983L603.698 296.751L512.731 296.751L512.731 198.983M401.360 665.721L415.813 719.281L603.698 655.519L603.698 776.241L656.408 776.241L656.408 637.665L700.616 622.362L691.265 574.753L656.408 585.806L656.408 198.983L692.965 198.983L692.965 143.723L420.914 143.723L420.914 198.983L460.871 198.983L460.871 647.867M663.209 340.109C696.366 397.920 730.372 465.083 760.978 530.545C735.473 607.910 703.167 672.522 665.760 718.430C678.512 726.932 698.916 748.186 707.418 760.938C739.724 720.131 767.779 666.571 792.434 602.809C812.837 651.268 829.841 696.326 840.043 732.033L890.202 710.779C875.749 662.320 849.394 597.708 817.088 529.695C844.293 440.428 863.847 335.859 875.749 221.087L841.743 210.035L831.541 211.735L681.063 211.735L681.063 264.445L816.238 264.445C808.587 333.308 796.684 397.920 782.232 457.431C758.427 410.673 733.773 364.764 709.118 323.106M603.698 348.611L603.698 455.731L512.731 455.731L512.731 348.611M603.698 506.741L603.698 602.809L512.731 631.714L512.731 506.741M163.316 493.138C165.866 607.060 159.915 749.886 100.404 852.756C113.156 858.707 134.410 876.560 142.912 890.163C174.368 838.303 193.071 777.091 204.123 714.180C267.885 839.153 372.455 868.909 557.790 868.909L874.899 868.909C878.300 850.205 890.202 820.450 900.404 805.997C849.394 807.697 597.747 807.697 557.790 807.697C461.722 807.697 389.458 799.196 334.198 770.290L334.198 592.607L430.266 592.607L430.266 535.646L334.198 535.646L334.198 423.425L432.816 423.425L432.816 366.464L316.344 366.464L316.344 266.146L417.513 266.146L417.513 209.185L316.344 209.185L316.344 108.866L258.533 108.866L258.533 209.185L142.912 209.185L142.912 266.146L258.533 266.146L258.533 366.464L121.658 366.464L121.658 423.425L276.387 423.425L276.387 724.382C250.882 694.626 230.478 655.519 215.175 603.659C217.726 567.102 217.726 530.545 216.876 496.539"/></svg>