<svg xmlns="http://www.w3.org/2000/svg" viewBox="0 0 1000 1000" fill="currentColor"><path d="M150.364 169.783C197.727 202.506 255.423 250.730 282.980 283.453L326.898 238.674C298.480 206.812 239.922 160.310 192.560 129.309M108.168 404.874C158.975 433.292 223.561 475.488 254.562 504.766L294.174 453.959C261.451 425.541 196.004 385.068 146.058 360.095M126.252 840.611L183.087 881.085C227.005 802.721 277.813 698.523 316.564 610.687L265.757 571.074C223.561 665.800 165.864 775.165 126.252 840.611M559.406 117.253C570.601 137.920 582.657 163.755 592.129 186.144L338.954 186.144L338.954 242.118L892.667 242.118L892.667 186.144L661.020 186.144C651.548 160.310 633.464 125.864 617.963 100.030M484.487 791.526C498.265 784.637 524.960 779.470 707.522 761.386L727.328 801.860L772.969 780.332C756.607 745.025 721.300 686.467 690.299 643.410L647.242 661.494C659.298 677.856 670.493 696.801 682.549 715.746L543.905 727.802C562.850 699.384 580.934 666.661 599.018 632.215L808.276 632.215L808.276 832C808.276 842.334 804.831 845.778 793.636 845.778C781.580 846.639 741.968 847.501 699.772 845.778C706.661 859.557 715.272 879.363 718.717 894.863C776.413 894.863 816.026 894.863 840.138 886.252C863.389 878.502 871.139 863.862 871.139 832.861L871.139 581.408L623.991 581.408L649.826 521.989L835.832 521.989L835.832 273.119L778.136 273.119L778.136 470.321L445.735 470.321L445.735 273.119L389.761 273.119L389.761 521.989L585.240 521.989C577.490 542.657 568.878 562.463 561.128 581.408L356.177 581.408L356.177 900.030L417.318 900.030L417.318 632.215L537.016 632.215C523.238 659.772 511.182 681.300 505.154 690.773C490.515 714.885 477.597 732.969 464.680 735.552C471.569 751.053 481.042 778.609 484.487 791.526M692.883 265.369C672.215 286.898 646.381 308.426 617.963 329.094C580.934 308.426 542.183 288.620 507.737 272.258L476.736 306.704C506.876 321.343 540.461 339.427 573.184 358.372C535.294 380.762 494.820 401.429 456.930 417.791C468.125 427.264 487.931 447.931 495.681 457.404C535.294 437.597 578.351 413.485 618.825 385.929C659.298 410.902 695.466 435.014 719.578 455.681L751.440 415.208C729.051 397.124 697.188 376.456 661.882 354.928C692.022 332.538 719.578 309.287 741.968 285.175"/></svg>