<svg xmlns="http://www.w3.org/2000/svg" viewBox="0 0 1000 1000" fill="currentColor"><path d="M494.807 384.397C513.048 424.354 527.814 475.603 532.157 510.347L575.588 496.450C570.377 463.442 553.873 412.193 534.763 373.974M731.940 363.550C721.517 402.638 699.801 460.836 683.298 498.187L722.385 512.085C739.758 478.208 761.473 425.223 780.583 380.054M605.990 333.149L605.990 531.194L475.697 531.194L475.697 585.049L591.224 585.049C554.742 658.882 495.675 739.663 444.427 783.963C453.982 797.861 467.011 821.314 473.091 836.949C519.997 795.255 568.640 725.765 605.990 654.539L605.990 875.168L662.451 875.168L662.451 648.458C694.590 684.940 733.678 733.583 750.181 757.036L785.795 712.736C767.554 691.889 690.246 614.582 662.451 589.392L662.451 585.049L791.875 585.049L791.875 531.194L662.451 531.194L662.451 333.149M552.136 100.358C526.077 203.724 482.646 303.616 426.186 368.762C439.215 377.448 461.799 397.427 471.354 406.982C499.150 373.105 525.208 331.412 547.793 284.506L830.094 284.506C826.620 665.831 820.540 796.124 803.167 823.051C796.218 835.212 789.269 838.686 777.109 837.818C762.342 837.818 731.072 837.818 696.327 835.212C706.750 851.716 711.962 877.774 713.699 894.278C746.707 896.015 781.452 896.015 803.167 893.409C826.620 890.803 842.255 882.986 857.022 860.402C882.212 822.182 883.949 689.283 889.161 259.316C890.029 250.630 890.029 226.308 890.029 226.308L572.114 226.308C586.881 189.826 599.041 151.607 608.596 112.519M137.803 409.587L137.803 622.400L256.805 622.400L256.805 684.940L110.876 684.940L110.876 740.532L256.805 740.532L256.805 900.358L315.871 900.358L315.871 740.532L468.748 740.532L468.748 684.940L315.871 684.940L315.871 622.400L439.215 622.400L439.215 409.587L315.871 409.587L315.871 352.258L399.258 352.258L399.258 236.732L461.799 236.732L461.799 182.009L399.258 182.009L399.258 101.227L340.192 101.227L340.192 182.009L233.352 182.009L233.352 101.227L176.891 101.227L176.891 182.009L116.957 182.009L116.957 236.732L176.891 236.732L176.891 352.258L256.805 352.258L256.805 409.587M340.192 236.732L340.192 301.878L233.352 301.878L233.352 236.732M189.921 459.099L261.148 459.099L261.148 572.888L189.921 572.888M311.528 459.099L386.229 459.099L386.229 572.888L311.528 572.888"/></svg>