<svg xmlns="http://www.w3.org/2000/svg" viewBox="0 0 1000 1000" fill="currentColor"><path d="M586.385 116.709L586.385 763.718C586.385 851.752 606.897 874.829 682.966 874.829C698.350 874.829 786.385 874.829 801.769 874.829C876.983 874.829 893.222 826.966 900.060 685.085C882.966 680.812 857.325 668.846 841.085 656.026C836.812 785.085 831.684 817.564 798.350 817.564C778.692 817.564 706.043 817.564 690.658 817.564C657.325 817.564 650.487 809.872 650.487 765.427L650.487 116.709M290.658 332.094L290.658 498.761C218.009 517.564 151.342 534.658 100.060 546.624L114.590 611.581L290.658 562.863L290.658 803.034C290.658 815.855 287.239 819.274 273.564 819.274C260.744 819.274 217.154 820.128 169.291 818.419C178.692 837.222 187.239 865.427 189.803 882.521C253.051 883.376 294.932 881.667 319.718 871.410C345.359 861.154 353.906 842.350 353.906 803.889L353.906 545.769L527.410 497.051L518.863 437.222L353.906 481.667L353.906 357.735C417.154 309.017 485.530 239.786 531.684 175.684L487.239 144.060L474.419 148.333L119.718 148.333L119.718 208.162L424.846 208.162C387.239 252.607 336.812 300.470 290.658 332.094"/></svg>