<svg xmlns="http://www.w3.org/2000/svg" viewBox="0 0 1000 1000" fill="currentColor"><path d="M488.550 491.378C496.658 484.171 525.486 479.667 564.225 479.667L635.396 479.667C604.766 603.991 543.505 733.721 423.685 844.532C439 854.441 462.423 876.964 474.135 890.477C577.739 793.180 639 679.667 675.036 568.856L675.036 785.973C675.036 828.315 679.541 841.829 694.856 852.640C709.270 864.351 732.694 867.955 752.514 867.955C762.423 867.955 795.757 867.955 808.369 867.955C827.288 867.955 848.910 864.351 861.523 858.045C875.036 850.838 885.847 839.126 891.252 821.108C895.757 803.090 899.360 752.640 900.261 708.495C884.946 703.090 864.225 692.279 853.414 681.468C853.414 727.414 852.514 766.153 849.811 782.369C847.108 793.180 841.703 800.387 835.396 803.991C829.991 806.694 816.477 808.495 804.766 808.495C792.153 808.495 774.135 808.495 764.225 808.495C754.315 808.495 746.207 806.694 740.802 803.090C734.495 800.387 731.793 794.982 731.793 787.775L731.793 531.919L685.847 531.919L699.360 479.667L891.252 479.667L891.252 420.207L710.171 420.207C724.586 331.018 727.288 248.135 727.288 180.568L875.036 180.568L875.036 120.207L488.550 120.207L488.550 180.568L666.928 180.568C666.928 248.135 664.225 331.018 648.009 420.207L547.108 420.207C561.523 364.351 580.441 276.964 589.450 236.423L528.189 236.423C520.982 276.063 497.559 391.378 487.649 409.396C482.243 425.613 474.135 430.117 463.324 434.622C470.532 446.333 484.045 475.162 488.550 491.378M358.820 327.414L358.820 437.324L193.054 437.324L193.054 327.414M358.820 273.360L193.054 273.360L193.054 170.658L358.820 170.658M129.991 849.036C146.207 831.919 174.135 813.901 374.135 718.405C383.144 741.829 391.252 764.351 396.658 782.369L452.514 754.441C437.198 703.090 397.559 619.306 360.622 555.342L308.369 577.865C322.784 604.892 338.099 634.622 351.613 665.252L193.054 735.523L193.054 496.784L420.982 496.784L420.982 110.297L128.189 110.297L128.189 724.712C128.189 759.847 112.874 776.063 100.261 783.270C111.072 799.486 125.486 830.117 129.991 849.036"/></svg>