<svg xmlns="http://www.w3.org/2000/svg" viewBox="0 0 1000 1000" fill="currentColor"><path d="M294.840 635.134L714.753 635.134L714.753 703.532L294.840 703.532M294.840 588.381L294.840 519.983L714.753 519.983L714.753 588.381M294.840 749.420L714.753 749.420L714.753 819.550L294.840 819.550M231.636 469.766L231.636 900.069L294.840 900.069L294.840 869.766L714.753 869.766L714.753 895.740L780.554 895.740L780.554 469.766M444.623 117.385C456.745 139.030 469.732 165.004 480.121 188.381L122.545 188.381L122.545 244.658L225.576 244.658L225.576 403.965L821.247 403.965L821.247 346.823L289.645 346.823L289.645 244.658L877.524 244.658L877.524 188.381L549.385 188.381C538.130 161.541 519.948 126.909 502.632 100.069"/></svg>