<svg xmlns="http://www.w3.org/2000/svg" viewBox="0 0 1000 1000" fill="currentColor"><path d="M218.797 365.419L362.988 365.419L362.988 436.646L218.797 436.646M218.797 315.908L218.797 245.549L362.988 245.549L362.988 315.908M218.797 486.157L362.988 486.157L362.988 560.859L218.797 560.859M111.957 560.859L111.957 613.845L309.134 613.845C255.279 683.334 177.103 746.744 100.664 788.438C111.957 800.598 131.066 827.526 138.884 838.818C218.797 788.438 303.053 714.605 362.988 633.823L362.988 824.051C362.988 836.212 358.645 839.686 347.353 839.686C336.929 840.555 301.316 840.555 262.228 838.818C270.914 855.321 280.469 881.380 283.075 897.015C337.798 897.884 370.806 896.147 393.390 885.723C414.237 876.168 422.054 857.927 422.054 824.920L422.054 192.564L292.630 192.564C304.790 168.242 318.688 138.709 330.849 110.045L262.228 100.490C256.148 126.548 245.724 163.899 235.301 192.564L161.468 192.564L161.468 560.859M631.392 414.062L631.392 501.793L458.536 501.793L458.536 559.990L607.071 559.990C568.851 659.882 501.099 759.773 429.872 808.416C443.770 819.708 462.879 842.292 472.434 856.190C532.369 809.284 589.698 727.634 631.392 639.035L631.392 900.490L694.801 900.490L694.801 624.268C738.232 711.130 797.299 797.992 852.890 847.504C863.314 830.131 885.029 808.416 899.796 796.255C833.781 748.481 759.948 650.327 716.517 559.990L873.737 559.990L873.737 501.793L694.801 501.793L694.801 414.062M542.793 136.972L542.793 202.987C542.793 269.002 527.157 355.864 441.164 420.142C454.193 427.960 479.383 449.675 488.069 461.836C581.012 388.872 603.596 282.900 603.596 203.856L603.596 194.301L731.283 194.301L731.283 347.178C731.283 408.850 741.707 432.303 799.036 432.303C809.459 432.303 842.467 432.303 853.759 432.303C869.394 432.303 885.029 431.434 895.453 427.960C892.847 413.193 891.110 390.609 890.241 374.974C879.818 377.580 863.314 379.317 852.890 379.317C844.204 379.317 812.934 379.317 805.116 379.317C792.955 379.317 792.087 371.499 792.087 348.047L792.087 136.972"/></svg>