<svg xmlns="http://www.w3.org/2000/svg" viewBox="0 0 1000 1000" fill="currentColor"><path d="M259.429 472.562C294.229 484.742 329.898 500.402 364.698 516.932C311.629 625.681 241.159 717.031 151.550 782.280C166.340 792.720 194.179 815.340 204.619 827.520C294.229 756.181 366.438 660.481 422.118 544.772C465.618 567.392 508.247 592.622 546.527 617.851C504.767 714.421 448.218 794.460 371.658 854.490C387.318 864.930 416.898 887.550 427.338 898.860C502.157 834.480 557.837 752.701 601.337 655.261C633.526 678.751 662.236 702.241 685.726 724.861L728.356 669.181C701.386 644.821 666.586 617.851 626.566 590.882C657.016 506.492 679.636 411.663 697.036 306.394L816.225 306.394C803.175 658.741 787.515 791.850 758.806 822.300C748.366 834.480 739.666 837.090 721.396 837.090C700.516 837.090 650.056 836.220 594.377 831.870C605.687 850.140 612.647 877.980 614.387 897.120C665.716 900.600 718.786 901.470 748.366 897.990C779.685 894.510 799.695 887.550 818.835 861.450C855.375 818.820 868.425 678.751 883.215 277.684C884.085 268.114 884.085 242.014 884.085 242.014L351.648 242.014C369.918 201.994 386.448 159.365 400.368 116.735L331.638 100.205C286.399 244.624 209.839 382.953 116.750 469.952C134.150 479.522 163.730 501.272 175.909 512.582C228.979 457.773 277.699 386.433 320.328 306.394L442.128 306.394C427.338 360.333 410.808 411.663 390.798 459.512C360.348 446.463 330.768 434.283 302.059 423.843M509.987 306.394L630.046 306.394C616.127 396.873 596.987 480.392 570.887 555.212C532.607 531.722 490.847 508.232 448.218 487.352C471.707 430.803 492.587 370.773 509.987 306.394"/></svg>