<svg xmlns="http://www.w3.org/2000/svg" viewBox="0 0 1000 1000" fill="currentColor"><path d="M125.002 190.256C177.931 224.095 245.610 274.421 277.714 307.393L323.701 260.538C289.861 229.302 221.315 181.579 169.254 149.475M443.440 506.959L576.195 506.959L576.195 656.200L443.440 656.200M639.536 506.959L778.364 506.959L778.364 656.200L639.536 656.200M443.440 307.393L576.195 307.393L576.195 453.163L443.440 453.163M639.536 307.393L778.364 307.393L778.364 453.163L639.536 453.163M383.570 250.126L383.570 713.466L840.837 713.466L840.837 250.126L639.536 250.126L639.536 104.356L576.195 104.356L576.195 250.126M284.655 402.837L108.516 402.837L108.516 463.575L221.315 463.575L221.315 740.364C184.004 756.850 141.488 794.161 99.839 840.148L143.223 896.547C186.607 839.280 229.991 788.087 258.625 788.087C278.581 788.087 308.950 816.720 343.657 838.412C403.527 875.722 475.544 886.134 581.401 886.134C674.243 886.134 821.748 881.796 880.751 877.458C882.486 858.369 892.030 827.132 899.839 809.779C811.336 819.323 682.052 826.265 583.137 826.265C486.824 826.265 414.807 820.191 356.672 783.748C322.833 762.924 302.876 745.570 284.655 736.894"/></svg>