<svg xmlns="http://www.w3.org/2000/svg" viewBox="0 0 1000 1000" fill="currentColor"><path d="M590.388 100.395L590.388 280.285L130.081 280.285L130.081 348.185L524.252 348.185C425.489 506.029 261.472 667.401 102.745 746.764C121.263 762.637 142.427 787.328 153.890 805.846C317.026 713.255 487.216 539.538 590.388 371.112L590.388 809.373C590.388 826.127 583.333 831.418 564.815 832.300C548.061 833.182 487.216 834.064 423.725 831.418C434.307 850.818 444.889 881.682 448.416 900.200C535.716 901.081 587.743 899.318 617.724 887.854C649.469 877.273 661.815 856.991 661.815 809.373L661.815 348.185L898.141 348.185L898.141 280.285L661.815 280.285L661.815 100.395"/></svg>