<svg xmlns="http://www.w3.org/2000/svg" viewBox="0 0 1000 1000" fill="currentColor"><path d="M231.147 652.166L231.147 900.114L295.078 900.114L295.078 869.013L711.492 869.013L711.492 897.523L777.151 897.523L777.151 652.166L533.523 652.166L533.523 596.875L874.775 596.875L874.775 542.447L533.523 542.447L533.523 482.836L801.341 482.836L801.341 431.864L533.523 431.864L533.523 373.117L766.784 373.117L766.784 321.281L533.523 321.281L533.523 264.261L467 264.261L467 321.281L235.467 321.281L235.467 373.117L467 373.117L467 431.864L204.365 431.864L204.365 482.836L467 482.836L467 542.447L124.883 542.447L124.883 596.875L467 596.875L467 652.166M295.078 815.449L295.078 705.730L711.492 705.730L711.492 815.449M438.490 114.801C451.449 136.400 465.272 164.045 474.775 187.371L138.706 187.371L138.706 340.287L202.637 340.287L202.637 246.119L794.430 246.119L794.430 340.287L860.089 340.287L860.089 187.371L547.346 187.371C536.978 161.454 517.972 126.032 502.421 100.114"/></svg>