<svg xmlns="http://www.w3.org/2000/svg" viewBox="0 0 1000 1000" fill="currentColor"><path d="M485.818 335.508C480.514 412.414 468.138 503.464 438.083 553.851L475.210 583.906C509.685 524.680 521.177 426.558 526.481 346.116M831.453 100.370L831.453 502.580C819.077 451.309 796.094 386.779 772.227 336.392L737.751 352.304L737.751 116.282L682.945 116.282L682.945 880.039L737.751 880.039L737.751 369.983C762.503 430.978 786.370 507 794.326 556.503L831.453 539.707L831.453 896.834L888.912 896.834L888.912 100.370M596.315 361.144C617.530 423.906 634.326 505.232 638.746 560.039L682.945 541.475C677.641 487.552 659.077 407.110 636.978 344.348M539.740 103.022L539.740 456.613C539.740 610.425 529.133 752.746 442.503 865.011C457.530 872.967 480.514 888.878 490.238 900.370C583.939 778.381 596.315 623.685 596.315 456.613L596.315 103.022M175.541 686.448L378.856 686.448L378.856 778.381L175.541 778.381M175.541 636.061L175.541 573.298C182.613 578.602 191.453 586.558 195.873 591.862C244.492 543.243 255.099 472.525 255.099 420.370L255.099 347L295.762 347L295.762 490.204C295.762 531.751 306.370 540.591 340.845 540.591C347.033 540.591 371.785 540.591 378.856 540.591L378.856 636.061M111.011 124.238L111.011 178.160L210.017 178.160L210.017 291.309L126.923 291.309L126.923 892.414L175.541 892.414L175.541 832.304L378.856 832.304L378.856 880.923L429.243 880.923L429.243 291.309L341.729 291.309L341.729 178.160L442.503 178.160L442.503 124.238M255.099 291.309L255.099 178.160L295.762 178.160L295.762 291.309M175.541 559.155L175.541 347L218.856 347L218.856 420.370C218.856 463.685 212.669 515.840 175.541 559.155M333.773 347L378.856 347L378.856 500.812L370.901 500.812C365.597 500.812 347.917 500.812 344.381 500.812C334.657 500.812 333.773 499.928 333.773 489.320"/></svg>