<svg xmlns="http://www.w3.org/2000/svg" viewBox="0 0 1000 1000" fill="currentColor"><path d="M475.273 293.564L764.562 293.564L764.562 360.584L475.273 360.584M475.273 180.733L764.562 180.733L764.562 247.753L475.273 247.753M415.888 132.376L415.888 409.789L825.644 409.789L825.644 132.376M435.400 565.038C422.674 690.595 383.650 786.459 306.450 846.692C320.023 855.176 343.777 873.840 353.958 884.869C398.920 844.996 432.855 794.943 456.609 733.013C513.449 849.238 605.071 872.143 729.779 872.143L881.635 872.143C883.332 855.176 891.815 828.877 900.299 814.455C870.607 815.303 753.533 815.303 732.324 815.303C703.480 815.303 675.485 814.455 650.034 810.213L650.034 677.021L831.582 677.021L831.582 624.423L650.034 624.423L650.034 524.317L882.484 524.317L882.484 470.871L362.441 470.871L362.441 524.317L588.952 524.317L588.952 794.094C540.596 774.582 502.420 737.255 477.818 667.689C485.453 637.997 491.391 605.759 495.633 571.825M100.299 707.562L121.508 772.037C197.860 742.345 297.118 703.320 389.589 665.993L377.712 607.456L274.212 645.632L274.212 373.310L377.712 373.310L377.712 311.380L274.212 311.380L274.212 115.409L213.979 115.409L213.979 311.380L101.147 311.380L101.147 373.310L213.979 373.310L213.979 667.689C171.561 683.808 132.537 697.382 100.299 707.562"/></svg>