<svg xmlns="http://www.w3.org/2000/svg" viewBox="0 0 1000 1000" fill="currentColor"><path d="M207.182 106.488C201.976 142.063 191.564 193.256 181.152 232.302L116.944 232.302L116.944 820.588L175.078 820.588L175.078 746.835L353.820 746.835L353.820 232.302L234.948 232.302C247.095 197.594 260.111 155.946 272.258 117.768M175.078 290.436L296.553 290.436L296.553 463.972L175.078 463.972M175.078 689.568L175.078 522.106L296.553 522.106L296.553 689.568M392.866 189.785L392.866 547.269L545.577 547.269C510.870 670.479 440.588 783.278 298.289 851.824C313.907 863.972 332.996 885.664 342.540 900.414C475.295 832.735 549.048 728.614 589.829 611.477L589.829 806.705C589.829 869.178 608.050 884.796 680.067 884.796C694.818 884.796 789.395 884.796 804.145 884.796C858.809 884.796 876.163 863.972 882.236 787.616C866.618 783.278 843.191 775.469 831.043 765.924C828.440 824.059 823.234 832.735 798.072 832.735C778.983 832.735 700.892 832.735 685.273 832.735C653.169 832.735 647.963 828.397 647.963 807.573L647.963 575.035L601.976 575.035L608.918 547.269L835.382 547.269L835.382 189.785L624.536 189.785C637.551 165.490 651.434 137.725 664.449 109.959L590.696 100.414C584.623 126.445 571.607 161.152 558.592 189.785M455.338 392.822L574.210 392.822C570.740 425.794 566.401 459.633 559.460 492.605L455.338 492.605M635.816 392.822L771.174 392.822L771.174 492.605L621.065 492.605C627.139 459.633 632.345 425.794 635.816 392.822M455.338 243.581L583.755 243.581L578.549 341.629L455.338 341.629M645.360 243.581L771.174 243.581L771.174 341.629L640.154 341.629M673.126 766.792C684.406 759.850 704.362 754.644 811.087 735.555L820.631 767.659L859.677 750.306C851.868 717.334 827.573 662.670 804.145 621.022L767.703 634.037C777.247 653.126 787.659 675.685 796.336 697.377L722.584 707.790C743.408 672.215 764.232 626.228 778.983 581.108L731.260 565.490C719.113 621.022 690.479 679.156 682.670 693.907C674.861 708.657 667.052 718.202 657.508 719.937C663.581 732.952 671.390 755.512 673.126 766.792"/></svg>