<svg xmlns="http://www.w3.org/2000/svg" viewBox="0 0 1000 1000" fill="currentColor"><path d="M173.628 468.095L173.628 656.840L826.442 656.840L826.442 468.095M309.558 280.216L688.779 280.216L688.779 319.177L309.558 319.177M309.558 352.078L688.779 352.078L688.779 391.905L309.558 391.905M309.558 208.355L688.779 208.355L688.779 246.450L309.558 246.450M115.619 697.532L115.619 752.078L317.351 752.078C297.437 808.355 248.087 836.061 113.887 851.645C125.143 862.900 140.727 886.277 145.056 900.130C299.169 877.619 358.909 835.195 381.420 752.078L614.320 752.078L614.320 900.130L678.390 900.130L678.390 752.078L887.048 752.078L887.048 697.532M235.100 578.052L468.866 578.052L468.866 617.013L235.100 617.013M529.472 578.052L763.238 578.052L763.238 617.013L529.472 617.013M235.100 507.922L468.866 507.922L468.866 545.152L235.100 545.152M529.472 507.922L763.238 507.922L763.238 545.152L529.472 545.152M466.268 100.130C461.074 118.312 448.952 145.152 438.563 167.662L247.221 167.662L247.221 432.597L753.714 432.597L753.714 167.662L508.693 167.662C519.948 150.346 532.069 131.299 544.190 111.385"/></svg>