<svg xmlns="http://www.w3.org/2000/svg" viewBox="0 0 1000 1000" fill="currentColor"><path d="M417 400.757L572.676 400.757L572.676 508L417 508M417 245.946L572.676 245.946L572.676 351.459L417 351.459M564.027 591.027L564.027 799.459C564.027 870.378 584.784 890.270 665.216 890.270C681.649 890.270 779.378 890.270 796.676 890.270C867.595 890.270 886.622 858.270 894.405 730.270C876.243 725.081 847.703 714.703 833 703.459C830.405 812.432 825.216 828 790.622 828C769 828 688.568 828 671.270 828C635.811 828 629.757 823.676 629.757 799.459L629.757 591.027M356.459 591.027C340.892 723.351 301.108 803.784 105.649 843.568C118.622 856.541 135.919 882.486 141.973 899.784C354.730 849.622 405.757 751.027 423.919 591.027M659.162 168.973L659.162 230.378L775.919 230.378L775.919 508L659.162 508L659.162 568.541L839.054 568.541L839.054 168.973M466.297 99.784C461.108 127.459 449 164.649 437.757 194.919L360.784 194.919L360.784 559.027L630.622 559.027L630.622 194.919L500.892 194.919C511.270 169.838 523.378 140.432 533.757 111.027M155.811 604.865C168.784 593.622 192.135 580.649 350.405 509.730C346.946 495.892 342.622 469.081 340.892 451.784L226.730 498.486L226.730 235.568C272.568 218.270 321 197.514 359.919 175.027L309.757 127.459C275.162 152.541 215.486 183.676 163.595 205.297L163.595 488.973C163.595 523.568 141.973 540.865 127.270 548.649C137.649 561.622 151.486 590.162 155.811 604.865"/></svg>