<svg xmlns="http://www.w3.org/2000/svg" viewBox="0 0 1000 1000" fill="currentColor"><path d="M480.991 214.437L602.619 214.437L602.619 486.814L480.991 486.814M415.895 151.054L415.895 750.625C415.895 848.270 446.730 872.253 548.657 872.253C572.640 872.253 746.516 872.253 771.355 872.253C867.287 872.253 889.557 830.283 899.835 709.512C880.991 706.086 853.582 694.951 837.308 683.816C830.456 785.743 821.891 811.439 769.642 811.439C733.668 811.439 581.206 811.439 552.084 811.439C492.126 811.439 480.991 800.304 480.991 751.482L480.991 547.627L785.916 547.627L785.916 604.158L851.869 604.158L851.869 151.054M785.916 486.814L662.576 486.814L662.576 214.437L785.916 214.437M215.467 106.514L215.467 279.533L112.683 279.533L112.683 340.347L215.467 340.347L215.467 529.640C171.784 541.632 132.383 552.767 99.835 560.475L117.822 623.002L215.467 593.880L215.467 820.861C215.467 831.139 212.041 834.565 201.762 834.565C192.340 835.422 162.362 835.422 128.957 834.565C137.522 851.696 145.231 878.248 147.801 893.666C198.336 894.522 230.028 891.953 250.585 881.675C271.141 872.253 279.707 855.122 279.707 820.004L279.707 574.180L384.203 543.345L375.638 483.388L279.707 510.797L279.707 340.347L367.929 340.347L367.929 279.533L279.707 279.533L279.707 106.514"/></svg>