<svg xmlns="http://www.w3.org/2000/svg" viewBox="0 0 1000 1000" fill="currentColor"><path d="M363.054 784.568C308.568 815.703 205.649 838.189 116.568 852.027C129.541 863.270 149.432 888.351 158.946 900.459C247.162 882.297 357.865 849.432 421 807.054M577.541 821.757C669.216 842.514 762.622 871.919 817.108 897.865L874.189 859.811C813.649 834.730 711.595 805.324 619.054 785.432M601.757 282.081L601.757 334.838L393.324 334.838L393.324 283.811L330.189 283.811L330.189 334.838L145.973 334.838L145.973 383.270L330.189 383.270L330.189 442.081L113.108 442.081L113.108 492.243L469.432 492.243L469.432 538.946L215.162 538.946L215.162 775.919L793.757 775.919L793.757 538.946L530.838 538.946L530.838 492.243L890.622 492.243L890.622 442.081L665.757 442.081L665.757 383.270L856.027 383.270L856.027 334.838L665.757 334.838L665.757 282.081M393.324 383.270L601.757 383.270L601.757 442.081L393.324 442.081M275.703 677.324L469.432 677.324L469.432 732.676L275.703 732.676M530.838 677.324L730.622 677.324L730.622 732.676L530.838 732.676M275.703 582.189L469.432 582.189L469.432 635.811L275.703 635.811M530.838 582.189L730.622 582.189L730.622 635.811L530.838 635.811M241.108 102.189C211.703 162.730 162.405 222.405 108.784 261.324C124.351 270.838 150.297 287.270 161.541 297.649C188.351 275.162 215.162 247.486 240.243 215.486L305.973 215.486C321.541 237.108 336.243 262.189 342.297 279.486L399.378 260.459C394.189 247.486 384.676 231.054 373.432 215.486L497.108 215.486L497.108 170.514L271.378 170.514C282.622 153.216 292.135 135.919 300.784 118.622M579.270 100.459C557.649 161.865 515.270 219.811 465.973 258.730C482.405 266.514 510.081 281.216 522.189 291.595C544.676 270.838 568.027 244.892 587.919 215.486L664.027 215.486C682.189 237.973 700.351 265.649 708.135 284.676L767.811 264.784C761.757 250.946 749.649 232.784 735.811 215.486L888.892 215.486L888.892 170.514L615.595 170.514C625.973 152.351 634.622 134.189 641.541 115.162"/></svg>