<svg xmlns="http://www.w3.org/2000/svg" viewBox="0 0 1000 1000" fill="currentColor"><path d="M216.140 483.564C209.229 545.767 196.270 622.657 184.175 674.492L414.844 674.492C343.138 749.654 233.419 815.313 131.475 849.006C146.162 861.102 164.305 884.428 173.808 899.978C276.616 859.374 389.790 785.940 465.816 699.546L465.816 899.114L529.747 899.114L529.747 674.492L780.287 674.492C771.648 753.110 762.145 786.803 750.050 798.898C743.138 804.946 734.499 805.810 718.948 805.810C703.397 806.674 662.793 805.810 620.460 801.490C629.963 817.905 637.739 842.959 638.603 861.102C683.527 863.693 725.860 863.693 747.458 861.965C772.512 860.238 788.063 855.054 802.749 840.367C825.212 818.769 836.443 766.069 848.538 645.119C849.402 636.479 850.266 619.201 850.266 619.201L529.747 619.201L529.747 538.855L820.892 538.855L820.892 347.927L184.175 347.927L184.175 403.218L465.816 403.218L465.816 483.564M270.568 538.855L465.816 538.855L465.816 619.201L258.473 619.201M529.747 403.218L757.825 403.218L757.825 483.564L529.747 483.564M254.153 99.978C223.916 182.916 172.080 261.533 110.741 313.369C127.156 321.145 153.073 335.832 165.168 345.335C197.998 314.233 229.963 274.492 257.609 228.704L305.125 228.704C323.268 263.261 340.546 305.594 348.322 333.240L405.341 312.505C399.294 290.907 385.471 258.078 369.920 228.704L509.013 228.704L509.013 178.596L286.119 178.596C296.486 157.862 305.989 136.263 313.765 114.665M587.631 99.978C565.168 179.460 524.564 255.486 471.864 305.594C488.279 313.369 515.924 329.784 528.883 339.287C555.665 309.914 581.583 271.901 604.045 228.704L662.793 228.704C691.302 262.397 718.084 305.594 730.179 334.104L786.335 309.914C775.968 287.451 756.097 256.350 733.635 228.704L889.143 228.704L889.143 178.596L627.371 178.596C636.011 157.862 643.786 136.263 649.834 114.665"/></svg>