<svg xmlns="http://www.w3.org/2000/svg" viewBox="0 0 1000 1000" fill="currentColor"><path d="M505.456 205.296C555.829 240.301 615.594 291.528 642.062 326.534L686.459 285.552C658.284 249.693 597.665 200.173 546.438 167.729M471.304 428.134C526.800 463.140 591.688 516.928 622.425 553.641L665.114 511.806C633.524 475.093 566.928 423.866 511.432 390.568M393.609 120.771C329.575 148.946 216.875 174.559 121.251 189.927C128.081 203.588 136.619 224.933 139.180 239.447C176.747 234.324 216.875 228.348 257.003 220.664L257.003 349.586L112.713 349.586L112.713 409.351L248.465 409.351C214.314 507.537 155.402 618.529 99.906 679.148C111.005 694.517 126.374 720.130 133.204 738.060C176.747 685.125 221.998 600.600 257.003 514.367L257.003 892.596L320.184 892.596L320.184 495.584C350.066 538.273 385.925 594.623 399.586 622.798L438.860 573.279C420.931 548.519 345.797 453.748 320.184 425.573L320.184 409.351L446.544 409.351L446.544 349.586L320.184 349.586L320.184 207.003C362.019 196.758 400.440 184.805 432.884 171.998M436.299 663.780L445.691 725.253L726.587 679.148L726.587 892.596L789.767 892.596L789.767 668.049L899.906 650.120L890.514 591.208L789.767 607.430L789.767 107.964L726.587 107.964L726.587 617.676"/></svg>