<svg xmlns="http://www.w3.org/2000/svg" viewBox="0 0 1000 1000" fill="currentColor"><path d="M113.203 294.034C136.932 344.881 165.746 413.525 178.458 454.203L230.153 426.237C216.593 388.102 186.932 322 162.356 272M742.017 488.102L742.017 562.678L436.932 562.678L436.932 488.102M742.017 440.644L436.932 440.644L436.932 369.458L742.017 369.458M372.525 892.339C388.627 881.322 414.898 872 603.034 818.610C599.644 805.898 596.254 782.169 594.559 766.068L436.932 805.898L436.932 613.525L550.492 613.525C601.339 759.288 700.492 850.814 862.356 889.797C869.983 872.847 886.932 849.119 900.492 837.254C820.831 822 756.424 792.339 707.271 749.966C758.966 720.305 820.831 680.475 869.136 643.186L825.068 606.746C786.932 640.644 723.373 685.559 672.525 716.915C646.254 686.407 625.915 652.508 609.814 613.525L803.034 613.525L803.034 318.610L375.068 318.610L375.068 781.322C375.068 816.915 358.119 833.864 344.559 841.492C354.729 853.356 368.288 877.932 372.525 892.339M515.746 122.847C524.220 145.729 534.390 172.847 542.017 198.271L242.864 198.271L242.864 452.508C242.864 477.932 242.017 505.051 240.322 533.017C187.780 560.136 136.932 586.407 100.492 602.508L122.525 660.983L234.390 596.576C221.678 683.864 191.169 772.847 121.678 842.339C135.237 850.814 160.661 874.542 170.831 887.254C289.475 770.305 307.271 586.407 307.271 453.356L307.271 256.746L886.932 256.746L886.932 198.271L618.288 198.271C608.966 169.458 597.102 135.559 585.237 107.593"/></svg>