<svg xmlns="http://www.w3.org/2000/svg" viewBox="0 0 1000 1000" fill="currentColor"><path d="M175.920 288.454L175.920 347.873L478.181 347.873L478.181 288.454M138.030 124.837L138.030 272.954L201.755 272.954L201.755 185.117L799.386 185.117L799.386 272.954L865.694 272.954L865.694 124.837M538.461 489.100C570.323 533.879 601.324 596.743 613.380 637.216L667.632 613.104C654.715 571.770 622.853 512.351 589.268 468.433M115.640 458.099L115.640 517.518L213.811 517.518L213.811 575.214C213.811 653.578 197.449 754.332 100.140 830.112C112.196 838.723 135.447 861.974 144.058 874.891C250.840 791.361 274.952 669.079 274.952 576.936L274.952 517.518L367.955 517.518L367.955 764.665C367.955 843.890 399.817 863.696 513.488 863.696C538.461 863.696 740.829 863.696 766.663 863.696C867.417 863.696 889.806 831.834 900.140 711.274C882.056 707.830 856.222 698.357 841.582 688.024C835.554 788.777 826.082 806 764.941 806C719.300 806 547.072 806 513.488 806C441.152 806 428.235 798.250 428.235 764.665L428.235 517.518L510.904 517.518L510.904 458.099M729.634 254.870L729.634 362.512L509.182 362.512L509.182 421.070L729.634 421.070L729.634 682.857C729.634 693.191 726.189 696.635 714.133 696.635C702.939 697.496 665.048 697.496 623.714 696.635C632.325 712.997 640.936 737.109 644.381 753.470C700.355 754.332 735.662 752.609 759.774 743.137C783.886 733.664 789.914 716.441 789.914 683.718L789.914 421.070L886.362 421.070L886.362 362.512L789.914 362.512L789.914 254.870"/></svg>