<svg xmlns="http://www.w3.org/2000/svg" viewBox="0 0 1000 1000" fill="currentColor"><path d="M560.721 257.724L745.336 257.724C720.046 310.832 685.484 359.726 645.020 401.876C604.556 360.569 573.366 316.733 550.605 273.741M246.285 111.886L246.285 292.287L119.836 292.287L119.836 352.139L238.698 352.139C212.565 468.472 156.084 600.822 99.604 672.476C110.563 686.807 126.580 711.254 132.481 728.114C174.630 672.476 215.094 580.590 246.285 485.332L246.285 886.596L306.137 886.596L306.137 461.728C332.270 498.820 361.774 544.341 375.262 567.945L413.197 519.895C398.023 497.977 328.898 414.521 306.137 389.231L306.137 352.139L402.238 352.139L382.006 368.999C396.337 379.115 420.784 401.033 431.743 411.992C460.405 386.702 489.066 356.354 515.199 322.634C537.960 362.255 567.465 402.719 603.713 440.653C532.059 502.192 447.760 547.713 363.460 574.689C376.105 587.334 392.122 610.938 399.709 626.112C421.627 617.682 443.545 609.252 465.463 599.136L465.463 888.282L524.472 888.282L524.472 851.191L759.667 851.191L759.667 884.910L821.205 884.910L821.205 592.392L859.983 607.566C869.256 591.549 886.959 567.102 899.604 554.457C816.148 529.168 745.336 489.547 688.013 441.496C747.022 379.958 795.073 305.774 825.420 218.946L785.800 200.400L773.998 202.929L591.911 202.929C605.399 178.483 617.201 153.193 627.317 127.060L566.622 111.043C533.745 197.028 478.950 279.642 415.726 339.494L415.726 292.287L306.137 292.287L306.137 111.886M524.472 795.553L524.472 632.856L759.667 632.856L759.667 795.553M506.769 578.061C556.506 551.928 602.870 519.895 645.863 481.960C687.170 518.209 735.220 551.085 790.015 578.061"/></svg>