<svg xmlns="http://www.w3.org/2000/svg" viewBox="0 0 1000 1000" fill="currentColor"><path d="M144.476 152.224C202.800 176.598 272.441 217.513 307.261 249.721L345.564 194.879C309.873 164.411 237.620 126.109 180.166 104.346M100.079 391.615C156.663 415.989 225.433 456.033 259.383 485.630L295.945 431.658C261.124 402.061 191.483 364.629 134.900 342.866M125.324 839.928L182.778 880.842C231.527 799.014 288.110 689.330 330.765 597.055L280.275 557.012C234.138 657.121 169.720 772.028 125.324 839.928M463.953 200.102L791.266 200.102L791.266 326.326L463.953 326.326M400.406 139.166L400.406 437.752C400.406 569.199 391.701 742.431 294.203 863.432C309.873 870.396 336.859 886.065 348.175 896.511C450.025 772.028 463.953 577.904 463.953 437.752L463.953 387.262L854.813 387.262L854.813 139.166M806.935 472.572C756.445 516.098 672.005 563.106 589.307 601.408L589.307 432.529L527.501 432.529L527.501 792.050C527.501 868.655 550.134 889.547 634.573 889.547C652.854 889.547 775.596 889.547 793.877 889.547C873.094 889.547 891.374 852.986 900.079 719.798C882.669 716.316 856.554 704.999 841.755 695.423C837.403 809.460 831.309 830.353 790.395 830.353C764.280 830.353 660.689 830.353 640.667 830.353C597.141 830.353 589.307 824.259 589.307 792.050L589.307 658.862C683.322 618.818 786.042 569.199 856.554 518.709"/></svg>