<svg xmlns="http://www.w3.org/2000/svg" viewBox="0 0 1000 1000" fill="currentColor"><path d="M626.211 446.629L626.211 892.198L692.878 892.198L692.878 446.629M309.755 447.473L309.755 555.489C309.755 651.692 293.722 763.084 135.072 844.941C151.105 855.068 175.578 877.008 186.549 891.354C357.013 800.215 376.422 669.414 376.422 556.333L376.422 447.473M497.097 108.232C420.304 239.878 259.966 367.304 100.473 420.468C114.819 436.502 130.852 462.662 139.291 480.384C273.468 428.063 407.646 326.797 497.941 213.717C585.705 325.954 719.882 423.844 855.747 470.257C865.873 452.536 886.127 425.532 900.473 411.186C757.857 370.679 611.865 269.414 534.228 164.772L547.730 142.831"/></svg>