<svg xmlns="http://www.w3.org/2000/svg" viewBox="0 0 1000 1000" fill="currentColor"><path d="M251.974 287.511L251.974 333.863L746.395 333.863L746.395 287.511M313.777 428.283L678.584 428.283L678.584 493.519L313.777 493.519M254.549 381.073L254.549 539.871L741.245 539.871L741.245 381.073M463.991 638.584L463.991 706.395L257.983 706.395L257.983 638.584M526.652 638.584L745.536 638.584L745.536 706.395L526.652 706.395M463.991 751.030L463.991 820.558L257.983 820.558L257.983 751.030M526.652 751.030L745.536 751.030L745.536 820.558L526.652 820.558M197.039 588.798L197.039 900.386L257.983 900.386L257.983 870.343L745.536 870.343L745.536 896.094L809.056 896.094L809.056 588.798M434.807 115.837C445.966 134.721 457.983 157.897 468.283 178.498L139.528 178.498L139.528 341.588L202.189 341.588L202.189 234.292L797.039 234.292L797.039 341.588L861.416 341.588L861.416 178.498L546.395 178.498C536.094 155.322 518.069 124.421 502.618 100.386"/></svg>