<svg xmlns="http://www.w3.org/2000/svg" viewBox="0 0 1000 1000" fill="currentColor"><path d="M226.054 105.743L226.054 893.738L284.360 893.738L284.360 105.743M144.596 271.230C138.594 340.684 123.160 435.003 100.009 491.595L150.598 509.601C172.892 447.008 189.183 347.543 193.471 278.090M291.220 265.228C316.943 316.675 343.524 386.129 352.956 428.144L401.831 404.135C391.541 363.835 364.103 296.954 337.522 246.364M567.318 134.896C601.616 174.339 640.202 229.215 656.493 264.371L713.085 233.503C695.078 197.490 655.636 145.185 620.480 107.458M394.971 283.235L394.971 344.971L478.144 344.971L478.144 839.719L877.715 839.719L877.715 782.270L543.310 782.270L543.310 344.971L900.009 344.971L900.009 283.235"/></svg>