<svg xmlns="http://www.w3.org/2000/svg" viewBox="0 0 1000 1000" fill="currentColor"><path d="M712.316 438.530L808.897 438.530L808.897 518.872L712.316 518.872M566.162 438.530L661.034 438.530L661.034 518.872L566.162 518.872M423.427 438.530L515.735 438.530L515.735 518.872L423.427 518.872M367.017 395.795L367.017 562.462L867.017 562.462L867.017 395.795M473 262.462L761.889 262.462L761.889 314.598L473 314.598M473 176.137L761.889 176.137L761.889 226.564L473 226.564M413.171 134.256L413.171 356.479L825.137 356.479L825.137 134.256M214.026 106.051L214.026 891.521L273.855 891.521L273.855 106.051M138.812 271.009C133.684 337.675 120.009 432.547 100.350 490.667L145.650 506.051C165.308 441.949 179.838 343.658 182.402 276.991M288.385 256.479C304.624 304.342 320.863 367.590 325.991 406.051L373.855 387.248C367.872 352.205 349.923 289.812 332.829 242.803M753.342 658.188C719.154 696.650 673.855 728.274 620.863 754.769C567.872 728.274 522.573 695.795 488.385 658.188M354.197 605.197L354.197 658.188L416.590 658.188C452.487 706.906 499.496 748.786 555.051 782.974C482.402 809.470 401.205 827.419 321.718 837.675C332.829 851.350 345.650 876.991 351.632 893.231C443.940 878.701 536.248 854.769 619.154 818.017C690.949 852.205 773 876.991 861.034 891.521C870.436 874.427 886.675 849.641 900.350 835.966C823.427 825.709 750.778 808.615 685.821 783.829C755.051 743.658 813.171 691.521 849.923 625.709L808.043 602.632L796.932 605.197"/></svg>