<svg xmlns="http://www.w3.org/2000/svg" viewBox="0 0 1000 1000" fill="currentColor"><path d="M601.998 538.400C632.235 595.419 668.521 670.581 684.935 718.961L732.451 693.907C715.173 646.391 678.888 573.821 646.922 516.801M565.713 115.937C577.808 140.127 591.631 170.365 601.134 197.147L344.546 197.147L344.546 477.924C344.546 595.419 340.227 754.382 287.527 866.693C302.214 872.741 328.132 889.156 338.499 898.659C394.654 780.300 402.430 603.194 402.430 477.924L402.430 255.030L898.326 255.030L898.326 197.147L666.793 197.147C656.425 167.773 639.147 130.624 623.596 100.387M766.145 282.676L766.145 403.626L584.719 403.626L584.719 458.918L766.145 458.918L766.145 829.544C766.145 839.911 762.689 843.367 750.594 843.367C740.227 844.231 704.806 844.231 664.201 843.367C671.976 858.918 679.752 883.972 683.207 898.659C737.635 898.659 772.192 897.795 794.654 888.292C815.389 878.788 822.300 862.374 822.300 829.544L822.300 458.918L896.598 458.918L896.598 403.626L822.300 403.626L822.300 282.676M532.883 274.037C513.877 363.886 472.408 477.924 416.253 549.631C424.892 561.726 436.987 585.052 443.035 598.875C459.449 579.004 475 555.678 489.687 531.488L489.687 898.659L545.842 898.659L545.842 415.721C563.121 372.525 576.944 328.464 588.175 286.996M266.793 111.618C230.508 244.663 170.896 376.844 102.646 464.965C113.013 480.516 131.156 513.346 136.339 528.032C158.801 498.659 180.400 465.829 201.134 429.544L201.134 900.387L261.609 900.387L261.609 306.002C286.663 248.983 308.261 187.644 325.540 128.032"/></svg>