<svg xmlns="http://www.w3.org/2000/svg" viewBox="0 0 1000 1000" fill="currentColor"><path d="M569.769 100.330L569.769 267.363L421.198 267.363L421.198 100.330L356.143 100.330L356.143 267.363L145.154 267.363L145.154 900.330L207.571 900.330L207.571 844.066L791.308 844.066L791.308 896.813L855.484 896.813L855.484 267.363L633.945 267.363L633.945 100.330M207.571 779.890L207.571 585.604L356.143 585.604L356.143 779.890M791.308 779.890L633.945 779.890L633.945 585.604L791.308 585.604M421.198 779.890L421.198 585.604L569.769 585.604L569.769 779.890M207.571 522.308L207.571 331.538L356.143 331.538L356.143 522.308M791.308 522.308L633.945 522.308L633.945 331.538L791.308 331.538M421.198 522.308L421.198 331.538L569.769 331.538L569.769 522.308"/></svg>