<svg xmlns="http://www.w3.org/2000/svg" viewBox="0 0 1000 1000" fill="currentColor"><path d="M308.655 344.517L696.586 344.517L696.586 432.448L308.655 432.448M244.862 297.103L244.862 479L763.828 479L763.828 297.103M436.241 116.069C449.172 136.759 462.103 162.621 473.310 185.034L118.138 185.034L118.138 242.793L881.931 242.793L881.931 185.034L547.448 185.034C535.379 158.310 516.414 125.552 500.034 99.690M470.724 666.931L470.724 825.552C470.724 838.483 465.552 841.931 448.310 842.793C431.069 843.655 362.966 843.655 295.724 841.931C305.207 858.310 315.552 881.586 319 899.690C406.069 899.690 461.241 899.690 494 891.069C527.621 882.448 537.966 865.207 537.966 828.138L537.966 701.414C641.414 672.103 752.621 625.552 831.931 576.414L785.379 535.897L769.862 539.345L153.483 539.345L153.483 595.379L675.897 595.379C615.552 622.966 538.828 650.552 470.724 666.931"/></svg>