<svg xmlns="http://www.w3.org/2000/svg" viewBox="0 0 1000 1000" fill="currentColor"><path d="M647.399 109.775L647.399 293.214L494.533 293.214L494.533 354.361L633.811 354.361C593.896 491.091 515.764 630.369 434.236 708.501C446.125 723.788 463.960 747.567 472.452 766.251C538.694 700.008 601.539 590.454 647.399 474.106L647.399 890.242L711.093 890.242L711.093 468.161C748.461 579.414 797.718 684.722 850.372 749.265C862.261 733.130 883.493 711.049 899.628 700.008C830.839 626.123 765.446 489.393 727.229 354.361L873.301 354.361L873.301 293.214L711.093 293.214L711.093 109.775M273.726 109.775L273.726 293.214L120.860 293.214L120.860 354.361L262.686 354.361C229.565 472.408 164.172 603.193 99.628 675.380C110.669 690.667 127.654 716.144 134.448 733.979C186.253 674.531 236.359 575.168 273.726 472.408L273.726 890.242L335.722 890.242L335.722 449.478C370.541 494.488 414.703 553.087 433.386 584.510L475 529.308C454.618 503.830 362.898 397.673 335.722 371.346L335.722 354.361L457.166 354.361L457.166 293.214L335.722 293.214L335.722 109.775"/></svg>