<svg xmlns="http://www.w3.org/2000/svg" viewBox="0 0 1000 1000" fill="currentColor"><path d="M503.407 99.641C476.421 243.275 426.802 380.816 356.291 467.867C371.960 476.572 401.557 494.853 413.744 504.429C451.176 453.939 483.385 389.521 510.371 317.269L800.251 317.269C786.323 373.852 768.042 433.917 750.632 474.831L807.215 493.983C834.201 436.529 862.058 345.125 882.950 265.909L834.201 251.110L823.755 253.721L532.134 253.721C546.933 208.455 559.120 159.706 568.695 110.958M584.365 380.816L584.365 455.680C584.365 572.329 564.343 735.985 326.693 850.892C341.492 862.209 362.384 884.842 371.960 899.641C526.040 823.036 594.811 725.539 625.279 629.782C668.804 755.136 737.575 849.151 845.518 896.159C855.094 878.749 875.115 854.374 889.914 841.317C754.985 790.827 680.991 660.250 647.912 496.594L648.782 457.421L648.782 380.816M110.806 178.857L110.806 753.395L172.613 753.395L172.613 685.495L350.197 685.495L350.197 178.857M172.613 241.534L287.520 241.534L287.520 621.948L172.613 621.948"/></svg>