<svg xmlns="http://www.w3.org/2000/svg" viewBox="0 0 1000 1000" fill="currentColor"><path d="M142.563 154.279C195.896 183.131 269.339 225.098 306.060 252.202L344.530 197.995C306.934 173.514 232.617 133.295 179.284 107.940M99.721 394.716C153.055 423.568 225.623 465.536 261.470 490.016L298.191 435.809C260.596 411.328 187.153 371.984 135.568 346.628M119.831 844.989L175.787 889.579C227.372 808.268 288.574 698.978 334.913 606.301L286.825 563.459C236.115 662.257 167.044 777.667 119.831 844.989M342.781 352.749L342.781 415.699L595.459 415.699L595.459 560.836L405.732 560.836L405.732 900.071L466.934 900.071L466.934 862.475L779.066 862.475L779.066 895.699L842.016 895.699L842.016 560.836L657.536 560.836L657.536 415.699L899.721 415.699L899.721 352.749L657.536 352.749L657.536 199.743C733.601 186.628 804.421 170.016 862.126 150.781L809.667 100.071C712.617 134.169 535.131 162.148 383.874 177.885C390.869 192.749 399.612 218.104 403.109 233.842C465.186 227.721 530.760 219.852 595.459 210.235L595.459 352.749M466.934 803.022L466.934 621.164L779.066 621.164L779.066 803.022"/></svg>