<svg xmlns="http://www.w3.org/2000/svg" viewBox="0 0 1000 1000" fill="currentColor"><path d="M115.131 643.177L122.110 702.501L300.954 681.563L300.954 814.169C300.954 823.766 299.209 825.510 286.996 826.383C273.909 827.255 234.651 828.128 189.286 826.383C198.882 843.831 209.351 869.131 211.968 886.579C269.547 886.579 307.061 886.579 331.489 876.110C357.661 865.641 364.640 848.193 364.640 815.041L364.640 673.711L544.357 651.901L543.484 594.322L364.640 616.132L364.640 580.363C411.750 552.446 462.350 514.932 499.864 478.291L458.860 447.757L444.902 451.246L186.668 451.246L186.668 502.719L387.323 502.719C360.278 524.529 328.871 546.339 300.954 561.170L300.954 623.111M129.962 318.640L129.962 450.374L185.796 450.374L185.796 373.602L481.543 373.602L481.543 450.374L539.995 450.374L539.995 318.640L368.130 318.640L368.130 239.251L533.015 239.251L533.015 183.417L368.130 183.417L368.130 99.665L305.316 99.665L305.316 183.417L136.069 183.417L136.069 239.251L305.316 239.251L305.316 318.640M657.770 103.155C657.770 170.330 657.770 234.889 656.025 297.702L561.805 297.702L561.805 358.771L654.280 358.771C644.684 571.639 610.660 748.738 478.053 853.427C493.757 863.024 515.567 884.834 525.164 899.665C667.366 781.890 704.880 589.960 714.477 358.771L824.400 358.771C815.676 676.328 806.080 790.614 785.142 816.786C776.418 827.255 768.566 829.872 753.735 829.872C736.287 829.872 695.284 829.872 650.791 825.510C661.260 842.959 668.239 869.131 669.111 887.451C710.987 889.196 754.607 890.941 779.907 887.451C806.952 884.834 823.528 877.855 840.104 855.172C868.021 818.531 876.745 695.521 885.469 329.981C885.469 321.257 885.469 297.702 885.469 297.702L717.094 297.702C718.839 234.889 718.839 170.330 718.839 103.155"/></svg>