<svg xmlns="http://www.w3.org/2000/svg" viewBox="0 0 1000 1000" fill="currentColor"><path d="M630.094 100.025L630.094 175.068L398.858 175.068L398.858 100.025L333.414 100.025L333.414 175.068L130.101 175.068L130.101 236.149L333.414 236.149L333.414 306.829L308.109 299.848C263.607 392.342 185.946 480.474 103.050 535.447C119.629 545.045 148.425 565.115 161.514 576.459C213.869 536.320 267.097 481.346 312.472 419.393L794.141 419.393C781.925 691.640 767.963 800.714 742.658 826.019C732.187 835.618 722.589 838.236 703.392 837.363C680.705 837.363 621.368 837.363 559.415 832.127C572.503 850.452 581.229 877.502 582.102 897.572C638.820 900.189 697.284 901.062 727.824 898.444C760.110 895.826 781.052 889.718 801.122 865.286C834.280 827.764 847.369 712.583 860.458 392.342C861.331 383.616 861.331 360.056 861.331 360.056L351.738 360.056L374.426 319.045L335.159 307.701L398.858 307.701L398.858 236.149L630.094 236.149L630.094 312.064L694.666 312.064L694.666 236.149L897.107 236.149L897.107 175.068L694.666 175.068L694.666 100.025M250.518 507.524L250.518 810.313L313.344 810.313L313.344 752.722L616.133 752.722L616.133 507.524M313.344 563.370L552.434 563.370L552.434 696.003L313.344 696.003"/></svg>