<svg xmlns="http://www.w3.org/2000/svg" viewBox="0 0 1000 1000" fill="currentColor"><path d="M265.865 251.239L265.865 500.206C265.865 614.243 254.548 770.064 99.597 856.245C112.655 867.561 130.936 887.583 138.770 899.770C304.168 798.791 322.448 632.523 322.448 501.076L322.448 251.239M302.427 718.704C344.211 768.323 392.960 835.353 415.593 878.008L460.860 838.835C438.226 797.921 387.737 733.503 345.082 685.625M143.993 140.684L143.993 676.919L197.965 676.919L197.965 194.656L383.384 194.656L383.384 674.308L437.356 674.308L437.356 140.684M731.589 100.641L731.589 272.132L478.270 272.132L478.270 333.938L709.826 333.938C654.113 487.148 554.004 646.452 452.155 727.409C469.565 741.337 489.587 763.971 500.903 780.510C587.954 703.905 672.394 575.940 731.589 443.622L731.589 815.331C731.589 829.259 727.236 833.612 714.178 834.482C700.250 834.482 655.854 834.482 608.847 833.612C618.422 851.892 628.868 881.490 633.221 898.900C695.898 898.900 737.682 897.159 762.927 886.713C789.042 875.396 798.618 856.245 798.618 815.331L798.618 333.938L899.597 333.938L899.597 272.132L798.618 272.132L798.618 100.641"/></svg>