<svg xmlns="http://www.w3.org/2000/svg" viewBox="0 0 1000 1000" fill="currentColor"><path d="M537.552 646.931C572.897 683.138 614.276 734 633.241 767.621L678.931 735.724C659.103 703.828 616.862 654.690 580.655 619.345M752.207 686.586C788.414 737.448 828.069 807.276 843.586 851.241L890.138 827.103C874.621 783.138 834.103 715.897 797.034 665.897M443.586 669.345L443.586 815.034C443.586 874.517 463.414 890.897 540.138 890.897C555.655 890.897 664.276 890.897 680.655 890.897C741 890.897 758.241 866.759 764.276 770.207C748.759 766.759 726.345 758.138 714.276 748.655C710.828 828.828 705.655 839.172 674.621 839.172C651.345 839.172 561.690 839.172 544.448 839.172C506.517 839.172 500.483 834.862 500.483 814.172L500.483 669.345M362.552 672.793C348.759 725.379 322.897 796.069 293.586 839.172L342.724 865.034C372.897 820.207 396.172 746.931 411.690 691.759M448.759 319.345L448.759 365.034L640.138 365.034L640.138 319.345M499.621 460.724L595.310 460.724L595.310 548.655L499.621 548.655M199.621 109.862L199.621 284L108.241 284L108.241 344.345L199.621 344.345L199.621 532.276C161.690 546.069 128.069 558.138 99.621 567.621L117.724 630.552L199.621 599.517L199.621 820.207C199.621 831.414 195.310 834 184.966 834C175.483 834.862 145.310 834.862 110.828 833.138C119.448 851.241 127.207 877.966 129.793 895.207C179.793 895.207 210.828 892.621 232.379 882.276C252.207 871.931 259.103 853.828 259.103 819.345L259.103 575.379L341 543.483L329.793 484L259.103 510.724L259.103 344.345L340.138 344.345L340.138 284L259.103 284L259.103 109.862M653.069 104.690C654.793 143.483 656.517 180.552 659.103 215.034L368.586 215.034L368.586 370.207C368.586 447.793 362.552 550.379 314.276 626.241C326.345 632.276 348.759 650.379 358.241 661.586C413.414 577.966 422.034 458.138 422.034 371.069L422.034 267.621L663.414 267.621C673.759 363.310 688.414 442.621 707.379 502.966C686.690 530.552 663.414 554.690 637.552 576.241L637.552 415.034L456.517 415.034L456.517 594.345L628.931 594.345C640.138 604.690 653.931 620.207 659.966 628.828C684.103 608.138 707.379 585.724 728.931 559.862C756.517 620.207 790.138 651.241 828.069 651.241C872.034 650.379 891.862 629.690 899.621 526.241C886.690 521.931 870.310 510.724 859.103 499.517C854.793 574.517 847.034 596.069 831.517 596.069C810.828 596.069 786.690 567.621 766 510.724C804.793 453.828 836.690 386.586 859.103 313.310L808.241 301.241C793.586 352.966 772.034 402.103 746.172 446.069C734.103 398.655 724.621 339.172 717.724 267.621L883.241 267.621L883.241 215.034L811.690 215.034L847.034 187.448C830.655 165.034 795.310 131.414 767.724 108.138L729.793 134.862C757.379 159 789.276 191.759 806.517 215.034L714.276 215.034C711.690 180.552 710.828 143.483 709.966 104.690"/></svg>