<svg xmlns="http://www.w3.org/2000/svg" viewBox="0 0 1000 1000" fill="currentColor"><path d="M307.348 115.261L307.348 211.783C307.348 285.696 282.130 366.565 126.478 423.087C138.652 434.391 160.391 463.087 166.478 478.739C336.913 413.522 374.304 307.435 374.304 212.652L374.304 177.870L625.609 177.870L625.609 349.174C625.609 423.087 NaN 448.304 714.304 448.304C727.348 448.304 800.391 448.304 818.652 448.304C842.130 448.304 866.478 447.435 878.652 443.087C876.043 428.304 873.435 399.609 871.696 382.217C858.652 385.696 833.435 386.565 817.783 386.565C800.391 386.565 730.826 386.565 714.304 386.565C696.043 386.565 691.696 377.870 691.696 350.913L691.696 115.261M460.391 410.043L460.391 515.261L118.652 515.261L118.652 577L415.174 577C339.522 665.696 215.174 746.565 99.522 785.696C114.304 798.739 134.304 823.957 145.609 841.348C257.783 794.391 381.261 708.304 460.391 608.304L460.391 885.696L529.957 885.696L529.957 602.217C609.957 702.217 736.913 790.043 855.174 834.391C865.609 817.870 884.739 792.652 899.522 779.609C780.391 742.217 655.174 665.696 579.522 577L875.174 577L875.174 515.261L529.957 515.261L529.957 410.043"/></svg>