<svg xmlns="http://www.w3.org/2000/svg" viewBox="0 0 1000 1000" fill="currentColor"><path d="M611.552 99.770L611.552 160.706L384.348 160.706L384.348 99.770L319.930 99.770L319.930 160.706L114.490 160.706L114.490 219.901L319.930 219.901L319.930 285.189L384.348 285.189L384.348 219.901L611.552 219.901L611.552 285.189L675.970 285.189L675.970 219.901L886.633 219.901L886.633 160.706L675.970 160.706L675.970 99.770M564.544 300.859L564.544 897.159L631.573 897.159L631.573 743.949L897.079 743.949L897.079 682.143L631.573 682.143L631.573 581.163L856.165 581.163L856.165 522.839L631.573 522.839L631.573 427.083L875.317 427.083L875.317 367.888L631.573 367.888L631.573 300.859M102.303 686.495L102.303 748.301L368.679 748.301L368.679 899.770L435.708 899.770L435.708 301.729L368.679 301.729L368.679 367.888L127.547 367.888L127.547 427.083L368.679 427.083L368.679 523.709L146.699 523.709L146.699 582.034L368.679 582.034L368.679 686.495"/></svg>