<svg xmlns="http://www.w3.org/2000/svg" viewBox="0 0 1000 1000" fill="currentColor"><path d="M834.600 166.371L834.600 309L648.086 309L648.086 166.371M583.171 103.286L583.171 418.714C583.171 554.943 574.029 735.057 481.686 860.314C497.229 867.629 525.571 885 537.457 896.886C601.457 809.114 629.800 690.257 640.771 578.714L834.600 578.714L834.600 799.971C834.600 814.600 829.114 819.171 814.486 819.171C800.771 820.086 752.314 821 701.114 818.257C710.257 836.543 720.314 867.629 723.057 886.829C793.457 886.829 838.257 885.914 864.771 874.029C892.200 862.143 900.429 841.114 900.429 800.886L900.429 103.286M834.600 370.257L834.600 516.543L645.343 516.543C647.171 481.800 648.086 448.886 648.086 418.714L648.086 370.257M418.600 166.371L418.600 309L251.286 309L251.286 166.371M187.286 103.286L187.286 429.686C187.286 562.257 180.886 737.800 100.429 860.314C116.886 866.714 144.314 884.086 156.200 895.057C212.886 808.200 235.743 689.343 245.800 578.714L418.600 578.714L418.600 797.229C418.600 810.029 414.943 813.686 402.143 813.686C390.257 814.600 350.029 814.600 307.057 812.771C316.200 830.143 325.343 858.486 328.086 875.857C388.429 876.771 427.743 874.943 451.514 864.886C475.286 853 483.514 833.800 483.514 797.229L483.514 103.286M418.600 370.257L418.600 516.543L249.457 516.543L251.286 429.686L251.286 370.257"/></svg>