<svg xmlns="http://www.w3.org/2000/svg" viewBox="0 0 1000 1000" fill="currentColor"><path d="M702.009 537.460L702.009 599.065L303.744 599.065L303.744 537.460M239.536 487.134L239.536 900.150L303.744 900.150L303.744 756.115L702.009 756.115L702.009 826.397C702.009 839.412 697.670 842.883 682.920 843.751C669.037 844.618 616.976 844.618 564.048 842.883C572.725 858.501 582.269 880.193 585.740 896.679C656.889 896.679 702.876 896.679 731.510 888.002C758.408 879.325 767.085 862.839 767.085 827.265L767.085 487.134M303.744 645.920L702.009 645.920L702.009 709.260L303.744 709.260M465.132 100.150L465.132 158.284L173.592 158.284L173.592 209.477L465.132 209.477L465.132 267.612L203.093 267.612L203.093 317.937L465.132 317.937L465.132 380.410L117.193 380.410L117.193 432.471L882.486 432.471L882.486 380.410L531.076 380.410L531.076 317.937L799.189 317.937L799.189 267.612L531.076 267.612L531.076 209.477L835.631 209.477L835.631 158.284L531.076 158.284L531.076 100.150"/></svg>