<svg xmlns="http://www.w3.org/2000/svg" viewBox="0 0 1000 1000" fill="currentColor"><path d="M603.607 117.615C619.141 159.039 636.401 213.408 643.305 246.202L708.030 226.353C700.263 194.422 681.277 141.779 665.743 102.081M163.478 134.012L163.478 443.828C163.478 571.552 159.163 745.015 100.479 866.698C115.150 871.876 141.903 886.547 153.122 896.903C192.820 814.918 210.080 706.180 217.847 603.483L343.845 603.483L343.845 818.370C343.845 830.452 338.667 833.904 328.311 833.904C317.092 834.767 280.846 834.767 241.148 833.904C249.778 851.164 258.408 879.643 260.997 896.040C317.955 896.040 352.475 895.177 374.050 883.958C389.584 877.054 398.214 865.835 401.666 848.575C419.789 860.657 439.638 881.369 449.994 897.766C568.224 808.014 608.785 667.345 625.182 499.060L793.467 499.060C785.700 715.673 775.344 799.384 757.221 818.370C749.454 827.863 741.687 829.589 725.290 829.589C709.756 829.589 665.743 829.589 619.141 824.411C630.360 842.534 638.127 868.424 638.990 886.547C683.866 889.136 729.605 889.999 753.769 888.273C780.522 884.821 796.919 878.780 813.316 858.068C839.206 827 848.699 733.796 859.055 467.992C859.055 459.362 859.918 437.787 859.918 437.787L629.497 437.787C632.086 396.364 632.949 354.077 633.812 310.927L900.479 310.927L900.479 247.928L431.871 247.928L431.871 310.927L567.361 310.927C562.183 539.621 550.101 738.111 401.666 846.849C403.392 839.082 404.255 829.589 404.255 818.370L404.255 134.012M223.025 194.422L343.845 194.422L343.845 335.954L223.025 335.954M223.025 396.364L343.845 396.364L343.845 542.210L221.299 542.210C222.162 507.690 223.025 474.033 223.025 443.828"/></svg>