<svg xmlns="http://www.w3.org/2000/svg" viewBox="0 0 1000 1000" fill="currentColor"><path d="M573.614 321.790C653.328 352.116 754.704 399.771 808.424 434.429L226.164 434.429C301.546 403.237 387.326 357.314 454.909 310.526L405.521 280.200C337.937 326.122 245.226 367.712 170.711 391.973L201.037 434.429L196.705 434.429L196.705 491.615L621.269 491.615L621.269 607.721L288.549 607.721C296.347 578.261 305.012 546.202 311.944 516.743L247.826 509.811C237.428 559.199 221.832 622.451 207.969 664.041L532.024 664.041C427.183 732.491 265.155 787.078 121.323 812.205C134.320 825.202 151.649 849.463 161.180 865.925C322.341 832.134 507.763 757.618 616.937 664.041L621.269 664.041L621.269 824.335C621.269 836.466 617.803 839.932 603.074 840.798C590.077 841.665 541.555 841.665 489.568 839.932C499.099 857.261 509.496 883.255 512.962 899.717C579.679 900.584 623.002 899.717 650.729 890.186C677.589 879.789 685.387 862.460 685.387 825.202L685.387 664.041L879.474 664.041L879.474 607.721L685.387 607.721L685.387 491.615L854.347 491.615L854.347 434.429L814.489 434.429L843.949 389.373C789.362 354.715 683.654 307.926 603.940 280.200M442.779 121.638C458.375 143.299 474.838 170.159 486.968 192.687L145.584 192.687L145.584 331.321L209.702 331.321L209.702 249.007L812.757 249.007L812.757 331.321L879.474 331.321L879.474 192.687L564.949 192.687C551.953 166.694 526.825 127.703 505.164 99.976"/></svg>