<svg xmlns="http://www.w3.org/2000/svg" viewBox="0 0 1000 1000" fill="currentColor"><path d="M255.948 341.703C282.846 395.499 308.009 464.913 316.685 508.297L369.614 488.341C360.937 445.824 333.171 377.278 305.406 325.217M639.462 355.586C672.434 411.985 706.273 487.473 717.553 534.328L771.349 511.768C758.334 464.913 723.627 392.028 688.920 335.629M160.503 712.202C177.857 700.054 204.755 688.774 384.364 635.846C353.996 718.275 286.317 793.764 138.811 851.030C153.562 862.310 172.651 885.738 181.328 899.620C439.028 798.102 470.265 634.978 470.265 476.193L470.265 259.273L407.792 259.273L407.792 475.325C407.792 507.430 406.056 540.401 400.850 572.505L231.653 617.625L231.653 236.714C313.215 215.022 412.998 184.653 485.883 153.416L447.705 99.620C373.085 131.725 251.610 173.373 167.445 192.462L167.445 600.271C167.445 635.846 146.620 651.464 131.870 659.273C141.414 671.421 155.297 697.451 160.503 712.202M553.562 165.564L553.562 894.414L616.902 894.414L616.902 225.434L803.453 225.434L803.453 674.892C803.453 687.907 799.115 691.377 786.100 692.245C773.085 692.245 727.098 692.245 678.508 690.510C687.184 709.599 695.861 739.100 696.729 757.321C766.143 757.321 808.659 756.453 833.822 745.174C860.720 733.894 867.662 713.937 867.662 675.759L867.662 165.564"/></svg>