<svg xmlns="http://www.w3.org/2000/svg" viewBox="0 0 1000 1000" fill="currentColor"><path d="M695.170 732.787C751.340 780.447 817.723 846.830 848.362 891.085L900.277 854.489C867.936 810.234 798.149 745.553 742.830 700.447M546.234 698.745C510.489 751.511 444.957 811.936 381.128 850.234C394.745 861.298 413.468 879.170 422.830 891.936C489.213 850.234 557.298 789.809 600.702 728.532M745.383 108.106L745.383 228.957L558.149 228.957L558.149 108.106L497.723 108.106L497.723 228.957L413.468 228.957L413.468 286.830L497.723 286.830L497.723 624.702L394.745 624.702L394.745 682.574L895.170 682.574L895.170 624.702L806.660 624.702L806.660 286.830L887.511 286.830L887.511 228.957L806.660 228.957L806.660 108.106M558.149 286.830L745.383 286.830L745.383 363.426L558.149 363.426M558.149 414.489L745.383 414.489L745.383 492.787L558.149 492.787M558.149 544.702L745.383 544.702L745.383 624.702L558.149 624.702M233.894 108.106L233.894 272.362L119 272.362L119 331.936L227.936 331.936C204.106 447.681 152.191 583.851 100.277 655.340C111.340 671.511 127.511 699.596 134.319 718.319C171.766 663 206.660 575.340 233.894 483.426L233.894 890.234L295.170 890.234L295.170 446.830C319.851 491.085 347.085 543 358.149 571.936L400.702 522.574C384.532 497.043 319.851 395.766 295.170 362.574L295.170 331.936L393.894 331.936L393.894 272.362L295.170 272.362L295.170 108.106"/></svg>