<svg xmlns="http://www.w3.org/2000/svg" viewBox="0 0 1000 1000" fill="currentColor"><path d="M473.684 168.749L801.494 168.749L801.494 299.510L473.684 299.510M410.120 107.909L410.120 418.465C410.120 555.582 400.132 733.562 292.981 856.150C308.418 864.322 335.659 881.575 347.464 892.472C458.247 763.528 473.684 565.571 473.684 418.465L473.684 360.350L865.966 360.350L865.966 107.909M831.460 452.064C781.516 495.650 696.159 543.778 613.526 582.824L613.526 394.856L549.053 394.856L549.053 789.862C549.053 868.863 570.847 889.748 652.572 889.748C669.825 889.748 782.425 889.748 800.586 889.748C874.138 889.748 892.300 853.426 900.472 727.205C881.403 722.665 854.161 711.768 840.540 699.964C836.908 808.931 830.552 828 796.045 828C771.528 828 677.090 828 658.928 828C619.882 828 613.526 822.552 613.526 789.862L613.526 642.756C708.872 601.893 812.390 551.950 884.127 500.191M100.472 148.772L100.472 748.091L162.220 748.091L162.220 677.262L331.119 677.262L331.119 148.772M162.220 214.152L271.187 214.152L271.187 610.974L162.220 610.974"/></svg>