<svg xmlns="http://www.w3.org/2000/svg" viewBox="0 0 1000 1000" fill="currentColor"><path d="M418.186 326.331L531.975 326.331L531.975 406.244L418.186 406.244M686.590 326.331L802.985 326.331L802.985 406.244L686.590 406.244M144.570 156.081C194.950 184.746 258.359 228.177 289.630 257.710L326.980 208.199C294.841 179.534 230.564 139.578 181.052 112.650M102.008 390.609C153.256 415.799 219.271 455.756 252.279 481.814L287.893 429.697C254.885 403.638 188.001 367.156 137.621 343.704M119.380 849.241L173.235 886.592C219.271 805.810 272.257 696.364 313.083 604.290L265.308 568.676C221.009 666.831 161.074 782.357 119.380 849.241M634.472 665.093L634.472 717.211L461.617 717.211L461.617 665.093M588.435 471.391C602.333 486.157 616.231 504.398 627.523 521.771L476.383 521.771C487.675 503.530 497.230 484.420 505.916 465.311L459.011 452.281L584.961 452.281L584.961 281.163L366.937 281.163L366.937 452.281L448.587 452.281C416.448 521.771 364.331 591.261 308.739 636.429C321.769 645.984 345.221 665.962 354.776 676.385C370.412 662.488 386.047 645.984 400.813 628.611L400.813 900.490L461.617 900.490L461.617 863.139L897.664 863.139L897.664 814.496L694.407 814.496L694.407 760.642L854.233 760.642L854.233 717.211L694.407 717.211L694.407 665.093L854.233 665.093L854.233 622.531L694.407 622.531L694.407 570.414L886.372 570.414L886.372 521.771L693.539 521.771C681.378 500.924 661.400 473.128 640.553 452.281L857.708 452.281L857.708 281.163L633.604 281.163L633.604 452.281L634.472 452.281M634.472 622.531L461.617 622.531L461.617 570.414L634.472 570.414M634.472 760.642L634.472 814.496L461.617 814.496L461.617 760.642M682.246 100.490L682.246 162.162L538.924 162.162L538.924 100.490L478.989 100.490L478.989 162.162L336.535 162.162L336.535 215.148L478.989 215.148L478.989 266.396L538.924 266.396L538.924 215.148L682.246 215.148L682.246 266.396L743.050 266.396L743.050 215.148L895.927 215.148L895.927 162.162L743.050 162.162L743.050 100.490"/></svg>