<svg xmlns="http://www.w3.org/2000/svg" viewBox="0 0 1000 1000" fill="currentColor"><path d="M581.182 712.674C610.335 764.979 642.919 837.004 655.780 880.734L702.940 864.443C689.221 821.570 654.923 750.402 624.912 699.812M221.911 105.600L221.911 277.947L112.158 277.947L112.158 339.684L221.911 339.684L221.911 524.893C175.609 538.612 133.594 551.474 100.153 560.048L117.302 625.214L221.911 590.916L221.911 812.996C221.911 825 217.624 828.430 207.334 828.430C197.045 829.287 163.605 829.287 125.877 828.430C135.309 846.436 143.026 874.732 144.741 891.024C200.475 891.881 233.915 889.309 255.352 878.162C276.788 867.872 284.505 849.866 284.505 812.996L284.505 570.338L378.824 539.469L370.250 478.591L284.505 506.029L284.505 339.684L377.109 339.684L377.109 277.947L284.505 277.947L284.505 105.600M412.265 893.596C425.984 884.164 449.135 874.732 582.897 836.147C581.182 823.285 580.325 800.134 581.182 782.985L486.863 806.136L486.863 488.023L653.208 488.023C678.931 723.821 729.521 887.594 822.125 889.309C854.708 889.309 883.862 852.438 900.153 723.821C889.864 718.676 865.855 704.957 854.708 692.953C848.706 772.696 837.559 817.283 821.268 817.283C773.251 815.568 734.666 680.949 712.372 488.023L882.147 488.023L882.147 428.001L706.370 428.001C699.510 359.405 695.223 285.665 692.651 208.494C750.100 194.775 803.262 179.341 847.849 162.192L794.687 112.460C709.800 148.473 558.889 182.771 426.841 204.207L425.984 204.207L425.984 790.702C425.984 823.285 403.690 835.289 389.971 841.292C397.688 854.153 408.835 879.019 412.265 893.596M647.206 428.001L486.863 428.001L486.863 249.652C535.737 241.935 585.469 232.503 634.344 221.356C637.774 294.239 642.061 362.835 647.206 428.001"/></svg>