<svg xmlns="http://www.w3.org/2000/svg" viewBox="0 0 1000 1000" fill="currentColor"><path d="M307.377 139.460L111.282 139.460L111.282 900.414L169.416 900.414L169.416 198.462L283.950 198.462C264.861 258.332 239.698 338.158 213.668 402.367C276.141 470.046 292.627 529.915 292.627 576.770C292.627 603.668 287.421 627.095 273.538 636.640C266.597 641.846 257.052 644.449 246.640 644.449C232.757 646.184 215.403 645.317 195.447 643.581C205.859 660.067 211.065 685.230 211.933 700.848C231.889 702.584 253.581 701.716 270.935 699.980C288.289 697.377 303.907 693.039 316.054 684.362C340.349 667.009 350.761 630.566 350.761 583.711C350.761 529.048 336.011 467.443 271.803 394.557C301.304 324.275 334.275 234.905 359.438 162.887L316.922 136.857M825.382 593.256L644.037 593.256L644.037 533.386L582.432 533.386L582.432 593.256L480.913 593.256C489.590 575.035 497.399 555.946 504.341 537.725L448.809 524.709C428.852 584.579 394.145 644.449 352.497 685.230C367.247 691.304 390.675 706.054 401.087 714.731C419.308 694.774 436.662 670.479 453.148 643.581L582.432 643.581L582.432 705.187L421.911 705.187L421.911 754.644L582.432 754.644L582.432 824.926L346.423 824.926L346.423 878.722L870.501 878.722L870.501 824.926L644.037 824.926L644.037 754.644L814.970 754.644L814.970 705.187L644.037 705.187L644.037 643.581L825.382 643.581M772.453 463.972L466.163 463.972C519.091 444.883 571.152 420.588 618.874 390.219C686.553 433.603 765.512 464.839 851.412 483.061C860.089 466.575 876.575 442.280 888.722 430.132C808.896 416.249 733.408 391.087 670.067 356.380C729.937 311.260 780.262 257.464 813.234 194.124L773.321 171.564L762.909 174.167L565.946 174.167C580.696 153.343 593.711 132.518 604.991 111.694L540.783 100.414C506.944 167.226 441.868 246.184 346.423 304.319C360.306 312.996 380.262 332.085 389.807 345.967C425.382 322.540 457.486 296.510 485.252 269.612C509.547 300.848 537.312 329.482 569.416 355.512C499.134 395.425 418.440 424.926 341.217 441.412C352.497 454.427 367.247 477.855 373.321 492.605C402.822 484.796 433.191 476.119 462.692 464.839L462.692 512.562L772.453 512.562M522.562 230.566L527.768 224.492L725.599 224.492C698.701 261.803 661.390 294.774 618.874 324.275C579.829 297.377 546.857 265.273 522.562 230.566"/></svg>