<svg xmlns="http://www.w3.org/2000/svg" viewBox="0 0 1000 1000" fill="currentColor"><path d="M351.128 624.095C362.408 656.200 374.555 692.642 384.967 729.085L306.876 741.232L306.876 563.358L424.013 563.358L424.013 417.588C436.161 428.868 450.043 443.618 456.985 453.163C480.412 436.677 502.104 418.456 522.928 398.499L522.928 441.015L791.041 441.015L791.041 393.293C810.998 413.249 832.690 431.471 853.514 445.354C863.926 428 884.751 403.705 899.501 391.557C817.072 343.835 732.907 244.920 685.184 145.137L694.729 117.371L631.388 100.885C595.813 215.419 522.061 323.879 424.013 396.764L424.013 257.067L306.876 257.067L306.876 100.885L249.610 100.885L249.610 257.067L135.076 257.067L135.076 609.345L187.137 609.345L187.137 563.358L249.610 563.358L249.610 749.909C192.343 758.586 140.282 765.527 99.501 770.733L109.913 833.206C189.740 820.191 295.597 802.837 399.718 784.616L410.998 836.677L463.926 819.323C452.646 762.924 425.748 677.024 401.453 609.345M780.629 382.881L538.547 382.881C586.269 333.423 626.182 274.421 657.419 210.213C690.390 273.553 733.774 334.291 780.629 382.881M483.883 541.666L483.883 900.017L544.620 900.017L544.620 853.163L766.746 853.163L766.746 897.414L830.087 897.414L830.087 541.666M544.620 794.161L544.620 600.668L766.746 600.668L766.746 794.161M187.137 311.731L253.948 311.731L253.948 509.562L187.137 509.562M301.670 311.731L372.820 311.731L372.820 509.562L301.670 509.562"/></svg>