<svg xmlns="http://www.w3.org/2000/svg" viewBox="0 0 1000 1000" fill="currentColor"><path d="M127.684 324.855L127.684 389.812L337.940 389.812C296.915 559.043 208.880 688.103 100.333 759.043C115.718 768.444 141.359 793.231 152.470 808.615C272.983 723.145 372.983 562.462 414.863 338.530L372.983 322.291L361.017 324.855M765.291 266.735C723.410 324.855 655.889 400.923 599.479 453.915C572.983 409.470 549.051 362.462 530.248 314.598L530.248 107.761L461.872 107.761L461.872 805.197C461.872 819.726 456.744 823.145 443.068 824C429.393 824.855 384.949 824.855 335.376 823.145C345.632 842.803 356.744 874.427 360.162 893.231C425.974 893.231 467.855 891.521 494.350 879.556C519.991 868.444 530.248 847.932 530.248 804.342L530.248 443.658C608.026 598.359 719.137 733.402 852.470 803.487C863.581 784.684 884.949 758.188 900.333 744.513C796.915 696.650 703.752 607.761 631.103 501.778C690.932 451.350 767 373.573 823.410 307.761"/></svg>