<svg xmlns="http://www.w3.org/2000/svg" viewBox="0 0 1000 1000" fill="currentColor"><path d="M572.514 289.865C667.649 315.811 791.324 360.784 855.324 393.649L883.865 342.622C818.135 309.757 693.595 268.243 601.054 244.892M290.568 743.919L290.568 870.189L786.135 870.189L786.135 900.459L848.405 900.459L848.405 743.919L786.135 743.919L786.135 821.757L600.189 821.757L600.189 711.054L820.730 711.054L820.730 590.838L759.324 590.838L759.324 662.622L600.189 662.622L600.189 572.676L537.919 572.676L537.919 662.622L378.784 662.622L378.784 590.838L319.108 590.838L319.108 711.054L537.919 711.054L537.919 821.757L351.973 821.757L351.973 743.919M422.027 253.541C343.324 291.595 239.541 320.135 157.378 336.568L187.649 390.189L212.730 384.135L212.730 513C212.730 609.865 201.486 746.514 115.865 845.108C129.703 852.892 155.649 873.649 166.027 885.757C246.459 792.351 268.946 658.297 273.270 553.649L822.459 553.649L822.459 379.811L228.297 379.811C308.730 357.324 396.081 325.324 468.730 288.135M274.135 428.243L757.595 428.243L757.595 505.216L274.135 505.216M460.081 116.027C470.459 135.054 481.703 157.541 490.351 178.297L149.595 178.297L149.595 308.027L214.459 308.027L214.459 231.919L814.676 231.919L814.676 304.568L882.135 304.568L882.135 178.297L563 178.297C552.622 154.946 537.919 123.811 523.216 100.459"/></svg>