<svg xmlns="http://www.w3.org/2000/svg" viewBox="0 0 1000 1000" fill="currentColor"><path d="M306.827 380.918L691.242 380.918L691.242 489.143L306.827 489.143M241.026 323.775L241.026 900.398L306.827 900.398L306.827 861.437L720.680 861.437L720.680 896.069L787.346 896.069L787.346 628.537L306.827 628.537L306.827 546.286L755.312 546.286L755.312 323.775M306.827 687.411L720.680 687.411L720.680 803.429L306.827 803.429M454.879 114.251C465.268 136.762 476.524 164.468 484.316 187.844L131.935 187.844L131.935 341.957L196.870 341.957L196.870 249.316L799.468 249.316L799.468 341.957L867.866 341.957L867.866 187.844L556.177 187.844C548.385 161.004 534.532 127.238 519.814 100.398"/></svg>