<svg xmlns="http://www.w3.org/2000/svg" viewBox="0 0 1000 1000" fill="currentColor"><path d="M220.928 100.358L220.928 898.621L283.469 898.621L283.469 100.358M145.358 261.922C139.278 334.017 123.643 430.434 100.190 489.501L154.913 508.610C177.497 443.464 193.132 341.835 197.476 268.871M293.024 249.761C316.477 292.324 340.798 349.653 350.353 384.397L396.390 359.207C386.835 326.200 360.776 271.477 336.455 228.914M548.398 100.358C542.318 126.417 535.369 151.607 527.552 175.060L385.966 175.060L385.966 227.177L506.705 227.177C469.354 308.827 414.631 374.843 343.404 420.879C357.302 431.303 380.755 453.887 388.572 465.179C469.354 408.719 530.157 328.806 571.851 227.177L899.321 227.177L899.321 175.060L590.961 175.060C597.910 154.213 603.990 132.497 609.202 109.913M552.742 280.163L552.742 328.806L663.925 328.806L663.925 402.638L484.989 402.638L484.989 451.281L893.241 451.281L893.241 402.638L723.860 402.638L723.860 328.806L854.153 328.806L854.153 280.163M504.099 658.882L785.532 658.882L785.532 717.948L504.099 717.948M504.099 611.976L504.099 553.779L785.532 553.779L785.532 611.976M441.558 503.398L441.558 900.358L504.099 900.358L504.099 765.722L785.532 765.722L785.532 831.737C785.532 842.161 782.058 844.767 770.765 845.635C759.473 845.635 722.991 846.504 681.298 844.767C689.115 860.402 696.933 883.855 700.407 900.358C756.868 900.358 795.087 899.490 818.540 890.803C841.992 881.249 848.073 863.876 848.073 831.737L848.073 503.398"/></svg>