<svg xmlns="http://www.w3.org/2000/svg" viewBox="0 0 1000 1000" fill="currentColor"><path d="M368.842 169.105C399.158 223 432.842 294.579 445.474 339.211L502.737 316.474C489.263 272.684 454.737 201.947 421.895 149.737M784 143.842C763.789 196.895 725.895 272.684 696.421 319.842L746.105 340.895C776.421 296.263 814.316 226.368 845.474 166.579M142.316 150.579C186.105 196.895 240 260.053 264.421 300.474L314.947 263.421C288.842 223.842 233.263 162.368 188.632 117.737M570.947 116.053L570.947 379.632L341.053 379.632L341.053 437.737L534.737 437.737C482.526 527.842 399.158 621.316 327.579 670.158C341.895 681.947 362.105 704.684 372.211 719C440.421 665.947 517.053 574.158 570.947 479.842L570.947 767.842L632.421 767.842L632.421 479.842C705.684 556.474 789.053 645.737 832.842 702.158L879.158 660.053C832 604.474 742.737 512.684 667.789 437.737L867.368 437.737L867.368 379.632L632.421 379.632L632.421 116.053M288.842 393.105L117.895 393.105L117.895 452.053L228.211 452.053L228.211 716.474C191.158 730.789 146.526 770.368 100.211 822.579L147.368 884.053C188.632 825.105 228.211 771.211 255.158 771.211C273.684 771.211 302.316 801.526 337.684 825.105C398.316 863.842 469.895 873.105 579.368 873.105C664.421 873.105 820.211 868.053 880 863.842C881.684 844.474 891.789 810.789 900.211 793.105C815.158 802.368 686.316 809.947 581.895 809.947C483.368 809.947 409.263 804.053 353.684 767.842C324.211 749.316 304.842 732.474 288.842 722.368"/></svg>