<svg xmlns="http://www.w3.org/2000/svg" viewBox="0 0 1000 1000" fill="currentColor"><path d="M315.485 164.742L679.453 164.742L679.453 338.060L315.485 338.060M248.894 99.976L248.894 403.739L749.692 403.739L749.692 99.976M115.713 501.344L115.713 899.976L181.391 899.976L181.391 850.717L372.041 850.717L372.041 891.766L440.456 891.766L440.456 501.344M181.391 784.127L181.391 566.111L372.041 566.111L372.041 784.127M540.798 501.344L540.798 899.976L606.477 899.976L606.477 850.717L814.458 850.717L814.458 894.503L883.786 894.503L883.786 501.344M606.477 784.127L606.477 566.111L814.458 566.111L814.458 784.127"/></svg>