<svg xmlns="http://www.w3.org/2000/svg" viewBox="0 0 1000 1000" fill="currentColor"><path d="M310.633 301.498L760.234 301.498L760.234 392.511L310.633 392.511M310.633 157.699L760.234 157.699L760.234 246.891L310.633 246.891M243.283 100.361L243.283 449.849L344.307 449.849C286.059 533.580 198.687 609.121 109.495 660.088C124.967 671.009 151.361 695.582 163.192 708.324C212.339 676.470 263.306 635.514 310.633 589.098L437.140 589.098C376.162 686.481 285.149 772.943 186.856 828.461C202.328 839.382 227.811 863.956 238.733 877.608C342.487 809.348 445.331 707.414 513.590 589.098L636.457 589.098C592.771 698.313 522.692 794.786 439.870 857.585C454.432 867.596 482.646 889.439 493.568 900.361C580.940 828.461 658.300 717.425 707.447 589.098L817.572 589.098C803.010 745.639 787.538 811.168 768.425 829.371C759.324 838.472 751.133 840.292 734.751 840.292C718.369 840.292 676.503 840.292 631.907 834.832C642.828 852.124 649.199 877.608 650.109 894.900C695.615 897.630 740.212 897.630 762.965 895.810C789.358 893.990 807.561 887.619 825.763 870.327C853.067 841.203 871.270 762.932 888.562 558.154C890.382 548.142 891.292 527.209 891.292 527.209L367.060 527.209C387.993 502.636 407.106 476.242 423.488 449.849L828.494 449.849L828.494 100.361"/></svg>