<svg xmlns="http://www.w3.org/2000/svg" viewBox="0 0 1000 1000" fill="currentColor"><path d="M312.828 308.448L689.552 308.448L689.552 371.379L312.828 371.379M251.621 265.345L251.621 413.621L753.345 413.621L753.345 265.345M363.690 746.379C374.034 793.793 380.931 855.862 380.931 892.931L445.586 886.034C443.862 848.966 435.241 787.759 424.034 741.207M541.276 744.655C563.690 791.207 585.241 852.414 592.138 890.345L657.655 877.414C649.034 840.345 624.897 780 602.483 734.310M718.862 741.207C760.241 788.621 805.931 854.138 825.759 894.655L886.966 870.517C866.276 829.138 818.862 766.207 777.483 720.517M216.276 727.414C190.414 780.862 149.897 842.069 113.690 878.276L176.621 899.828C212.828 858.448 251.621 794.655 279.207 741.207M450.759 115.345C461.103 131.724 471.448 152.414 480.069 170.517L129.207 170.517L129.207 223.103L873.172 223.103L873.172 170.517L553.345 170.517C544.724 148.103 528.345 120.517 513.690 99.828M472.310 555.862L472.310 652.414C472.310 663.621 468 667.069 451.621 667.931C434.379 669.655 376.621 669.655 308.517 667.069C317.138 682.586 327.483 702.414 331.793 719.655C411.966 719.655 462.828 720.517 493.862 711.897C525.759 703.276 534.379 687.759 534.379 654.138L534.379 588.621C630.069 566.207 737.828 532.586 815.414 493.793L772.310 456.724L758.517 459.310L167.138 459.310L167.138 507.586L656.793 507.586C599.897 527.414 531.793 544.655 472.310 555.862"/></svg>