<svg xmlns="http://www.w3.org/2000/svg" viewBox="0 0 1000 1000" fill="currentColor"><path d="M463.415 105.195L463.415 250.416L122.276 250.416L122.276 314.003L463.415 314.003L463.415 464.379L166.959 464.379L166.959 527.967L425.606 527.967C348.270 636.237 218.517 739.352 99.934 790.910C115.402 804.658 136.025 830.437 147.195 846.764C259.763 789.191 380.923 686.076 463.415 571.791L463.415 894.884L531.299 894.884L531.299 567.494C614.650 680.921 737.528 787.473 850.955 845.045C862.985 827 883.608 801.221 899.934 788.332C781.352 737.634 651.599 634.519 571.685 527.967L833.769 527.967L833.769 464.379L531.299 464.379L531.299 314.003L878.452 314.003L878.452 250.416L531.299 250.416L531.299 105.195"/></svg>