<svg xmlns="http://www.w3.org/2000/svg" viewBox="0 0 1000 1000" fill="currentColor"><path d="M393.966 196.169L393.966 375.105C393.966 509.742 388.755 709.524 327.951 854.584C341.849 860.664 368.776 881.511 379.200 892.803C439.135 750.350 452.164 549.698 453.901 408.113L876.920 408.113L876.920 196.169L680.611 196.169C670.188 167.505 651.947 129.286 634.574 99.752L575.508 114.519C589.406 138.840 603.304 170.111 612.859 196.169M326.214 105.833C277.571 237.863 195.052 368.156 109.059 452.413C120.351 467.179 139.460 501.055 145.541 515.822C175.942 484.552 205.476 448.938 234.140 408.982L234.140 899.752L295.812 899.752L295.812 314.302C331.426 253.498 361.827 189.220 387.017 124.074M453.901 251.761L812.642 251.761L812.642 352.521L453.901 352.521M837.832 518.428L837.832 649.590L757.919 649.590L757.919 518.428M465.193 466.311L465.193 898.015L517.311 898.015L517.311 701.707L591.143 701.707L591.143 874.562L635.443 874.562L635.443 701.707L712.750 701.707L712.750 871.957L757.919 871.957L757.919 701.707L837.832 701.707L837.832 834.606C837.832 842.423 835.226 845.029 827.408 845.029C820.459 845.029 797.875 845.029 770.948 844.161C778.765 858.927 786.583 881.511 789.189 895.409C827.408 895.409 851.730 894.541 869.102 885.855C885.606 876.300 889.949 860.664 889.949 834.606L889.949 466.311M517.311 649.590L517.311 518.428L591.143 518.428L591.143 649.590M635.443 518.428L712.750 518.428L712.750 649.590L635.443 649.590"/></svg>