<svg xmlns="http://www.w3.org/2000/svg" viewBox="0 0 1000 1000" fill="currentColor"><path d="M586.348 244.522L586.348 497.565C586.348 535.826 585.478 578.435 577.652 621.913L502.870 642.783L502.870 228.870C554.174 206.261 615.913 174.087 664.609 140.174L615.913 100.174C574.174 132.348 500.261 175.826 448.087 201.043L448.087 621.913C448.087 657.565 434.174 672.348 NaN 678.435C430.696 689.739 442.870 712.348 447.217 725.391C457.652 716.696 475.913 707.130 564.609 678.435C543.739 747.130 501.130 812.348 419.391 859.304C431.565 868.870 448.957 888.870 455.913 900.174C624.609 799.304 640.261 629.739 640.261 498.435L640.261 244.522M692.435 179.304L692.435 897.565L747.217 897.565L747.217 234.957L837.652 234.957L837.652 669.739C837.652 679.304 834.174 681.913 825.478 682.783C816.783 683.652 788.087 683.652 754.174 682.783CNaN 696.696 768.957 719.304 770.696 733.217C819.391 733.217 848.087 732.348 866.348 722.783C885.478 714.087 889.826 697.565 889.826 669.739L889.826 179.304M109.826 710.609L122 768L325.478 732.348L325.478 897.565L379.391 897.565L379.391 722.783L417.652 715.826L414.174 663.652L379.391 668.870L379.391 194.087LNaN 194.087LNaN 134.957L120.261 134.957L120.261 194.087L167.217 194.087L167.217 702.783M220.261 194.087L325.478 194.087L325.478 317.565L220.261 317.565M220.261 372.348L325.478 372.348L325.478 496.696L220.261 496.696M220.261 552.348L325.478 552.348L325.478 677.565L220.261 694.087"/></svg>