<svg xmlns="http://www.w3.org/2000/svg" viewBox="0 0 1000 1000" fill="currentColor"><path d="M143.053 899.892C165.962 885.230 201.701 875.150 479.364 792.676C475.699 777.097 471.117 746.857 471.117 728.529L221.861 798.174L221.861 570.912L499.525 570.912C552.675 755.104 658.975 886.147 782.686 885.230C849.582 885.230 877.990 849.491 888.986 714.784C870.659 709.285 844.084 695.540 828.505 681.794C823.007 778.930 813.843 816.502 785.435 817.418C704.794 818.334 620.487 718.449 571.919 570.912L872.491 570.912L872.491 505.849L554.507 505.849C544.427 461.863 537.096 415.127 534.347 365.643L804.679 365.643L804.679 99.892L151.300 99.892L151.300 769.766C151.300 808.254 126.558 828.415 110.063 837.578C121.060 852.241 137.554 881.565 143.053 899.892M483.030 505.849L221.861 505.849L221.861 365.643L464.702 365.643C467.451 414.211 473.866 460.946 483.030 505.849M221.861 164.039L735.034 164.039L735.034 301.496L221.861 301.496"/></svg>