<svg xmlns="http://www.w3.org/2000/svg" viewBox="0 0 1000 1000" fill="currentColor"><path d="M238.668 103.150L238.668 278.421L107.649 278.421L107.649 340.894L238.668 340.894L238.668 525.709C186.607 539.592 138.885 552.607 99.839 562.152L119.796 627.228L238.668 592.521L238.668 814.646C238.668 826.794 233.462 831.132 221.315 831.132C210.035 832 171.857 832 131.076 831.132C139.753 848.486 149.297 875.384 151.900 892.738C212.638 892.738 248.213 891.002 271.640 880.590C294.200 870.178 302.876 851.957 302.876 815.514L302.876 573.432L433.028 534.386L424.351 472.781L302.876 507.488L302.876 340.894L423.484 340.894L423.484 278.421L302.876 278.421L302.876 103.150M428.690 176.035L428.690 241.111L675.978 241.111L675.978 805.102C675.978 821.588 669.905 826.794 652.551 826.794C633.462 828.529 570.989 828.529 506.781 825.926C517.193 845.015 529.341 877.119 533.679 896.208C616.108 896.208 670.772 895.341 702.876 884.061C734.113 872.781 745.393 850.221 745.393 805.970L745.393 241.111L899.839 241.111L899.839 176.035"/></svg>