<svg xmlns="http://www.w3.org/2000/svg" viewBox="0 0 1000 1000" fill="currentColor"><path d="M205.197 475.644L395.755 475.644L395.755 571.781L205.197 571.781M145.970 423.283L145.970 623.283L458.416 623.283L458.416 423.283M169.146 654.185C188.888 693.670 204.339 745.172 208.631 780.365L267 762.339C261.850 728.863 245.541 677.361 224.082 638.734M497.901 426.717L497.901 485.086L548.545 485.086L521.936 491.953C550.262 582.082 589.747 661.052 640.391 727.146C584.597 778.648 518.502 816.416 446.399 843.884C460.133 855.043 481.592 880.794 491.034 895.386C560.562 867.060 625.798 827.575 682.451 775.215C731.378 825.858 789.747 865.343 856.700 892.811CNaN 876.502 885.884 851.609 900.476 838.734C833.524 815.558 776.013 777.790 727.086 729.721C792.322 655.901 842.966 560.622 873.009 442.167L832.665 424.142L820.648 426.717L719.361 426.717L719.361 299.678L885.884 299.678L885.884 239.592L719.361 239.592L719.361 103.970L654.983 103.970L654.983 239.592L491.034 239.592L491.034 299.678L654.983 299.678L654.983 426.717M794.039 485.086C769.146 563.197 731.378 628.433 684.167 682.511C638.674 625.858 604.339 558.906 580.305 485.086M130.519 311.695L130.519 365.773L473.009 365.773L473.009 311.695L333.094 311.695L333.094 235.300L489.318 235.300L489.318 181.223L333.094 181.223L333.094 103.970L270.433 103.970L270.433 181.223L109.060 181.223L109.060 235.300L270.433 235.300L270.433 311.695M100.476 807.833L109.918 867.060C211.206 852.468 357.129 831.009 494.468 809.549L491.893 754.614L387.172 769.206C400.906 733.155 414.639 689.378 428.373 649.893L369.146 635.300C360.562 677.361 343.395 735.730 327.944 777.790"/></svg>