<svg xmlns="http://www.w3.org/2000/svg" viewBox="0 0 1000 1000" fill="currentColor"><path d="M423.648 256.901C406.481 308.403 380.730 350.464 348.112 385.657C314.635 368.489 279.442 352.180 244.249 337.588C257.983 312.695 273.433 285.227 288.026 256.901M160.987 359.047C209.056 378.790 257.983 401.966 302.618 425.142C246.824 466.343 179.013 492.094 104.335 504.970C115.494 517.845 127.511 541.880 133.519 558.189C219.356 538.446 294.893 506.687 356.695 455.185C388.455 474.069 416.781 492.953 439.957 510.120L488.026 467.202C463.991 450.034 433.948 431.150 399.614 412.266C444.249 360.764 476.867 294.670 494.893 208.833L460.558 198.532L449.399 201.107L314.635 201.107C328.369 170.206 341.245 140.163 351.545 110.979L290.601 99.820C279.442 131.579 264.850 166.773 248.541 201.107L115.494 201.107L115.494 256.901L220.215 256.901C200.472 295.528 179.871 330.721 160.987 359.047M519.785 158.189L519.785 213.983L574.721 213.983L539.528 223.425C564.421 294.670 600.472 357.330 646.824 408.833C601.330 442.309 549.828 467.202 494.893 482.652C506.910 494.670 521.502 517.845 528.369 533.296C586.738 513.554 640.815 486.944 689.742 450.034C736.094 490.378 791.888 521.279 855.408 541.880C863.991 525.571 881.159 501.536 894.893 488.661C833.948 472.352 780.730 445.742 736.094 410.549C796.180 350.464 842.532 271.494 868.283 169.348L830.515 155.614L819.356 158.189M596.180 213.983L793.605 213.983C770.429 276.644 735.236 329.004 692.318 371.064C650.258 326.429 617.639 273.210 596.180 213.983M458.841 529.004C455.408 554.755 451.974 578.790 446.824 601.107L172.146 601.107L172.146 656.901L430.515 656.901C393.605 749.605 315.494 811.408 124.936 844.026C136.953 856.901 152.403 883.511 158.412 899.820C373.863 857.760 460.558 777.931 499.185 656.901L755.837 656.901C743.820 765.056 730.086 812.266 713.777 827.717C706.052 834.584 697.468 835.442 680.300 835.442C663.133 835.442 616.781 835.442 568.712 831.150C579.013 846.601 585.880 871.494 586.738 888.661C637.382 892.094 683.734 892.094 708.627 890.378C735.236 889.519 753.262 884.369 770.429 867.202C796.180 842.309 812.489 780.506 827.082 629.433C828.798 620.850 829.657 601.107 829.657 601.107L513.777 601.107C518.069 577.931 521.502 553.897 524.936 529.004"/></svg>