<svg xmlns="http://www.w3.org/2000/svg" viewBox="0 0 1000 1000" fill="currentColor"><path d="M510.098 106.055C482.600 246.979 434.480 382.747 364.878 468.676C380.345 476.409 408.701 494.454 421.591 503.907C458.540 454.068 490.334 389.621 516.972 316.581L812.568 316.581C797.960 373.294 779.915 432.585 762.729 472.972L818.583 491.876C845.221 435.163 872.719 344.938 893.342 265.883L846.081 251.275L834.910 254.712L538.454 254.712C552.203 210.888 564.233 164.487 573.685 117.226M596.027 383.606L596.027 466.957C596.027 582.102 577.122 737.634 349.410 847.623C363.159 858.794 382.923 881.135 392.375 894.884C542.751 820.126 608.916 725.604 638.132 632.800C680.237 755.679 748.121 847.623 858.111 892.306C866.704 875.120 885.608 851.060 900.216 838.171C761.870 789.191 690.549 660.298 659.614 496.173L659.614 468.676L659.614 383.606M100.216 690.373L125.995 754.820C202.472 721.307 300.431 677.483 393.234 634.519L379.485 576.946L279.808 618.192L279.808 373.294L376.908 373.294L376.908 312.285L279.808 312.285L279.808 115.507L218.798 115.507L218.798 312.285L110.527 312.285L110.527 373.294L218.798 373.294L218.798 643.971C174.115 662.016 132.869 678.343 100.216 690.373"/></svg>