<svg xmlns="http://www.w3.org/2000/svg" viewBox="0 0 1000 1000" fill="currentColor"><path d="M572.433 100.398C547.325 173.991 500.571 243.255 446.892 288.277L470.268 302.996L470.268 362.736L199.273 362.736L199.273 417.281L470.268 417.281L470.268 495.203L113.558 495.203L113.558 552.346L647.758 552.346L647.758 628.537L141.264 628.537L141.264 685.680L647.758 685.680L647.758 823.342C647.758 835.463 643.429 838.926 627.844 839.792C612.260 840.658 561.177 840.658 502.303 838.926C511.827 856.242 523.082 882.216 526.545 900.398C597.541 900.398 646.026 899.532 675.463 890.874C704.900 880.485 713.558 862.303 713.558 824.208L713.558 685.680L876.329 685.680L876.329 628.537L713.558 628.537L713.558 552.346L899.706 552.346L899.706 495.203L536.935 495.203L536.935 417.281L817.455 417.281L817.455 362.736L536.935 362.736L536.935 302.996L523.082 302.996C542.130 282.216 560.312 258.840 576.762 232.866L635.636 232.866C661.610 266.632 686.719 307.325 697.108 335.896L753.385 311.654C743.861 289.143 725.680 260.571 705.766 232.866L890.182 232.866L890.182 177.455L607.931 177.455C618.320 157.541 626.978 136.762 634.771 115.117M265.074 722.909C321.351 760.139 383.688 815.550 412.260 856.242L462.476 815.550C433.039 774.857 368.970 721.177 312.693 685.680M233.039 100.398C203.602 177.455 155.117 252.779 100.571 303.861C116.156 311.654 142.996 329.835 155.117 340.225C183.688 311.654 211.394 274.424 237.368 232.866L272 232.866C288.450 266.632 304.035 305.593 309.229 331.567L367.238 309.922C362.043 290.009 349.922 260.571 336.935 232.866L494.511 232.866L494.511 177.455L267.671 177.455C277.195 157.541 286.719 137.628 294.511 116.848"/></svg>