<svg xmlns="http://www.w3.org/2000/svg" viewBox="0 0 1000 1000" fill="currentColor"><path d="M584.612 117.747C595.759 143.471 608.621 176.054 617.195 202.635L400.260 202.635L400.260 341.541L460.282 341.541L460.282 382.699L596.616 382.699C539.167 433.288 456.852 475.303 377.967 502.742C389.114 513.031 406.263 537.040 412.265 547.329C467.141 525.035 525.448 494.167 577.752 458.154C588.042 471.874 596.616 486.450 605.191 501.027C546.884 555.904 448.278 615.925 371.965 644.221C383.111 656.225 397.688 676.804 404.548 691.380C475.716 657.940 563.176 601.348 625.770 547.329C632.629 567.050 638.631 586.772 642.919 606.493C580.325 678.519 467.141 751.402 372.822 784.842C383.969 796.847 397.688 818.283 405.405 832.002C488.578 796.847 584.612 733.395 652.350 667.372C659.210 741.113 648.063 803.706 629.199 823.428C617.195 839.719 604.333 841.434 587.184 841.434C571.750 841.434 548.599 840.577 524.591 838.004C534.023 855.153 538.310 878.304 539.167 893.738C561.461 895.453 582.897 896.311 598.331 895.453C631.772 895.453 654.065 887.736 674.644 863.728C714.087 824.285 727.806 691.380 691.793 568.765L729.521 549.044C755.244 654.510 799.832 755.689 858.996 811.423C868.428 796.847 886.434 777.125 900.153 765.979C841.847 717.961 795.544 623.642 771.536 524.178C804.119 505.314 836.702 483.878 864.140 462.442L822.983 422.999C786.113 453.867 726.091 495.882 676.359 524.178C661.782 489.023 642.919 455.582 618.910 427.286C636.059 412.710 651.493 398.133 665.212 382.699L814.408 382.699L814.408 328.680L461.139 328.680L461.139 254.081L816.123 254.081L816.123 341.541L879.574 341.541L879.574 202.635L684.076 202.635C675.502 174.339 660.068 135.753 644.633 105.743M313.658 342.399C304.226 459.012 286.220 555.904 257.924 633.931C234.773 612.495 209.907 591.916 185.898 573.053C202.190 507.029 219.339 425.571 233.915 342.399M122.447 595.346C159.317 622.785 197.902 656.225 233.915 690.523C199.617 760.834 155.030 811.423 100.153 842.292C113.015 853.438 129.307 876.589 137.881 891.166C194.473 854.296 240.775 803.706 276.788 735.968C299.081 759.976 317.088 783.128 329.950 803.706L371.107 756.547C355.673 732.538 331.665 705.100 303.369 677.661C341.954 579.912 365.105 452.152 372.822 285.807L337.667 280.662L327.377 282.377L244.205 282.377C253.637 221.498 262.211 162.334 267.356 108.315L209.907 104.885C205.620 158.905 197.902 220.641 187.613 282.377L115.587 282.377L115.587 342.399L178.181 342.399C161.890 437.576 141.311 529.323 122.447 595.346"/></svg>