<svg xmlns="http://www.w3.org/2000/svg" viewBox="0 0 1000 1000" fill="currentColor"><path d="M439.748 99.885L439.748 249.993L439.748 287.304L156.017 287.304L156.017 354.115L436.278 354.115C423.262 517.239 365.996 708.128 129.987 848.692C146.473 859.972 169.900 884.267 180.312 899.885C432.807 746.306 491.809 534.592 503.957 354.115L801.570 354.115C784.217 660.406 765.128 783.616 733.892 813.117C723.479 824.397 712.200 827 693.978 827C672.286 827 616.755 826.132 556.885 820.926C569.900 840.015 577.709 868.649 579.445 887.738C633.241 890.341 688.772 892.076 718.273 889.473C752.113 886.002 772.069 879.928 792.894 853.898C831.939 811.382 849.293 681.230 869.249 322.011C870.117 312.466 870.985 287.304 870.985 287.304L507.427 287.304L507.427 249.993L507.427 99.885"/></svg>