<svg xmlns="http://www.w3.org/2000/svg" viewBox="0 0 1000 1000" fill="currentColor"><path d="M887.725 123.455L100.047 123.455L100.047 876.062L900.047 876.062L900.047 806.867L170.190 806.867L170.190 192.649L358.815 192.649C354.076 436.251 341.754 588.858 203.365 676.062C218.531 687.436 240.332 713.028 248.863 729.142C403.365 631.512 424.218 459.948 428.957 192.649L591.043 192.649L591.043 587.910C591.043 667.531 610.948 689.332 685.829 689.332C700.995 689.332 777.773 689.332 793.886 689.332C864.028 689.332 882.038 649.521 889.621 504.498C869.716 499.758 841.280 488.384 825.166 476.062C821.374 601.180 817.583 622.981 788.199 622.981C771.137 622.981 707.630 622.981 694.360 622.981C665.924 622.981 660.237 618.242 660.237 586.962L660.237 192.649L887.725 192.649"/></svg>