<svg xmlns="http://www.w3.org/2000/svg" viewBox="0 0 1000 1000" fill="currentColor"><path d="M159.655 115.724L159.655 428.655C159.655 557.103 156.207 731.241 100.172 853.655C114.828 859.690 141.552 873.483 153.621 883.828C191.552 800.207 207.931 689 214.828 584.690L340.690 584.690L340.690 796.759C340.690 808.828 336.379 813.138 326.034 813.138C314.828 813.138 278.621 814 238.103 812.276C246.724 829.517 256.207 857.966 257.931 875.207C315.690 875.207 350.172 874.345 372.586 863.138C394.138 852.793 401.897 832.103 401.897 797.621L401.897 115.724M219.138 175.207L340.690 175.207L340.690 317.448L219.138 317.448M219.138 376.931L340.690 376.931L340.690 524.345L217.414 524.345L219.138 428.655M469.138 132.103L469.138 747.621C469.138 844.172 497.586 869.172 588.103 869.172C608.793 869.172 756.207 869.172 778.621 869.172C869.138 869.172 889.828 819.172 900.172 677.793C881.207 673.483 856.207 662.276 839.828 651.069C833.793 775.207 826.034 807.103 775.172 807.103C744.138 807.103 617.414 807.103 591.552 807.103C540.690 807.103 531.207 796.759 531.207 748.483L531.207 503.655L797.586 503.655L797.586 550.207L860.517 550.207L860.517 132.103M797.586 442.448L692.414 442.448L692.414 193.310L797.586 193.310M531.207 442.448L531.207 193.310L637.241 193.310L637.241 442.448"/></svg>