<svg xmlns="http://www.w3.org/2000/svg" viewBox="0 0 1000 1000" fill="currentColor"><path d="M555.709 338.291L783.041 338.291L783.041 426.794L555.709 426.794M496.707 289.701L496.707 475.384L843.779 475.384L843.779 289.701M610.373 121.371C623.388 140.460 634.668 164.755 642.477 186.447L448.985 186.447L448.985 241.111L891.501 241.111L891.501 186.447L705.818 186.447C698.009 160.416 680.655 125.709 661.566 99.679M642.477 637.640L642.477 680.156L440.308 680.156L440.308 735.688L642.477 735.688L642.477 830.265C642.477 839.809 639.007 842.412 626.859 843.280C614.711 844.148 573.931 844.148 527.076 842.412C534.885 859.766 544.430 882.325 546.165 899.679C606.902 899.679 647.683 899.679 673.714 891.002C700.612 881.458 706.685 864.972 706.685 831.132L706.685 735.688L894.104 735.688L894.104 680.156L706.685 680.156L706.685 655.861C761.349 628.963 817.748 591.653 858.529 554.343L821.219 523.974L809.072 527.445L476.751 527.445L476.751 578.638L747.466 578.638C715.362 601.197 677.184 622.889 642.477 637.640M172.195 692.304L372.629 692.304L372.629 783.410L172.195 783.410M172.195 643.714L172.195 577.770C180.004 582.976 189.549 591.653 193.887 596.859C240.742 548.269 250.286 477.987 250.286 426.794L250.286 359.983L291.935 359.983L291.935 505.753C291.935 545.666 301.479 553.475 333.584 553.475C338.790 553.475 361.349 553.475 367.423 553.475L372.629 553.475L372.629 643.714M105.384 141.328L105.384 196.859L205.167 196.859L205.167 304.451L123.605 304.451L123.605 897.076L172.195 897.076L172.195 836.338L372.629 836.338L372.629 885.796L422.087 885.796L422.087 304.451L337.922 304.451L337.922 196.859L436.837 196.859L436.837 141.328M250.286 304.451L250.286 196.859L292.803 196.859L292.803 304.451M172.195 565.623L172.195 359.983L215.579 359.983L215.579 425.926C215.579 469.310 209.505 523.106 172.195 565.623M327.510 359.983L372.629 359.983L372.629 514.430C370.894 516.165 368.291 516.165 360.482 516.165C355.275 516.165 340.525 516.165 336.187 516.165C328.377 516.165 327.510 515.297 327.510 504.885"/></svg>