<svg xmlns="http://www.w3.org/2000/svg" viewBox="0 0 1000 1000" fill="currentColor"><path d="M356.937 288.525L356.937 739.718C356.937 836.030 392.512 859.458 506.178 859.458C531.341 859.458 728.304 859.458 756.937 859.458C864.529 859.458 887.089 819.544 900.104 687.657C881.015 683.319 852.382 672.907 836.764 661.627C828.954 772.690 818.542 796.985 754.334 796.985C711.818 796.985 540.885 796.985 507.046 796.985C436.764 796.985 423.748 786.573 423.748 739.718L423.748 350.998L718.759 350.998L718.759 541.887C718.759 554.902 714.421 558.373 695.332 559.241C676.243 560.108 611.167 560.976 538.282 558.373C547.826 576.594 559.974 601.757 563.445 620.846C650.213 620.846 706.612 620.846 740.451 610.434C773.423 600.889 782.967 580.933 782.967 542.755L782.967 288.525M192.078 121.931L192.078 379.631C192.078 517.592 184.269 709.349 100.104 844.707C116.590 850.781 145.223 868.134 158.239 878.547C245.874 737.983 258.022 525.401 258.022 379.631L258.022 184.403L877.544 184.403L877.544 121.931"/></svg>