<svg xmlns="http://www.w3.org/2000/svg" viewBox="0 0 1000 1000" fill="currentColor"><path d="M827.348 359.749C784.151 443.551 703.806 529.080 624.324 578.324C639.875 589.555 658.881 607.698 669.248 620.657C753.050 564.501 834.259 474.652 885.231 381.348M841.171 589.555C793.654 702.730 696.894 797.762 578.536 849.598C594.086 861.693 612.229 883.292 622.596 897.978C747.866 837.503 846.354 734.695 899.918 609.425M392.790 289.771L392.790 350.246L469.680 350.246C443.762 469.469 391.063 605.106 334.043 678.540C344.410 692.363 359.961 716.553 367.737 732.968C408.341 677.676 446.354 589.555 475.728 497.114L475.728 896.251L536.203 896.251L536.203 460.829C562.121 505.754 593.222 563.637 605.317 593.011L641.603 543.767C626.916 518.713 559.529 415.041 536.203 384.803L536.203 350.246L626.052 350.246L626.052 343.335C639.875 353.702 653.698 366.661 663.201 377.028C738.363 324.328 816.117 238.799 865.361 153.270L807.477 131.672C767.737 204.242 695.166 282.860 626.052 330.376L626.052 289.771L536.203 289.771L536.203 102.298L475.728 102.298L475.728 289.771M223.460 102.298L223.460 289.771L122.380 289.771L122.380 350.246L216.549 350.246C194.950 466.877 148.298 604.242 99.918 676.812C111.149 691.499 125.836 715.689 132.747 732.104C166.441 678.540 198.406 592.147 223.460 502.298L223.460 896.251L283.071 896.251L283.071 454.782C305.533 493.659 331.451 542.039 341.819 567.957L376.376 518.713C363.417 497.114 304.670 408.994 283.071 382.212L283.071 350.246L358.233 350.246L358.233 289.771L283.071 289.771L283.071 102.298"/></svg>