<svg xmlns="http://www.w3.org/2000/svg" viewBox="0 0 1000 1000" fill="currentColor"><path d="M454.119 130.979L454.119 427.824L514.184 427.824L514.184 182.339L813.640 182.339L813.640 427.824L877.187 427.824L877.187 130.979M542.040 250.239L542.040 296.376L788.395 296.376L788.395 250.239M542.040 363.406L542.040 410.413L788.395 410.413L788.395 363.406M122.454 264.168L122.454 720.316L172.943 720.316L172.943 322.492L236.491 322.492L236.491 899.641L293.074 899.641L293.074 322.492L360.974 322.492L360.974 646.322C360.974 653.286 359.233 655.027 353.139 655.898C346.175 655.898 330.506 655.898 308.743 655.027C317.448 670.696 325.283 695.941 327.024 711.610C356.621 711.610 376.643 710.740 392.312 700.294C407.111 689.848 410.593 671.567 410.593 648.063L410.593 264.168L293.074 264.168L293.074 99.641L236.491 99.641L236.491 264.168M536.817 636.746L792.748 636.746L792.748 702.035L536.817 702.035M536.817 587.998L536.817 527.062L792.748 527.062L792.748 587.998M536.817 749.913L792.748 749.913L792.748 816.942L536.817 816.942M477.622 473.961L477.622 897.900L536.817 897.900L536.817 869.173L792.748 869.173L792.748 897.900L853.683 897.900L853.683 473.961"/></svg>