<svg xmlns="http://www.w3.org/2000/svg" viewBox="0 0 1000 1000" fill="currentColor"><path d="M260.590 316.205C280.396 354.956 301.925 406.624 310.536 440.209L356.177 420.403C346.704 387.679 324.314 336.872 302.786 298.982M258.006 581.436C282.980 622.771 309.675 677.884 320.870 714.052L364.788 693.384C353.593 658.939 326.898 603.826 300.202 562.491M526.682 532.351L526.682 896.614L586.101 896.614L586.101 854.418L786.747 854.418L786.747 893.169L848.749 893.169L848.749 532.351M586.101 795.860L586.101 591.770L786.747 591.770L786.747 795.860M562.850 150.004L562.850 278.314C562.850 338.594 552.517 406.624 469.847 456.571C481.903 464.321 504.293 486.710 512.904 497.905C603.324 440.209 620.547 353.234 620.547 280.037L620.547 207.701L747.996 207.701L747.996 397.152C747.996 458.293 759.191 480.682 815.165 480.682C823.776 480.682 850.471 480.682 860.805 480.682C874.583 480.682 889.223 479.821 898.695 477.238C896.973 463.460 895.251 440.209 894.390 425.569C884.917 428.153 868.555 429.014 859.944 429.014C851.333 429.014 827.221 429.014 818.609 429.014C808.276 429.014 807.414 422.125 807.414 398.013L807.414 150.004M392.344 261.953L392.344 477.238L224.422 477.238L224.422 261.953M108.168 477.238L108.168 532.351L167.587 532.351C167.587 639.132 162.420 773.470 102.140 867.335C116.779 873.363 140.891 889.724 151.225 900.058C214.949 801.027 224.422 646.883 224.422 532.351L392.344 532.351L392.344 815.666C392.344 826 388.039 828.583 378.566 829.445C368.233 829.445 335.509 830.306 298.480 828.583C307.091 844.084 315.703 869.057 317.425 885.419C369.955 885.419 401.817 883.696 422.484 874.224C443.152 863.890 450.041 846.667 450.041 815.666L450.041 209.423L312.258 209.423C323.453 180.144 336.370 145.699 347.565 112.975L282.118 100.058C276.090 131.920 265.757 175.839 254.562 209.423L167.587 209.423L167.587 477.238"/></svg>