<svg xmlns="http://www.w3.org/2000/svg" viewBox="0 0 1000 1000" fill="currentColor"><path d="M456.310 123.828C478.724 164.345 504.586 219.517 514.931 254L135.621 254L135.621 316.931L370.966 316.931C360.621 515.207 339.069 738.483 116.655 848.828C133.897 860.897 154.586 883.310 164.069 899.690C327.862 814.345 392.517 671.241 420.103 517.793L728.724 517.793C714.931 712.621 697.690 796.241 672.690 818.655C661.483 827.276 650.276 829 631.310 829C608.034 829 547.690 828.138 485.621 822.966C498.552 840.207 507.172 866.931 508.897 885.897C566.655 890.207 623.552 891.069 653.724 888.483C687.345 886.759 708.897 880.724 728.724 858.310C762.345 824.690 779.586 730.724 796.828 485.897C798.552 476.414 799.414 454.862 799.414 454.862L430.448 454.862C435.621 409.172 439.069 362.621 441.655 316.931L883.897 316.931L883.897 254L520.103 254L581.310 227.276C569.241 192.793 542.517 140.207 518.379 99.690"/></svg>