<svg xmlns="http://www.w3.org/2000/svg" viewBox="0 0 1000 1000" fill="currentColor"><path d="M600.351 625.622L553.649 635.135C575.270 691.351 602.946 735.459 636.676 770.919C610.730 805.514 573.541 832.324 518.189 853.081C529.432 862.595 545 883.351 551.054 896.324C608.135 873.838 648.784 844.432 677.324 806.378C728.351 845.297 792.351 871.243 869.324 892C874.514 874.703 886.622 854.811 899.595 843.568C819.162 824.541 755.162 802.054 703.270 763.135C725.757 717.297 736.135 661.946 743.054 597.081L871.054 597.081L871.054 282.270L746.514 282.270L746.514 200.973L884.892 200.973L884.892 144.757L556.243 144.757L556.243 200.973L692.027 200.973L692.027 282.270L563.162 282.270L563.162 597.081L690.297 597.081C685.973 646.378 677.324 689.622 662.622 725.946C638.405 699.135 617.649 666.270 600.351 625.622M611.595 462.162L695.486 462.162L695.486 547.784L611.595 547.784M743.054 462.162L820.027 462.162L820.027 547.784L743.054 547.784M611.595 331.568L695.486 331.568L695.486 415.459L611.595 415.459M743.054 331.568L820.027 331.568L820.027 415.459L743.054 415.459M495.703 115.351C474.946 229.514 439.486 338.486 386.730 409.405C397.108 422.378 414.405 451.784 420.459 464.757C432.568 449.189 443.811 431.892 454.189 413.730L454.189 892L507.811 892L507.811 292.649C525.973 240.757 540.676 183.676 551.919 126.595M125.541 412.865L125.541 620.432L229.324 620.432L229.324 690.486L99.595 690.486L99.595 746.703L229.324 746.703L229.324 898.054L289 898.054L289 746.703L410.081 746.703L410.081 690.486L289 690.486L289 620.432L386.730 620.432L386.730 412.865L286.405 412.865L286.405 355.784L356.459 355.784L356.459 235.568L416.135 235.568L416.135 181.081L356.459 181.081L356.459 102.378L301.973 102.378L301.973 181.081L213.757 181.081L213.757 102.378L161 102.378L161 181.081L103.919 181.081L103.919 235.568L161 235.568L161 355.784L231.054 355.784L231.054 412.865M170.514 463.892L235.378 463.892L235.378 569.405L170.514 569.405M282.081 463.892L340.027 463.892L340.027 569.405L282.081 569.405M301.973 235.568L301.973 303.892L213.757 303.892L213.757 235.568"/></svg>