<svg xmlns="http://www.w3.org/2000/svg" viewBox="0 0 1000 1000" fill="currentColor"><path d="M792.784 243.027C774.076 312.514 737.550 410.510 708.151 470.198L761.604 488.906C792.784 431.891 829.310 338.350 857.817 262.626M396.347 275.098C427.528 341.022 455.145 429.218 463.163 486.234L523.742 466.635C513.942 408.728 485.434 322.314 451.581 256.390M813.274 99.597C709.042 130.777 522.851 153.940 366.058 166.412C374.076 181.557 382.984 205.610 384.766 221.646C449.800 217.192 520.178 210.955 588.775 202.938L588.775 517.414L359.822 517.414L359.822 580.666L588.775 580.666L588.775 815.855C588.775 831 583.430 835.454 567.394 835.454C552.249 836.345 501.470 836.345 445.345 834.563C456.036 852.381 466.726 881.780 469.399 899.597C545.122 899.597 589.666 897.815 617.283 887.125C644.900 876.434 655.590 857.726 655.590 815.855L655.590 580.666L893.452 580.666L893.452 517.414L655.590 517.414L655.590 194.029C731.314 183.339 802.584 169.976 859.599 153.940M106.815 175.321L106.815 738.350L166.503 738.350L166.503 655.499L322.405 655.499L322.405 175.321M166.503 237.682L261.826 237.682L261.826 593.138L166.503 593.138"/></svg>