<svg xmlns="http://www.w3.org/2000/svg" viewBox="0 0 1000 1000" fill="currentColor"><path d="M405.484 370.505C462.258 412.656 535.376 474.591 568.925 513.301L616.237 467.710C580.108 429.860 505.269 371.366 449.355 330.935M208.495 529.645L208.495 595.022L691.075 595.022C629.140 675.022 540.538 785.129 466.559 870.290L532.796 900.398C623.978 789.430 737.527 646.634 808.925 550.290L759.032 526.204L746.989 529.645M495.806 100.398C408.925 231.151 255.806 350.720 100.108 420.398C119.032 435.882 138.817 459.968 149.140 478.032C279.892 411.796 408.925 313.731 502.688 201.903C596.452 308.570 735.806 415.237 849.355 472.011C861.398 454.806 882.903 428.140 900.108 414.376C777.957 361.043 628.280 254.376 541.398 152.871L557.742 129.645"/></svg>