<svg xmlns="http://www.w3.org/2000/svg" viewBox="0 0 1000 1000" fill="currentColor"><path d="M317.189 99.920C270.951 231.654 194.179 362.516 113.045 448.012C124.386 462.843 143.579 496.867 150.558 512.570C177.603 482.908 204.648 448.884 229.948 411.371L229.948 899.920L292.761 899.920L292.761 308.426C325.913 247.358 355.575 182.799 379.130 118.241M400.940 300.575L400.940 845.831L821.442 845.831L821.442 899.048L886.872 899.048L886.872 297.957L821.442 297.957L821.442 783.890L674.004 783.890L674.004 112.134L607.701 112.134L607.701 783.890L465.498 783.890L465.498 300.575"/></svg>