<svg xmlns="http://www.w3.org/2000/svg" viewBox="0 0 1000 1000" fill="currentColor"><path d="M453.805 99.996C399.260 171.857 294.498 256.706 155.104 314.714C169.823 325.104 189.736 345.883 200.126 360.602C278.913 324.238 345.580 281.814 402.723 235.926L646.879 235.926C603.589 289.606 543.848 336.359 475.450 375.320C444.281 349.346 400.991 319.043 364.628 298.264L317.009 332.030C351.641 351.944 389.736 379.649 418.307 405.623C325.667 450.645 223.502 481.814 126.532 499.130C137.788 512.983 151.641 539.823 157.701 557.139C383.675 509.519 637.355 393.502 748.177 200.429L705.753 174.455L694.498 177.052L468.524 177.052C489.303 157.139 508.351 136.359 525.667 115.580M594.931 402.160C532.593 487.874 407.918 583.978 232.160 647.182C246.013 659.303 264.195 681.814 272.853 696.532C381.078 653.242 471.987 600.429 543.848 541.554L780.212 541.554C736.922 609.087 674.584 663.632 599.260 706.056C568.957 677.485 526.532 643.719 491.900 619.476L438.221 650.645C471.987 675.753 510.948 708.654 539.519 737.225C417.442 792.636 271.987 822.939 123.935 836.792C134.325 853.242 146.446 881.814 150.775 899.996C458.134 863.632 755.104 763.199 876.316 506.056L833.026 479.216L820.905 482.680L609.649 482.680C630.429 461.035 649.476 439.390 666.792 417.745"/></svg>