<svg xmlns="http://www.w3.org/2000/svg" viewBox="0 0 1000 1000" fill="currentColor"><path d="M576.783 348.306L796.306 348.306L796.306 434.206L576.783 434.206M576.783 214.683L796.306 214.683L796.306 299.716L576.783 299.716M126.458 440.280L131.664 494.944C223.638 485.399 354.657 471.516 481.338 457.633L481.338 404.705L338.171 419.456L338.171 332.688L457.043 332.688L457.043 281.495L338.171 281.495L338.171 200.800L472.662 200.800L472.662 148.740L142.076 148.740L142.076 200.800L276.566 200.800L276.566 281.495L149.885 281.495L149.885 332.688L276.566 332.688L276.566 425.529M125.590 537.460L125.590 591.256L341.642 591.256C282.640 669.347 195.004 734.423 103.030 775.204C116.046 787.351 136.870 815.117 144.679 828.132C191.534 802.970 238.388 772.601 281.772 737.026L281.772 900.150L347.716 900.150L347.716 867.178L746.848 867.178L746.848 895.811L815.395 895.811L815.395 666.744L356.393 666.744C378.085 643.317 397.174 618.154 414.527 591.256L897.824 591.256L897.824 537.460M347.716 815.117L347.716 718.805L746.848 718.805L746.848 815.117M516.913 162.623L516.913 486.267L858.779 486.267L858.779 162.623L711.273 162.623L734.701 109.694L664.419 100.150C660.948 117.503 654.007 140.931 647.065 162.623"/></svg>