<svg xmlns="http://www.w3.org/2000/svg" viewBox="0 0 1000 1000" fill="currentColor"><path d="M713.391 149.130C756.870 172.609 NaN 206.522 848.174 229.130L676.870 229.130L676.870 99.565L616 99.565L616 229.130L400.348 229.130L400.348 289.130L616 289.130L616 373.478L423.826 373.478L423.826 897.826L483.826 897.826L483.826 719.565L616 719.565L616 890.870L676.870 890.870L676.870 719.565L820.348 719.565L820.348 832.609C820.348 843.043 817.739 846.522 807.304 846.522CNaN 847.391 762.957 847.391 724.696 846.522C731.652 861.304 738.609 883.913 741.217 898.696C795.130 899.565 831.652 898.696 853.391 890C875.130 880.435 882.087 864.783 882.087 832.609L882.087 373.478L676.870 373.478L676.870 289.130L900.348 289.130L900.348 229.130LNaN 229.130L885.565 185.652C852.522 164.783 789.913 130.870 744.696 108.261M820.348 432.609L820.348 518.696L676.870 518.696L676.870 432.609M616 432.609L616 518.696L483.826 518.696L483.826 432.609M483.826 574.348L616 574.348L616 663.913L483.826 663.913M820.348 574.348L820.348 663.913L676.870 663.913L676.870 574.348M233.391 99.565L233.391 274.348L112.522 274.348L112.522 336.087L233.391 336.087L233.391 525.652C183.826 539.565 137.739 552.609 100.348 562.174L114.261 625.652L233.391 590L233.391 823.913C233.391 836.957 228.174 840.435 216.870 840.435C205.565 841.304 169.913 841.304 129.913 840.435C138.609 857.826 147.304 883.913 149.913 899.565C207.304 899.565 242.957 897.826 265.565 888.261C288.174 877.826 296 860.435 296 823.913L296 570L402.957 536.957L394.261 478.696L296 507.391L296 336.087L393.391 336.087L393.391 274.348L296 274.348L296 99.565"/></svg>