<svg xmlns="http://www.w3.org/2000/svg" viewBox="0 0 1000 1000" fill="currentColor"><path d="M136.398 272.882L136.398 556.753L189.731 556.753L189.731 486.215L296.398 486.215L296.398 529.226L356.613 529.226L356.613 486.215L460.699 486.215L460.699 554.172L517.473 554.172L517.473 273.742L478.763 273.742L356.613 272.882L356.613 230.731L545.860 230.731L545.860 181.699L481.344 181.699L508.011 150.731C486.505 136.968 447.796 114.602 417.688 101.699L386.720 132.667C412.527 145.570 446.935 166.215 469.301 181.699L356.613 181.699L356.613 105.140L296.398 105.140L296.398 181.699L106.290 181.699L106.290 230.731L296.398 230.731L296.398 272.882M296.398 315.892L296.398 359.763L189.731 359.763L189.731 315.892M356.613 315.892L460.699 315.892L460.699 359.763L356.613 359.763M296.398 399.333L296.398 446.645L189.731 446.645L189.731 399.333M356.613 399.333L460.699 399.333L460.699 446.645L356.613 446.645M283.495 546.430L304.140 588.581L100.269 588.581L100.269 638.473L233.602 638.473C221.559 728.796 191.452 807.075 100.269 851.806C114.032 862.129 132.097 881.914 138.978 895.677C211.237 858.688 250.806 803.634 274.032 736.538L429.731 736.538C424.570 798.473 418.548 825.140 409.946 833.742C403.925 839.763 397.043 840.624 384.140 840.624C372.957 840.624 341.129 840.624 306.720 836.323C315.323 851.806 321.344 873.312 323.065 888.796C358.333 891.376 394.462 891.376 411.667 889.656C433.172 888.796 447.796 883.634 459.839 870.731C477.903 853.527 485.645 810.516 494.247 709.871C495.108 701.269 495.968 685.785 495.968 685.785L287.796 685.785C290.376 670.301 292.957 654.817 295.538 638.473L545.860 638.473L545.860 588.581L366.935 588.581C359.194 570.516 348.011 548.151 336.828 530.946M655.108 325.355L790.161 325.355C777.258 433.742 755.753 527.505 723.065 607.505C691.237 524.925 668.871 429.441 654.247 327.935M640.484 102.559C621.559 247.075 587.151 387.290 526.935 476.753C538.978 488.796 559.624 515.462 567.366 527.505C586.290 499.118 602.634 467.290 618.118 432.022C635.323 522.344 658.548 604.925 689.516 676.323C649.086 746.860 595.753 802.774 523.495 845.785C534.677 858.688 552.742 886.215 559.624 899.118C626.720 855.247 679.194 802.774 720.484 738.258C757.473 803.634 802.204 856.968 858.978 894.817C868.441 878.473 886.505 856.108 900.269 844.925C840.054 807.935 792.742 750.301 754.892 678.043C803.065 582.559 832.312 465.570 851.237 325.355L891.667 325.355L891.667 265.140L670.591 265.140C681.774 216.108 692.097 165.355 699.839 112.882"/></svg>