<svg xmlns="http://www.w3.org/2000/svg" viewBox="0 0 1000 1000" fill="currentColor"><path d="M586.197 462.832C612.552 500.239 646.558 535.096 684.815 564.851L289.491 564.851C328.598 533.395 363.455 499.389 393.210 462.832M693.317 132.120C673.763 169.527 639.757 224.787 611.701 260.494L508.832 260.494C526.685 212.885 539.438 163.576 547.089 115.117L480.777 108.316C473.976 158.475 460.373 210.335 440.819 260.494L328.598 260.494L373.657 235.840C360.904 206.084 327.748 161.876 299.693 129.570L249.533 154.224C276.739 186.530 305.644 230.739 319.247 260.494L176.420 260.494L176.420 317.455L414.464 317.455C398.311 347.210 380.458 376.116 359.204 404.171L123.710 404.171L123.710 462.832L308.194 462.832C252.934 518.092 184.921 566.552 99.905 603.108C114.358 615.861 133.062 639.665 139.863 655.818C180.671 637.115 218.928 615.011 252.934 592.056L252.934 623.512L384.709 623.512C363.455 724.681 313.295 799.495 151.765 837.752C165.368 850.505 182.371 876.010 189.172 892.163C369.406 842.853 427.217 751.886 451.021 623.512L657.610 623.512C648.258 751.036 638.056 802.896 622.753 818.199C615.102 825.850 606.600 826.700 590.447 826.700C575.145 826.700 530.936 826.700 485.878 822.450C496.080 838.603 503.731 864.107 504.581 882.811C551.340 885.361 595.548 886.211 619.353 883.661C644.858 881.111 661.011 876.010 676.313 859.006C700.968 834.352 712.870 765.489 723.922 592.906C765.580 619.261 810.639 641.366 857.397 656.668C866.749 640.515 885.453 615.861 899.905 603.108C805.538 578.454 717.121 526.594 658.460 462.832L871 462.832L871 404.171L436.569 404.171C455.272 376.116 471.425 347.210 485.028 317.455L812.339 317.455L812.339 260.494L675.463 260.494C700.968 229.038 729.023 189.081 751.978 151.674"/></svg>