<svg xmlns="http://www.w3.org/2000/svg" viewBox="0 0 1000 1000" fill="currentColor"><path d="M428.874 409.802L428.874 504.688L222.563 504.688L222.563 409.802M428.874 352.348L222.563 352.348L222.563 267.038L428.874 267.038M571.638 157.354L571.638 899.900L634.314 899.900L634.314 218.289L782.301 218.289C757.057 284.448 725.718 359.312 690.027 440.270C772.726 526.450 809.287 589.127 809.287 644.840C809.287 676.178 801.453 705.776 781.431 717.963C771.855 723.186 758.798 726.668 743.128 727.539C723.977 728.409 690.898 727.539 658.689 724.927C670.876 741.467 678.711 768.453 679.581 784.992C709.178 787.604 743.128 787.604 767.503 784.992C789.266 782.381 810.158 776.287 824.956 766.712C856.295 745.819 871.964 699.682 871.094 647.452C871.094 586.516 836.273 516.875 755.316 429.824C797.100 343.643 835.403 258.333 868.482 181.728L822.345 154.742L812.769 157.354M260.865 123.404C280.887 149.519 303.520 183.469 316.578 210.455L159.015 210.455L159.015 742.337C159.015 782.381 141.605 804.144 128.547 814.590C138.993 825.906 156.404 851.151 162.497 865.079C180.778 849.410 210.375 835.482 415.816 749.301C434.097 784.992 449.766 818.942 459.342 845.058L516.795 816.331C494.162 758.877 440.190 664.862 391.442 595.221L340.082 618.725C355.751 643.099 372.291 670.085 387.960 697.071L222.563 762.359L222.563 561.271L490.680 561.271L490.680 210.455L352.269 210.455L379.255 197.397C366.197 169.541 339.211 129.497 313.966 99.900"/></svg>