<svg xmlns="http://www.w3.org/2000/svg" viewBox="0 0 1000 1000" fill="currentColor"><path d="M479.945 317.776L782.459 317.776L782.459 400.836L479.945 400.836M479.945 184.880L782.459 184.880L782.459 267.940L479.945 267.940M415.246 132.421L415.246 454.169L849.781 454.169L849.781 132.421M442.350 715.590L821.803 715.590L821.803 808.268L442.350 808.268M442.350 659.634L442.350 572.202L821.803 572.202L821.803 659.634M376.776 515.372L376.776 900.071L442.350 900.071L442.350 865.098L821.803 865.098L821.803 895.699L890 895.699L890 515.372M316.448 100.071C270.109 232.093 193.169 363.240 110.984 448.923C122.350 464.661 141.585 500.508 148.579 517.120C175.683 487.393 201.913 454.169 227.268 416.574L227.268 899.197L291.093 899.197L291.093 313.404C325.191 251.328 355.792 184.880 380.273 119.306"/></svg>