<svg xmlns="http://www.w3.org/2000/svg" viewBox="0 0 1000 1000" fill="currentColor"><path d="M223.958 500.661L223.958 814.233L286.498 814.233L286.498 752.561L562.720 752.561L562.720 500.661M286.498 557.122L500.179 557.122L500.179 696.101L286.498 696.101M113.643 357.339L113.643 418.142L695.619 418.142L695.619 819.445C695.619 833.343 690.407 837.686 673.035 838.555C656.531 838.555 596.596 839.423 535.793 837.686C545.347 855.059 555.771 881.986 559.245 900.227C639.159 900.227 690.407 899.358 721.678 888.935C752.079 879.380 762.503 862.008 762.503 820.314L762.503 418.142L886.716 418.142L886.716 357.339M616.574 100.227L616.574 177.534L379.441 177.534L379.441 100.227L315.163 100.227L315.163 177.534L117.986 177.534L117.986 238.338L315.163 238.338L315.163 320.857L379.441 320.857L379.441 238.338L616.574 238.338L616.574 320.857L680.852 320.857L680.852 238.338L882.372 238.338L882.372 177.534L680.852 177.534L680.852 100.227"/></svg>