<svg xmlns="http://www.w3.org/2000/svg" viewBox="0 0 1000 1000" fill="currentColor"><path d="M744.238 106.600L744.238 290.094L487.003 290.094L487.003 351.831L722.802 351.831C657.636 487.308 545.310 631.359 437.271 705.100C452.705 717.961 472.427 741.113 482.716 758.262C577.893 685.378 675.642 563.621 744.238 441.005L744.238 807.136C744.238 822.570 738.236 827.715 722.802 827.715C706.510 828.572 650.776 829.430 595.899 827.715C604.474 845.721 614.763 875.732 618.193 893.738C691.934 893.738 742.523 892.024 770.819 880.877C799.972 870.587 811.119 851.723 811.119 806.279L811.119 351.831L900.294 351.831L900.294 290.094L811.119 290.094L811.119 106.600M272.641 105.743L272.641 289.237L129.447 289.237L129.447 351.831L264.066 351.831C230.626 471.016 165.460 603.921 100.294 675.946C111.441 692.238 128.589 718.819 136.307 737.683C186.896 677.661 235.771 579.912 272.641 478.733L272.641 893.738L336.950 893.738L336.950 451.295C372.962 497.597 417.550 558.476 436.414 590.202L477.571 535.325C456.135 508.744 367.818 405.850 336.950 374.124L336.950 351.831L455.278 351.831L455.278 289.237L336.950 289.237L336.950 105.743"/></svg>