<svg xmlns="http://www.w3.org/2000/svg" viewBox="0 0 1000 1000" fill="currentColor"><path d="M533.450 408.565L795.830 408.565L795.830 505.457L533.450 505.457M533.450 262.798L795.830 262.798L795.830 357.975L533.450 357.975M375.680 110.173C313.086 153.902 201.617 197.632 99.581 222.498C111.585 234.503 126.162 255.081 133.021 268.801C235.915 241.362 347.384 199.347 414.265 149.615M472.571 208.779L472.571 558.618L558.316 558.618C549.742 701.812 524.876 793.559 404.833 845.864C418.552 856.153 436.558 880.162 444.275 895.596C578.895 833.002 609.763 723.249 618.338 558.618L692.936 558.618L692.936 802.991C692.936 863.013 705.797 880.162 763.247 880.162C774.393 880.162 819.838 880.162 830.985 880.162C879.860 880.162 894.436 851.866 899.581 742.113C883.289 737.825 859.281 728.393 846.419 718.104C844.704 812.423 842.132 827.857 824.125 827.857C814.693 827.857 780.395 827.857 772.678 827.857C755.529 827.857 752.957 824.428 752.957 802.991L752.957 558.618L859.281 558.618L859.281 208.779L679.217 208.779C689.506 180.483 700.653 147.900 710.942 116.175L638.059 105.028C632.914 135.039 624.340 176.196 614.908 208.779M419.409 254.224C401.403 273.088 379.967 291.952 356.816 309.958C343.954 283.377 324.233 252.509 305.369 227.643L263.354 248.222C283.075 275.660 303.654 310.816 315.658 339.111C295.937 352.831 274.501 365.692 252.207 378.554C236.773 345.971 210.192 306.528 185.326 275.660L140.738 297.096C165.605 328.822 190.471 370.837 205.905 403.420C174.179 418.854 141.596 433.431 109.013 446.293C121.017 457.439 136.451 477.161 144.168 489.165C191.328 470.301 237.630 448.865 282.218 423.999C295.079 440.290 306.226 458.297 315.658 477.161C265.069 522.606 178.466 574.910 112.443 600.633C125.304 611.780 139.024 634.074 147.598 648.651C206.762 617.782 282.218 568.908 335.379 522.606C343.954 544.899 349.956 568.050 354.243 590.344C295.079 658.083 187.898 730.966 102.153 766.121C115.015 778.125 129.592 799.562 137.309 814.138C211.049 778.125 298.509 716.389 362.818 654.653C367.962 734.395 352.528 801.277 330.235 821.855C315.658 838.147 301.939 839.862 279.645 839.862C265.926 839.862 237.630 839.004 211.049 836.432C220.481 852.723 224.768 877.589 225.626 893.881C249.635 894.738 276.215 895.596 293.364 895.596C330.235 894.738 353.386 887.021 377.394 862.155C440.846 803.849 449.420 548.329 327.662 397.418C379.109 364.835 425.412 328.822 461.424 291.952"/></svg>