<svg xmlns="http://www.w3.org/2000/svg" viewBox="0 0 1000 1000" fill="currentColor"><path d="M359.794 104.514C307.546 271.537 216.754 422.287 100.266 515.649C116.540 526.784 145.662 550.767 157.653 562.758C231.315 498.518 296.411 410.296 349.516 308.368L573.927 308.368C496.839 574.749 319.537 749.482 109.687 838.561C126.818 850.552 149.944 877.961 160.223 895.092C307.546 827.426 442.878 714.364 540.522 551.623C609.901 703.229 716.968 826.570 853.156 891.666C863.435 873.679 884.848 847.983 900.266 834.278C755.512 773.465 639.024 637.276 579.066 481.388C611.615 415.435 638.167 341.773 657.867 261.259L612.471 239.846L599.623 243.272L380.351 243.272C398.338 203.872 414.612 162.758 428.317 120.788"/></svg>