<svg xmlns="http://www.w3.org/2000/svg" viewBox="0 0 1000 1000" fill="currentColor"><path d="M570.312 708.101C599.095 760.587 632.111 830.852 644.810 873.180L694.757 855.402C679.519 813.074 645.656 744.503 616.873 693.709M305.339 111.275C258.778 243.339 181.741 373.709 99.624 458.365C111.476 472.757 129.254 506.619 135.180 521.857C165.656 489.688 195.286 451.593 223.222 409.265L223.222 885.032L283.328 885.032L283.328 310.217C314.651 251.804 342.587 190.005 365.444 129.053M388.302 890.111C402.693 880.799 425.550 871.487 580.471 826.619C578.778 813.921 577.931 789.370 578.778 773.286L459.413 803.762L459.413 493.074L653.275 493.074C678.672 721.646 728.619 877.413 820.894 879.106C853.910 879.952 883.540 842.704 899.624 714.026C888.619 708.947 864.069 693.709 853.063 681.857C847.138 760.587 836.132 804.608 820.048 803.762C773.487 801.222 736.238 675.931 715.074 493.074L886.079 493.074L886.079 432.968L708.302 432.968C701.529 361.857 696.450 284.820 693.910 203.550C751.476 190.852 805.656 176.460 851.370 160.376L797.190 109.582C704.915 145.138 542.376 178.153 399.307 199.317L400.153 200.164L399.307 785.138C399.307 817.307 378.989 830.852 364.598 836.778C373.910 849.476 384.915 874.873 388.302 890.111M647.349 432.968L459.413 432.968L459.413 246.725C516.979 238.259 576.238 228.101 633.804 216.249C637.190 292.439 641.423 365.243 647.349 432.968"/></svg>