<svg xmlns="http://www.w3.org/2000/svg" viewBox="0 0 1000 1000" fill="currentColor"><path d="M268.670 287.705L759.930 287.705L759.930 367.614L268.670 367.614M268.670 156.036L759.930 156.036L759.930 235.037L268.670 235.037M203.289 99.737L203.289 423.006L828.034 423.006L828.034 99.737M524.742 484.754L524.742 899.737L591.939 899.737L591.939 544.686L804.425 544.686L804.425 756.263C804.425 767.160 800.792 770.792 787.171 771.700C774.459 771.700 726.331 772.608 674.572 770.792C683.653 788.045 692.733 812.563 695.457 831.632C766.286 831.632 810.781 830.724 838.023 820.736C865.264 810.747 872.529 791.678 872.529 756.263L872.529 484.754M155.162 838.897C177.864 826.184 211.462 817.103 482.064 764.436C480.247 749.907 480.247 722.665 482.064 703.596L235.980 748.091L235.980 562.847C321.337 545.594 412.143 522.892 482.064 499.283L434.844 443.891C370.372 470.225 262.313 500.191 169.691 519.260L169.691 723.573C169.691 758.988 145.174 774.425 127.921 781.689C138.817 795.310 151.530 822.552 155.162 838.897"/></svg>