<svg xmlns="http://www.w3.org/2000/svg" viewBox="0 0 1000 1000" fill="currentColor"><path d="M101.591 667.116L117.503 735.182C212.088 709.547 339.381 673.304 459.602 638.829L451.646 576.066L309.326 614.077L309.326 253.414L438.387 253.414L438.387 189.768L113.083 189.768L113.083 253.414L243.912 253.414L243.912 631.757C189.989 645.901 140.486 658.276 101.591 667.116M595.735 99.602C595.735 164.133 594.851 226.895 593.083 287.890L444.575 287.890L444.575 351.536L590.431 351.536C577.171 567.227 528.552 745.790 339.381 847.448C356.177 859.823 378.276 882.807 387.116 899.602C589.547 786.453 641.702 586.674 655.845 351.536L832.641 351.536C820.265 666.232 805.238 786.453 779.602 813.856C769.878 825.348 761.039 828 742.475 828C723.028 828 673.525 827.116 618.718 822.696C631.094 840.376 638.166 868.663 639.934 888.110C690.320 890.762 741.591 891.646 769.878 888.994C799.934 886.343 819.381 879.271 838.829 854.519C872.420 813.856 884.796 686.564 898.939 320.597C898.939 311.757 898.939 287.890 898.939 287.890L659.381 287.890C661.149 226.895 662.033 164.133 662.033 99.602"/></svg>