<svg xmlns="http://www.w3.org/2000/svg" viewBox="0 0 1000 1000" fill="currentColor"><path d="M464.552 103.724L464.552 284.759L124.034 284.759L124.034 350.276L384.379 350.276C321.448 496.828 214.552 636.483 99.897 706.310C115.414 719.241 136.966 742.517 147.310 758.897C272.310 673.552 383.517 519.241 450.759 350.276L464.552 350.276L464.552 669.241L262.828 669.241L262.828 734.759L464.552 734.759L464.552 895.966L532.655 895.966L532.655 734.759L733.517 734.759L733.517 669.241L532.655 669.241L532.655 350.276L544.724 350.276C610.241 519.241 721.448 674.414 849.034 757.172C861.103 739.069 883.517 714.069 899.897 701.138C780.069 632.172 671.448 495.966 609.379 350.276L875.759 350.276L875.759 284.759L532.655 284.759L532.655 103.724"/></svg>