<svg xmlns="http://www.w3.org/2000/svg" viewBox="0 0 1000 1000" fill="currentColor"><path d="M390.219 332.067C434.615 385.169 487.716 459.162 511.220 504.429L558.227 466.126C533.853 421.730 479.881 352.089 434.615 299.859M234.397 302.470C203.929 363.406 156.922 427.824 110.785 472.220C122.101 483.536 141.252 508.781 148.217 520.098C196.965 469.608 252.678 392.133 289.239 320.751M598.271 144.908L598.271 899.641L659.207 899.641L659.207 203.232L808.064 203.232C780.208 272.002 741.035 366.017 703.603 440.011C792.395 517.486 820.251 581.904 820.251 636.746C820.251 667.214 814.158 694.200 795.007 704.646C782.819 710.740 768.891 713.351 754.092 714.222C734.071 715.092 706.214 715.092 676.617 712.481C687.934 729.891 694.898 757.748 695.768 774.287C722.754 776.899 754.963 776.899 780.208 774.287C801.971 772.546 822.863 765.582 838.532 756.007C869.871 735.985 882.928 694.200 882.928 642.840C882.058 581.904 860.295 513.134 770.632 431.306C811.546 351.219 858.554 252.851 893.374 171.893L847.237 142.296L836.791 144.908M280.534 122.274C300.556 153.613 323.189 195.397 333.635 224.995L128.195 224.995L128.195 283.319L557.357 283.319L557.357 224.995L356.269 224.995L396.312 206.714C384.996 177.987 359.751 133.591 336.247 99.641M201.318 531.415C237.879 566.235 276.182 605.408 313.614 646.322C261.383 723.798 190.872 789.956 106.432 839.576C120.360 850.022 141.252 872.655 150.828 884.842C233.527 834.353 302.297 769.064 355.398 692.459C395.442 738.596 431.133 782.992 453.766 817.813L495.551 768.194C472.047 732.503 432.874 686.366 389.348 639.358C418.946 587.998 442.449 532.285 460.730 472.220L399.794 457.421C386.737 505.299 368.456 550.566 345.823 593.221C310.132 557.530 273.570 521.839 240.491 490.501"/></svg>