<svg xmlns="http://www.w3.org/2000/svg" viewBox="0 0 1000 1000" fill="currentColor"><path d="M415.015 689.974C394.611 748.635 358.904 821.749 314.696 865.107L364.855 892.312C408.214 845.554 441.370 769.889 463.474 709.528M755.079 705.277C788.235 764.789 827.342 844.704 844.345 890.612L899.606 870.208C881.752 823.450 841.795 746.085 806.938 689.124M773.782 146.723C796.736 185.830 819.691 238.540 829.893 273.396L874.951 253.843C864.749 219.836 840.095 168.827 816.290 129.719M510.233 717.180C519.584 769.889 528.086 838.752 528.936 883.811L584.197 875.309C582.496 830.251 573.145 762.238 562.943 709.528M630.105 718.880C651.359 770.740 674.313 840.453 683.665 884.661L736.375 868.508C727.023 824.300 703.219 756.287 681.115 704.427M143.814 275.947C139.563 344.810 125.961 430.676 101.306 481.685L142.114 505.490C169.319 445.979 182.921 355.012 186.322 281.898M702.369 113.566L702.369 275.947L702.369 293.800L610.552 294.650L610.552 348.210L699.818 348.210C691.317 450.230 658.160 556.499 538.288 639.815C551.040 649.167 569.744 667.870 578.245 680.623C670.063 615.160 715.121 536.096 737.225 455.330C763.580 549.698 802.688 629.613 858.798 677.222C868.150 661.069 886.853 640.665 900.456 629.613C829.043 578.604 785.684 468.933 763.580 348.210L883.453 348.210L883.453 293.800L756.779 293.800L756.779 275.947L756.779 113.566M459.223 107.615C433.718 241.090 387.810 366.914 320.647 447.679C333.400 455.330 355.504 472.334 364.855 481.685C411.614 421.324 449.871 339.709 478.777 247.892L566.343 247.892C560.392 282.748 553.591 315.054 544.239 346.510C525.536 335.458 503.431 324.406 484.728 315.904L463.474 355.012C483.878 365.214 509.383 379.666 529.786 392.419C521.285 414.523 512.783 436.627 502.581 457.031C483.028 442.578 460.073 428.125 441.370 416.223L414.165 451.080C434.569 465.532 460.073 483.386 480.477 498.689C444.770 559.050 401.412 605.809 352.953 634.714C365.706 645.766 381.859 666.170 389.510 680.623C493.230 610.060 572.294 481.685 610.552 294.650C616.503 265.745 621.604 235.989 625.004 204.533L591.848 195.182L581.646 196.882L493.230 196.882C500.031 170.527 506.832 144.172 511.933 116.967M329.149 233.439C317.247 281.048 294.292 349.911 275.589 395.819L275.589 117.817L220.328 117.817L220.328 409.422C220.328 564.151 208.426 724.831 100.456 850.655C114.058 860.006 133.612 879.560 142.964 892.312C207.576 818.349 240.732 733.333 257.735 644.066C282.390 682.323 309.595 727.382 322.348 752.036L364.855 707.828C351.253 686.574 292.592 600.708 268.787 570.952C273.888 517.392 275.589 462.982 275.589 408.572L275.589 405.171L307.895 418.774C329.999 376.266 355.504 307.403 377.608 251.292"/></svg>