<svg xmlns="http://www.w3.org/2000/svg" viewBox="0 0 1000 1000" fill="currentColor"><path d="M576.544 350.196L576.544 460.296L452.238 460.296L452.238 350.196M576.544 294.259L452.238 294.259L452.238 185.935L576.544 185.935M381.205 832.327C395.412 819.009 417.609 803.027 574.768 729.331C588.087 768.398 597.853 804.802 602.293 833.215L653.791 815.457C642.249 750.640 603.181 645.868 563.225 565.957L515.279 581.051C530.373 611.240 544.579 644.980 557.010 679.608L452.238 724.003L452.238 518.898L629.818 518.898L629.818 128.221L395.412 128.221L395.412 708.021C395.412 746.201 366.111 771.062 350.129 779.941C360.784 792.372 375.878 817.233 381.205 832.327M681.316 129.109L681.316 896.256L739.030 896.256L739.030 187.710L835.811 187.710L835.811 681.384C835.811 690.263 832.260 692.927 824.269 692.927C817.165 692.927 793.192 692.927 765.667 692.039C773.658 708.021 781.649 733.770 784.313 748.865C825.156 748.865 850.906 747.977 869.552 737.322C888.198 727.555 892.637 709.797 892.637 682.272L892.637 129.109M281.760 257.855L281.760 497.588C281.760 519.786 280.872 541.983 279.097 565.069L197.410 597.921L197.410 216.123C261.339 194.814 338.586 162.849 389.196 124.669L335.034 99.808C288.863 130.885 205.401 157.522 140.584 174.392L140.584 572.172C140.584 610.352 121.050 633.437 107.731 644.092C118.386 655.635 133.481 679.608 138.808 694.703C149.463 684.048 167.221 672.505 271.105 623.670C254.235 708.909 213.392 793.260 113.059 859.852C124.602 866.956 144.135 888.265 151.239 899.808C311.949 795.036 336.810 628.998 336.810 498.476L336.810 257.855"/></svg>