<svg xmlns="http://www.w3.org/2000/svg" viewBox="0 0 1000 1000" fill="currentColor"><path d="M373.743 282.107L373.743 607.241L578.235 607.241C570.535 651.733 554.278 694.513 520.053 732.160C471.283 704.781 432.781 670.556 405.401 629.487L349.786 649.166C381.444 697.936 422.513 739.005 472.995 771.519C432.781 798.898 376.310 822.856 299.305 839.968C312.139 852.802 330.107 877.615 337.807 893.016C422.513 869.059 484.118 839.112 529.465 803.176C620.160 847.668 732.246 873.337 861.444 885.316C869.144 867.348 885.401 840.824 899.947 825.422C774.171 817.722 662.941 796.332 574.813 759.540C613.316 713.337 632.139 661.144 640.695 607.241L850.321 607.241L850.321 282.107L647.540 282.107L647.540 210.235L880.267 210.235L880.267 152.053L350.642 152.053L350.642 210.235L584.225 210.235L584.225 282.107M433.636 468.631L584.225 468.631L584.225 510.556L583.369 557.615L433.636 557.615M647.540 468.631L787.861 468.631L787.861 557.615L646.684 557.615L647.540 511.412M433.636 332.588L584.225 332.588L584.225 419.861L433.636 419.861M647.540 332.588L787.861 332.588L787.861 419.861L647.540 419.861M289.893 106.706C247.968 235.904 176.952 364.246 99.947 448.096C112.781 462.642 131.604 496.011 137.594 511.412C161.551 484.032 184.652 453.230 206.898 419.005L206.898 888.738L268.503 888.738L268.503 314.620C300.160 253.872 328.396 188.845 350.642 123.818"/></svg>