<svg xmlns="http://www.w3.org/2000/svg" viewBox="0 0 1000 1000" fill="currentColor"><path d="M656.586 244.069C642.793 274.241 620.379 315.621 601.414 347.517L392.793 347.517L422.103 332.862C410.897 307.862 385.034 271.655 360.034 244.069M454.862 119.931C466.931 139.759 479 164.759 488.483 187.172L150.552 187.172L150.552 244.069L341.069 244.069L298.828 263.034C320.379 287.172 343.655 320.793 357.448 347.517L148.828 347.517L148.828 489.759L210.897 489.759L210.897 403.552L806.586 403.552L806.586 489.759L870.379 489.759L870.379 347.517L667.793 347.517C685.897 322.517 705.724 292.345 723.828 264.759L662.621 244.069L870.379 244.069L870.379 187.172L564.345 187.172C554 161.310 535.897 126.828 517.793 100.103M455.724 441.483C467.793 463.034 481.586 491.483 491.069 515.621L124.690 515.621L124.690 573.379L364.345 573.379C345.379 701.828 297.966 797.517 104 845.793C117.793 859.586 135.034 884.586 141.069 900.103C287.621 860.448 360.034 794.069 397.966 706.138L717.793 706.138C708.310 785.448 697.103 820.793 683.310 832.862C675.552 838.897 665.207 839.759 647.966 839.759C629 839.759 575.552 838.897 522.103 834.586C532.448 850.966 540.207 874.241 541.931 891.483C595.379 894.069 647.103 894.931 672.966 893.207C702.276 892.345 720.379 888.034 738.483 871.655C762.621 850.103 775.552 798.379 788.483 678.552C790.207 669.931 791.069 651.828 791.069 651.828L416.931 651.828C423.828 626.828 429 600.966 432.448 573.379L896.241 573.379L896.241 515.621L568.655 515.621C558.310 489.759 541.069 453.552 522.966 426.828"/></svg>