<svg xmlns="http://www.w3.org/2000/svg" viewBox="0 0 1000 1000" fill="currentColor"><path d="M668.784 103.629C648.072 139.875 611.826 189.066 580.758 224.449L377.091 224.449L418.515 202.874C402.118 174.395 365.009 131.245 333.078 100.177L281.298 125.204C308.914 155.409 342.571 195.970 359.831 224.449L114.739 224.449L114.739 279.681L383.995 279.681L383.995 365.118L195.861 365.118L195.861 900.177L258.860 900.177L258.860 850.986L741.276 850.986L741.276 895.862L807.727 895.862L807.727 365.118L617.004 365.118L617.004 279.681L886.260 279.681L886.260 224.449L652.387 224.449C679.140 194.244 708.482 157.998 732.646 123.478M440.953 279.681L555.731 279.681L555.731 365.118L440.953 365.118M258.860 795.754L258.860 718.947L741.276 718.947L741.276 795.754M258.860 667.167L258.860 419.487L383.995 419.487C382.269 482.485 365.009 552.388 280.435 599.853C293.380 608.483 311.503 627.469 320.133 637.825C419.378 583.456 439.227 498.882 440.953 419.487L555.731 419.487L555.731 512.690C555.731 574.826 569.539 598.990 629.086 598.990C642.031 598.990 703.304 598.990 718.838 598.990L741.276 598.990L741.276 667.167M617.004 419.487L741.276 419.487L741.276 548.936L717.112 549.799C704.167 549.799 649.798 549.799 636.853 549.799C620.456 549.799 617.004 541.169 617.004 514.416"/></svg>