<svg xmlns="http://www.w3.org/2000/svg" viewBox="0 0 1000 1000" fill="currentColor"><path d="M706.831 618.925L706.831 674.517L806.722 674.517L806.722 796.992L672.954 796.992L672.954 364.419L896.190 364.419L896.190 305.353L672.954 305.353L672.954 195.038C739.838 185.483 803.248 174.191 851.890 158.556L818.014 106.439C725.072 135.972 555.691 154.213 419.317 162.030C426.266 175.928 434.084 199.381 436.689 214.148C492.281 212.410 553.085 208.067 613.020 201.987L613.020 305.353L389.784 305.353L389.784 364.419L613.020 364.419L613.020 796.992L471.434 796.992L471.434 675.385L575.669 675.385L575.669 619.794L471.434 619.794L471.434 512.953C507.916 503.398 546.136 491.238 578.275 478.208L546.136 424.354C512.260 442.595 458.405 461.705 414.105 474.734L414.105 898.621L471.434 898.621L471.434 856.059L806.722 856.059L806.722 900.358L866.657 900.358L866.657 453.887L705.962 453.887L705.962 510.347L806.722 510.347L806.722 618.925M209.979 100.358L209.979 275.820L117.906 275.820L117.906 336.623L209.979 336.623L209.979 533.800L103.139 562.465L118.774 625.874L209.979 598.078L209.979 823.051C209.979 833.474 207.374 836.080 197.819 836.080C189.132 836.080 163.074 836.949 133.541 836.080C142.227 853.453 150.045 880.380 152.650 896.015C197.819 896.015 227.352 894.278 247.330 883.855C266.440 874.300 273.389 856.059 273.389 823.051L273.389 578.969L368.068 549.435L361.119 490.369L273.389 515.559L273.389 336.623L356.776 336.623L356.776 275.820L273.389 275.820L273.389 100.358"/></svg>