<svg xmlns="http://www.w3.org/2000/svg" viewBox="0 0 1000 1000" fill="currentColor"><path d="M129.405 173.811C177.076 217.148 231.680 277.820 256.816 316.823L309.687 279.554C282.818 239.684 225.613 180.745 179.676 140.009M281.951 417.365L108.603 417.365L108.603 478.037L219.546 478.037L219.546 746.726C182.276 762.327 140.673 796.130 99.936 836.867L140.673 891.471C185.743 837.733 229.947 791.796 260.283 791.796C280.218 791.796 307.953 817.798 344.356 837.733C405.895 872.403 479.568 881.070 582.710 881.070C665.917 881.070 819.329 876.737 881.735 872.403C883.468 854.202 893.002 823.866 899.936 807.398C815.862 816.932 685.852 822.999 584.443 822.999C489.969 822.999 414.562 817.798 359.091 785.729C322.688 766.661 301.886 748.459 281.951 740.659M580.109 107.939L580.109 243.151L471.767 243.151C483.901 211.081 494.302 176.412 502.970 141.742L440.564 129.608C418.896 222.349 379.893 313.356 328.755 373.161C345.223 380.095 373.826 394.830 387.693 403.497C408.495 375.762 428.430 341.092 446.632 302.956L580.109 302.956L580.109 350.626C580.109 379.229 579.243 408.698 575.776 439.900L331.355 439.900L331.355 498.839L563.641 498.839C541.106 584.646 483.901 669.586 349.557 730.258C364.291 741.525 383.360 764.927 392.027 779.662C511.637 722.457 574.909 647.051 608.712 567.311C688.452 633.183 771.659 713.790 809.795 771.861L860.066 730.258C813.262 665.252 714.454 575.112 627.780 509.239L630.380 498.839L880.868 498.839L880.868 439.900L639.914 439.900C643.381 409.564 644.248 379.229 644.248 350.626L644.248 302.956L847.065 302.956L847.065 243.151L644.248 243.151L644.248 107.939"/></svg>