<svg xmlns="http://www.w3.org/2000/svg" viewBox="0 0 1000 1000" fill="currentColor"><path d="M433.346 418.405C422.054 474.865 401.207 549.567 375.149 595.604L431.609 619.056C455.931 572.151 475.040 494.844 487.201 438.383M772.977 410.587C752.999 460.967 715.648 531.326 687.852 574.757L737.364 600.815C766.897 557.384 801.642 494.844 829.438 437.515M327.375 99.621C324.769 136.972 321.294 173.454 317.820 209.067L131.935 209.067L131.935 271.608L310.002 271.608C281.338 482.683 226.615 651.195 108.482 760.642C124.117 772.802 151.913 799.730 162.337 812.759C286.549 685.940 346.484 504.398 377.755 271.608L870.263 271.608L870.263 209.067L385.572 209.067L395.996 104.833M575.800 313.302C566.245 551.304 550.610 753.693 299.579 848.372C313.477 859.664 331.718 883.986 339.535 899.621C488.938 841.423 561.902 745.875 600.122 627.743C657.451 745.875 742.575 841.423 848.547 895.278C858.102 878.774 876.343 855.321 891.110 843.161C768.634 788.438 673.086 672.042 622.706 535.669C634.866 466.179 639.210 391.478 642.684 313.302"/></svg>