<svg xmlns="http://www.w3.org/2000/svg" viewBox="0 0 1000 1000" fill="currentColor"><path d="M461.555 574.368L461.555 632.800C461.555 695.528 441.792 786.613 136.743 847.623C152.211 860.512 171.115 884.573 179.708 898.321C497.646 826.141 528.580 717.011 528.580 634.519L528.580 574.368M516.550 772.005C617.946 803.799 751.136 857.934 818.161 895.743L852.533 844.186C782.071 806.377 648.021 756.538 549.203 726.463M226.110 488.439L226.110 743.649L286.260 743.649L286.260 546.012L704.735 546.012L704.735 740.212L769.182 740.212L769.182 488.439L645.444 488.439C684.971 448.053 726.217 405.947 761.448 364.701L716.765 338.063L707.313 341.501L534.595 341.501L570.685 312.285C551.781 287.365 512.253 250.416 476.163 224.637L433.199 255.571C464.992 280.491 499.364 315.722 520.846 341.501L226.110 341.501L226.110 394.777L653.177 394.777C629.117 418.837 602.479 445.475 575.841 469.535L608.494 488.439M504.520 100.899C422.887 180.813 263.918 251.275 99.794 295.958C113.542 308.847 132.447 334.626 141.040 349.234C278.526 308.847 405.701 251.275 500.223 179.095C580.997 237.526 726.217 307.129 857.689 340.641CNaN 325.174 886.045 299.395 899.794 286.506C766.604 258.149 621.383 197.999 542.329 143.864L559.515 127.537"/></svg>