<svg xmlns="http://www.w3.org/2000/svg" viewBox="0 0 1000 1000" fill="currentColor"><path d="M688.425 354.361C741.928 402.769 813.265 470.709 848.085 510.624L889.699 468.161C853.180 429.945 780.994 365.401 727.490 319.541M578.021 320.391C537.257 376.442 474.412 433.342 414.115 471.558C426.004 482.599 446.386 508.076 453.180 519.966C516.025 475.805 586.514 407.015 633.223 340.773M157.639 142.047L157.639 446.930C157.639 572.620 153.393 742.471 99.890 863.066C115.176 868.161 139.805 882.599 151.694 891.941C188.212 811.261 203.499 704.255 210.293 603.193L328.340 603.193L328.340 814.658C328.340 825.699 324.093 829.096 313.902 829.945C303.711 829.945 271.439 830.794 234.072 829.096C240.866 844.382 248.510 869.011 251.057 884.297C303.711 884.297 334.285 882.599 354.667 873.257C373.350 863.066 380.144 846.081 380.144 815.507L380.144 142.047M215.389 199.796L328.340 199.796L328.340 344.170L215.389 344.170M215.389 398.522L328.340 398.522L328.340 547.992L213.690 547.992C215.389 512.323 215.389 478.352 215.389 446.930M417.512 807.015L417.512 863.915L899.890 863.915L899.890 807.015L683.329 807.015L683.329 593.851L854.879 593.851L854.879 536.951L460.824 536.951L460.824 593.851L618.786 593.851L618.786 807.015M596.705 123.363C608.594 150.539 623.032 182.811 633.223 210.837L414.115 210.837L414.115 359.456L473.563 359.456L473.563 266.887L837.894 266.887L837.894 350.964L899.040 350.964L899.040 210.837L700.314 210.837C690.123 181.113 673.138 140.348 656.153 108.926"/></svg>