<svg xmlns="http://www.w3.org/2000/svg" viewBox="0 0 1000 1000" fill="currentColor"><path d="M118.715 99.982L118.715 899.982L183.408 899.982L183.408 863.535L815.754 863.535L815.754 899.982L882.269 899.982L882.269 99.982M183.408 806.132L183.408 159.207L815.754 159.207L815.754 806.132M467.690 189.276L467.690 270.369L237.166 270.369L237.166 320.483L467.690 320.483L467.690 378.797L277.257 378.797L277.257 762.396L333.749 762.396L333.749 634.834L472.246 634.834L472.246 758.752L526.005 758.752L526.005 634.834L668.146 634.834L668.146 706.815C668.146 715.927 664.501 718.661 655.390 718.661C646.278 719.572 616.210 719.572 584.319 718.661C590.697 730.506 597.986 747.818 600.720 761.485C649.011 761.485 680.902 761.485 700.036 754.196C720.082 746.907 725.549 734.150 725.549 706.815L725.549 378.797L530.560 378.797L530.560 320.483L769.285 320.483L769.285 270.369L695.481 270.369L717.349 246.679C692.747 230.278 647.189 205.677 611.654 188.364L583.408 215.699C614.387 231.189 652.656 253.968 678.169 270.369L530.560 270.369L530.560 189.276M333.749 531.872L472.246 531.872L472.246 589.276L333.749 589.276M333.749 485.403L333.749 426.178L472.246 426.178L472.246 485.403M668.146 531.872L668.146 589.276L526.005 589.276L526.005 531.872M668.146 485.403L526.005 485.403L526.005 426.178L668.146 426.178"/></svg>