<svg xmlns="http://www.w3.org/2000/svg" viewBox="0 0 1000 1000" fill="currentColor"><path d="M454.342 149.519L454.342 811.978L356.844 811.978L356.844 872.914L894.820 872.914L894.820 811.978L819.086 811.978L819.086 149.519M517.889 811.978L517.889 643.970L752.927 643.970L752.927 811.978M517.889 422.860L752.927 422.860L752.927 583.904L517.889 583.904M517.889 363.665L517.889 210.455L752.927 210.455L752.927 363.665M328.118 341.032C318.542 460.292 298.520 559.530 268.923 638.746C242.807 616.113 215.822 594.350 189.706 574.329C206.246 507.299 223.656 424.601 239.325 341.032M122.677 596.962C161.850 625.689 204.505 661.380 242.807 697.071C207.116 766.712 160.979 817.201 104.396 848.540C118.324 860.727 135.734 884.231 144.440 899.900C203.634 862.468 251.513 811.978 288.945 743.208C311.578 767.582 330.729 790.215 344.657 811.108L390.794 764.971C373.384 740.596 347.269 711.869 317.671 683.143C357.715 583.034 382.089 453.328 390.794 283.578L353.362 278.355L342.046 280.096L250.642 280.096C260.218 218.289 268.923 158.224 275.016 103.382L214.081 99.900C208.857 154.742 201.023 217.419 190.577 280.096L105.267 280.096L105.267 341.032L180.131 341.032C163.591 437.658 142.699 530.803 122.677 596.962"/></svg>