<svg xmlns="http://www.w3.org/2000/svg" viewBox="0 0 1000 1000" fill="currentColor"><path d="M674.136 160.136L674.136 216.915L887.695 216.915L887.695 160.136M263.119 110.136C232.610 167.763 169.898 238.102 112.271 280.475C122.441 292.339 139.390 315.220 147.017 327.932C211.424 278.780 280.068 200.814 321.593 131.322M461.424 110.136L461.424 216.915L348.712 216.915L348.712 272L461.424 272L461.424 385.559L331.763 385.559L331.763 442.339L651.254 442.339L651.254 385.559L521.593 385.559L521.593 272L636 272L636 216.915L521.593 216.915L521.593 110.136M666.508 387.254L666.508 444.881L757.186 444.881L757.186 811.831C757.186 822.847 753.797 826.237 741.085 827.085C728.373 827.932 688.542 827.085 641.085 826.237C649.559 844.881 658.034 872 660.576 889.797C721.593 889.797 763.119 888.949 787.695 877.932C813.119 867.763 819.898 849.119 819.898 811.831L819.898 444.881L899.559 444.881L899.559 387.254M313.119 769.458L320.746 828.780C413.966 816.915 543.627 800.814 668.203 783.864L666.508 727.932L521.593 745.729L521.593 620.305L645.322 620.305L645.322 564.373L521.593 564.373L521.593 460.136L460.576 460.136L460.576 564.373L336.847 564.373L336.847 620.305L460.576 620.305L460.576 752.508M288.542 280.475C245.322 374.542 173.288 464.373 99.559 524.542C112.271 537.254 130.068 566.915 137.695 579.627C163.119 557.593 188.542 531.322 213.119 502.508L213.119 890.644L271.593 890.644L271.593 426.237C299.559 385.559 324.983 342.339 345.322 299.966"/></svg>