<svg xmlns="http://www.w3.org/2000/svg" viewBox="0 0 1000 1000" fill="currentColor"><path d="M644.789 193.580L644.789 678.364L708.669 678.364L708.669 193.580M818.052 110.449L818.052 813.123C818.052 828.875 811.926 833.250 796.175 834.125C780.424 834.125 727.045 835 669.291 833.250C678.917 851.626 689.417 881.378 693.793 899.755C769.923 900.630 816.301 898.879 845.178 887.504C871.430 876.128 883.681 856.877 883.681 813.123L883.681 110.449M506.530 99.948C420.774 136.701 260.637 165.578 123.253 183.079C132.003 197.955 139.879 220.707 143.379 235.583C200.258 229.458 261.513 221.582 321.017 211.081L321.017 345.841L117.127 345.841L117.127 407.970L321.017 407.970L321.017 554.980L156.505 554.980L156.505 893.629L219.510 893.629L219.510 854.251L488.153 854.251L488.153 890.129L552.908 890.129L552.908 554.980L384.896 554.980L384.896 407.970L589.661 407.970L589.661 345.841L384.896 345.841L384.896 197.955C449.651 184.829 509.155 168.203 556.408 148.952M219.510 793.872L219.510 615.360L488.153 615.360L488.153 793.872"/></svg>