<svg xmlns="http://www.w3.org/2000/svg" viewBox="0 0 1000 1000" fill="currentColor"><path d="M122.072 159.477C170.609 202.814 227.814 265.219 254.683 305.089L304.953 265.219C277.218 225.349 217.413 166.411 168.875 123.940M474.834 110.073C439.298 210.614 376.893 308.556 306.687 371.828C322.288 380.495 350.024 401.297 361.291 411.698C396.828 376.161 432.364 330.224 463.567 279.087L872.667 279.087L872.667 219.282L497.369 219.282C512.104 188.946 525.972 157.743 538.106 126.541M416.763 371.828L416.763 429.899L634.314 429.899C402.028 584.179 393.361 626.649 393.361 663.919C393.361 715.056 431.497 744.525 518.171 744.525L772.992 744.525C846.665 744.525 871.801 723.724 880.468 584.179C861.400 580.712 839.731 572.044 822.397 562.510C819.796 669.986 808.529 682.987 775.593 682.987L515.571 682.120C480.901 682.120 460.100 675.186 460.100 656.118C460.100 630.983 480.901 593.713 781.660 406.497C786.860 403.030 790.327 398.697 792.927 394.363L747.857 370.094L733.122 371.828M291.086 429.899L106.470 429.899L106.470 491.438L227.814 491.438L227.814 731.524C189.677 746.259 144.607 785.262 99.536 834.666L141.140 890.138C185.343 831.199 227.814 780.928 257.283 780.928C276.351 780.928 304.087 809.531 339.623 832.066C400.295 870.203 472.234 879.737 580.576 879.737C662.917 879.737 818.930 875.403 881.335 871.069C882.202 853.735 891.736 823.399 899.536 806.931C815.463 815.598 685.452 822.532 581.443 822.532C484.368 822.532 410.696 816.465 354.358 781.795C325.755 763.594 307.554 747.126 291.086 736.725"/></svg>