<svg xmlns="http://www.w3.org/2000/svg" viewBox="0 0 1000 1000" fill="currentColor"><path d="M621.258 342.419L621.258 529.086L381.258 529.086L381.258 507.581L381.258 342.419M674.591 99.839C656.527 154.032 623.839 227.151 594.591 279.624L145.559 279.624L145.559 342.419L314.161 342.419L314.161 506.720L314.161 529.086L113.731 529.086L113.731 591.022L309 591.022C296.957 685.645 253.086 778.548 115.452 848.226C130.075 859.409 152.441 884.355 161.903 899.839C319.323 818.978 365.774 706.290 377.817 591.022L621.258 591.022L621.258 893.817L688.355 893.817L688.355 591.022L885.344 591.022L885.344 529.086L688.355 529.086L688.355 342.419L858.677 342.419L858.677 279.624L665.129 279.624C692.656 232.312 721.903 173.817 747.710 121.344M256.527 125.645C292.656 172.957 331.366 237.473 345.129 279.624L408.785 251.237C392.441 209.086 352.871 147.151 315.882 101.559"/></svg>