<svg xmlns="http://www.w3.org/2000/svg" viewBox="0 0 1000 1000" fill="currentColor"><path d="M206.142 100.479L206.142 352.144C206.142 503.693 198.794 714.945 103.272 865.576C120.723 872.006 150.115 889.457 163.892 900.479C260.333 747.092 275.029 520.226 275.947 361.328L839.897 361.328L839.897 100.479M275.947 163.854L771.010 163.854L771.010 297.034L275.947 297.034M790.299 457.769C703.042 500.020 567.107 556.966 440.356 601.971L440.356 404.497L372.388 404.497L372.388 750.766C372.388 839.859 404.535 861.902 518.427 861.902C544.145 861.902 731.515 861.902 758.152 861.902C861.022 861.902 884.902 826.082 896.843 691.983C875.718 688.309 847.245 677.287 830.712 665.347C824.282 776.483 815.098 796.690 755.396 796.690C713.146 796.690 553.330 796.690 520.264 796.690C453.215 796.690 440.356 788.424 440.356 749.847L440.356 664.428C576.292 619.423 724.168 562.476 836.223 517.471"/></svg>