<svg xmlns="http://www.w3.org/2000/svg" viewBox="0 0 1000 1000" fill="currentColor"><path d="M604.828 113.770L604.828 248.933L404.617 248.933L404.617 309.757L604.828 309.757L604.828 455.058L416.444 455.058L416.444 515.882L570.192 515.882C518.661 619.789 430.805 719.472 344.638 771.848C358.999 782.830 379.273 806.484 390.256 821.690C469.664 767.624 549.073 674.699 604.828 571.637L604.828 889.271L668.186 889.271L668.186 566.568C716.338 665.407 786.454 760.021 853.191 814.931C864.173 798.881 885.293 777.761 899.654 766.779C826.158 713.559 749.284 614.720 702.822 515.882L863.328 515.882L863.328 455.058L668.186 455.058L668.186 309.757L881.913 309.757L881.913 248.933L668.186 248.933L668.186 113.770M230.593 110.391L230.593 281.035L113.170 281.035L113.170 341.014L230.593 341.014L230.593 522.640C181.597 537.001 135.979 548.828 99.654 558.120L118.239 619.789L230.593 585.998L230.593 813.242C230.593 825.069 225.525 828.448 214.543 828.448C204.405 829.293 170.615 829.293 133.445 828.448C141.892 845.343 150.340 871.531 152.874 886.737C207.785 887.582 240.731 885.048 262.695 874.910C284.659 865.618 292.262 847.878 292.262 813.242L292.262 567.413L399.548 534.467L391.945 475.333L292.262 504.900L292.262 341.014L388.566 341.014L388.566 281.035L292.262 281.035L292.262 110.391"/></svg>