<svg xmlns="http://www.w3.org/2000/svg" viewBox="0 0 1000 1000" fill="currentColor"><path d="M660.281 371.394C724.351 419.013 802.273 488.277 840.368 530.701L888.853 494.338C848.160 451.913 768.506 386.113 706.169 339.359M499.242 349.749C453.355 399.965 384.957 456.242 325.216 493.472C339.069 503.861 361.580 528.104 371.104 539.359C429.113 496.069 503.571 431.134 555.519 373.991M505.303 600.831L733.874 600.831C704.437 651.913 662.879 694.338 612.662 729.835C562.446 693.472 523.485 651.913 496.645 609.489M538.203 460.571C489.719 543.688 408.333 623.342 328.680 674.424C342.532 684.814 365.043 707.325 375.433 719.446C402.273 699.532 429.978 676.156 457.684 650.182C483.658 689.143 518.290 727.238 560.714 761.870C485.390 802.563 397.078 829.403 306.169 844.987C317.424 858.840 333.009 884.814 339.069 900.398C438.636 880.485 533.874 849.316 615.260 800.831C681.926 843.255 764.177 877.022 860.281 897.801C868.074 881.351 884.524 856.242 897.511 843.255C808.333 826.805 732.143 799.100 668.939 764.468C735.606 714.251 788.420 649.316 822.186 565.333L779.762 544.554L767.641 547.152L550.325 547.152C566.775 525.506 581.494 503.861 595.346 481.351M378.896 348.017C404.004 337.628 441.234 334.165 784.091 307.325C797.944 325.506 810.065 341.957 818.723 355.810L869.805 323.775C836.905 276.156 768.506 198.234 713.961 142.823L665.476 169.662C689.719 195.636 716.558 225.074 741.667 254.511L471.537 272.693C519.156 230.268 567.641 177.455 610.931 122.909L547.727 100.398C500.974 169.662 432.576 238.061 410.931 255.377C391.883 274.424 374.567 285.680 358.983 288.277C366.775 303.861 375.433 335.030 378.896 348.017M311.364 105.593C263.745 237.195 185.823 366.199 102.706 451.048C113.961 465.766 133.009 499.532 139.935 515.117C167.641 484.814 195.346 451.048 221.320 412.952L221.320 899.532L283.658 899.532L283.658 313.385C317.424 252.779 347.727 187.844 371.970 123.775"/></svg>