<svg xmlns="http://www.w3.org/2000/svg" viewBox="0 0 1000 1000" fill="currentColor"><path d="M112.165 328.949L112.165 396.716L894.563 396.716L894.563 328.949M333.067 498.806C274.981 627.299 185.212 765.473 100.724 854.362C119.206 864.923 151.769 887.805 166.730 900.127C248.579 805.077 340.988 658.982 406.114 521.689M593.573 520.809C676.301 640.501 782.792 801.557 830.317 894.846L898.964 857.002C846.158 763.713 737.908 607.057 656.059 491.766M420.196 122.129C450.119 181.975 485.322 262.063 502.044 309.587L573.331 281.425C554.849 235.660 517.886 157.332 487.963 100.127"/></svg>