<svg xmlns="http://www.w3.org/2000/svg" viewBox="0 0 1000 1000" fill="currentColor"><path d="M178.004 130.721C205.472 166.773 239.807 215.700 256.116 247.459L307.618 217.416C290.451 188.232 256.116 141.021 226.931 105.828M535.944 106.687C503.326 208.833 448.391 309.262 383.155 374.498C396.030 384.798 418.348 408.833 427.790 420.850C442.382 404.541 457.833 386.515 471.567 366.773L471.567 783.082C471.567 862.052 497.318 882.652 590.880 882.652C611.481 882.652 770.279 882.652 791.738 882.652C871.567 882.652 891.309 850.893 899.893 747.030C883.584 743.597 859.549 733.296 844.957 723.854C839.807 810.549 832.082 827.717 788.305 827.717C754.828 827.717 618.348 827.717 593.455 827.717C538.519 827.717 529.077 819.991 529.077 783.082L529.077 616.558L711.052 616.558L711.052 354.755L480.150 354.755C499.893 325.571 518.777 293.811 535.944 260.335L790.021 260.335C789.163 511.837 786.588 599.391 773.712 618.275C768.562 627.717 760.837 629.433 748.820 629.433C735.086 629.433 701.609 629.433 665.558 626CNaN 642.309 682.725 667.202 682.725 683.511C719.635 685.227 754.828 686.086 776.288 683.511C800.322 680.077 814.914 674.069 828.648 655.185C847.532 626 849.249 529.863 850.107 233.725C850.107 224.283 850.107 202.824 850.107 202.824L563.412 202.824C574.571 176.215 584.871 149.605 594.313 122.137M529.077 407.974L656.116 407.974L656.116 562.481L529.077 562.481M123.927 256.901L123.927 316.129L306.760 316.129C259.549 421.708 177.146 530.721 99.893 593.382C110.193 603.682 127.361 634.584 133.369 650.893C164.270 623.425 196.030 589.090 226.931 550.464L226.931 893.811L287.876 893.811L287.876 545.313C317.918 583.940 352.253 631.150 367.704 656.043L405.472 608.833L341.953 535.013C360.837 513.554 383.155 485.227 406.330 459.476L364.270 425.142C352.253 446.601 330.794 479.219 312.768 502.395L287.876 474.927L287.876 465.485C325.644 407.116 359.120 342.738 382.296 278.361L348.820 254.326L337.661 256.901"/></svg>