<svg xmlns="http://www.w3.org/2000/svg" viewBox="0 0 1000 1000" fill="currentColor"><path d="M119.349 125.290L119.349 187.522L876.057 187.522L876.057 125.290M268.166 615.932C296.125 673.655 325.888 752.122 336.711 798.120L402.551 778.277C391.728 731.378 361.063 655.617 330.398 598.796M271.773 348.063L711.007 348.063L711.007 515.820L271.773 515.820M202.326 284.027L202.326 578.954L784.062 578.954L784.062 284.027M658.696 599.698C637.050 663.734 596.463 751.220 560.387 813.452L99.507 813.452L99.507 875.684L899.507 875.684L899.507 813.452L629.834 813.452C664.107 756.631 702.890 681.772 733.555 618.638"/></svg>