<svg xmlns="http://www.w3.org/2000/svg" viewBox="0 0 1000 1000" fill="currentColor"><path d="M303.568 279.290C386.628 310.765 484.552 357.104 555.372 400.820L119.087 400.820L119.087 463.770L450.454 463.770C365.645 571.311 228.377 672.732 99.852 720.820C113.842 733.934 133.951 758.415 145.317 775.027C268.596 719.945 402.366 618.525 493.295 504.863L493.295 800.383C493.295 814.372 488.049 818.743 471.437 819.617C453.951 820.492 392.749 821.366 328.923 818.743C339.415 836.230 350.781 862.459 354.279 880.820C434.716 880.820 487.175 880.820 518.650 870.328C550.126 860.710 560.617 842.350 560.617 802.131L560.617 463.770L792.311 463.770C752.093 524.098 702.257 585.301 658.541 626.393L711.874 658.743C775.699 600.164 843.896 507.486 899.852 419.180L848.268 396.448L836.027 400.820L648.923 400.820L661.164 387.705C639.306 371.967 610.454 354.481 578.978 336.995C657.667 287.158 747.721 218.962 811.546 157.760L763.459 118.415L747.721 122.787L202.148 122.787L202.148 183.989L683.022 183.989C634.934 226.831 572.858 273.169 517.776 305.519C461.820 277.541 401.492 251.311 348.158 232.951"/></svg>