<svg xmlns="http://www.w3.org/2000/svg" viewBox="0 0 1000 1000" fill="currentColor"><path d="M122.431 846.086L167.796 900.176C232.354 833.872 309.126 749.249 369.323 675.094L333.554 625.366C265.506 705.628 179.137 794.614 122.431 846.086M158.200 372.368C209.672 401.157 282.082 444.778 317.851 470.950L355.364 421.222C317.851 396.795 246.313 356.664 194.841 329.619M105.855 538.125C159.944 563.425 233.227 600.939 269.868 624.494L306.509 573.894C268.123 551.212 193.968 516.315 141.624 493.632M414.688 361.026L414.688 776.293C414.688 866.152 446.095 887.962 549.912 887.962C572.594 887.962 743.587 887.962 768.014 887.962C862.234 887.962 884.045 852.193 894.514 732.673C875.321 728.311 847.403 716.969 831.700 706.501C825.593 805.955 816.869 825.148 764.525 825.148C727.883 825.148 581.318 825.148 552.529 825.148C493.205 825.148 481.864 817.297 481.864 776.293L481.864 422.967L751.438 422.967L751.438 581.746C751.438 593.087 747.949 596.577 731.373 597.449C715.670 598.322 662.453 598.322 600.511 596.577C610.980 614.025 622.322 640.197 625.811 658.518C699.966 658.518 748.821 657.646 778.483 648.049C809.017 637.580 816.869 618.387 816.869 581.746L816.869 361.026M613.598 100.176L613.598 176.075L370.195 176.075L370.195 100.176L303.892 100.176L303.892 176.075L107.600 176.075L107.600 237.144L303.892 237.144L303.892 321.768L370.195 321.768L370.195 237.144L613.598 237.144L613.598 321.768L680.773 321.768L680.773 237.144L880.555 237.144L880.555 176.075L680.773 176.075L680.773 100.176"/></svg>