<svg xmlns="http://www.w3.org/2000/svg" viewBox="0 0 1000 1000" fill="currentColor"><path d="M243.693 366.527L408.882 366.527L408.882 438.196L243.693 438.196M243.693 316.708L243.693 245.038L408.882 245.038L408.882 316.708M243.693 488.015L408.882 488.015L408.882 563.181L243.693 563.181M133.567 563.181L133.567 612.126L356.441 612.126C295.260 688.165 202.614 757.212 114.339 802.661C126.575 814.024 148.425 837.622 156.291 849.858C244.567 797.417 340.709 720.504 408.882 635.724L408.882 821.890C408.882 833.252 404.512 836.748 394.024 837.622C383.536 837.622 346.827 837.622 308.370 836.748C317.111 852.480 325.851 878.701 328.473 895.307C383.536 895.307 417.623 894.433 439.473 883.945C461.324 873.457 469.190 855.976 469.190 821.890L469.190 192.597L342.457 192.597C354.693 168.125 367.804 138.408 380.040 109.566L310.993 99.951C305.748 126.172 294.386 163.755 283.898 192.597L184.260 192.597L184.260 563.181M552.221 342.054C546.103 425.086 533.867 531.716 521.631 599.889L817.049 599.889C804.812 750.220 791.702 813.150 771.600 831.504C762.859 839.370 753.245 841.118 735.765 841.118C716.537 841.118 664.970 840.244 613.403 835C624.765 852.480 632.631 878.701 633.505 897.055C685.072 900.551 735.765 900.551 761.111 898.803C790.828 897.929 809.182 890.937 826.663 872.583C854.631 844.614 869.490 766.827 884.348 569.299C885.222 560.559 886.096 540.456 886.096 540.456L593.300 540.456L608.158 403.235L869.490 403.235L869.490 149.770L521.631 149.770L521.631 210.078L806.560 210.078L806.560 342.054"/></svg>