<svg xmlns="http://www.w3.org/2000/svg" viewBox="0 0 1000 1000" fill="currentColor"><path d="M147.694 276.421L147.694 415.249L206.696 415.249L206.696 325.879L794.115 325.879L794.115 415.249L854.852 415.249L854.852 276.421M268.302 371.866L268.302 416.985L738.584 416.985L738.584 371.866M729.039 536.725C683.052 568.829 606.696 609.610 546.826 636.508C525.134 601.800 494.766 567.093 453.985 536.725L490.427 514.165L821.013 514.165L821.013 464.707L186.740 464.707L186.740 514.165L400.189 514.165C319.495 555.813 214.505 590.521 121.664 611.345C132.944 622.625 149.430 646.052 156.371 657.332C235.330 634.772 325.568 602.668 403.659 563.623C418.410 574.902 431.425 586.182 443.573 597.462C365.482 647.787 234.462 700.716 137.282 725.879C149.430 738.026 164.180 757.115 171.989 770.998C265.698 740.629 391.512 685.098 474.809 632.169C484.354 646.052 493.030 659.067 499.972 672.082C414.072 740.629 254.419 813.514 127.738 843.883C140.753 856.898 153.768 877.722 161.577 891.605C279.581 856.898 425.351 786.616 519.061 718.069C533.811 769.262 524.267 812.646 499.972 830C486.089 842.148 471.338 843.883 453.117 843.883C437.499 843.883 413.204 843.015 386.306 840.412C397.586 856.030 403.659 882.061 405.395 899.414C425.351 899.414 449.646 900.282 465.265 900.282C498.236 900.282 519.928 893.341 545.091 874.252C589.343 840.412 602.358 764.924 571.989 685.098L595.416 674.685C649.213 763.189 734.245 843.883 820.145 887.267C830.557 869.913 851.382 844.751 867 832.603C781.967 797.896 696.935 727.614 646.610 651.258C689.126 630.434 733.377 607.007 768.952 584.447M620.579 100.282L620.579 154.078L378.497 154.078L378.497 102.017L315.156 102.017L315.156 154.078L113.855 154.078L113.855 207.874L315.156 207.874L315.156 256.464L378.497 256.464L378.497 207.874L620.579 207.874L620.579 256.464L684.787 256.464L684.787 207.874L886.089 207.874L886.089 154.078L684.787 154.078L684.787 100.282"/></svg>