<svg xmlns="http://www.w3.org/2000/svg" viewBox="0 0 1000 1000" fill="currentColor"><path d="M275.486 587.568L219.270 609.189C251.270 674.054 291.919 724.216 341.216 763.135C288.459 796 211.486 823.676 99.919 842.703C112.892 858.270 129.324 885.081 137.108 899.784C255.595 875.568 338.622 840.973 395.703 799.459C511.595 865.189 668.135 888.541 871.378 899.784C874.838 878.162 887.811 849.622 899.919 834.054C702.730 827.135 554.838 810.703 445.865 755.351C495.162 702.595 515.054 640.324 521.973 573.730L821.216 573.730L821.216 328.973L526.297 328.973L526.297 245.081L869.649 245.081L869.649 184.541L526.297 184.541L526.297 100.649L460.568 100.649L460.568 184.541L122.405 184.541L122.405 245.081L460.568 245.081L460.568 328.973L177.757 328.973L177.757 573.730L457.108 573.730C451.054 629.081 434.622 679.243 391.378 723.351C344.676 688.757 306.622 645.514 275.486 587.568M239.162 386.919L460.568 386.919L460.568 492.432L460.568 515.784L239.162 515.784M526.297 515.784L526.297 493.297L526.297 386.919L756.351 386.919L756.351 515.784"/></svg>