<svg xmlns="http://www.w3.org/2000/svg" viewBox="0 0 1000 1000" fill="currentColor"><path d="M737.795 326.611L737.795 526.826L623.509 526.826L624.368 472.691L624.368 326.611M560.781 104.055L560.781 266.461L469.696 266.461L469.696 326.611L560.781 326.611L560.781 471.831L559.922 526.826L454.229 526.826L454.229 586.976L554.766 586.976C542.736 688.373 506.646 787.191 407.827 858.512C424.154 867.105 449.073 886.010 460.244 897.180C567.655 817.266 606.323 704.699 619.213 586.976L737.795 586.976L737.795 892.884L800.523 892.884L800.523 586.976L900.201 586.976L900.201 526.826L800.523 526.826L800.523 326.611L890.749 326.611L890.749 266.461L800.523 266.461L800.523 103.195L737.795 103.195L737.795 266.461L624.368 266.461L624.368 104.055M251.436 103.195L251.436 195.999L128.557 195.999L128.557 252.712L251.436 252.712L251.436 336.923L142.306 336.923L142.306 394.495L251.436 394.495L251.436 483.002L119.965 483.002L119.965 539.715L234.250 539.715C202.456 621.348 148.321 711.574 100.201 762.272C110.512 777.739 125.120 802.658 131.135 818.985C174.100 773.443 217.064 697.825 251.436 620.489L251.436 892.884L311.586 892.884L311.586 605.881C342.521 646.267 378.611 696.966 395.797 722.744L432.747 673.765C416.420 652.282 349.395 571.509 319.320 539.715L430.169 539.715L430.169 483.002L311.586 483.002L311.586 394.495L408.686 394.495L408.686 336.923L311.586 336.923L311.586 252.712L427.591 252.712L427.591 195.999L311.586 195.999L311.586 103.195"/></svg>