<svg xmlns="http://www.w3.org/2000/svg" viewBox="0 0 1000 1000" fill="currentColor"><path d="M816.913 225.652C756.043 318.696 672.565 404.783 581.261 476.957L581.261 115.217L511.696 115.217L511.696 529.130C456.043 568.261 398.652 602.174 343 630C359.522 642.174 380.391 664.783 390.826 679.565C430.826 658.696 471.696 635.217 511.696 609.130L511.696 759.565C511.696 856.957 537.783 883.913 624.739 883.913C643.870 883.913 759.522 883.913 779.522 883.913C871.696 883.913 889.957 826.522 899.522 663.913C879.522 658.696 851.696 644.783 834.304 631.739C828.217 780.435 822.130 818.696 776.043 818.696C750.826 818.696 652.565 818.696 631.696 818.696C589.957 818.696 581.261 809.130 581.261 761.304L581.261 561.304C693.435 479.565 799.522 379.565 879.522 267.391M335.174 99.565C282.130 232.609 193.435 362.174 99.522 445.652C113.435 460.435 135.174 494.348 143 509.130C176.913 476.087 210.826 436.957 NaN 393.478LNaN 899.565L311.696 899.565L311.696 291.739C344.739 236.957 375.174 177.826 399.522 119.565"/></svg>