<svg xmlns="http://www.w3.org/2000/svg" viewBox="0 0 1000 1000" fill="currentColor"><path d="M680.802 399.275L680.802 501.312L253.792 501.312L253.792 399.275M680.802 345.256L253.792 345.256L253.792 246.650L680.802 246.650M181.766 900.026C201.488 888.021 234.071 879.447 469.012 817.711C465.582 803.991 463.010 776.553 463.010 758.547L253.792 809.994L253.792 559.618L386.697 559.618C468.154 726.821 613.921 840.862 811.991 888.879C821.423 870.872 839.430 846.006 854.006 831.430C763.117 812.566 683.374 779.125 616.493 734.538C679.087 699.383 751.970 653.080 806.847 610.208L753.685 569.050C706.525 609.350 631.070 660.797 567.618 696.810C521.316 657.368 482.731 611.923 454.435 559.618L745.968 559.618L745.968 190.058L514.457 190.058C506.740 162.620 493.878 127.464 480.159 100.026L416.707 114.602C426.139 136.896 435.571 165.192 442.431 190.058L187.768 190.058L187.768 773.981C187.768 814.281 162.902 838.289 146.611 848.579C157.758 860.583 176.622 886.307 181.766 900.026"/></svg>