<svg xmlns="http://www.w3.org/2000/svg" viewBox="0 0 1000 1000" fill="currentColor"><path d="M738.801 502.628C724.161 584.436 696.605 648.160 655.270 698.968C608.769 673.995 562.267 649.022 518.349 627.493C537.294 590.464 557.961 547.407 576.906 502.628M433.096 648.160C489.070 675.717 550.211 709.301 610.491 743.747C553.656 790.249 478.736 821.250 382.288 842.778C393.483 856.557 408.984 884.113 414.151 898.752C520.932 871.196 603.602 832.445 666.465 776.470C739.662 820.389 805.970 864.307 849.027 899.614L895.529 849.667C849.888 815.222 783.580 773.026 710.383 730.830C757.746 672.272 789.608 597.353 808.553 502.628L899.834 502.628L899.834 444.070L601.018 444.070C617.380 401.013 632.881 357.956 644.936 317.482L579.490 308.010C567.434 350.206 550.211 397.568 531.266 444.070L379.705 444.070L379.705 502.628L506.293 502.628C482.181 557.741 456.347 608.548 433.096 648.160M403.817 215.868L403.817 383.790L464.958 383.790L464.958 273.564L825.776 273.564L825.776 382.929L887.778 382.929L887.778 215.868L686.271 215.868C677.660 181.422 663.020 137.504 649.242 101.336L584.657 113.392C595.851 144.393 607.907 183.144 616.519 215.868M226.422 105.642L226.422 278.731L110.168 278.731L110.168 339.872L226.422 339.872L226.422 554.296L99.834 590.464L115.335 653.327L226.422 618.882L226.422 822.972C226.422 835.889 221.255 839.334 210.060 839.334C198.865 840.195 163.559 840.195 123.946 839.334C132.558 856.557 142.030 882.391 143.752 897.891C200.588 897.891 235.895 896.169 258.284 886.696C280.674 876.363 288.424 859.140 288.424 822.972L288.424 599.075L398.650 562.907L390.039 505.211L288.424 536.212L288.424 339.872L381.427 339.872L381.427 278.731L288.424 278.731L288.424 105.642"/></svg>