<svg xmlns="http://www.w3.org/2000/svg" viewBox="0 0 1000 1000" fill="currentColor"><path d="M421.484 313.676C465.403 337.788 516.210 375.678 541.183 404.096L581.657 362.761C555.822 335.205 504.154 299.898 459.375 276.647M302.647 627.131L302.647 803.665C302.647 874.279 328.481 892.363 427.512 892.363C448.180 892.363 604.907 892.363 626.436 892.363C708.244 892.363 728.912 865.667 737.523 757.164C720.300 752.858 693.605 743.385 678.104 733.052C674.660 820.888 666.910 833.805 622.130 833.805C587.685 833.805 456.791 833.805 430.957 833.805C376.705 833.805 367.233 829.499 367.233 802.804L367.233 627.131M382.733 579.769C439.568 627.992 504.154 696.884 531.710 743.385L583.379 706.356C554.100 658.994 487.792 591.825 430.957 546.184M714.272 642.632C763.357 709.801 815.887 801.943 835.693 860.501L895.112 833.805C873.583 775.248 818.470 686.550 768.524 620.242M193.282 633.159C176.059 701.189 145.058 789.887 106.307 845L164.003 873.418C202.755 815.721 231.172 722.718 250.117 652.104M220.839 423.902L220.839 479.876L665.187 479.876C632.464 524.656 586.823 573.741 546.350 606.464C560.989 614.214 582.518 628.854 594.574 639.187C652.270 590.963 722.023 514.322 760.774 448.014L717.717 420.457L707.383 423.902M482.625 107.002C399.956 220.673 251.840 311.093 100.279 363.622C112.335 376.539 132.141 405.818 139.030 419.596C268.201 368.789 397.372 290.425 492.098 190.533C588.546 282.675 734.079 367.928 855.499 411.846C864.972 394.623 885.639 369.650 900.279 356.733C771.108 316.259 616.963 232.729 529.127 147.476L542.905 130.253"/></svg>