<svg xmlns="http://www.w3.org/2000/svg" viewBox="0 0 1000 1000" fill="currentColor"><path d="M389.306 374.161L738.980 374.161L738.980 431.427L389.306 431.427M389.306 275.245L738.980 275.245L738.980 331.644L389.306 331.644M326.833 230.993L326.833 476.547L802.321 476.547L802.321 230.993M540.282 624.920L540.282 668.304L253.948 668.304L253.948 720.364L540.282 720.364L540.282 803.662C540.282 814.941 536.811 818.412 522.061 819.280C508.178 820.148 456.117 820.148 400.586 818.412C409.262 834.030 418.807 854.855 423.145 872.208C494.295 872.208 539.414 872.208 567.180 863.531C594.946 854.855 603.623 839.236 603.623 805.397L603.623 720.364L899.501 720.364L899.501 668.304L603.623 668.304L603.623 650.950C678.243 628.390 757.202 594.551 814.469 557.241L774.555 522.534L760.672 526.004L324.230 526.004L324.230 573.727L679.978 573.727C637.462 593.683 586.269 612.772 540.282 624.920M184.534 124.269L184.534 380.234C184.534 516.460 176.725 707.349 99.501 842.707C115.987 848.781 143.753 865.267 155.900 875.679C236.594 734.247 248.742 524.269 248.742 380.234L248.742 185.007L888.221 185.007L888.221 124.269"/></svg>