<svg xmlns="http://www.w3.org/2000/svg" viewBox="0 0 1000 1000" fill="currentColor"><path d="M484.274 311.368C412.325 411.582 265.859 498.949 102.261 553.767C115.966 565.758 135.666 591.454 144.231 606.015C207.615 582.889 267.572 555.480 322.390 523.788L322.390 555.480L676.994 555.480L676.994 516.079C734.381 546.914 796.051 574.323 854.296 594.880C864.574 577.749 885.131 551.197 899.692 537.493C764.360 498.949 610.184 421.004 527.957 356.764L544.231 335.351M361.790 500.662C410.612 469.827 454.296 434.709 491.983 397.021C533.096 429.570 587.914 466.400 649.585 500.662M249.585 624.859L249.585 895.522L311.255 895.522L311.255 860.405L683.846 860.405L683.846 892.096L748.086 892.096L748.086 624.859M311.255 803.874L311.255 680.533L683.846 680.533L683.846 803.874M239.306 104.088C209.328 186.315 157.936 267.685 99.692 319.934C115.109 328.499 141.662 345.630 153.653 356.764C182.775 325.929 212.754 287.385 239.306 243.702L284.702 243.702C305.259 280.533 325.816 323.360 334.381 352.482L391.769 332.782C384.060 308.799 367.786 274.537 349.799 243.702L487.700 243.702L487.700 188.028L270.141 188.028C281.276 165.758 291.555 143.488 300.120 120.362M577.636 104.088C557.079 173.467 519.392 240.276 473.996 284.816C489.413 293.381 515.109 310.512 527.101 319.934C546.801 299.377 565.645 273.681 582.775 244.559L643.589 244.559C668.428 278.820 694.124 322.503 705.259 351.625L765.216 329.355C755.794 305.373 736.094 273.681 714.681 244.559L873.996 244.559L873.996 188.884L611.897 188.884C622.176 165.758 631.597 141.775 638.450 117.792"/></svg>