<svg xmlns="http://www.w3.org/2000/svg" viewBox="0 0 1000 1000" fill="currentColor"><path d="M546.450 184.615L795.744 184.615L795.744 299.273L546.450 299.273M487.383 132.497L487.383 351.390L858.284 351.390L858.284 132.497M817.459 473.865L817.459 552.910L520.391 552.910L520.391 473.865M458.719 416.536L458.719 899.490L520.391 899.490L520.391 743.138L817.459 743.138L817.459 822.182C817.459 833.474 813.116 836.080 800.955 836.949C787.926 837.818 746.232 838.686 699.327 836.949C708.882 852.584 718.436 877.774 721.911 894.278C783.583 895.147 823.540 894.278 847.861 883.855C873.051 873.431 880.869 856.059 880.869 822.182L880.869 416.536M520.391 605.896L817.459 605.896L817.459 689.283L520.391 689.283M354.484 340.098C344.929 455.624 324.951 552.041 293.681 630.217C265.016 607.633 234.615 585.049 205.081 564.202C221.585 499.055 239.826 420.879 255.461 340.098M133.855 588.523C176.417 617.188 223.322 652.801 266.754 689.283C228.534 762.248 179.023 815.233 118.219 847.372C131.249 860.402 148.621 883.855 157.307 900.358C222.454 861.270 275.440 806.547 316.265 731.846C350.141 763.116 380.543 794.387 400.521 820.445L440.478 765.722C417.894 737.926 384.017 704.919 344.929 671.911C384.886 573.757 410.076 446.938 419.631 283.637L381.412 277.557L370.119 279.294L266.754 279.294C278.046 218.491 287.600 158.556 293.681 104.701L232.009 100.358C226.797 155.081 217.242 216.754 205.950 279.294L120.825 279.294L120.825 340.098L194.658 340.098C176.417 433.040 153.833 523.377 133.855 588.523"/></svg>