<svg xmlns="http://www.w3.org/2000/svg" viewBox="0 0 1000 1000" fill="currentColor"><path d="M117.871 171.516C140.237 230.871 160.882 309.151 165.183 359.903L212.495 348.720C206.473 297.108 186.688 219.688 162.602 160.333M356.151 156.892C344.968 214.527 320.022 298.828 301.097 349.581L341.527 362.484C363.032 314.312 389.699 234.312 410.344 170.656M109.269 393.452L109.269 453.667L220.237 453.667C193.570 548.290 145.398 661.839 99.806 722.914C110.129 740.118 127.333 768.505 133.355 788.290C168.624 737.538 203.032 656.677 230.559 574.097L230.559 894.097L289.914 894.097L289.914 552.591C315.720 598.183 345.828 654.097 357.871 683.344L401.742 634.312C384.538 606.785 312.280 499.258 289.914 472.591L289.914 453.667L386.258 453.667L386.258 393.452L289.914 393.452L289.914 107L230.559 107L230.559 393.452M621.097 104.419L621.097 174.097L440.452 174.097L440.452 223.989L621.097 223.989L621.097 277.323L461.957 277.323L461.957 324.634L621.097 324.634L621.097 382.269L416.366 382.269L416.366 433.022L899.806 433.022L899.806 382.269L682.172 382.269L682.172 324.634L858.516 324.634L858.516 277.323L682.172 277.323L682.172 223.989L877.441 223.989L877.441 174.097L682.172 174.097L682.172 104.419M781.957 533.667L781.957 598.183L531.634 598.183L531.634 533.667M469.699 484.634L469.699 894.957L531.634 894.957L531.634 754.742L781.957 754.742L781.957 828.720C781.957 838.183 778.516 841.624 767.333 841.624C757.011 842.484 721.742 842.484 682.172 840.763C690.774 856.247 698.516 878.613 701.097 894.957C755.290 894.957 790.559 894.097 813.785 885.495C836.151 876.032 842.172 860.548 842.172 828.720L842.172 484.634M531.634 644.634L781.957 644.634L781.957 709.151L531.634 709.151"/></svg>