<svg xmlns="http://www.w3.org/2000/svg" viewBox="0 0 1000 1000" fill="currentColor"><path d="M319.039 897.462C336.224 885.432 365.440 875.120 569.092 807.236C565.655 792.628 562.218 765.131 561.359 746.227L389.501 800.362L389.501 539.997L560.499 539.997L560.499 479.846L389.501 479.846L389.501 316.581L324.194 316.581L324.194 782.317C324.194 816.689 304.431 831.296 290.682 839.030C300.994 852.779 314.742 881.135 319.039 897.462M598.308 313.144L598.308 782.317C598.308 860.512 617.213 881.995 690.252 881.995C705.720 881.995 792.508 881.995 807.975 881.995C876.719 881.995 893.045 841.608 899.919 708.418C881.874 704.121 856.955 692.951 842.347 680.921C838.910 798.643 833.754 823.563 802.820 823.563C784.774 823.563 713.453 823.563 697.986 823.563C667.911 823.563 661.037 817.548 661.037 783.176L661.037 602.725C737.513 558.042 821.724 503.047 883.593 451.490L832.895 402.510C792.508 446.334 725.483 498.751 661.037 540.856L661.037 313.144M478.867 113.788C489.178 140.426 499.490 173.939 506.364 201.436L172.959 201.436L172.959 440.319C172.959 564.057 166.944 737.634 99.919 860.512C115.387 868.246 143.743 887.150 156.633 898.321C227.095 767.709 238.265 572.650 238.265 440.319L238.265 261.586L892.186 261.586L892.186 201.436L580.263 201.436C571.670 172.220 557.922 132.693 545.032 101.758"/></svg>