<svg xmlns="http://www.w3.org/2000/svg" viewBox="0 0 1000 1000" fill="currentColor"><path d="M99.972 822.781L112.054 891.821C220.792 870.246 377.858 841.767 524.567 814.151L520.252 749.426L396.844 771.864L396.844 437.883L520.252 437.883L520.252 375.748L396.844 375.748L396.844 109.081L331.256 109.081L331.256 783.946L233.737 800.343L233.737 284.270L169.875 284.270L169.875 811.562M563.402 109.081L563.402 756.330C563.402 850.397 585.840 874.561 665.236 874.561C682.496 874.561 779.152 874.561 797.275 874.561C874.082 874.561 892.205 826.233 899.972 687.290C880.986 682.975 855.096 670.893 837.836 657.948C833.521 781.357 828.343 812.425 792.097 812.425C771.385 812.425 690.263 812.425 673.866 812.425C636.757 812.425 631.579 803.795 631.579 758.056L631.579 489.663C715.290 449.102 804.179 399.049 870.630 349.858L817.124 297.215C772.248 337.776 702.345 385.241 631.579 424.076L631.579 109.081"/></svg>