<svg xmlns="http://www.w3.org/2000/svg" viewBox="0 0 1000 1000" fill="currentColor"><path d="M297.862 371.828L297.862 477L221.138 477L221.138 371.828M345.276 371.828L422.862 371.828L422.862 477L345.276 477M210.793 321.828C226.310 293.379 240.966 263.207 253.897 231.310L366.828 231.310C355.621 262.345 341.828 295.966 327.172 321.828M234.931 102C208.207 208.034 160.793 310.621 99.586 377C113.379 385.621 137.517 405.448 147.862 414.931L165.966 391.655L165.966 551.138C165.966 648.552 159.931 777 101.310 868.379C114.241 874.414 139.241 889.069 149.586 898.552C186.655 840.793 204.759 764.931 213.379 690.793L297.862 690.793L297.862 850.276L345.276 850.276L345.276 690.793L422.862 690.793L422.862 821.828C422.862 830.448 420.276 833.034 410.793 833.034C403.034 833.897 378.034 833.897 348.724 833.034C356.483 847.690 364.241 872.690 365.966 888.207C409.069 888.207 435.793 887.345 453.897 877C472 867.517 477.172 850.276 477.172 822.690L477.172 321.828L386.655 321.828C407.345 284.759 427.172 240.793 441.828 202L402.172 177L392.690 179.586L273.724 179.586C280.621 158.034 287.517 136.483 293.552 114.931M297.862 526.138L297.862 639.931L218.552 639.931C220.276 608.897 221.138 578.724 221.138 551.138L221.138 526.138M345.276 526.138L422.862 526.138L422.862 639.931L345.276 639.931M576.310 430.448C561.655 502.862 534.931 575.276 497.862 624.414C511.655 629.586 536.655 643.379 547.862 651.138C563.379 627.862 578.897 599.414 591.828 567.517L687.517 567.517L687.517 671.828L512.517 671.828L512.517 729.586L687.517 729.586L687.517 895.103L748.724 895.103L748.724 729.586L899.586 729.586L899.586 671.828L748.724 671.828L748.724 567.517L877.172 567.517L877.172 510.621L748.724 510.621L748.724 428.724L687.517 428.724L687.517 510.621L612.517 510.621C620.276 488.207 626.310 464.069 631.483 440.793M511.655 146.828L511.655 201.138L629.759 201.138C615.103 282.172 581.483 NaN 492.690 391.655C505.621 402 522 422.690 528.897 435.621C632.345 387.345 672 302.862 689.241 201.138L815.103 201.138C809.931 302 803.034 342.517 792.690 353.724C787.517 360.621 780.621 361.483 767.690 361.483C756.483 361.483 724.586 360.621 690.103 358.034C698.724 372.690 703.897 395.103 705.621 411.483C741.828 414.069 777.172 414.069 795.276 412.345C816.828 410.621 830.621 404.586 841.828 390.793C860.793 370.103 868.552 314.931 874.586 170.966C875.448 162.345 875.448 146.828 875.448 146.828"/></svg>