<svg xmlns="http://www.w3.org/2000/svg" viewBox="0 0 1000 1000" fill="currentColor"><path d="M481.021 123.362C497.296 143.062 514.426 168.758 527.274 191.884L236.054 191.884L236.054 384.604C236.054 515.653 226.632 704.090 138.409 836.852C154.683 842.848 182.949 859.979 194.940 871.113C283.163 736.638 299.437 540.493 300.293 400.878L844.191 400.878L844.191 191.884L600.936 191.884C586.375 163.619 562.392 126.788 538.409 100.236M300.293 246.702L781.664 246.702L781.664 345.203L300.293 345.203M797.081 507.088L797.081 581.606L415.069 581.606L415.069 507.088M349.972 457.409L349.972 900.236L415.069 900.236L415.069 753.769L797.081 753.769L797.081 824.004C797.081 835.996 792.799 839.422 779.951 840.278C766.246 841.135 719.994 841.135 671.171 839.422C679.737 855.696 688.302 878.822 691.728 895.096C756.824 895.096 800.507 894.240 827.060 885.675C853.612 876.253 861.321 859.979 861.321 824.861L861.321 457.409M415.069 626.146L797.081 626.146L797.081 706.660L415.069 706.660"/></svg>