<svg xmlns="http://www.w3.org/2000/svg" viewBox="0 0 1000 1000" fill="currentColor"><path d="M500.758 607.163L500.758 651.608L183.547 651.608L183.547 709.124L500.758 709.124L500.758 826.771C500.758 838.100 496.401 841.586 481.586 841.586C465.900 842.458 411.869 842.458 354.353 841.586C363.939 858.144 375.268 882.545 378.754 899.974C451.956 899.974 498.144 899.102 527.773 890.388C556.532 879.930 564.375 862.501 564.375 828.514L564.375 709.124L890.301 709.124L890.301 651.608L564.375 651.608L564.375 634.179C641.063 602.806 722.109 557.490 781.368 513.046L739.538 477.316L725.595 480.802L466.771 480.802C508.601 456.401 547.817 430.257 587.033 402.370L899.015 402.370L899.015 344.854L662.850 344.854C730.824 289.952 793.569 228.950 847.599 164.462L792.697 133.089C763.939 167.948 732.566 201.935 697.708 235.050L697.708 195.834L488.558 195.834L488.558 99.974L424.070 99.974L424.070 195.834L191.390 195.834L191.390 253.351L424.070 253.351L424.070 344.854L117.316 344.854L117.316 402.370L480.715 402.370C437.142 430.257 390.954 456.401 343.895 480.802L289.865 480.802L289.865 507.817C227.991 536.575 165.246 562.719 101.630 584.505C114.702 596.706 135.617 623.721 144.331 637.664C221.020 608.035 298.580 573.176 372.654 533.961L652.392 533.961C607.076 561.847 551.303 589.734 500.758 607.163M488.558 344.854L488.558 253.351L677.664 253.351C642.806 285.595 605.333 316.096 565.246 344.854"/></svg>