<svg xmlns="http://www.w3.org/2000/svg" viewBox="0 0 1000 1000" fill="currentColor"><path d="M471.471 467.178L773.423 467.178L773.423 529.651L471.471 529.651M471.471 358.718L773.423 358.718L773.423 419.456L471.471 419.456M696.200 100.150L696.200 172.167L561.709 172.167L561.709 100.150L500.104 100.150L500.104 172.167L369.952 172.167L369.952 227.698L500.104 227.698L500.104 292.774L561.709 292.774L561.709 227.698L696.200 227.698L696.200 292.774L759.540 292.774L759.540 227.698L882.751 227.698L882.751 172.167L759.540 172.167L759.540 100.150M410.733 309.260L410.733 578.241L586.872 578.241C584.269 604.271 579.931 627.698 574.725 650.258L352.599 650.258L352.599 705.790L554.768 705.790C522.664 772.601 459.323 818.588 330.039 846.354C343.054 859.369 359.540 883.664 364.746 899.282C517.458 861.972 588.607 799.499 623.315 707.525C667.566 802.970 747.393 868.046 859.323 898.414C868 881.928 886.221 857.633 900.104 844.618C802.056 823.794 727.436 776.072 685.787 705.790L882.751 705.790L882.751 650.258L639.800 650.258C645.007 627.698 648.477 603.403 651.080 578.241L835.896 578.241L835.896 309.260M208.564 101.017L208.564 275.421L108.781 275.421L108.781 336.158L208.564 336.158L208.564 529.651L100.104 560.887L116.590 624.228L208.564 594.727L208.564 816.852C208.564 829 204.226 832.471 192.946 832.471C182.534 833.338 149.562 833.338 111.384 832.471C120.061 849.824 127.870 876.722 130.473 892.341C185.137 893.208 218.976 890.605 238.933 880.193C260.625 870.649 268.434 852.427 268.434 816.852L268.434 574.770L369.952 541.798L361.275 482.796L268.434 511.430L268.434 336.158L359.540 336.158L359.540 275.421L268.434 275.421L268.434 101.017"/></svg>