<svg xmlns="http://www.w3.org/2000/svg" viewBox="0 0 1000 1000" fill="currentColor"><path d="M744.224 122.332L687.020 133.431C718.610 289.674 763.007 389.568 855.217 478.362C864.608 459.578 883.392 439.088 900.467 426.281C816.796 351.147 773.253 264.061 744.224 122.332M119.251 179.536C136.327 237.593 155.110 313.581 161.940 363.954L212.314 350.293C204.630 300.774 184.993 226.494 166.209 168.436M376.241 161.606C364.288 217.956 339.528 300.774 319.037 351.147L362.581 364.808C384.779 316.996 412.100 240.155 434.299 176.974M112.420 402.375L112.420 462.140L228.536 462.140C199.507 553.495 148.280 656.804 100.467 714.007C111.567 730.229 127.789 757.551 134.619 776.334C173.893 725.961 212.314 646.558 243.050 565.448L243.050 892.449L302.815 892.449L302.815 572.279C332.698 612.407 369.411 663.634 383.925 690.101L424.053 639.728C406.978 617.529 330.990 530.443 302.815 501.414L302.815 462.140L415.515 462.140L415.515 430.550C424.907 446.772 436.006 472.385 439.422 486.046C449.667 478.362 459.059 469.824 467.597 461.286L467.597 507.391L570.051 507.391C552.975 667.049 505.163 779.749 395.025 844.637C407.831 855.736 430.884 880.496 438.568 891.596C557.244 812.193 611.887 690.101 632.378 507.391L759.592 507.391C749.347 718.276 737.394 796.825 719.464 817.316C711.780 826.708 704.950 828.415 690.435 828.415C676.775 828.415 643.477 827.561 606.764 824.146C616.156 840.368 622.132 865.128 622.986 883.058C661.407 885.619 698.973 885.619 719.464 883.058C743.370 881.350 758.739 875.374 774.107 855.736C798.867 825.854 811.673 734.498 822.773 476.654C823.626 467.263 824.480 446.772 824.480 446.772L482.111 446.772C553.829 369.931 595.665 264.061 619.571 136.846L558.952 127.455C537.607 252.108 493.210 355.416 415.515 420.304L415.515 402.375L302.815 402.375L302.815 107.818L243.050 107.818L243.050 402.375"/></svg>