<svg xmlns="http://www.w3.org/2000/svg" viewBox="0 0 1000 1000" fill="currentColor"><path d="M294.384 691.055L294.384 816.303C294.384 883.337 319.963 900.096 419.632 900.096C440.800 900.096 594.273 900.096 617.206 900.096C695.707 900.096 715.993 877.163 724.814 779.258C707.173 775.730 680.712 766.028 665.718 756.325C661.308 832.180 654.251 842.764 611.032 842.764C577.515 842.764 448.739 842.764 422.278 842.764C369.356 842.764 359.654 838.354 359.654 815.421L359.654 691.055M412.576 673.415C469.025 701.639 533.413 747.505 564.284 781.904L607.504 739.567C575.751 704.286 509.599 661.066 454.031 634.605M727.460 701.639C768.033 758.971 811.252 836.590 828.011 885.101L892.399 862.169C874.759 811.893 828.893 736.921 787.438 681.353M188.540 681.353C171.782 738.685 141.793 811.893 106.512 856.877L165.607 889.512C200.889 841 229.114 764.264 247.636 705.168M231.760 369.997L392.289 369.997L392.289 453.789L231.760 453.789M171.782 322.367L171.782 501.419L454.031 501.419L454.031 322.367M499.896 100.096C501.660 138.023 505.189 174.186 510.481 210.350L113.568 210.350L113.568 268.563L520.183 268.563C539.588 362.940 570.459 446.733 609.268 512.885C575.751 544.638 538.706 572.863 499.014 595.796L498.132 543.756C352.598 559.633 201.771 575.509 102.983 582.566L107.394 641.662L491.958 600.206C506.953 610.791 530.767 633.723 541.352 646.072C577.515 623.139 612.796 595.796 645.431 564.925C690.415 621.375 744.218 654.010 801.550 654.010C861.528 654.010 886.225 624.903 897.691 512.885C880.051 507.593 857.118 495.245 843.888 482.896C838.595 562.279 829.775 590.504 804.196 591.386C766.269 591.386 726.578 564.043 690.415 517.295C738.926 460.846 780.381 394.693 808.606 320.603L746.864 305.609C724.814 362.940 693.943 415.862 655.133 462.610C626.908 409.688 602.212 343.536 586.335 268.563L885.343 268.563L885.343 210.350L780.381 210.350L810.370 177.714C781.264 150.372 723.932 118.619 676.302 101.860L638.375 140.669C678.948 158.310 726.578 185.653 756.567 210.350L575.751 210.350C570.459 175.068 566.931 138.023 565.166 100.096"/></svg>