<svg xmlns="http://www.w3.org/2000/svg" viewBox="0 0 1000 1000" fill="currentColor"><path d="M660.293 152.623C716.824 180.889 784.490 227.141 816.182 259.690L853.013 213.437C819.608 180.889 750.229 138.062 695.411 111.510M510.400 106.370C510.400 156.906 509.544 210.011 508.687 263.116L390.486 263.116L390.486 323.073L506.118 323.073C495.839 526.927 459.865 730.782 321.107 846.413C337.381 856.692 357.938 874.679 369.073 889.240C456.439 813.009 506.118 704.229 534.383 583.458C560.936 639.989 593.484 692.238 632.028 737.634C586.632 783.887 532.670 819.004 474.426 840.418C487.274 853.266 503.548 877.248 511.257 892.666C572.071 866.113 626.889 830.139 674.854 782.173C727.103 830.996 787.916 869.540 857.296 894.379C866.717 878.105 885.561 853.266 900.122 840.418C829.887 818.148 768.216 782.173 715.968 735.064C773.355 660.546 815.325 563.758 836.739 440.418L798.195 428.426L787.060 430.139L559.223 430.139C563.505 395.021 566.075 359.047 567.788 323.073L891.557 323.073L891.557 263.116L570.358 263.116C572.071 210.011 572.927 156.906 572.927 106.370M765.647 488.383C745.946 568.041 713.398 635.707 672.285 691.381C620.893 633.137 580.636 563.758 554.084 488.383M234.597 104.657L234.597 273.394L109.544 273.394L109.544 333.351L234.597 333.351L234.597 526.071C183.206 541.488 136.953 555.193 100.122 564.615L120.679 630.567L234.597 592.024L234.597 817.291C234.597 829.283 229.458 832.709 218.323 833.565C207.188 833.565 171.214 833.565 132.670 832.709C140.379 849.839 149.801 876.392 152.370 891.809C209.758 892.666 244.019 890.096 267.146 880.675C288.559 870.396 297.124 853.266 297.124 816.435L297.124 570.610L399.908 534.636L392.199 478.961L297.124 508.084L297.124 333.351L386.203 333.351L386.203 273.394L297.124 273.394L297.124 104.657"/></svg>