<svg xmlns="http://www.w3.org/2000/svg" viewBox="0 0 1000 1000" fill="currentColor"><path d="M244.914 99.947L244.914 275.748L130.904 275.748L130.904 339.280L244.914 339.280L244.914 527.265C197.917 540.319 154.402 551.633 117.850 560.336L135.256 627.349L244.914 595.148L244.914 821.427C244.914 834.481 239.692 837.962 228.378 838.833C217.064 838.833 180.511 838.833 141.348 837.962C149.181 856.239 158.754 883.218 160.494 899.754C220.545 900.624 256.228 898.884 278.855 887.570C302.354 877.126 311.057 859.720 311.057 822.297L311.057 575.131L419.844 542.060L412.012 480.268L311.057 508.988L311.057 339.280L412.012 339.280L412.012 275.748L311.057 275.748L311.057 99.947M522.540 582.094L814.961 582.094L814.961 788.355L522.540 788.355M522.540 520.302L522.540 318.392L814.961 318.392L814.961 520.302M641.771 100.817C634.809 146.073 620.014 208.734 604.348 256.601L457.267 256.601L457.267 898.013L522.540 898.013L522.540 851.017L814.961 851.017L814.961 892.791L881.974 892.791L881.974 256.601L669.621 256.601C685.286 213.086 702.692 159.127 717.487 111.261"/></svg>