<svg xmlns="http://www.w3.org/2000/svg" viewBox="0 0 1000 1000" fill="currentColor"><path d="M607.852 182.079L607.852 530.550L671.607 530.550L671.607 182.079M775.537 103.476L775.537 596.926C775.537 610.026 770.297 614.393 755.450 615.266C740.603 616.140 689.074 616.140 634.926 614.393C644.533 632.734 655.013 659.808 658.507 677.275C728.376 677.275 775.537 676.402 803.485 666.795C831.432 656.314 841.039 637.974 841.039 597.799L841.039 103.476M361.563 727.057C372.044 779.459 379.031 847.581 379.031 888.629L443.659 879.022C442.786 838.847 433.179 772.472 421.825 720.943M541.476 725.310C564.183 776.838 586.017 844.961 594.751 886.882L659.380 872.908C650.646 831.860 626.192 764.611 602.611 713.956M722.262 720.943C765.930 775.092 815.712 850.201 836.672 897.362L899.555 868.541C876.847 821.380 825.319 748.017 781.651 696.489M213.965 701.729C185.144 761.991 138.856 829.240 99.555 870.288L161.563 896.489C201.738 851.074 245.406 779.459 275.974 719.197M235.799 430.114C275.100 455.441 320.515 491.249 347.590 519.197C287.328 576.838 210.472 612.646 122.262 632.734C134.489 647.581 148.463 672.908 155.450 689.502C346.716 637.974 486.454 525.310 534.489 280.769L495.188 268.541L482.961 271.162L315.275 271.162C330.122 244.961 343.223 218.760 354.576 190.812L546.716 190.812L546.716 131.424L124.882 131.424L124.882 190.812L287.328 190.812C243.659 286.882 177.284 371.598 101.301 429.240C114.402 441.467 135.362 468.541 142.349 481.642C193.004 440.594 241.913 386.445 282.961 324.437L459.380 324.437C443.659 383.825 419.205 433.607 387.764 474.655C358.943 448.454 315.275 416.140 278.594 393.432"/></svg>