<svg xmlns="http://www.w3.org/2000/svg" viewBox="0 0 1000 1000" fill="currentColor"><path d="M201.881 301.255L302.093 301.255L302.093 385.331L201.881 385.331M153.473 254.546L153.473 430.342L352.200 430.342L352.200 254.546M99.970 485.544L99.970 542.444L415.894 542.444L415.894 824.397C415.894 833.739 413.346 836.287 402.306 837.136C391.265 837.136 355.597 837.136 316.531 836.287C324.174 849.875 332.667 870.257 335.214 884.694C388.718 884.694 423.537 883.845 444.769 875.352C466.849 868.558 472.794 854.970 472.794 824.397L472.794 542.444L550.926 542.444L550.926 485.544L468.548 485.544L468.548 204.439L531.393 204.439L531.393 150.087L109.312 150.087L109.312 204.439L410.798 204.439L410.798 485.544M144.981 595.098L144.981 815.055L198.484 815.055L198.484 777.688L355.597 777.688L355.597 595.098M198.484 642.656L303.792 642.656L303.792 730.979L198.484 730.979M601.881 106.775C581.499 233.314 545.830 356.456 490.628 434.588C505.915 442.231 533.091 458.367 544.132 466.860C573.856 422.699 598.484 364.949 619.715 301.255L810.798 301.255C800.607 358.155 787.868 419.301 775.130 459.217L826.085 474.503C846.467 419.301 866.849 329.280 880.437 253.696L837.125 240.958L827.783 243.505L635.851 243.505C646.892 202.741 655.384 160.278 663.028 116.966M657.932 352.210L657.932 410.809C657.932 531.403 645.193 710.597 482.136 847.327C495.724 857.518 516.106 877.900 524.599 892.338C619.715 811.658 668.123 715.692 692.752 623.972C725.873 735.225 775.979 815.904 858.357 889.790C866.849 872.805 884.684 853.272 899.970 841.382C794.662 753.059 745.406 651.998 714.832 481.297C715.682 456.669 716.531 432.890 716.531 411.658L716.531 352.210"/></svg>