<svg xmlns="http://www.w3.org/2000/svg" viewBox="0 0 1000 1000" fill="currentColor"><path d="M135.978 159.542C183.495 205.330 239.650 270.989 265.568 311.594L318.268 274.445C290.622 233.840 232.739 171.637 185.222 127.577M814.164 110.298C726.043 137.080 561.896 154.359 424.531 162.134L424.531 353.927C424.531 466.238 416.756 620.017 340.730 732.328C355.417 740.104 383.927 759.110 395.158 771.205C462.544 674.445 483.279 538.808 488.462 425.633L664.704 425.633L664.704 768.613L728.635 768.613L728.635 425.633L888.462 425.633L888.462 365.158L490.190 365.158L490.190 353.927L490.190 213.970C622.371 205.330 769.240 188.916 867.728 158.678M292.350 423.041L110.924 423.041L110.924 486.972L229.283 486.972L229.283 728.009C190.406 742.695 145.482 781.572 99.693 830.816L142.890 890.428C186.950 831.680 229.283 780.708 258.657 780.708C277.663 780.708 305.309 810.082 341.594 832.544C402.069 869.693 473.775 880.060 581.767 880.060C664.704 880.060 819.348 874.877 880.687 870.557C881.551 852.415 891.918 819.585 899.693 802.307C815.892 811.810 686.302 818.721 583.495 818.721C485.870 818.721 412.436 812.674 356.281 777.253C326.907 759.974 308.765 743.559 292.350 733.192"/></svg>