<svg xmlns="http://www.w3.org/2000/svg" viewBox="0 0 1000 1000" fill="currentColor"><path d="M502.344 110.882L502.344 228.731L355.247 228.731L355.247 285.505L502.344 285.505L502.344 399.054L370.731 399.054C361.269 470.452 344.925 565.075 331.161 624.430L493.742 624.430C477.398 714.753 434.387 794.753 322.559 852.387C335.462 862.710 355.247 883.355 363.849 895.398C490.301 829.161 537.613 734.538 553.097 624.430L659.763 624.430L659.763 891.957L717.398 891.957L717.398 624.430L840.409 624.430C836.968 714.753 832.667 749.161 824.925 759.484C819.763 765.505 812.882 767.226 802.559 767.226C792.237 767.226 767.290 767.226 739.763 763.785C747.505 778.409 752.667 801.634 754.387 817.978C785.355 819.699 815.462 819.699 830.946 817.978C850.731 815.398 862.774 810.237 873.957 798.194C888.581 779.269 894.602 725.935 898.903 592.602C899.763 584 899.763 568.516 899.763 568.516L717.398 568.516L717.398 454.968L873.957 454.968L873.957 228.731L717.398 228.731L717.398 110.882L659.763 110.882L659.763 228.731L560.839 228.731L560.839 110.882M419.763 454.968L502.344 454.968L502.344 501.419C502.344 523.785 501.484 546.151 500.624 568.516L400.839 568.516M659.763 454.968L659.763 568.516L559.118 568.516C559.978 547.011 560.839 524.645 560.839 501.419L560.839 454.968M659.763 285.505L659.763 399.054L560.839 399.054L560.839 285.505M717.398 285.505L815.462 285.505L815.462 399.054L717.398 399.054M313.097 104.860C264.925 235.613 184.925 364.645 99.763 448.086C111.806 462.710 129.871 496.258 135.892 511.742C166 480.774 195.247 444.645 223.634 405.075L223.634 891.097L285.570 891.097L285.570 307.871C319.118 248.516 350.086 185.720 374.172 122.925"/></svg>