<svg xmlns="http://www.w3.org/2000/svg" viewBox="0 0 1000 1000" fill="currentColor"><path d="M144.489 309.404L163.213 365.574C232.149 350.255 316.404 331.532 399.809 311.106L394.702 260.043C301.085 279.617 208.319 298.340 144.489 309.404M819.383 132.383C764.064 153.660 672.149 183.447 612.574 195.362L631.298 242.170C691.723 230.255 783.638 205.574 841.511 179.191M587.894 307.702C668.745 321.319 775.128 348.553 834.702 368.979L855.128 314.511C796.404 295.787 690.872 271.106 609.170 258.340M174.277 175.787C240.660 194.511 327.468 227.702 372.574 253.234L395.553 203.872C350.447 180.043 263.638 149.404 198.106 131.532M669.596 501.745L669.596 571.532L329.170 571.532L329.170 501.745M669.596 448.979L344.489 448.979C409.170 408.128 458.532 355.362 495.128 284.723C540.234 351.106 599.809 406.426 671.298 448.979M329.170 620.894L669.596 620.894L669.596 694.085L329.170 694.085M484.064 109.404C448.319 328.979 326.617 430.255 100.234 477.064C113 490.681 132.574 517.915 139.383 532.383C184.489 520.468 226.191 506.851 263.638 490.681L263.638 891.532L329.170 891.532L329.170 745.149L669.596 745.149L669.596 819.191C669.596 831.106 665.340 834.511 651.723 835.362C638.957 835.362 591.298 836.213 541.936 834.511C549.596 849.830 559.809 871.957 563.213 888.128C630.447 888.128 673.851 887.277 699.383 878.766C725.766 869.404 735.128 854.085 735.128 819.191L735.128 482.170C774.277 500.043 815.979 514.511 859.383 525.574C868.745 508.553 885.766 483.021 900.234 470.255C730.872 435.362 592.149 346 521.511 224.298C532.574 192.809 541.936 157.064 549.596 118.766"/></svg>