<svg xmlns="http://www.w3.org/2000/svg" viewBox="0 0 1000 1000" fill="currentColor"><path d="M407.094 367.762L407.094 421.499L829.196 421.499L829.196 367.762M407.094 490.839L407.094 543.710L829.196 543.710L829.196 490.839M344.689 242.951L344.689 298.423L896.802 298.423L896.802 242.951M544.906 121.608C568.308 158.011 594.310 207.415 606.444 238.618L664.516 212.615C652.381 182.280 626.379 135.476 601.244 99.939M395.827 617.382L395.827 897.339L452.165 897.339L452.165 862.670L778.925 862.670L778.925 894.739L837.863 894.739L837.863 617.382M452.165 808.932L452.165 671.120L778.925 671.120L778.925 808.932M297.885 103.406C253.681 234.284 181.742 364.295 103.736 449.235C115.003 463.970 134.072 496.039 140.139 509.907C168.741 477.837 196.477 439.701 222.479 398.964L222.479 899.939L282.284 899.939L282.284 294.089C310.886 238.618 336.022 179.679 355.957 120.741"/></svg>