<svg xmlns="http://www.w3.org/2000/svg" viewBox="0 0 1000 1000" fill="currentColor"><path d="M108.478 262.043L108.478 322.913L401.522 322.913L401.522 262.043M136.304 373.348C155.435 471.609 171.087 599.435 174.565 685.522L226.739 675.957C223.261 589.870 206.739 463.783 186.739 364.652M195.435 124.652C217.174 164.652 242.391 219.435 252.826 254.217L311.087 234.217C299.783 199.435 274.565 147.261 251.087 107.261M418.913 550.739L418.913 897.696L478.043 897.696L478.043 607.261L554.565 607.261L554.565 889.870L606.739 889.870L606.739 607.261L686.739 607.261L686.739 888.130L738.913 888.130L738.913 607.261L819.783 607.261L819.783 837.696C819.783 845.522 817.174 848.130 809.348 848.130C802.391 849 780.652 849 756.304 848.130C763.261 862.913 771.957 884.652 774.565 900.304C813.696 900.304 837.174 899.435 855.435 889.870C873.696 881.174 877.174 866.391 877.174 838.565L877.174 550.739L652.826 550.739L677.174 471.609L897.174 471.609L897.174 412.478L391.957 412.478L391.957 471.609L604.130 471.609C599.783 497.696 593.696 526.391 588.478 550.739M429.348 142.043L429.348 349L866.739 349L866.739 142.043L804.130 142.043L804.130 291.609L672.826 291.609L672.826 100.304L610.217 100.304L610.217 291.609L490.217 291.609L490.217 142.043M317.174 356.826C306.739 462.043 285.870 615.087 265 709.870C204.130 724.652 146.739 737.696 103.261 746.391L118.043 811.609C199.783 790.739 305 763.783 407.609 737.696L399.783 676.826L316.304 697.696C337.174 604.652 358.913 470.739 373.696 367.261"/></svg>