<svg xmlns="http://www.w3.org/2000/svg" viewBox="0 0 1000 1000" fill="currentColor"><path d="M233.488 106.582L233.488 890.377L296.601 890.377L296.601 106.582M146.495 271.188C143.936 346.241 130.290 438.352 99.586 490.377L147.348 511.699C180.610 452.851 194.256 355.623 195.109 278.011M307.689 263.512C334.981 313.832 362.273 380.356 372.507 422.147L412.593 400.825L412.593 440.910L471.441 440.910L471.441 327.478L601.932 327.478C590.844 548.373 545.642 740.271 343.510 845.175C359.714 857.115 380.183 877.584 390.418 892.936C519.203 822.147 588.286 718.096 624.959 593.576L624.959 782.915C624.959 855.409 642.870 876.731 711.100 876.731C724.746 876.731 797.241 876.731 811.740 876.731C876.559 876.731 892.763 840.058 899.586 701.891C881.676 697.627 854.384 686.539 839.885 674.599C837.326 794.855 832.209 815.324 805.770 815.324C791.271 815.324 732.422 815.324 719.629 815.324C694.043 815.324 689.778 811.060 689.778 782.915L689.778 440.910L655.663 440.910C659.928 404.237 662.486 365.857 664.192 327.478L817.710 327.478L817.710 439.205L878.264 439.205L878.264 268.629L666.751 268.629C668.456 215.751 668.456 161.166 668.456 106.582L605.343 106.582L603.638 268.629L412.593 268.629L412.593 386.326C400.652 347.094 375.066 289.098 349.480 244.748"/></svg>