<svg xmlns="http://www.w3.org/2000/svg" viewBox="0 0 1000 1000" fill="currentColor"><path d="M365.364 248L365.364 860.727L899 860.727L899 801.636L422.636 801.636L422.636 248M482.636 255.273L482.636 743.455L539 743.455L539 308.909L645.364 308.909L645.364 329.818C645.364 386.182 639.909 486.182 549 558C561.727 566.182 577.182 578.909 585.364 589.818C626.273 553.455 651.727 513.455 667.182 474.364C701.727 510.727 736.273 552.545 756.273 578.909L793.545 548C769.909 517.091 722.636 465.273 682.636 426.182C690.818 389.818 691.727 357.091 691.727 330.727L691.727 308.909L795.364 308.909L795.364 669.818C795.364 680.727 791.727 683.455 780.818 683.455C769.909 684.364 734.455 684.364 694.455 683.455C701.727 698.909 709.909 722.545 712.636 738.909C768.091 738.909 803.545 738 826.273 728C848.091 718 853.545 701.636 853.545 669.818L853.545 255.273L697.182 255.273L697.182 168L890.818 168L890.818 108.909L438.091 108.909L438.091 168L639 168L639 255.273M101.727 102.545L101.727 899.818L161.727 899.818L161.727 164.364L269.909 164.364C252.636 226.182 229.909 308.909 207.182 375.273C264.455 446.182 277.182 508.909 278.091 558C278.091 585.273 272.636 610.727 260.818 620.727C254.455 626.182 245.364 628.909 234.455 628.909C222.636 629.818 207.182 629.818 189.909 628C199 644.364 204.455 669.818 205.364 686.182C223.545 687.091 244.455 687.091 259.909 685.273C277.182 682.545 291.727 678 302.636 668.909C326.273 651.636 337.182 612.545 336.273 565.273C336.273 508.909 322.636 444.364 265.364 368C291.727 293.455 321.727 198.909 344.455 125.273L301.727 99.818L292.636 102.545"/></svg>