<svg xmlns="http://www.w3.org/2000/svg" viewBox="0 0 1000 1000" fill="currentColor"><path d="M439.011 173.957C472.559 232.452 503.527 309.871 512.989 358.043L571.484 333.097C560.301 284.925 526.753 210.086 493.204 152.452M805.462 142.129C786.538 199.763 752.129 284.065 725.462 335.677L775.355 355.462C804.602 305.570 840.731 228.151 869.118 163.634M618.796 104.280L618.796 384.710L442.452 384.710L442.452 444.925L618.796 444.925L618.796 588.581L415.785 588.581L415.785 648.796L618.796 648.796L618.796 894.817L681.591 894.817L681.591 648.796L900.086 648.796L900.086 588.581L681.591 588.581L681.591 444.925L869.978 444.925L869.978 384.710L681.591 384.710L681.591 104.280M163.742 140.409L163.742 448.366C163.742 573.957 158.581 746 100.086 866.430C115.570 871.591 142.237 887.075 154.280 896.538C192.989 815.677 210.194 707.290 217.935 605.785L340.086 605.785L340.086 820.839C340.086 832.022 336.645 835.462 326.323 836.323C316 836.323 283.312 836.323 247.183 834.602C255.785 851.806 264.387 879.333 266.108 895.677C319.441 895.677 352.129 894.817 372.774 883.634C394.280 873.312 401.161 854.387 401.161 820.839L401.161 140.409M223.097 199.763L340.086 199.763L340.086 341.699L223.097 341.699M223.097 400.194L340.086 400.194L340.086 547.290L221.376 547.290C222.237 512.022 223.097 478.473 223.097 448.366"/></svg>