<svg xmlns="http://www.w3.org/2000/svg" viewBox="0 0 1000 1000" fill="currentColor"><path d="M243.153 653.862C275.425 702.270 308.546 769.361 322.134 810.125L377.335 786.346C363.747 744.732 328.928 680.189 295.807 633.480M697.505 632.631C676.274 680.189 638.057 748.130 608.333 790.592L656.741 810.975C687.314 771.909 726.380 709.913 757.803 656.410M498.779 117.981C418.100 244.520 260.987 343.883 100.478 395.688C117.463 410.975 134.448 435.603 144.639 454.287C190.499 437.301 236.359 416.919 279.671 392.291L279.671 439.849L463.960 439.849L463.960 555.348L170.966 555.348L170.966 613.947L463.960 613.947L463.960 823.713L132.749 823.713L132.749 882.312L868.206 882.312L868.206 823.713L531.051 823.713L531.051 613.947L829.140 613.947L829.140 555.348L531.051 555.348L531.051 439.849L718.737 439.849L718.737 386.346C764.597 412.673 811.306 434.754 855.467 450.890C865.658 433.904 885.191 409.276 900.478 395.688C771.391 354.924 620.223 266.601 536.996 174.881L558.227 144.308M708.546 380.401L300.902 380.401C375.637 336.240 444.427 281.887 500.478 219.892C557.378 278.490 631.263 335.391 708.546 380.401"/></svg>