<svg xmlns="http://www.w3.org/2000/svg" viewBox="0 0 1000 1000" fill="currentColor"><path d="M803.913 139.908C740.792 219.686 662.766 293.328 575.097 359.080L500.578 359.080L500.578 259.138L691.697 259.138L691.697 203.029L500.578 203.029L500.578 99.580L435.703 99.580L435.703 203.029L210.394 203.029L210.394 259.138L435.703 259.138L435.703 359.080L132.368 359.080L132.368 416.942L493.565 416.942C373.458 495.844 241.078 561.596 106.068 608.937C116.588 623.841 130.615 652.772 136.752 667.675C215.654 636.991 293.679 601.047 369.952 559.842C349.788 608.060 325.240 661.539 304.200 700.113L695.204 700.113C682.053 780.768 668.026 820.220 648.739 833.370C639.096 840.383 627.699 841.260 605.781 841.260C582.111 841.260 511.099 840.383 446.224 834.247C458.497 851.780 467.264 877.204 468.141 895.615C533.016 899.998 594.384 899.998 624.192 899.122C660.136 897.368 680.300 893.862 700.464 876.328C728.518 851.780 747.805 795.672 765.339 675.566C767.969 665.922 769.722 645.758 769.722 645.758L399.759 645.758L438.333 558.089L811.804 558.089L811.804 504.611L464.634 504.611C509.345 477.434 553.180 447.626 594.384 416.942L894.213 416.942L894.213 359.080L668.026 359.080C737.285 301.219 800.407 238.097 854.761 170.592"/></svg>