<svg xmlns="http://www.w3.org/2000/svg" viewBox="0 0 1000 1000" fill="currentColor"><path d="M612.229 515.985C620.004 509.937 645.058 505.618 675.296 505.618L715.901 505.618C687.391 628.296 631.235 756.158 523.244 866.741C538.795 873.652 560.393 888.339 571.624 898.706C650.242 815.769 702.078 722.464 735.771 628.296L735.771 811.449C735.771 849.462 739.227 862.421 750.458 872.788C761.689 883.156 778.968 886.611 794.518 886.611C803.158 886.611 822.164 886.611 831.667 886.611C846.354 886.611 861.905 883.156 870.544 877.108C881.775 869.333 888.687 858.102 892.143 841.687C896.462 825.272 899.054 776.028 899.918 733.695C886.959 729.376 870.544 720.737 861.041 712.097C861.041 755.294 860.177 792.443 858.449 807.994C856.721 818.361 853.266 825.272 849.810 828.728C845.490 832.184 837.715 833.048 829.940 833.048C823.028 833.048 812.661 833.048 807.477 833.048C800.566 833.048 794.518 831.320 791.927 828.728C787.607 826.136 786.743 820.089 786.743 814.905L786.743 550.542L759.961 550.542L770.328 505.618L895.598 505.618L895.598 450.326L780.695 450.326C795.382 360.477 798.838 275.812 798.838 205.834L882.639 205.834L882.639 148.814L612.229 148.814L612.229 205.834L746.138 205.834C746.138 274.948 743.546 360.477 727.132 450.326L664.065 450.326C674.432 392.443 689.983 300.002 696.894 258.533L644.194 258.533C639.011 299.138 620.004 423.544 612.229 443.415C607.909 458.102 601.862 462.421 590.631 465.877C597.542 477.108 608.773 503.026 612.229 515.985M524.972 354.430L524.972 460.693L419.572 460.693L419.572 354.430M524.972 306.050L419.572 306.050L419.572 205.834L524.972 205.834M365.145 820.952C376.376 806.266 397.110 790.715 537.931 703.458C545.706 723.328 551.754 741.471 556.073 757.022L603.590 734.559C589.767 689.635 557.801 616.201 527.564 560.909L483.503 579.916C495.598 604.106 508.557 631.752 519.788 658.533L419.572 715.553L419.572 514.257L575.080 514.257L575.080 151.406L366.873 151.406L366.873 697.410C366.873 737.151 345.274 764.797 331.451 776.028C342.683 786.395 359.097 807.994 365.145 820.952M210.501 101.298L210.501 284.451L119.788 284.451L119.788 344.927L208.773 344.927C188.039 463.285 145.706 602.378 99.918 678.404C110.285 692.227 125.836 716.417 133.611 733.695C162.121 685.315 188.903 612.745 210.501 534.991L210.501 895.251L269.248 895.251L269.248 468.469C288.255 506.482 308.125 549.678 317.629 574.732L354.778 522.032C342.683 499.570 288.255 406.266 269.248 377.756L269.248 344.927L343.546 344.927L343.546 284.451L269.248 284.451L269.248 101.298"/></svg>