<svg xmlns="http://www.w3.org/2000/svg" viewBox="0 0 1000 1000" fill="currentColor"><path d="M496.169 107.641C468.054 215.841 416.936 319.782 349.630 386.235C364.966 395.607 390.525 415.202 401.601 425.426C410.972 415.202 420.344 404.127 428.864 392.199L428.864 779.846C428.864 865.895 458.683 887.194 558.363 887.194C581.366 887.194 752.612 887.194 776.468 887.194C868.480 887.194 890.632 851.411 900.003 728.727C882.112 725.319 856.553 715.096 841.217 704.872C835.253 807.961 826.734 829.260 773.060 829.260C736.425 829.260 589.886 829.260 560.919 829.260C501.281 829.260 490.206 819.888 490.206 779.846L490.206 607.748L703.198 607.748L703.198 360.676L451.015 360.676C468.054 335.117 483.390 307.854 497.873 278.035L802.879 278.035C796.063 512.327 788.395 595.820 772.208 615.415C765.392 625.639 758.576 627.343 745.797 627.343C732.165 627.343 700.642 627.343 665.711 623.935C674.231 640.974 680.195 665.682 681.899 683.573C718.534 685.277 754.316 686.129 775.616 682.721C797.767 681.017 812.250 674.201 826.734 655.458C848.885 625.639 857.405 528.514 865.924 249.920C865.924 241.400 865.924 220.101 865.924 220.101L524.284 220.101C537.064 188.578 548.140 155.351 557.511 121.273M490.206 416.906L643.560 416.906L643.560 550.666L490.206 550.666M230.355 110.197L230.355 281.443L114.487 281.443L114.487 341.081L230.355 341.081L230.355 526.810L100.003 562.593L115.339 624.787L230.355 589.856L230.355 815.628C230.355 827.556 226.095 831.816 215.019 831.816C203.944 831.816 169.013 831.816 129.822 830.964C138.342 848.855 146.862 876.118 149.417 892.306C205.647 893.158 239.726 890.602 261.878 880.378C284.029 870.154 291.696 851.411 291.696 814.776L291.696 570.261L382.005 542.146L374.338 485.064L291.696 508.919L291.696 341.081L374.338 341.081L374.338 281.443L291.696 281.443L291.696 110.197"/></svg>