<svg xmlns="http://www.w3.org/2000/svg" viewBox="0 0 1000 1000" fill="currentColor"><path d="M156.254 899.506C176.540 884.512 209.175 870.399 450.851 791.899C447.323 776.022 445.559 746.033 446.441 724.864L229.462 791.899L229.462 433.795L448.205 433.795L448.205 367.643L229.462 367.643L229.462 104.798L159.782 104.798L159.782 775.140C159.782 813.067 138.613 833.354 123.619 842.174C135.085 855.405 150.961 883.630 156.254 899.506M517.003 99.506L517.003 759.264C517.003 857.169 540.818 883.630 625.493 883.630C642.251 883.630 743.685 883.630 761.325 883.630C851.292 883.630 868.933 822.770 876.871 646.364C858.348 641.954 830.123 628.723 813.365 615.493C807.191 778.668 801.017 820.123 756.915 820.123C733.982 820.123 650.190 820.123 632.549 820.123C592.858 820.123 584.920 811.303 584.920 761.028L584.920 503.475C682.825 447.907 787.786 380.873 864.523 315.603L808.955 257.389C755.151 312.957 669.594 380.873 584.920 432.913L584.920 99.506"/></svg>