<svg xmlns="http://www.w3.org/2000/svg" viewBox="0 0 1000 1000" fill="currentColor"><path d="M623.957 99.565L623.957 159.565L396.130 159.565L396.130 99.565L331.783 99.565L331.783 159.565L127.435 159.565L127.435 217.826L331.783 217.826L331.783 270.870L396.130 270.870L396.130 217.826L623.957 217.826L623.957 270.870L688.304 270.870L688.304 217.826L898.739 217.826L898.739 159.565L688.304 159.565L688.304 99.565M740.478 273.478L740.478 350L631.783 350L631.783 273.478L570.913 273.478L570.913 350L482.217 350L482.217 400.435L570.913 400.435L570.913 490L463.957 490L463.957 542.174L895.261 542.174L895.261 490L801.348 490L801.348 400.435LNaN 400.435LNaN 350L801.348 350L801.348 273.478M631.783 400.435L740.478 400.435L740.478 490L631.783 490M126.565 326.522L126.565 380.435L263.957 380.435L263.957 440.435L148.304 440.435L148.304 493.478L263.957 493.478L263.957 557.826L123.957 557.826L123.957 611.739L249.174 611.739C211.783 684.783 154.391 759.565 101.348 798.696C114.391 809.130 134.391 830 143.957 843.913C185.696 808.261 229.174 748.261 263.957 684.783L263.957 899.565L323.087 899.565L323.087 677.826C356.130 714.348 394.391 758.696 410.913 783.043L450.913 735.217C430.913 714.348 356.130 641.304 323.087 611.739L446.565 611.739L446.565 557.826L323.087 557.826L323.087 493.478L428.304 493.478L428.304 440.435L323.087 440.435L323.087 380.435L449.174 380.435L449.174 326.522L323.087 326.522L323.087 272.609L263.957 272.609L263.957 326.522M576.130 750.870L794.391 750.870L794.391 822.174L576.130 822.174M576.130 704.783L576.130 637.826L794.391 637.826L794.391 704.783M516.130 587.391L516.130 898.696L576.130 898.696L576.130 871.739L794.391 871.739L794.391 896.957LNaN 896.957LNaN 587.391"/></svg>