<svg xmlns="http://www.w3.org/2000/svg" viewBox="0 0 1000 1000" fill="currentColor"><path d="M814.572 119.482L814.572 820.075C814.572 834 809.350 838.352 794.555 839.222C781.501 840.092 736.245 840.092 684.897 838.352C694.470 856.628 704.044 883.607 706.655 900.143C775.409 901.013 816.313 899.273 841.551 887.959C865.920 878.385 876.363 860.109 876.363 820.075L876.363 119.482M657.047 200.420L657.047 686.919L718.839 686.919L718.839 200.420M212.323 289.191C234.951 336.188 257.579 397.109 265.412 436.272L326.333 418.866C317.630 379.703 295.002 320.522 269.763 275.266M309.797 115.131C322.852 143.851 337.647 179.533 347.220 208.253L149.662 208.253L149.662 267.434L588.294 267.434L588.294 208.253L412.493 208.253C402.919 177.793 383.773 134.278 366.367 100.336M470.803 272.656C456.878 322.263 430.769 393.627 408.141 442.364L124.423 442.364L124.423 502.415L610.922 502.415L610.922 442.364L471.673 442.364C493.431 397.979 516.929 338.798 536.946 287.451M187.085 580.742L187.085 897.532L249.746 897.532L249.746 856.628L489.950 856.628L489.950 891.440L556.093 891.440L556.093 580.742M249.746 797.447L249.746 639.923L489.950 639.923L489.950 797.447"/></svg>