<svg xmlns="http://www.w3.org/2000/svg" viewBox="0 0 1000 1000" fill="currentColor"><path d="M492.653 570.658L764.774 570.658L764.774 627.493L492.653 627.493M492.653 471.626L764.774 471.626L764.774 527.601L492.653 527.601M580.490 111.670C588.240 128.892 596.851 149.560 603.741 168.505L416.873 168.505L416.873 222.757L850.027 222.757L850.027 168.505L670.910 168.505C663.159 146.976 651.964 121.142 640.770 100.475M719.133 233.090C711.383 259.786 696.744 297.676 682.966 326.094L537.433 326.094L570.156 317.482C564.989 294.231 551.211 258.064 539.155 231.368L485.764 243.424C496.959 268.397 508.154 301.982 513.321 326.094L391.039 326.094L391.039 381.207L873.278 381.207L873.278 326.094L740.662 326.094C753.579 302.843 766.496 274.425 778.552 247.730M432.374 425.986L432.374 673.133L521.932 673.133C510.737 773.026 473.708 822.972 332.481 850.529C345.398 861.723 361.760 885.835 366.066 900.475C524.516 863.446 569.295 797.999 583.073 673.133L661.437 673.133L661.437 800.582C661.437 847.084 667.465 860.862 682.104 871.196C695.883 882.391 721.717 885.835 741.523 885.835C752.718 885.835 787.164 885.835 800.081 885.835C816.442 885.835 840.554 884.113 852.610 879.807C868.111 874.640 878.445 866.029 884.473 851.390C890.501 838.473 893.945 802.305 895.667 766.998C878.445 761.831 855.194 751.497 843.999 740.302C843.138 775.609 842.277 801.443 839.693 813.499C837.110 824.694 831.082 829.861 824.193 832.445C819.026 835.028 806.109 835.028 794.914 835.028C782.858 835.028 762.191 835.028 753.579 835.028C742.384 835.028 734.634 834.167 729.467 831.583C723.439 828.139 722.578 820.389 722.578 806.610L722.578 673.133L826.776 673.133L826.776 425.986M104.279 717.913L125.807 783.360C198.143 754.942 291.146 718.774 378.983 682.606L366.066 624.048L275.646 657.633L275.646 376.901L359.177 376.901L359.177 315.760L275.646 315.760L275.646 115.975L212.783 115.975L212.783 315.760L118.057 315.760L118.057 376.901L212.783 376.901L212.783 680.884C172.309 695.523 134.419 708.440 104.279 717.913"/></svg>