<svg xmlns="http://www.w3.org/2000/svg" viewBox="0 0 1000 1000" fill="currentColor"><path d="M758.554 228.867C728.511 294.961 674.433 385.948 632.373 442.601L684.734 466.635C728.511 412.558 781.730 327.579 822.931 255.476M193.747 288.094C229.798 337.021 264.991 403.116 276.150 447.751L334.519 422.858C322.502 378.223 286.451 313.845 248.682 264.918M424.648 254.618C451.258 305.262 472.717 372.215 478.725 414.275L541.386 393.674C535.378 351.614 510.485 286.378 484.734 236.592M781.730 110.412C633.232 139.597 370.571 160.197 149.112 168.781C155.120 184.232 163.704 210.841 165.421 228.009C389.455 221.142 656.408 200.541 833.232 168.781M122.502 500.970L122.502 564.489L416.064 564.489C337.094 662.343 213.489 755.047 100.185 801.399C116.494 815.991 137.094 840.884 148.253 858.052C259.841 803.974 380.871 707.837 464.133 600.541L464.133 888.953L531.944 888.953L531.944 597.107C616.923 704.403 739.670 803.974 852.116 856.335C864.133 839.167 884.734 813.416 900.185 799.682C786.880 753.330 661.558 661.485 580.871 564.489L878.725 564.489L878.725 500.970L531.944 500.970L531.944 422.858L464.133 422.858L464.133 500.970"/></svg>