<svg xmlns="http://www.w3.org/2000/svg" viewBox="0 0 1000 1000" fill="currentColor"><path d="M699.077 161.752C736.684 208.761 780.274 273.718 800.786 313.889L852.923 281.410C832.410 242.094 786.256 179.701 747.795 133.547M311.897 107.906C264.034 238.675 184.547 368.590 99.932 451.496C111.043 466.880 129.846 501.068 136.684 516.453C166.598 484.829 196.513 448.932 224.718 408.761L224.718 892.521L288.821 892.521L288.821 306.197C321.299 248.932 350.359 187.393 373.436 126.709M570.017 108.761L570.017 307.051L569.162 359.188L343.521 359.188L343.521 422.436L564.889 422.436C550.359 563.462 499.077 723.291 329.846 850.641C347.795 861.752 370.017 879.701 382.838 892.521C521.299 787.393 584.547 659.188 612.752 533.547C659.761 693.376 734.974 819.872 851.214 892.521C861.470 875.427 883.692 849.786 899.932 836.966C764.889 764.316 684.547 608.761 643.521 422.436L887.111 422.436L887.111 359.188L633.265 359.188L634.120 307.051L634.120 108.761"/></svg>