<svg xmlns="http://www.w3.org/2000/svg" viewBox="0 0 1000 1000" fill="currentColor"><path d="M247.766 588.404L247.766 896.489L311.596 896.489L311.596 856.489L685.213 856.489L685.213 893.936L752.447 893.936L752.447 588.404M311.596 799.468L311.596 647.128L685.213 647.128L685.213 799.468M393.298 103.298C332.872 207.979 229.894 303.298 122.660 362.872C137.128 373.085 160.957 397.766 171.170 409.681C217.128 380.745 263.936 345 307.340 303.298C347.340 349.255 395 390.957 446.915 428.404C337.979 487.128 212.872 530.532 99.681 553.511C110.745 567.128 125.213 593.511 131.170 610.532C254.574 582.447 388.191 533.936 505.638 466.702C611.170 531.383 732.872 579.043 857.979 607.128C867.340 590.106 885.213 562.872 899.681 549.255C781.383 526.277 664.787 484.574 564.362 430.106C650.319 373.085 723.511 304.149 773.723 225L729.468 196.064L718.404 199.468L402.660 199.468C421.383 175.638 439.255 150.106 454.574 124.574M348.191 263.298L355 255.638L670.745 255.638C628.191 307.553 570.319 353.511 504.787 394.362C443.511 355.213 389.894 310.957 348.191 263.298"/></svg>