<svg xmlns="http://www.w3.org/2000/svg" viewBox="0 0 1000 1000" fill="currentColor"><path d="M223.140 100.358L223.140 898.621L285.681 898.621L285.681 100.358M139.752 268.002C133.672 336.623 120.643 433.909 100.664 492.975L156.256 511.216C176.235 446.069 190.132 344.441 193.607 274.951M297.841 254.973C317.820 314.908 337.798 393.952 343.878 440.858L397.733 419.142C391.653 374.843 369.068 297.535 348.221 238.469M413.368 869.088C436.821 858.664 474.172 854.321 802.510 821.314C818.145 849.978 831.175 877.774 839.861 900.358L895.453 871.694C871.131 805.679 806.853 703.181 748.656 626.743L695.670 650.195C721.729 685.809 748.656 726.634 772.977 767.459L493.281 791.781C551.479 717.948 610.545 625.005 660.056 530.326L898.927 530.326L898.927 468.654L673.954 468.654L673.954 311.433L864.182 311.433L864.182 249.761L673.954 249.761L673.954 100.358L607.939 100.358L607.939 249.761L422.923 249.761L422.923 311.433L607.939 311.433L607.939 468.654L382.098 468.654L382.098 530.326L582.749 530.326C534.975 628.480 471.566 722.291 449.850 749.218C427.266 780.489 409.025 801.336 390.784 805.679C398.602 823.051 409.894 855.190 413.368 869.088"/></svg>