<svg xmlns="http://www.w3.org/2000/svg" viewBox="0 0 1000 1000" fill="currentColor"><path d="M271.772 584.785C229.256 662.009 161.577 744.438 99.972 798.234C115.590 808.646 141.620 829.471 153.768 840.751C213.638 780.881 286.523 688.907 335.113 605.610M667.434 611.683C730.774 681.098 805.395 778.278 840.102 838.148L899.972 806.911C864.397 747.909 786.306 654.200 723.833 585.653M178.931 521.445C187.607 513.636 223.182 510.165 281.317 510.165L485.221 510.165L485.221 810.382C485.221 824.265 479.148 828.603 464.397 829.471C449.646 829.471 398.453 830.338 342.922 828.603C352.466 846.824 362.879 875.458 366.349 893.679C440.970 893.679 485.221 892.811 513.855 881.531C541.620 871.119 551.165 852.030 551.165 810.382L551.165 510.165L868.735 510.165L869.603 444.221L551.165 444.221L551.165 269.818L485.221 269.818L485.221 444.221L241.403 444.221C257.022 379.145 272.640 297.584 279.581 220.360C467.868 216.022 688.258 198.668 826.219 163.961L788.909 106.694C656.154 141.401 412.336 157.887 215.373 163.093C213.638 263.744 191.078 375.675 184.137 404.308C176.328 435.544 168.518 455.501 157.239 459.839C164.180 476.325 175.460 507.562 178.931 521.445"/></svg>