<svg xmlns="http://www.w3.org/2000/svg" viewBox="0 0 1000 1000" fill="currentColor"><path d="M235.547 124.241C254.451 162.049 274.215 211.029 282.808 243.682L340.380 222.200C331.787 190.406 311.164 142.286 291.401 105.336M559.499 105.336C534.580 207.592 488.178 306.410 427.169 369.139C441.777 377.731 467.555 397.495 478.726 407.807C509.661 373.435 537.158 329.611 562.077 280.632L886.889 280.632L886.889 221.340L587.856 221.340C601.605 187.828 612.776 153.456 622.228 117.366M818.146 304.692C748.544 339.063 622.228 375.154 512.238 398.354L512.238 770.427C512.238 810.814 495.053 831.437 482.163 842.608C492.475 852.919 509.661 876.980 515.676 891.588C530.284 876.980 554.344 864.950 712.453 791.050C708.157 778.161 703.860 750.664 703.001 733.478L574.107 791.050L574.107 437.882L652.303 419.837C682.378 624.348 739.951 797.066 854.236 882.995C864.548 866.668 884.311 842.608 899.779 830.578C832.754 785.035 785.493 705.121 752.840 606.303C795.805 574.509 847.362 533.263 886.889 493.736L840.488 454.208C814.709 484.284 773.463 521.233 736.513 551.308C723.624 505.766 714.172 455.927 706.438 405.229C766.589 388.902 824.161 369.998 870.563 350.234M117.824 248.838L117.824 309.847L210.627 309.847L210.627 440.460C210.627 566.776 199.456 724.026 99.779 857.216C115.246 867.527 136.728 882.995 147.899 894.165C244.999 764.412 266.481 614.896 269.059 480.846L367.878 480.846C361.863 717.151 354.129 800.503 339.521 820.266C333.506 829.719 327.491 831.437 316.320 831.437C303.431 831.437 276.793 831.437 245.858 828.859C255.310 844.327 261.325 869.246 262.185 885.573C293.119 887.291 323.194 887.291 342.099 885.573C363.581 882.995 378.189 876.120 391.938 858.075C412.561 828.859 419.435 734.337 426.309 449.912C427.169 441.319 427.169 420.696 427.169 420.696L269.918 420.696L269.918 309.847L452.947 309.847L452.947 248.838"/></svg>