<svg xmlns="http://www.w3.org/2000/svg" viewBox="0 0 1000 1000" fill="currentColor"><path d="M228.897 356.276C204.759 408.862 163.379 471.793 112.517 509.724L165.103 541.621C215.103 500.241 253.897 434.724 281.483 380.414M375.448 291.621C428.897 316.621 492.690 356.276 523.724 386.448L558.207 344.207C526.310 315.759 460.793 276.966 408.207 253.690M700.448 392.483C755.621 439.897 818.552 508.862 846.138 554.552L895.276 518.345C866.828 472.655 802.172 407.138 747.862 360.586M665.103 283C598.724 364.034 502.172 431.276 390.966 484.724L390.966 342.483L332.345 342.483L332.345 508.862L332.345 511.448C259.931 541.621 182.345 566.621 104.759 585.586C116.828 598.517 135.793 626.103 143.552 639.897C212.517 620.069 282.345 595.931 348.724 567.483C365.103 584.724 395.276 589.897 447.862 589.897C466.828 589.897 610.793 589.897 631.483 589.897C706.483 589.897 725.448 564.897 734.069 462.310C717.690 458.862 693.552 450.241 678.897 440.759C676.310 524.379 668.552 536.448 627.172 536.448C595.276 536.448 474.586 536.448 451.310 536.448L418.552 534.724C537.517 476.966 644.414 402.828 720.276 310.586M210.793 664.034L210.793 862.310L736.655 862.310L736.655 900.241L801.310 900.241L801.310 657.138L736.655 657.138L736.655 801.103L534.069 801.103L534.069 617.483L468.552 617.483L468.552 801.103L274.586 801.103L274.586 664.034M453.034 110.586C461.655 132.138 469.414 159.724 474.586 183L138.379 183L138.379 351.966L202.172 351.966L202.172 241.621L803.897 241.621L803.897 351.966L869.414 351.966L869.414 183L541.828 183C536.655 158 525.448 126.103 514.241 100.241"/></svg>