<svg xmlns="http://www.w3.org/2000/svg" viewBox="0 0 1000 1000" fill="currentColor"><path d="M129.511 160.189C171.571 190.232 223.073 234.867 247.966 264.910L293.459 223.708C268.567 194.524 215.348 152.464 172.429 123.279M100.326 392.807C144.103 421.991 197.322 464.052 223.073 493.236L265.991 448.601C239.382 420.275 184.446 379.931 141.528 354.180M119.210 856.326L176.721 888.944C211.914 805.682 252.258 694.953 281.442 600.532L230.798 567.056C199.039 668.343 152.687 785.940 119.210 856.326M296.034 197.099L296.034 251.176L393.030 251.176C373.288 295.811 346.678 336.155 337.236 348.172C326.936 362.764 315.777 373.064 304.618 374.781C311.485 389.373 320.927 416.841 323.502 428.858C338.953 421.133 364.704 417.700 544.961 392.807C550.970 407.399 556.120 421.133 559.554 432.292L607.622 411.691C594.747 376.498 568.137 320.704 544.103 277.785L499.468 295.811L525.219 347.313L387.880 363.622C411.056 331.863 435.090 291.519 456.549 251.176L627.365 251.176L627.365 197.099L497.751 197.099C490.026 170.489 478.009 137.013 465.991 109.545L414.489 119.845C423.931 143.021 432.515 172.206 439.382 197.099M387.880 619.416L521.785 619.416L521.785 688.086L387.880 688.086M387.880 573.923L387.880 504.395L521.785 504.395L521.785 573.923M333.803 454.609L333.803 893.236L387.880 893.236L387.880 734.438L521.785 734.438L521.785 828.858C521.785 836.584 519.210 839.159 510.627 840.017C502.901 840.017 478.009 840.017 449.682 839.159C457.408 854.609 465.133 877.785 466.850 892.378C507.193 892.378 534.661 891.519 552.687 882.936C571.571 872.635 575.863 857.185 575.863 828.858L575.863 454.609M707.193 312.979L799.897 312.979C790.455 419.416 775.004 514.695 750.112 597.099C723.502 511.262 709.768 419.416 701.185 337.013M686.592 100.961CNaN 240.876 645.391 376.498 593.030 464.910C605.906 475.210 624.790 500.103 632.515 511.262C645.391 488.944 657.408 464.910 667.708 438.300C678.867 514.695 695.176 596.240 722.644 671.777C690.884 744.738 647.966 805.682 588.738 852.893C600.755 864.052 621.356 886.369 628.223 898.386C678.867 853.751 719.210 801.391 750.970 741.305C778.438 800.532 814.489 853.751 860.841 894.953C869.425 880.361 889.167 857.185 900.326 846.026C847.107 803.966 808.481 744.738 779.296 677.785C819.639 576.498 842.815 455.468 856.549 312.979L892.601 312.979L892.601 256.326L720.069 256.326C729.511 209.116 737.236 159.330 743.245 108.687"/></svg>