<svg xmlns="http://www.w3.org/2000/svg" viewBox="0 0 1000 1000" fill="currentColor"><path d="M237.517 659.897L237.517 697.828L771.138 697.828L771.138 659.897M237.517 584.897L237.517 622.828L771.138 622.828L771.138 584.897M231.483 735.759L231.483 896.966L292.690 896.966L292.690 871.966L715.966 871.966L715.966 896.103L778.897 896.103L778.897 735.759M292.690 833.172L292.690 774.552L715.966 774.552L715.966 833.172M453.034 458.172C460.793 471.103 469.414 487.483 476.310 503L131.483 503L131.483 547.828L873.724 547.828L873.724 503L544.414 503C535.793 484.034 522 459.897 509.931 442.655M201.310 209.034C184.069 251.276 151.310 298.690 100.448 334.034C112.517 340.931 130.621 357.310 138.379 368.517C151.310 359.034 162.517 348.690 172.862 338.345L172.862 456.448L220.276 456.448L220.276 433.172L351.310 433.172C355.621 444.379 358.207 457.310 359.069 466.793C382.345 467.655 406.483 467.655 419.414 466.793C437.517 465.931 449.586 460.759 459.931 448.690C475.448 431.448 482.345 384.897 489.241 264.207C490.103 256.448 490.103 241.793 490.103 241.793L241.828 241.793L253.034 217.655L242.690 215.931L276.310 215.931L276.310 184.897L372 184.897L372 215.931L428.034 215.931L428.034 184.897L527.172 184.897L527.172 142.655L428.034 142.655L428.034 104.724L372 104.724L372 142.655L276.310 142.655L276.310 104.724L220.276 104.724L220.276 142.655L118.552 142.655L118.552 184.897L220.276 184.897L220.276 212.483M621.138 102.138C597 177.138 551.310 246.103 494.414 290.931C508.207 299.552 528.897 315.931 538.379 324.552C558.207 307.310 576.310 287.483 593.552 264.207C612.517 298.690 635.793 330.586 663.379 358.172C623.724 384.897 576.310 405.586 523.724 420.241C534.069 431.448 551.310 454.724 556.483 465.931C611.655 447.828 661.655 424.552 703.034 393.517C749.586 430.586 803.034 458.172 864.241 475.414C871.138 459.897 887.517 439.207 900.448 426.276C841.828 412.483 789.241 389.207 745.276 358.172C782.345 321.966 811.655 277.138 829.759 221.966L890.103 221.966L890.103 175.414L648.724 175.414C658.207 155.586 666.828 135.759 673.724 115.069M771.138 221.966C756.483 262.483 733.207 296.966 703.897 325.414C672 295.241 646.138 260.759 627.172 221.966M433.207 281.448C427.172 371.103 421.138 405.586 413.379 416.793C408.207 422.828 403.034 423.690 395.276 423.690L372.862 422.828L372.862 309.034L199.586 309.034L219.414 281.448M220.276 345.241L324.586 345.241L324.586 396.966L220.276 396.966"/></svg>