<svg xmlns="http://www.w3.org/2000/svg" viewBox="0 0 1000 1000" fill="currentColor"><path d="M580.182 324.250L580.182 597.776L640.204 597.776L640.204 324.250M749.957 297.669L749.957 628.644C749.957 640.648 746.527 644.078 732.808 644.078C719.089 644.936 674.502 644.936 624.770 643.221C633.344 658.655 643.633 681.806 647.921 698.955C710.514 698.955 752.529 698.955 778.253 689.523C804.834 680.091 812.551 664.657 812.551 630.359L812.551 297.669M361.533 737.540C371.822 786.415 377.824 849.866 378.682 888.451L441.275 879.877C440.418 842.149 431.844 779.555 420.697 731.538M540.740 734.110C562.176 782.985 583.612 847.294 591.329 887.594L653.923 873.875C646.206 834.432 623.055 770.981 599.904 723.821M718.232 735.825C758.532 784.700 803.976 852.438 823.698 895.311L883.719 867.015C862.283 825 815.123 758.976 774.823 710.959M222.626 713.532C195.188 770.123 153.173 835.289 117.160 873.875L177.181 899.598C214.909 855.868 255.209 787.272 284.362 730.681M666.785 103.028C650.493 132.181 623.055 173.339 598.189 203.349L356.388 203.349L395.831 187.915C382.969 162.192 352.958 125.322 326.377 99.598L267.213 121.034C291.222 145.900 316.088 178.483 329.807 203.349L118.017 203.349L118.017 259.941L881.147 259.941L881.147 203.349L669.357 203.349C689.078 178.483 711.372 150.188 730.236 121.034M424.126 357.690L424.126 417.712L235.488 417.712L235.488 357.690M177.181 310.531L177.181 692.953L235.488 692.953L235.488 569.480L424.126 569.480L424.126 629.502C424.126 638.934 421.554 642.363 409.550 643.221C399.260 643.221 362.390 643.221 321.233 642.363C328.950 656.940 336.667 675.804 340.096 691.238C394.973 691.238 432.701 691.238 454.995 682.663C478.146 674.089 484.148 660.370 484.148 629.502L484.148 310.531M235.488 462.299L424.126 462.299L424.126 524.893L235.488 524.893"/></svg>