<svg xmlns="http://www.w3.org/2000/svg" viewBox="0 0 1000 1000" fill="currentColor"><path d="M146.225 157.893C197.032 185.450 262.479 227.646 295.202 256.925L333.093 205.256C300.369 176.839 234.061 137.226 183.254 112.253M99.723 391.263C152.253 416.236 219.422 455.848 252.145 484.266L289.174 430.875C255.590 404.180 187.560 366.290 135.891 343.039M120.391 845.084L177.226 884.696C222.005 804.610 273.674 696.968 312.425 606.548L261.618 567.797C219.422 665.105 161.726 778.776 120.391 845.084M581.101 288.787L581.101 441.209L433.846 441.209L433.846 288.787M371.844 228.507L371.844 446.376C371.844 571.241 362.371 742.608 268.507 863.168C284.008 869.196 310.703 884.696 321.898 895.030C407.151 784.804 428.679 626.354 432.985 498.905L455.375 498.905C488.098 588.464 533.738 665.967 593.157 730.552C532.877 781.360 461.403 818.389 383.900 844.223C397.678 855.418 417.484 882.113 426.096 897.614C503.598 870.057 575.073 829.583 637.936 775.332C699.078 828.722 772.274 870.057 857.527 895.891CNaN 878.668 885.084 853.695 899.723 840.778C816.193 818.389 743.857 780.498 682.716 730.552C748.163 659.939 799.831 569.519 829.971 456.709L789.497 438.625L777.441 441.209L643.964 441.209L643.964 288.787L806.720 288.787C792.942 328.399 776.580 368.012 761.941 395.568L817.915 413.652C842.027 369.734 869.583 299.982 891.112 237.980L844.610 225.924L833.416 228.507L643.964 228.507L643.964 102.780L581.101 102.780L581.101 228.507M516.516 498.905L749.885 498.905C724.051 573.825 685.299 636.688 637.075 688.356C585.407 634.966 544.933 570.380 516.516 498.905"/></svg>