<svg xmlns="http://www.w3.org/2000/svg" viewBox="0 0 1000 1000" fill="currentColor"><path d="M338.266 325.992L338.266 386.888L540.977 386.888C488.422 523.698 399.163 658.838 308.235 729.746C323.250 741.424 344.105 763.114 354.950 778.964C438.370 706.388 517.619 587.931 573.511 456.961L573.511 880.736L635.242 880.736L635.242 436.941C690.299 570.413 770.383 699.714 852.135 773.958C862.979 757.274 884.668 735.585 899.684 724.740C812.927 653.833 725.336 519.527 672.781 386.888L877.995 386.888L877.995 325.992L635.242 325.992L635.242 124.949L573.511 124.949L573.511 325.992M328.255 118.275C277.369 250.079 191.446 375.210 99.684 455.293C111.363 470.309 130.550 503.677 138.057 518.692C172.260 486.993 204.794 449.454 236.493 408.578L236.493 879.068L298.224 879.068L298.224 318.484C334.095 260.924 364.960 200.027 389.986 137.462"/></svg>