<svg xmlns="http://www.w3.org/2000/svg" viewBox="0 0 1000 1000" fill="currentColor"><path d="M394.958 262.231C455.418 309.548 530.774 377.018 565.824 420.829L616.645 377.894C578.967 334.958 503.611 270.117 442.275 225.429M242.494 118.529L242.494 415.572L241.618 456.755L115.440 456.755L115.440 519.843L238.113 519.843C229.350 630.249 196.930 747.664 99.668 835.287C113.688 844.049 138.222 867.708 147.861 881.727C256.514 784.465 292.439 645.145 302.954 519.843L714.783 519.843L714.783 792.352C714.783 809.876 707.773 816.010 689.372 816.886C670.095 816.886 603.502 817.762 535.156 815.134C545.670 833.535 556.185 862.450 560.566 879.975C649.942 879.975 705.145 879.099 737.565 868.584C769.110 858.069 780.501 837.916 780.501 792.352L780.501 519.843L899.668 519.843L899.668 456.755L780.501 456.755L780.501 118.529M307.335 179.865L714.783 179.865L714.783 456.755L306.459 456.755L307.335 415.572"/></svg>