<svg xmlns="http://www.w3.org/2000/svg" viewBox="0 0 1000 1000" fill="currentColor"><path d="M165.483 216.426C214.535 232.479 276.074 260.127 307.289 280.640L337.612 236.047C305.505 215.534 243.075 190.562 194.914 176.292M537.389 219.101C590.901 234.263 657.790 260.127 692.573 280.640L722.004 234.263C686.330 214.642 618.548 189.670 566.821 177.184M645.304 495.579C623.008 559.793 567.712 609.737 501.715 641.844L527.579 661.465L465.148 661.465L465.148 705.166L100.377 705.166L100.377 761.353L465.148 761.353L465.148 892.457L532.930 892.457L532.930 761.353L900.377 761.353L900.377 705.166L532.930 705.166L532.930 665.924L548.091 679.302C584.658 658.789 619.440 632.033 647.980 599.035C696.140 626.682 747.868 659.681 775.516 683.761L815.650 642.736C784.435 617.764 728.247 583.873 679.195 558.009C689.006 541.064 697.924 524.118 704.167 505.389M442.852 387.663C452.662 403.717 463.365 424.230 472.283 442.067L138.727 442.067L138.727 495.579L334.936 495.579C301.938 565.144 234.156 617.764 156.564 651.654C169.942 660.573 193.130 680.194 202.049 690.896C249.318 665.924 295.695 633.817 334.045 592.792C372.395 615.980 415.204 644.520 438.392 665.924L478.526 627.574C453.554 606.169 406.285 575.846 366.152 553.550C376.854 538.388 386.664 521.443 394.691 504.497L353.666 495.579L863.810 495.579L863.810 442.067L545.416 442.067C535.605 421.554 520.444 395.690 506.174 374.285M137.835 107.619L137.835 161.130L402.718 161.130L402.718 258.343C301.046 285.991 198.482 313.639 129.808 330.584L150.321 382.312C221.670 361.799 313.532 334.152 402.718 305.612L402.718 376.069L465.148 376.069L465.148 107.619M510.633 110.294L510.633 163.806L785.327 163.806L785.327 255.668C684.546 285.991 582.874 315.423 514.201 334.152L536.497 383.204C607.846 360.907 697.924 331.476 785.327 302.045L785.327 383.204L845.973 383.204L845.973 110.294"/></svg>