<svg xmlns="http://www.w3.org/2000/svg" viewBox="0 0 1000 1000" fill="currentColor"><path d="M100.161 113.213L100.161 180.994L447.987 180.994C439.960 222.912 428.366 270.181 416.771 309.423L145.645 309.423L145.645 887.349L213.427 887.349L213.427 372.745L355.233 372.745L355.233 858.809L421.231 858.809L421.231 372.745L568.388 372.745L568.388 858.809L635.278 858.809L635.278 372.745L786.002 372.745L786.002 803.514C786.002 816 782.435 819.567 769.057 819.567C755.679 820.459 710.194 821.351 660.250 819.567C670.060 836.513 679.871 865.052 682.546 882.890C746.760 882.890 792.245 881.998 819.893 871.295C845.757 860.593 853.784 840.972 853.784 803.514L853.784 309.423L487.229 309.423C500.606 271.072 514.876 225.588 527.362 180.994L900.161 180.994L900.161 113.213"/></svg>