<svg xmlns="http://www.w3.org/2000/svg" viewBox="0 0 1000 1000" fill="currentColor"><path d="M665.763 460.148C726.409 497.606 804.001 553.794 843.243 588.576L884.269 545.767C844.135 511.876 765.651 459.256 705.004 423.582M523.957 423.582C476.688 467.283 408.014 514.552 348.260 546.659C360.746 556.469 383.042 581.441 392.853 592.144C451.716 555.577 526.632 496.715 579.252 446.770M585.495 99.836L585.495 187.239L401.771 187.239L401.771 245.210L585.495 245.210L585.495 346.882L367.881 346.882L367.881 406.637L882.485 406.637L882.485 346.882L651.493 346.882L651.493 245.210L844.135 245.210L844.135 187.239L651.493 187.239L651.493 99.836M585.495 539.524L585.495 649.223L394.637 649.223L394.637 708.086L585.495 708.086L585.495 839.190L331.314 839.190L331.314 899.836L898.538 899.836L898.538 839.190L651.493 839.190L651.493 708.086L850.378 708.086L850.378 649.223L651.493 649.223L651.493 539.524M275.127 395.934L275.127 522.579L163.644 522.579L163.644 395.934M275.127 337.963L163.644 337.963L163.644 213.994L275.127 213.994M275.127 580.550L275.127 711.653L163.644 711.653L163.644 580.550M102.106 153.348L102.106 849L163.644 849L163.644 771.408L335.774 771.408L335.774 153.348"/></svg>