<svg xmlns="http://www.w3.org/2000/svg" viewBox="0 0 1000 1000" fill="currentColor"><path d="M293.326 321.187L293.326 375.091L805.840 375.091L805.840 321.187M295.893 105.572C254.824 229.636 183.807 348.567 99.957 423.861C116.214 432.417 144.449 452.096 157.283 462.364C209.476 410.171 259.102 338.299 300.171 258.727L869.155 258.727L869.155 202.257L327.551 202.257C339.529 175.733 350.652 148.353 360.064 120.973M206.909 442.684L206.909 499.155L673.219 499.155C682.631 720.759 714.289 893.594 828.086 893.594C879.422 893.594 893.968 853.380 899.957 751.561C885.412 743.005 867.444 728.460 854.610 713.914C852.898 785.786 847.765 830.278 832.364 830.278C765.626 831.134 741.668 638.620 735.679 442.684"/></svg>