<svg xmlns="http://www.w3.org/2000/svg" viewBox="0 0 1000 1000" fill="currentColor"><path d="M258.888 105.195L258.888 271.039L119.683 271.039L119.683 332.908L250.295 332.908C220.220 452.349 160.070 586.398 99.919 658.579C110.231 673.187 126.557 698.966 133.432 717.011C179.834 658.579 225.376 562.338 258.888 462.661L258.888 894.884L321.617 894.884L321.617 454.927C344.817 497.892 368.878 546.012 379.189 572.650L420.435 523.670C406.686 499.610 348.255 407.666 321.617 368.139L321.617 332.908L435.902 332.908L435.902 271.039L321.617 271.039L321.617 105.195M618.072 113.788L618.072 375.872L445.354 375.872L445.354 437.741L618.072 437.741L618.072 794.347L398.093 794.347L398.093 857.075L899.919 857.075L899.919 794.347L684.237 794.347L684.237 437.741L869.844 437.741L869.844 375.872L684.237 375.872L684.237 113.788"/></svg>