<svg xmlns="http://www.w3.org/2000/svg" viewBox="0 0 1000 1000" fill="currentColor"><path d="M622.889 237.111L790.889 237.111L790.889 479.778L622.889 479.778M558.889 177.556L558.889 539.333L856.667 539.333L856.667 177.556M294.889 650.444L294.889 809.556C294.889 881.556 322.444 900.222 425.556 900.222C446.889 900.222 607.778 900.222 630 900.222C716.222 900.222 737.556 873.556 747.333 759.778C728.667 756.222 700.222 746.444 685.111 734.889C680.667 826.444 672.667 838.889 625.556 838.889C590 838.889 455.778 838.889 429.111 838.889C372.222 838.889 361.556 834.444 361.556 808.667L361.556 650.444M430 599.778C478.889 646.889 533.111 713.556 556.222 757.111L611.333 724.222C587.333 679.778 530.444 615.778 481.556 570.444M735.778 647.778C776.667 712.667 816.667 798 830 852.222L894.889 826.444C879.778 771.333 837.111 688.667 796.222 625.556M195.333 646.889C174.889 705.556 140.222 787.333 104.667 839.778L166 868.222C198.889 814 230 730.444 253.111 670.889M421.111 265.556C404.222 326.889 379.333 376.667 346.444 417.556C308.222 398.889 269.111 382 230.889 367.778C246 337.556 262.889 302.889 278.889 265.556M145.556 393.556L146.444 393.556L145.556 394.444C196.222 412.222 251.333 437.111 302 463.778C248.667 510 181.111 538.444 104.667 555.333C116.222 568.667 130.444 593.556 137.556 610.444C225.556 587.333 301.111 552.667 360.667 495.778C398 517.111 430 539.333 453.111 559.778L502 510.889C476.222 490.444 442.444 468.222 403.333 446.889C446.889 388.222 478.889 311.778 495.778 213.111L456.667 203.333L444.222 205.111L303.778 205.111C316.222 173.111 326.889 141.111 335.778 110.889L271.778 100.222C262 133.111 249.556 168.667 235.333 205.111L107.333 205.111L107.333 265.556L209.556 265.556C189.111 313.556 166 358.889 145.556 393.556"/></svg>