<svg xmlns="http://www.w3.org/2000/svg" viewBox="0 0 1000 1000" fill="currentColor"><path d="M292.303 619.067L292.303 791.652C292.303 867.157 319.270 886.034 425.337 886.034C446.910 886.034 611.404 886.034 634.775 886.034C721.966 886.034 744.438 858.169 753.427 744.011C734.551 739.517 704.888 729.629 689.607 717.944C685.112 809.629 677.921 823.112 630.281 823.112C593.427 823.112 455.899 823.112 428.933 823.112C370.506 823.112 359.719 818.618 359.719 791.652L359.719 619.067M415.449 584.910C470.281 637.045 529.607 710.753 554.775 760.191L613.202 726.034C587.135 675.697 525.112 604.685 469.382 554.348M726.461 614.573C772.303 690.978 819.045 792.551 835.225 857.270L899.944 830.303C881.067 766.483 831.629 667.607 784.888 593M191.629 614.573C173.652 687.382 140.393 779.966 99.944 837.494L160.169 868.056C200.618 806.933 231.180 708.955 250.955 634.348M204.213 284.685L204.213 441.090C204.213 521.989 245.562 539.067 388.483 539.067C419.045 539.067 687.809 539.067 721.067 539.067C837.921 539.067 863.989 513.899 876.573 404.236C856.798 400.640 828.933 392.551 812.753 381.764C804.663 465.360 792.978 478.843 719.270 478.843C658.146 478.843 428.933 478.843 384.888 478.843C288.708 478.843 270.730 472.551 270.730 440.191L270.730 344.910L795.674 344.910L795.674 114.798L179.045 114.798L179.045 175.921L729.157 175.921L729.157 284.685"/></svg>