<svg xmlns="http://www.w3.org/2000/svg" viewBox="0 0 1000 1000" fill="currentColor"><path d="M270.627 106.396C232.655 239.298 169.656 372.200 99.753 459.362C110.109 475.759 128.232 509.416 134.273 524.950C160.163 492.156 186.053 453.321 209.354 411.898L209.354 896.040L270.627 896.040L270.627 286.763C293.928 234.120 313.777 178.025 331.037 122.793M387.132 141.779L387.132 332.502L860.918 332.502L860.918 141.779L798.782 141.779L798.782 274.681L658.113 274.681L658.113 102.944L595.977 102.944L595.977 274.681L445.816 274.681L445.816 141.779M596.840 357.529C611.511 382.556 626.182 414.487 635.675 440.376L462.213 440.376C474.294 413.624 484.650 386.008 493.280 358.392L435.460 342.858C405.255 440.376 353.475 533.580 293.065 594.853C304.284 608.661 323.270 639.729 329.311 652.674C351.749 629.373 372.461 601.757 392.310 571.552L392.310 896.903L451.857 896.903L451.857 856.342L899.753 856.342L899.753 800.247L688.318 800.247L688.318 729.481L865.233 729.481L865.233 680.290L688.318 680.290L688.318 610.387L865.233 610.387L865.233 561.196L688.318 561.196L688.318 493.882L885.945 493.882L885.945 440.376L701.263 440.376C692.633 412.761 672.784 372.200 652.935 341.132M451.857 800.247L451.857 729.481L627.045 729.481L627.045 800.247M451.857 610.387L627.045 610.387L627.045 680.290L451.857 680.290M451.857 561.196L451.857 493.882L627.045 493.882L627.045 561.196"/></svg>