<svg xmlns="http://www.w3.org/2000/svg" viewBox="0 0 1000 1000" fill="currentColor"><path d="M389.945 106.129C327.032 145.449 210.817 185.644 108.583 207.489C121.690 219.722 134.797 240.693 142.661 254.674C245.769 230.208 360.236 191.761 427.518 146.323M521.014 471.375C585.675 528.172 658.200 608.561 689.657 662.736L739.463 620.794C707.133 565.745 631.986 488.851 567.325 433.802M429.266 252.926C413.537 269.528 394.314 287.004 372.469 303.606C361.110 277.392 340.139 244.188 321.789 218.848L275.478 241.567C295.575 269.528 316.546 307.975 327.905 335.063C306.061 349.917 282.468 363.898 258.876 377.005C244.895 345.549 216.933 302.733 190.720 269.528L144.408 292.247C169.748 325.451 195.962 370.015 209.943 402.345C179.360 418.074 147.904 432.054 116.447 444.287C128.680 454.773 142.661 474.870 150.525 487.977C206.448 465.258 263.245 438.171 314.798 407.588C329.653 425.938 342.760 446.909 353.245 467.880C295.575 518.560 192.467 577.104 113.826 605.066C126.933 617.299 140.913 639.144 147.904 653.124C219.555 619.920 310.430 564.871 372.469 514.191C380.333 536.036 386.450 558.755 390.819 581.473C326.158 655.746 203.827 737.009 106.835 775.456C119.068 787.689 133.049 808.660 141.787 823.514C226.545 783.320 327.032 714.290 398.683 646.134C403.926 728.271 389.071 799.048 365.479 820.019C350.624 836.621 335.770 839.243 313.925 839.243C299.070 839.243 271.109 837.495 243.147 834.874C251.885 852.350 257.128 876.816 258.002 893.418C282.468 895.166 310.430 896.039 327.905 896.039C364.605 895.166 389.071 886.428 413.537 861.088C479.072 800.796 486.936 532.541 360.236 378.753C402.178 351.665 438.877 321.956 468.586 290.499M579.558 100.012C550.723 219.722 501.791 340.306 439.751 416.326C455.480 424.190 482.567 442.540 493.926 452.152C521.014 416.326 545.480 371.762 568.199 321.956L828.590 321.956C818.978 665.358 806.745 796.427 779.658 825.262C770.046 836.621 761.308 840.117 744.706 839.243C724.608 839.243 674.802 839.243 619.753 834C631.112 852.350 638.976 878.564 640.724 896.913C688.783 900.408 739.463 901.282 768.298 897.787C798.007 895.166 818.104 887.302 837.328 862.835C870.532 820.893 881.018 688.950 892.377 293.995C892.377 285.257 893.251 260.790 893.251 260.790L594.413 260.790C611.889 213.605 628.491 163.799 641.598 113.119"/></svg>