<svg xmlns="http://www.w3.org/2000/svg" viewBox="0 0 1000 1000" fill="currentColor"><path d="M136.974 159.105C183.161 186.991 241.549 229.693 270.307 257.580L305.166 205.292C275.536 178.277 216.277 139.061 170.961 112.046M100.373 394.399C148.303 421.414 210.176 463.244 239.806 491.131L272.922 437.972C241.549 410.085 179.675 370.869 132.617 346.468M118.673 839.715L168.346 883.288C211.919 803.113 261.593 695.052 299.065 604.420L255.492 561.719C214.534 660.194 157.889 772.612 118.673 839.715M352.224 633.179C374.011 675.880 391.440 733.397 395.797 770.869L452.442 752.569C447.214 715.096 427.170 659.322 405.383 617.492M397.540 458.015L559.632 458.015L559.632 551.261L397.540 551.261M340.024 410.085L340.024 598.320L619.763 598.320L619.763 410.085M818.455 116.403C779.240 191.349 706.908 273.266 640.678 321.196C656.364 331.654 675.536 350.826 685.993 364.769C757.453 309.867 830.656 223.593 876.843 137.318M827.170 359.540C789.697 435.357 717.366 513.789 646.778 558.233C663.336 569.562 682.508 588.734 692.965 602.678C769.654 549.519 841.985 466.730 886.429 379.584M840.242 609.649C795.797 708.996 709.523 801.370 610.176 852.786C624.991 864.987 643.292 885.031 652.878 898.974C761.810 838.843 849.828 740.368 900.373 627.950M551.789 610.521C540.460 660.194 517.802 731.654 497.758 778.712C420.198 793.527 348.739 807.471 295.580 816.185L312.137 875.444C407.126 855.401 538.717 827.514 663.336 800.499L658.978 746.468L557.017 766.512C575.318 724.682 595.362 672.394 612.791 627.950M447.214 100.717L447.214 177.405L314.752 177.405L314.752 232.307L447.214 232.307L447.214 304.638L330.438 304.638L330.438 357.797L624.120 357.797L624.120 304.638L509.087 304.638L509.087 232.307L647.649 232.307L647.649 177.405L509.087 177.405L509.087 100.717"/></svg>