<svg xmlns="http://www.w3.org/2000/svg" viewBox="0 0 1000 1000" fill="currentColor"><path d="M710.661 430.270L809.028 430.270L809.028 512.098L710.661 512.098M562.674 430.270L659.300 430.270L659.300 512.098L562.674 512.098M417.298 430.270L510.443 430.270L510.443 512.098L417.298 512.098M359.844 385.874L359.844 556.494L869.094 556.494L869.094 385.874M467.788 250.945L763.762 250.945L763.762 301.434L467.788 301.434M467.788 160.411L763.762 160.411L763.762 210.030L467.788 210.030M405.982 117.756L405.982 344.089L828.180 344.089L828.180 117.756M142.217 154.318C197.059 183.045 266.700 228.311 299.779 260.520L341.564 209.160C305.873 178.692 235.361 136.037 180.519 108.181M99.561 390.226C152.663 420.694 220.563 467.702 253.642 499.040L294.556 447.680C259.736 417.212 191.836 373.687 138.734 345.830M117.842 830.705L173.555 874.231C220.563 796.755 276.275 694.035 318.930 606.113L270.182 564.329C223.174 658.344 161.368 767.158 117.842 830.705M745.481 653.121C710.661 691.423 664.523 723.632 609.681 750.618C556.580 723.632 511.313 690.553 476.493 653.121M338.952 599.149L338.952 653.121L403.370 653.121C439.931 701.869 486.939 743.654 543.522 778.474C466.917 807.201 380.737 826.353 297.168 835.928C308.484 849.856 322.412 875.972 327.635 892.511C424.262 876.842 521.760 852.468 607.940 815.036C682.804 850.727 768.985 875.972 860.388 890.770C869.094 873.360 885.633 848.115 899.561 834.187C819.474 823.741 744.610 805.460 676.711 780.215C747.222 739.301 806.417 687.071 843.849 620.041L802.064 596.538L790.748 599.149"/></svg>