<svg xmlns="http://www.w3.org/2000/svg" viewBox="0 0 1000 1000" fill="currentColor"><path d="M461.805 599.294L461.805 887.606L527.606 887.606L527.606 599.294M665.268 597.563L665.268 806.221C665.268 866.827 679.987 885.009 743.190 885.009C755.312 885.009 811.589 885.009 825.442 885.009C876.524 885.009 892.974 859.900 899.035 762.931C881.719 758.602 856.610 749.078 843.623 739.554C841.026 817.476 837.563 828.732 818.515 828.732C805.528 828.732 761.372 828.732 751.848 828.732C731.069 828.732 727.606 825.268 727.606 805.355L727.606 597.563M256.610 595.831L256.610 656.437C256.610 714.446 237.563 796.697 100.766 855.571C115.485 865.961 137.996 886.740 147.519 899.727C297.303 833.926 322.411 731.762 322.411 657.303L322.411 595.831M442.758 269.424C458.342 291.935 474.792 318.775 486.048 343.017L123.277 343.017L123.277 400.160L236.697 400.160L236.697 553.407L812.455 553.407L812.455 496.264L303.364 496.264L303.364 400.160L875.658 400.160L875.658 343.017L557.043 343.017C544.922 315.312 523.277 279.814 502.498 252.974M620.247 99.727L620.247 169.857L376.957 169.857L376.957 99.727L312.887 99.727L312.887 169.857L116.351 169.857L116.351 227.866L312.887 227.866L312.887 296.264L376.957 296.264L376.957 227.866L620.247 227.866L620.247 297.130L684.316 297.130L684.316 227.866L884.316 227.866L884.316 169.857L684.316 169.857L684.316 99.727"/></svg>