<svg xmlns="http://www.w3.org/2000/svg" viewBox="0 0 1000 1000" fill="currentColor"><path d="M186.755 161.841L186.755 462.822C186.755 583.215 179.775 741.121 100.386 851.045C115.217 858.896 143.134 883.324 153.603 896.410C240.844 777.762 253.930 593.684 253.930 462.822L253.930 349.409L516.526 349.409L509.546 433.160L327.213 433.160L327.213 893.793L391.771 893.793L391.771 857.152L755.566 857.152L755.566 893.793L822.742 893.793L822.742 433.160L574.105 433.160L583.701 349.409L900.386 349.409L900.386 290.957L589.808 290.957L597.660 194.120C689.263 184.523 775.631 172.310 845.424 157.479L794.824 104.262C656.111 135.668 397.878 154.862 186.755 161.841M520.888 290.957L253.930 290.957L253.930 215.930C342.044 213.313 435.391 208.079 525.250 200.227M391.771 605.897L755.566 605.897L755.566 680.052L391.771 680.052M391.771 557.915L391.771 486.377L755.566 486.377L755.566 557.915M391.771 728.035L755.566 728.035L755.566 803.935L391.771 803.935"/></svg>