<svg xmlns="http://www.w3.org/2000/svg" viewBox="0 0 1000 1000" fill="currentColor"><path d="M278.757 332.432L711.189 332.432L711.189 394.703L278.757 394.703M278.757 442.270L711.189 442.270L711.189 506.270L278.757 506.270M278.757 221.730L711.189 221.730L711.189 284L278.757 284M479.405 572.865C473.351 599.676 463.838 623.892 452.595 646.378L125.676 646.378L125.676 703.459L413.676 703.459C348.811 779.568 243.297 821.946 106.649 847.027C118.757 859.135 135.189 884.216 142.108 899.784C300.378 867.784 418 811.568 488.054 708.649C558.973 816.757 682.649 871.243 856.486 892C864.270 873.838 880.703 847.892 893.676 834.054C737.135 821.946 618.649 782.162 552.054 703.459L874.649 703.459L874.649 646.378L751.838 646.378L773.459 623.892C744.054 602.270 686.973 574.595 642.865 557.297L607.405 589.297C643.730 604 687.838 626.486 718.108 646.378L520.919 646.378C529.568 627.351 536.486 607.459 541.676 585.838M454.324 99.784C449.135 120.541 438.757 147.351 429.243 171.568L211.297 171.568L211.297 556.432L781.243 556.432L781.243 171.568L497.568 171.568C507.081 152.541 518.324 131.784 527.838 110.162"/></svg>