<svg xmlns="http://www.w3.org/2000/svg" viewBox="0 0 1000 1000" fill="currentColor"><path d="M280.059 627.075C322.840 654.455 378.455 693.813 404.979 719.481L443.481 679.267C414.390 655.310 357.920 616.807 315.995 591.995M748.936 468.786L748.936 536.380L582.947 536.380L582.947 468.786M748.936 420.016L582.947 420.016L582.947 358.412L748.936 358.412M474.283 119.695C487.118 139.374 501.663 163.332 512.786 185.578L173.963 185.578L173.963 438.840C173.963 564.615 167.973 739.160 99.524 862.369C114.070 869.214 140.594 886.326 152.572 897.449C224.444 767.396 235.567 572.316 235.567 438.840L235.567 242.904L517.920 242.904L517.920 311.353L298.027 311.353L298.027 358.412L517.920 358.412L517.920 420.016L256.957 420.016L256.957 468.786L517.920 468.786L517.920 536.380L290.326 536.380L290.326 583.439L517.920 583.439L517.920 681.834C413.535 723.759 304.872 767.396 233.856 792.209L259.524 845.257C332.251 814.455 427.225 773.385 517.920 732.316L517.920 823.866C517.920 838.412 512.786 842.690 497.385 843.545C482.840 844.401 430.647 844.401 377.599 842.690C387.011 858.091 395.567 882.048 399.845 897.449C470.861 897.449 516.209 897.449 545.299 888.893C571.824 879.481 582.947 863.225 582.947 823.866L582.947 682.690C649.684 766.540 746.369 827.289 861.021 857.235C869.578 842.690 885.834 818.733 899.524 806.754C824.230 790.497 756.636 762.262 700.166 722.904C747.225 698.947 801.984 665.578 845.620 633.920L797.706 596.273C763.481 625.364 706.155 663.866 659.952 692.102C628.294 663.866 602.626 633.064 582.947 598.840L582.947 583.439L809.684 583.439L809.684 473.064L893.535 473.064L893.535 416.594L809.684 416.594L809.684 311.353L582.947 311.353L582.947 242.904L884.979 242.904L884.979 185.578L587.225 185.578C574.390 159.909 554.711 127.396 536.743 101.727"/></svg>