<svg xmlns="http://www.w3.org/2000/svg" viewBox="0 0 1000 1000" fill="currentColor"><path d="M159.045 157.819C206.819 191.695 264.148 240.338 292.812 273.345L337.112 232.520C308.447 199.512 249.381 153.476 201.607 120.468M116.482 394.952C165.993 425.354 225.928 469.654 254.593 500.924L298.024 457.493C267.622 427.091 205.950 384.529 157.307 356.733M134.723 839.686L189.446 879.643C233.746 803.204 286.732 702.444 325.820 616.451L277.177 578.231C233.746 670.305 175.548 776.277 134.723 839.686M450.901 726.765L589.012 726.765L589.012 813.628L450.901 813.628M790.532 726.765L790.532 813.628L648.078 813.628L648.078 726.765M450.901 674.648L450.901 590.392L589.012 590.392L589.012 674.648M790.532 674.648L648.078 674.648L648.078 590.392L790.532 590.392M598.567 147.395L598.567 201.250L680.217 201.250L680.217 210.805C680.217 284.637 664.582 393.215 593.355 475.734C608.122 481.814 632.443 494.844 642.866 503.530C716.699 416.668 735.809 295.061 735.809 211.673L735.809 201.250L824.408 201.250C820.065 357.602 814.853 414.062 804.430 428.828C799.218 436.646 792.269 438.383 782.714 438.383C771.422 438.383 746.232 437.515 718.436 434.909C727.123 450.544 733.203 474.865 734.072 491.369C762.736 493.106 791.401 493.106 808.773 491.369C829.620 488.763 842.649 482.683 854.810 467.048C873.051 444.464 878.263 372.368 883.474 173.454C883.474 165.636 884.343 147.395 884.343 147.395M391.835 536.537L391.835 899.621L450.901 899.621L450.901 867.482L790.532 867.482L790.532 896.147L851.336 896.147L851.336 536.537M368.382 500.924L368.382 500.055C382.280 486.157 403.127 472.260 545.581 399.295C551.661 415.799 556.873 431.434 560.347 443.595L608.990 418.405C595.961 376.711 563.822 305.484 536.895 251.630L490.858 272.477C503.018 296.798 515.179 324.594 526.471 351.521L422.237 401.901L422.237 200.381C477.828 187.352 539.501 169.111 584.669 148.264L544.712 99.621C501.281 123.074 427.448 147.395 364.039 163.030L364.039 382.792C364.039 422.748 347.535 444.464 336.243 454.018C345.798 464.442 362.302 487.895 368.382 500.924"/></svg>