<svg xmlns="http://www.w3.org/2000/svg" viewBox="0 0 1000 1000" fill="currentColor"><path d="M593.447 504.702L593.447 571.936L470.043 571.936C497.277 541.298 521.106 506.404 541.532 468.957L704.085 468.957C722.809 504.702 746.638 540.447 773.872 571.936L652.170 571.936L652.170 504.702M395.149 695.340L395.149 748.106L593.447 748.106L593.447 890.234L652.170 890.234L652.170 748.106L853.872 748.106L853.872 695.340L652.170 695.340L652.170 623.851L777.277 623.851L777.277 576.191C802.809 605.979 830.894 631.511 858.979 649.383C868.340 634.915 886.213 614.489 899.830 604.277C850.468 576.191 800.255 524.277 766.213 468.957L890.468 468.957L890.468 416.191L566.213 416.191C575.574 395.766 583.234 373.638 590.894 351.511L851.319 351.511L851.319 300.447L606.213 300.447L619.830 241.723L865.787 241.723L865.787 189.809L630.043 189.809L641.957 114.064L583.234 108.106C579.830 136.191 575.574 163.426 571.319 189.809L397.702 189.809L397.702 241.723L561.106 241.723C556.851 262.149 551.745 281.723 546.638 300.447L413.021 300.447L413.021 351.511L530.468 351.511C521.957 374.489 513.447 395.766 503.234 416.191L361.106 416.191L361.957 468.957L474.298 468.957C437.702 527.681 390.894 575.340 330.468 612.787C343.234 622.149 367.064 645.979 374.723 657.043C409.617 632.362 441.106 605.128 468.340 574.489L468.340 623.851L593.447 623.851L593.447 695.340M218.128 108.957L218.128 280.021L111.745 280.021L111.745 339.596L218.128 339.596L218.128 514.064L99.830 549.809L112.596 611.936L218.128 577.894L218.128 817.043C218.128 828.957 213.872 832.362 203.660 832.362C193.447 833.213 160.255 833.213 123.660 831.511C131.319 849.383 139.830 875.766 141.532 891.085C196 891.936 228.340 889.383 248.766 879.170C270.043 869.809 277.702 851.936 277.702 817.043L277.702 558.319L371.319 527.681L361.957 468.957L277.702 495.340L277.702 339.596L369.617 339.596L369.617 280.021L277.702 280.021L277.702 108.957"/></svg>