<svg xmlns="http://www.w3.org/2000/svg" viewBox="0 0 1000 1000" fill="currentColor"><path d="M279.770 421.882L722.979 421.882L722.979 477.497L279.770 477.497M279.770 326.909L722.979 326.909L722.979 381.668L279.770 381.668M468.005 641.775L468.005 703.380L288.326 703.380C322.551 677.711 352.497 650.332 377.310 621.241L630.572 621.241C685.332 688.834 775.171 749.583 860.733 778.674C869.289 764.128 886.401 741.027 900.091 729.904C828.219 709.369 751.214 668.299 699.021 621.241L881.267 621.241L881.267 569.048L416.668 569.048C427.791 552.791 437.203 536.535 444.904 519.422L788.005 519.422L788.005 285.840L217.310 285.840L217.310 519.422L376.455 519.422C368.754 535.679 357.631 552.791 345.652 569.048L116.348 569.048L116.348 621.241L298.594 621.241C250.679 666.588 184.797 708.513 100.091 740.171C112.925 749.583 130.037 770.973 137.738 785.519C194.209 762.417 242.979 735.893 284.904 705.947L284.904 752.150L468.005 752.150L468.005 830.866L162.551 830.866L162.551 883.059L843.620 883.059L843.620 830.866L531.321 830.866L531.321 752.150L711.856 752.150L711.856 703.380L531.321 703.380L531.321 641.775M616.027 117.283L616.027 175.465L382.444 175.465L382.444 117.283L319.984 117.283L319.984 175.465L130.037 175.465L130.037 228.513L319.984 228.513L319.984 277.283L382.444 277.283L382.444 228.513L616.027 228.513L616.027 277.283L679.342 277.283L679.342 228.513L871.856 228.513L871.856 175.465L679.342 175.465L679.342 117.283"/></svg>