<svg xmlns="http://www.w3.org/2000/svg" viewBox="0 0 1000 1000" fill="currentColor"><path d="M100.468 392.674C152.828 421 224.073 462.202 259.266 486.236L295.318 433.017C258.408 408.983 186.305 370.356 135.661 345.464M126.219 834.734L180.296 878.511C230.940 798.682 291.026 691.386 336.519 600.399L289.309 558.339C239.524 655.335 172.571 768.639 126.219 834.734M140.811 158.339C194.030 187.524 265.275 230.442 301.326 255.335L339.094 203.833L339.094 216.708L769.137 216.708L769.137 795.249C769.137 814.133 761.412 820.142 742.528 821C721.069 821.858 647.249 822.717 571.712 819.283C582.013 838.167 594.030 869.069 597.464 887.953C691.884 887.953 752.828 887.094 787.163 875.936C820.639 864.777 832.657 843.318 832.657 796.107L832.657 216.708L900.468 216.708L900.468 154.047L339.094 154.047L339.094 202.116C301.326 178.940 230.082 139.455 177.721 111.987M390.597 336.021L390.597 708.554L449.824 708.554L449.824 648.468L661.841 648.468L661.841 336.021M449.824 395.249L601.755 395.249L601.755 590.099L449.824 590.099"/></svg>