<svg xmlns="http://www.w3.org/2000/svg" viewBox="0 0 1000 1000" fill="currentColor"><path d="M293.837 683.529L293.837 813.044C293.837 882.648 320.269 900.269 423.352 900.269C445.379 900.269 604.850 900.269 626.877 900.269C710.577 900.269 732.604 874.718 741.414 768.110C722.912 764.586 695.599 754.894 680.621 744.322C676.216 828.903 669.167 840.357 622.471 840.357C587.229 840.357 453.308 840.357 426.877 840.357C370.489 840.357 359.916 835.952 359.916 813.044L359.916 683.529M425.996 658.859C473.573 702.912 528.198 764.586 551.987 805.115L605.731 768.991C580.181 727.581 524.674 668.551 476.216 627.141M738.771 684.410C779.300 742.559 821.590 822.736 838.330 872.075L900.004 846.524C882.383 796.304 838.330 719.652 796.921 661.502M190.753 685.291C169.608 736.392 135.247 807.758 100.004 852.692L160.797 881.767C192.515 835.070 225.115 762.824 248.022 710.841M346.700 100.269C304.410 178.683 224.233 274.718 107.934 342.559C122.912 353.132 144.938 375.159 154.630 390.137C176.656 376.040 197.802 361.062 218.066 345.203L218.066 364.586L719.388 364.586L719.388 438.595L229.520 438.595L229.520 490.577L719.388 490.577L719.388 566.348L199.564 566.348L199.564 621.855L784.586 621.855L784.586 309.960L607.493 309.960C634.806 273.837 663 232.427 683.264 195.423L638.330 166.348L627.758 168.991L382.824 168.991C395.159 150.489 406.612 131.987 417.185 113.485M260.357 309.960C290.313 282.648 317.626 253.573 341.414 224.498L590.753 224.498C573.132 253.573 551.987 285.291 530.841 309.960"/></svg>