<svg xmlns="http://www.w3.org/2000/svg" viewBox="0 0 1000 1000" fill="currentColor"><path d="M769.495 106.720C629.280 135.968 381.538 154.032 181.108 160.914C187.129 175.538 194.871 200.484 195.731 215.968C280.892 214.247 375.516 209.946 466.699 203.065L466.699 283.065L126.914 283.065L126.914 342.419L466.699 342.419L466.699 541.989C393.581 661.559 252.505 767.366 100.247 810.376C114.871 824.140 133.796 848.226 143.258 863.710C268.849 821.559 384.978 737.258 466.699 633.172L466.699 892.957L533.796 892.957L533.796 629.731C614.656 736.398 731.645 824.140 858.097 868.011C867.559 850.806 886.484 826.720 900.247 813.817C748.849 769.946 606.914 660.699 533.796 540.269L533.796 342.419L875.301 342.419L875.301 283.065L533.796 283.065L533.796 197.903C632.720 189.301 726.484 177.258 798.742 162.634M124.333 585.860L138.957 640.914L315.301 607.366L315.301 647.796L375.516 647.796L375.516 366.505L315.301 366.505L315.301 426.720L150.140 426.720L150.140 479.194L315.301 479.194L315.301 556.613M807.344 398.333C775.516 415.538 729.925 436.183 684.333 453.387L684.333 365.645L624.118 365.645L624.118 576.398C624.118 638.333 640.462 654.677 705.839 654.677C719.602 654.677 791 654.677 804.763 654.677C855.516 654.677 871.860 634.892 878.742 557.473C861.538 554.032 837.452 545.430 824.548 535.108C822.828 591.882 818.527 599.624 798.742 599.624C783.258 599.624 724.763 599.624 712.720 599.624C687.774 599.624 684.333 596.183 684.333 576.398L684.333 506.720C737.667 489.516 798.742 468.011 846.914 446.505"/></svg>