<svg xmlns="http://www.w3.org/2000/svg" viewBox="0 0 1000 1000" fill="currentColor"><path d="M502.952 558.337C538.032 612.241 579.957 685.824 600.492 730.316L655.251 704.647C634.717 660.155 591.936 589.995 555.144 536.947M728.834 287.963L728.834 417.160L470.439 417.160L470.439 476.198L728.834 476.198L728.834 815.021C728.834 827.856 723.701 832.134 710.866 832.989C697.176 832.989 650.118 832.989 600.492 831.278C609.048 850.102 619.316 877.481 621.882 894.594C688.620 894.594 731.401 893.738 757.070 883.471C783.594 872.348 793.005 854.380 793.005 815.877L793.005 476.198L890.545 476.198L890.545 417.160L793.005 417.160L793.005 287.963M416.535 278.551C388.299 372.668 329.262 485.610 256.535 554.059C266.802 569.460 281.348 596.840 286.481 612.241C310.439 589.995 333.540 563.471 354.930 534.380L354.930 895.449L415.679 895.449L415.679 439.406C441.348 392.348 462.738 343.578 479.850 296.519M478.139 116.840C490.973 142.508 505.519 173.310 517.497 201.545L173.540 201.545L173.540 513.845C173.540 621.652 168.406 764.540 108.513 862.080C123.914 868.925 153.005 887.749 164.128 899.727C228.299 794.487 237.711 630.209 237.711 512.989L237.711 261.439L889.690 261.439L889.690 201.545L591.080 201.545C579.102 170.743 558.567 131.385 541.455 99.727"/></svg>