<svg xmlns="http://www.w3.org/2000/svg" viewBox="0 0 1000 1000" fill="currentColor"><path d="M375.758 100.073L375.758 211.882L147.806 211.882L147.806 276.021L375.758 276.021L375.758 388.697L197.210 388.697C187.676 466.703 171.208 566.378 156.473 631.384L354.957 631.384C326.354 718.924 260.482 792.597 115.737 848.068C133.072 860.203 158.207 884.471 168.608 900.073C332.421 834.200 400.894 740.593 427.763 631.384L575.108 631.384L575.108 897.472L641.847 897.472L641.847 631.384L817.795 631.384C812.595 710.257 807.394 742.326 798.727 752.727C792.660 759.661 784.859 760.528 770.991 760.528C758.857 760.528 724.187 759.661 687.784 757.061C697.319 772.662 703.386 796.931 705.119 814.265C743.256 815.999 781.392 815.999 800.460 815.132C824.729 812.532 840.330 808.198 853.332 793.464C870.666 772.662 877.600 721.524 883.667 592.380C883.667 582.846 883.667 567.245 883.667 567.245L641.847 567.245L641.847 452.835L836.863 452.835L836.863 211.882L641.847 211.882L641.847 100.939L575.108 100.939L575.108 211.882L444.231 211.882L444.231 100.073M249.215 452.835L375.758 452.835L375.758 459.769C375.758 497.039 374.025 533.442 369.691 567.245L230.146 567.245M575.108 452.835L575.108 567.245L439.030 567.245C443.364 532.575 444.231 497.039 444.231 459.769L444.231 452.835M575.108 276.021L575.108 388.697L444.231 388.697L444.231 276.021M641.847 276.021L770.125 276.021L770.125 388.697L641.847 388.697"/></svg>