<svg xmlns="http://www.w3.org/2000/svg" viewBox="0 0 1000 1000" fill="currentColor"><path d="M422.324 416.919L422.324 501.676L259.730 501.676L259.730 416.919M200.054 362.432L200.054 546.649C200.054 640.054 192.270 765.459 125.676 856.270C138.649 864.054 162.865 884.811 172.378 897.784C214.757 841.568 237.243 768.919 248.486 698L422.324 698L422.324 815.622C422.324 826 418.865 829.459 407.622 830.324C397.243 831.189 360.919 831.189 321.135 829.459C329.784 845.027 339.297 870.973 341.892 887.405C397.243 887.405 431.838 886.541 454.324 876.162C476.811 865.784 482.865 848.486 482.865 817.351L482.865 362.432M422.324 644.378L255.405 644.378C258 613.243 259.730 582.973 259.730 555.297L422.324 555.297M809.784 416.919L809.784 501.676L634.216 501.676L634.216 416.919M574.541 362.432L574.541 570.865C574.541 659.946 567.622 775.838 500.162 858C512.270 864.919 536.486 887.405 546 899.514C591.838 844.162 615.189 770.649 625.568 699.730L809.784 699.730L809.784 816.486C809.784 827.730 806.324 830.324 794.216 831.189C782.973 831.189 744.919 832.054 703.405 830.324C712.054 845.892 721.568 871.838 725.027 889.135C783.838 889.135 819.297 888.270 842.649 878.757C865.135 867.514 872.054 849.351 872.054 816.486L872.054 362.432M809.784 646.973L631.622 646.973C633.351 621.027 634.216 595.081 634.216 571.730L634.216 555.297L809.784 555.297M495.838 99.514L495.838 246.541L258 246.541L258 129.784L194 129.784L194 305.351L873.784 305.351L873.784 129.784L807.189 129.784L807.189 246.541L561.568 246.541L561.568 99.514"/></svg>