<svg xmlns="http://www.w3.org/2000/svg" viewBox="0 0 1000 1000" fill="currentColor"><path d="M234.784 340.280C280.187 381.143 332.855 440.167 358.280 478.305L403.683 435.627C378.258 400.212 326.498 344.821 278.371 304.866M124.001 267.636L124.001 850.610L807.770 850.610L807.770 899.645L875.874 899.645L875.874 265.820L807.770 265.820L807.770 787.045L192.106 787.045L192.106 267.636M466.339 275.808L466.339 466.501C372.809 525.524 277.463 587.272 214.807 623.595L248.405 679.894C311.061 637.216 389.154 582.732 466.339 528.249L466.339 672.630C466.339 683.527 462.707 687.159 450.902 687.159C438.190 688.067 397.327 688.067 353.740 686.251C362.821 704.412 371.901 729.838 374.625 747.999C434.557 747.999 476.328 747.091 500.846 737.102C526.271 727.114 533.536 708.952 533.536 673.538L533.536 500.099C608.905 563.663 686.998 639.940 729.677 690.791L772.355 643.572C737.849 603.617 679.733 549.134 617.985 496.467C666.112 448.339 721.504 383.867 766.907 326.659L709.699 296.694C677.917 346.637 624.342 413.833 578.031 462.868L533.536 427.454L533.536 303.050C618.893 259.463 712.423 195.899 776.896 135.059L730.585 99.645L716.056 103.277L210.267 103.277L210.267 165.933L644.319 165.933C592.560 206.796 525.363 248.566 466.339 275.808"/></svg>