<svg xmlns="http://www.w3.org/2000/svg" viewBox="0 0 1000 1000" fill="currentColor"><path d="M122.888 412.104L122.888 767.765C122.888 875.513 172.471 900.304 325.987 900.304C360.313 900.304 650.182 900.304 687.369 900.304C841.839 900.304 872.352 855.489 889.515 683.856C867.584 680.042 836.118 667.646 817.048 655.250C805.605 801.138 790.349 829.744 688.323 829.744C623.484 829.744 372.709 829.744 323.126 829.744C217.286 829.744 196.309 818.302 196.309 767.765L196.309 481.710L693.091 481.710L693.091 541.782L768.418 541.782L768.418 100.304L110.492 100.304L110.492 172.771L693.091 172.771L693.091 412.104"/></svg>