<svg xmlns="http://www.w3.org/2000/svg" viewBox="0 0 1000 1000" fill="currentColor"><path d="M536.759 379.310C579 451.724 629.862 548.276 654 605.172L709.172 577.586C683.310 522.414 630.724 428.448 587.621 358.621M467.793 132.759L467.793 496.552C467.793 620.690 456.586 762.069 336.759 859.483C350.552 868.103 374.690 887.931 384.172 900C511.759 796.552 529 630.172 529 497.414L529 193.103L718.655 193.103L718.655 781.034C718.655 828.448 722.103 843.103 734.172 856.034C746.241 868.103 763.483 873.276 780.724 873.276C789.345 873.276 808.310 873.276 818.655 873.276C833.310 873.276 848.828 869.828 859.172 861.207C870.379 852.586 877.276 839.655 881.586 818.966C885.034 800.862 887.621 747.414 888.483 705.172C872.966 700 854 690.517 841.931 679.310C841.931 725.862 841.069 766.379 839.345 782.759C837.621 793.103 834.172 802.586 831.586 806.897C828.138 810.345 821.241 811.207 815.207 811.207C808.310 811.207 801.414 811.207 796.241 811.207C790.207 811.207 785.897 808.621 781.586 805.172C779 802.586 777.276 795.690 777.276 787.931L777.276 132.759M111.759 263.793L111.759 715.517L162.621 715.517L162.621 321.552L231.586 321.552L231.586 892.241L287.621 892.241L287.621 321.552L360.897 321.552L360.897 643.103C360.897 649.138 359.172 651.724 351.414 651.724C345.379 651.724 327.276 651.724 304 651.724C311.759 667.241 319.517 692.241 321.241 707.759C354 707.759 375.552 706.897 391.069 696.552C406.586 686.207 410.034 668.103 410.034 643.966L410.034 263.793L287.621 263.793L287.621 100L231.586 100L231.586 263.793"/></svg>