<svg xmlns="http://www.w3.org/2000/svg" viewBox="0 0 1000 1000" fill="currentColor"><path d="M361.391 557.826L361.391 666.522L210.957 666.522L210.957 557.826M361.391 502.174L210.957 502.174L210.957 404.783L361.391 404.783M508.348 334.348L508.348 553.478C508.348 654.348 491.826 770 358.783 850.870C371.826 861.304 393.565 886.522 401.391 899.565C489.217 846.522 533.565 772.609 553.565 697.826L781.391 697.826L781.391 817.826C781.391 830.870 777.043 834.348 762.261 835.217C749.217 836.087 701.391 836.087 651.826 834.348C660.522 850.870 670.957 878.696 673.565 895.217C741.391 895.217 NaN 895.217 810.957 883.913C836.174 874.348 844.870 855.217 844.870 818.696L844.870 334.348M570.957 391.739L781.391 391.739L781.391 486.522L570.957 486.522M570.957 543.043L781.391 543.043L781.391 641.304L565.739 641.304C569.217 611.739 570.957 582.174 570.957 554.348M150.957 347.391L150.957 783.913L210.957 783.913L210.957 723.913L422.261 723.913L422.261 347.391M619.652 99.565L619.652 174.348L373.565 174.348L373.565 99.565L310.087 99.565L310.087 174.348L117.913 174.348L117.913 233.478L310.087 233.478L310.087 309.130L373.565 309.130L373.565 233.478L619.652 233.478L619.652 309.130L684.870 309.130L684.870 233.478L882.261 233.478L882.261 174.348L684.870 174.348L684.870 99.565"/></svg>