<svg xmlns="http://www.w3.org/2000/svg" viewBox="0 0 1000 1000" fill="currentColor"><path d="M801.676 409.672C745.963 454.939 665.876 504.558 579.695 549.825L579.695 343.514L512.666 343.514L512.666 583.775C468.270 605.538 423.003 626.430 378.607 644.711C388.183 657.768 400.370 678.661 404.723 694.330L512.666 647.322L512.666 779.640C512.666 864.079 537.911 886.713 624.962 886.713C643.243 886.713 766.855 886.713 786.877 886.713C867.835 886.713 886.986 847.540 895.691 716.092C876.540 711.740 849.554 700.423 834.755 689.107C829.532 801.403 822.568 824.036 782.524 824.036C756.409 824.036 651.948 824.036 631.055 824.036C587.530 824.036 579.695 816.201 579.695 780.510L579.695 615.984C680.675 567.235 776.431 515.004 848.683 462.774M326.376 340.032C275.887 442.752 192.318 542.861 104.396 604.667C120.065 615.984 146.181 638.617 158.368 650.804C188.836 626.430 218.433 597.703 248.030 565.494L248.030 899.770L314.189 899.770L314.189 483.666C342.916 444.493 369.032 402.708 389.924 360.053M606.681 99.770L606.681 184.210L387.312 184.210L387.312 99.770L322.024 99.770L322.024 184.210L112.231 184.210L112.231 246.887L322.024 246.887L322.024 321.751L387.312 321.751L387.312 246.887L606.681 246.887L606.681 326.103L673.711 326.103L673.711 246.887L877.410 246.887L877.410 184.210L673.711 184.210L673.711 99.770"/></svg>