<svg xmlns="http://www.w3.org/2000/svg" viewBox="0 0 1000 1000" fill="currentColor"><path d="M391.749 288.587C322.635 342.151 225.875 391.395 147.257 419.905L190.454 466.557C273.391 433.728 370.151 377.572 444.449 317.961M549.849 324.009C636.242 362.886 745.097 425.089 798.661 467.421L844.449 426.816C786.566 384.484 677.711 325.737 593.045 288.587M394.341 442.367L394.341 522.713L161.080 522.713L161.080 583.188L392.613 583.188C384.838 672.173 335.594 777.572 108.380 847.551C123.931 861.374 142.937 884.700 152.441 900.251C402.117 822.497 452.225 695.499 459.136 583.188L631.922 583.188L631.922 796.579C631.922 867.421 650.929 886.428 715.724 886.428C729.546 886.428 792.613 886.428 807.300 886.428C868.639 886.428 885.054 852.734 891.102 722.281C873.823 717.097 845.313 706.730 831.490 695.499C828.898 807.810 825.443 824.225 801.253 824.225C787.430 824.225 735.594 824.225 726.091 824.225C701.037 824.225 697.581 819.905 697.581 795.715L697.581 522.713L460 522.713L460 442.367M422.851 116.665C437.538 141.719 452.225 172.821 463.456 199.603L126.523 199.603L126.523 345.607L191.317 345.607L191.317 257.486L790.886 257.486L790.886 341.287L858.272 341.287L858.272 199.603L542.073 199.603C529.978 171.093 509.244 130.488 490.238 100.251"/></svg>