<svg xmlns="http://www.w3.org/2000/svg" viewBox="0 0 1000 1000" fill="currentColor"><path d="M313.084 615.793L313.084 672.812L542.890 672.812C517.836 734.151 454.769 798.946 301.853 848.190C315.676 860.285 334.683 881.883 342.458 895.706C488.462 843.006 560.168 776.484 593.862 709.961C631.875 781.667 703.581 856.829 864.272 890.523C871.184 874.108 886.734 849.918 899.693 836.095C732.091 805.857 665.568 735.879 636.194 672.812L878.095 672.812L878.095 615.793L621.508 615.793C622.371 601.970 623.235 589.011 623.235 576.052L623.235 500.026L834.035 500.026L834.035 444.734L472.048 444.734C483.279 423.136 493.646 401.538 502.285 379.076L444.402 363.525C417.620 433.503 372.695 503.482 321.724 549.270C337.274 557.045 362.328 573.460 373.559 582.963C396.022 559.637 418.484 531.991 439.218 500.026L559.305 500.026L559.305 575.188C559.305 588.147 558.441 601.970 557.577 615.793M399.477 139.767L399.477 195.922L686.302 195.922L670.752 299.594L319.996 299.594L319.996 356.613L883.279 356.613L883.279 299.594L733.819 299.594C742.458 250.350 750.233 193.330 756.281 142.359L710.492 137.175L700.125 139.767M275.935 103.482C237.058 237.391 172.263 370.436 99.693 458.557C111.788 474.972 129.067 509.529 135.114 524.216C158.441 494.842 181.767 461.149 203.365 424.864L203.365 893.114L267.296 893.114L267.296 301.322C294.078 242.575 316.540 181.235 335.546 119.896"/></svg>