<svg xmlns="http://www.w3.org/2000/svg" viewBox="0 0 1000 1000" fill="currentColor"><path d="M364.634 614.968C458.398 643.355 588.290 688.086 654.527 716.473L683.774 657.978C615.817 631.312 484.204 590.022 393.022 565.075M257.108 765.505C397.323 799.914 585.710 859.269 682.054 899.699L712.161 839.484C612.376 799.914 423.129 744.860 287.215 713.892M659.688 244.215C618.398 300.989 560.763 350.882 495.387 393.892C440.333 356.903 394.742 314.753 359.473 267.441L379.258 244.215M399.043 99.699C352.591 189.161 262.269 299.269 136.677 379.269C151.301 389.591 171.086 412.817 180.548 427.441C233.022 391.312 280.333 351.742 320.763 309.591C354.312 352.602 394.742 392.172 439.473 426.581C337.108 484.215 218.398 525.505 106.570 547.011C119.473 560.774 134.097 589.161 139.258 607.226C259.688 579.699 386.140 533.247 496.247 467.011C597.753 531.527 719.903 577.118 851.516 602.065C860.118 583.140 878.183 555.613 892.806 540.129C768.075 521.204 651.086 482.495 553.882 429.161C638.183 369.806 710.441 296.688 757.753 209.806L714.742 184.860L703.559 187.441L422.269 187.441C439.473 162.495 454.957 137.548 468.720 113.462"/></svg>