<svg xmlns="http://www.w3.org/2000/svg" viewBox="0 0 1000 1000" fill="currentColor"><path d="M573.351 146.449C655.159 206.729 758.496 294.565 807.581 351.400L863.555 309.205C811.026 253.230 704.244 168.839 625.019 110.281M356.343 117.170C302.091 188.645 215.977 260.981 135.891 306.621C151.392 317.816 177.226 341.067 189.282 353.123C266.785 301.454 358.066 220.507 419.207 142.143M494.126 248.925C417.484 378.957 258.173 503.822 99.723 555.491C114.363 571.853 130.724 599.409 139.336 618.354C178.948 602.854 219.422 582.186 258.173 559.797L258.173 888.752L323.620 888.752L323.620 853.446L676.688 853.446L676.688 887.030L744.718 887.030L744.718 566.686C780.025 587.353 815.332 604.576 850.638 618.354C861.833 599.409 883.362 571.853 899.723 557.213C762.802 512.434 613.825 410.819 532.877 308.343L547.517 285.093M323.620 795.749L323.620 600.270L676.688 600.270L676.688 795.749M284.869 542.574C364.955 490.905 439.013 426.320 495.848 357.428C551.822 425.459 626.742 490.905 705.967 542.574"/></svg>