<svg xmlns="http://www.w3.org/2000/svg" viewBox="0 0 1000 1000" fill="currentColor"><path d="M191.965 146.908C232.879 208.714 275.534 292.283 292.074 343.643L354.751 316.657C337.341 264.427 292.945 183.469 251.160 123.404M742.128 120.792C716.884 182.598 671.617 268.779 635.055 321.010L692.509 343.643C729.071 292.283 775.208 213.066 810.899 145.166M462.694 99.900L462.694 382.816L166.720 382.816L166.720 447.234L462.694 447.234L462.694 587.386L110.137 587.386L110.137 652.675L462.694 652.675L462.694 899.900L530.594 899.900L530.594 652.675L889.245 652.675L889.245 587.386L530.594 587.386L530.594 447.234L838.755 447.234L838.755 382.816L530.594 382.816L530.594 99.900"/></svg>