<svg xmlns="http://www.w3.org/2000/svg" viewBox="0 0 1000 1000" fill="currentColor"><path d="M424.478 277.557C423.609 363.550 413.186 475.603 388.864 542.486L439.244 558.122C464.434 484.289 473.989 369.631 472.252 282.769M518.289 108.176L518.289 431.303C518.289 589.392 502.654 742.269 361.068 854.321C373.229 863.876 392.339 884.723 401.025 896.884C555.640 774.408 574.749 607.633 574.749 431.303L574.749 108.176M141.307 294.929C157.811 340.966 169.103 402.638 169.972 441.726L221.220 430.434C219.483 391.346 206.454 330.543 189.081 285.375M632.947 295.798C649.451 341.835 661.611 403.507 663.349 442.595L714.597 431.303C711.991 391.346 698.962 331.412 679.852 285.375M183.870 122.942C198.636 150.738 215.140 185.483 226.432 215.885L110.037 215.885L110.037 271.477L382.784 271.477L382.784 215.885L290.710 215.885C278.549 182.877 257.702 139.446 237.724 105.570M113.511 604.159L113.511 658.882L215.140 658.882C210.797 726.634 190.819 805.679 113.511 856.927C126.541 867.351 144.782 887.329 153.468 900.358C242.936 836.080 269.863 741.401 275.944 658.882L381.915 658.882L381.915 604.159L277.681 604.159L277.681 499.924L389.733 499.924L389.733 444.332L317.637 444.332C332.404 401.770 348.908 344.441 362.806 295.798L308.951 281.900C301.134 329.674 282.024 398.295 267.257 444.332L101.351 444.332L101.351 499.924L216.877 499.924L216.877 604.159M682.458 117.731C698.962 147.264 715.466 183.746 727.626 215.016L604.282 215.016L604.282 270.608L885.716 270.608L885.716 215.016L791.036 215.016C778.007 181.140 757.160 135.972 736.313 100.358M604.282 626.743L604.282 682.334L715.466 682.334L715.466 899.490L777.138 899.490L777.138 682.334L886.584 682.334L886.584 626.743L777.138 626.743L777.138 502.530L897.876 502.530L897.876 447.807L815.357 447.807C831.861 402.638 850.971 343.572 866.606 293.192L811.014 280.163C801.459 328.806 781.481 400.033 764.109 447.807L593.859 447.807L593.859 502.530L715.466 502.530L715.466 626.743"/></svg>