<svg xmlns="http://www.w3.org/2000/svg" viewBox="0 0 1000 1000" fill="currentColor"><path d="M448.254 284.585C468.102 332.050 485.362 395.049 489.677 435.609L550.087 420.939C544.909 381.241 526.786 319.105 505.211 272.503M372.310 440.787L372.310 498.608L879.753 498.608L879.753 440.787L743.399 440.787C765.837 396.775 790.001 337.228 811.576 287.174L745.125 270.777C729.591 321.694 702.838 392.460 679.537 440.787M424.953 573.689L424.953 899.903L487.951 899.903L487.951 855.890L755.481 855.890L755.481 896.451L821.069 896.451L821.069 573.689M487.951 797.206L487.951 630.647L755.481 630.647L755.481 797.206M566.484 111.122C578.566 140.464 590.648 176.710 599.278 206.052L393.885 206.052L393.885 263.873L856.452 263.873L856.452 206.052L666.592 206.052C657.962 175.847 642.428 132.697 626.894 99.903M120.314 141.327L120.314 899.040L179.861 899.040L179.861 200.011L296.366 200.011C278.243 257.832 252.353 332.913 227.326 395.049C289.462 464.088 305.859 523.635 305.859 570.237C305.859 596.990 300.681 621.154 287.736 629.784C279.969 634.962 271.339 637.551 260.120 637.551C246.312 639.277 229.915 638.414 210.066 636.688C219.559 653.948 225.600 678.975 226.463 695.372C246.312 697.098 267.887 696.235 285.147 694.509C303.270 691.920 318.804 686.742 330.886 678.112C355.050 660.852 365.406 623.743 365.406 576.278C365.406 522.772 350.735 460.636 287.736 388.145C317.078 319.968 349.009 235.394 374.036 164.628L330.023 138.738L320.530 141.327"/></svg>