<svg xmlns="http://www.w3.org/2000/svg" viewBox="0 0 1000 1000" fill="currentColor"><path d="M539.978 100.162C539.978 149.406 541.706 198.650 544.298 246.166L180.583 246.166L180.583 488.931C180.583 601.242 172.808 750.702 101.102 856.965C116.652 864.741 144.298 887.203 155.529 900.162C235.011 786.123 247.970 611.609 247.970 489.795L247.970 483.747L406.069 483.747C402.613 632.343 398.294 687.635 387.063 700.594C380.151 708.369 372.376 710.097 359.417 710.097C344.730 710.097 307.581 710.097 267.840 705.778C278.207 722.192 285.119 748.110 285.983 766.253C328.315 768.844 368.056 768.844 390.518 767.117C413.844 764.525 428.531 758.477 442.354 742.063C460.497 718.737 464.816 645.302 469.136 450.918C469.136 442.279 470 423.272 470 423.272L247.970 423.272L247.970 309.233L548.618 309.233C558.985 449.190 579.719 577.052 612.549 676.404C555.529 742.063 489.006 795.626 412.117 836.231C425.940 849.190 449.266 875.972 459.633 889.795C526.156 850.054 585.767 802.538 638.467 745.518C678.207 834.503 730.043 888.067 796.566 888.067C863.089 888.067 887.279 844.870 898.510 697.138C881.231 691.091 857.041 676.404 842.354 661.717C837.171 776.620 826.803 821.544 801.749 821.544C757.689 821.544 718.812 772.300 686.847 687.635C750.778 604.698 801.749 506.210 838.898 393.035L774.104 376.620C746.458 463.877 709.309 542.495 662.657 611.609C640.194 527.808 623.780 425 614.276 309.233L891.598 309.233L891.598 246.166L610.821 246.166C608.229 198.650 607.365 150.270 607.365 100.162M649.698 142.495C704.989 171.004 771.512 215.065 804.341 246.166L844.946 201.242C811.253 171.868 743.002 129.536 688.575 102.754"/></svg>