<svg xmlns="http://www.w3.org/2000/svg" viewBox="0 0 1000 1000" fill="currentColor"><path d="M503.115 413.214L772.397 413.214L772.397 584.020L503.115 584.020M878.715 150.033L435.142 150.033L435.142 872.473L899.630 872.473L899.630 807.985L503.115 807.985L503.115 645.022L833.399 645.022L833.399 351.340L503.115 351.340L503.115 214.521L878.715 214.521M231.220 102.974L231.220 279.009L109.216 279.009L109.216 340.011L231.220 340.011L231.220 529.118L99.630 563.976L117.930 627.593L231.220 593.606L231.220 821.928C231.220 834.129 225.991 837.614 213.791 838.486C203.333 838.486 165.861 839.357 124.031 837.614C132.745 854.172 141.460 881.187 144.074 897.745C204.205 897.745 240.806 896.874 263.464 886.416C286.122 875.959 294.837 858.529 294.837 821.928L294.837 574.434L408.126 539.575L400.283 480.316L294.837 510.817L294.837 340.011L397.669 340.011L397.669 279.009L294.837 279.009L294.837 102.974"/></svg>