<svg xmlns="http://www.w3.org/2000/svg" viewBox="0 0 1000 1000" fill="currentColor"><path d="M351.628 148.361L351.628 383.153C351.628 519.759 345.651 716.984 280.763 858.713C293.570 863.836 318.330 880.058 327.721 890.303C395.171 743.451 405.416 525.735 405.416 382.299L405.416 203.857L764.861 203.857C765.715 610.260 756.323 887.742 843.410 887.742C885.245 887.742 894.637 847.614 899.760 722.961C889.514 714.423 874.146 697.347 863.901 683.686C863.047 760.527 859.632 828.830 849.386 828.830C812.673 827.977 817.796 511.221 821.211 148.361M448.959 431.819L448.959 777.603L492.503 777.603L492.503 471.947L563.367 471.947L563.367 881.765L607.764 881.765L607.764 471.947L675.213 471.947L675.213 724.668C675.213 730.645 673.506 732.352 668.383 733.206C662.407 733.206 646.185 733.206 626.547 732.352C632.524 744.305 639.354 763.089 641.916 775.895C669.237 775.895 688.020 774.188 701.681 766.504C715.342 757.966 718.757 746.013 718.757 724.668L718.757 431.819L613.741 431.819L613.741 340.463L724.733 340.463L724.733 287.528L441.275 287.528L441.275 340.463L556.537 340.463L556.537 431.819M259.418 109.086C225.267 240.570 167.209 370.346 99.760 456.578C110.005 471.947 127.081 506.952 132.204 521.466C156.110 491.584 178.308 456.578 199.653 418.158L199.653 888.596L256.857 888.596L256.857 299.481C280.763 243.131 301.254 183.366 317.476 124.455"/></svg>