<svg xmlns="http://www.w3.org/2000/svg" viewBox="0 0 1000 1000" fill="currentColor"><path d="M380 292.588L380 416.118L254.790 416.118L254.790 471.580L366.555 471.580C334.622 573.261 278.319 677.462 218.655 729.563C232.101 739.647 250.588 759.815 259.832 773.261C305.210 727.042 348.067 650.571 380 567.378L380 887.546L437.143 887.546L437.143 547.210C466.555 583.345 500.168 627.882 515.294 651.412L548.067 601.832C532.941 581.664 464.034 506.874 437.143 479.983L437.143 471.580L535.462 471.580L535.462 416.118L437.143 416.118L437.143 292.588M680 292.588L680 416.118L560.672 416.118L560.672 470.739L665.714 470.739C628.739 574.101 565.714 679.983 501.008 732.924C513.613 743.849 532.101 762.336 542.185 775.782C592.605 727.042 643.025 643.008 680 553.092L680 887.546L737.983 887.546L737.983 541.328C769.916 630.403 814.454 718.639 855.630 769.899C866.555 755.613 886.723 737.126 900.168 727.042C848.067 672.420 790.924 568.218 757.311 470.739L874.118 470.739L874.118 416.118L737.983 416.118L737.983 292.588M473.277 127.882C485.882 153.092 499.328 185.025 508.571 212.756L167.395 212.756L167.395 440.487C167.395 559.815 162.353 727.042 100.168 845.529C114.454 852.252 141.345 872.420 152.269 884.185C220.336 757.294 230.420 568.218 230.420 440.487L230.420 273.261L876.639 273.261L876.639 212.756L580.840 212.756C570.756 182.504 553.950 143.008 536.303 112.756"/></svg>