<svg xmlns="http://www.w3.org/2000/svg" viewBox="0 0 1000 1000" fill="currentColor"><path d="M565.344 102.978C540.398 187.280 494.806 267.280 439.753 318.892C450.075 324.914 465.559 335.237 478.462 344.699L466.419 344.699L466.419 422.118L122.333 422.118L122.333 480.613L395.022 480.613C324.484 591.581 209.215 700.828 104.269 755.882C118.892 767.925 139.538 792.011 150.720 807.495C264.269 738.677 388.140 612.226 462.978 480.613L466.419 480.613L466.419 715.452L284.914 715.452L284.914 772.226L466.419 772.226L466.419 896.957L530.935 896.957L530.935 772.226L711.581 772.226L711.581 715.452L530.935 715.452L530.935 480.613L538.677 480.613C614.376 607.065 739.968 734.376 853.516 802.333C863.839 785.129 884.484 761.043 899.968 749C795.882 694.806 678.032 587.280 605.774 480.613L877.602 480.613L877.602 422.118L530.935 422.118L530.935 344.699L504.269 344.699C529.215 316.312 553.301 281.903 573.946 244.054L627.280 244.054C654.806 280.183 681.473 325.774 692.656 355.022L751.151 330.075C740.828 306.849 720.183 274.161 698.677 244.054L881.043 244.054L881.043 189L601.473 189C611.796 165.774 620.398 142.548 628.140 118.462M227.280 102.978C200.613 189 154.161 274.161 99.968 330.075C115.452 337.817 142.118 355.882 154.161 366.204C182.548 333.516 210.075 290.505 235.022 244.054L275.452 244.054C296.097 281.043 316.742 325.774 324.484 355.022L381.258 334.376C374.376 310.290 358.032 275.882 340.828 244.054L487.925 244.054L487.925 189L261.688 189C272.011 165.774 281.473 142.548 290.075 118.462"/></svg>