<svg xmlns="http://www.w3.org/2000/svg" viewBox="0 0 1000 1000" fill="currentColor"><path d="M773.078 99.641L773.078 279.837L592.012 279.837L592.012 99.641L531.947 99.641L531.947 279.837L471.881 279.837L471.881 343.384L531.947 343.384L531.947 899.641L592.012 899.641L592.012 851.763L773.078 851.763L773.078 897.029L834.885 897.029L834.885 343.384L897.561 343.384L897.561 279.837L834.885 279.837L834.885 99.641M592.012 343.384L773.078 343.384L773.078 526.192L592.012 526.192M592.012 587.998L773.078 587.998L773.078 789.086L592.012 789.086M170.684 691.589L403.982 691.589L403.982 782.992L170.684 782.992M170.684 641.970L170.684 569.717C179.390 576.681 189.836 585.386 194.188 592.350C249.030 542.731 261.218 472.220 261.218 418.248L261.218 348.607L309.966 348.607L309.966 512.263C309.966 554.918 319.542 562.753 355.233 562.753C361.326 562.753 390.924 562.753 397.888 562.753L403.982 562.753L403.982 641.970M101.914 132.720L101.914 188.433L205.505 188.433L205.505 292.024L116.713 292.024L116.713 896.159L170.684 896.159L170.684 836.094L403.982 836.094L403.982 883.972L459.694 883.972L459.694 292.024L367.420 292.024L367.420 188.433L467.529 188.433L467.529 132.720M258.606 292.024L258.606 188.433L313.448 188.433L313.448 292.024M170.684 558.400L170.684 348.607L222.915 348.607L222.915 417.378C222.915 461.774 215.081 515.745 170.684 558.400M347.398 348.607L403.982 348.607L403.982 521.839C403.111 523.580 400.499 524.450 390.924 524.450C384.830 524.450 363.067 524.450 358.715 524.450C348.269 524.450 347.398 522.709 347.398 511.393"/></svg>