<svg xmlns="http://www.w3.org/2000/svg" viewBox="0 0 1000 1000" fill="currentColor"><path d="M360.567 397.831C374.420 421.208 385.675 453.242 389.139 473.156L443.684 458.437C438.489 438.524 426.368 408.221 411.649 385.710M523.338 396.965C539.788 420.342 556.238 452.377 563.165 473.156L615.113 455.840C608.186 435.061 591.736 404.758 572.688 382.247M274.853 118.177C289.571 134.628 306.887 155.407 319.009 173.589L158.835 173.589L158.835 216.879L461.866 216.879L461.866 255.840L202.126 255.840L202.126 295.667L461.866 295.667L461.866 336.359L118.143 336.359L118.143 380.515L211.649 380.515C187.407 409.087 148.446 441.121 106.022 458.437L145.848 493.069L151.909 490.472L151.909 529.433L460.134 529.433L460.134 567.528L187.407 567.528L187.407 606.489L460.134 606.489L460.134 645.450L156.238 645.450L156.238 686.143L461.866 686.143C458.403 700.861 454.939 714.714 448.879 727.701L106.887 727.701L106.887 771.857L420.307 771.857C372.688 820.342 281.779 842.853 104.290 853.242C112.948 864.498 124.203 886.143 127.667 899.996C339.788 883.545 441.087 850.645 489.571 774.455C559.701 857.571 690.437 890.472 862.732 899.130C869.658 884.411 882.645 861.900 894.766 849.779C742.385 847.182 618.576 826.403 551.909 771.857L879.182 771.857L879.182 727.701L512.082 727.701C516.411 714.714 520.740 700.861 523.338 686.143L834.160 686.143L834.160 645.450L523.338 645.450L523.338 606.489L802.126 606.489L802.126 567.528L523.338 567.528L523.338 529.433L832.429 529.433L832.429 489.606L873.987 461.900C848.879 437.658 800.394 403.892 757.970 380.515L870.524 380.515L870.524 336.359L525.069 336.359L525.069 295.667L800.394 295.667L800.394 255.840L525.069 255.840L525.069 216.879L841.087 216.879L841.087 173.589L669.658 173.589C685.242 157.139 702.558 136.359 719.009 114.714L648.879 99.996C637.623 120.775 616.844 151.944 599.528 173.589L382.212 173.589L391.736 170.126C379.615 151.078 355.372 121.641 333.727 100.861M706.022 403.026C745.848 424.671 795.199 461.035 822.039 487.874L690.437 487.874C702.558 474.887 715.545 461.035 727.667 445.450L665.329 429.866C655.805 445.450 639.355 468.827 623.771 487.874L367.494 487.874C355.372 469.693 335.459 448.048 317.277 432.463L265.329 448.913C277.450 460.169 291.303 474.022 301.693 487.874L156.238 487.874C200.394 465.364 235.026 430.732 260.134 398.697L225.502 380.515L743.251 380.515"/></svg>