<svg xmlns="http://www.w3.org/2000/svg" viewBox="0 0 1000 1000" fill="currentColor"><path d="M462.354 703.575C435.427 754.824 391.127 805.204 345.090 840.818C358.988 848.635 382.441 865.139 393.733 874.694C438.901 837.343 488.413 777.408 517.946 720.079M719.466 729.634C760.291 773.934 808.065 835.606 828.043 875.562L878.423 843.423C855.839 804.336 807.197 744.401 765.503 700.970M202.636 103.358L202.636 278.820L105.351 278.820L105.351 339.623L202.636 339.623L202.636 529.851L100.139 565.465L116.643 628.005L202.636 594.998L202.636 832.131C202.636 842.555 200.030 845.161 190.476 845.161C182.658 845.161 157.468 846.029 127.935 845.161C135.752 860.796 142.701 885.986 145.307 899.884C189.607 899.884 217.403 899.015 235.644 889.460C253.885 879.906 260.834 863.402 260.834 832.131L260.834 573.282L346.827 539.406L336.404 482.077L260.834 509.004L260.834 339.623L339.878 339.623L339.878 278.820L260.834 278.820L260.834 103.358M406.762 623.662L406.762 677.517L591.779 677.517L591.779 833C591.779 841.686 590.041 844.292 579.618 845.161C569.194 845.161 537.924 845.161 499.705 844.292C507.522 860.796 516.208 882.511 518.814 899.015C568.326 899.015 602.202 899.015 624.786 890.329C647.370 880.774 652.582 865.139 652.582 834.737L652.582 677.517L841.941 677.517L841.941 623.662M397.207 481.208C413.711 491.632 431.084 505.530 445.850 518.559C412.843 549.830 376.360 575.020 340.747 592.392C352.039 601.947 366.806 621.056 374.623 633.217C425.003 606.290 475.383 567.202 518.814 517.691L518.814 557.647L732.495 557.647L732.495 505.530L529.238 505.530C572.669 453.413 609.151 390.003 631.735 317.908L597.859 301.404L587.435 304.010L506.654 304.010C513.603 289.243 520.552 274.477 525.763 259.710L474.515 252.761C453.668 310.090 411.105 377.843 343.353 428.223C355.514 434.303 371.149 450.807 378.966 462.099C423.266 427.354 458.011 386.529 484.069 344.835L567.457 344.835C557.902 369.156 545.742 392.609 532.712 414.325C516.208 403.033 497.099 391.740 479.726 383.923L453.668 413.456C471.909 423.879 491.887 436.909 508.391 449.069C498.836 462.967 488.413 475.128 477.121 487.289C462.354 475.128 444.113 462.099 428.478 453.413M699.488 347.441L793.299 347.441C780.269 376.105 763.765 405.638 746.393 430.828C729.021 404.770 712.517 376.974 699.488 347.441M668.217 266.659L621.312 279.688C667.349 424.748 753.342 554.173 861.920 618.451C870.606 604.553 887.110 585.443 900.139 575.020C854.102 551.567 811.540 514.216 775.058 469.916C808.065 429.091 841.941 372.631 863.657 321.382L828.912 299.667L819.357 302.273L680.378 302.273M563.114 115.519C574.406 135.497 585.698 159.819 594.384 182.403L372.886 182.403L372.886 301.404L431.084 301.404L431.084 234.520L819.357 234.520L819.357 298.798L880.161 298.798L880.161 182.403L662.137 182.403C652.582 157.213 636.947 125.074 622.180 100.752"/></svg>