<svg xmlns="http://www.w3.org/2000/svg" viewBox="0 0 1000 1000" fill="currentColor"><path d="M430.871 575.141L430.871 897.040L493.869 897.040L493.869 861.657L788.152 861.657L788.152 893.588L852.877 893.588L852.877 575.141L672.510 575.141L672.510 425.843L900.342 425.843L900.342 364.570L672.510 364.570L672.510 204.052C742.413 191.970 808.864 177.299 861.507 160.902L817.494 109.122C723.427 141.053 556.005 166.943 414.474 183.340C421.378 197.148 430.008 221.312 432.597 235.983C488.691 230.805 549.964 223.038 609.511 214.408L609.511 364.570L402.392 364.570L402.392 425.843L609.511 425.843L609.511 575.141M493.869 802.973L493.869 634.688L788.152 634.688L788.152 802.973M219.436 103.081L219.436 277.407L110.698 277.407L110.698 337.817L219.436 337.817L219.436 527.676L100.342 559.607L118.465 622.606L219.436 592.401L219.436 817.644C219.436 830.589 214.258 834.041 203.039 834.904C192.683 835.767 155.574 835.767 115.013 834.904C123.643 851.301 133.136 878.054 134.862 894.451C192.683 894.451 228.066 893.588 250.504 883.232C272.079 872.876 281.572 855.616 281.572 817.644L281.572 573.415L391.173 539.758L383.406 480.211L281.572 510.416L281.572 337.817L381.680 337.817L381.680 277.407L281.572 277.407L281.572 103.081"/></svg>