<svg xmlns="http://www.w3.org/2000/svg" viewBox="0 0 1000 1000" fill="currentColor"><path d="M632.004 297.950C645.607 334.507 659.209 381.266 661.760 412.722L710.219 399.119C705.968 369.363 692.366 322.605 677.063 286.898M125.309 178.078C168.667 224.836 217.126 289.448 237.530 331.106L291.090 298.800C269.836 256.292 218.827 194.231 175.469 149.172M433.067 541.096L527.435 541.096L527.435 714.528L433.067 714.528M410.963 348.960L411.813 304.751L411.813 209.533L512.132 209.533L512.132 348.960M355.702 157.674L355.702 303.901C355.702 410.171 347.201 559.799 274.937 668.620C286.840 675.421 309.794 697.525 318.295 709.427C350.601 660.968 371.855 604.007 386.308 545.346L386.308 763.837L575.044 763.837L575.044 490.936L397.360 490.936C402.461 460.330 405.862 429.725 408.412 400.819L567.392 400.819L567.392 157.674M675.362 127.068C688.965 155.123 704.268 192.530 713.620 222.286L594.597 222.286L594.597 274.146L882.801 274.146L882.801 222.286L772.281 222.286C762.079 190.830 745.075 147.472 726.372 113.465M799.486 284.348C787.583 324.305 767.180 380.416 747.626 420.373L586.096 420.373L586.096 473.933L707.668 473.933L707.668 567.451L597.148 567.451L597.148 619.310L707.668 619.310L707.668 771.489L764.629 771.489L764.629 619.310L879.401 619.310L879.401 567.451L764.629 567.451L764.629 473.933L888.752 473.933L888.752 420.373L798.635 420.373C817.339 384.666 836.893 337.908 853.896 297.100M273.237 445.028L115.107 445.028L115.107 503.689L213.726 503.689L213.726 744.284C178.869 760.437 138.912 793.593 99.804 832.700L139.762 887.111C183.120 834.401 224.778 788.492 254.533 788.492C274.087 788.492 301.292 813.997 337.849 834.401C398.210 868.407 473.875 876.909 577.594 876.909C662.610 876.909 818.189 872.658 881.951 868.407C882.801 849.704 893.003 820.798 899.804 804.645C814.789 813.997 683.014 820.798 579.294 820.798C484.077 820.798 408.412 814.847 352.302 784.241C314.895 762.987 293.641 744.284 273.237 737.482"/></svg>