<svg xmlns="http://www.w3.org/2000/svg" viewBox="0 0 1000 1000" fill="currentColor"><path d="M269.708 234.725L383.013 234.725C369.279 265.627 351.253 299.103 333.227 325.712L207.047 325.712C231.082 296.528 251.682 265.627 269.708 234.725M265.416 105.970C237.090 182.365 180.438 280.219 99.751 354.039C114.343 360.906 135.803 378.931 146.961 392.665L156.403 383.223L156.403 590.090L301.468 590.090C281.725 681.077 231.082 777.215 99.751 852.751C114.343 863.052 134.086 881.936 143.528 894.811C289.451 808.116 342.670 696.528 361.554 590.090L365.845 590.090L365.845 785.798C365.845 861.335 395.888 879.361 516.060 879.361C540.094 879.361 746.103 879.361 772.712 879.361C867.133 879.361 888.592 853.609 899.751 747.172C881.725 743.738 856.833 735.155 842.240 725.712C836.232 809.833 827.648 823.567 769.279 823.567C723.785 823.567 548.678 823.567 515.202 823.567C440.524 823.567 426.790 817.558 426.790 784.940L426.790 590.090L537.519 590.090L537.519 343.738L635.373 343.738C625.073 516.270 592.455 646.742 485.159 727.429C498.893 736.871 519.494 757.472 527.219 772.064C648.249 681.936 684.300 536.013 696.318 343.738L813.914 343.738C806.189 576.356 796.747 661.335 779.579 681.077C772.712 691.378 764.987 693.953 752.970 693.094C740.094 693.094 709.193 693.094 674.858 689.661C684.300 705.970 691.167 732.579 692.026 750.605C726.361 752.322 761.554 752.322 781.296 749.747C803.614 747.172 819.064 741.163 833.657 722.279C857.691 690.519 867.133 593.524 875.717 311.979C876.575 303.395 876.575 281.936 876.575 281.936L699.751 281.936C701.468 229.575 702.326 173.781 703.185 114.554L641.382 114.554C640.524 173.781 640.524 229.575 638.807 281.936L529.794 281.936L529.794 325.712L397.605 325.712C421.639 287.086 444.815 241.592 460.266 202.107L421.639 178.073L412.197 180.648L298.893 180.648C310.052 159.189 320.352 137.730 328.936 117.129M213.056 380.648L312.627 380.648L312.627 460.476C312.627 484.511 311.768 509.403 309.193 535.155L213.056 535.155M370.996 380.648L477.433 380.648L477.433 535.155L368.421 535.155C370.137 509.403 370.996 485.369 370.996 461.335"/></svg>