<svg xmlns="http://www.w3.org/2000/svg" viewBox="0 0 1000 1000" fill="currentColor"><path d="M656.394 140.425C709.495 166.541 773.913 206.584 805.251 236.182L845.295 190.915C813.086 161.318 747.798 123.015 694.696 100.382M107.972 771.546L121.029 838.576C222.009 816.813 364.773 785.474 498.831 755.877L493.608 694.071C351.715 723.668 202.857 754.136 107.972 771.546M223.750 435.529L401.334 435.529L401.334 586.998L223.750 586.998M162.814 378.075L162.814 643.581L464.881 643.581L464.881 378.075M113.195 237.052L113.195 301.470L542.357 301.470C552.803 443.363 572.825 573.940 604.163 676.661C545.839 747.172 475.328 804.626 394.370 848.151C409.169 860.338 434.413 885.583 444.860 898.641C513.630 857.727 575.436 807.237 629.408 747.172C668.581 842.058 720.812 899.511 787.841 899.511C854.871 899.511 879.245 855.986 891.432 706.258C873.151 699.294 848.777 684.495 833.978 668.826C828.755 785.474 818.309 831.612 793.935 831.612C750.409 831.612 711.236 777.640 679.898 686.236C744.316 600.055 796.546 497.335 834.849 379.816L769.560 364.147C741.704 454.680 703.402 535.638 656.394 607.020C634.631 521.709 618.962 417.248 611.127 301.470L868.799 301.470L868.799 237.052L606.775 237.052C605.034 192.656 604.163 146.519 604.163 99.511L534.522 99.511C534.522 145.649 536.263 191.786 538.875 237.052"/></svg>