<svg xmlns="http://www.w3.org/2000/svg" viewBox="0 0 1000 1000" fill="currentColor"><path d="M207.454 418.405L207.454 628.611L465.434 628.611L465.434 703.313L110.168 703.313L110.168 763.248L465.434 763.248L465.434 900.490L532.318 900.490L532.318 763.248L889.321 763.248L889.321 703.313L532.318 703.313L532.318 628.611L798.116 628.611L798.116 418.405L532.318 418.405L532.318 358.470L695.619 358.470L695.619 233.389L874.555 233.389L874.555 176.928L695.619 176.928L695.619 100.490L627.866 100.490L627.866 176.928L369.017 176.928L369.017 100.490L305.608 100.490L305.608 176.928L125.803 176.928L125.803 233.389L305.608 233.389L305.608 358.470L465.434 358.470L465.434 418.405M272.600 472.260L465.434 472.260L465.434 575.625L272.600 575.625M532.318 472.260L729.495 472.260L729.495 575.625L532.318 575.625M627.866 233.389L627.866 307.221L369.017 307.221L369.017 233.389"/></svg>