<svg xmlns="http://www.w3.org/2000/svg" viewBox="0 0 1000 1000" fill="currentColor"><path d="M394.241 333.759L394.241 372.552L543.379 372.552L543.379 333.759M663.207 333.759L663.207 372.552L819.241 372.552L819.241 333.759M663.207 417.379L663.207 456.172L832.172 456.172L832.172 417.379M377 417.379L377 456.172L544.241 456.172L544.241 417.379M330.448 238.069L330.448 355.310L380.448 355.310L380.448 286.345L574.414 286.345L574.414 483.759L633.897 483.759L633.897 286.345L833.897 286.345L833.897 355.310L885.621 355.310L885.621 238.069L633.897 238.069L633.897 183.759L856.310 183.759L856.310 131.172L362.345 131.172L362.345 183.759L574.414 183.759L574.414 238.069M360.621 613.931L360.621 894.103L418.379 894.103L418.379 665.655L508.897 665.655L508.897 884.621L563.207 884.621L563.207 665.655L655.448 665.655L655.448 884.621L709.759 884.621L709.759 665.655L805.448 665.655L805.448 832.034C805.448 839.793 804.586 842.379 795.966 842.379C788.207 842.379 766.655 842.379 739.069 841.517C745.966 857.034 754.586 878.586 756.310 894.103C795.966 894.103 823.552 893.241 841.655 885.483C860.621 876 864.931 860.483 864.931 832.897L864.931 613.931L610.621 613.931L633.897 557.897L900.276 557.897L900.276 505.310L318.379 505.310L318.379 557.897L564.069 557.897L548.552 613.931M289.931 105.310C247.690 236.345 177 368.241 100.276 453.586C111.483 468.241 129.586 500.138 136.483 513.931C159.759 486.345 183.034 454.448 205.448 419.103L205.448 894.103L264.931 894.103L264.931 315.655C296.828 253.586 325.276 187.207 347.690 121.690"/></svg>