<svg xmlns="http://www.w3.org/2000/svg" viewBox="0 0 1000 1000" fill="currentColor"><path d="M284.444 413.780L284.444 790.738L347.704 790.738L347.704 728.344L625.873 728.344L625.873 413.780M347.704 472.706L560.880 472.706L560.880 668.551L347.704 668.551M335.572 100.082C289.644 246.532 212.519 386.050 118.063 472.706C133.661 483.105 162.258 506.503 174.390 517.768C231.584 457.975 285.311 379.984 330.373 290.727L813.052 290.727C800.920 649.487 786.188 789.871 754.992 821.067C744.593 832.333 733.327 834.933 714.263 834.066C690.866 834.066 631.072 834.066 565.213 828.867C578.212 847.931 586.877 876.528 587.744 896.459C645.804 899.925 705.597 901.658 739.393 898.192C773.190 894.726 794.854 886.927 815.652 860.063C852.914 815.868 866.779 671.151 880.644 262.130C880.644 252.598 881.511 226.601 881.511 226.601L360.703 226.601C376.301 191.071 390.166 153.809 402.298 116.546"/></svg>