<svg xmlns="http://www.w3.org/2000/svg" viewBox="0 0 1000 1000" fill="currentColor"><path d="M443.408 520.270L728.386 520.270L728.386 621.558L443.408 621.558M385.897 466.193L385.897 675.635L787.614 675.635L787.614 466.193M144.695 168.339C191.047 195.807 246.841 237.867 274.309 268.768L309.502 216.408C282.034 187.223 224.524 147.738 179.030 121.987M100.060 400.099C147.270 424.991 204.781 463.618 233.107 491.944L264.867 437.867C237.399 410.399 178.172 374.348 132.678 351.172M124.094 837.867L173.880 887.652C220.232 804.391 271.734 696.236 309.502 608.682L266.584 560.614C223.665 658.468 164.438 770.914 124.094 837.867M650.275 111.687L594.481 124.562C622.807 218.124 655.425 287.652 694.052 343.446L489.760 343.446C526.670 291.086 556.712 228.425 575.597 158.039L537.828 142.588L526.670 145.163L343.837 145.163L343.837 200.957L500.918 200.957C487.185 237.009 468.300 270.485 446.841 302.245C425.382 279.069 391.047 250.742 363.579 231L325.811 270.485C354.996 293.661 390.189 324.562 410.790 348.597C373.880 392.373 330.103 426.708 287.185 449.026C299.202 460.185 316.369 479.927 324.953 493.661C379.030 463.618 431.391 418.983 475.167 363.189L475.167 400.957L711.219 400.957L711.219 367.481C753.279 422.416 801.348 461.901 NaN 497.094C866.584 478.210 884.609 456.751 900.060 444.734C851.991 417.266 809.073 386.365 771.305 343.446C805.639 322.845 846.841 293.661 882.893 267.052L840.833 224.133C816.798 249.026 775.597 282.502 742.120 307.395C730.103 290.227 718.086 270.485 706.927 249.884C739.545 226.708 778.172 196.665 810.790 168.339L769.588 127.137C748.987 150.313 714.652 180.356 685.468 205.249C672.592 176.923 661.433 146.021 650.275 111.687M686.326 677.352C672.592 719.412 647.700 781.215 626.240 822.416L476.884 822.416L532.678 805.249C526.670 770.914 507.785 720.270 485.468 682.502L427.099 698.811C447.700 736.579 464.867 788.082 470.876 822.416L306.927 822.416L306.927 878.210L876.884 878.210L876.884 822.416L690.618 822.416C709.502 785.506 731.820 738.296 750.704 697.094"/></svg>