<svg xmlns="http://www.w3.org/2000/svg" viewBox="0 0 1000 1000" fill="currentColor"><path d="M291.451 110.146C278.379 433.458 243.521 693.153 99.730 845.658C117.159 856.115 152.017 879.645 162.475 890.974C251.364 785.527 300.166 645.222 328.052 472.673C381.211 543.261 432.627 625.179 459.643 680.952L509.316 634.765C477.072 566.791 405.612 464.830 341.124 387.270C351.582 302.739 357.682 211.235 362.911 113.632M626.963 109.275C607.791 444.786 561.603 697.510 387.312 843.044C404.741 853.501 438.728 877.031 450.057 888.359C545.917 798.599 604.305 680.081 641.778 532.804C680.122 660.037 744.610 798.599 850.928 882.259C862.257 863.087 884.915 835.200 899.730 823C766.397 731.497 698.423 544.133 668.793 397.728C681.865 310.582 690.580 215.593 697.551 112.760"/></svg>