<svg xmlns="http://www.w3.org/2000/svg" viewBox="0 0 1000 1000" fill="currentColor"><path d="M565.891 775.293C668.835 813.679 772.652 860.790 833.721 898.303L893.917 854.683C825.869 818.914 714.201 770.059 611.256 734.290M380.940 729.056C319.871 771.804 199.479 822.403 105.258 850.321C119.217 863.407 138.410 886.089 148.007 900.048C242.227 869.514 361.747 818.914 439.391 770.059M664.473 100.048L664.473 201.248L339.064 201.248L339.064 100.048L274.506 100.048L274.506 201.248L138.410 201.248L138.410 262.316L274.506 262.316L274.506 653.156L113.110 653.156L113.110 714.225L891.300 714.225L891.300 653.156L729.904 653.156L729.904 262.316L870.362 262.316L870.362 201.248L729.904 201.248L729.904 100.048M339.064 653.156L339.064 557.191L664.473 557.191L664.473 653.156M339.064 262.316L664.473 262.316L664.473 349.557L339.064 349.557M339.064 406.264L664.473 406.264L664.473 501.357L339.064 501.357"/></svg>