<svg xmlns="http://www.w3.org/2000/svg" viewBox="0 0 1000 1000" fill="currentColor"><path d="M810.065 509.720C736.086 655.097 570.925 779.828 371.355 844.344C383.398 857.247 401.462 882.194 409.204 897.677C516.731 859.828 613.935 807.355 694.796 742.839C752.430 790.151 817.806 849.505 851.355 888.215L900.387 844.344C865.978 805.634 798.882 748.860 740.387 703.269C795.441 652.516 841.892 595.742 877.161 533.806M599.312 120.903C617.376 152.731 633.720 192.301 642.323 223.269L416.946 223.269L416.946 282.624L581.247 282.624C552 332.516 503.828 410.796 486.624 428.860C472.860 443.484 448.774 449.505 430.710 452.946C436.731 467.570 447.054 499.398 449.634 514.882C465.978 508.860 490.925 503.699 645.763 493.376C581.247 558.753 501.247 616.387 414.366 655.957C426.409 668 443.613 691.226 451.355 704.989C602.753 631.871 734.366 508.860 808.344 376.387L747.269 355.742C733.505 383.269 715.441 409.935 694.796 436.602L549.419 444.344C580.387 397.032 621.677 330.796 650.925 282.624L895.226 282.624L895.226 223.269L698.237 223.269L710.280 218.968C703.398 187.140 681.032 138.108 659.527 101.978M237.161 105.419L237.161 271.441L121.892 271.441L121.892 331.656L233.720 331.656C207.054 449.505 153.720 586.280 100.387 658.538C111.570 674.022 127.914 702.409 134.796 721.333C171.785 666.280 208.774 578.538 237.161 486.495L237.161 895.957L299.097 895.957L299.097 445.204C322.323 488.215 348.989 538.968 361.032 565.634L400.602 520.043C385.118 495.097 322.323 397.032 299.097 366.925L299.097 331.656L396.301 331.656L396.301 271.441L299.097 271.441L299.097 105.419"/></svg>