<svg xmlns="http://www.w3.org/2000/svg" viewBox="0 0 1000 1000" fill="currentColor"><path d="M241.556 105.283L241.556 270.417L122.626 270.417L122.626 330.310L236.422 330.310C209.043 448.385 155.995 586.139 100.380 655.444C111.503 670.845 126.904 699.936 133.749 717.048C173.107 658.866 212.465 563.037 241.556 463.786L241.556 891.594L301.449 891.594L301.449 433.840C324.551 477.476 351.930 531.380 363.053 559.615L402.412 510.845C387.866 485.176 322.840 385.925 301.449 356.834L301.449 330.310L404.123 330.310L404.123 270.417L301.449 270.417L301.449 105.283M825.086 121.540C738.668 157.476 573.535 178.011 439.203 185.711L439.203 394.481C439.203 530.524 430.647 723.037 334.818 858.225C349.364 865.070 375.888 883.893 387.866 894.160C481.128 759.829 499.952 559.615 501.663 416.727L527.332 416.727C553 523.679 589.791 620.364 641.128 700.791C586.369 764.107 521.342 810.310 449.471 840.257C463.160 852.235 480.273 877.048 488.829 892.449C559.845 859.080 624.016 813.733 678.775 753.840C726.690 814.588 785.727 862.503 855.888 894.160C866.155 877.048 885.834 851.380 900.380 839.401C828.508 811.166 768.615 764.107 719.845 703.358C782.305 617.797 828.508 507.422 852.465 367.957L812.251 355.979L801.128 358.545L501.663 358.545L501.663 237.904C630.005 229.348 777.171 209.668 867.866 172.877M780.594 416.727C759.203 507.422 724.979 584.428 680.487 649.455C638.561 581.861 606.904 502.289 584.658 416.727"/></svg>