<svg xmlns="http://www.w3.org/2000/svg" viewBox="0 0 1000 1000" fill="currentColor"><path d="M204.968 103.176L204.968 279.402L109.003 279.402L109.003 340.471L204.968 340.471L204.968 534.146L100.279 567.298L115.983 630.984L204.968 599.577L204.968 829.021C204.968 839.490 202.351 842.107 192.755 842.107C184.903 842.107 158.731 842.979 128.196 842.107C136.920 858.683 143.900 884.855 147.389 899.686C191.882 900.558 221.544 898.814 239.865 888.345C259.058 878.748 266.909 861.300 266.909 829.021L266.909 576.894L348.044 547.232L339.320 488.781L266.909 513.208L266.909 340.471L346.299 340.471L346.299 279.402L266.909 279.402L266.909 103.176M370.726 494.015L370.726 552.467L491.991 552.467C444.881 649.304 380.323 726.949 293.954 784.528C307.913 795.869 330.595 822.914 340.192 835.128C396.899 794.124 444.009 746.142 484.140 689.435L636.811 689.435L636.811 813.317L402.133 813.317L402.133 871.769L897.662 871.769L897.662 813.317L699.625 813.317L699.625 689.435L856.659 689.435L856.659 631.856L521.653 631.856C535.612 606.556 548.698 580.384 560.912 552.467L900.279 552.467L900.279 494.015L584.467 494.015C594.063 468.715 601.915 442.543 609.767 415.498L861.021 415.498L861.021 359.664L624.598 359.664L641.173 284.637L887.193 284.637L887.193 226.185L737.138 226.185C758.949 193.906 782.504 154.648 804.314 118.007L736.266 100.558C721.435 137.200 693.518 188.672 669.091 226.185L526.015 226.185L577.487 202.630C564.401 175.586 538.229 133.710 513.802 102.303L457.967 124.113C479.778 155.520 505.077 197.396 516.419 226.185L386.430 226.185L386.430 284.637L574.870 284.637C570.508 309.937 565.274 335.237 559.167 359.664L409.985 359.664L409.985 415.498L544.336 415.498C535.612 442.543 526.888 468.715 517.291 494.015"/></svg>