<svg xmlns="http://www.w3.org/2000/svg" viewBox="0 0 1000 1000" fill="currentColor"><path d="M580.924 526.772L783.681 526.772L783.681 682.870L580.924 682.870M520.690 473.326L520.690 736.316L847.308 736.316L847.308 473.326M159.291 491.989C156.745 641.300 149.110 775.340 99.906 860.176C114.328 866.963 140.627 883.082 151.655 890.717C176.258 845.754 191.528 788.914 200.860 724.439C262.790 839.815 364.593 867.811 546.141 867.811L874.455 867.811C877.848 849.147 889.725 819.455 899.906 805.033C847.308 807.578 586.862 807.578 545.293 806.730C460.457 806.730 394.285 799.943 342.536 778.734L342.536 608.214L475.727 608.214L475.727 551.374L342.536 551.374L342.536 430.908L478.273 430.908C490.998 440.240 505.420 452.117 512.207 459.752C603.829 407.154 655.579 326.560 672.546 200.155L803.193 200.155C797.255 310.441 789.619 353.707 778.591 366.433C772.652 373.220 765.017 374.916 752.292 374.068C740.415 374.068 707.329 374.068 671.698 370.674C681.030 385.945 686.968 408.850 687.817 425.818C725.993 427.514 761.624 427.514 781.136 425.818C803.193 424.121 817.615 419.031 830.340 404.609C849.853 382.551 858.336 323.166 865.123 170.462C865.971 162.827 865.971 145.012 865.971 145.012L492.695 145.012L492.695 200.155L612.313 200.155C598.739 298.564 558.866 366.433 484.211 409.699L484.211 373.220L333.204 373.220L333.204 268.023L467.244 268.023L467.244 211.183L333.204 211.183L333.204 109.381L273.819 109.381L273.819 211.183L138.930 211.183L138.930 268.023L273.819 268.023L273.819 373.220L121.115 373.220L121.115 430.908L285.696 430.908L285.696 743.103C253.458 715.107 229.704 674.386 211.889 617.546C214.434 578.522 216.130 537.801 216.979 495.383"/></svg>