<svg xmlns="http://www.w3.org/2000/svg" viewBox="0 0 1000 1000" fill="currentColor"><path d="M287.703 590.568L287.703 895.865L346.514 895.865L346.514 758.351L457.216 758.351L457.216 878.568L512.568 878.568L512.568 758.351L625.865 758.351L625.865 878.568L680.351 878.568L680.351 758.351L797.108 758.351L797.108 839.649C797.108 848.297 794.514 851.757 784.135 851.757C773.757 852.622 741.757 852.622 702.838 851.757C709.757 865.595 718.405 884.622 721 899.324C772.892 899.324 808.351 899.324 830.838 891.541C852.459 882.892 858.514 869.054 858.514 839.649L858.514 590.568M346.514 709.919L346.514 640.730L457.216 640.730L457.216 709.919M797.108 709.919L680.351 709.919L680.351 640.730L797.108 640.730M512.568 709.919L512.568 640.730L625.865 640.730L625.865 709.919M283.378 399.432L774.622 399.432L774.622 484.189L283.378 484.189L283.378 482.459M475.378 296.514C486.622 312.081 498.730 331.108 508.243 349.270L283.378 349.270L222.838 348.405L222.838 481.595C222.838 600.081 213.324 743.649 116.459 859.541C132.892 868.189 156.243 888.081 167.486 900.189C257.432 790.351 279.054 656.297 282.514 535.216L836.027 535.216L836.027 349.270L582.622 349.270C571.378 328.514 552.351 300.838 535.919 280.081C552.351 263.649 567.919 244.622 582.622 223.865L657 223.865C682.081 254.135 706.297 291.324 716.676 316.405L775.486 293.054C765.973 273.162 749.541 248.081 730.514 223.865L891.378 223.865L891.378 172.838L614.622 172.838C625 154.676 634.514 134.784 641.432 115.757L579.162 100.189C554.946 165.919 509.973 228.189 458.081 268.838C467.595 273.162 483.162 280.946 495.270 288.730M239.270 100.189C210.730 177.162 162.297 252.405 108.676 302.568C124.243 310.351 150.189 327.649 162.297 338.027C191.703 307.757 221.108 267.973 247.054 223.865L294.622 223.865C311.919 255 329.216 291.324 336.135 315.541L394.081 295.649C387.162 275.757 374.189 248.946 359.486 223.865L496.135 223.865L496.135 172.838L274.730 172.838C284.243 153.811 292.027 134.784 299.811 115.757"/></svg>