<svg xmlns="http://www.w3.org/2000/svg" viewBox="0 0 1000 1000" fill="currentColor"><path d="M151.162 281.676C148.568 358.649 133.865 444.270 101.865 490.973L147.703 513.459C183.162 458.973 197 369.027 197.865 288.595M536.892 100.919C508.351 214.216 459.054 322.324 393.324 391.514C407.162 401.027 433.973 421.784 444.351 433.027L467.703 403.622L467.703 789.351C467.703 873.243 495.378 894 588.784 894C609.541 894 764.351 894 785.973 894C870.730 894 890.622 859.405 900.135 744.378C881.973 740.054 856.892 729.676 842.189 719.297C837 816.162 829.216 836.054 783.378 836.054C750.514 836.054 617.324 836.054 592.243 836.054C538.622 836.054 529.108 827.405 529.108 789.351L529.108 621.568L721.108 621.568L721.108 362.108L496.243 362.108C511.811 337.027 526.514 309.351 539.486 279.946L814.514 279.946C808.459 535.081 801.541 624.162 786.838 644.054C779.919 654.432 773.865 657.027 761.757 656.162C747.919 656.162 717.649 656.162 683.919 653.568C694.297 670 699.486 695.081 700.351 712.378C735.811 714.973 770.405 714.973 790.297 712.378C812.784 708.919 827.486 702.865 840.459 682.973C862.946 652.703 869 551.514 875.054 250.541C875.054 241.892 875.054 221.135 875.054 221.135L564.568 221.135C577.541 186.541 589.649 150.216 599.162 113.892M529.108 416.595L661.432 416.595L661.432 566.216L529.108 566.216M367.378 240.162C352.676 290.324 322.405 362.108 299.054 409.676L299.054 403.622L299.054 109.568L239.378 109.568L239.378 402.757C239.378 562.757 225.541 727.946 100.135 854.216C113.973 863.730 135.595 886.216 145.108 900.054C214.297 830.865 252.351 752.162 273.973 667.405C307.703 710.649 350.946 768.595 369.973 798.865L415.811 752.162C395.919 727.946 318.081 634.541 286.946 600.811C296.459 541.135 299.054 480.595 299.054 420.054L334.514 437.351C362.189 393.243 395.054 321.459 421.865 262.649"/></svg>