<svg xmlns="http://www.w3.org/2000/svg" viewBox="0 0 1000 1000" fill="currentColor"><path d="M219.579 343.364L449.514 343.364L449.514 431L219.579 431M162.312 293.907L162.312 479.590L509.384 479.590L509.384 293.907M587.475 149.872L587.475 900.414L650.816 900.414L650.816 211.477L812.204 211.477C784.438 280.892 747.128 374.601 709.818 448.354C797.453 524.709 823.484 589.785 823.484 645.317C823.484 676.553 817.410 702.584 798.321 714.731C788.777 719.937 775.761 723.408 761.011 724.275C743.657 725.143 719.362 725.143 693.332 722.540C704.612 740.761 710.685 767.659 711.553 785.881C736.716 786.748 764.482 786.748 787.041 784.145C808.733 782.410 827.822 775.469 843.440 765.924C873.809 745.100 885.089 705.187 885.089 651.390C885.089 590.653 863.397 521.239 775.761 439.677C816.542 359.850 861.662 259.200 896.369 176.770L850.382 147.269L839.970 149.872M104.178 683.495L108.516 739.894L304.612 731.217L304.612 831C304.612 839.677 301.141 843.148 289.861 843.148C279.449 844.015 240.403 844.015 199.623 842.280C208.299 858.766 216.976 881.325 218.711 897.811C276.846 897.811 313.289 897.811 337.584 889.134C361.011 879.590 367.952 863.972 367.952 831.868L367.952 728.614L556.239 719.069L557.974 665.273L367.952 673.950L367.952 653.993C418.278 627.095 474.677 592.388 516.325 558.549L476.412 524.709L462.529 528.180L147.562 528.180L147.562 580.241L395.718 580.241C366.217 601.065 332.377 621.889 304.612 636.640L304.612 676.553M279.449 118.636C290.729 138.592 302.876 162.020 311.553 184.579L111.119 184.579L111.119 240.978L558.842 240.978L558.842 184.579L376.629 184.579C366.217 157.681 350.599 125.577 333.245 100.414"/></svg>