<svg xmlns="http://www.w3.org/2000/svg" viewBox="0 0 1000 1000" fill="currentColor"><path d="M211.904 297.257L722.581 297.257L722.581 384.513L211.904 384.513M211.904 156.729L722.581 156.729L722.581 243.067L211.904 243.067M143.017 99.783L143.017 442.378L794.223 442.378L794.223 99.783M135.669 899.783C157.713 887.843 192.615 881.413 474.590 837.326C471.835 823.549 469.079 796.913 468.161 778.543L226.599 811.608L226.599 640.770L451.628 640.770L451.628 577.395L226.599 577.395L226.599 479.117L154.958 479.117L154.958 782.217C154.958 817.119 127.403 829.978 109.033 835.489C120.055 851.103 131.077 881.413 135.669 899.783M799.734 516.775C747.380 555.351 657.369 595.765 571.031 627.912L571.031 477.280L502.145 477.280L502.145 794.157C502.145 873.147 526.944 894.272 617.874 894.272C637.162 894.272 762.076 894.272 782.282 894.272C861.272 894.272 881.479 861.207 890.664 739.048C870.457 734.456 841.984 723.434 826.370 711.494C822.696 813.445 816.266 829.978 776.772 829.978C749.217 829.978 645.428 829.978 624.303 829.978C579.297 829.978 571.031 824.467 571.031 793.239L571.031 689.450C669.309 657.303 780.445 614.134 856.680 566.373"/></svg>