<svg xmlns="http://www.w3.org/2000/svg" viewBox="0 0 1000 1000" fill="currentColor"><path d="M499.468 323.137L795.605 323.137L795.605 386.657L499.468 386.657M499.468 218.416L795.605 218.416L795.605 281.077L499.468 281.077M506.335 452.751C482.300 496.528 443.674 538.588 402.472 569.489C416.206 577.215 438.524 593.524 448.824 602.966C489.167 570.348 533.803 517.987 560.412 468.202M745.820 468.202C787.021 503.395 833.373 554.039 853.974 588.373L900.326 557.472C878.009 523.137 830.798 475.069 789.597 440.734M844.532 691.378C758.695 771.206 569.854 833.867 395.605 847.601C405.906 860.476 417.923 881.077 423.073 894.811C599.039 874.210 787.880 805.541 882.300 719.704M786.163 601.249C717.494 669.060 567.279 726.571 429.082 742.021C440.240 754.039 453.116 773.781 458.266 787.515C598.180 766.056 749.253 702.536 825.648 628.717M738.953 517.987C723.502 533.438 702.043 548.030 678.009 560.906L678.009 430.433L857.408 430.433L857.408 173.781L646.249 173.781C658.266 156.614 671.142 137.730 682.300 117.987L612.773 104.253C605.047 123.996 592.172 150.605 579.296 173.781L439.382 173.781L439.382 430.433L617.923 430.433L617.923 589.232C562.987 611.549 498.609 627.858 438.524 634.725C449.682 646.742 461.700 666.485 468.567 679.361C584.446 660.476 714.060 606.399 778.438 543.738M357.837 112.837C302.901 139.446 210.197 164.339 128.652 180.648C136.378 195.240 145.820 216.700 148.395 230.433C178.438 225.283 209.339 219.275 241.099 212.408L241.099 352.322L120.069 352.322L120.069 412.408L231.657 412.408C201.614 509.403 150.112 621.850 100.326 683.652C112.343 699.961 128.652 727.429 135.519 746.313C172.429 694.811 211.056 614.124 241.099 530.863L241.099 896.528L301.185 896.528L301.185 512.837C325.219 555.755 351.828 606.399 363.845 634.725L405.047 580.648C390.455 556.614 325.219 461.335 301.185 432.150L301.185 412.408L408.481 412.408L408.481 352.322L301.185 352.322L301.185 197.815C337.236 188.373 370.712 177.215 399.039 164.339"/></svg>