<svg xmlns="http://www.w3.org/2000/svg" viewBox="0 0 1000 1000" fill="currentColor"><path d="M152.388 160.425C199.293 194.301 264.440 243.812 295.710 274.214L337.404 222.965C304.396 194.301 239.250 147.395 192.344 116.125M100.270 388.872C148.045 421.879 212.322 468.785 243.593 497.450L282.681 446.201C249.673 418.405 184.527 374.105 138.490 343.704M126.329 839.686L182.789 881.380C225.352 800.598 274.863 693.758 312.214 603.421L260.965 562.596C220.140 660.750 165.417 772.802 126.329 839.686M352.170 579.969L352.170 633.823L557.165 633.823L557.165 710.262L309.608 710.262L309.608 765.853L557.165 765.853L557.165 899.621L623.180 899.621L623.180 765.853L891.584 765.853L891.584 710.262L623.180 710.262L623.180 633.823L849.890 633.823L849.890 579.969L623.180 579.969L623.180 510.479L831.649 510.479L831.649 379.317L900.270 379.317L900.270 321.988L831.649 321.988L831.649 193.432L623.180 193.432L623.180 101.358L557.165 101.358L557.165 193.432L370.412 193.432L370.412 246.418L557.165 246.418L557.165 321.988L318.294 321.988L318.294 379.317L557.165 379.317L557.165 457.493L366.068 457.493L366.068 510.479L557.165 510.479L557.165 579.969M623.180 246.418L769.977 246.418L769.977 321.988L623.180 321.988M623.180 457.493L623.180 379.317L769.977 379.317L769.977 457.493"/></svg>