<svg xmlns="http://www.w3.org/2000/svg" viewBox="0 0 1000 1000" fill="currentColor"><path d="M243.772 99.976L243.772 336.236L116.064 336.236L116.064 511.379L179.006 511.379L179.006 396.441L818.458 396.441L818.458 511.379L884.137 511.379L884.137 336.236L755.517 336.236L755.517 99.976M309.450 336.236L309.450 259.611L495.539 259.611L495.539 336.236M687.101 336.236L556.657 336.236L556.657 212.177L309.450 212.177L309.450 154.708L687.101 154.708M699.872 508.642L699.872 577.969L299.416 577.969L299.416 508.642M234.650 452.998L234.650 899.976L299.416 899.976L299.416 754.024L699.872 754.024L699.872 827C699.872 838.859 695.311 842.507 681.628 843.420C667.945 844.332 618.686 845.244 565.779 843.420C574.901 858.927 584.023 882.644 586.759 899.976C656.999 899.976 702.609 899.064 730.887 889.942C757.341 880.820 765.551 863.488 765.551 827.912L765.551 452.998M299.416 629.052L699.872 629.052L699.872 701.116L299.416 701.116"/></svg>