<svg xmlns="http://www.w3.org/2000/svg" viewBox="0 0 1000 1000" fill="currentColor"><path d="M697.603 159.095C741.999 200.009 793.359 257.462 816.863 294.024L865.612 257.462C840.367 220.030 787.266 165.188 743.740 126.015M794.230 442.881C768.985 509.911 735.905 574.329 695.862 632.653C681.063 566.494 669.746 486.407 662.782 395.874L889.115 395.874L889.115 338.420L658.430 338.420C654.077 264.427 652.336 185.210 653.207 101.641L587.918 101.641C588.789 183.469 590.530 263.556 594.882 338.420L372.902 338.420L372.902 245.275L531.335 245.275L531.335 187.822L372.902 187.822L372.902 100.770L311.096 100.770L311.096 187.822L150.922 187.822L150.922 245.275L311.096 245.275L311.096 338.420L110.878 338.420L110.878 395.874L599.235 395.874C608.811 512.522 623.609 616.113 647.113 697.941C594.882 759.748 535.688 811.978 470.399 851.151C486.939 863.338 506.090 884.231 516.536 899.900C572.249 863.338 624.480 818.942 670.617 767.582C702.826 846.799 747.222 892.936 805.546 892.936C867.353 892.936 889.115 853.763 899.561 720.575C883.892 714.481 861.259 700.553 847.331 686.625C842.978 790.215 833.403 830.259 810.769 830.259C774.208 830.259 741.999 786.733 716.754 710.999C773.337 637.005 820.345 551.695 854.295 462.903M300.650 428.953C313.707 448.104 327.635 471.608 338.082 492.501L130.029 492.501L130.029 549.084L287.592 549.084C237.973 606.538 167.461 657.027 99.561 690.977C111.749 702.294 133.511 726.668 142.217 738.855C170.073 722.316 198.800 703.164 226.656 681.402L226.656 765.841C226.656 801.532 209.246 819.813 197.059 827.647C206.634 838.094 221.433 859.856 225.786 873.785C240.584 862.468 264.088 853.763 414.687 806.755C412.075 793.697 409.464 770.194 408.593 753.654L285.851 788.474L285.851 631.782C313.707 605.667 338.952 577.811 360.715 549.084L562.674 549.084L562.674 492.501L406.852 492.501C396.406 468.126 375.514 435.047 356.362 408.931M493.903 576.940C478.234 597.832 452.119 626.559 428.615 650.063C404.240 631.782 378.996 615.243 356.362 600.444L317.189 637.876C385.960 682.272 468.658 748.431 507.831 792.827L548.745 750.172C529.594 730.150 501.738 705.776 470.399 680.531C494.774 659.639 521.760 633.523 544.393 608.279"/></svg>