<svg xmlns="http://www.w3.org/2000/svg" viewBox="0 0 1000 1000" fill="currentColor"><path d="MNaN 200.435LNaN 686.522L741.391 686.522L741.391 200.435M825.739 103.913L825.739 810.870C825.739 824.783 820.522 829.130 806.609 830C791.826 830 745.739 830.870 693.565 828.261C703.130 847.391 712.696 875.217 716.174 892.609C782.261 893.478 826.609 891.739 851.826 880.435C877.043 870.870 887.478 851.739 887.478 810.870L887.478 103.913M395.304 577.826C425.739 601.304 462.261 631.739 488.348 656.957C447.478 744.783 394.435 810.870 331.826 850C345.739 862.174 364.870 884.783 373.565 900.435C507.478 807.391 597.913 625.652 627.478 348.261L589.217 338.696L577.913 340.435L466.609 340.435C478.783 297.826 489.217 254.348 497.913 209.130L644.870 209.130L644.870 147.391L342.261 147.391L342.261 209.130L434.435 209.130C408.348 348.261 364.870 477.826 301.391 563.913C316.174 573.478 341.391 594.348 351.826 603.913C390.087 550 422.261 479.565 448.348 400.435L560.522 400.435C550.957 472.609 534.435 538.696 513.565 596.957C488.348 575.217 457.043 551.739 430.957 533.478M268.348 100.435C234.435 228.261 178.783 353.478 112.696 436.087C123.130 452.609 140.522 488.261 145.739 503.043C167.478 475.217 188.348 443.913 207.478 410L207.478 897.826L268.348 897.826L268.348 285.652C290.957 230.870 310.957 173.478 327.478 116.957"/></svg>