<svg xmlns="http://www.w3.org/2000/svg" viewBox="0 0 1000 1000" fill="currentColor"><path d="M144.134 152.137C199.968 184.417 274.123 232.399 309.892 263.806L350.023 212.334C313.382 182.672 238.354 136.434 183.393 106.772M99.641 394.667C152.858 421.712 223.523 462.715 258.420 488.888L295.061 433.926C258.420 408.626 186.882 370.240 135.410 346.685M480.884 674.711C444.243 742.759 383.174 810.807 322.978 856.172C337.809 865.769 363.109 886.707 375.323 897.176C434.647 847.448 500.077 769.804 543.698 694.776M684.156 706.990C741.735 765.442 806.293 846.576 835.955 899.793L890.917 864.896C860.383 812.552 794.952 734.907 735.628 677.328M701.604 100.665L701.604 278.637L527.995 278.637L527.995 101.538L463.436 101.538L463.436 278.637L350.023 278.637L350.023 341.450L463.436 341.450L463.436 556.936L330.830 556.936L330.830 606.663L290.699 570.894C240.972 666.859 174.668 778.528 129.303 843.959L183.393 888.451C232.248 810.807 289.827 709.607 334.320 620.622L899.641 620.622L899.641 556.936L766.162 556.936L766.162 341.450L888.300 341.450L888.300 278.637L766.162 278.637L766.162 100.665M527.995 341.450L701.604 341.450L701.604 556.936L527.995 556.936"/></svg>