<svg xmlns="http://www.w3.org/2000/svg" viewBox="0 0 1000 1000" fill="currentColor"><path d="M100.224 120.314L100.224 187.578L719.955 187.578L719.955 783.991C719.955 802.825 713.677 808.206 693.946 810C672.422 810 598.879 810.897 527.130 807.309C537.892 827.040 550.448 860.224 554.933 879.955C643.722 879.955 706.502 879.955 742.377 868.296C777.354 856.637 789.910 833.318 789.910 784.888L789.910 187.578L900.224 187.578L900.224 120.314M257.175 383.991L493.049 383.991L493.049 590.269L257.175 590.269M191.704 319.417L191.704 726.592L257.175 726.592L257.175 654.843L559.417 654.843L559.417 319.417"/></svg>