<svg xmlns="http://www.w3.org/2000/svg" viewBox="0 0 1000 1000" fill="currentColor"><path d="M538.528 868.627C552.262 859.185 574.579 850.601 711.918 811.974C718.785 836.867 724.794 860.043 728.227 880.644L776.296 865.193C762.562 799.099 729.086 697.811 695.609 620.558L650.974 635.150C667.283 672.918 683.592 717.554 697.326 761.330L584.021 789.657C641.532 660.043 643.249 508.112 643.249 393.948L643.249 204.249L732.519 189.657C745.395 477.210 771.146 743.305 850.974 890.086C862.133 873.777 884.451 852.318 899.901 842.017C824.365 713.262 798.614 449.742 785.738 179.356C818.356 172.489 849.258 164.764 876.725 157.039L827.798 107.253C735.094 135.579 574.579 160.472 433.807 175.923L433.807 343.305C433.807 488.369 426.082 702.961 339.386 856.609C351.403 862.618 377.155 881.502 387.455 892.661C478.442 730.429 492.176 495.236 492.176 343.305L492.176 223.133L587.455 211.974L587.455 393.948C587.455 527.854 585.738 698.670 497.326 823.991C509.343 832.575 530.803 856.609 538.528 868.627M224.365 343.305L224.365 525.279L99.901 566.481L116.210 629.142L224.365 589.657L224.365 815.408C224.365 826.567 220.073 829.142 208.914 830C198.614 830 164.279 830 125.652 829.142C134.236 846.309 141.961 873.777 144.536 890.086C200.330 890.944 233.807 889.227 256.124 878.927C278.442 867.768 285.309 849.742 285.309 815.408L285.309 567.339L401.189 523.562L392.605 466.052L285.309 503.820L285.309 363.906C333.378 314.979 384.880 248.026 419.215 186.223L376.296 157.897L364.279 161.330L119.644 161.330L119.644 222.275L322.219 222.275C294.751 266.052 258.700 312.403 224.365 343.305"/></svg>