<svg xmlns="http://www.w3.org/2000/svg" viewBox="0 0 1000 1000" fill="currentColor"><path d="M549.366 151.781C613.191 181.508 693.628 227.847 733.847 261.945L777.563 211.235C736.470 179.760 654.284 135.169 593.082 108.066M757.454 393.093C702.372 482.273 628.929 560.087 543.246 625.661C510.896 554.842 485.541 468.284 468.055 372.984L885.104 338.011L878.984 275.060L458.437 310.033C449.694 242.710 444.448 172.765 444.448 100.197L371.880 100.197C372.754 173.639 378 246.208 387.617 315.279L106.962 338.885L112.208 403.585L397.235 379.104C416.470 486.645 445.322 585.443 483.792 667.628C379.749 736.699 259.967 790.907 132.317 829.377C146.306 845.115 168.164 875.716 177.781 892.328C298.437 850.361 412.973 796.153 516.142 727.956C579.093 834.623 663.027 900.197 766.197 900.197C846.634 900.197 875.486 859.104 892.098 707.847C871.989 702.601 844.885 687.738 829.148 672.874C819.530 793.530 805.541 830.251 767.945 830.251C693.628 830.251 627.180 776.044 574.721 686.863C671.770 613.421 756.579 525.989 822.153 423.694"/></svg>