<svg xmlns="http://www.w3.org/2000/svg" viewBox="0 0 1000 1000" fill="currentColor"><path d="M581.216 100.842C550.978 194.147 498.279 283.132 433.484 340.151C446.443 347.063 467.177 361.749 480.136 371.253L480.136 449.870L205.406 449.870L205.406 899.978L267.609 899.978L267.609 858.510L766.961 858.510L766.961 895.659L831.756 895.659L831.756 449.870L544.931 449.870L544.931 359.158L503.462 359.158C531.108 328.920 557.890 292.635 581.216 252.030L642.555 252.030C673.657 293.499 705.622 345.335 717.717 379.028L776.464 353.974C764.369 326.328 740.179 287.451 715.125 252.030L897.415 252.030L897.415 195.875L610.590 195.875C622.685 169.957 633.916 143.175 642.555 115.529M267.609 799.762L267.609 677.948L480.136 677.948L480.136 799.762M766.961 799.762L544.931 799.762L544.931 677.948L766.961 677.948M480.136 507.754L480.136 620.929L267.609 620.929L267.609 507.754M544.931 507.754L766.961 507.754L766.961 620.929L544.931 620.929M240.827 99.978C213.181 196.739 163.937 290.907 102.598 351.382C118.149 360.022 144.931 376.436 157.026 386.803C190.719 351.382 221.821 304.730 248.603 252.030L286.616 252.030C311.670 292.635 335.860 341.879 345.363 373.844L402.382 352.246C393.743 325.464 373.873 286.587 353.138 252.030L501.734 252.030L501.734 195.875L274.521 195.875C285.752 169.957 295.255 142.311 303.894 114.665"/></svg>