<svg xmlns="http://www.w3.org/2000/svg" viewBox="0 0 1000 1000" fill="currentColor"><path d="M147.511 165.460C187.173 211.030 236.118 273.477 258.903 312.295L311.224 278.540C287.595 240.565 237.806 179.806 197.300 135.924M284.219 399.215L115.443 399.215L115.443 458.287L222.616 458.287L222.616 726.641C186.329 741.831 143.291 780.650 100.253 831.283L145.823 889.511C187.173 830.439 226.835 777.274 253.840 777.274C272.405 777.274 301.097 807.654 336.540 831.283C397.300 870.101 469.030 879.384 578.734 879.384C663.966 879.384 820.928 874.321 880.844 870.101C881.688 850.692 892.658 818.624 900.253 801.747C815.021 810.186 685.907 817.781 580.422 817.781C481.688 817.781 408.270 811.873 351.730 775.586C320.506 755.333 301.097 738.456 284.219 728.329M370.295 197.527L370.295 331.705C370.295 435.502 362.700 585.713 306.160 696.262C318.819 702.169 343.291 719.046 353.418 730.017C409.114 625.376 423.460 481.072 425.992 371.367L842.025 371.367L842.025 197.527L650.464 197.527C641.181 172.211 624.304 136.768 610.802 111.451L552.574 128.329C562.700 149.426 573.671 174.743 582.110 197.527M432.743 432.127L432.743 771.367L485.063 771.367L485.063 618.624L559.325 618.624L559.325 749.426L604.051 749.426L604.051 618.624L679.156 618.624L679.156 749.426L725.570 749.426L725.570 618.624L801.519 618.624L801.519 716.515C801.519 722.422 799.831 724.954 793.080 724.954C787.173 725.797 769.451 725.797 748.354 724.954C755.105 738.456 761.857 757.865 763.544 771.367C797.300 771.367 819.241 770.523 834.430 762.928C851.308 753.646 854.684 740.987 854.684 717.359L854.684 432.127M559.325 570.523L485.063 570.523L485.063 480.228L559.325 480.228M604.051 570.523L604.051 480.228L679.156 480.228L679.156 570.523M725.570 570.523L725.570 480.228L801.519 480.228L801.519 570.523M426.835 243.941L782.954 243.941L782.954 324.954L426.835 324.954"/></svg>