<svg xmlns="http://www.w3.org/2000/svg" viewBox="0 0 1000 1000" fill="currentColor"><path d="M474.609 576.401L755.947 576.401L755.947 611.784L474.609 611.784M474.609 506.498L755.947 506.498L755.947 541.881L474.609 541.881M268.353 356.337C235.559 406.391 167.382 464.211 106.109 499.594C118.191 509.950 135.451 528.936 144.944 541.018C210.532 501.320 282.161 436.595 326.174 375.323M168.245 208.764L168.245 348.570L837.069 348.570L837.069 208.764L629.949 208.764L629.949 165.614L876.767 165.614L876.767 119.012L126.821 119.012L126.821 165.614L365.872 165.614L365.872 208.764M424.556 165.614L568.676 165.614L568.676 208.764L424.556 208.764M226.929 251.914L365.872 251.914L365.872 305.420L226.929 305.420M424.556 251.914L568.676 251.914L568.676 305.420L424.556 305.420M629.949 251.914L775.796 251.914L775.796 305.420L629.949 305.420M453.898 348.570C426.282 408.980 380.543 468.526 329.626 509.950L346.023 485.786L289.928 466.800C251.956 533.251 173.423 609.195 100.068 656.660C112.150 666.153 128.547 686.002 137.177 698.084C163.067 680.824 189.820 660.112 214.847 636.811L214.847 880.177L273.531 880.177L273.531 578.990C289.928 560.867 306.325 541.881 320.133 522.895C333.078 531.525 353.790 549.648 362.420 559.141C381.406 542.744 400.392 523.758 418.515 503.046L418.515 648.030L516.896 648.030C471.157 687.728 400.392 723.111 326.174 748.138C337.393 756.768 354.653 774.028 363.283 784.384C395.214 773.165 425.419 759.357 454.761 744.686C480.650 766.261 512.581 785.247 547.964 801.644C481.513 819.767 406.433 830.986 332.215 837.027C341.708 848.246 352.064 868.095 356.379 881.903C446.994 872.410 537.608 856.013 617.004 828.397C692.948 854.287 780.974 870.684 NaN 878.451C875.041 864.643 888.849 844.794 900.068 832.712C824.987 827.534 750.769 817.178 683.455 801.644C736.961 775.754 781.837 742.097 812.905 699.810L778.385 679.961L767.166 682.550L548.827 682.550C561.772 671.331 573.854 660.112 585.073 648.030L812.905 648.030L812.905 471.115L444.405 471.115L465.980 440.910L861.233 440.910L861.233 395.172L494.458 395.172L509.992 364.104M722.290 723.111C693.811 746.412 656.702 765.398 613.552 780.932C566.950 765.398 526.389 746.412 497.047 723.111"/></svg>