<svg xmlns="http://www.w3.org/2000/svg" viewBox="0 0 1000 1000" fill="currentColor"><path d="M529.804 443.169L779.431 443.169L779.431 502.807L529.804 502.807M529.804 343.489L779.431 343.489L779.431 402.275L529.804 402.275M527.248 106.641C497.429 190.134 445.459 270.219 386.673 323.042L386.673 139.868L161.753 139.868L161.753 446.577C161.753 572.669 157.493 743.915 100.411 864.043C115.747 870.006 140.454 883.638 152.381 893.862C189.868 812.924 206.055 704.724 212.871 603.340L327.887 603.340L327.887 815.480C327.887 827.408 324.479 830.816 313.404 830.816C302.328 831.668 269.101 831.668 230.763 830.816C239.282 847.855 247.802 875.118 249.506 891.306C304.884 891.306 337.259 889.602 358.558 879.378C379.857 869.154 386.673 849.559 386.673 816.332L386.673 324.745C401.157 334.117 426.716 354.564 437.791 366.492C448.867 355.416 459.942 342.637 471.018 329.005L471.018 547.110L563.031 547.110C522.988 614.415 457.387 675.757 387.525 715.800C401.157 726.023 424.160 747.323 433.531 759.250C462.498 740.507 492.317 716.652 520.432 690.241C543.436 720.912 570.699 749.027 602.222 773.734C539.176 806.109 466.758 829.112 395.193 841.891C406.268 854.671 420.752 877.674 425.864 893.010C505.097 875.970 583.478 848.707 652.488 810.368C712.978 848.707 783.691 877.674 860.368 893.010C868.888 876.822 886.780 851.263 900.411 837.632C830.550 826.556 764.096 804.405 706.162 775.438C763.244 733.691 810.102 681.721 839.921 616.971L800.731 598.228L788.803 600.784L597.962 600.784C609.889 583.744 620.965 566.705 630.337 548.814L624.373 547.110L839.921 547.110L839.921 299.186L494.021 299.186C507.653 281.295 519.580 261.700 531.508 242.104L879.112 242.104L879.112 186.726L562.179 186.726C572.403 166.279 581.774 144.980 589.442 123.681M217.983 197.802L327.887 197.802L327.887 339.229L217.983 339.229M217.983 398.015L327.887 398.015L327.887 543.702L216.279 543.702C217.983 509.623 217.983 476.396 217.983 446.577M555.363 654.458L559.623 650.198L752.168 650.198C727.461 685.981 693.382 717.504 653.340 743.915C613.297 717.504 580.070 686.833 555.363 654.458"/></svg>