<svg xmlns="http://www.w3.org/2000/svg" viewBox="0 0 1000 1000" fill="currentColor"><path d="M424.307 730.433C466.732 764.199 514.351 812.684 535.996 845.584L583.615 809.221C561.104 776.320 510.887 729.567 468.463 697.532M403.528 298.398L403.528 592.771L460.671 592.771L460.671 533.896L590.541 533.896L590.541 589.307L650.281 589.307L650.281 533.896L791.407 533.896L791.407 592.771L850.281 592.771L850.281 298.398L650.281 298.398L650.281 249.913L894.437 249.913L894.437 197.100L831.234 197.100L852.013 171.126C824.307 150.346 771.494 121.775 729.935 105.325L699.632 141.688C732.532 157.273 771.494 178.918 799.199 197.100L650.281 197.100L650.281 101.861L590.541 101.861L590.541 197.100L355.909 197.100L355.909 249.913L590.541 249.913L590.541 298.398M590.541 440.390L590.541 490.606L460.671 490.606L460.671 440.390M650.281 440.390L791.407 440.390L791.407 490.606L650.281 490.606M590.541 396.234L460.671 396.234L460.671 345.152L590.541 345.152M650.281 396.234L650.281 345.152L791.407 345.152L791.407 396.234M703.961 568.528L703.961 636.061L331.667 636.061L331.667 691.472L703.961 691.472L703.961 830.866C703.961 840.390 701.364 843.853 688.377 843.853C676.255 844.719 635.563 844.719 590.541 843.853C598.333 859.437 606.991 881.948 609.589 898.398C670.195 898.398 709.156 898.398 734.264 889.740C759.372 881.082 766.299 864.632 766.299 831.732L766.299 691.472L899.632 691.472L899.632 636.061L766.299 636.061L766.299 568.528M206.126 102.727L206.126 331.299L99.632 331.299L99.632 391.905L206.126 391.905L206.126 898.398L270.195 898.398L270.195 391.905L371.494 391.905L371.494 331.299L270.195 331.299L270.195 102.727"/></svg>