<svg xmlns="http://www.w3.org/2000/svg" viewBox="0 0 1000 1000" fill="currentColor"><path d="M438.946 467.741L767.240 467.741L767.240 529.944L438.946 529.944M438.946 359.749L767.240 359.749L767.240 420.225L438.946 420.225M140.026 165.365C187.542 196.467 247.153 242.255 274.799 273.356L317.996 224.976C287.758 195.603 228.147 151.542 180.631 122.168M100.285 396.035C148.665 423.680 210.004 465.149 240.242 494.523L279.983 443.551C248.881 415.905 187.542 376.164 139.162 351.974M118.428 836.639L176.311 873.788C216.916 794.307 264.432 688.907 300.717 599.922L248.881 562.773C209.140 658.670 155.577 770.117 118.428 836.639M673.935 102.298L673.935 174.004L532.251 174.004L532.251 102.298L470.048 102.298L470.048 174.004L337.002 174.004L337.002 229.296L470.048 229.296L470.048 294.091L532.251 294.091L532.251 229.296L673.935 229.296L673.935 294.091L736.138 294.091L736.138 229.296L882.143 229.296L882.143 174.004L736.138 174.004L736.138 102.298M378.471 310.505L378.471 578.324L565.944 578.324C562.488 604.242 559.032 627.568 552.985 650.030L320.587 650.030L320.587 705.322L532.251 705.322C496.829 773.572 429.443 818.497 291.214 845.279C303.309 858.238 319.724 882.428 324.907 897.978C489.054 861.693 564.216 799.490 601.365 705.322C649.745 802.946 737.866 868.605 860.544 897.978C868.320 880.700 886.462 856.510 900.285 843.551C793.158 823.680 711.948 776.164 665.296 705.322L885.598 705.322L885.598 650.030L617.780 650.030C622.963 627.568 627.283 603.378 629.875 578.324L830.307 578.324L830.307 310.505"/></svg>