<svg xmlns="http://www.w3.org/2000/svg" viewBox="0 0 1000 1000" fill="currentColor"><path d="M273.307 480.059L273.307 532.346L742.153 532.346L742.153 480.059M643.678 724.939C709.908 771.998 790.954 839.972 829.298 882.673L883.329 846.072C842.370 801.627 760.453 736.268 695.094 691.824M292.479 690.081C251.521 744.983 182.675 799.885 117.316 836.486C133.002 845.200 158.275 866.115 170.475 878.316C234.092 837.357 307.294 774.612 355.224 710.996M141.717 597.706L141.717 653.479L472.871 653.479L472.871 828.643C472.871 839.972 469.386 843.458 454.571 844.329C439.756 845.200 388.340 845.200 331.695 843.458C341.281 859.144 353.481 882.673 357.839 900.102C428.427 900.102 472.871 899.231 501.630 890.516C530.388 880.930 538.231 864.373 538.231 830.386L538.231 653.479L873.743 653.479L873.743 597.706M444.985 296.181C456.314 315.353 468.514 338.882 477.229 359.797L145.203 359.797L145.203 500.974L207.076 500.974L207.076 412.956L806.641 412.956L806.641 500.974L870.257 500.974L870.257 359.797L552.174 359.797C540.845 334.525 525.159 303.153 508.601 278.752L843.242 278.752L843.242 129.732L775.268 129.732L775.268 222.107L539.974 222.107L539.974 100.102L472.871 100.102L472.871 222.107L244.549 222.107L244.549 129.732L178.318 129.732L178.318 278.752L505.115 278.752"/></svg>