<svg xmlns="http://www.w3.org/2000/svg" viewBox="0 0 1000 1000" fill="currentColor"><path d="M395.078 443.289C422.576 533.515 449.214 652.097 459.525 719.981L516.238 704.513C505.927 638.348 476.711 522.344 448.354 432.977M818.709 432.977C803.242 516.329 771.448 634.911 743.951 705.373L793.789 719.981C821.287 650.378 854.799 538.670 878.859 448.445M456.947 141.678C485.304 185.502 513.661 243.933 523.113 281.742L579.826 257.682C569.515 219.873 540.299 163.160 510.223 120.195M119.246 168.316L119.246 226.748L217.205 226.748C196.582 371.108 162.211 506.876 100.342 597.102C110.653 611.710 126.120 644.363 130.417 659.830C148.462 634.052 164.788 604.836 179.396 573.901L179.396 872.075L232.672 872.075L232.672 800.754L363.285 800.754L363.285 425.244L232.672 425.244C250.718 362.516 263.607 295.491 274.778 226.748L389.063 226.748L389.063 168.316M232.672 477.661L313.446 477.661L313.446 748.337L232.672 748.337M740.513 118.477C724.187 169.175 694.112 240.496 667.474 286.039L386.485 286.039L386.485 343.611L538.580 343.611L538.580 825.673L369.300 825.673L369.300 882.387L900.342 882.387L900.342 825.673L728.483 825.673L728.483 343.611L882.296 343.611L882.296 286.039L728.483 286.039C753.403 243.933 781.759 187.220 804.960 137.381M592.715 825.673L592.715 343.611L674.348 343.611L674.348 825.673"/></svg>