<svg xmlns="http://www.w3.org/2000/svg" viewBox="0 0 1000 1000" fill="currentColor"><path d="M114.547 152.872L114.547 831.871L171.131 831.871L171.131 756.136L351.326 756.136L351.326 592.480C362.643 605.538 377.442 622.948 383.535 632.523C412.262 617.725 440.989 602.055 468.845 585.516L468.845 899.770L529.781 899.770L529.781 864.079L758.726 864.079L758.726 896.288L822.273 896.288L822.273 520.227L564.602 520.227C601.163 493.242 635.113 463.644 667.322 431.435L885.820 431.435L885.820 372.240L723.035 372.240C777.007 310.434 823.144 240.793 861.446 165.059L803.122 146.778C784.841 184.210 763.949 219.901 741.316 253.851L741.316 204.232L620.314 204.232L620.314 99.770L558.508 99.770L558.508 204.232L409.651 204.232L409.651 262.556L558.508 262.556L558.508 372.240L374.830 372.240L374.830 431.435L581.141 431.435C512.371 490.630 434.896 539.379 351.326 577.681L351.326 152.872M620.314 262.556L735.222 262.556C708.236 301.729 677.768 338.291 644.689 372.240L620.314 372.240M529.781 716.092L758.726 716.092L758.726 809.237L529.781 809.237M529.781 662.991L529.781 575.070L758.726 575.070L758.726 662.991M295.614 389.651L295.614 513.263L171.131 513.263L171.131 389.651M295.614 333.067L171.131 333.067L171.131 212.066L295.614 212.066M295.614 569.847L295.614 697.812L171.131 697.812L171.131 569.847"/></svg>