<svg xmlns="http://www.w3.org/2000/svg" viewBox="0 0 1000 1000" fill="currentColor"><path d="M701.751 540.305L701.751 667.343L418.489 667.343L418.489 726.571L701.751 726.571L701.751 894.811L763.554 894.811L763.554 726.571L900.034 726.571L900.034 667.343L763.554 667.343L763.554 540.305M457.974 193.524L457.974 522.279L597.888 522.279C576.429 559.189 543.811 593.524 492.309 622.708C505.185 631.292 524.069 651.034 532.652 663.052C601.322 623.567 639.948 573.781 662.266 522.279L868.275 522.279L868.275 193.524L669.133 193.524C678.575 169.489 689.734 142.021 699.176 115.412L627.073 105.112C622.781 130.863 613.339 164.339 603.897 193.524M115.485 152.322L115.485 211.549L216.773 211.549C197.030 360.047 162.695 499.961 100.034 591.807C112.052 605.541 132.652 634.725 139.519 649.318C153.253 628.717 166.129 605.541 178.146 580.648L178.146 850.176L233.082 850.176L233.082 777.215L399.605 777.215L399.605 411.549L239.090 411.549C255.399 348.888 268.275 281.077 278.575 211.549L432.223 211.549L432.223 152.322M233.082 468.202L342.953 468.202L342.953 719.704L233.082 719.704M515.485 383.223L632.223 383.223C631.365 410.691 627.931 439.876 620.206 469.060L515.485 469.060M688.017 383.223L807.330 383.223L807.330 469.060L678.575 469.060C684.584 439.876 687.159 411.549 688.017 383.223M515.485 246.742L632.223 246.742L632.223 331.721L515.485 331.721M688.017 246.742L807.330 246.742L807.330 331.721L688.017 331.721"/></svg>