<svg xmlns="http://www.w3.org/2000/svg" viewBox="0 0 1000 1000" fill="currentColor"><path d="M717.742 711.591C761.613 755.462 814.086 816.538 838.172 855.247L888.065 824.280C863.118 786.430 808.925 727.075 764.194 684.065M426.129 487.935L426.129 540.409L841.613 540.409L841.613 487.935M459.677 688.366C432.151 738.258 388.280 790.731 344.409 826.860C358.172 835.462 382.258 852.667 392.581 862.989C435.591 822.559 483.763 761.484 515.591 704.710M182.688 123.204C206.774 159.333 236.882 208.366 249.785 239.333L303.118 215.247C289.355 185.140 260.108 138.688 233.441 104.280M377.957 607.505L377.957 660.839L601.613 660.839L601.613 829.441C601.613 838.903 598.172 840.624 588.710 841.484C577.527 842.344 544.839 842.344 506.129 841.484C513.871 856.968 523.333 879.333 525.914 896.538C576.667 896.538 611.935 896.538 634.301 886.215C656.667 877.613 662.688 861.269 662.688 830.301L662.688 660.839L885.484 660.839L885.484 607.505M478.602 112.882L478.602 198.903L384.839 198.903L384.839 251.376L465.699 251.376C437.312 308.151 390.860 366.645 350.430 395.892C361.613 405.355 377.957 421.699 385.699 432.882C417.527 406.215 451.075 361.484 478.602 313.312L478.602 461.269L531.935 461.269L531.935 307.290C554.301 328.796 580.968 355.462 593.011 370.086L621.398 330.516C607.634 318.473 551.720 270.301 531.935 255.677L531.935 251.376L605.914 251.376L605.914 198.903L531.935 198.903L531.935 112.882M723.763 112.882L723.763 198.903L634.301 198.903L634.301 251.376L709.140 251.376C683.333 309.871 640.323 370.946 597.312 401.054C608.495 409.656 623.978 426.860 632.581 438.043C666.129 411.376 698.817 365.785 723.763 315.892L723.763 461.269L777.957 461.269L777.957 321.914C804.624 364.065 834.731 405.355 860.538 432.022C870 419.118 887.204 401.054 900.108 391.591C863.118 361.484 816.667 303.849 786.559 251.376L876.882 251.376L876.882 198.903L777.957 198.903L777.957 112.882M125.914 256.538L125.914 314.172L291.075 314.172C248.065 421.699 170.645 533.527 100.108 599.763C110.430 609.226 125.914 635.892 131.075 651.376C156.022 627.290 180.968 598.043 205.914 564.495L205.914 894.817L265.269 894.817L265.269 542.989C291.075 579.118 319.462 622.129 333.226 644.495L372.796 599.763L314.301 528.366C335.806 510.301 359.892 487.935 383.118 465.570L340.968 430.301C328.065 448.366 305.699 475.032 286.774 495.677L267.849 474.172C305.699 412.237 339.247 343.419 361.613 275.462L329.785 253.957L319.462 256.538"/></svg>