<svg xmlns="http://www.w3.org/2000/svg" viewBox="0 0 1000 1000" fill="currentColor"><path d="M580.463 107.885C589.038 132.751 596.755 163.620 601.042 189.343L376.390 189.343L376.390 242.505L866.851 242.505L866.851 189.343L668.780 189.343C663.636 162.762 654.204 127.607 643.057 100.168M577.033 442.290C585.608 466.299 594.182 496.310 598.469 520.318L367.816 520.318L367.816 575.195L507.580 575.195C496.433 709.815 465.565 802.419 332.660 853.866C346.379 864.155 364.386 886.449 371.245 900.168C473.282 858.153 523.871 794.702 549.595 708.100L763.100 708.100C755.383 790.415 746.808 825.570 734.804 836.717C727.944 843.577 720.227 844.434 706.508 844.434C691.931 844.434 655.061 843.577 615.618 840.147C625.050 855.581 631.910 878.732 632.767 895.881C674.782 897.596 714.225 897.596 734.804 896.738C758.812 895.024 775.104 889.879 788.823 875.302C810.259 854.723 820.549 803.277 830.838 679.804C832.553 672.087 833.411 654.938 833.411 654.938L561.599 654.938C566.744 630.072 569.316 603.491 571.889 575.195L873.711 575.195L873.711 520.318L666.208 520.318C661.921 494.595 649.916 460.297 638.770 432.859M356.669 353.116L356.669 490.308L419.263 490.308L419.263 405.420L825.693 405.420L825.693 490.308L890.002 490.308L890.002 353.116L753.668 353.116C767.387 323.962 782.821 288.807 797.398 255.367L729.659 243.362C721.085 275.088 703.936 319.675 688.502 353.116L535.876 353.116L559.884 347.971C554.740 323.105 540.163 280.233 525.586 247.650L466.422 257.939C478.427 287.092 489.573 326.535 494.718 353.116M312.081 112.173C266.637 241.647 190.324 370.265 110.581 454.295C121.728 468.871 140.592 502.312 147.451 517.746C172.317 490.308 197.183 458.582 221.192 425.141L221.192 895.881L282.928 895.881L282.928 325.677C318.084 263.941 348.952 197.060 373.818 130.179"/></svg>