<svg xmlns="http://www.w3.org/2000/svg" viewBox="0 0 1000 1000" fill="currentColor"><path d="M694.729 139.063C735.510 178.108 784.967 231.905 809.262 265.744L854.382 229.302C830.087 195.462 779.761 144.269 738.113 107.826M198.416 192.859L358.069 192.859L358.069 345.570L198.416 345.570M557.636 100.017C557.636 159.020 557.636 220.625 555.033 283.098L442.234 283.098L442.234 342.100L552.430 342.100C541.150 541.666 504.707 737.761 379.761 851.427C395.380 860.972 417.072 880.061 427.484 893.944C511.649 814.117 558.503 699.584 584.534 572.035C607.093 636.243 634.859 693.510 670.434 742.967C630.521 786.351 585.401 820.191 535.944 845.354C548.091 855.766 568.048 882.664 575.857 898.282C624.447 872.252 669.566 836.677 710.347 793.293C751.128 838.412 800.586 874.855 857.852 900.017C867.397 883.531 885.618 859.236 900.369 845.354C842.234 822.794 791.909 788.087 751.128 742.967C805.792 667.479 848.308 571.167 871.735 454.030L832.690 438.412L820.542 441.015L604.490 441.015C607.961 408.043 610.564 375.072 612.299 342.100L886.486 342.100L886.486 283.098L614.902 283.098C617.505 221.492 618.373 159.887 618.373 100.017M620.108 496.547L798.850 496.547C778.894 572.902 748.525 637.978 710.347 692.642C671.302 636.243 640.933 569.432 620.108 496.547M100.369 791.557L115.987 853.163C204.490 828 325.965 794.161 440.499 762.056L432.690 705.657L321.627 735.158L321.627 580.711L429.219 580.711L429.219 523.445L321.627 523.445L321.627 401.970L417.939 401.970L417.939 136.460L141.150 136.460L141.150 401.970L263.492 401.970L263.492 750.777L198.416 767.262L198.416 484.399L143.753 484.399L143.753 781.145"/></svg>