<svg xmlns="http://www.w3.org/2000/svg" viewBox="0 0 1000 1000" fill="currentColor"><path d="M395.116 658.940C464.569 676.089 552.029 708.672 596.616 732.681L626.627 686.378C579.467 662.370 491.150 632.359 422.554 617.782M293.079 795.274C427.699 814.996 594.901 860.441 687.506 899.883L714.944 845.864C620.625 809.851 454.280 765.264 320.518 746.400M122.447 528.608L122.447 580.912L330.807 580.912C275.930 646.078 189.328 703.527 102.726 732.681C117.302 745.542 137.024 767.836 146.456 783.270C244.205 744.685 344.526 667.514 401.975 580.912L591.472 580.912C654.923 659.797 759.532 735.253 853.851 774.696C863.283 758.404 883.004 735.253 897.581 723.249C816.123 694.953 726.091 640.076 666.070 580.912L880.432 580.912L880.432 528.608L657.495 528.608L657.495 464.299L774.108 464.299L774.108 417.139L657.495 417.139L657.495 354.546L789.542 354.546L789.542 306.528L657.495 306.528L657.495 247.364L592.329 247.364L592.329 306.528L408.835 306.528L408.835 247.364L344.526 247.364L344.526 306.528L207.334 306.528L207.334 354.546L344.526 354.546L344.526 417.139L221.911 417.139L221.911 464.299L344.526 464.299L344.526 528.608M408.835 354.546L592.329 354.546L592.329 417.139L408.835 417.139M408.835 464.299L592.329 464.299L592.329 528.608L408.835 528.608M447.420 117.890C455.995 133.324 465.427 152.188 474.001 170.194L136.166 170.194L136.166 326.250L198.760 326.250L198.760 225.071L798.974 225.071L798.974 326.250L864.140 326.250L864.140 170.194L548.599 170.194C539.167 147.043 525.448 120.462 511.729 99.883"/></svg>