<svg xmlns="http://www.w3.org/2000/svg" viewBox="0 0 1000 1000" fill="currentColor"><path d="M627.044 232.083L807.326 232.083L807.326 416.699L627.044 416.699M566.373 173.145L566.373 475.637L870.598 475.637L870.598 173.145M327.153 728.725L731.053 728.725L731.053 814.532L327.153 814.532M327.153 677.587L327.153 596.114L731.053 596.114L731.053 677.587M263.014 542.376L263.014 900.339L327.153 900.339L327.153 868.270L731.053 868.270L731.053 898.606L796.925 898.606L796.925 542.376M234.412 100.339C215.343 165.345 180.674 230.350 137.337 274.554C152.072 281.488 177.207 297.089 189.341 306.623C208.410 284.954 226.611 258.086 243.946 227.750L317.619 227.750L317.619 278.887L315.885 310.090L137.337 310.090L137.337 363.828L304.618 363.828C285.549 416.699 239.612 473.904 128.670 517.241C143.404 528.508 162.472 548.443 171.140 562.311C262.147 521.574 314.152 472.170 343.621 421.899C386.958 451.368 451.963 498.172 477.965 518.974L523.036 474.770C497.900 457.436 399.092 396.764 363.556 377.696L367.889 363.828L529.970 363.828L529.970 310.090L378.290 310.090L379.157 278.887L379.157 227.750L507.434 227.750L507.434 174.879L270.815 174.879C279.482 154.944 287.283 133.275 294.217 112.473"/></svg>