<svg xmlns="http://www.w3.org/2000/svg" viewBox="0 0 1000 1000" fill="currentColor"><path d="M488.306 462.644L623.235 462.644L623.235 593.221L488.306 593.221M488.306 403.449L488.306 276.355L623.235 276.355L623.235 403.449M820.841 462.644L820.841 593.221L685.912 593.221L685.912 462.644M820.841 403.449L685.912 403.449L685.912 276.355L820.841 276.355M623.235 99.641L623.235 215.419L428.240 215.419L428.240 701.164L488.306 701.164L488.306 654.157L623.235 654.157L623.235 899.641L685.912 899.641L685.912 654.157L820.841 654.157L820.841 696.812L883.518 696.812L883.518 215.419L685.912 215.419L685.912 99.641M116.597 688.107L142.713 753.395C217.577 721.186 312.462 677.661 402.125 635.876L388.197 577.552L295.052 616.725L295.052 370.370L392.550 370.370L392.550 308.564L295.052 308.564L295.052 109.217L230.634 109.217L230.634 308.564L125.303 308.564L125.303 370.370L230.634 370.370L230.634 643.711C187.979 661.121 148.806 676.790 116.597 688.107"/></svg>