<svg xmlns="http://www.w3.org/2000/svg" viewBox="0 0 1000 1000" fill="currentColor"><path d="M133.730 183.676L133.730 241.622L398.378 241.622L398.378 183.676M126.811 746.703C143.243 736.324 171.784 729.405 365.514 690.486C372.432 713.838 378.486 734.595 382.811 752.757L436.432 733.730C420.865 673.189 385.405 582.378 349.081 512.324L298.919 529.622C315.351 562.486 331.784 601.405 346.486 639.459L190.811 666.270C223.676 598.811 253.946 515.784 276.432 437.946L420 437.946L420 379.135L102.595 379.135L102.595 437.946L212.432 437.946C191.676 525.297 157.081 610.919 144.973 635.135C132 664.541 119.892 684.432 106.919 688.757C113.838 704.324 124.216 733.730 126.811 746.703M701.946 766.595C711.459 760.541 731.351 755.351 829.946 737.189L839.459 771.784L847.243 768.324C844.649 823.676 839.459 831.459 816.973 831.459C798.811 831.459 727.027 831.459 712.324 831.459C682.054 831.459 677.730 828 677.730 806.378L677.730 575.459L646.595 575.459L653.514 545.189L850.703 545.189L850.703 188.865L647.459 188.865C660.432 164.649 674.270 136.973 686.378 109.297L613.730 99.784C606.811 125.730 593.838 160.324 581.730 188.865L452.865 188.865L452.865 545.189L593.838 545.189C564.432 669.730 505.622 783.027 384.541 853.946C400.108 865.189 419.135 885.081 428.649 899.784C524.649 840.108 583.459 755.351 620.649 658.486L620.649 807.243C620.649 866.919 637.946 881.622 706.270 881.622C720.973 881.622 808.324 881.622 822.162 881.622C875.784 881.622 891.351 861.730 898.270 785.622C884.432 782.162 863.676 775.243 850.703 767.459L877.514 756.216C870.595 721.622 848.108 665.405 826.486 623.027L790.162 635.135C799.676 655.027 809.189 677.514 817.838 699.135L749.514 709.514C769.405 672.324 790.162 624.757 803.135 578.054L756.432 562.486C746.054 618.703 719.243 678.378 710.595 694.811C702.811 709.514 695.027 719.892 686.378 721.622C691.568 733.730 700.216 757.081 701.946 766.595M512.541 391.243L617.189 391.243C613.730 424.108 610.270 457.838 604.216 490.703L512.541 490.703M676 391.243L789.297 391.243L789.297 490.703L663.892 490.703C669.081 457.838 672.541 424.108 676 391.243M512.541 242.486L624.108 242.486L620.649 340.216L512.541 340.216M683.784 242.486L789.297 242.486L789.297 340.216L679.459 340.216"/></svg>