<svg xmlns="http://www.w3.org/2000/svg" viewBox="0 0 1000 1000" fill="currentColor"><path d="M211.723 101.727L211.723 897.398L272.329 897.398L272.329 101.727M144.190 267.095C139.861 338.957 125.143 434.195 101.766 490.472L151.983 508.654C176.225 446.316 190.944 346.749 193.541 274.887M277.524 258.437C302.632 312.983 325.143 384.844 331.203 428.134L380.554 406.489C374.494 364.065 350.251 294.801 324.277 241.987M576.225 411.684C565.835 486.143 547.654 559.736 516.485 610.818C528.606 616.879 550.251 629.866 559.775 637.658C590.944 583.978 613.455 502.593 626.442 421.208M818.649 405.623C804.797 479.216 780.554 557.139 750.251 609.087C764.104 615.147 787.481 625.537 798.736 633.329C827.307 578.784 854.147 495.667 871.463 416.879M504.364 99.996C500.035 145.883 495.706 190.039 490.511 233.329L367.567 233.329L367.567 293.069L481.853 293.069C452.416 475.753 402.199 628.134 307.827 730.299C320.814 740.688 346.788 763.199 356.312 774.455C457.610 657.571 510.424 493.935 542.459 293.069L885.316 293.069L885.316 233.329L551.117 233.329C556.312 191.771 560.641 149.346 564.970 105.190M677.524 323.372C666.268 605.623 629.039 777.918 434.234 847.182C448.087 860.169 463.671 883.545 471.463 899.996C582.286 854.974 646.355 783.113 682.719 676.619C719.948 774.455 776.225 852.377 857.610 893.935C866.268 878.351 884.450 855.840 899.169 844.584C802.199 802.160 738.130 704.325 706.961 584.844C721.680 511.251 728.606 425.537 732.069 325.970"/></svg>