<svg xmlns="http://www.w3.org/2000/svg" viewBox="0 0 1000 1000" fill="currentColor"><path d="M216.583 287.359L451.375 287.359L451.375 354.808L216.583 354.808M216.583 176.366L451.375 176.366L451.375 242.962L216.583 242.962M159.379 130.261L159.379 401.766L511.140 401.766L511.140 130.261M177.308 557.156C172.186 662.172 156.818 778.287 99.614 841.467C114.128 850.859 132.911 872.204 142.303 885.864C177.308 846.590 198.653 792.801 213.168 733.036C284.886 846.590 401.855 867.935 582.858 867.935L876.561 867.935C879.123 850.859 890.222 824.392 899.614 809.877C850.094 811.585 620.425 811.585 582.858 811.585C500.041 811.585 430.884 807.316 373.680 790.240L373.680 664.733L531.631 664.733L531.631 610.945L373.680 610.945L373.680 513.613L546.999 513.613L546.999 459.824L114.128 459.824L114.128 513.613L312.207 513.613L312.207 762.919C275.494 740.720 247.319 707.423 225.974 658.757C231.097 625.459 233.658 591.307 235.366 557.156M582.858 114.893L582.858 630.582C582.858 709.130 603.349 729.621 675.921 729.621C692.143 729.621 788.621 729.621 804.843 729.621C868.877 729.621 885.953 696.323 892.783 592.161C875.708 587.892 850.094 577.647 836.433 566.547C833.018 652.780 827.895 672.417 799.720 672.417C780.083 672.417 699.827 672.417 684.459 672.417C650.307 672.417 644.331 665.587 644.331 631.435L644.331 416.281C724.587 381.275 811.673 336.878 876.561 295.043L828.749 248.084C784.352 283.943 714.342 325.779 644.331 359.931L644.331 114.893"/></svg>