<svg xmlns="http://www.w3.org/2000/svg" viewBox="0 0 1000 1000" fill="currentColor"><path d="M613.522 116.087C630.043 147.391 645.696 188.261 653.522 218.696LNaN 218.696LNaN 278.696L623.957 278.696C596.130 330 551.783 405.652 536.130 424.783C522.217 439.565 499.609 446.522 481.348 450C487.435 464.783 NaN 496.957 499.609 513.478C514.391 507.391 539.609 503.043 682.217 492.609C617 562.174 537 620.435 450.043 659.565C465.696 672.609 483.957 694.348 492.652 709.130C644.826 634.348 773.522 508.261 848.304 360.435L789.174 337.826C772.652 371.739 752.652 403.913 730.043 435.217L600.478 441.304C629.174 394.348 666.565 328.261 694.391 278.696L889.174 278.696L889.174 218.696L703.087 218.696L720.478 213.478C714.391 183.043 695.261 135.217 673.522 99.565M833.522 511.739C757.870 662.174 613.522 783.913 NaN 846.522C452.652 861.304 470.043 883.913 478.739 899.565C570.043 863.043 652.652 812.609 723.087 751.739C770.913 797.826 823.957 856.957 849.174 896.087L899.609 855.217C871.783 816.087 815.261 757.826 764.826 711.739CNaN 658.696 859.609 599.565 893.522 534.348M199.609 283.043L268.304 283.043L268.304 366.522L199.609 366.522M199.609 237.826L199.609 179.565L353.522 179.565L353.522 366.522L307.435 366.522L307.435 237.826M205.696 631.739L348.304 631.739L348.304 698.696L205.696 698.696M205.696 584.783L205.696 519.565L348.304 519.565L348.304 584.783M99.609 366.522L99.609 491.739L149.174 491.739L149.174 899.565L205.696 899.565L205.696 746.522L348.304 746.522L348.304 835.217C348.304 843.913 344.826 846.522 336.130 846.522C327.435 847.391 297.870 847.391 264.826 846.522C271.783 861.304 280.478 883.043 283.087 897.826C331.783 897.826 361.348 896.957 381.348 888.261C400.478 878.696 406.565 863.913 406.565 835.217L406.565 491.739L457.870 491.739L457.870 366.522L406.565 366.522L406.565 130L148.304 130L148.304 366.522M379.609 472.609L152.652 472.609L152.652 414.348L403.087 414.348L403.087 472.609"/></svg>