<svg xmlns="http://www.w3.org/2000/svg" viewBox="0 0 1000 1000" fill="currentColor"><path d="M205.921 124.976L205.921 467.710L465.986 467.710L465.986 540.907L122.391 540.907L122.391 600.326L413.456 600.326C335.954 682.996 212.811 757.054 100.001 794.083C114.640 807.861 134.447 831.112 144.780 847.474C258.451 804.417 382.455 722.608 465.986 627.883L465.986 875.891L534.016 875.891L534.016 623.577C619.269 715.719 744.996 799.250 856.083 843.168C865.555 826.806 886.223 802.694 900.001 788.916C791.497 752.748 666.632 679.551 586.546 600.326L877.611 600.326L877.611 540.907L534.016 540.907L534.016 467.710L799.248 467.710L799.248 124.976M272.229 322.178L465.986 322.178L465.986 411.736L272.229 411.736M534.016 322.178L729.495 322.178L729.495 411.736L534.016 411.736M272.229 180.950L465.986 180.950L465.986 268.787L272.229 268.787M534.016 180.950L729.495 180.950L729.495 268.787L534.016 268.787"/></svg>