<svg xmlns="http://www.w3.org/2000/svg" viewBox="0 0 1000 1000" fill="currentColor"><path d="M886.412 158.765L415.824 158.765L415.824 853.524L900.102 853.524L900.102 795.342L477.428 795.342L477.428 217.802L886.412 217.802M507.374 655.877L507.374 712.348L873.578 712.348L873.578 655.877L713.578 655.877L713.578 522.401L848.765 522.401L848.765 467.642L713.578 467.642L713.578 347.856L866.733 347.856L866.733 292.241L515.075 292.241L515.075 347.856L653.684 347.856L653.684 467.642L529.620 467.642L529.620 522.401L653.684 522.401L653.684 655.877M239.567 106.572L239.567 285.396L113.791 285.396L113.791 346.144L234.433 346.144C207.909 459.086 154.005 588.283 100.102 654.166C110.369 670.422 125.770 697.802 131.759 715.770C171.118 661.866 210.476 573.738 239.567 482.187L239.567 892.882L298.604 892.882L298.604 445.396C326.840 484.754 360.209 534.380 374.754 560.048L408.979 504.433C392.722 484.754 325.128 403.471 298.604 376.091L298.604 346.144L393.578 346.144L393.578 285.396L298.604 285.396L298.604 106.572"/></svg>