<svg xmlns="http://www.w3.org/2000/svg" viewBox="0 0 1000 1000" fill="currentColor"><path d="M558.327 173.574L558.327 861.803L622.573 861.803L622.573 789.636L818.833 789.636L818.833 855.642L885.719 855.642L885.719 173.574M622.573 726.270L622.573 236.941L818.833 236.941L818.833 726.270M477.359 99.647C399.911 131.330 260.857 157.733 143.805 173.574C150.846 188.536 159.647 211.418 162.287 226.380C208.932 221.099 259.097 214.058 308.382 205.257L308.382 352.232L135.004 352.232L135.004 413.838L291.660 413.838C251.176 524.729 180.769 645.301 113.882 713.068C125.323 729.790 142.045 755.312 149.966 774.674C207.172 713.948 265.257 612.738 308.382 508.888L308.382 899.647L373.508 899.647L373.508 511.528C411.352 561.693 460.637 628.580 480.879 662.023L521.363 607.458C500.241 580.175 406.072 469.284 373.508 435.840L373.508 413.838L527.524 413.838L527.524 352.232L373.508 352.232L373.508 192.056C428.954 180.615 479.999 167.414 521.363 151.572"/></svg>