<svg xmlns="http://www.w3.org/2000/svg" viewBox="0 0 1000 1000" fill="currentColor"><path d="M178.644 636.419C159.049 696.056 130.082 762.510 100.263 808.517C114.747 813.628 139.454 825.556 151.381 833.224C178.644 785.513 210.167 713.096 232.318 650.050M393.341 656.014C417.196 699.464 444.459 759.102 456.387 794.033L507.505 770.178C494.725 736.099 465.758 679.017 441.903 636.419M649.784 383.383L649.784 423.426C649.784 540.998 637.856 713.948 485.354 849.411C501.541 858.783 523.692 878.378 534.768 892.010C619.965 814.480 664.267 724.171 687.271 638.122C722.201 749.731 775.875 840.891 856.813 890.306C866.184 873.266 885.780 849.411 900.263 837.483C798.879 782.957 738.389 652.606 707.718 506.067C709.422 477.100 710.274 449.837 710.274 424.278L710.274 383.383M283.437 109.901L283.437 188.282L116.450 188.282L116.450 242.808L283.437 242.808L283.437 316.078L136.046 316.078L136.046 369.752L493.021 369.752L493.021 316.078L343.927 316.078L343.927 242.808L510.061 242.808L510.061 188.282L343.927 188.282L343.927 109.901M106.227 552.925L106.227 607.452L284.289 607.452L284.289 823C284.289 831.520 281.733 834.076 271.509 834.076C262.137 834.928 232.318 834.928 198.240 834.076C205.907 850.263 214.427 873.266 216.983 889.454C265.545 889.454 297.068 889.454 317.515 880.082C338.815 870.710 343.927 853.671 343.927 823.852L343.927 607.452L518.580 607.452L518.580 552.925M584.182 107.345C567.143 241.104 536.472 370.604 482.798 454.097L482.798 433.650L145.417 433.650L145.417 487.324L482.798 487.324L482.798 461.765C498.133 471.136 521.988 487.324 533.064 496.695C562.031 448.985 585.034 388.495 604.629 320.338L811.658 320.338C799.731 376.568 784.395 437.909 768.208 478.804L821.030 494.140C844.033 437.909 867.888 348.453 884.076 271.775L841.477 258.996L831.253 261.552L619.965 261.552C630.188 214.693 639.560 166.131 646.376 116.717"/></svg>