<svg xmlns="http://www.w3.org/2000/svg" viewBox="0 0 1000 1000" fill="currentColor"><path d="M695.348 136.957C736.217 162.174 789.261 198.696 817.087 221.304L650.130 221.304L650.130 99.565L587.522 99.565L587.522 221.304L367.522 221.304L367.522 281.304L587.522 281.304L587.522 368.261L396.217 368.261L396.217 899.565L457.087 899.565L457.087 715.217L587.522 715.217L587.522 894.348L650.130 894.348L650.130 715.217L788.391 715.217L788.391 826.522C788.391 836.087 785.783 839.565 777.087 839.565C766.652 839.565 737.087 839.565 702.304 838.696CNaN 855.217 718.826 880.435 721.435 896.957C770.130 896.957 803.174 896.957 823.174 886.522C844.913 876.087 850.130 858.696 850.130 827.391L850.130 368.261L650.130 368.261L650.130 281.304L884.913 281.304L884.913 221.304L823.174 221.304L857.957 184.783C828.391 163.043 772.739 127.391 731.870 103.043M587.522 569.130L587.522 662.174L457.087 662.174L457.087 569.130M650.130 569.130L788.391 569.130L788.391 662.174L650.130 662.174M587.522 516.087L457.087 516.087L457.087 425.652L587.522 425.652M650.130 516.087L650.130 425.652L788.391 425.652L788.391 516.087M115.348 190.870L115.348 733.478L173.609 733.478L173.609 657.826L346.652 657.826L346.652 190.870M173.609 250L290.130 250L290.130 596.957L173.609 596.957"/></svg>