<svg xmlns="http://www.w3.org/2000/svg" viewBox="0 0 1000 1000" fill="currentColor"><path d="M141.338 281.722C137.091 347.964 124.352 436.287 103.121 488.941L145.584 505.926C166.815 446.478 179.554 354.758 182.102 286.817M324.777 262.189C315.435 313.994 295.902 391.276 279.766 438.834L315.435 454.121C333.270 409.960 354.501 336.924 372.335 280.023M455.563 668.134C477.643 688.516 502.272 717.391 512.463 737.773L554.076 708.898C542.187 690.214 517.558 662.189 495.478 642.656M462.357 267.285L775.732 267.285L775.732 319.089L462.357 319.089M462.357 175.565L775.732 175.565L775.732 226.520L462.357 226.520M210.127 111.870L210.127 404.015C210.127 559.429 199.087 719.089 99.724 846.478C112.463 854.970 131.996 872.805 140.488 885.544C193.992 818.452 224.565 742.868 242.399 663.038C270.425 706.350 305.244 761.552 320.531 792.125L362.144 749.662C346.858 725.883 280.616 629.917 253.439 595.098C261.932 532.253 263.631 467.709 263.631 404.015L263.631 111.870M678.917 461.764L678.917 522.911L548.981 522.911L548.981 461.764M678.917 414.206L548.981 414.206L548.981 363.251L678.917 363.251M405.456 132.253L405.456 363.251L491.231 363.251L491.231 414.206L382.527 414.206L382.527 461.764L491.231 461.764L491.231 522.911L351.953 522.911L351.953 570.469L482.739 570.469C443.673 607.837 386.773 643.505 338.365 661.340C350.255 669.832 365.541 688.516 373.185 701.255C431.783 674.079 502.272 621.425 542.187 570.469L704.395 570.469C740.913 624.822 805.456 680.023 864.055 708.049C872.548 695.310 887.834 677.476 899.724 668.134C849.618 649.450 793.567 610.384 757.049 570.469L878.493 570.469L878.493 522.911L738.365 522.911L738.365 461.764L854.713 461.764L854.713 414.206L738.365 414.206L738.365 363.251L834.331 363.251L834.331 132.253M350.255 810.809L372.335 856.669L588.896 767.497L588.896 830.342C588.896 838.834 585.499 841.382 575.308 842.231C565.966 843.081 532.845 843.081 495.478 841.382C503.121 854.970 513.312 875.352 516.709 888.091C567.665 888.941 599.087 888.941 619.469 880.448C640.701 872.805 645.796 859.217 645.796 831.191L645.796 770.894C713.737 798.919 781.677 832.890 824.140 860.915L858.960 821.849C823.291 799.769 769.788 772.592 712.887 748.813C734.119 727.582 757.898 701.255 778.280 675.777L737.516 651.149C721.380 674.079 694.204 708.049 670.425 731.828L645.796 723.335L645.796 595.098L588.896 595.098L588.896 722.486C500.573 756.456 410.552 790.427 350.255 810.809"/></svg>