<svg xmlns="http://www.w3.org/2000/svg" viewBox="0 0 1000 1000" fill="currentColor"><path d="M421.463 588.406L818.241 588.406L818.241 666.657L421.463 666.657M421.463 536.853L421.463 455.840L818.241 455.840L818.241 536.853M421.463 718.211L818.241 718.211L818.241 798.303L421.463 798.303M356.100 397.842L356.100 899.568L421.463 899.568L421.463 855.380L818.241 855.380L818.241 899.568L887.285 899.568L887.285 397.842M214.328 99.568L214.328 382.192C214.328 523.044 205.122 713.608 112.142 848.015C127.792 856.300 156.330 881.157 166.457 894.965C267.723 751.352 282.452 533.170 282.452 383.113L282.452 335.242L885.444 335.242L885.444 99.568M282.452 160.328L516.284 160.328L516.284 275.403L282.452 275.403M583.488 160.328L814.558 160.328L814.558 275.403L583.488 275.403"/></svg>