<svg xmlns="http://www.w3.org/2000/svg" viewBox="0 0 1000 1000" fill="currentColor"><path d="M102.657 573.552L115.602 640.003L235.559 600.305L235.559 822.096C235.559 833.315 231.244 837.630 218.299 837.630C206.217 838.493 163.930 838.493 117.328 836.767C126.821 854.027 137.177 879.054 140.629 895.451C201.902 895.451 240.737 894.588 265.764 885.095C289.928 874.739 298.558 857.479 298.558 822.096L298.558 579.593L413.337 541.621L404.707 482.937L298.558 515.731L298.558 381.967C340.845 325.872 385.721 252.517 416.789 187.792L375.365 157.587L361.557 161.902L121.643 161.902L121.643 222.312L327.037 222.312C301.147 275.818 266.627 336.228 235.559 376.789L235.559 534.717C185.505 550.251 138.903 564.059 102.657 573.552M804.275 509.690C731.783 655.537 569.539 780.672 371.913 846.260C383.995 860.068 402.118 885.095 409.885 899.766C515.170 861.794 610.100 809.151 689.496 744.426C747.317 791.891 811.179 853.164 843.973 892.862L894.027 850.575C859.507 810.877 791.330 751.330 733.509 705.591C788.741 652.948 834.480 595.127 869.863 532.991M599.744 119.615C617.004 151.546 633.401 191.244 642.894 222.312L419.378 222.312L419.378 281.859L581.621 281.859C554.005 331.913 507.403 410.446 491.006 428.569C478.061 444.102 453.898 449.280 436.638 453.595C442.679 468.266 452.172 499.334 454.761 514.868C470.294 508.827 495.321 504.512 641.168 494.156C577.306 559.744 496.184 618.428 408.159 658.989C419.378 671.934 436.638 695.235 444.405 709.043C598.881 634.825 730.920 508.827 806.001 373.337L744.728 352.625C730.057 381.104 711.934 409.583 691.222 436.335L554.005 444.102C583.347 396.638 622.182 330.187 649.798 281.859L897.479 281.859L897.479 222.312L698.989 222.312L711.071 217.997C705.030 186.066 682.592 136.875 661.017 99.766"/></svg>