<svg xmlns="http://www.w3.org/2000/svg" viewBox="0 0 1000 1000" fill="currentColor"><path d="M298.968 703.404L298.968 818.067C298.968 883.337 325.429 900.096 424.216 900.096C444.503 900.096 595.330 900.096 617.380 900.096C694.117 900.096 714.404 877.163 723.224 781.022C704.701 777.494 679.122 768.674 665.010 758.971C660.600 833.062 653.544 843.646 612.088 843.646C577.689 843.646 451.559 843.646 426.862 843.646C373.058 843.646 365.120 840.118 365.120 817.185L365.120 703.404M430.390 703.404C473.610 729.864 523.885 769.556 546.818 798.663L589.155 760.735C564.459 731.628 513.301 693.701 470.082 669.004M734.690 720.162C770.853 771.320 810.545 841.882 825.539 885.983L889.045 864.815C873.169 820.713 832.595 752.797 794.668 702.521M188.714 710.460C172.838 758.089 144.613 818.949 112.860 855.994L170.192 888.630C201.945 848.056 227.524 782.786 245.164 733.393M208.119 520.824L208.119 564.925L728.516 564.925L728.516 619.611L174.602 619.611L174.602 665.476L792.904 665.476L792.904 423.800L179.894 423.800L179.894 469.666L728.516 469.666L728.516 520.824M111.096 319.721L111.096 362.940L262.805 362.940L262.805 410.570L323.665 410.570L323.665 362.940L461.261 362.940L461.261 319.721L323.665 319.721L323.665 276.502L437.447 276.502L437.447 233.282L323.665 233.282L323.665 190.063L448.913 190.063L448.913 145.961L323.665 145.961L323.665 100.096L262.805 100.096L262.805 145.961L121.680 145.961L121.680 190.063L262.805 190.063L262.805 233.282L140.203 233.282L140.203 276.502L262.805 276.502L262.805 319.721M645.605 100.096L645.605 145.961L504.481 145.961L504.481 190.063L645.605 190.063L645.605 233.282L523.885 233.282L523.885 276.502L645.605 276.502L645.605 321.485L494.778 321.485L494.778 364.705L645.605 364.705L645.605 410.570L707.347 410.570L707.347 364.705L870.523 364.705L870.523 321.485L707.347 321.485L707.347 276.502L840.534 276.502L840.534 233.282L707.347 233.282L707.347 190.063L854.646 190.063L854.646 145.961L707.347 145.961L707.347 100.096"/></svg>