<svg xmlns="http://www.w3.org/2000/svg" viewBox="0 0 1000 1000" fill="currentColor"><path d="M466.229 205.114L466.229 336.771L241.314 336.771L241.314 398.943L428.743 398.943C373.886 490.371 287.029 581.800 209.314 628.429C223.943 641.229 243.143 663.171 253.200 677.800C327.257 626.600 408.629 536.086 466.229 441.914L466.229 749.114L530.229 749.114L530.229 463.857C605.200 536.086 688.400 622.029 732.286 675.971L775.257 629.343C725.886 570.829 627.143 473.914 543.029 398.943L763.371 398.943L763.371 336.771L530.229 336.771L530.229 205.114M118.800 99.971L118.800 899.971L187.371 899.971L187.371 857L810.914 857L810.914 899.971L881.314 899.971L881.314 99.971M187.371 793L187.371 163.971L810.914 163.971L810.914 793"/></svg>