<svg xmlns="http://www.w3.org/2000/svg" viewBox="0 0 1000 1000" fill="currentColor"><path d="M542.941 107.775C514.066 240.259 463.960 367.648 396.019 450.025C410.456 460.217 435.934 483.996 446.125 495.036C465.658 469.558 484.342 439.834 502.176 407.563C527.654 511.172 563.323 602.042 611.730 678.476C553.981 747.265 478.397 799.070 380.732 837.287C393.471 850.025 414.703 878.051 422.346 891.639C515.764 850.025 589.650 797.372 649.098 731.130C703.450 800.769 772.240 854.272 858.015 890.790C867.357 873.805 886.040 850.025 900.478 837.287C813.004 804.166 743.365 750.662 689.013 681.023C752.707 591.002 795.170 478.900 823.195 337.924L886.040 337.924L886.040 276.777L559.076 276.777C577.760 226.671 593.047 173.168 605.786 119.665M757.803 337.924C735.722 453.423 701.752 548.539 650.796 625.822C601.539 545.142 566.720 447.478 544.639 337.924M159.926 154.484C149.735 263.189 132.749 376.989 100.478 451.724C114.066 458.518 138.694 473.805 148.885 481.448C164.172 443.231 177.760 394.824 187.951 342.170L267.781 342.170L267.781 546.841C206.635 564.675 149.735 580.811 105.573 591.851L120.011 653.847L267.781 607.987L267.781 889.941L329.777 889.941L329.777 588.454L431.688 556.183L423.195 499.282L329.777 528.157L329.777 342.170L425.743 342.170L425.743 281.023L329.777 281.023L329.777 109.473L267.781 109.473L267.781 281.023L198.992 281.023C205.786 242.807 210.881 202.892 215.127 162.977"/></svg>