<svg xmlns="http://www.w3.org/2000/svg" viewBox="0 0 1000 1000" fill="currentColor"><path d="M298.790 103.833C253.622 234.995 179.789 365.288 99.876 450.413C112.037 465.179 131.147 499.055 137.227 514.691C162.417 486.026 187.607 453.887 211.060 418.274L211.060 899.490L275.338 899.490L275.338 311.433C307.477 250.630 337.010 186.352 359.594 122.074M581.961 100.358L581.961 214.148L392.602 214.148L392.602 275.820L581.961 275.820L581.961 400.033L350.908 400.033L350.908 462.573L882.504 462.573L882.504 400.033L647.976 400.033L647.976 275.820L843.416 275.820L843.416 214.148L647.976 214.148L647.976 100.358M581.961 496.450L581.961 596.341L375.229 596.341L375.229 658.013L581.961 658.013L581.961 803.941L321.375 803.941L321.375 866.482L899.876 866.482L899.876 803.941L647.976 803.941L647.976 658.013L858.182 658.013L858.182 596.341L647.976 596.341L647.976 496.450"/></svg>