<svg xmlns="http://www.w3.org/2000/svg" viewBox="0 0 1000 1000" fill="currentColor"><path d="M192.013 590.096L192.013 819.799L99.604 819.799L99.604 879.645L899.604 879.645L899.604 819.799L815.116 819.799L815.116 590.096M254.499 819.799L254.499 647.301L377.712 647.301L377.712 819.799M439.318 819.799L439.318 647.301L563.410 647.301L563.410 819.799M624.136 819.799L624.136 647.301L750.869 647.301L750.869 819.799M477.162 266.223L477.162 326.069L137.448 326.069L137.448 383.275L477.162 383.275L477.162 481.845C477.162 493.286 472.761 497.686 456.920 498.567C441.958 499.447 388.273 499.447 328.427 497.686C339.868 513.528 353.069 538.171 358.350 555.772C429.637 555.772 476.282 555.772 506.205 546.091C537.008 536.410 545.809 520.569 545.809 483.605L545.809 383.275L852.079 383.275L852.079 326.069L545.809 326.069L545.809 292.626C630.297 257.422 720.066 206.377 781.672 154.452L739.428 121.009L726.227 124.529L252.739 124.529L252.739 182.615L649.659 182.615C598.614 214.298 534.367 245.981 477.162 266.223"/></svg>