<svg xmlns="http://www.w3.org/2000/svg" viewBox="0 0 1000 1000" fill="currentColor"><path d="M809.602 208.952L809.602 344.883L638.173 344.883L638.173 208.952M574.104 149.212L574.104 438.390C574.104 571.723 563.714 744.017 451.160 864.364C467.610 871.290 494.450 888.606 505.706 899.861C581.030 818.476 613.931 707.654 628.649 602.026L809.602 602.026L809.602 809.818C809.602 823.671 805.273 828 791.420 828C777.567 828.866 731.680 829.732 683.195 827.134C691.853 845.316 701.377 873.887 703.974 891.203C771.506 891.203 813.931 890.338 839.039 879.082C864.147 867.827 872.805 848.779 872.805 810.684L872.805 149.212M809.602 402.892L809.602 543.152L634.710 543.152C637.307 506.788 638.173 471.290 638.173 438.390L638.173 402.892M164.580 486.874L164.580 846.182L228.649 846.182L228.649 784.710L479.732 784.710L479.732 486.874L357.654 486.874L357.654 331.030L517.827 331.030L517.827 267.827L357.654 267.827L357.654 99.861L291.853 99.861L291.853 267.827L126.485 267.827L126.485 331.030L291.853 331.030L291.853 486.874M228.649 544.017L415.662 544.017L415.662 727.567L228.649 727.567"/></svg>