<svg xmlns="http://www.w3.org/2000/svg" viewBox="0 0 1000 1000" fill="currentColor"><path d="M146.848 158.039C199.491 187.381 269.394 232.257 304.777 259.010L345.338 208.956C309.092 183.066 237.463 141.642 185.683 114.026M100.246 395.364C152.889 423.843 224.518 465.266 259.901 489.430L296.147 435.924C259.038 411.761 186.546 372.926 135.629 347.899M129.588 839.808L183.957 883.821C234.874 803.562 295.284 695.687 341.023 604.209L293.558 561.922C243.504 659.441 175.327 773.357 129.588 839.808M805.316 111.437C709.523 151.135 529.156 180.477 373.817 196.874C381.584 210.682 391.077 235.709 393.666 252.106C553.320 236.572 740.591 208.956 859.685 163.217M538.649 269.366C559.361 308.201 586.114 359.981 598.196 391.049L653.428 367.748C640.483 336.680 612.867 286.626 591.292 248.654M458.391 709.495C422.145 709.495 379.858 758.686 334.119 827.726L378.995 888.136C406.611 826.863 437.679 768.179 457.528 768.179C473.924 768.179 498.951 797.521 530.019 823.411C577.484 861.383 627.538 876.917 706.071 876.917C749.221 876.917 844.151 874.328 883.849 871.739C885.575 853.616 893.342 820.822 900.246 803.562C845.877 809.603 763.029 813.918 706.934 813.918C635.305 813.918 586.977 802.699 544.690 769.042L527.430 754.371C654.291 674.112 784.604 543.799 858.822 422.980L813.946 394.501L801.001 397.953L364.324 397.953L364.324 458.362L757.851 458.362C692.263 549.840 586.114 653.400 482.554 717.262C474.787 712.084 467.020 709.495 458.391 709.495"/></svg>