<svg xmlns="http://www.w3.org/2000/svg" viewBox="0 0 1000 1000" fill="currentColor"><path d="M420.091 352.701C444.048 344.144 479.128 340.722 785.439 320.187C800.840 341.578 813.674 361.257 822.230 378.369L873.567 342.433C842.765 290.241 776.882 208.957 720.412 150.775L673.353 180.722C697.310 207.246 722.979 237.193 746.936 267.995L504.797 281.684C551 238.048 598.914 183.289 639.984 126.818L576.668 105.428C533.888 173.877 469.717 242.326 449.182 260.294C430.358 278.262 414.957 291.096 399.556 292.807C407.257 309.920 416.668 339.866 420.091 352.701M379.021 602.540L379.021 659.011L574.957 659.011C549.289 726.604 488.540 795.053 346.508 846.390C358.487 857.513 377.310 880.615 384.155 894.305C523.620 842.112 591.214 773.663 623.727 702.647C672.497 795.053 751.214 860.080 859.877 891.738C868.433 875.481 886.401 851.524 900.091 838.690C787.150 813.021 705.866 747.995 663.086 659.011L888.112 659.011L888.112 602.540L650.251 602.540C651.963 583.717 652.818 565.749 652.818 547.781L652.818 489.599L850.465 489.599L850.465 433.128L518.487 433.128C529.610 410.027 540.733 386.925 550.144 363.824L491.107 347.567C464.583 417.727 420.947 490.455 373.032 537.513C388.433 545.214 414.102 561.471 425.225 570.882C445.759 548.636 466.294 520.401 485.973 489.599L592.070 489.599L592.070 546.070C592.070 564.037 591.214 582.861 588.647 602.540M100.091 685.535L125.759 749.706C196.775 718.048 286.615 676.123 372.176 635.909L357.631 578.583L274.636 614.519L274.636 373.235L369.610 373.235L369.610 312.487L274.636 312.487L274.636 116.551L214.743 116.551L214.743 312.487L109.503 312.487L109.503 373.235L214.743 373.235L214.743 640.187C171.107 658.155 131.749 673.556 100.091 685.535"/></svg>