<svg xmlns="http://www.w3.org/2000/svg" viewBox="0 0 1000 1000" fill="currentColor"><path d="M384.072 193.465L384.072 574.255L486.526 574.255C472.866 697.201 437.860 792.825 300.400 844.052C314.061 855.152 331.137 878.204 339.674 893.572C493.356 832.099 535.192 720.253 550.560 574.255L644.477 574.255L644.477 793.679C644.477 860.274 660.699 879.911 727.295 879.911C740.101 879.911 804.136 879.911 818.650 879.911C877.561 879.911 893.783 847.467 899.760 722.814C882.684 717.692 856.217 707.446 843.410 696.347C840.848 804.778 836.580 820.146 812.673 820.146C798.159 820.146 745.224 820.146 734.979 820.146C711.073 820.146 706.804 816.731 706.804 793.679L706.804 574.255L853.655 574.255L853.655 164.436L632.524 164.436L632.524 221.640L791.329 221.640L791.329 337.756L638.501 337.756L638.501 393.252L791.329 393.252L791.329 516.197L443.837 516.197L443.837 390.691L588.127 390.691L588.127 335.194L443.837 335.194L443.837 226.763C501.041 208.834 561.660 184.927 607.764 160.168L559.952 114.917C518.970 143.092 447.252 172.974 384.072 193.465M296.985 105.525C253.442 235.301 179.162 363.369 99.760 446.187C111.713 461.555 130.496 494.853 137.327 509.367C162.940 481.192 187.700 448.748 211.606 413.743L211.606 887.596L273.079 887.596L273.079 312.142C305.523 251.523 334.552 187.489 357.604 123.455"/></svg>