<svg xmlns="http://www.w3.org/2000/svg" viewBox="0 0 1000 1000" fill="currentColor"><path d="M113.652 237.696L113.652 300.304L554.522 300.304C564.087 455.957 584.087 595.957 618 701.174C571.913 761.174 518.870 812.478 457.130 852.478C471.043 863.783 494.522 888.130 504.087 900.304C555.391 862.913 602.348 819.435 643.217 769C680.609 850.739 730.174 899.435 794.522 899.435C860.609 899.435 884.957 855.087 896.261 706.391C879.739 701.174 855.391 686.391 840.609 672.478C836.261 789 824.957 835.087 799.739 835.087C756.261 835.087 718.870 788.130 689.304 708.130C751.043 616.826 800.609 508.130 835.391 384.652L773.652 371.609C747.565 467.261 711.043 555.087 664.957 630.739C642.348 542.043 626.696 429 619.739 300.304L876.261 300.304L876.261 237.696L811.043 237.696L847.565 205.522CNaN 174.217 757.130 131.609 707.565 103.783L664.957 139.435C710.174 167.261 763.217 207.261 792.783 237.696L616.261 237.696C614.522 193.348 614.522 147.261 614.522 100.304L548.435 100.304C548.435 147.261 550.174 192.478 551.913 237.696M210.174 343.783L210.174 515.087L112.783 515.087L112.783 575.087L209.304 575.087C204.957 663.783 184.957 765.522 104.087 837.696C118.870 846.391 141.478 864.652 151.913 875.957C244.087 793.348 266.696 677.696 271.043 575.087L381.478 575.087L381.478 828.130L443.217 828.130L443.217 575.087L540.609 575.087L540.609 515.087L443.217 515.087L443.217 344.652L381.478 344.652L381.478 515.087L271.913 515.087L271.913 343.783"/></svg>