<svg xmlns="http://www.w3.org/2000/svg" viewBox="0 0 1000 1000" fill="currentColor"><path d="M265.466 426.992L416.701 426.992L416.701 522.374L265.466 522.374M164.929 622.052L164.929 676.187L442.480 676.187C410.686 766.412 335.928 818.829 123.683 844.608C135.713 858.357 150.321 884.135 155.477 900.462C390.063 866.090 475.133 797.347 510.364 676.187L779.322 676.187C768.151 775.005 755.262 819.689 739.795 833.437C731.202 840.311 720.890 841.171 703.705 841.171C683.082 841.171 628.087 840.311 573.092 835.156C583.404 851.482 591.997 874.683 592.856 891.869C646.991 895.306 699.408 895.306 725.187 894.447C755.262 892.728 774.166 888.432 790.493 872.105C816.272 848.045 830.880 789.613 844.628 649.549C846.347 640.097 848.066 622.052 848.066 622.052M643.554 116.788C651.288 133.115 659.881 152.879 665.037 170.924L507.786 170.924L507.786 220.763L871.266 220.763L871.266 170.924L725.187 170.924C719.172 149.441 708.001 121.944 695.112 100.462M775.885 223.340C767.292 249.979 750.106 289.506 734.639 319.581L651.288 319.581C641.836 292.943 622.072 252.556 601.449 222.481L554.188 239.667C568.796 263.727 584.263 293.802 594.575 319.581L486.304 319.581L486.304 371.139L659.021 371.139L659.021 449.334L499.193 449.334L499.193 500.032L659.021 500.032L659.021 596.273L719.172 596.273L719.172 500.032L881.578 500.032L881.578 449.334L719.172 449.334L719.172 371.139L896.186 371.139L896.186 319.581L791.352 319.581C804.242 294.662 817.990 264.586 831.739 236.230M167.507 137.411L167.507 268.883C167.507 347.078 160.633 452.771 103.919 530.967C116.809 537.841 140.869 557.605 151.180 567.916C182.974 524.952 201.019 471.676 211.331 418.400L211.331 572.213L472.555 572.213L472.555 378.013L217.346 378.013C219.924 358.249 221.642 338.485 223.361 319.581L466.540 319.581L466.540 137.411M224.220 188.110L409.827 188.110L409.827 268.883L224.220 268.883"/></svg>