<svg xmlns="http://www.w3.org/2000/svg" viewBox="0 0 1000 1000" fill="currentColor"><path d="M105.748 102.283L105.748 898.655L169.240 898.655L169.240 167.590L302.574 167.590C279.898 229.268 248.152 309.993 219.127 375.299C292.596 451.490 312.551 514.075 313.458 565.776C313.458 593.893 307.109 618.383 290.782 629.268C280.805 633.803 269.014 637.431 255.408 637.431C236.361 638.338 210.964 638.338 181.939 635.617C193.730 654.664 200.986 680.968 201.893 698.202C227.290 700.923 258.129 700.016 282.619 698.202C302.574 695.481 322.528 690.039 336.134 680.061C364.252 661.014 376.950 621.104 376.950 571.218C376.950 514.075 360.624 447.862 286.247 367.136C320.714 293.667 358.810 203.871 388.741 128.587L341.576 99.562L330.692 102.283M503.027 602.057L787.834 602.057L787.834 771.671L503.027 771.671M503.027 540.379L503.027 372.578L787.834 372.578L787.834 540.379M408.696 106.819L408.696 170.311L597.358 170.311C592.823 215.662 584.660 269.177 575.590 310.900L437.721 310.900L437.721 899.562L503.027 899.562L503.027 835.163L787.834 835.163L787.834 896.841L854.048 896.841L854.048 310.900L639.082 310.900C649.059 269.177 659.943 218.383 669.921 170.311L893.957 170.311L893.957 106.819"/></svg>