<svg xmlns="http://www.w3.org/2000/svg" viewBox="0 0 1000 1000" fill="currentColor"><path d="M515.136 122.252L515.136 304.508C515.136 383.369 504.621 478.002 416.122 545.472C430.141 554.234 453.800 576.140 461.686 588.407C516.888 545.472 546.680 489.393 561.576 431.562L782.387 431.562L782.387 506.042C782.387 518.309 778.882 520.938 765.738 521.814C753.471 521.814 712.288 522.690 666.724 520.938C675.486 536.710 686.877 560.368 690.382 577.893C749.090 577.893 790.273 577.016 814.807 566.502C839.342 556.863 847.228 540.215 847.228 506.918L847.228 122.252M576.472 176.578L782.387 176.578L782.387 253.687L576.472 253.687M576.472 302.756L782.387 302.756L782.387 382.493L571.215 382.493C575.596 356.206 576.472 329.919 576.472 305.384M210.207 335.176L369.681 335.176L369.681 429.809L210.207 429.809M210.207 283.479L210.207 189.722L369.681 189.722L369.681 283.479M149.747 136.272L149.747 530.576L210.207 530.576L210.207 482.383L430.141 482.383L430.141 136.272M202.321 605.056L202.321 818.857L99.802 818.857L99.802 877.564L899.802 877.564L899.802 818.857L802.540 818.857L802.540 605.056M263.657 818.857L263.657 658.506L380.196 658.506L380.196 818.857M441.532 818.857L441.532 658.506L558.947 658.506L558.947 818.857M620.284 818.857L620.284 658.506L738.575 658.506L738.575 818.857"/></svg>