<svg xmlns="http://www.w3.org/2000/svg" viewBox="0 0 1000 1000" fill="currentColor"><path d="M617.100 227.046L796.036 227.046L796.036 407.719L617.100 407.719M555.428 169.717L555.428 465.916L861.182 465.916L861.182 169.717M467.697 486.763L467.697 571.020L121.986 571.020L121.986 629.217L419.923 629.217C344.353 714.342 218.403 791.649 102.876 829.869C117.643 842.898 136.752 867.219 146.307 882.855C260.965 839.423 386.915 755.167 467.697 658.750L467.697 899.358L535.450 899.358L535.450 663.962C616.231 756.904 738.707 835.080 855.971 875.906C866.394 859.402 885.504 834.212 900.270 821.182C779.532 786.438 655.319 714.342 580.618 629.217L875.080 629.217L875.080 571.020L535.450 571.020L535.450 486.763M254.885 100.227C254.016 132.366 252.279 161.899 249.673 190.564L116.774 190.564L116.774 248.761L241.856 248.761C225.352 344.309 188.001 416.405 100.270 462.442C114.168 472.865 132.409 496.318 141.096 511.085C243.593 455.493 286.155 366.025 305.265 248.761L426.872 248.761C419.054 360.813 410.368 405.113 398.207 419.011C391.258 425.960 384.309 427.697 373.017 426.828C359.988 426.828 329.586 426.828 296.579 423.354C306.134 438.989 312.214 464.179 313.951 481.552C348.696 483.289 382.572 483.289 400.813 481.552C422.529 479.814 437.295 474.603 451.193 459.836C471.172 435.515 480.726 373.843 491.150 217.491C492.018 208.805 492.887 190.564 492.887 190.564L313.083 190.564C315.688 161.899 317.426 131.497 319.163 100.227"/></svg>