<svg xmlns="http://www.w3.org/2000/svg" viewBox="0 0 1000 1000" fill="currentColor"><path d="M268.271 288.763L268.271 354.351L144.862 354.351L144.862 403.542L268.271 403.542L268.271 461.362L157.807 461.362L157.807 509.690L268.271 509.690L268.271 569.237L127.602 569.237L127.602 618.428L255.326 618.428C219.943 691.783 159.533 771.179 107.753 813.466C119.835 824.685 134.506 846.260 142.273 860.068C185.423 820.370 232.025 759.097 268.271 696.961L268.271 899.766L329.544 899.766L329.544 677.112C366.653 716.810 414.118 769.453 435.693 796.206L471.939 751.330C452.090 728.892 377.872 652.948 340.763 618.428L454.679 618.428L454.679 569.237L329.544 569.237L329.544 509.690L430.515 509.690L430.515 461.362L329.544 461.362L329.544 403.542L442.597 403.542L442.597 354.351L329.544 354.351L329.544 288.763M741.194 287.900L741.194 358.666L635.045 358.666L635.045 287.900L574.635 287.900L574.635 358.666L484.020 358.666L484.020 406.994L574.635 406.994L574.635 499.334L466.761 499.334L466.761 550.251L893.082 550.251L893.082 499.334L801.604 499.334L801.604 406.994L885.315 406.994L885.315 358.666L801.604 358.666L801.604 287.900M635.045 406.994L741.194 406.994L741.194 499.334L635.045 499.334M521.992 598.579L521.992 899.766L581.539 899.766L581.539 873.013L789.522 873.013L789.522 896.314L851.658 896.314L851.658 598.579M581.539 827.274L581.539 756.508L789.522 756.508L789.522 827.274M581.539 713.358L581.539 645.181L789.522 645.181L789.522 713.358M257.915 99.766C230.299 177.436 180.245 251.654 122.424 299.982C137.958 307.749 164.711 327.598 176.793 337.954C206.135 309.475 235.477 274.092 261.367 233.531L321.777 233.531C338.174 262.873 353.708 295.667 359.749 318.105L416.707 296.530C411.529 279.270 400.310 255.969 387.365 233.531L501.280 233.531L501.280 179.162L293.298 179.162C303.654 159.313 313.147 137.738 320.914 117.026M592.758 103.218C572.046 173.121 532.348 240.435 484.020 284.448C500.417 293.078 527.170 311.201 539.252 321.557C562.553 297.393 585.854 266.325 605.703 231.805L674.743 231.805C688.551 255.106 700.633 281.859 705.811 299.982L761.043 276.681C756.728 263.736 748.961 248.202 740.331 231.805L888.767 231.805L888.767 178.299L633.319 178.299C641.949 158.450 649.716 138.601 656.620 117.889"/></svg>