<svg xmlns="http://www.w3.org/2000/svg" viewBox="0 0 1000 1000" fill="currentColor"><path d="M194.232 312.131C181.988 403.485 160.327 522.150 141.491 597.494L773.434 597.494C752.714 733.112 731.053 799.037 702.799 820.698C690.556 829.175 676.429 830.116 651.001 830.116C621.805 830.116 539.869 828.233 462.642 821.640C477.711 842.360 489.954 873.439 491.838 896.042C564.356 899.809 634.990 901.693 670.778 898.867C714.101 897.925 738.587 892.275 764.016 869.672C803.571 834.825 828.999 751.006 854.428 566.415C857.253 555.113 858.195 531.568 858.195 531.568L230.020 531.568L257.332 381.823L806.396 381.823L806.396 100.228L151.851 100.228L151.851 170.862L734.820 170.862L734.820 312.131"/></svg>