<svg xmlns="http://www.w3.org/2000/svg" viewBox="0 0 1000 1000" fill="currentColor"><path d="M582.286 752.078C672.329 797.100 767.567 854.242 824.710 895.801L881.853 852.511C821.247 810.087 719.948 753.810 627.307 709.654M361.506 710.519C308.693 759.870 200.468 819.610 110.424 852.511C126.009 864.632 148.519 886.277 159.775 900.130C248.087 863.766 356.312 804.892 422.978 748.615M375.359 634.329L252.416 634.329L252.416 474.156L375.359 474.156M436.831 634.329L436.831 474.156L564.104 474.156L564.104 634.329M625.576 634.329L625.576 474.156L754.580 474.156L754.580 634.329M189.212 206.623L189.212 634.329L101.766 634.329L101.766 695.801L899.169 695.801L899.169 634.329L819.515 634.329L819.515 206.623L625.576 206.623L625.576 100.130L564.104 100.130L564.104 206.623L436.831 206.623L436.831 100.996L375.359 100.996L375.359 206.623M375.359 413.550L252.416 413.550L252.416 268.095L375.359 268.095M436.831 413.550L436.831 268.095L564.104 268.095L564.104 413.550M625.576 413.550L625.576 268.095L754.580 268.095L754.580 413.550"/></svg>