<svg xmlns="http://www.w3.org/2000/svg" viewBox="0 0 1000 1000" fill="currentColor"><path d="M513.423 134.499C496.437 175.263 476.904 213.480 454.824 249.998L454.824 204.138L347.817 204.138L347.817 112.418L288.369 112.418L288.369 204.138L157.584 204.138L157.584 261.038L288.369 261.038L288.369 362.949L118.518 362.949L118.518 419.849L322.340 419.849C256.947 484.393 182.212 537.896 99.834 578.660C111.724 590.550 132.106 616.877 139.749 630.465C163.529 617.726 186.459 604.138 208.539 588.851L208.539 882.694L266.289 882.694L266.289 832.588L458.221 832.588L458.221 870.805L519.367 870.805L519.367 502.227L320.641 502.227C349.516 476.749 376.692 448.724 402.170 419.849L557.584 419.849L557.584 362.949L448.030 362.949C496.437 299.255 537.202 228.766 571.172 152.333M347.817 261.038L448.030 261.038C425.949 296.707 401.321 330.677 374.144 362.949L347.817 362.949M266.289 779.085L266.289 689.064L458.221 689.064L458.221 779.085M266.289 638.108L266.289 554.881L458.221 554.881L458.221 638.108M594.102 154.032L594.102 886.941L656.947 886.941L656.947 214.329L815.758 214.329C787.732 282.270 749.516 373.989 711.299 446.176C800.471 520.062 827.648 584.605 827.648 638.958C828.497 669.531 821.703 694.159 802.170 706.049C791.130 711.994 777.541 715.391 762.255 715.391C743.571 717.089 718.093 716.240 690.068 713.692C701.108 731.527 707.902 758.703 708.752 776.537C735.928 778.236 765.652 778.236 788.582 775.688C810.662 773.140 830.195 766.346 846.331 756.155C876.904 736.622 889.643 696.707 889.643 644.053C889.643 583.756 866.713 516.665 776.692 437.684C818.306 358.703 865.015 261.038 899.834 180.359L853.975 151.484L843.783 154.032"/></svg>