<svg xmlns="http://www.w3.org/2000/svg" viewBox="0 0 1000 1000" fill="currentColor"><path d="M119.204 142.876L119.204 202.681L224.946 202.681C200.677 335.293 161.674 458.369 100.135 540.710C110.536 558.044 125.271 594.447 129.605 610.915C145.206 590.114 159.940 567.579 173.808 543.310L173.808 854.469L229.280 854.469L229.280 785.130L369.691 785.130L369.691 409.832L232.746 409.832C255.282 344.827 273.483 274.621 287.351 202.681L385.293 202.681L385.293 142.876M229.280 468.770L313.353 468.770L313.353 727.059L229.280 727.059M453.765 121.208L453.765 224.350L387.026 224.350L387.026 277.221L453.765 277.221L453.765 519.908L602.844 519.908L602.844 596.181L393.093 596.181L393.093 651.652L569.041 651.652C518.770 725.325 437.297 794.664 359.290 830.200C374.025 841.468 391.360 864.003 401.761 878.738C474.567 838.868 550.840 768.662 602.844 691.522L602.844 893.472L664.382 893.472L664.382 690.655C714.653 764.328 788.326 834.534 856.798 870.937C867.199 855.336 885.401 833.667 900.135 822.400C824.729 788.597 743.256 720.991 694.718 651.652L896.668 651.652L896.668 596.181L664.382 596.181L664.382 519.908L866.333 519.908L866.333 467.037L510.970 467.037L510.970 277.221L596.777 277.221L596.777 404.632L804.794 404.632L804.794 277.221L892.335 277.221L892.335 224.350L804.794 224.350L804.794 112.541L749.323 112.541L749.323 224.350L650.515 224.350L650.515 107.340L596.777 107.340L596.777 224.350L510.970 224.350L510.970 121.208M749.323 277.221L749.323 356.961L650.515 356.961L650.515 277.221"/></svg>