<svg xmlns="http://www.w3.org/2000/svg" viewBox="0 0 1000 1000" fill="currentColor"><path d="M279.027 437.676L417.405 437.676L417.405 475.730L279.027 475.730M577.405 437.676L718.378 437.676L718.378 475.730L577.405 475.730M282.486 899.514C299.784 890.865 326.595 883.081 544.541 840.703C542.811 830.324 542.811 809.568 543.676 795.730L355.135 829.459L355.135 770.649C409.622 754.216 459.784 734.324 499.568 712.703C571.351 810.432 705.405 866.649 867.135 889.135C874.054 875.297 887.027 855.405 898.270 844.162C824.757 836.378 755.568 821.676 696.757 799.189C742.595 784.486 793.622 764.595 833.405 743.838L791.892 714.432C755.568 733.459 695.892 759.405 645.730 776.703C610.270 758.541 580 737.784 556.649 712.703L886.162 712.703L886.162 673.784L659.568 673.784L659.568 641.784L817.838 641.784L817.838 605.459L659.568 605.459L659.568 576.919L837.730 576.919L837.730 538.865L659.568 538.865L659.568 507.730L772.865 507.730L772.865 406.541L524.649 406.541L524.649 507.730L595.568 507.730L595.568 538.865L402.703 538.865L402.703 507.730L471.892 507.730L471.892 406.541L227.135 406.541L227.135 507.730L339.568 507.730L339.568 538.865L167.459 538.865L167.459 576.919L339.568 576.919L339.568 605.459L185.622 605.459L185.622 641.784L339.568 641.784L339.568 673.784L115.568 673.784L115.568 712.703L401.838 712.703C316.216 743.838 200.324 766.324 100.865 777.568C111.243 787.946 124.216 805.243 131.135 818.216C183.027 811.297 240.973 800.919 296.324 787.081L296.324 806.973C296.324 840.703 275.568 851.081 261.730 856.270C268.649 865.784 279.027 886.541 282.486 899.514M402.703 673.784L402.703 641.784L595.568 641.784L595.568 673.784M402.703 605.459L402.703 576.919L595.568 576.919L595.568 605.459M123.351 342.541L123.351 444.595L180.432 444.595L180.432 378.865L818.703 378.865L818.703 444.595L878.378 444.595L878.378 342.541L530.703 342.541L530.703 313.135L792.757 313.135L792.757 211.081L530.703 211.081L530.703 183.405L860.216 183.405L860.216 142.757L530.703 142.757L530.703 99.514L466.703 99.514L466.703 142.757L140.649 142.757L140.649 183.405L466.703 183.405L466.703 211.081L219.351 211.081L219.351 313.135L466.703 313.135L466.703 342.541M279.892 244.811L466.703 244.811L466.703 279.405L279.892 279.405M530.703 244.811L730.486 244.811L730.486 279.405L530.703 279.405"/></svg>