<svg xmlns="http://www.w3.org/2000/svg" viewBox="0 0 1000 1000" fill="currentColor"><path d="M228.615 101.358L228.615 899.621L292.024 899.621L292.024 101.358M148.701 269.002C142.621 339.360 126.986 434.909 104.402 492.238L156.519 510.479C179.103 447.069 194.738 346.309 199.081 275.951M299.841 261.185C325.031 313.302 351.959 382.792 361.514 424.485L409.288 401.033C398.864 361.076 371.068 293.324 344.141 242.075M835.781 125.680C814.934 176.060 775.846 246.418 745.444 290.718L799.299 314.170C829.700 270.739 867.051 207.330 896.584 149.132M421.448 155.213C457.062 205.593 492.675 274.214 506.573 318.514L562.165 289.849C548.267 245.549 510.916 179.534 473.566 130.023M499.624 559.990L804.510 559.990L804.510 654.670L499.624 654.670M499.624 503.530L499.624 410.587L804.510 410.587L804.510 503.530M624.706 100.490L624.706 348.915L437.952 348.915L437.952 900.490L499.624 900.490L499.624 710.262L804.510 710.262L804.510 817.971C804.510 830.131 801.036 833.606 787.138 834.474C773.240 835.343 728.940 835.343 679.429 833.606C688.115 850.978 696.801 877.906 698.539 895.278C765.422 895.278 807.985 895.278 833.175 883.986C859.233 873.562 866.182 854.453 866.182 818.839L866.182 348.915L686.378 348.915L686.378 100.490"/></svg>