<svg xmlns="http://www.w3.org/2000/svg" viewBox="0 0 1000 1000" fill="currentColor"><path d="M254.201 312.233C276.663 348.518 303.445 396.898 314.676 428.864L358.737 405.538C346.641 374.436 320.724 328.648 296.533 292.363M256.793 593.011C280.119 632.752 306.037 686.315 317.268 720.873L362.192 697.546C350.961 664.717 325.043 612.881 300.853 574.004M103.877 473.788L103.877 530.808L166.944 530.808C162.624 641.391 148.801 768.389 101.285 866.013C115.108 872.060 140.162 888.475 151.393 899.706C204.093 795.171 220.508 651.758 224.827 530.808L392.430 530.808L392.430 815.041C392.430 826.272 388.974 829.728 376.879 830.592C364.784 830.592 323.315 831.456 282.711 829.728C291.350 846.143 299.125 872.924 301.717 889.339C357.873 889.339 397.613 888.475 420.940 878.108C444.266 867.741 452.041 850.462 452.041 815.041L452.041 186.963L318.132 186.963L350.961 110.073L285.302 99.706C280.119 124.760 268.888 158.454 258.521 186.963L167.808 186.963L167.808 446.143L167.808 473.788M226.555 240.527L392.430 240.527L392.430 473.788L226.555 473.788L226.555 446.143M541.890 139.447L541.890 243.119C541.890 293.227 534.114 351.110 478.823 396.035C491.782 403.810 515.972 426.272 526.339 438.367C590.270 385.667 603.229 307.914 603.229 243.983L603.229 196.467L737.138 196.467L737.138 323.464C737.138 383.940 749.233 407.266 804.525 407.266C814.892 407.266 846.857 407.266 858.089 407.266C872.775 407.266 889.190 406.402 898.693 402.946C896.965 388.259 895.238 365.797 893.510 350.246C884.006 352.838 866.728 354.566 857.225 354.566C848.585 354.566 819.212 354.566 809.708 354.566C799.341 354.566 797.613 347.654 797.613 324.328L797.613 139.447M785.518 529.080C763.056 603.378 729.363 662.989 685.302 710.505C635.194 660.397 598.045 599.058 573.855 529.080M498.693 471.197L498.693 529.080L537.570 529.080L513.380 535.991C542.754 621.521 584.222 694.091 639.514 752.838C591.134 791.715 533.251 820.225 469.320 840.959C481.415 852.190 500.421 878.108 507.333 892.795C572.991 870.333 632.603 838.367 684.438 794.307C731.955 833.184 787.246 864.285 850.313 885.019C860.680 867.741 878.823 843.551 893.510 830.592C831.307 813.313 776.879 785.667 730.227 749.382C788.974 683.724 833.898 597.330 858.952 485.019L820.940 469.469L809.708 471.197"/></svg>