<svg xmlns="http://www.w3.org/2000/svg" viewBox="0 0 1000 1000" fill="currentColor"><path d="M275.174 391.739L732.565 391.739L732.565 457.826L275.174 457.826M211.696 347.391L211.696 502.174L798.652 502.174L798.652 347.391M465.609 99.565L465.609 156.087L303 156.087L323.870 113.478L263 104.783C245.609 147.391 212.565 196.957 165.609 236.087C176.043 239.565 189.087 247.391 199.522 255.217L121.261 255.217L121.261 303.043L875.174 303.043L875.174 255.217L532.565 255.217L532.565 202.174L810.826 202.174L810.826 156.087L532.565 156.087L532.565 99.565M231.696 255.217C248.217 238.696 262.130 220.435 275.174 202.174L465.609 202.174L465.609 255.217M559.522 518.696L559.522 899.565L624.739 899.565L624.739 817.826L896.043 817.826L896.043 769.130L624.739 769.130L624.739 712.609L852.565 712.609L852.565 668.261L624.739 668.261L624.739 613.478L870.826 613.478L870.826 567.391L624.739 567.391L624.739 518.696M104.739 769.130L104.739 814.348L373.435 814.348L373.435 899.565L438.652 899.565L438.652 516.957L373.435 516.957L373.435 568.261L126.478 568.261L126.478 614.348L373.435 614.348L373.435 668.261L146.478 668.261L146.478 713.478L373.435 713.478L373.435 769.130"/></svg>