<svg xmlns="http://www.w3.org/2000/svg" viewBox="0 0 1000 1000" fill="currentColor"><path d="M702.351 540.135L702.351 661.216L411.757 661.216L411.757 717.432L702.351 717.432L702.351 897.324L763.757 897.324L763.757 717.432L898.676 717.432L898.676 661.216L763.757 661.216L763.757 540.135M448.946 185.541L448.946 519.378L583 519.378C554.459 555.703 511.216 589.432 443.757 617.973C456.730 625.757 476.622 643.919 487 655.162C572.622 617.973 622.784 570.405 652.189 519.378L874.459 519.378L874.459 185.541L650.459 185.541C664.297 163.054 678.135 137.973 691.108 113.757L618.459 99.919C611.541 124.135 598.568 157 585.595 185.541M507.757 376.676L632.297 376.676C631.432 406.081 626.243 437.216 613.270 468.351L507.757 468.351M689.378 376.676L814.784 376.676L814.784 468.351L674.676 468.351C684.189 438.081 687.649 406.946 689.378 376.676M507.757 236.568L633.162 236.568L633.162 327.378L507.757 327.378M689.378 236.568L814.784 236.568L814.784 327.378L689.378 327.378M158.351 119.811L158.351 451.919C158.351 578.189 151.432 753.757 101.270 878.297C117.703 883.486 143.649 892.135 156.622 899.919C192.081 806.514 206.784 689.757 212.838 579.919L325.270 579.919L325.270 897.324L384.081 897.324L384.081 523.703L214.568 523.703L215.432 451.919L215.432 396.568L428.189 396.568L428.189 340.351L357.270 340.351L357.270 103.378L299.324 103.378L299.324 340.351L215.432 340.351L215.432 119.811"/></svg>