<svg xmlns="http://www.w3.org/2000/svg" viewBox="0 0 1000 1000" fill="currentColor"><path d="M676.551 153.724C718.838 183.066 767.166 228.805 787.878 259.873L835.343 222.764C812.905 189.970 763.714 147.683 720.564 118.341M366.735 788.028C400.392 816.507 440.953 857.931 459.939 884.684L512.581 857.068C492.732 830.315 450.446 790.617 417.652 763.001M252.819 761.275C222.614 797.521 172.560 835.493 125.095 862.246C138.903 870.876 161.341 889.862 171.697 900.218C218.299 870.876 273.531 823.411 309.777 779.398M209.669 489.430L325.311 489.430L325.311 536.032L209.669 536.032M377.954 489.430L491.869 489.430L491.869 536.032L377.954 536.032M209.669 407.446L325.311 407.446L325.311 454.047L209.669 454.047M377.954 407.446L491.869 407.446L491.869 454.047L377.954 454.047M139.766 616.291L139.766 658.578L246.778 658.578L246.778 706.906L111.287 706.906L111.287 752.645L580.758 752.645L580.758 706.906L455.624 706.906L455.624 658.578L562.635 658.578L562.635 616.291L455.624 616.291L455.624 573.141L547.964 573.141L547.964 371.200L156.163 371.200L156.163 573.141L246.778 573.141L246.778 616.291M302.010 573.141L401.255 573.141L401.255 616.291L302.010 616.291M776.659 391.049C761.988 483.389 740.413 567.100 706.756 638.729C686.907 555.018 671.373 448.869 663.606 328.913L875.041 328.913L875.041 276.270L660.154 276.270C657.565 220.175 655.839 160.628 656.702 100.218L591.977 100.218C592.840 159.765 594.566 219.312 597.155 276.270L384.858 276.270L384.858 223.627L547.964 223.627L547.964 171.847L384.858 171.847L384.858 100.218L322.722 100.218L322.722 171.847L159.615 171.847L159.615 223.627L322.722 223.627L322.722 276.270L105.246 276.270L105.246 328.913L600.607 328.913C610.963 479.937 631.675 615.428 662.743 715.536C625.634 768.179 579.032 811.329 520.348 844.123C535.882 857.068 554.868 876.917 564.361 892.451C613.552 863.109 654.113 826.863 688.633 785.439C719.701 853.616 758.536 893.314 806.001 893.314C862.096 893.314 883.671 861.383 894.890 755.234C879.356 749.193 857.781 735.385 844.836 721.577C840.521 802.699 831.891 830.315 812.905 831.178C783.563 831.178 755.084 792.343 730.920 725.029C784.426 637.003 817.220 529.128 837.932 404.857M302.010 706.906L302.010 658.578L401.255 658.578L401.255 706.906"/></svg>