<svg xmlns="http://www.w3.org/2000/svg" viewBox="0 0 1000 1000" fill="currentColor"><path d="M299.423 747.340L698.551 747.340L698.551 817.928L299.423 817.928M299.423 702.024L299.423 639.279L698.551 639.279L698.551 702.024M232.320 588.734L232.320 899.845L299.423 899.845L299.423 869.344L698.551 869.344L698.551 896.359L769.139 896.359L769.139 588.734M176.547 271.523L176.547 541.675L819.684 541.675L819.684 271.523L626.220 271.523L626.220 220.107L875.458 220.107L875.458 165.205L626.220 165.205L626.220 99.845L562.603 99.845L562.603 165.205L429.270 165.205L429.270 99.845L365.654 99.845L365.654 165.205L125.131 165.205L125.131 220.107L365.654 220.107L365.654 271.523M429.270 220.107L562.603 220.107L562.603 271.523L429.270 271.523M241.035 427.514L365.654 427.514L365.654 492.874L241.035 492.874M429.270 427.514L562.603 427.514L562.603 492.874L429.270 492.874M241.035 320.325L365.654 320.325L365.654 384.813L241.035 384.813M429.270 320.325L562.603 320.325L562.603 384.813L429.270 384.813M626.220 427.514L752.582 427.514L752.582 492.874L626.220 492.874M626.220 320.325L752.582 320.325L752.582 384.813L626.220 384.813"/></svg>