<svg xmlns="http://www.w3.org/2000/svg" viewBox="0 0 1000 1000" fill="currentColor"><path d="M197.189 491.703L409.946 491.703L409.946 562.622L197.189 562.622M197.189 375.811L409.946 375.811L409.946 445L197.189 445M537.081 419.919L537.081 478.730L722.162 478.730C524.973 722.622 516.324 767.595 516.324 806.514C516.324 857.541 551.784 887.811 631.351 887.811L803.459 887.811C869.189 887.811 892.541 864.459 900.324 720.027C882.162 716.568 859.676 707.919 842.378 699.270C839.784 809.108 832.865 823.811 804.324 823.811L630.486 823.811C601.081 823.811 583.784 816.892 583.784 797.865C583.784 769.324 599.351 726.946 832 448.459C834.595 445 837.189 438.946 838.919 434.622L796.541 418.189L780.973 419.919M100.324 685.432L100.324 744.243L270.703 744.243L270.703 898.189L333.838 898.189L333.838 744.243L497.297 744.243L497.297 685.432L333.838 685.432L333.838 612.784L471.351 612.784L471.351 387.054C486.054 397.432 506.811 414.730 516.324 425.108C546.595 388.784 573.405 343.811 597.622 292.784L892.541 292.784L892.541 233.108L622.703 233.108C637.405 195.054 650.378 156.135 660.757 115.486L595.892 102.514C570.811 205.432 528.432 305.757 471.351 373.216L471.351 325.649L333.838 325.649L333.838 252.135L489.514 252.135L489.514 194.189L333.838 194.189L333.838 102.514L270.703 102.514L270.703 194.189L110.703 194.189L110.703 252.135L270.703 252.135L270.703 325.649L139.243 325.649L139.243 612.784L270.703 612.784L270.703 685.432"/></svg>