<svg xmlns="http://www.w3.org/2000/svg" viewBox="0 0 1000 1000" fill="currentColor"><path d="M688.090 141.612C670.425 176.102 639.300 224.052 612.381 259.383L503.022 259.383C521.529 213.957 534.988 166.849 543.401 120.581L479.468 113.852C471.897 161.801 458.437 211.433 437.407 259.383L328.890 259.383L369.268 238.352C355.809 209.751 324.683 166.849 297.764 136.565L250.656 159.278C275.052 190.403 302.812 231.623 316.271 259.383L178.311 259.383L178.311 313.221L410.488 313.221C397.870 335.934 383.569 357.805 366.744 379.677L126.156 379.677L126.156 434.356L319.636 434.356C263.274 491.559 190.930 542.033 100.078 579.046C114.379 589.141 131.203 612.695 138.774 628.678C204.389 600.077 261.592 563.904 310.383 523.526C314.589 533.620 318.795 544.556 319.636 552.968C365.062 551.286 414.694 547.921 463.485 542.874L463.485 598.394L254.021 598.394L254.021 644.661L463.485 644.661L463.485 702.706L169.899 702.706L169.899 750.655L463.485 750.655L463.485 818.794C463.485 831.412 459.279 834.777 444.978 834.777C431.518 835.618 380.204 836.460 328.048 833.936C337.302 849.078 346.555 871.791 350.761 886.933C419.741 886.933 463.485 886.933 489.563 878.521C516.482 869.267 525.735 854.125 525.735 819.635L525.735 750.655L820.162 750.655L820.162 702.706L525.735 702.706L525.735 644.661L738.564 644.661L738.564 598.394L525.735 598.394L525.735 536.144C571.161 530.256 613.222 522.685 648.553 514.272L607.333 474.735C542.559 490.718 427.312 503.336 325.525 510.066C353.285 486.512 377.680 461.275 399.552 434.356L589.668 434.356C651.077 523.526 752.023 594.188 860.540 630.361C868.953 614.377 886.618 590.823 900.078 578.205C806.702 552.968 716.692 499.972 659.489 434.356L865.588 434.356L865.588 379.677L439.931 379.677C454.231 357.805 466.850 335.934 478.627 313.221L807.544 313.221L807.544 259.383L675.472 259.383C699.026 229.940 724.263 194.609 746.135 161.801"/></svg>