<svg xmlns="http://www.w3.org/2000/svg" viewBox="0 0 1000 1000" fill="currentColor"><path d="M574.320 576.767C521.159 615.353 421.695 652.223 341.952 671.087C353.956 680.519 366.818 695.095 375.392 705.385C460.280 682.234 558.886 643.648 620.623 596.489M656.636 649.651C587.182 697.668 456.850 737.110 344.524 755.974C355.671 767.121 367.675 783.413 375.392 794.559C493.720 771.408 624.910 728.536 702.938 671.944M757.815 719.104C671.212 791.987 489.433 832.287 298.222 848.579C309.369 861.441 320.516 882.019 325.660 896.596C525.446 875.160 712.370 830.572 809.262 743.970M304.224 356.403C333.377 375.267 370.248 400.990 389.969 418.997L419.980 390.701C400.258 376.124 363.388 349.543 334.235 332.394M608.618 357.260C638.629 376.124 676.357 403.563 696.078 420.712L726.946 393.273C706.368 376.982 667.782 351.258 638.629 334.109M561.459 452.437L536.593 473.874L536.593 274.088L275.928 274.088L275.928 319.533L480.001 319.533L480.001 402.705C401.973 431.001 325.660 457.582 272.498 474.731L293.935 515.031C348.811 494.452 413.977 468.729 480.001 442.148L480.001 480.733L528.018 480.733C452.563 536.467 336.807 583.627 228.768 608.493C242.488 621.355 257.064 641.076 264.781 654.795C369.390 626.499 478.286 579.340 557.171 521.033C657.493 587.057 760.387 623.927 860.708 651.365C867.568 635.074 883.860 615.353 896.721 603.348C796.400 580.197 688.361 549.329 594.042 491.023L609.476 476.446M601.759 461.869L609.476 476.446L623.195 503.027L791.255 436.146L791.255 510.744L847.847 510.744L847.847 274.088L580.323 274.088L580.323 319.533L791.255 319.533L791.255 396.703C720.087 422.427 650.633 447.293 601.759 461.869M478.286 115.460C486.861 133.466 495.435 154.902 503.152 174.624L170.462 174.624L170.462 461.012C170.462 581.912 165.317 744.827 103.581 859.726C117.300 866.585 143.024 888.879 153.313 900.026C221.051 776.553 231.341 591.344 231.341 461.012L231.341 228.643L893.292 228.643L893.292 174.624L574.320 174.624C565.746 150.615 552.884 123.177 541.737 100.026"/></svg>