<svg xmlns="http://www.w3.org/2000/svg" viewBox="0 0 1000 1000" fill="currentColor"><path d="M399.412 350.701L399.412 435.406L242.834 435.406L242.834 350.701M160.695 150.487L160.695 206.102L389.144 206.102L367.754 292.519L117.059 292.519L117.059 350.701L182.941 350.701L182.941 730.594L99.947 741.717L111.925 804.176L399.412 757.973L399.412 892.305L460.160 892.305L460.160 747.706L528.610 736.583L525.187 680.968L460.160 690.380L460.160 350.701L531.176 350.701L531.176 292.519L428.503 292.519C440.481 249.738 451.604 201.824 460.160 155.620L416.524 147.920L406.257 150.487M399.412 485.888L399.412 573.160L242.834 573.160L242.834 485.888M399.412 623.642L399.412 699.791L242.834 722.893L242.834 623.642M623.583 336.155L763.904 336.155C750.214 448.241 728.824 543.214 692.888 622.786C652.674 538.936 630.428 444.818 617.594 354.123M614.171 105.139C594.492 228.348 553.422 387.492 484.118 488.455C495.241 502.144 512.353 529.524 520.053 544.925C542.299 514.979 561.979 480.754 579.947 443.963C595.348 526.102 620.160 610.807 659.519 686.102C617.594 753.695 561.979 806.743 486.684 847.813C501.230 858.936 525.187 882.037 533.743 894.016C600.481 853.802 652.674 804.176 694.599 744.283C734.813 803.321 787.861 854.658 857.166 892.305C866.578 876.048 886.257 850.380 899.947 838.401C825.508 802.465 770.749 749.417 728.824 686.957C778.449 592.840 807.540 477.332 825.508 336.155L893.102 336.155L893.102 272.840L644.118 272.840C659.519 220.647 671.497 167.599 681.765 118.829"/></svg>