<svg xmlns="http://www.w3.org/2000/svg" viewBox="0 0 1000 1000" fill="currentColor"><path d="M404.262 390.969C441.670 441.129 479.927 509.141 494.379 551.649L547.939 526.145C531.786 482.786 491.829 417.324 453.572 368.865M702.668 150.374C740.075 177.579 783.434 216.687 803.837 244.742L842.095 206.485C821.691 180.130 776.632 142.723 740.075 117.218M818.290 363.764C790.235 411.373 744.326 475.135 703.519 524.444C685.665 473.435 672.913 414.774 661.861 345.911L661.861 314.455L885.453 314.455L885.453 255.794L661.861 255.794L661.861 108.716L599.799 108.716L599.799 255.794L391.510 255.794L391.510 314.455L599.799 314.455L599.799 538.047C512.233 617.962 417.015 701.277 358.354 749.736L398.311 804.147C456.972 750.587 530.086 680.023 599.799 609.460L599.799 810.948C599.799 825.401 594.698 829.651 581.096 829.651C568.343 830.502 524.985 830.502 474.826 828.801C484.177 846.655 494.379 873.860 497.780 890.863C564.943 890.863 604.050 888.312 627.854 877.260C651.659 867.058 661.861 849.205 661.861 810.098L661.861 572.053C702.668 679.173 763.030 757.388 859.098 828.801C867.599 811.798 884.603 791.394 899.905 780.342C818.290 723.382 763.880 660.470 724.773 577.154C771.531 529.545 829.342 454.731 873.550 393.520M99.905 739.535L114.358 800.746C190.872 776.091 292.041 743.785 387.259 713.180L377.908 655.369L272.488 688.525L272.488 470.884L357.504 470.884L357.504 411.373L272.488 411.373L272.488 225.188L371.106 225.188L371.106 165.677L110.107 165.677L110.107 225.188L212.126 225.188L212.126 411.373L116.909 411.373L116.909 470.884L212.126 470.884L212.126 706.378"/></svg>