<svg xmlns="http://www.w3.org/2000/svg" viewBox="0 0 1000 1000" fill="currentColor"><path d="M189.343 287.098C212.770 333.952 236.197 396.425 244.007 437.206L303.009 419.852C295.200 379.939 271.772 319.202 245.742 272.347M611.035 149.137L611.035 899.679L669.169 899.679L669.169 209.007L808.866 209.007C785.438 277.553 751.599 369.527 718.627 443.280C796.718 521.371 818.410 585.579 818.410 639.375C819.278 669.744 813.204 697.510 795.850 707.922C786.306 713.996 773.291 716.599 760.275 717.466C742.922 717.466 718.627 717.466 693.464 714.863C703.876 733.085 709.950 759.983 710.818 776.469C735.980 778.204 763.746 778.204 785.438 775.601C806.262 772.998 825.351 767.792 839.234 758.247C867.868 738.291 879.148 696.642 879.148 645.449C879.148 585.579 860.059 517.033 781.967 435.471C819.278 354.777 859.191 255.861 889.560 175.167L845.308 146.534L834.896 149.137M281.317 115.297C294.332 143.063 308.215 176.902 317.759 205.536L136.414 205.536L136.414 264.538L545.959 264.538L545.959 205.536L384.570 205.536C375.026 176.035 356.805 132.651 339.451 99.679M442.705 269.744C428.822 319.202 402.792 391.219 379.364 439.809L111.252 439.809L111.252 499.679L565.915 499.679L565.915 439.809L442.705 439.809C464.397 394.690 487.824 335.688 507.781 284.495M161.577 579.505L161.577 895.341L223.182 895.341L223.182 854.560L460.926 854.560L460.926 889.267L526.002 889.267L526.002 579.505M223.182 795.557L223.182 638.508L460.926 638.508L460.926 795.557"/></svg>