<svg xmlns="http://www.w3.org/2000/svg" viewBox="0 0 1000 1000" fill="currentColor"><path d="M802.004 138.437C771.437 182.105 736.502 224.026 698.948 265.074L698.948 223.153L482.354 223.153L482.354 104.376L415.105 104.376L415.105 223.153L192.397 223.153L192.397 284.288L415.105 284.288L415.105 403.066L116.415 403.066L116.415 465.074L464.886 465.074C353.096 541.930 229.079 606.559 99.821 654.594C113.795 668.568 136.502 695.642 146.109 709.616C215.978 680.795 284.974 647.607 351.349 610.052L351.349 796.079C351.349 874.681 383.664 894.769 497.201 894.769C521.655 894.769 710.301 894.769 736.502 894.769C836.066 894.769 858.773 863.328 870.127 739.310C851.786 735.817 823.838 725.336 807.245 713.983C801.131 817.039 791.524 835.380 733.009 835.380C690.214 835.380 530.389 835.380 498.948 835.380C430.825 835.380 418.598 828.393 418.598 795.205L418.598 717.476C548.729 686.035 691.087 643.240 791.524 597.825L733.882 549.790C661.393 588.218 537.376 630.140 418.598 661.581L418.598 570.751C471.873 538.437 522.528 502.629 571.437 465.074L899.821 465.074L899.821 403.066L646.546 403.066C726.895 332.323 799.384 254.594 861.393 169.004M482.354 403.066L482.354 284.288L680.607 284.288C639.559 326.210 595.017 365.511 548.729 403.066"/></svg>