<svg xmlns="http://www.w3.org/2000/svg" viewBox="0 0 1000 1000" fill="currentColor"><path d="M379.947 111.632L379.947 195L285.632 195L285.632 111.632L229.211 111.632L229.211 195L122.263 195L122.263 249.737L229.211 249.737L229.211 307L285.632 307L285.632 249.737L379.947 249.737L379.947 320.474L437.211 320.474L437.211 249.737L537.421 249.737L537.421 195L437.211 195L437.211 111.632M609.842 114.158C590.474 234.579 556.789 349.947 504.579 433.316L506.263 389.526C506.263 381.105 506.263 360.053 506.263 360.053L252.789 360.053L267.105 316.263L206.474 301.947C184.579 379.421 147.526 454.368 100.368 504.895C113.842 513.316 139.105 532.684 150.053 543.632C158.474 534.368 166.053 524.263 173.632 514.158L173.632 765.105L223.316 765.105L223.316 718.789L371.526 718.789L371.526 480.474L195.526 480.474C208.158 459.421 219.947 437.526 230.895 413.947L445.632 413.947C434.684 690.158 422.053 790.368 401.842 814.789C393.421 824.895 385.842 827.421 372.368 826.579C357.211 826.579 323.526 826.579 286.474 823.211C295.737 839.211 302.474 863.632 303.316 881.316C340.368 883 376.579 883 398.474 880.474C422.053 877.947 438.895 872.053 454.053 851C478.474 820.684 491.105 730.579 502.053 483.842C513.842 493.105 524.789 504.053 530.684 510.789C545.842 490.579 559.316 468.684 572.789 444.263C593 529.316 619.947 606.789 655.316 673.316C609.842 740.684 548.368 792.053 465.842 830.789C477.632 844.263 497 873.737 502.895 888.053C582.053 847.632 642.684 796.263 690.684 733.105C734.474 797.947 788.368 849.316 855.737 885.526C865.842 868.684 886.053 844.263 900.368 832.474C829.632 798.789 773.211 744.053 728.579 675C779.947 583.211 811.105 469.526 830.474 328.895L886.053 328.895L886.053 269.947L640.158 269.947C653.632 223.632 664.579 173.947 673.842 123.421M223.316 531L321 531L321 668.263L223.316 668.263M621.632 328.895L764.789 328.895C751.316 439.211 728.579 532.684 691.526 609.316C655.316 535.211 629.211 449.316 612.368 356.684"/></svg>