<svg xmlns="http://www.w3.org/2000/svg" viewBox="0 0 1000 1000" fill="currentColor"><path d="M334.509 196.061L334.509 250.313L425.790 250.313C405.984 295.954 379.288 338.150 369.816 350.206C358.621 364.845 348.287 375.179 338.815 376.901C344.843 390.679 353.454 417.375 356.038 428.569C369.816 420.819 394.789 417.375 560.128 392.402L574.767 430.292L620.408 410.485C607.491 375.179 580.795 320.066 557.545 277.870L513.626 295.093C522.238 311.454 531.710 329.538 541.183 348.483L417.179 364.845C440.429 332.122 465.403 291.648 486.070 250.313L639.353 250.313L639.353 196.061L518.793 196.061C511.043 169.366 498.987 135.781 486.931 108.225L434.402 118.559C443.874 141.809 453.347 171.088 461.097 196.061M199.310 106.503L199.310 279.592L112.335 279.592L112.335 339.872L199.310 339.872L199.310 534.490L100.279 562.907L117.502 626.632L199.310 599.936L199.310 825.555C199.310 835.889 196.727 838.473 187.254 838.473C178.643 838.473 153.670 839.334 125.252 837.611C133.002 854.834 139.891 880.668 141.614 895.308C184.671 895.308 213.088 893.586 232.033 883.252C249.256 873.779 256.145 856.557 256.145 825.555L256.145 580.991L342.259 552.574L332.787 493.155L256.145 517.267L256.145 339.872L333.648 339.872L333.648 279.592L256.145 279.592L256.145 106.503M416.318 619.743L537.738 619.743L537.738 688.634L416.318 688.634M416.318 574.102L416.318 504.350L537.738 504.350L537.738 574.102M361.205 454.404L361.205 892.724L416.318 892.724L416.318 735.136L537.738 735.136L537.738 827.278C537.738 835.028 536.016 837.611 527.405 837.611C518.793 837.611 494.681 837.611 466.264 836.750C474.014 852.251 481.764 875.502 482.625 891.002C523.099 891.002 551.517 890.141 569.601 880.668C587.685 871.196 592.851 854.834 592.851 827.278L592.851 454.404M717.717 312.315L805.553 312.315C796.081 418.236 781.441 513.822 756.468 596.492C731.495 512.100 717.717 422.541 709.967 342.455M696.188 99.614C681.549 239.980 654.854 376.040 601.463 464.737C614.380 475.071 635.047 500.044 641.936 511.239C654.854 489.710 666.048 466.460 676.382 441.487C686.716 516.406 703.078 597.353 728.051 672.272C697.050 745.469 653.992 806.610 594.574 853.973C606.630 865.168 626.436 887.558 633.325 899.614C684.132 855.695 724.606 803.166 755.607 742.886C782.302 802.305 816.748 854.834 860.666 896.169C870.139 881.530 889.084 857.418 900.279 847.084C849.471 804.888 812.442 745.469 784.886 679.161C825.360 577.547 848.610 455.265 862.389 312.315L899.418 312.315L899.418 255.480L729.773 255.480C739.245 208.117 747.857 158.171 753.885 107.364"/></svg>