<svg xmlns="http://www.w3.org/2000/svg" viewBox="0 0 1000 1000" fill="currentColor"><path d="M461.822 277.928C484.163 344.093 505.646 430.882 509.942 487.595L567.515 472.128C561.499 414.555 540.876 329.485 515.957 263.320M802.101 257.305C787.493 323.470 758.277 417.133 734.217 475.565L787.493 492.751C812.412 435.178 841.628 347.531 864.829 274.491M386.204 111.226C322.617 140.441 209.190 165.361 112.950 181.687C120.683 195.436 129.276 216.918 131.854 230.667C172.241 225.511 215.205 217.778 258.170 209.185L258.170 341.516L118.105 341.516L118.105 401.666L249.577 401.666C215.205 500.484 155.914 612.192 100.060 673.202C111.231 688.669 126.698 714.448 133.573 732.493C177.396 679.217 222.939 594.147 258.170 507.359L258.170 888.025L321.757 888.025L321.757 517.670C350.973 553.760 385.345 600.162 399.953 624.222L433.465 580.398L625.946 580.398L625.946 888.025L688.675 888.025L688.675 580.398L900.060 580.398L900.060 521.107L688.675 521.107L688.675 224.652L878.578 224.652L878.578 166.220L452.369 166.220L452.369 224.652L625.946 224.652L625.946 521.107L424.872 521.107L424.872 558.916C396.516 528.841 342.380 472.987 321.757 454.942L321.757 401.666L429.169 401.666L429.169 341.516L321.757 341.516L321.757 194.577C362.144 185.125 399.953 173.954 430.887 161.064"/></svg>