<svg xmlns="http://www.w3.org/2000/svg" viewBox="0 0 1000 1000" fill="currentColor"><path d="M772.075 407.495L772.075 506.419L495.086 506.419L495.086 407.495M772.075 351.581L495.086 351.581L495.086 259.538L772.075 259.538M429.710 899.538C445.194 887.495 471 876.312 639.602 817.817C637.022 804.914 632.720 779.968 631.860 762.763L495.086 805.774L495.086 563.194L593.151 563.194C641.323 709.430 729.925 825.559 857.237 883.194C866.699 865.989 885.624 841.903 900.247 829.860C839.172 806.634 786.699 767.925 744.548 718.892C788.419 693.086 839.172 659.538 877.022 626.849L834.871 584.699C803.903 613.086 754.011 648.355 711 675.022C687.774 641.473 668.849 603.624 654.226 563.194L834.871 563.194L834.871 202.763L677.452 202.763C666.269 172.656 648.204 132.226 631 101.258L573.366 117.602C587.129 143.409 600.892 175.237 611.215 202.763L495.086 202.763L430.570 201.903L430.570 776.527C430.570 816.097 409.925 839.323 395.301 849.645C406.484 860.828 423.688 885.774 429.710 899.538M326.484 121.043C308.419 154.591 285.194 189.860 257.667 223.409C233.581 188.140 202.613 153.731 163.043 120.183L117.452 154.591C160.462 192.441 193.151 231.151 216.376 271.581C181.108 309.430 143.258 344.699 103.688 373.086C118.312 383.409 138.097 401.473 148.419 414.376C181.108 388.570 213.796 359.323 244.763 328.355C260.247 367.065 269.710 407.495 274.871 448.785C234.441 523.624 163.903 604.484 100.247 644.914C115.731 656.957 133.796 679.323 144.118 693.946C190.570 657.817 240.462 602.763 281.753 544.269L281.753 571.796C281.753 685.344 273.151 789.430 251.645 818.677C244.763 828.140 236.161 831.581 223.258 833.301C204.333 835.882 170.785 835.882 129.495 833.301C140.677 851.366 147.559 874.591 148.419 895.237C184.548 896.957 219.817 896.097 249.065 890.935C270.570 887.495 286.914 878.032 298.097 862.548C333.366 815.237 342.828 699.108 342.828 573.516C342.828 471.151 335.086 372.226 289.495 279.323C325.624 238.032 357.452 193.301 383.258 149.430"/></svg>