<svg xmlns="http://www.w3.org/2000/svg" viewBox="0 0 1000 1000" fill="currentColor"><path d="M100.188 214.744C154.034 248.077 219.846 297.650 252.325 330.983L292.496 278.846C259.162 246.368 191.641 199.359 138.650 168.590M100.188 749.786L155.744 789.957C201.897 714.744 256.598 613.889 297.624 527.564L248.906 488.248C204.462 579.701 142.068 687.393 100.188 749.786M304.462 328.419L304.462 391.667L458.308 391.667C425.829 549.786 352.325 683.120 263.436 744.658C277.966 757.479 296.769 782.265 305.316 796.795C414.718 712.179 496.769 551.496 527.538 336.966L489.932 326.709L478.821 328.419M815.573 276.282C778.821 326.709 721.556 388.248 671.128 436.111C650.615 380.556 634.376 320.726 621.556 259.188L621.556 107.906L555.744 107.906L555.744 807.051C555.744 821.581 550.615 825 537.795 825.855C524.120 826.709 479.675 826.709 430.957 825C441.214 842.949 453.179 873.718 456.598 891.667C519.846 891.667 561.726 889.957 586.513 877.991C611.299 866.880 621.556 847.222 621.556 807.051L621.556 436.966C670.274 593.376 743.778 721.581 854.889 793.376C865.145 775.427 885.658 750.641 900.188 738.675C809.590 689.103 742.068 601.068 693.350 491.667C749.761 442.949 818.991 373.718 870.274 311.325"/></svg>