<svg xmlns="http://www.w3.org/2000/svg" viewBox="0 0 1000 1000" fill="currentColor"><path d="M453.015 628.231C482.834 653.790 521.173 690.425 540.768 713.428L572.291 674.237C552.695 653.790 515.209 620.563 481.982 595.856M209.351 115.345L209.351 898.306L268.137 898.306L268.137 115.345M139.490 279.775C135.230 346.229 120.747 440.798 100.299 499.584L145.454 514.919C165.049 451.021 178.681 352.193 182.940 284.887M279.213 266.996C295.400 323.226 312.440 398.199 318.404 441.650L361.854 426.314C354.186 384.568 336.295 313.002 319.256 256.772M789.543 463.801L789.543 531.958L670.267 531.958L670.267 463.801M789.543 417.794L670.267 417.794L670.267 356.453L789.543 356.453M568.883 115.345C579.958 139.200 592.738 169.019 602.962 195.430L377.190 195.430L377.190 494.472C377.190 606.932 371.226 756.027 306.476 859.967C318.404 865.931 342.259 885.526 351.630 895.750C424.048 785.846 434.272 615.452 434.272 494.472L434.272 248.252L618.297 248.252L618.297 310.446L473.462 310.446L473.462 356.453L623.409 356.453L623.409 417.794L456.423 417.794L456.423 463.801L623.409 463.801L623.409 531.958L470.906 531.958L470.906 578.817L616.593 578.817L616.593 698.093C544.176 733.875 471.758 768.806 421.492 790.105L446.199 838.668L616.593 747.507L616.593 832.704C616.593 842.076 614.037 844.632 602.962 845.483C592.738 845.483 557.807 846.335 518.617 844.632C527.136 859.115 536.508 880.414 539.064 894.898C590.182 894.898 623.409 894.046 644.708 886.378C666.859 877.858 672.823 863.375 672.823 833.556L672.823 704.056C725.645 767.102 798.063 822.480 875.592 856.559C879.852 841.224 890.928 818.220 900.299 804.589C848.329 784.994 798.063 755.175 755.464 718.540C792.099 695.537 835.550 664.014 871.332 632.491L826.178 596.708C800.619 623.971 757.168 660.606 721.386 686.165C702.642 665.718 686.455 644.419 672.823 622.267L672.823 578.817L837.253 578.817L837.253 468.061L890.076 468.061L890.076 413.535L837.253 413.535L837.253 310.446L675.379 310.446L675.379 248.252L889.224 248.252L889.224 195.430L670.267 195.430C660.044 168.167 643.856 131.532 628.521 102.565"/></svg>