<svg xmlns="http://www.w3.org/2000/svg" viewBox="0 0 1000 1000" fill="currentColor"><path d="M219.763 109.641L219.763 886.808L283.188 886.808L283.188 109.641M143.653 272.854C137.734 341.353 122.512 434.376 99.679 490.190L149.573 507.949C172.406 446.216 187.628 348.118 191.856 279.619M284.879 265.243C310.249 315.983 337.311 382.791 347.459 423.383L394.816 399.704C384.668 359.958 355.915 294.841 329.700 245.793M756.761 497.801L625.683 497.801C629.066 461.438 629.911 425.920 629.911 391.247L629.911 304.144L756.761 304.144M566.486 109.641L566.486 244.101L400.736 244.101L400.736 304.144L566.486 304.144L566.486 391.247C566.486 425.074 565.641 461.438 562.258 497.801L355.070 497.801L355.070 559.535L553.801 559.535C531.814 663.552 476 767.569 327.163 841.987C341.539 853.827 363.526 877.505 371.983 891.036C514.055 812.389 578.326 707.526 607.078 600.127C656.127 732.896 734.774 837.759 854.013 890.190C863.315 871.586 884.457 844.524 899.679 830.994C781.285 787.865 700.101 684.693 654.436 559.535L892.068 559.535L892.068 497.801L819.340 497.801L819.340 244.101L629.911 244.101L629.911 109.641"/></svg>