<svg xmlns="http://www.w3.org/2000/svg" viewBox="0 0 1000 1000" fill="currentColor"><path d="M602.590 527.488L602.590 599.194L362.417 599.194L362.417 659.670L602.590 659.670L602.590 820.361C602.590 832.456 599.998 835.911 584.447 836.775C568.896 837.639 517.060 837.639 460.041 835.911C468.680 854.054 477.320 879.108 479.911 897.251C554.210 897.251 602.590 897.251 631.963 887.747C660.473 877.380 668.248 859.238 668.248 821.225L668.248 659.670L899.782 659.670L899.782 599.194L668.248 599.194L668.248 549.086C731.315 509.346 798.702 455.782 845.354 403.946L803.886 371.981L790.927 375.436L435.851 375.436L435.851 435.048L730.451 435.048C693.302 469.605 645.786 505.026 602.590 527.488M405.613 103.298C395.246 140.447 383.151 178.460 368.464 216.473L127.428 216.473L127.428 278.676L341.683 278.676C285.527 397.898 205.181 509.346 99.782 583.644C110.149 598.330 125.700 625.976 132.611 642.391C169.760 615.609 204.317 585.371 235.419 552.542L235.419 896.387L301.078 896.387L301.078 473.924C346.002 413.449 382.287 347.790 413.389 278.676L884.231 278.676L884.231 216.473L439.307 216.473C451.402 184.508 462.633 151.678 472.136 119.713"/></svg>