<svg xmlns="http://www.w3.org/2000/svg" viewBox="0 0 1000 1000" fill="currentColor"><path d="M728.450 133.576C766.877 162.397 811.418 203.444 833.252 232.264L868.186 193.837C846.352 166.763 800.938 127.463 762.511 100.389M451.599 364.140L451.599 415.667L641.116 415.667L641.116 364.140M106.628 183.357L106.628 755.399L164.268 755.399L164.268 671.558L318.851 671.558L318.851 183.357M164.268 244.491L264.703 244.491L264.703 610.423L164.268 610.423M457.713 483.788L457.713 772.866L500.507 772.866L500.507 719.592L638.496 719.592L638.496 483.788M500.507 535.316L594.828 535.316L594.828 668.064L500.507 668.064M651.596 100.389L655.089 235.758L366.885 235.758L366.885 471.561C366.885 587.716 362.518 751.032 309.244 868.934C321.471 874.174 345.051 889.894 354.658 900.374C411.425 775.486 421.032 595.576 421.032 471.561L421.032 295.145L657.709 295.145C664.696 443.614 675.176 576.363 693.516 679.418C651.596 749.285 597.448 807.800 531.074 852.340C544.174 862.820 564.261 883.781 571.248 895.134C624.522 855.834 670.809 807.800 710.110 752.779C734.564 845.354 768.624 899.501 815.785 900.374C845.479 901.248 876.046 863.694 892.639 722.212C882.159 717.845 858.579 703.871 848.099 693.391C841.985 778.979 831.505 829.633 815.785 829.633C790.458 827.887 768.624 774.612 751.157 687.278C800.065 600.817 834.998 498.635 859.452 381.607L805.305 372.873C788.711 454.968 766.877 530.075 737.184 597.323C725.830 511.735 717.097 407.807 711.857 295.145L871.679 295.145L871.679 235.758L709.237 235.758L706.617 100.389"/></svg>