<svg xmlns="http://www.w3.org/2000/svg" viewBox="0 0 1000 1000" fill="currentColor"><path d="M146.660 156.490C199.819 186.120 268.664 231.436 302.651 261.065L342.739 208.778C307.880 180.891 237.292 138.190 185.004 110.303M99.601 396.142C153.632 423.157 225.092 464.115 259.950 491.131L296.551 437.100C259.950 410.085 187.619 371.741 135.331 348.211M129.231 844.943L183.261 889.388C235.549 808.342 295.680 699.410 341.867 607.035L294.808 564.333C244.264 662.808 175.418 777.841 129.231 844.943M347.096 778.712L347.096 844.072L899.601 844.072L899.601 778.712L648.621 778.712L648.621 246.251L850.800 246.251L850.800 180.891L388.926 180.891L388.926 246.251L578.033 246.251L578.033 778.712"/></svg>