<svg xmlns="http://www.w3.org/2000/svg" viewBox="0 0 1000 1000" fill="currentColor"><path d="M180.039 608.698C162.760 674.356 135.978 739.151 99.693 784.940C112.652 792.715 136.842 811.721 146.346 821.225C184.359 771.981 218.052 695.955 237.058 621.657M399.477 632.888C431.443 677.812 465.136 739.151 477.231 778.028L529.931 751.246C516.972 712.369 482.415 653.622 448.721 609.562M106.605 506.754L106.605 564.637L292.350 564.637L292.350 829C292.350 839.367 288.894 841.959 277.663 841.959C266.432 842.823 229.283 842.823 187.814 841.959C196.454 858.374 204.229 881.700 206.821 898.114C262.976 898.114 298.397 897.251 321.724 887.747C345.050 879.108 351.961 862.693 351.961 829.864L351.961 564.637L521.292 564.637L521.292 506.754L338.138 506.754L338.138 412.585L489.326 412.585L489.326 356.430L338.138 356.430L338.138 284.724L277.663 284.724L277.663 506.754M789.110 406.538C769.240 500.706 735.546 581.916 692.350 648.438C652.609 578.460 623.235 496.387 604.229 406.538M523.019 347.790L523.019 406.538L554.985 406.538L547.210 408.266C571.400 519.713 605.093 619.065 653.473 701.138C598.181 768.525 531.659 816.905 458.225 846.279C472.048 858.374 487.598 882.564 495.374 898.114C567.080 865.285 632.739 817.769 688.030 754.702C733.819 816.041 788.246 865.285 855.633 899.842C865.136 883.428 885.006 860.102 899.693 847.143C830.579 815.177 773.559 766.797 727.771 704.594C789.974 615.609 835.762 501.570 859.089 358.158L820.212 345.199L808.981 347.790M445.266 115.393C455.633 136.127 467.728 160.317 477.231 183.644L127.339 183.644L127.339 323.600L190.406 323.600L190.406 242.391L801.205 242.391L801.205 313.233L866.864 313.233L866.864 183.644L554.121 183.644C542.890 156.862 525.611 125.760 510.924 99.842"/></svg>