<svg xmlns="http://www.w3.org/2000/svg" viewBox="0 0 1000 1000" fill="currentColor"><path d="M714.386 123.384L656.452 134.460C694.790 300.594 751.020 403.683 855.813 493.140C865.184 473.544 883.928 452.245 900.115 439.465C803.842 362.788 750.168 274.183 714.386 123.384M292.660 109.753C250.062 238.400 177.644 366.196 100.115 449.689C112.043 464.173 130.786 497.399 137.602 512.735C162.309 484.620 186.164 453.097 209.167 418.166L209.167 890.158L273.065 890.158L273.065 310.818C303.736 252.032 330.999 189.838 353.150 127.644M500.541 128.496C466.462 260.552 401.712 373.864 312.256 444.577C325.035 457.357 345.482 486.324 353.150 500.807C372.745 484.620 391.489 465.876 408.528 445.429L408.528 499.955L517.580 499.955C499.689 666.089 448.571 779.401 329.295 844.151C342.927 855.227 365.078 879.082 373.597 891.010C500.541 813.480 559.327 689.093 580.626 499.955L733.129 499.955C722.905 714.652 710.126 796.441 692.234 816.036C683.715 826.260 676.899 827.964 662.415 827.964C647.932 827.964 611.297 827.112 572.958 823.704C582.330 839.891 589.998 864.599 590.850 883.342C630.040 885.046 668.379 885.046 690.530 883.342C714.386 880.786 731.425 874.822 746.760 855.227C773.171 824.556 785.099 731.691 797.027 469.284C797.879 460.765 797.879 440.317 797.879 440.317L412.788 440.317C480.094 361.084 531.212 257.996 563.587 142.128"/></svg>