<svg xmlns="http://www.w3.org/2000/svg" viewBox="0 0 1000 1000" fill="currentColor"><path d="M645.865 148.811C695.162 187.730 760.892 242.216 792.892 275.081L836.135 233.568C802.405 202.432 736.676 150.541 687.378 113.351M788.568 415.189C753.108 486.108 707.270 549.243 651.919 605.459C633.757 542.324 619.054 468.811 609.541 388.378L880.243 360.703L874.189 301.027L602.622 327.838C596.568 258.649 593.108 185.135 593.108 109.027L524.784 109.027C525.649 186 529.973 262.108 536.892 334.757L325.865 355.514L331.054 416.919L543.811 395.297C555.919 491.297 573.216 580.378 596.568 655.622C520.459 719.622 431.378 770.649 333.649 808.703C347.486 821.676 369.973 849.351 378.622 864.054C465.108 826 546.405 777.568 619.054 718.757C663.162 828.595 722.838 896.054 797.216 896.054C863.811 896.054 888.892 854.541 900.135 710.973C882.838 704.054 857.757 690.216 843.054 676.378C837.865 787.081 827.486 829.459 802.405 830.324C754.838 830.324 709 770.649 672.676 672.054C743.595 605.459 804.135 527.622 849.973 437.676M324.135 102.973C273.108 237.027 189.216 367.622 100.135 452.378C112.243 466.216 132.135 500.811 139.054 515.514C170.189 484.378 200.459 447.189 229.865 407.405L229.865 893.459L294.730 893.459L294.730 307.946C329.324 248.270 360.459 185.135 385.541 122"/></svg>