<svg xmlns="http://www.w3.org/2000/svg" viewBox="0 0 1000 1000" fill="currentColor"><path d="M431 710.243C414.568 762.135 385.162 830.459 350.568 871.973L399.865 899.649C435.324 854.676 463 784.622 480.297 730.135M525.270 729.270C535.649 779.432 543.432 845.162 544.297 887.541L598.784 878.892C597.919 836.514 588.405 771.649 576.297 721.486M636.838 726.676C657.595 776.838 679.216 841.703 686.135 884.081L739.757 869.378C731.108 827 710.351 763 687.865 713.703M752.730 720.622C782.135 773.378 819.324 845.162 834.892 891L890.243 868.514C872.946 824.405 836.622 754.351 805.486 702.459M608.297 121.270C626.459 156.730 648.081 205.162 658.459 235.432L716.405 209.486C705.162 180.946 683.541 135.108 663.649 100.514M278.784 389.378L278.784 512.189L168.081 512.189L168.081 389.378M278.784 333.162L168.081 333.162L168.081 212.946L278.784 212.946M278.784 568.405L278.784 694.676L168.081 694.676L168.081 568.405M488.081 99.649C456.081 202.568 401.595 302.892 337.595 369.486L337.595 154.135L110.135 154.135L110.135 828.730L168.081 828.730L168.081 753.486L337.595 753.486L337.595 379.865C350.568 392.838 367 415.324 373.919 425.703C392.946 404.946 411.973 380.730 430.135 353.919L430.135 702.459L488.946 702.459L488.946 668.730L875.541 668.730L875.541 613.378L693.919 613.378L693.919 538.135L848.730 538.135L848.730 487.973L693.919 487.973L693.919 415.324L846.135 415.324L846.135 364.297L693.919 364.297L693.919 292.514L871.216 292.514L871.216 238.027L496.730 238.027C515.757 198.243 533.054 156.730 546.892 114.351M632.514 415.324L632.514 487.973L488.946 487.973L488.946 415.324M632.514 364.297L488.946 364.297L488.946 292.514L632.514 292.514M632.514 538.135L632.514 613.378L488.946 613.378L488.946 538.135"/></svg>