<svg xmlns="http://www.w3.org/2000/svg" viewBox="0 0 1000 1000" fill="currentColor"><path d="M704.744 502.017L704.744 575.770L303.876 575.770L303.876 502.017M238.800 451.692L238.800 899.414L303.876 899.414L303.876 749.306L704.744 749.306L704.744 826.529C704.744 838.677 699.538 843.015 685.655 843.883C671.772 843.883 620.579 843.883 570.254 842.148C578.931 858.633 588.475 882.928 591.946 900.282C661.360 900.282 706.479 899.414 734.245 889.870C761.143 880.325 770.688 862.972 770.688 827.397L770.688 451.692M303.876 623.492L704.744 623.492L704.744 701.584L303.876 701.584M353.334 100.282L353.334 176.638L135.547 176.638L135.547 229.566L353.334 229.566L353.334 307.657C262.228 323.275 175.460 337.158 113.855 345.835L124.267 402.234L353.334 358.850L353.334 423.059L417.542 423.059L417.542 100.282M544.223 101.150L544.223 330.217C544.223 397.028 565.048 415.249 648.345 415.249C664.831 415.249 777.629 415.249 795.850 415.249C860.059 415.249 879.148 392.690 886.957 307.657C868.735 304.187 842.705 294.642 828.822 285.098C825.351 348.438 819.278 358.850 789.777 358.850C765.482 358.850 672.640 358.850 655.286 358.850C616.241 358.850 609.299 354.512 609.299 330.217L609.299 262.538C692.597 243.449 785.438 215.683 852.249 187.050L806.262 140.195C759.408 163.623 682.184 189.653 609.299 210.477L609.299 101.150"/></svg>