<svg xmlns="http://www.w3.org/2000/svg" viewBox="0 0 1000 1000" fill="currentColor"><path d="M406.297 280.919L406.297 342.324L877.649 342.324L877.649 280.919M465.973 409.784C491.919 530 517 690 524.784 780.811L587.919 762.649C578.405 674.432 551.595 517.892 523.054 396.811M576.676 134.757C593.108 178 611.270 235.946 618.189 272.270L681.324 254.108C673.541 216.919 654.514 161.568 637.216 118.324M365.649 820.595L365.649 882L900.135 882L900.135 820.595L728.892 820.595C761.757 704.703 796.351 534.324 819.703 401.135L750.514 389.892C734.946 519.622 701.216 703.838 670.081 820.595M100.135 738.432L121.757 804.162C200.459 773.892 301.649 734.108 397.649 695.189L385.541 635.514L280.892 674.432L280.892 395.946L375.162 395.946L375.162 334.541L280.892 334.541L280.892 133.892L217.757 133.892L217.757 334.541L114.838 334.541L114.838 395.946L217.757 395.946L217.757 697.784C173.649 713.351 133 728.054 100.135 738.432"/></svg>