<svg xmlns="http://www.w3.org/2000/svg" viewBox="0 0 1000 1000" fill="currentColor"><path d="M310.902 113.021C263.344 242.108 184.363 369.497 100.287 451.875C112.176 466.312 130.011 499.433 136.805 514.720C165.679 484.996 193.705 450.176 220.881 412.809L220.881 889.242L282.028 889.242L282.028 317.692C316.847 258.244 347.420 194.550 372.049 130.856M360.159 295.611L360.159 357.607L592.856 357.607L592.856 531.705L409.416 531.705L409.416 890.941L472.261 890.941L472.261 854.423L783.938 854.423L783.938 887.544L848.482 887.544L848.482 531.705L658.248 531.705L658.248 357.607L900.287 357.607L900.287 295.611L658.248 295.611L658.248 109.624L592.856 109.624L592.856 295.611M472.261 793.276L472.261 592.002L783.938 592.002L783.938 793.276"/></svg>