<svg xmlns="http://www.w3.org/2000/svg" viewBox="0 0 1000 1000" fill="currentColor"><path d="M134.222 312.667L134.222 894.148L203.667 894.148L203.667 378.407L455.519 378.407C445.333 478.407 401.815 596 222.185 682.111C239.778 695.074 262.926 720.074 274.037 735.815C394.407 672.852 459.222 595.074 494.407 517.296C577.741 581.185 669.407 663.593 716.630 718.222L765.704 665.444CNaN 606.185 604.593 518.222 516.630 453.407C523.111 427.481 527.741 402.481 530.519 378.407L798.111 378.407L798.111 802.481C798.111 817.296 793.481 821.926 775.889 821.926C758.296 822.852 695.333 823.778 631.444 821C640.704 841.370 651.815 871 654.593 891.370CNaN 891.370 792.556 890.444 824.963 879.333C858.296 868.222 867.556 846 867.556 802.481L867.556 312.667L533.296 312.667L533.296 309.889L533.296 173.778L899.963 173.778L899.963 105.259L99.963 105.259L99.963 173.778L458.296 173.778L458.296 309.889L458.296 312.667"/></svg>