<svg xmlns="http://www.w3.org/2000/svg" viewBox="0 0 1000 1000" fill="currentColor"><path d="M478.699 110.172C407.361 141.594 280.822 173.866 168.720 195.098L169.569 196.796L169.569 486.393C169.569 600.193 163.624 748.813 99.930 854.121C113.518 860.915 137.297 878.749 146.639 889.790C215.429 777.688 225.620 608.686 225.620 486.393L225.620 236.711L296.108 222.274L296.108 880.448L353.008 880.448L353.008 208.686L420.100 190.851C403.115 668.134 431.140 850.724 871.055 888.941C876.151 871.955 889.739 844.779 899.930 832.040C470.206 804.015 456.618 628.219 475.301 174.715L532.202 155.183M678.274 234.163L678.274 415.055L599.293 415.055L599.293 234.163M723.285 234.163L801.416 234.163L801.416 415.055L723.285 415.055M543.242 180.660L543.242 593.399C543.242 668.134 566.172 685.968 640.907 685.968C657.892 685.968 773.391 685.968 791.225 685.968C857.467 685.968 874.452 656.244 882.096 556.032C865.960 551.786 842.180 542.444 829.442 532.253C826.045 614.631 820.100 630.766 787.828 630.766C763.200 630.766 664.686 630.766 646.002 630.766C606.087 630.766 599.293 623.972 599.293 593.399L599.293 468.558L856.618 468.558L856.618 180.660"/></svg>