<svg xmlns="http://www.w3.org/2000/svg" viewBox="0 0 1000 1000" fill="currentColor"><path d="M633.261 196.435L633.261 683.391L697.609 683.391L697.609 196.435M812.391 99.913L812.391 811.217C812.391 825.130 807.174 829.478 793.261 829.478C779.348 830.348 734.130 830.348 686.304 828.609CNaN 846.870 705.435 874.696 708.043 892.087CNaN 892.087 816.739 890.348 841.957 880.783C868.043 870.348 878.478 851.217 878.478 810.348L878.478 99.913M232.391 563.391C276.739 593.826 330.652 636.435 364.565 668.609C305.435 752.087 229.783 811.217 143.696 845.130C157.609 858.174 175 883.391 182.826 899.913C367.174 817.304 501.957 647.739 545.435 346L505.435 333.826L494.130 336.435L298.478 336.435C312.391 294.696 324.565 250.348 335 205.130L571.522 205.130L571.522 142.522L128.043 142.522L128.043 205.130L269.783 205.130C239.348 338.174 190.652 461.652 121.087 542.522C135.870 552.087 161.087 573.826 171.522 586C212.391 534.696 247.174 470.348 276.739 396.435L474.130 396.435C457.609 478.174 432.391 550.348 399.348 611.217C365.435 581.652 312.391 542.522 269.783 515.565"/></svg>