<svg xmlns="http://www.w3.org/2000/svg" viewBox="0 0 1000 1000" fill="currentColor"><path d="M423.943 473.802C468.436 543.594 525.143 637.815 551.315 692.776L612.384 659.625C584.467 606.408 526.015 514.805 480.650 446.757M723.180 105.644L723.180 288.851L368.981 288.851L368.981 355.154L723.180 355.154L723.180 807.935C723.180 828 715.328 834.107 694.390 834.979C674.325 835.852 602.787 836.724 528.632 833.234C538.229 851.555 550.443 881.217 554.805 898.665C649.897 899.538 708.349 898.665 743.245 888.196C776.397 877.727 790.356 858.534 790.356 807.935L790.356 355.154L900.279 355.154L900.279 288.851L790.356 288.851L790.356 105.644M325.361 100.410C273.889 236.506 190.137 369.985 100.279 455.481C113.365 471.184 133.431 505.208 141.282 520.912C171.817 490.377 201.479 453.736 230.268 414.478L230.268 896.048L295.699 896.048L295.699 313.278C331.468 252.209 362.875 186.779 389.047 120.475"/></svg>