<svg xmlns="http://www.w3.org/2000/svg" viewBox="0 0 1000 1000" fill="currentColor"><path d="M322.426 466.787C281.333 538.481 211.388 609.301 145.814 655.639C160.678 667.005 184.284 692.361 194.776 705.475C262.098 651.268 337.290 569.082 385.377 487.770M251.607 167.770L251.607 366.240L120.459 366.240L120.459 429.191L474.557 429.191L474.557 706.350L537.508 706.350C427.344 771.923 285.705 813.016 112.590 836.623C126.579 854.109 140.568 880.339 146.689 899.574C481.552 847.989 704.503 730.831 819.038 503.508L756.962 474.656C708.874 570.831 638.055 646.022 543.628 702.852L543.628 429.191L887.235 429.191L887.235 366.240L549.749 366.240L549.749 254.328L807.672 254.328L807.672 193.126L549.749 193.126L549.749 99.574L480.678 99.574L480.678 366.240L318.055 366.240L318.055 167.770"/></svg>