<svg xmlns="http://www.w3.org/2000/svg" viewBox="0 0 1000 1000" fill="currentColor"><path d="M348.410 107.929C294.275 203.310 204.909 299.551 121.557 360.561C136.165 373.450 161.085 401.807 171.396 415.555C256.466 345.953 351.847 237.682 414.576 132.849M582.137 141.441C669.785 222.215 774.619 336.501 820.161 410.400L880.311 368.294C831.332 294.395 724.780 184.406 637.132 106.211M352.707 348.531L289.979 367.435C330.365 477.424 384.501 571.946 454.103 651.001C362.159 733.493 244.436 791.925 100.075 830.593C113.824 846.060 134.447 876.995 142.180 893.321C286.541 848.638 405.983 786.769 501.364 699.981C594.168 786.769 710.172 849.497 852.814 886.447C863.985 867.542 883.749 837.467 900.075 822C760.011 790.206 644.006 730.915 552.062 649.282C623.383 571.087 679.237 475.706 719.624 359.701L650.881 339.938C616.509 443.912 567.530 530.700 503.942 602.021C437.777 529.841 387.938 444.771 352.707 348.531"/></svg>