<svg xmlns="http://www.w3.org/2000/svg" viewBox="0 0 1000 1000" fill="currentColor"><path d="M318.386 611.298L318.386 801.649C318.386 874.456 343.825 894.632 440.316 894.632C460.491 894.632 599.965 894.632 621.018 894.632C704.351 894.632 724.526 864.807 734.175 744.632C714.877 740.246 686.807 729.719 671.018 718.316C666.632 817.439 660.491 832.351 615.754 832.351C585.053 832.351 469.263 832.351 445.579 832.351C395.579 832.351 386.807 827.088 386.807 800.772L386.807 611.298M708.737 638.491C756.982 703.404 814 790.246 839.439 843.754L899.965 810.421C872.772 756.912 813.123 671.825 765.754 611.298M204.351 614.807C183.298 683.228 144.702 771.825 99.965 827.965L162.246 856.035C203.474 798.140 238.561 706.035 263.123 637.614M180.667 210.421L180.667 488.491L468.386 488.491L468.386 570.947L422.772 604.281C474.526 642 536.807 696.386 567.509 732.351L620.140 690.246C591.193 658.667 535.930 612.175 488.561 577.965L534.175 577.965L534.175 488.491L828.912 488.491L828.912 210.421L534.175 210.421L534.175 105.158L468.386 105.158L468.386 210.421M243.825 270.070L468.386 270.070L468.386 428.842L243.825 428.842M534.175 270.070L762.246 270.070L762.246 428.842L534.175 428.842"/></svg>