<svg xmlns="http://www.w3.org/2000/svg" viewBox="0 0 1000 1000" fill="currentColor"><path d="M685.617 107.106C665.191 239.021 630.298 369.234 574.128 453.489C581.787 459.447 592.851 469.660 602.213 479.021L494.128 479.021L494.128 389.660L592.851 389.660L592.851 336.043L494.128 336.043L494.128 256.043L607.319 256.043L607.319 203.277L494.128 203.277L494.128 117.319L434.553 117.319L434.553 203.277L312 203.277L312 256.043L434.553 256.043L434.553 336.043L324.766 336.043L324.766 389.660L434.553 389.660L434.553 479.021L294.979 479.021L294.979 532.638L382.638 532.638C376.681 674.766 352.851 782 273.702 846.681C285.617 856.043 307.745 879.021 315.404 890.085C377.532 833.915 410.723 759.021 427.745 661.149L532.426 661.149C526.468 767.532 519.660 808.383 509.447 819.447C504.340 826.255 498.383 827.106 486.468 827.106C476.255 827.106 450.723 827.106 420.936 824.553C429.447 839.021 434.553 861.149 436.255 878.170C466.894 879.872 497.532 879.021 513.702 878.170C533.277 875.617 546.043 871.362 557.957 856.894C575.830 836.468 583.489 781.149 590.298 634.766C591.149 626.255 591.149 610.085 591.149 610.085L435.404 610.085C437.957 585.404 439.660 559.872 441.362 532.638L614.128 532.638L614.128 492.638L618.383 497.745C629.447 479.872 640.511 459.447 650.723 438.170C662.638 521.574 681.362 610.936 715.404 690.936C683.915 753.064 640.511 803.277 579.234 841.574C589.447 853.489 606.468 880.723 612.426 892.638C669.447 853.489 712 807.532 745.191 753.064C774.128 805.830 810.723 852.638 858.383 889.234C867.745 873.915 887.319 849.234 900.085 837.319C846.468 799.872 806.468 748.809 776.681 690.085C817.532 591.362 835.404 468.809 843.064 317.319L887.319 317.319L887.319 262.851L712.851 262.851C724.766 216.043 735.830 166.681 744.340 117.319M696.681 317.319L786.894 317.319C781.787 434.766 770.723 534.340 744.340 616.894C712.851 529.234 697.532 433.064 688.170 344.553M270.298 107.106C232 237.319 170.723 367.532 100.085 453.489C111.149 468.809 129.021 503.702 134.979 518.170C157.957 489.234 180.085 456.043 201.362 420.298L201.362 889.234L260.936 889.234L260.936 304.553C287.319 245.830 310.298 184.553 329.021 124.128"/></svg>