<svg xmlns="http://www.w3.org/2000/svg" viewBox="0 0 1000 1000" fill="currentColor"><path d="M126.019 563.621L126.019 624.499L414.980 624.499C336.094 704.242 210.907 780.555 100.296 817.426C114.015 830.287 133.736 855.153 144.026 870.587C254.637 827.715 378.967 746.257 462.997 655.368L462.997 893.738L529.878 893.738L529.878 646.793C612.193 740.255 738.238 822.570 856.566 863.728C865.998 846.579 885.719 822.570 900.296 809.708C785.398 776.268 661.925 705.100 585.612 624.499L873.715 624.499L873.715 563.621L529.878 563.621L529.878 474.446L462.997 474.446L462.997 563.621M165.462 178.626L165.462 429.001L106.298 436.718L113.158 498.454C215.194 483.020 363.533 461.584 503.297 440.148L501.582 381.841L368.677 401.563L368.677 275.518L493.865 275.518L493.865 218.926L368.677 218.926L368.677 105.743L305.226 105.743L305.226 410.137L226.341 421.284L226.341 178.626M812.836 167.479C763.104 194.917 683.361 224.071 605.333 247.222L605.333 105.743L541.025 105.743L541.025 383.556C541.025 454.725 562.461 473.588 645.633 473.588C663.640 473.588 776.823 473.588 794.830 473.588C864.283 473.588 883.147 446.150 890.864 343.256C872.857 338.969 846.277 329.537 832.557 319.248C829.128 400.705 823.125 415.282 790.542 415.282C765.676 415.282 670.499 415.282 652.493 415.282C612.193 415.282 605.333 410.137 605.333 383.556L605.333 302.099C693.651 279.805 791.400 250.652 861.711 216.354"/></svg>