<svg xmlns="http://www.w3.org/2000/svg" viewBox="0 0 1000 1000" fill="currentColor"><path d="M171.826 690L375.304 690L375.304 781.304L171.826 781.304M171.826 641.304L171.826 575.217C179.652 580.435 189.217 589.130 193.565 594.348C240.522 545.652 250.957 475.217 250.957 423.913L250.957 356.957L291.826 356.957L291.826 503.043C291.826 543.043 302.261 550.870 334.435 550.870C340.522 550.870 364.870 550.870 370.957 550.870L375.304 550.870L375.304 641.304M104.870 137.826L104.870 193.478L205.739 193.478L205.739 301.304L124 301.304L124 895.217L171.826 895.217L171.826 834.348L375.304 834.348L375.304 883.913L424.870 883.913L424.870 301.304L337.913 301.304L337.913 193.478L439.652 193.478L439.652 137.826M250.957 301.304L250.957 193.478L292.696 193.478L292.696 301.304M171.826 563.913L171.826 356.957L215.304 356.957L215.304 423.043C215.304 466.522 209.217 520.435 171.826 563.913M326.609 356.957L375.304 356.957L375.304 512.609C373.565 513.478 370.957 513.478 NaN 513.478C357.913 513.478 341.391 513.478 337.913 513.478C328.348 513.478 326.609 512.609 326.609 502.174M740.522 99.565L740.522 214.348L606.609 214.348L606.609 99.565L550.957 99.565L550.957 214.348L468.348 214.348L468.348 271.739L550.957 271.739L550.957 386.522L451.826 386.522L451.826 445.652L895.304 445.652L895.304 386.522L797.043 386.522L797.043 271.739L870.087 271.739L870.087 214.348L797.043 214.348L797.043 99.565M606.609 271.739L740.522 271.739L740.522 386.522L606.609 386.522M562.261 714.348L786.609 714.348L786.609 806.522L562.261 806.522M562.261 661.304L562.261 571.739L786.609 571.739L786.609 661.304M505.739 516.087L505.739 899.565L562.261 899.565L562.261 860.435L786.609 860.435L786.609 895.217L844.870 895.217L844.870 516.087"/></svg>