<svg xmlns="http://www.w3.org/2000/svg" viewBox="0 0 1000 1000" fill="currentColor"><path d="M278.405 724.668L471.658 724.668L471.658 813.460L278.405 813.460M278.405 673.308L278.405 587.998L471.658 587.998L471.658 673.308M731.071 724.668L731.071 813.460L533.465 813.460L533.465 724.668M731.071 673.308L533.465 673.308L533.465 587.998L731.071 587.998M213.116 534.026L213.116 899.641L278.405 899.641L278.405 867.432L731.071 867.432L731.071 896.159L798.971 896.159L798.971 534.026M502.126 146.649L502.126 204.973L603.976 204.973C591.789 322.492 559.580 412.155 444.672 462.644C458.601 473.090 476.011 494.853 482.975 508.781C612.681 447.845 650.984 343.384 665.782 204.973L799.841 204.973C793.748 351.219 785.042 406.931 771.985 422.601C765.891 430.435 758.057 431.306 744.999 431.306C731.941 431.306 696.250 431.306 658.818 427.824C667.523 443.493 674.487 466.997 675.358 485.277C714.531 487.018 752.834 487.018 773.726 485.277C797.230 483.536 812.899 477.443 825.956 460.903C846.849 436.529 855.554 366.017 864.259 174.505C864.259 165.800 865.129 146.649 865.129 146.649M168.720 488.760C185.260 477.443 213.116 466.997 408.111 413.896C416.816 432.176 423.780 449.587 428.133 464.385L485.587 440.011C469.047 388.651 425.521 310.305 384.607 251.980L331.506 273.743C349.787 300.729 367.197 331.197 383.737 361.665L229.656 399.967L229.656 212.807C309.743 195.397 395.924 172.764 458.601 147.519L414.205 99.641C355.010 126.627 254.030 154.483 166.109 173.634L166.109 364.276C166.109 404.320 146.958 427.824 133.900 438.270C144.346 448.716 161.756 473.961 168.720 487.889"/></svg>