<svg xmlns="http://www.w3.org/2000/svg" viewBox="0 0 1000 1000" fill="currentColor"><path d="M278.945 470.608L278.945 669.955L171.001 669.955L171.001 470.608M278.945 412.284L171.001 412.284L171.001 219.030L278.945 219.030M116.159 159.836L116.159 799.662L171.001 799.662L171.001 729.150L334.657 729.150L334.657 159.836M600.163 99.770L600.163 170.282L399.946 170.282L399.946 220.771L600.163 220.771L600.163 274.743L422.579 274.743L422.579 322.621L600.163 322.621L600.163 380.946L376.442 380.946L376.442 431.435L884.820 431.435L884.820 380.946L663.711 380.946L663.711 322.621L851.741 322.621L851.741 274.743L663.711 274.743L663.711 220.771L867.410 220.771L867.410 170.282L663.711 170.282L663.711 99.770M769.042 534.156L769.042 599.444L498.313 599.444L498.313 534.156M438.248 484.536L438.248 899.770L498.313 899.770L498.313 757.877L769.042 757.877L769.042 832.741C769.042 842.317 765.560 845.799 755.114 845.799C744.668 846.669 708.107 846.669 668.063 844.928C676.768 860.597 684.603 883.231 687.214 899.770C742.057 899.770 777.748 898.900 801.251 890.195C823.885 880.619 829.978 864.950 829.978 832.741L829.978 484.536M498.313 646.452L769.042 646.452L769.042 711.740L498.313 711.740"/></svg>