<svg xmlns="http://www.w3.org/2000/svg" viewBox="0 0 1000 1000" fill="currentColor"><path d="M433.484 186.050L433.484 244.184L627.844 244.184L627.844 334.423L429.145 334.423L429.145 481.061L487.280 481.061L487.280 390.822L831.748 390.822L831.748 481.061L892.486 481.061L892.486 334.423L691.184 334.423L691.184 244.184L885.544 244.184L885.544 186.050L691.184 186.050L691.184 100.150L627.844 100.150L627.844 186.050M416.998 636.375L416.998 695.377L627.844 695.377L627.844 829C627.844 839.412 624.373 842.015 613.093 842.015C600.946 842.883 561.033 842.883 517.649 841.148C526.325 858.501 535.002 882.796 538.473 900.150C594.872 900.150 634.785 900.150 659.948 890.605C685.111 881.061 692.052 864.575 692.052 829.868L692.052 695.377L897.692 695.377L897.692 636.375L692.052 636.375L692.052 603.403C743.245 573.035 797.041 533.989 836.954 495.811L795.306 461.104L781.423 464.575L491.618 464.575L491.618 519.239L720.685 519.239C692.920 543.534 659.080 567.829 628.711 584.315L627.844 636.375M162.768 132.254L162.768 443.751C162.768 571.299 158.430 745.703 102.898 868.913C117.649 874.119 142.811 888.002 154.091 897.547C190.534 815.117 207.887 706.657 214.829 604.271L332.833 604.271L332.833 815.117C332.833 826.397 328.495 829.868 318.082 830.735C306.803 830.735 273.831 831.603 235.653 829.868C243.462 846.354 252.139 874.119 253.874 890.605C309.406 890.605 341.510 889.738 364.069 878.458C384.026 868.046 390.967 848.957 390.967 815.985L390.967 132.254M220.035 191.256L332.833 191.256L332.833 335.291L220.035 335.291M220.035 395.161L332.833 395.161L332.833 543.534L218.299 543.534C219.167 507.959 220.035 474.119 220.035 443.751"/></svg>