<svg xmlns="http://www.w3.org/2000/svg" viewBox="0 0 1000 1000" fill="currentColor"><path d="M563.909 432.431C600.155 459.184 644.168 498.019 665.743 523.909L698.537 486.800C676.099 461.773 631.223 424.665 594.977 399.638M210.080 107.081L210.080 900.177L272.216 900.177L272.216 107.081M134.999 273.640C132.410 342.680 121.191 438.472 100.479 495.430L152.259 514.416C172.971 450.554 185.053 350.447 185.916 279.681M278.257 260.695C301.558 315.064 326.585 386.693 336.078 429.843L383.543 406.542C374.050 365.981 348.160 296.078 323.133 242.572M506.088 398.775L779.659 398.775L772.755 525.635L489.691 525.635M340.393 525.635L340.393 582.593L421.515 582.593C411.159 655.948 399.940 724.988 389.584 777.631L747.728 777.631C741.687 805.247 734.783 821.644 727.879 830.274C720.112 840.630 711.482 843.219 697.674 843.219C682.140 843.219 650.209 842.356 613.100 839.767C622.593 854.438 628.634 878.602 630.360 895.862C667.469 896.725 701.989 897.588 723.564 894.999C748.591 893.273 765.851 886.369 781.385 864.794C792.604 850.986 802.097 825.096 810.727 777.631L885.808 777.631L885.808 723.262L817.631 723.262C822.809 685.290 826.261 639.551 830.576 582.593L899.616 582.593L899.616 525.635L834.028 525.635L841.795 376.337C841.795 367.707 842.658 345.269 842.658 345.269L449.994 345.269C444.816 399.638 437.049 462.636 429.282 525.635M461.213 723.262L481.924 582.593L769.303 582.593C764.988 641.277 760.673 687.016 756.358 723.262M544.923 616.250C585.484 645.592 634.675 687.016 657.976 714.632L689.907 675.797C665.743 649.907 615.689 610.209 575.991 582.593M505.225 100.177C475.883 193.381 426.693 283.996 367.146 343.543C381.817 352.173 407.707 370.296 418.926 379.789C448.268 347.858 475.883 307.297 500.910 262.421L887.534 262.421L887.534 203.737L530.252 203.737C544.060 174.395 555.279 145.053 565.635 114.848"/></svg>